<?xml version="1.0" encoding="UTF-8" standalone="no"?>
<svg
   xmlns:dc="http://purl.org/dc/elements/1.1/"
   xmlns:cc="http://creativecommons.org/ns#"
   xmlns:rdf="http://www.w3.org/1999/02/22-rdf-syntax-ns#"
   xmlns:svg="http://www.w3.org/2000/svg"
   xmlns="http://www.w3.org/2000/svg"
   viewBox="0 0 594.14374 589.53265"
   height="589.53265"
   width="594.14374"
   xml:space="preserve"
   id="svg4811"
   version="1.1"><metadata
     id="metadata4817"><rdf:RDF><cc:Work
         rdf:about=""><dc:format>image/svg+xml</dc:format><dc:type
           rdf:resource="http://purl.org/dc/dcmitype/StillImage" /><dc:title></dc:title></cc:Work></rdf:RDF></metadata><defs
     id="defs4815"><clipPath
       id="clipPath4827"
       clipPathUnits="userSpaceOnUse"><path
         id="path4825"
         d="M 0,612 H 2130 V 0 H 0 Z" /></clipPath></defs><g
     transform="matrix(1.3333333,0,0,-1.3333333,-1473.1571,686.04334)"
     id="g4819"><g
       id="g4821"><g
         clip-path="url(#clipPath4827)"
         id="g4823"><g
           transform="translate(1281.7383,292.8828)"
           id="g5193"><path
             id="path5195"
             style="fill:#652f8f;fill-opacity:1;fill-rule:nonzero;stroke:none"
             d="m 0,0 c -0.23,-13.944 -1.529,-23.774 -2.276,-28.362 8.674,-2.545 18.484,-4.291 29.972,-4.552 2.438,-0.056 4.862,-0.084 7.203,-0.084 12.021,0 21.993,0.729 30.428,1.876 -1.6,29.538 -5.368,57.869 -11.224,84.328 -0.275,1.204 -0.554,2.408 -0.829,3.614 -1.242,5.547 -2.64,11.055 -4.011,16.479 -0.365,1.349 -0.726,2.695 -1.086,4.033 -0.359,1.339 -0.692,2.678 -1.073,3.994 -0.75,2.637 -1.463,5.25 -2.225,7.803 -1.476,5.121 -3.035,10.03 -4.529,14.685 -0.776,2.317 -1.51,4.581 -2.272,6.75 -0.377,1.087 -0.734,2.162 -1.109,3.207 -0.374,1.045 -0.742,2.071 -1.103,3.076 -1.462,4.012 -2.837,7.684 -4.136,10.909 -1.293,3.225 -2.435,6.042 -3.446,8.329 -1.016,2.284 -1.804,4.094 -2.392,5.301 -0.577,1.213 -0.9,1.857 -0.9,1.857 0,0 0.445,-0.565 1.221,-1.671 0.768,-1.108 1.892,-2.741 3.209,-4.889 1.332,-2.142 2.892,-4.778 4.57,-7.866 0.866,-1.574 1.754,-3.271 2.665,-5.075 6.954,2.672 13.928,7.493 19.858,13.202 -0.245,0.144 -0.491,0.294 -0.739,0.446 -0.482,0.273 -0.934,0.611 -1.39,0.948 -0.075,0.057 -0.152,0.113 -0.228,0.169 l -0.398,0.296 -0.378,0.323 -0.75,0.648 c -0.325,0.299 -0.636,0.607 -0.943,0.913 -0.149,0.152 -0.299,0.302 -0.446,0.453 -0.421,0.48 -0.856,0.922 -1.222,1.398 -0.187,0.233 -0.371,0.461 -0.551,0.684 -0.17,0.23 -0.337,0.455 -0.499,0.674 -0.326,0.431 -0.604,0.863 -0.867,1.25 -1.029,1.574 -1.55,2.694 -1.55,2.694 0,0 0.86,-0.892 2.3,-2.008 0.364,-0.273 0.748,-0.577 1.177,-0.865 0.213,-0.147 0.43,-0.296 0.653,-0.449 0.228,-0.144 0.461,-0.29 0.698,-0.439 0.463,-0.308 0.981,-0.561 1.478,-0.849 0.517,-0.256 1.036,-0.516 1.564,-0.745 l 0.794,-0.316 0.39,-0.156 0.4,-0.123 c 0.528,-0.161 1.031,-0.34 1.537,-0.425 0.499,-0.108 0.971,-0.221 1.426,-0.248 0.451,-0.038 0.863,-0.124 1.251,-0.096 0.106,0 0.204,0 0.304,0.001 3.37,3.797 6.23,7.826 8.316,11.775 -0.955,0.572 -1.667,2.807 -1.667,5.484 0,3.109 0.962,5.631 2.147,5.631 1.103,0 2.012,-2.188 2.131,-4.999 0.834,2.622 1.233,5.127 1.102,7.411 -0.31,5.43 -3.633,8.871 -10.159,10.516 -2.142,0.541 -3.705,1.935 -4.985,3.862 0.069,-1.214 0.112,-2.427 0.131,-3.639 0.014,-1.332 0.024,-2.661 -0.036,-3.989 -0.046,-1.328 -0.135,-2.653 -0.227,-3.976 -0.035,-0.661 -0.113,-1.32 -0.18,-1.979 -0.07,-0.659 -0.131,-1.318 -0.224,-1.975 -0.161,-1.317 -0.376,-2.617 -0.612,-3.919 l 0.008,1.982 c 0,0.27 -0.003,0.541 -0.008,0.811 -0.04,-0.967 -0.099,-1.906 -0.178,-2.806 0.821,-0.544 1.649,-1.08 2.464,-1.637 -0.928,0.377 -1.842,0.776 -2.762,1.167 l -2.738,1.208 c -0.913,0.404 -1.815,0.827 -2.723,1.239 -0.905,0.418 -1.817,0.822 -2.717,1.251 l -5.398,2.563 c -0.632,0.306 -1.262,0.614 -1.892,0.921 -1.159,0.566 -2.317,1.134 -3.471,1.71 l -4.429,2.212 5.012,0.45 3.417,0.305 1.924,0.163 c 0.003,2.192 0.078,4.385 0.248,6.577 0.097,1.338 0.241,2.675 0.418,4.012 0.181,1.336 0.388,2.674 0.667,4.007 0.278,1.333 0.608,2.665 1.033,3.998 0.436,1.333 0.943,2.658 1.801,3.999 0.221,0.335 0.47,0.671 0.78,1.004 0.31,0.331 0.681,0.667 1.191,0.945 0.254,0.138 0.541,0.259 0.864,0.332 0.084,0.027 0.268,0.055 0.41,0.071 -3.651,7.65 -9.447,14.799 -21.959,16.466 -16.224,2.162 -31.712,0.306 -43.612,-5.224 -8.834,-4.107 -19.884,-12.286 -22.357,-27.938 -3.603,-22.792 2.55,-36.846 11.066,-56.299 5.425,-12.391 11.574,-26.436 16.747,-45.94 C -1.187,45.909 0.296,17.787 0,0" /></g><g
           transform="translate(1147.0605,227.1357)"
           id="g5197"><path
             id="path5199"
             style="fill:#652f8f;fill-opacity:1;fill-rule:nonzero;stroke:none"
             d="m 0,0 c 0,-1.655 -0.736,-3.136 -1.895,-4.143 4.057,-4.669 9.303,-9.146 15.543,-13.383 0.963,1.588 2.701,2.652 4.693,2.652 3.03,0 5.487,-2.458 5.487,-5.488 0,-1.074 -0.312,-2.073 -0.846,-2.918 6.356,-3.572 13.434,-6.931 21.093,-10.044 0.849,1.933 2.779,3.286 5.026,3.286 3.03,0 5.487,-2.457 5.487,-5.487 0,-0.592 -0.097,-1.162 -0.27,-1.696 7.772,-2.763 16.018,-5.289 24.622,-7.545 0.683,2.255 2.775,3.898 5.252,3.898 3.032,0 5.488,-2.458 5.488,-5.488 0,-0.348 -0.035,-0.687 -0.097,-1.017 8.47,-1.94 17.22,-3.62 26.149,-5.017 0.369,2.673 2.656,4.734 5.43,4.734 3.031,0 5.488,-2.457 5.488,-5.488 0,-0.27 -0.027,-0.534 -0.064,-0.794 9.167,-1.178 18.473,-2.05 27.81,-2.595 0.188,2.859 2.561,5.122 5.468,5.122 3.032,0 5.489,-2.457 5.489,-5.487 0,-0.041 -0.005,-0.081 -0.006,-0.121 10.866,-0.328 21.715,-0.192 32.381,0.449 -0.017,0.176 -0.027,0.356 -0.027,0.538 0,3.03 2.455,5.487 5.486,5.487 2.929,0 5.316,-2.296 5.474,-5.184 10.554,0.998 20.86,2.522 30.752,4.615 -0.079,0.37 -0.123,0.754 -0.123,1.147 0,3.03 2.458,5.488 5.488,5.488 2.554,0 4.695,-1.748 5.307,-4.111 9.485,2.495 18.499,5.566 26.872,9.257 -0.262,0.641 -0.408,1.34 -0.408,2.074 0,3.031 2.457,5.488 5.488,5.488 2.041,0 3.817,-1.117 4.764,-2.77 8.245,4.424 15.705,9.556 22.185,15.446 -1.116,1.005 -1.822,2.456 -1.822,4.075 0,3.032 2.457,5.489 5.488,5.489 1.568,0 2.978,-0.66 3.978,-1.715 1.201,1.398 2.354,2.832 3.457,4.302 -5.286,9.617 -16.356,17.348 -30.927,21.192 -3.21,-9.482 -11.265,-18.953 -22.906,-26.697 -11.092,-7.377 -30.717,-16.716 -61.228,-19.305 -7.118,-0.604 -14.284,-0.911 -21.297,-0.911 h -0.001 c -58.966,0 -101.851,20.981 -127.443,38.583 -5.336,3.67 -12.824,9.848 -17.07,17.848 C 27.332,26.479 8.535,21.137 -1.098,8.602 -1.973,7.464 -2.746,6.29 -3.432,5.086 -1.42,4.271 0,2.303 0,0" /></g><g
           transform="translate(1207.0283,238.4082)"
           id="g5201"><path
             id="path5203"
             style="fill:#652f8f;fill-opacity:1;fill-rule:nonzero;stroke:none"
             d="m 0,0 c 1.892,-1.302 3.883,-2.622 5.97,-3.951 2.765,-0.894 5.98,-1.888 9.588,-2.931 0.568,2.424 2.739,4.232 5.338,4.232 3.031,0 5.487,-2.457 5.487,-5.488 0,-0.566 -0.086,-1.111 -0.245,-1.626 7.867,-2.012 16.914,-4.042 26.821,-5.779 0.554,2.444 2.735,4.271 5.347,4.271 3.031,0 5.488,-2.457 5.488,-5.489 0,-0.168 -0.01,-0.335 -0.025,-0.5 8.363,-1.189 17.199,-2.121 26.345,-2.636 0.307,2.739 2.629,4.87 5.449,4.87 2.96,0 5.365,-2.343 5.479,-5.273 8.606,-0.15 17.42,0.107 26.311,0.891 -0.008,0.113 -0.018,0.224 -0.018,0.338 0,3.031 2.457,5.488 5.487,5.488 2.728,0 4.985,-1.991 5.409,-4.598 8.21,1.135 16.441,2.76 24.594,4.969 -0.164,0.521 -0.254,1.075 -0.254,1.65 0,3.031 2.457,5.489 5.489,5.489 2.495,0 4.597,-1.668 5.263,-3.948 7.68,2.599 15.248,5.768 22.622,9.584 -0.466,0.807 -0.737,1.741 -0.737,2.739 0,3.031 2.457,5.488 5.488,5.488 2.071,0 3.871,-1.147 4.805,-2.839 6.093,3.731 12.018,7.951 17.723,12.718 -1.98,5.165 -6.787,9.143 -14.118,11.527 -4.246,1.382 -8.064,2.053 -11.671,2.053 -6.352,0 -12.073,-2.087 -19.314,-4.73 -13.343,-4.871 -31.615,-11.54 -68.511,-11.541 -2.392,0 -4.865,0.029 -7.351,0.085 C 72.632,15.737 53.027,26.06 37.274,34.354 26.435,40.061 17.074,44.989 7.53,44.989 4.349,44.989 1.251,44.464 -1.938,43.384 -10.609,40.446 -16.376,34.438 -17.366,27.312 -18.622,18.265 -12.454,8.565 0,0" /></g><g
           transform="translate(1332.2754,487.417)"
           id="g5205"><path
             id="path5207"
             style="fill:#652f8f;fill-opacity:1;fill-rule:nonzero;stroke:none"
             d="M 0,0 0.003,-0.001 H 0.006 V 0 H 0.021 C -0.007,0.009 -0.015,0.005 0,0" /></g><g
           transform="translate(1140.9043,192.2744)"
           id="g5209"><path
             id="path5211"
             style="fill:#652f8f;fill-opacity:1;fill-rule:nonzero;stroke:none"
             d="m 0,0 c -1.16,2.072 -2.18,4.125 -3.072,6.158 -6.703,-3.288 -15.617,-11.806 -21.205,-23.23 0.968,-3.888 2.447,-7.625 4.402,-11.215 0.816,0.481 1.766,0.764 2.782,0.764 3.031,0 5.489,-2.458 5.489,-5.489 0,-1.756 -0.828,-3.314 -2.11,-4.318 4.495,-5.453 10.169,-10.524 16.857,-15.23 0.978,1.508 2.672,2.507 4.603,2.507 3.031,0 5.488,-2.457 5.488,-5.487 0,-1.077 -0.315,-2.079 -0.851,-2.927 7.056,-4.115 14.938,-7.919 23.513,-11.424 0.827,1.982 2.783,3.375 5.065,3.375 3.031,0 5.488,-2.457 5.488,-5.487 0,-0.638 -0.114,-1.248 -0.314,-1.817 8.574,-3.093 17.719,-5.926 27.316,-8.511 0.558,2.44 2.737,4.263 5.346,4.263 3.031,0 5.487,-2.457 5.487,-5.488 0,-0.518 -0.076,-1.017 -0.21,-1.493 9.026,-2.191 18.393,-4.183 28.018,-5.982 0.43,2.601 2.683,4.587 5.408,4.587 3.031,0 5.487,-2.457 5.487,-5.488 0,-0.349 -0.036,-0.689 -0.098,-1.02 9.668,-1.636 19.554,-3.089 29.578,-4.367 0.2,2.848 2.568,5.098 5.468,5.098 3.031,0 5.488,-2.457 5.488,-5.488 0,-0.315 -0.033,-0.623 -0.084,-0.924 10.818,-1.235 21.759,-2.275 32.722,-3.132 v 0.013 c 0,3.03 2.456,5.487 5.487,5.487 3.03,0 5.487,-2.457 5.487,-5.487 0,-0.274 -0.026,-0.541 -0.065,-0.805 12.024,-0.805 24.032,-1.395 35.895,-1.783 0.157,2.891 2.543,5.188 5.472,5.188 3.031,0 5.488,-2.457 5.488,-5.489 v -10e-4 c 13.405,-0.3 26.568,-0.343 39.288,-0.152 -0.002,0.052 -0.008,0.102 -0.008,0.153 0,3.032 2.457,5.489 5.488,5.489 3.007,0 5.445,-2.42 5.484,-5.416 3.938,0.102 7.825,0.228 11.657,0.377 18.489,2.054 35.865,4.299 51.463,6.569 C 320.005,-90.165 199.96,-70.339 83.834,-44.187 40.906,-35.406 11.186,-19.973 0,0" /></g><g
           transform="translate(1430.2773,158.3252)"
           id="g5213"><path
             id="path5215"
             style="fill:#652f8f;fill-opacity:1;fill-rule:nonzero;stroke:none"
             d="m 0,0 c -19.735,-7.668 -45.695,-13.227 -75.075,-16.073 -14.77,-1.431 -30.016,-2.148 -45.282,-2.148 -6.262,0 -12.525,0.128 -18.763,0.369 46.153,-9.468 90.618,-17.732 128.405,-24.398 2.181,0.219 4.306,0.494 6.383,0.816 -0.014,0.163 -0.025,0.326 -0.025,0.492 0,3.03 2.457,5.487 5.488,5.487 2.435,0 4.498,-1.588 5.215,-3.785 11.738,3.03 21.596,7.707 29.818,13.115 -0.6,0.88 -0.952,1.943 -0.952,3.09 0,3.03 2.456,5.487 5.487,5.487 1.727,0 3.266,-0.799 4.272,-2.046 7.8,6.504 13.68,13.469 17.979,19.619 -1.564,0.966 -2.61,2.693 -2.61,4.666 0,2.702 1.953,4.943 4.524,5.399 C 61.744,23.318 54.207,35.039 46.006,41.672 44.604,35.369 41.367,29.2 36.406,23.469 28.338,14.147 16.09,6.252 0,0" /></g><g
           transform="translate(1342.9141,425.2129)"
           id="g5217"><path
             id="path5219"
             style="fill:#e90e8b;fill-opacity:1;fill-rule:nonzero;stroke:none"
             d="m 0,0 c 0.059,-0.111 0.119,-0.221 0.17,-0.338 0.394,-0.711 0.679,-1.5 0.993,-2.277 0.126,-0.406 0.253,-0.814 0.38,-1.223 0.134,-0.406 0.213,-0.843 0.325,-1.265 0.379,-1.716 0.641,-3.529 0.781,-5.403 0.106,-1.258 0.171,-2.538 0.238,-3.827 0.008,-0.241 0.015,-0.484 0.023,-0.726 0.02,-0.515 0.036,-1.037 0.045,-1.557 0.018,-2.116 0.035,-4.199 0.053,-6.215 0.021,-1.024 0.035,-2.039 0.08,-3.037 0.051,-0.999 0.109,-1.982 0.195,-2.942 0.1,-0.96 0.211,-1.896 0.358,-2.8 0.161,-0.905 0.328,-1.777 0.546,-2.608 0.423,-1.661 0.999,-3.146 1.63,-4.389 0.63,-1.247 1.341,-2.238 1.974,-2.993 0.621,-0.762 1.208,-1.281 1.59,-1.623 0.401,-0.326 0.615,-0.499 0.615,-0.499 0,0 -0.141,0.237 -0.404,0.681 -0.137,0.219 -0.276,0.502 -0.449,0.82 -0.087,0.158 -0.163,0.345 -0.256,0.53 -0.093,0.186 -0.194,0.382 -0.281,0.599 -0.379,0.851 -0.747,1.912 -1.044,3.144 -0.294,1.233 -0.522,2.636 -0.62,4.189 -0.028,0.396 -0.049,0.801 -0.063,1.214 0.137,-0.205 0.277,-0.406 0.409,-0.604 0.224,-0.307 0.399,-0.63 0.649,-0.895 0.235,-0.271 0.463,-0.536 0.686,-0.793 0.225,-0.254 0.425,-0.51 0.672,-0.715 0.473,-0.427 0.897,-0.832 1.313,-1.178 0.449,-0.325 0.855,-0.617 1.224,-0.869 0.186,-0.124 0.354,-0.252 0.522,-0.35 0.17,-0.091 0.332,-0.177 0.481,-0.255 0.301,-0.158 0.556,-0.293 0.763,-0.401 0.418,-0.212 0.642,-0.326 0.642,-0.326 0,0 -0.165,0.189 -0.475,0.54 -0.158,0.173 -0.352,0.387 -0.578,0.638 -0.116,0.125 -0.238,0.26 -0.37,0.403 -0.127,0.146 -0.241,0.312 -0.371,0.479 -0.255,0.33 -0.536,0.695 -0.842,1.093 -0.27,0.422 -0.562,0.877 -0.874,1.364 -0.305,0.483 -0.554,1.045 -0.853,1.598 -0.156,0.272 -0.25,0.591 -0.385,0.891 -0.123,0.308 -0.259,0.613 -0.377,0.936 -0.101,0.328 -0.207,0.663 -0.312,1.005 -0.055,0.169 -0.108,0.338 -0.162,0.51 -0.041,0.179 -0.081,0.359 -0.121,0.54 -0.084,0.359 -0.17,0.724 -0.256,1.095 -0.061,0.379 -0.124,0.764 -0.188,1.152 -0.228,1.567 -0.374,3.236 -0.415,5.015 -0.022,0.439 -0.016,0.893 -0.027,1.347 -0.009,0.455 -0.024,0.908 -0.021,1.378 -0.004,0.938 -0.009,1.887 -0.011,2.845 v 0.009 c 0.003,0.374 0.009,0.748 0.011,1.129 0,0.532 -0.013,1.077 -0.028,1.646 -0.034,1.117 -0.073,2.235 -0.177,3.37 -0.201,2.261 -0.553,4.568 -1.245,6.801 -0.159,0.558 -0.359,1.111 -0.559,1.656 -0.229,0.54 -0.438,1.08 -0.701,1.6 C 4.664,0.637 4.375,1.142 4.101,1.646 3.791,2.132 3.503,2.626 3.16,3.079 3.139,3.108 3.115,3.136 3.094,3.166 2.098,2.087 1.065,1.03 0,0" /></g><g
           transform="translate(1493.2275,158.3506)"
           id="g5221"><path
             id="path5223"
             style="fill:#e90e8b;fill-opacity:1;fill-rule:nonzero;stroke:none"
             d="m 0,0 c -4.299,-6.15 -10.179,-13.115 -17.979,-19.619 0.759,-0.942 1.216,-2.138 1.216,-3.442 0,-1.901 -0.966,-3.576 -2.435,-4.56 0.344,-3.494 0.577,-8.58 0.052,-14.578 C -2.54,-31.486 2.358,-17.57 3.262,-6.77 3.429,-4.774 3.469,-2.779 3.399,-0.796 3.228,-0.812 3.054,-0.821 2.877,-0.821 1.821,-0.821 0.837,-0.518 0,0" /></g><g
           transform="translate(1469.2988,130.0654)"
           id="g5225"><path
             id="path5227"
             style="fill:#e90e8b;fill-opacity:1;fill-rule:nonzero;stroke:none"
             d="m 0,0 c -1.174,0.377 -2.176,1.137 -2.857,2.135 -8.222,-5.408 -18.08,-10.085 -29.819,-13.115 0.176,-0.537 0.273,-1.108 0.273,-1.703 0,-1.594 -0.685,-3.026 -1.771,-4.029 8.77,-1.52 17.099,-2.942 24.91,-4.258 3.243,1.262 6.211,2.62 8.92,4.057 C 0.593,-9.917 0.37,-3.899 0,0" /></g><g
           transform="translate(1419.5625,116.0752)"
           id="g5229"><path
             id="path5231"
             style="fill:#e90e8b;fill-opacity:1;fill-rule:nonzero;stroke:none"
             d="M 0,0 C 2.354,-0.415 4.682,-0.824 6.981,-1.227 6.656,-0.605 6.447,0.084 6.383,0.816 4.306,0.494 2.181,0.219 0,0" /></g><g
           transform="translate(1394.7295,87.6328)"
           id="g5233"><path
             id="path5235"
             style="fill:#e90e8b;fill-opacity:1;fill-rule:nonzero;stroke:none"
             d="m 0,0 c -0.001,-2.175 -1.271,-4.049 -3.105,-4.937 v -0.535 c 14.518,1.024 28.84,2.243 42.721,3.597 -0.197,0.54 -0.311,1.118 -0.328,1.723 C 26.567,-0.344 13.405,-0.301 0,0" /></g><g
           transform="translate(1444.9844,87.6338)"
           id="g5237"><path
             id="path5239"
             style="fill:#e90e8b;fill-opacity:1;fill-rule:nonzero;stroke:none"
             d="M 0,0 C 0,-0.276 -0.026,-0.546 -0.066,-0.812 3.885,-0.4 7.794,0.021 11.654,0.449 7.822,0.301 3.935,0.175 -0.003,0.072 -0.003,0.048 0,0.024 0,0" /></g><g
           transform="translate(1145.2373,132.4414)"
           id="g5241"><path
             id="path5243"
             style="fill:#e90e8b;fill-opacity:1;fill-rule:nonzero;stroke:none"
             d="m 0,0 c -1.263,1.006 -2.075,2.554 -2.075,4.293 0,1.1 0.328,2.122 0.885,2.98 -6.688,4.706 -12.362,9.777 -16.857,15.23 -0.723,-0.566 -1.59,-0.952 -2.538,-1.099 -1.677,-6.344 -4.005,-18.459 -1.769,-31.066 1.741,-2.211 3.67,-4.385 5.798,-6.513 4.402,-4.401 9.965,-8.429 16.653,-12.077 C -1.796,-15.095 -0.931,-5.432 0,0" /></g><g
           transform="translate(1216.8467,104.0381)"
           id="g5245"><path
             id="path5247"
             style="fill:#e90e8b;fill-opacity:1;fill-rule:nonzero;stroke:none"
             d="m 0,0 c -1.577,0.964 -2.634,2.697 -2.634,4.681 0,0.421 0.053,0.83 0.143,1.224 -9.598,2.585 -18.742,5.418 -27.317,8.511 -0.531,-1.512 -1.703,-2.718 -3.192,-3.296 -0.417,-6.137 -0.896,-16.857 0.073,-25.011 5.537,-1.348 11.397,-2.58 17.588,-3.689 4.924,-0.881 10.055,-1.685 15.383,-2.414 C -0.753,-12.815 -0.392,-4.955 0,0" /></g><g
           transform="translate(1383.7539,87.6338)"
           id="g5249"><path
             id="path5251"
             style="fill:#e90e8b;fill-opacity:1;fill-rule:nonzero;stroke:none"
             d="m 0,0 c 0,0.102 0.01,0.201 0.016,0.301 -11.864,0.387 -23.871,0.977 -35.896,1.783 -0.286,-1.947 -1.591,-3.561 -3.36,-4.279 -0.071,-1.817 -0.099,-3.901 0.003,-5.815 14.122,0.51 28.309,1.265 42.341,2.209 v 0.864 C 1.27,-4.05 0,-2.176 0,0" /></g><g
           transform="translate(1255.5313,95.6738)"
           id="g5253"><path
             id="path5255"
             style="fill:#e90e8b;fill-opacity:1;fill-rule:nonzero;stroke:none"
             d="m 0,0 c -1.566,0.966 -2.615,2.693 -2.615,4.669 0,0.308 0.032,0.606 0.08,0.9 -9.625,1.799 -18.992,3.791 -28.018,5.983 -0.478,-1.692 -1.745,-3.048 -3.38,-3.652 -0.391,-5.051 -0.75,-13.19 0.173,-20.169 10.563,-1.323 21.873,-2.359 33.901,-3.102 C -0.501,-9.729 -0.299,-3.958 0,0" /></g><g
           transform="translate(1179.0889,115.5439)"
           id="g5257"><path
             id="path5259"
             style="fill:#e90e8b;fill-opacity:1;fill-rule:nonzero;stroke:none"
             d="m 0,0 c -1.62,0.953 -2.711,2.711 -2.711,4.728 0,0.749 0.15,1.461 0.422,2.112 -8.574,3.505 -16.456,7.308 -23.513,11.424 -0.755,-1.195 -1.957,-2.075 -3.372,-2.409 -0.908,-5.528 -1.768,-15.847 0.667,-29.89 8.083,-3.851 17.57,-7.223 28.414,-10.108 C -0.862,-15.817 -0.404,-5.855 0,0" /></g><g
           transform="translate(1339.7549,85.7461)"
           id="g5261"><path
             id="path5263"
             style="fill:#e90e8b;fill-opacity:1;fill-rule:nonzero;stroke:none"
             d="m 0,0 c -1.661,0.94 -2.785,2.72 -2.79,4.764 -10.963,0.856 -21.903,1.896 -32.722,3.132 -0.325,-1.914 -1.637,-3.487 -3.397,-4.18 -0.158,-3.061 -0.239,-7.079 0.111,-10.572 4.135,-0.018 8.328,-0.008 12.585,0.028 8.666,0.074 17.423,0.26 26.213,0.543 -0.108,2.117 -0.077,4.36 0,6.285" /></g><g
           transform="translate(1120.0732,155.2529)"
           id="g5265"><path
             id="path5267"
             style="fill:#e90e8b;fill-opacity:1;fill-rule:nonzero;stroke:none"
             d="m 0,0 c -1.073,1.002 -1.749,2.426 -1.749,4.01 0,2.013 1.088,3.769 2.705,4.724 -1.955,3.59 -3.434,7.328 -4.402,11.215 C -5.195,16.373 -6.62,12.515 -7.547,8.442 -10.067,-2.632 -8.44,-13.589 -2.856,-23.908 -3.19,-13.921 -1.393,-5.157 0,0" /></g><g
           transform="translate(1296.0889,89.8223)"
           id="g5269"><path
             id="path5271"
             style="fill:#e90e8b;fill-opacity:1;fill-rule:nonzero;stroke:none"
             d="m 0,0 c -1.636,0.95 -2.737,2.717 -2.737,4.743 0,0.132 0.009,0.261 0.019,0.39 -10.023,1.278 -19.91,2.731 -29.578,4.367 -0.36,-1.916 -1.717,-3.476 -3.512,-4.131 -0.29,-3.946 -0.48,-9.741 0.226,-15.168 11.288,-0.616 23.185,-0.983 35.661,-1.1 C -0.252,-7.176 -0.165,-3.098 0,0" /></g><g
           transform="translate(1301.4375,170.2373)"
           id="g5273"><path
             id="path5275"
             style="fill:#e90e8b;fill-opacity:1;fill-rule:nonzero;stroke:none"
             d="m 0,0 c 0,0.123 0.01,0.244 0.019,0.365 -9.337,0.545 -18.643,1.417 -27.81,2.595 -0.293,-2.018 -1.681,-3.676 -3.545,-4.356 -0.375,-4.819 -0.702,-12.633 0.141,-20.58 C -19.58,-22.96 -7.82,-23.495 3.869,-23.604 3.182,-16.872 3.047,-9.598 3.048,-4.91 1.243,-4.012 0,-2.153 0,0" /></g><g
           transform="translate(1389.8877,172.0449)"
           id="g5277"><path
             id="path5279"
             style="fill:#e90e8b;fill-opacity:1;fill-rule:nonzero;stroke:none"
             d="m 0,0 c -1.72,0.655 -3.024,2.145 -3.414,3.977 -9.892,-2.093 -20.198,-3.618 -30.752,-4.616 0.005,-0.1 0.015,-0.2 0.015,-0.302 0,-2.074 -1.151,-3.878 -2.848,-4.811 0.199,-4.504 0.404,-11.369 0.205,-17.692 12.881,1.208 25.247,2.955 36.755,5.204 C 0.462,-10.685 0.261,-4.161 0,0" /></g><g
           transform="translate(1193.0332,187.1035)"
           id="g5281"><path
             id="path5283"
             style="fill:#e90e8b;fill-opacity:1;fill-rule:nonzero;stroke:none"
             d="m 0,0 c -1.426,0.991 -2.36,2.639 -2.36,4.507 0,0.783 0.167,1.527 0.463,2.201 -7.66,3.113 -14.738,6.473 -21.093,10.044 -0.723,-1.148 -1.858,-2.006 -3.199,-2.372 -0.844,-5.707 -1.692,-15.84 0.603,-26.118 6.633,-4.072 14.541,-7.805 23.702,-11.182 0.595,-0.219 1.195,-0.435 1.799,-0.65 C -1.361,-14.239 -0.68,-5.322 0,0" /></g><g
           transform="translate(1427.3906,184.6641)"
           id="g5285"><path
             id="path5287"
             style="fill:#e90e8b;fill-opacity:1;fill-rule:nonzero;stroke:none"
             d="m 0,0 c -1.532,0.501 -2.766,1.657 -3.373,3.139 -8.373,-3.692 -17.387,-6.762 -26.872,-9.257 0.114,-0.441 0.181,-0.901 0.181,-1.377 0,-2.004 -1.078,-3.752 -2.682,-4.71 0.263,-4.066 0.468,-10.313 0.043,-17.669 11.992,2.547 22.95,5.66 32.46,9.297 C 0.937,-12.7 0.502,-4.837 0,0" /></g><g
           transform="translate(1459.5381,202.8936)"
           id="g5289"><path
             id="path5291"
             style="fill:#e90e8b;fill-opacity:1;fill-rule:nonzero;stroke:none"
             d="m 0,0 c -0.218,1.444 -0.47,2.718 -0.72,3.814 -1.056,0.174 -2.009,0.648 -2.771,1.333 -6.481,-5.89 -13.941,-11.022 -22.186,-15.446 0.458,-0.802 0.724,-1.727 0.724,-2.718 0,-1.91 -0.978,-3.591 -2.459,-4.574 0.483,-4.543 0.909,-11.654 0.094,-19.161 11.469,4.901 20.559,10.698 27.106,17.289 C 1.122,-11.241 0.665,-4.413 0,0" /></g><g
           transform="translate(1161.9287,179.0479)"
           id="g5293"><path
             id="path5295"
             style="fill:#e90e8b;fill-opacity:1;fill-rule:nonzero;stroke:none"
             d="m 0,0 c -1.374,9.435 -0.582,18.119 0.212,23.319 -1.35,1 -2.228,2.599 -2.228,4.407 0,1.039 0.294,2.007 0.796,2.836 -6.24,4.237 -11.486,8.714 -15.543,13.383 -0.963,-0.836 -2.217,-1.345 -3.592,-1.345 -0.495,0 -0.972,0.072 -1.427,0.194 -1.043,-7.962 1.096,-16.873 6.428,-26.392 C -12.047,10.496 -6.911,5.02 0,0" /></g><g
           transform="translate(1465.2012,212.1162)"
           id="g5297"><path
             id="path5299"
             style="fill:#e90e8b;fill-opacity:1;fill-rule:nonzero;stroke:none"
             d="m 0,0 c 0,-1.606 -0.695,-3.047 -1.796,-4.051 0.941,-3.995 1.894,-10.22 1.442,-18.024 C 3.85,-15.908 5.799,-9.38 5.307,-2.966 5.01,0.896 3.854,4.607 1.946,8.075 0.844,6.605 -0.31,5.172 -1.511,3.773 -0.576,2.79 0,1.464 0,0" /></g><g
           transform="translate(1265.3486,169.3232)"
           id="g5301"><path
             id="path5303"
             style="fill:#e90e8b;fill-opacity:1;fill-rule:nonzero;stroke:none"
             d="m 0,0 c -1.566,0.967 -2.614,2.693 -2.614,4.669 0,0.256 0.023,0.507 0.058,0.754 -8.929,1.396 -17.679,3.077 -26.149,5.016 -0.365,-1.942 -1.751,-3.519 -3.581,-4.159 -0.51,-5.462 -1.037,-14.616 0.099,-22.482 10.191,-1.858 20.991,-3.344 32.247,-4.424 C -0.72,-12.537 -0.384,-4.816 0,0" /></g><g
           transform="translate(1228.3164,176.1484)"
           id="g5305"><path
             id="path5307"
             style="fill:#e90e8b;fill-opacity:1;fill-rule:nonzero;stroke:none"
             d="m 0,0 c -1.531,0.974 -2.551,2.682 -2.551,4.631 0,0.554 0.083,1.087 0.236,1.591 -8.605,2.256 -16.851,4.781 -24.622,7.545 -0.552,-1.7 -1.909,-3.035 -3.621,-3.555 -0.687,-5.522 -1.378,-15.078 0.285,-24.563 5.754,-1.877 11.89,-3.598 18.358,-5.153 2.254,-0.516 4.511,-1.029 6.769,-1.54 1.669,-0.359 3.358,-0.709 5.066,-1.048 C -1.023,-14.053 -0.507,-5.318 0,0" /></g><g
           transform="translate(1348.125,166.043)"
           id="g5309"><path
             id="path5311"
             style="fill:#e90e8b;fill-opacity:1;fill-rule:nonzero;stroke:none"
             d="m 0,0 c -1.818,0.764 -3.139,2.479 -3.337,4.522 -10.666,-0.64 -21.515,-0.776 -32.381,-0.448 -0.047,-2.144 -1.321,-3.981 -3.15,-4.843 0.003,-4.713 0.143,-12.075 0.845,-18.662 12.963,0.009 25.798,0.541 38.207,1.568 C 0.406,-11.606 0.198,-4.574 0,0" /></g><g
           transform="translate(1402.9736,237.9717)"
           id="g5313"><path
             id="path5315"
             style="fill:#e90e8b;fill-opacity:1;fill-rule:nonzero;stroke:none"
             d="m 0,0 c -7.374,-3.816 -14.942,-6.985 -22.622,-9.585 0.143,-0.488 0.224,-1.005 0.224,-1.54 0,-1.76 -0.832,-3.322 -2.121,-4.327 0.766,-3.968 1.698,-9.812 1.895,-15.535 13.288,3.785 22.887,8.803 29.365,13.113 0.026,0.018 0.051,0.035 0.078,0.053 C 6.481,-12.074 5.126,-6.454 4.026,-2.696 2.303,-2.468 0.833,-1.442 0,0" /></g><g
           transform="translate(1413.2129,240.71)"
           id="g5317"><path
             id="path5319"
             style="fill:#e90e8b;fill-opacity:1;fill-rule:nonzero;stroke:none"
             d="m 0,0 c 0,-1.547 -0.644,-2.942 -1.674,-3.94 0.994,-3.368 2.19,-8.175 2.762,-13.373 9.832,7.649 15.891,16.487 16.849,24.775 0.33,2.863 0.019,5.512 -0.898,7.905 C 11.334,10.601 5.409,6.38 -0.684,2.649 -0.249,1.863 0,0.961 0,0" /></g><g
           transform="translate(1334.3809,218.999)"
           id="g5321"><path
             id="path5323"
             style="fill:#e90e8b;fill-opacity:1;fill-rule:nonzero;stroke:none"
             d="m 0,0 c -8.891,-0.784 -17.704,-1.041 -26.311,-0.891 0.002,-0.072 0.01,-0.142 0.01,-0.215 0,-2.104 -1.184,-3.929 -2.924,-4.851 0.233,-3.522 0.725,-7.844 1.682,-10.855 7.652,-0.787 15.635,-1.217 23.95,-1.217 3.03,0 6.09,0.061 9.161,0.178 C 5.252,-13.355 4.549,-8.45 3.979,-4.938 1.778,-4.317 0.145,-2.361 0,0" /></g><g
           transform="translate(1297.1055,217.8926)"
           id="g5325"><path
             id="path5327"
             style="fill:#e90e8b;fill-opacity:1;fill-rule:nonzero;stroke:none"
             d="m 0,0 c 0,0.21 0.014,0.415 0.037,0.618 -9.146,0.516 -17.982,1.447 -26.346,2.637 -0.179,-1.984 -1.414,-3.658 -3.14,-4.466 0.049,-2.206 0.209,-4.819 0.637,-7.072 10.287,-2.957 21.445,-5.336 33.459,-6.843 -0.784,3.318 -1.17,7.129 -1.359,10.101 C 1.353,-4.177 0,-2.247 0,0" /></g><g
           transform="translate(1222.5859,231.5264)"
           id="g5329"><path
             id="path5331"
             style="fill:#e90e8b;fill-opacity:1;fill-rule:nonzero;stroke:none"
             d="m 0,0 c -3.607,1.043 -6.822,2.037 -9.588,2.931 3.024,-1.925 6.25,-3.868 9.68,-5.798 -0.157,0.509 -0.242,1.05 -0.242,1.611 0,0.433 0.055,0.852 0.15,1.256" /></g><g
           transform="translate(1369.8535,225.1963)"
           id="g5333"><path
             id="path5335"
             style="fill:#e90e8b;fill-opacity:1;fill-rule:nonzero;stroke:none"
             d="m 0,0 c -8.153,-2.209 -16.384,-3.834 -24.594,-4.969 0.048,-0.291 0.079,-0.586 0.079,-0.89 0,-1.832 -0.901,-3.452 -2.282,-4.449 0.593,-3.633 1.327,-8.752 1.654,-13.513 2.276,0.13 4.553,0.288 6.828,0.481 9.011,0.765 17.01,2.138 24.075,3.872 C 5.667,-13.805 4.713,-7.738 3.935,-3.676 2.066,-3.222 0.572,-1.818 0,0" /></g><g
           transform="translate(1259.8467,221.6475)"
           id="g5337"><path
             id="path5339"
             style="fill:#e90e8b;fill-opacity:1;fill-rule:nonzero;stroke:none"
             d="m 0,0 c 0,0.42 0.051,0.826 0.141,1.218 -9.908,1.737 -18.954,3.766 -26.822,5.779 -0.543,-1.752 -1.94,-3.125 -3.705,-3.64 9.84,-5.071 21.114,-9.899 33.793,-13.88 -0.229,1.938 -0.33,3.905 -0.365,5.616 C 1.241,-4.007 0,-2.15 0,0" /></g><g
           transform="translate(1233.166,228.6445)"
           id="g5341"><path
             id="path5343"
             style="fill:#2aabe2;fill-opacity:1;fill-rule:nonzero;stroke:none"
             d="m 0,0 c 0.159,0.515 0.245,1.06 0.245,1.626 0,3.03 -2.456,5.487 -5.487,5.487 -2.599,0 -4.77,-1.807 -5.338,-4.231 -0.095,-0.404 -0.15,-0.823 -0.15,-1.256 0,-0.562 0.084,-1.103 0.242,-1.611 2.178,-1.227 4.441,-2.448 6.783,-3.655 C -1.94,-3.125 -0.543,-1.752 0,0" /></g><g
           transform="translate(1270.7969,221.1475)"
           id="g5345"><path
             id="path5347"
             style="fill:#2aabe2;fill-opacity:1;fill-rule:nonzero;stroke:none"
             d="m 0,0 c 0.016,0.165 0.025,0.332 0.025,0.5 0,3.031 -2.457,5.488 -5.488,5.488 -2.611,0 -4.793,-1.826 -5.347,-4.27 -0.089,-0.392 -0.14,-0.798 -0.14,-1.218 0,-2.15 1.241,-4.007 3.042,-4.907 0.035,-1.711 0.136,-3.678 0.365,-5.616 1.655,-0.52 3.335,-1.026 5.039,-1.515 -0.428,2.253 -0.588,4.866 -0.637,7.072 C -1.414,-3.658 -0.18,-1.983 0,0" /></g><g
           transform="translate(1308.0801,217.8926)"
           id="g5349"><path
             id="path5351"
             style="fill:#2aabe2;fill-opacity:1;fill-rule:nonzero;stroke:none"
             d="m 0,0 c 0,0.073 -0.008,0.144 -0.01,0.216 -0.114,2.93 -2.518,5.272 -5.478,5.272 -2.821,0 -5.143,-2.131 -5.45,-4.87 C -10.961,0.415 -10.975,0.21 -10.975,0 c 0,-2.247 1.353,-4.177 3.288,-5.025 0.189,-2.972 0.576,-6.783 1.36,-10.101 1.679,-0.211 3.374,-0.405 5.085,-0.58 -0.957,3.012 -1.449,7.334 -1.682,10.855 C -1.185,-3.929 0,-2.104 0,0" /></g><g
           transform="translate(1345.3389,219.3369)"
           id="g5353"><path
             id="path5355"
             style="fill:#2aabe2;fill-opacity:1;fill-rule:nonzero;stroke:none"
             d="m 0,0 c 0,0.305 -0.031,0.6 -0.079,0.891 -0.425,2.606 -2.682,4.597 -5.409,4.597 -3.031,0 -5.488,-2.457 -5.488,-5.488 0,-0.113 0.01,-0.225 0.018,-0.338 0.145,-2.361 1.778,-4.317 3.979,-4.938 0.57,-3.512 1.273,-8.417 1.589,-12.912 1.584,0.059 3.173,0.134 4.762,0.226 -0.327,4.762 -1.061,9.88 -1.654,13.514 C -0.901,-3.451 0,-1.832 0,0" /></g><g
           transform="translate(1380.5752,226.8467)"
           id="g5357"><path
             id="path5359"
             style="fill:#2aabe2;fill-opacity:1;fill-rule:nonzero;stroke:none"
             d="m 0,0 c 0,0.535 -0.081,1.052 -0.224,1.54 -0.666,2.28 -2.768,3.948 -5.263,3.948 -3.032,0 -5.489,-2.458 -5.489,-5.488 0,-0.575 0.09,-1.13 0.254,-1.65 0.573,-1.819 2.067,-3.222 3.935,-3.676 0.778,-4.063 1.732,-10.129 1.825,-15.792 1.629,0.4 3.206,0.82 4.736,1.256 -0.197,5.723 -1.128,11.567 -1.894,15.535 C -0.832,-3.322 0,-1.76 0,0" /></g><g
           transform="translate(1413.2129,240.71)"
           id="g5361"><path
             id="path5363"
             style="fill:#2aabe2;fill-opacity:1;fill-rule:nonzero;stroke:none"
             d="m 0,0 c 0,0.961 -0.249,1.863 -0.684,2.649 -0.933,1.692 -2.734,2.839 -4.804,2.839 -3.032,0 -5.489,-2.457 -5.489,-5.488 0,-0.998 0.272,-1.932 0.738,-2.738 0.833,-1.443 2.302,-2.468 4.026,-2.697 1.1,-3.757 2.455,-9.378 2.793,-15.125 1.579,1.054 3.082,2.137 4.508,3.247 C 0.516,-12.115 -0.68,-7.308 -1.674,-3.94 -0.644,-2.942 0,-1.547 0,0" /></g><g
           transform="translate(1145.166,222.9932)"
           id="g5365"><path
             id="path5367"
             style="fill:#2aabe2;fill-opacity:1;fill-rule:nonzero;stroke:none"
             d="m 0,0 c 1.158,1.007 1.895,2.487 1.895,4.143 0,2.302 -1.42,4.271 -3.432,5.086 -1.84,-3.236 -3.001,-6.707 -3.483,-10.38 0.456,-0.122 0.933,-0.195 1.427,-0.195 1.375,0 2.63,0.51 3.593,1.346" /></g><g
           transform="translate(1312.4072,170.1172)"
           id="g5369"><path
             id="path5371"
             style="fill:#2aabe2;fill-opacity:1;fill-rule:nonzero;stroke:none"
             d="m 0,0 c 0.001,0.04 0.006,0.079 0.006,0.12 0,3.03 -2.457,5.487 -5.488,5.487 -2.908,0 -5.281,-2.262 -5.469,-5.122 -0.009,-0.121 -0.019,-0.242 -0.019,-0.365 0,-2.153 1.243,-4.012 3.048,-4.91 -0.001,-4.688 0.134,-11.962 0.821,-18.693 1.599,-0.015 3.199,-0.023 4.795,-0.022 -0.701,6.587 -0.841,13.948 -0.844,18.662 C -1.321,-3.981 -0.047,-2.145 0,0" /></g><g
           transform="translate(1490.6172,163.0166)"
           id="g5373"><path
             id="path5375"
             style="fill:#2aabe2;fill-opacity:1;fill-rule:nonzero;stroke:none"
             d="m 0,0 c 0,-1.974 1.046,-3.7 2.61,-4.666 0.837,-0.518 1.822,-0.821 2.877,-0.821 0.177,0 0.351,0.009 0.523,0.025 C 5.88,-1.779 5.357,1.862 4.524,5.398 1.953,4.942 0,2.701 0,0" /></g><g
           transform="translate(1436.623,119.085)"
           id="g5377"><path
             id="path5379"
             style="fill:#2aabe2;fill-opacity:1;fill-rule:nonzero;stroke:none"
             d="m 0,0 c -0.717,2.197 -2.779,3.785 -5.215,3.785 -3.031,0 -5.488,-2.457 -5.488,-5.487 0,-0.166 0.012,-0.329 0.025,-0.491 0.065,-0.733 0.274,-1.422 0.599,-2.043 2.904,-0.509 5.766,-1.007 8.581,-1.495 1.086,1.002 1.77,2.434 1.77,4.029 C 0.272,-1.107 0.176,-0.536 0,0" /></g><g
           transform="translate(1394.7295,87.6328)"
           id="g5381"><path
             id="path5383"
             style="fill:#2aabe2;fill-opacity:1;fill-rule:nonzero;stroke:none"
             d="m 0,0 v 0.001 c 0,3.031 -2.457,5.488 -5.488,5.488 -2.929,0 -5.315,-2.297 -5.472,-5.187 -0.006,-0.1 -0.016,-0.199 -0.016,-0.301 0,-2.176 1.27,-4.05 3.105,-4.938 V -5.8 c 1.591,0.108 3.18,0.217 4.766,0.328 v 0.535 C -1.271,-4.049 -0.001,-2.175 0,0" /></g><g
           transform="translate(1444.9814,87.7061)"
           id="g5385"><path
             id="path5387"
             style="fill:#2aabe2;fill-opacity:1;fill-rule:nonzero;stroke:none"
             d="m 0,0 c -0.039,2.996 -2.478,5.416 -5.484,5.416 -3.032,0 -5.488,-2.457 -5.488,-5.488 0,-0.052 0.006,-0.102 0.008,-0.154 0.017,-0.604 0.131,-1.182 0.328,-1.722 3.555,0.346 7.08,0.702 10.573,1.064 0.04,0.266 0.066,0.535 0.066,0.812 C 0.003,-0.048 0,-0.024 0,0" /></g><g
           transform="translate(1463.4053,208.0654)"
           id="g5389"><path
             id="path5391"
             style="fill:#2aabe2;fill-opacity:1;fill-rule:nonzero;stroke:none"
             d="m 0,0 c 1.101,1.004 1.796,2.444 1.796,4.051 0,1.464 -0.576,2.79 -1.511,3.773 -1,1.055 -2.41,1.715 -3.977,1.715 -3.032,0 -5.489,-2.457 -5.489,-5.488 0,-1.619 0.706,-3.071 1.823,-4.075 0.762,-0.686 1.714,-1.16 2.771,-1.333 0.25,-1.097 0.502,-2.371 0.72,-3.815 0.665,-4.413 1.122,-11.241 -0.212,-19.463 0.855,0.86 1.677,1.73 2.444,2.616 1.134,1.311 2.157,2.644 3.077,3.995 C 1.894,-10.221 0.94,-3.995 0,0" /></g><g
           transform="translate(1432.126,185.3027)"
           id="g5393"><path
             id="path5395"
             style="fill:#2aabe2;fill-opacity:1;fill-rule:nonzero;stroke:none"
             d="m 0,0 c 1.481,0.982 2.459,2.664 2.459,4.574 0,0.99 -0.266,1.916 -0.724,2.718 -0.946,1.653 -2.722,2.771 -4.763,2.771 -3.032,0 -5.489,-2.458 -5.489,-5.489 0,-0.734 0.147,-1.433 0.409,-2.074 0.607,-1.481 1.84,-2.638 3.373,-3.139 0.502,-4.837 0.937,-12.7 -0.244,-20.577 0.259,0.099 0.521,0.196 0.777,0.296 1.471,0.571 2.895,1.16 4.296,1.759 C 0.909,-11.654 0.483,-4.543 0,0" /></g><g
           transform="translate(1394.6445,172.459)"
           id="g5397"><path
             id="path5399"
             style="fill:#2aabe2;fill-opacity:1;fill-rule:nonzero;stroke:none"
             d="m 0,0 c 1.604,0.958 2.682,2.706 2.682,4.71 0,0.477 -0.067,0.936 -0.181,1.377 -0.612,2.363 -2.753,4.11 -5.307,4.11 -3.03,0 -5.488,-2.457 -5.488,-5.487 0,-0.394 0.044,-0.777 0.123,-1.147 0.39,-1.833 1.694,-3.322 3.414,-3.977 0.261,-4.161 0.462,-10.685 -0.039,-18.24 1.63,0.318 3.243,0.646 4.839,0.985 C 0.468,-10.313 0.263,-4.066 0,0" /></g><g
           transform="translate(1352.8887,166.293)"
           id="g5401"><path
             id="path5403"
             style="fill:#2aabe2;fill-opacity:1;fill-rule:nonzero;stroke:none"
             d="m 0,0 c 1.697,0.933 2.848,2.737 2.848,4.811 0,0.102 -0.01,0.202 -0.015,0.302 -0.158,2.889 -2.545,5.185 -5.474,5.185 -3.031,0 -5.486,-2.457 -5.486,-5.487 0,-0.182 0.01,-0.362 0.026,-0.539 0.199,-2.043 1.519,-3.758 3.337,-4.522 0.199,-4.574 0.407,-11.606 0.184,-17.863 1.601,0.132 3.197,0.272 4.785,0.421 C 0.404,-11.369 0.199,-4.504 0,0" /></g><g
           transform="translate(1270.1016,168.8408)"
           id="g5405"><path
             id="path5407"
             style="fill:#2aabe2;fill-opacity:1;fill-rule:nonzero;stroke:none"
             d="m 0,0 c 1.864,0.681 3.252,2.339 3.545,4.356 0.037,0.261 0.064,0.525 0.064,0.795 0,3.031 -2.457,5.488 -5.488,5.488 -2.774,0 -5.061,-2.061 -5.43,-4.734 -0.035,-0.247 -0.058,-0.498 -0.058,-0.754 0,-1.975 1.048,-3.702 2.614,-4.669 -0.384,-4.816 -0.72,-12.537 0.06,-20.626 0.891,-0.085 1.787,-0.168 2.685,-0.249 0.716,-0.064 1.433,-0.126 2.149,-0.186 C -0.702,-12.633 -0.375,-4.818 0,0" /></g><g
           transform="translate(1233.0625,175.6035)"
           id="g5409"><path
             id="path5411"
             style="fill:#2aabe2;fill-opacity:1;fill-rule:nonzero;stroke:none"
             d="m 0,0 c 1.83,0.64 3.216,2.217 3.581,4.159 0.062,0.33 0.097,0.669 0.097,1.017 0,3.03 -2.456,5.488 -5.488,5.488 -2.477,0 -4.569,-1.643 -5.252,-3.897 -0.152,-0.504 -0.235,-1.038 -0.235,-1.591 0,-1.949 1.02,-3.657 2.551,-4.631 -0.507,-5.318 -1.024,-14.053 -0.08,-22.092 1.626,-0.321 3.267,-0.634 4.926,-0.935 C -1.037,-14.616 -0.51,-5.462 0,0" /></g><g
           transform="translate(1197.7588,186.3604)"
           id="g5413"><path
             id="path5415"
             style="fill:#2aabe2;fill-opacity:1;fill-rule:nonzero;stroke:none"
             d="m 0,0 c 1.712,0.521 3.068,1.855 3.62,3.555 0.173,0.534 0.27,1.103 0.27,1.695 0,3.03 -2.457,5.487 -5.488,5.487 -2.247,0 -4.176,-1.352 -5.025,-3.286 -0.296,-0.674 -0.463,-1.418 -0.463,-2.201 0,-1.868 0.935,-3.516 2.36,-4.507 -0.679,-5.322 -1.361,-14.239 -0.085,-23.57 1.663,-0.593 3.363,-1.171 5.095,-1.735 C -1.378,-15.078 -0.687,-5.521 0,0" /></g><g
           transform="translate(1166.8438,201.4834)"
           id="g5417"><path
             id="path5419"
             style="fill:#2aabe2;fill-opacity:1;fill-rule:nonzero;stroke:none"
             d="m 0,0 c 1.342,0.366 2.477,1.225 3.199,2.372 0.533,0.846 0.846,1.845 0.846,2.918 0,3.03 -2.457,5.488 -5.487,5.488 -1.993,0 -3.73,-1.064 -4.693,-2.652 -0.502,-0.828 -0.796,-1.797 -0.796,-2.836 0,-1.808 0.878,-3.406 2.228,-4.406 -0.794,-5.2 -1.586,-13.885 -0.212,-23.32 1.729,-1.255 3.567,-2.484 5.519,-3.682 C -1.691,-15.84 -0.844,-5.707 0,0" /></g><g
           transform="translate(1474.0293,130.7295)"
           id="g5421"><path
             id="path5423"
             style="fill:#2aabe2;fill-opacity:1;fill-rule:nonzero;stroke:none"
             d="m 0,0 c 1.469,0.984 2.436,2.659 2.436,4.561 0,1.303 -0.457,2.5 -1.217,3.441 -1.006,1.247 -2.545,2.046 -4.272,2.046 -3.031,0 -5.487,-2.457 -5.487,-5.487 0,-1.147 0.352,-2.21 0.952,-3.09 0.682,-0.998 1.684,-1.758 2.858,-2.135 0.37,-3.899 0.592,-9.917 -0.344,-16.913 1.822,0.966 3.527,1.968 5.126,2.999 C 0.577,-8.58 0.345,-3.494 0,0" /></g><g
           transform="translate(1344.5137,85.4385)"
           id="g5425"><path
             id="path5427"
             style="fill:#2aabe2;fill-opacity:1;fill-rule:nonzero;stroke:none"
             d="m 0,0 c 1.77,0.719 3.074,2.332 3.36,4.279 0.039,0.264 0.066,0.531 0.066,0.805 0,3.03 -2.457,5.487 -5.488,5.487 -3.031,0 -5.487,-2.457 -5.487,-5.487 V 5.071 c 0.005,-2.044 1.129,-3.823 2.79,-4.763 -0.077,-1.925 -0.108,-4.168 0,-6.286 1.587,0.052 3.175,0.106 4.762,0.164 C -0.099,-3.9 -0.07,-1.816 0,0" /></g><g
           transform="translate(1300.8457,89.4619)"
           id="g5429"><path
             id="path5431"
             style="fill:#2aabe2;fill-opacity:1;fill-rule:nonzero;stroke:none"
             d="m 0,0 c 1.76,0.693 3.072,2.267 3.397,4.18 0.051,0.3 0.084,0.608 0.084,0.924 0,3.031 -2.457,5.488 -5.488,5.488 -2.899,0 -5.267,-2.25 -5.468,-5.099 -0.009,-0.129 -0.019,-0.258 -0.019,-0.389 0,-2.027 1.101,-3.793 2.737,-4.744 -0.165,-3.097 -0.252,-7.175 0.079,-10.899 1.588,-0.015 3.182,-0.026 4.789,-0.033 C -0.239,-7.079 -0.158,-3.061 0,0" /></g><g
           transform="translate(1260.2813,95.1914)"
           id="g5433"><path
             id="path5435"
             style="fill:#2aabe2;fill-opacity:1;fill-rule:nonzero;stroke:none"
             d="m 0,0 c 1.795,0.655 3.151,2.215 3.512,4.131 0.062,0.331 0.098,0.671 0.098,1.02 0,3.031 -2.456,5.488 -5.487,5.488 -2.725,0 -4.977,-1.986 -5.408,-4.587 -0.048,-0.294 -0.08,-0.593 -0.08,-0.901 0,-1.975 1.049,-3.703 2.615,-4.669 -0.299,-3.958 -0.501,-9.728 0.141,-15.371 1.597,-0.098 3.212,-0.191 4.835,-0.279 C -0.48,-9.741 -0.29,-3.946 0,0" /></g><g
           transform="translate(1221.5986,103.5742)"
           id="g5437"><path
             id="path5439"
             style="fill:#2aabe2;fill-opacity:1;fill-rule:nonzero;stroke:none"
             d="m 0,0 c 1.635,0.604 2.901,1.96 3.38,3.651 0.134,0.476 0.21,0.975 0.21,1.494 0,3.03 -2.456,5.487 -5.487,5.487 -2.61,0 -4.789,-1.822 -5.346,-4.263 -0.09,-0.394 -0.143,-0.804 -0.143,-1.224 0,-1.984 1.057,-3.717 2.634,-4.681 -0.392,-4.955 -0.753,-12.816 0.044,-19.994 1.609,-0.22 3.235,-0.433 4.881,-0.639 C -0.75,-13.19 -0.392,-5.052 0,0" /></g><g
           transform="translate(1183.8467,115.1582)"
           id="g5441"><path
             id="path5443"
             style="fill:#2aabe2;fill-opacity:1;fill-rule:nonzero;stroke:none"
             d="m 0,0 c 1.489,0.578 2.661,1.784 3.192,3.296 0.201,0.569 0.315,1.18 0.315,1.817 0,3.031 -2.457,5.488 -5.488,5.488 -2.283,0 -4.239,-1.394 -5.066,-3.375 -0.271,-0.651 -0.422,-1.364 -0.422,-2.113 0,-2.016 1.091,-3.774 2.711,-4.727 -0.404,-5.856 -0.862,-15.818 -0.093,-24.143 1.612,-0.429 3.252,-0.847 4.924,-1.254 C -0.896,-16.857 -0.417,-6.137 0,0" /></g><g
           transform="translate(1149.915,131.3994)"
           id="g5445"><path
             id="path5447"
             style="fill:#2aabe2;fill-opacity:1;fill-rule:nonzero;stroke:none"
             d="m 0,0 c 1.415,0.334 2.617,1.214 3.372,2.408 0.536,0.848 0.852,1.85 0.852,2.927 0,3.03 -2.457,5.487 -5.489,5.487 -1.93,0 -3.625,-0.999 -4.603,-2.507 -0.557,-0.858 -0.885,-1.88 -0.885,-2.98 0,-1.739 0.813,-3.287 2.075,-4.293 -0.93,-5.432 -1.796,-15.095 0.097,-28.252 1.682,-0.917 3.425,-1.811 5.248,-2.681 C -1.769,-15.848 -0.908,-5.528 0,0" /></g><g
           transform="translate(1124.6523,153.8457)"
           id="g5449"><path
             id="path5451"
             style="fill:#2aabe2;fill-opacity:1;fill-rule:nonzero;stroke:none"
             d="m 0,0 c 0.948,0.146 1.815,0.532 2.538,1.099 1.282,1.004 2.109,2.562 2.109,4.318 0,3.03 -2.457,5.488 -5.488,5.488 -1.016,0 -1.966,-0.282 -2.782,-0.763 -1.617,-0.955 -2.705,-2.711 -2.705,-4.725 0,-1.584 0.676,-3.008 1.749,-4.01 -1.393,-5.157 -3.191,-13.921 -2.857,-23.908 1.576,-2.91 3.466,-5.769 5.666,-8.565 C -4.005,-18.459 -1.677,-6.345 0,0" /></g><g
           transform="translate(1456.6387,88.083)"
           id="g5453"><path
             id="path5455"
             style="fill:#000000;fill-opacity:1;fill-rule:nonzero;stroke:none"
             d="m 0,0 c -3.86,-0.429 -7.77,-0.85 -11.721,-1.261 -3.492,-0.362 -7.017,-0.718 -10.572,-1.064 -13.881,-1.354 -28.203,-2.573 -42.722,-3.597 -1.586,-0.111 -3.174,-0.221 -4.765,-0.328 -14.033,-0.944 -28.22,-1.699 -42.342,-2.209 -1.587,-0.058 -3.175,-0.111 -4.762,-0.163 -8.79,-0.283 -17.547,-0.469 -26.213,-0.543 -4.257,-0.036 -8.45,-0.046 -12.585,-0.028 -1.607,0.006 -3.201,0.018 -4.789,0.033 -12.476,0.117 -24.373,0.484 -35.661,1.1 -1.623,0.088 -3.237,0.181 -4.835,0.28 -12.027,0.743 -23.338,1.779 -33.9,3.102 -1.646,0.206 -3.272,0.419 -4.881,0.639 -5.328,0.729 -10.459,1.533 -15.383,2.414 -6.191,1.109 -12.051,2.341 -17.588,3.689 -1.672,0.407 -3.312,0.826 -4.924,1.254 -10.843,2.885 -20.331,6.257 -28.414,10.108 -1.823,0.869 -3.566,1.763 -5.248,2.68 -6.687,3.649 -12.251,7.676 -16.652,12.078 -2.128,2.128 -4.058,4.301 -5.799,6.512 -2.2,2.797 -4.091,5.656 -5.666,8.566 -5.584,10.319 -7.211,21.276 -4.69,32.35 0.926,4.073 2.351,7.931 4.1,11.507 5.588,11.424 14.502,19.943 21.205,23.231 0.893,-2.034 1.912,-4.086 3.073,-6.159 11.185,-19.972 40.906,-35.406 83.834,-44.186 C -115.774,33.853 4.271,14.026 51.463,6.569 35.864,4.3 18.488,2.055 0,0 m -316.492,133.759 c 0.481,3.674 1.642,7.144 3.482,10.38 0.686,1.204 1.459,2.378 2.334,3.515 9.633,12.535 28.43,17.877 40.313,15.164 4.246,-8 11.734,-14.177 17.07,-17.847 25.592,-17.602 68.477,-38.583 127.442,-38.583 h 0.001 c 7.014,0 14.18,0.306 21.298,0.911 30.511,2.589 50.136,11.928 61.228,19.305 11.64,7.744 19.696,17.214 22.906,26.697 14.571,-3.844 25.641,-11.575 30.927,-21.193 1.907,-3.467 3.063,-7.178 3.36,-11.041 0.492,-6.414 -1.457,-12.942 -5.66,-19.109 C 7.289,100.607 6.266,99.274 5.132,97.964 4.364,97.077 3.543,96.207 2.688,95.348 -3.859,88.757 -12.949,82.96 -24.419,78.059 c -1.4,-0.599 -2.825,-1.188 -4.296,-1.759 -0.256,-0.1 -0.517,-0.197 -0.776,-0.296 -9.51,-3.637 -20.468,-6.75 -32.46,-9.297 -1.596,-0.339 -3.209,-0.667 -4.839,-0.985 -11.508,-2.249 -23.874,-3.996 -36.755,-5.204 -1.588,-0.149 -3.184,-0.289 -4.785,-0.421 -12.408,-1.027 -25.243,-1.559 -38.207,-1.568 -1.597,-0.001 -3.196,0.007 -4.795,0.022 -11.689,0.108 -23.449,0.643 -35.064,1.628 -0.716,0.06 -1.433,0.122 -2.149,0.186 -0.898,0.08 -1.794,0.163 -2.685,0.249 -11.256,1.08 -22.056,2.567 -32.247,4.424 -1.658,0.302 -3.299,0.614 -4.925,0.936 -1.708,0.339 -3.397,0.688 -5.067,1.047 -2.258,0.511 -4.514,1.025 -6.768,1.541 -6.468,1.554 -12.604,3.276 -18.359,5.153 -1.732,0.564 -3.432,1.142 -5.094,1.735 -0.605,0.215 -1.205,0.432 -1.799,0.651 -9.161,3.377 -17.07,7.11 -23.702,11.181 -1.952,1.198 -3.789,2.427 -5.519,3.683 -6.911,5.019 -12.047,10.496 -15.354,16.402 -5.332,9.519 -7.471,18.43 -6.428,26.392 m 49.515,43.878 c 0.991,7.127 6.757,13.134 15.428,16.072 3.19,1.08 6.287,1.605 9.469,1.605 9.544,0 18.904,-4.928 29.744,-10.635 15.753,-8.294 35.357,-18.617 64.984,-19.29 2.487,-0.057 4.959,-0.086 7.352,-0.086 36.896,0.001 55.168,6.671 68.511,11.541 7.241,2.643 12.962,4.73 19.313,4.73 3.608,0 7.426,-0.671 11.672,-2.053 7.33,-2.383 12.138,-6.362 14.117,-11.527 0.917,-2.393 1.228,-5.042 0.898,-7.905 -0.957,-8.288 -7.017,-17.126 -16.849,-24.776 -1.426,-1.109 -2.929,-2.192 -4.508,-3.246 -0.027,-0.017 -0.052,-0.035 -0.078,-0.052 -6.478,-4.31 -16.077,-9.328 -29.365,-13.114 -1.53,-0.435 -3.107,-0.855 -4.736,-1.255 -7.065,-1.735 -15.064,-3.108 -24.076,-3.873 -2.274,-0.193 -4.551,-0.351 -6.827,-0.481 -1.589,-0.092 -3.177,-0.167 -4.761,-0.227 -3.072,-0.117 -6.132,-0.178 -9.162,-0.178 -8.315,0 -16.297,0.43 -23.95,1.217 -1.711,0.174 -3.406,0.369 -5.085,0.58 -12.014,1.506 -23.173,3.885 -33.46,6.842 -1.704,0.49 -3.383,0.995 -5.039,1.515 -12.679,3.981 -23.953,8.81 -33.793,13.881 -2.342,1.207 -4.604,2.428 -6.783,3.654 -3.43,1.93 -6.656,3.873 -9.68,5.798 -2.087,1.329 -4.078,2.649 -5.969,3.951 -12.454,8.566 -18.622,18.265 -17.367,27.312 m 82.146,106.037 c -5.174,19.504 -11.322,33.549 -16.747,45.94 -8.517,19.452 -14.669,33.507 -11.067,56.299 2.473,15.651 13.524,23.831 22.358,27.938 11.899,5.53 27.388,7.385 43.611,5.224 12.513,-1.667 18.309,-8.816 21.959,-16.467 -0.141,-0.015 -0.325,-0.044 -0.409,-0.07 -0.323,-0.073 -0.61,-0.194 -0.864,-0.332 -0.51,-0.278 -0.881,-0.614 -1.192,-0.945 -0.309,-0.333 -0.558,-0.669 -0.779,-1.004 -0.858,-1.341 -1.365,-2.666 -1.802,-3.999 -0.424,-1.333 -0.755,-2.665 -1.032,-3.998 -0.279,-1.333 -0.486,-2.671 -0.667,-4.007 -0.178,-1.337 -0.321,-2.674 -0.419,-4.012 -0.17,-2.192 -0.244,-4.386 -0.247,-6.577 l -1.925,-0.163 -3.417,-0.306 -5.011,-0.449 4.428,-2.212 c 1.155,-0.576 2.313,-1.144 3.472,-1.71 0.63,-0.307 1.26,-0.615 1.892,-0.922 l 5.398,-2.562 c 0.899,-0.429 1.812,-0.833 2.717,-1.251 0.908,-0.412 1.809,-0.835 2.722,-1.239 l 2.739,-1.208 c 0.92,-0.391 1.834,-0.79 2.761,-1.167 -0.814,0.557 -1.642,1.092 -2.463,1.636 -0.011,0.008 -0.023,0.015 -0.033,0.023 l -1.334,0.856 c 0.169,1.441 0.266,3.064 0.266,4.781 0,4.958 -0.795,9.126 -1.875,10.356 -0.21,-1.631 -0.619,-2.738 -1.088,-2.738 -0.346,0 -0.658,0.598 -0.883,1.563 -0.732,-1.879 -1.222,-5.287 -1.222,-9.181 0,-0.605 0.011,-1.198 0.035,-1.777 -0.454,0.285 -0.91,0.567 -1.367,0.845 -0.043,0.025 -0.084,0.052 -0.126,0.077 l -5.117,3.091 c -0.302,0.179 -0.606,0.357 -0.91,0.536 l 2.032,0.081 1.452,0.058 0.037,1.519 c 0.062,2.592 0.211,5.179 0.451,7.749 0.128,1.284 0.268,2.565 0.447,3.837 0.177,1.272 0.398,2.532 0.645,3.779 0.249,1.246 0.547,2.474 0.915,3.653 0.37,1.165 0.801,2.328 1.353,3.215 0.263,0.432 0.599,0.789 0.747,0.862 0.035,0.02 0.052,0.03 0.05,0.03 0.041,0.011 -0.109,-0.014 -0.066,10e-4 l 0.071,0.004 c 0.021,-0.007 0.048,-0.019 0.088,-0.044 0.217,-0.123 0.561,-0.514 0.84,-0.961 0.289,-0.452 0.549,-0.981 0.792,-1.529 0.482,-1.104 0.869,-2.305 1.205,-3.526 0.342,-1.222 0.627,-2.474 0.876,-3.738 0.255,-1.263 0.473,-2.54 0.661,-3.824 0.197,-1.283 0.368,-2.573 0.51,-3.869 0.013,-0.131 0.024,-0.263 0.039,-0.394 0.123,-1.166 0.218,-2.335 0.321,-3.507 0.113,-1.303 0.183,-2.612 0.233,-3.921 0.033,-0.656 0.059,-1.311 0.076,-1.967 0.019,-0.656 0.048,-1.315 0.044,-1.97 -10e-4,-0.387 0.005,-0.774 0.012,-1.163 0.005,-0.271 0.009,-0.541 0.008,-0.812 l -0.008,-1.981 c 0.237,1.302 0.451,2.602 0.613,3.919 0.092,0.657 0.154,1.315 0.223,1.975 0.068,0.659 0.146,1.318 0.181,1.979 0.092,1.323 0.181,2.648 0.226,3.976 0.061,1.328 0.05,2.657 0.037,3.989 -0.019,1.212 -0.062,2.425 -0.131,3.639 1.28,-1.927 2.843,-3.321 4.985,-3.862 6.525,-1.645 9.849,-5.086 10.158,-10.516 0.131,-2.285 -0.267,-4.789 -1.101,-7.412 -0.119,2.812 -1.029,5 -2.131,5 -1.186,0 -2.148,-2.522 -2.148,-5.631 0,-2.677 0.712,-4.912 1.667,-5.484 -2.086,-3.949 -4.945,-7.978 -8.315,-11.775 -0.101,-0.001 -0.198,-0.001 -0.305,-0.001 -0.387,-0.028 -0.8,0.058 -1.251,0.096 -0.455,0.027 -0.926,0.14 -1.425,0.248 -0.506,0.085 -1.009,0.264 -1.538,0.424 l -0.399,0.123 -0.391,0.157 -0.794,0.316 c -0.527,0.229 -1.046,0.488 -1.563,0.745 -0.497,0.287 -1.016,0.541 -1.479,0.849 -0.237,0.148 -0.469,0.295 -0.698,0.438 -0.222,0.154 -0.439,0.303 -0.652,0.45 -0.43,0.288 -0.814,0.591 -1.178,0.865 -1.439,1.116 -2.3,2.008 -2.3,2.008 0,0 0.522,-1.12 1.55,-2.694 0.264,-0.387 0.541,-0.819 0.867,-1.251 0.162,-0.218 0.329,-0.443 0.499,-0.674 0.181,-0.222 0.365,-0.451 0.551,-0.683 0.366,-0.477 0.802,-0.918 1.223,-1.399 0.146,-0.15 0.297,-0.3 0.446,-0.452 0.307,-0.306 0.617,-0.614 0.942,-0.913 l 0.75,-0.648 0.378,-0.323 0.399,-0.296 c 0.076,-0.056 0.152,-0.113 0.227,-0.169 0.456,-0.337 0.909,-0.675 1.391,-0.949 0.248,-0.151 0.493,-0.301 0.738,-0.445 -5.929,-5.709 -12.903,-10.53 -19.857,-13.202 -0.911,1.804 -1.799,3.501 -2.665,5.075 -1.678,3.088 -3.238,5.724 -4.571,7.865 -1.316,2.149 -2.44,3.782 -3.208,4.89 -0.776,1.106 -1.221,1.671 -1.221,1.671 0,0 0.323,-0.645 0.899,-1.857 0.589,-1.207 1.376,-3.017 2.393,-5.301 1.011,-2.287 2.153,-5.104 3.446,-8.329 1.299,-3.225 2.674,-6.897 4.136,-10.91 0.36,-1.004 0.728,-2.03 1.102,-3.076 0.375,-1.045 0.733,-2.119 1.11,-3.206 0.761,-2.17 1.496,-4.433 2.271,-6.75 1.494,-4.655 3.054,-9.564 4.53,-14.685 0.761,-2.553 1.474,-5.166 2.224,-7.803 0.382,-1.316 0.715,-2.655 1.073,-3.994 0.361,-1.338 0.722,-2.684 1.086,-4.033 1.371,-5.424 2.77,-10.932 4.012,-16.479 0.274,-1.206 0.554,-2.41 0.828,-3.614 5.857,-26.459 9.624,-54.79 11.225,-84.328 -8.436,-1.147 -18.407,-1.876 -30.428,-1.876 -2.342,0 -4.766,0.028 -7.203,0.084 -11.488,0.26 -21.298,2.007 -29.973,4.551 0.747,4.588 2.046,14.418 2.277,28.363 0.296,17.787 -1.188,45.909 -9.931,78.874 m 60.489,115.66 h -0.015 v -10e-4 h -0.003 l -0.003,10e-4 c -0.015,0.005 -0.007,0.009 0.021,0 M 38.503,80.332 c 0.833,-3.536 1.355,-7.178 1.485,-10.86 0.07,-1.984 0.03,-3.979 -0.137,-5.974 C 38.947,52.697 34.049,38.781 17.442,28.068 15.844,27.037 14.139,26.035 12.316,25.069 9.607,23.633 6.639,22.274 3.396,21.013 c -7.811,1.315 -16.14,2.737 -24.91,4.258 -2.815,0.488 -5.676,0.986 -8.581,1.495 -2.3,0.402 -4.628,0.811 -6.981,1.226 -37.787,6.666 -82.252,14.93 -128.405,24.399 6.238,-0.242 12.501,-0.37 18.762,-0.37 15.267,0 30.513,0.717 45.282,2.148 29.38,2.847 55.34,8.405 75.076,16.073 16.09,6.252 28.338,14.148 36.406,23.469 4.961,5.731 8.197,11.9 9.6,18.203 8.201,-6.633 15.738,-18.353 18.858,-31.582 M 73.231,9.777 c -0.593,0.089 -22.884,3.416 -58.347,9.313 8.547,4.468 15.474,9.993 20.653,16.508 6.306,7.929 9.936,17.134 10.789,27.358 0.934,11.167 -1.631,23.37 -7.222,34.361 -4.803,9.443 -11.534,17.372 -18.666,22.063 -0.006,0.727 -0.034,1.456 -0.09,2.184 -1.339,17.457 -16.669,32.172 -39.354,38.083 1.238,11.949 -6.021,21.674 -19.487,26.054 -4.906,1.597 -9.382,2.372 -13.683,2.372 -7.501,0 -13.697,-2.261 -21.541,-5.125 -7.394,-2.699 -16.357,-5.969 -29.404,-8.267 -1.756,31.758 -5.992,62.147 -12.614,90.359 l -0.011,-0.003 -0.032,0.147 -0.519,2.098 c -0.346,1.399 -0.693,2.795 -1.039,4.19 -0.332,1.397 -0.724,2.777 -1.1,4.156 -0.377,1.379 -0.753,2.754 -1.128,4.123 -1.572,5.457 -3.209,10.804 -4.98,15.916 -1.72,5.128 -3.601,10.014 -5.43,14.62 -1.815,4.433 -3.619,8.593 -5.41,12.396 7.743,3.074 15.279,8.273 21.659,14.447 1.066,1.03 2.098,2.087 3.094,3.166 0.63,0.683 1.244,1.375 1.844,2.074 0.143,0.166 0.287,0.333 0.428,0.5 7.936,9.408 12.996,20.073 12.502,28.724 -0.473,8.276 -5.82,14.118 -15.057,16.448 -0.987,0.249 -2.156,2.765 -3.201,5.433 0.04,0.075 0.08,0.146 0.119,0.227 0.135,0.261 0.284,0.532 0.424,0.835 0.134,0.301 0.276,0.619 0.423,0.948 0.134,0.335 0.262,0.684 0.391,1.032 0.123,0.353 0.23,0.718 0.34,1.073 0.195,0.729 0.356,1.45 0.448,2.134 0.051,0.338 0.083,0.668 0.106,0.978 0.028,0.308 0.028,0.604 0.036,0.869 0.002,0.537 -0.031,0.977 -0.066,1.28 -0.038,0.304 -0.075,0.471 -0.075,0.471 0,0 -0.065,-0.161 -0.2,-0.423 -0.139,-0.262 -0.349,-0.626 -0.63,-1.034 -0.148,-0.202 -0.297,-0.42 -0.477,-0.636 -0.175,-0.22 -0.365,-0.444 -0.571,-0.666 -0.403,-0.447 -0.874,-0.878 -1.346,-1.283 -0.25,-0.194 -0.489,-0.388 -0.734,-0.568 -0.037,-0.025 -0.071,-0.05 -0.108,-0.075 -3.862,10.336 -10.192,24.269 -29.782,26.88 -17.435,2.323 -34.202,0.272 -47.209,-5.774 -14.723,-6.843 -23.727,-18.189 -26.037,-32.815 -3.9,-24.671 2.911,-40.227 11.532,-59.92 5.332,-12.178 11.373,-25.979 16.419,-45 13.687,-51.606 9.446,-91.673 7.665,-103.531 -9.746,3.472 -18.061,7.845 -25.862,11.952 -11.601,6.108 -21.622,11.383 -32.771,11.383 -3.902,0 -7.682,-0.636 -11.554,-1.948 -11.05,-3.744 -18.444,-11.719 -19.779,-21.334 -0.424,-3.051 -0.233,-5.966 0.401,-8.725 -13.709,1.336 -32.386,-4.618 -42.817,-18.192 -4.663,-6.068 -7.156,-12.991 -7.411,-20.577 -0.156,-4.688 0.56,-9.569 2.135,-14.598 -9.932,-4.708 -24.76,-19.242 -29.343,-39.383 -3.009,-13.219 -2.346,-33.225 17.895,-53.467 14.51,-14.509 40.173,-25.145 76.277,-31.609 28.477,-5.1 63.648,-7.679 104.655,-7.679 2.83,0 5.693,0.012 8.58,0.037 C -65.232,-15 19.721,-5.402 73.279,3.357 L 93.837,6.72 Z" /></g><g
           transform="translate(1337.9883,458.1641)"
           id="g5457"><path
             id="path5459"
             style="fill:#2aabe2;fill-opacity:1;fill-rule:nonzero;stroke:none"
             d="m 0,0 c 0.004,0.655 -0.024,1.313 -0.044,1.97 -0.017,0.656 -0.043,1.311 -0.075,1.967 -0.051,1.309 -0.12,2.618 -0.234,3.921 -0.103,1.172 -0.198,2.341 -0.321,3.507 -0.609,3.515 -1.541,5.963 -2.61,6.567 0.182,-0.914 0.294,-2.094 0.294,-3.384 0,-0.906 -0.055,-1.759 -0.151,-2.502 1.08,-1.23 1.875,-5.399 1.875,-10.356 0,-1.717 -0.096,-3.34 -0.265,-4.781 l 1.334,-0.856 c 0.01,-0.008 0.021,-0.015 0.032,-0.023 0.079,0.901 0.138,1.84 0.178,2.807 C 0.006,-0.774 -0.001,-0.387 0,0" /></g><g
           transform="translate(1332.6309,474.8604)"
           id="g5461"><path
             id="path5463"
             style="fill:#2aabe2;fill-opacity:1;fill-rule:nonzero;stroke:none"
             d="m 0,0 c -1.363,-2.536 -2.315,-8.299 -2.315,-15.006 0,-0.313 0.002,-0.624 0.006,-0.932 0.457,-0.279 0.913,-0.56 1.368,-0.845 -0.024,0.579 -0.036,1.172 -0.036,1.777 0,3.894 0.491,7.302 1.223,9.181 -0.22,0.945 -0.355,2.243 -0.355,3.677 0,0.766 0.039,1.492 0.109,2.148" /></g><g
           transform="translate(1334.7041,476.0957)"
           id="g5465"><path
             id="path5467"
             style="fill:#ffffff;fill-opacity:1;fill-rule:nonzero;stroke:none"
             d="M 0,0 C 1.069,-0.604 2.001,-3.052 2.61,-6.566 2.596,-6.436 2.585,-6.304 2.571,-6.173 2.43,-4.877 2.259,-3.587 2.062,-2.304 1.874,-1.02 1.655,0.257 1.4,1.521 1.151,2.784 0.866,4.036 0.524,5.259 c -0.336,1.22 -0.722,2.422 -1.205,3.525 -0.243,0.548 -0.503,1.077 -0.792,1.529 -0.278,0.448 -0.623,0.838 -0.84,0.961 -0.04,0.026 -0.067,0.038 -0.087,0.044 l -0.072,-0.004 c -0.043,-0.015 0.108,0.01 0.067,-10e-4 0.002,0 -0.016,-0.009 -0.05,-0.03 C -2.604,11.21 -2.939,10.854 -3.202,10.421 -3.755,9.534 -4.186,8.371 -4.556,7.206 -4.924,6.027 -5.222,4.799 -5.471,3.554 -5.718,2.307 -5.938,1.046 -6.115,-0.226 c -0.179,-1.272 -0.32,-2.552 -0.447,-3.836 -0.241,-2.571 -0.389,-5.158 -0.452,-7.75 l -0.037,-1.519 -1.451,-0.058 -2.032,-0.081 c 0.304,-0.178 0.607,-0.357 0.91,-0.536 l 5.116,-3.091 c 0.042,-0.025 0.083,-0.051 0.126,-0.077 -0.004,0.309 -0.007,0.619 -0.007,0.933 0,6.707 0.952,12.47 2.316,15.006 -0.071,-0.657 -0.11,-1.382 -0.11,-2.149 0,-1.433 0.136,-2.731 0.356,-3.677 0.224,-0.964 0.537,-1.563 0.883,-1.563 0.468,0 0.878,1.107 1.088,2.738 0.095,0.743 0.15,1.596 0.15,2.502 0,1.29 -0.111,2.47 -0.294,3.384" /></g></g></g></g></svg>
