<?xml version="1.0" encoding="UTF-8" standalone="no"?>
<svg
   xmlns:dc="http://purl.org/dc/elements/1.1/"
   xmlns:cc="http://creativecommons.org/ns#"
   xmlns:rdf="http://www.w3.org/1999/02/22-rdf-syntax-ns#"
   xmlns:svg="http://www.w3.org/2000/svg"
   xmlns="http://www.w3.org/2000/svg"
   viewBox="0 0 665.2757 462.72586"
   height="462.72586"
   width="665.2757"
   xml:space="preserve"
   id="svg14060"
   version="1.1"><metadata
     id="metadata14066"><rdf:RDF><cc:Work
         rdf:about=""><dc:format>image/svg+xml</dc:format><dc:type
           rdf:resource="http://purl.org/dc/dcmitype/StillImage" /><dc:title></dc:title></cc:Work></rdf:RDF></metadata><defs
     id="defs14064"><clipPath
       id="clipPath14076"
       clipPathUnits="userSpaceOnUse"><path
         id="path14074"
         d="M 0,612 H 792 V 0 H 0 Z" /></clipPath></defs><g
     transform="matrix(1.3333333,0,0,-1.3333333,-203.36804,651.03613)"
     id="g14068"><g
       id="g14070"><g
         clip-path="url(#clipPath14076)"
         id="g14072"><g
           transform="translate(335.105,441.0444)"
           id="g14078"><path
             id="path14080"
             style="fill:#652f8f;fill-opacity:1;fill-rule:nonzero;stroke:none"
             d="m 0,0 -5.442,1.237 -2.721,0.618 -2.715,0.642 -5.43,1.286 c -1.811,0.425 -3.618,0.861 -5.424,1.305 l -5.417,1.334 -5.868,1.445 5.912,1.433 4.466,1.082 3.26,0.775 c 0.013,0.348 0.044,0.742 0.074,1.102 0.092,0.788 0.205,1.576 0.392,2.348 0.351,1.551 0.905,3.054 1.634,4.466 0.724,1.416 1.645,2.725 2.696,3.913 1.05,1.191 2.26,2.238 3.572,3.129 1.317,0.885 2.745,1.601 4.234,2.142 1.494,0.532 3.055,0.864 4.627,1.014 0.79,0.059 1.57,0.096 2.37,0.062 l 0.548,-0.021 0.611,-0.053 c 0.415,-0.03 0.793,-0.097 1.186,-0.151 1.556,-0.246 3.074,-0.704 4.516,-1.321 1.439,-0.629 2.784,-1.453 4.018,-2.406 1.222,-0.969 2.333,-2.073 3.282,-3.3 0.133,-0.173 0.263,-0.349 0.39,-0.525 0.126,0.026 0.259,0.072 0.414,0.114 0.08,0.023 0.164,0.047 0.25,0.072 0.085,0.03 0.169,0.067 0.259,0.102 0.178,0.073 0.379,0.143 0.565,0.249 0.191,0.1 0.401,0.199 0.593,0.33 0.201,0.123 0.405,0.256 0.596,0.409 0.202,0.143 0.388,0.306 0.574,0.471 0.193,0.161 0.354,0.344 0.531,0.514 0.158,0.179 0.324,0.352 0.463,0.529 0.142,0.175 0.276,0.345 0.39,0.508 0.471,0.65 0.705,1.152 0.705,1.152 0,0 0.046,-0.551 -0.048,-1.396 -0.02,-0.213 -0.054,-0.441 -0.095,-0.685 -0.037,-0.245 -0.1,-0.498 -0.157,-0.767 -0.076,-0.261 -0.138,-0.544 -0.238,-0.818 -0.094,-0.278 -0.193,-0.564 -0.318,-0.84 -0.114,-0.284 -0.252,-0.559 -0.398,-0.829 -0.135,-0.277 -0.304,-0.529 -0.464,-0.783 -0.155,-0.259 -0.339,-0.483 -0.509,-0.706 -0.086,-0.11 -0.168,-0.221 -0.254,-0.322 -0.09,-0.098 -0.177,-0.193 -0.26,-0.283 -0.17,-0.18 -0.324,-0.354 -0.474,-0.492 -0.044,-0.04 -0.084,-0.075 -0.125,-0.112 0.574,-1.384 0.995,-2.828 1.212,-4.301 0.232,-1.505 0.277,-3.06 0.113,-4.536 C 17.937,7.599 17.597,6.141 17.085,4.725 16.55,3.322 15.847,1.996 15.004,0.779 c -0.767,-1.075 -1.65,-2.053 -2.622,-2.921 1.34,-0.429 2.677,-0.865 4.013,-1.309 -1.83,0.354 -3.657,0.715 -5.478,1.1 L 8.183,-1.78 c -0.912,0.187 -1.82,0.39 -2.729,0.587 z m 36.653,-22.542 c -0.872,0.126 -1.714,0.256 -2.504,0.419 -0.395,0.079 -0.779,0.156 -1.15,0.23 -0.37,0.088 -0.726,0.173 -1.068,0.254 -0.684,0.155 -1.305,0.33 -1.854,0.486 -0.551,0.148 -1.025,0.296 -1.414,0.421 -0.779,0.248 -1.222,0.404 -1.222,0.404 h 0.001 v 0 c -0.604,0.156 -1.213,0.314 -1.823,0.473 -0.604,0.182 -1.21,0.366 -1.816,0.549 -0.607,0.174 -1.204,0.386 -1.797,0.597 -0.592,0.217 -1.189,0.399 -1.763,0.641 -0.576,0.232 -1.147,0.462 -1.711,0.689 -0.562,0.23 -1.102,0.497 -1.64,0.737 -0.267,0.123 -0.533,0.245 -0.796,0.365 -0.261,0.126 -0.513,0.264 -0.766,0.393 -0.502,0.26 -0.994,0.516 -1.472,0.764 -0.465,0.273 -0.918,0.538 -1.355,0.795 -0.218,0.128 -0.433,0.254 -0.643,0.377 -0.209,0.127 -0.405,0.266 -0.601,0.394 -0.781,0.521 -1.505,0.98 -2.1,1.456 -0.602,0.464 -1.144,0.839 -1.546,1.21 -0.821,0.709 -1.291,1.114 -1.291,1.114 0,0 0.516,-0.34 1.421,-0.936 0.44,-0.312 1.026,-0.614 1.674,-0.991 0.639,-0.388 1.409,-0.746 2.232,-1.153 0.208,-0.1 0.414,-0.21 0.633,-0.306 0.221,-0.094 0.445,-0.189 0.674,-0.286 0.454,-0.193 0.925,-0.392 1.409,-0.597 0.493,-0.18 1,-0.365 1.519,-0.554 0.259,-0.092 0.517,-0.193 0.784,-0.281 0.269,-0.083 0.54,-0.167 0.813,-0.251 0.548,-0.164 1.096,-0.352 1.664,-0.503 0.568,-0.147 1.143,-0.296 1.723,-0.446 0.575,-0.159 1.174,-0.259 1.762,-0.392 0.591,-0.128 1.183,-0.255 1.784,-0.345 0.597,-0.1 1.194,-0.199 1.79,-0.297 0.597,-0.075 1.193,-0.149 1.784,-0.222 0.588,-0.085 1.178,-0.124 1.758,-0.173 0.581,-0.042 1.15,-0.11 1.716,-0.13 1.13,-0.044 2.216,-0.112 3.25,-0.094 0.515,0 1.016,0 1.5,-10e-4 0.485,0.019 0.953,0.037 1.401,0.055 0.446,0.022 0.882,0.023 1.279,0.06 0.399,0.033 0.776,0.064 1.131,0.093 0.354,0.028 0.685,0.055 0.991,0.08 0.323,0.038 0.62,0.073 0.888,0.105 0.9,0.109 1.472,0.178 1.637,0.198 l -0.001,0.003 c 12.93,0.999 22.414,6.067 26.27,13.967 H 56.457 C 55.8,-4.53 54.413,-5.469 52.803,-5.469 c -2.243,0 -4.061,1.818 -4.061,4.061 0,2.242 1.818,4.061 4.061,4.061 1.61,0 2.997,-0.94 3.654,-2.298 h 14.747 c 1.157,3.534 1.27,6.128 0.327,7.728 -1.691,2.866 -7.443,3.542 -13.534,4.257 -4.322,0.508 -8.79,1.033 -13.017,2.368 -9.943,3.14 -14.06,7.888 -18.04,12.479 -3.719,4.291 -7.565,8.727 -16.802,12.606 -6.011,2.525 -15.55,3.01 -24.895,1.266 -10.5,-1.959 -19.436,-6.301 -25.162,-12.224 -8.264,-8.548 -12.289,-17.68 -13.049,-29.61 -0.684,-10.739 1.253,-24.172 6.479,-44.918 3.238,-12.855 9.356,-28.933 15.833,-45.957 19.991,-52.544 44.742,-117.598 11.775,-153.26 2.423,-0.671 4.876,-1.333 7.359,-1.985 8.017,-2.108 16.357,-4.124 25.001,-6.044 0.056,2.193 1.848,3.956 4.055,3.956 0.831,0 1.602,-0.25 2.246,-0.678 4.34,5.874 7.329,12.828 9.259,20.325 -1.975,0.275 -3.497,1.966 -3.497,4.017 0,2.242 1.818,4.061 4.061,4.061 0.37,0 0.726,-0.054 1.066,-0.147 1.02,6.453 1.388,13.149 1.265,19.786 -0.171,-0.021 -0.344,-0.037 -0.52,-0.037 -2.243,0 -4.061,1.819 -4.061,4.062 0,2.243 1.818,4.06 4.061,4.06 0.045,0 0.09,-0.005 0.135,-0.007 -0.521,6.889 -1.508,13.576 -2.77,19.707 -0.281,-0.062 -0.572,-0.097 -0.872,-0.097 -2.242,0 -4.061,1.818 -4.061,4.061 0,1.915 1.328,3.516 3.112,3.945 -1.695,6.851 -3.565,13.466 -5.513,19.799 -0.259,-0.052 -0.528,-0.081 -0.803,-0.081 -2.242,0 -4.06,1.819 -4.06,4.062 0,1.658 0.995,3.081 2.418,3.712 -2.341,7.154 -4.732,13.897 -7.014,20.162 -0.404,-0.134 -0.835,-0.21 -1.285,-0.21 -2.243,0 -4.061,1.817 -4.061,4.061 0,1.707 1.055,3.167 2.549,3.766 -2.799,7.58 -5.302,14.31 -7.161,20.044 -0.341,-0.093 -0.698,-0.147 -1.069,-0.147 -2.242,0 -4.061,1.818 -4.061,4.061 0,1.831 1.212,3.378 2.878,3.884 -1.065,4.423 -1.408,7.902 -0.742,10.312 3.255,11.767 10.929,-0.625 14.442,-6.732 0.923,-1.606 1.831,-3.2 2.732,-4.789 0.046,0.005 0.092,0.01 0.139,0.016 -3.395,7.398 -6.751,14.965 -9.989,22.757 -4.049,9.745 -4.841,17.657 -2.352,23.517 1.778,4.183 5.154,7.274 10.036,9.187 4.413,1.73 9.08,2.209 13.593,2.672 5.483,0.563 9.678,1.115 12.671,2.997 -0.317,0.013 -0.633,0.031 -0.946,0.055 -0.927,0.046 -1.831,0.178 -2.707,0.278" /></g><g
           transform="translate(296.1396,202.1221)"
           id="g14082"><path
             id="path14084"
             style="fill:#652f8f;fill-opacity:1;fill-rule:nonzero;stroke:none"
             d="M 0,0 C 7.326,-0.408 14.914,0.375 19.231,0.954 24.668,8.028 27.988,16.245 29.665,25.271 16.2,23.784 3.915,23.046 -7.467,23.046 c -5.428,0 -10.649,0.168 -15.697,0.502 -18.93,1.254 -35.545,4.801 -50.696,10.822 8.957,-6.476 19.9,-12.707 32.682,-18.6 C -29.021,10.163 -15.237,4.889 0,0" /></g><g
           transform="translate(394.3896,286.4033)"
           id="g14086"><path
             id="path14088"
             style="fill:#652f8f;fill-opacity:1;fill-rule:nonzero;stroke:none"
             d="m 0,0 c -0.624,0.714 -1.005,1.646 -1.005,2.668 0,1.755 1.116,3.246 2.676,3.813 -1.729,3.097 -5.244,6.258 -12.34,7.186 C -8.301,8.219 -6.084,2.837 -4.073,-2.478 -2.814,-1.867 -1.361,-1.045 0,0" /></g><g
           transform="translate(237.0767,301.4707)"
           id="g14090"><path
             id="path14092"
             style="fill:#652f8f;fill-opacity:1;fill-rule:nonzero;stroke:none"
             d="m 0,0 c 0.745,0.909 1.875,1.489 3.142,1.489 2.243,0 4.061,-1.818 4.061,-4.06 0,-0.885 -0.286,-1.701 -0.766,-2.368 4.126,-2.65 9.543,-5.344 16.635,-7.732 0.478,1.71 2.044,2.966 3.907,2.966 2.242,0 4.061,-1.818 4.061,-4.062 0,-0.421 -0.065,-0.826 -0.183,-1.208 5.849,-1.514 12.6,-2.815 20.392,-3.778 0.031,2.215 1.834,4.002 4.057,4.002 2.243,0 4.061,-1.818 4.061,-4.061 0,-0.266 -0.027,-0.527 -0.076,-0.779 5.539,-0.474 11.54,-0.787 18.038,-0.904 0.014,2.23 1.826,4.035 4.059,4.035 1.055,0 2.013,-0.405 2.735,-1.064 C 82.724,-12.06 81.134,-6.55 79.414,-1.038 65.274,-0.29 56.377,3.614 47.755,7.401 40.629,10.531 33.26,13.768 22.735,15.22 16.337,16.102 9.68,15.194 3.986,12.664 0.318,11.035 -2.78,8.785 -5.107,6.119 -4.178,4.57 -2.599,2.418 0,0" /></g><g
           transform="translate(401.4707,236.1006)"
           id="g14094"><path
             id="path14096"
             style="fill:#652f8f;fill-opacity:1;fill-rule:nonzero;stroke:none"
             d="m 0,0 -0.059,0.359 c 0.479,-10.423 -0.67,-20.191 -3.465,-29.579 1.919,0.041 4.732,0.218 7.994,0.783 -0.109,0.366 -0.169,0.752 -0.169,1.154 0,2.243 1.818,4.061 4.061,4.061 1.946,0 3.57,-1.369 3.966,-3.195 4.964,1.738 10.126,4.532 14.379,9.007 -0.72,0.732 -1.165,1.735 -1.165,2.844 0,1.881 1.283,3.461 3.02,3.92 C 26.959,-1.896 22.187,5.771 16.676,8.887 13.143,4.269 7.401,1.2 0,0" /></g><g
           transform="translate(394.5425,271.8496)"
           id="g14098"><path
             id="path14100"
             style="fill:#652f8f;fill-opacity:1;fill-rule:nonzero;stroke:none"
             d="m 0,0 c 1.211,-3.8 2.29,-7.565 3.211,-11.297 0.474,-1.915 0.897,-3.803 1.281,-5.671 2.234,0.501 4.23,1.199 6.008,2.028 -0.355,0.603 -0.563,1.303 -0.563,2.054 0,2.243 1.818,4.062 4.061,4.062 1.327,0 2.502,-0.639 3.242,-1.623 1.713,1.568 3.03,3.191 4.024,4.654 C 18.109,3.611 9.532,5.882 6.488,6.396 5.008,3.34 2.724,0.989 0,0" /></g><g
           transform="translate(200.1255,273.2656)"
           id="g14102"><path
             id="path14104"
             style="fill:#652f8f;fill-opacity:1;fill-rule:nonzero;stroke:none"
             d="m 0,0 c 0.702,0.581 1.603,0.93 2.584,0.93 2.244,0 4.062,-1.819 4.062,-4.062 0,-1.142 -0.474,-2.173 -1.233,-2.91 3.063,-2.737 7.107,-5.524 12.449,-8.133 0.684,1.276 2.03,2.143 3.578,2.143 2.244,0 4.061,-1.819 4.061,-4.062 0,-0.438 -0.071,-0.86 -0.2,-1.257 5.116,-1.907 11.121,-3.644 18.169,-5.099 0.331,1.911 1.992,3.365 3.997,3.365 2.242,0 4.06,-1.818 4.06,-4.061 0,-0.258 -0.026,-0.51 -0.072,-0.755 6.247,-0.99 13.199,-1.773 20.929,-2.292 0.163,2.093 1.91,3.743 4.045,3.743 2.243,0 4.061,-1.819 4.061,-4.062 0,-0.039 -0.005,-0.077 -0.006,-0.116 6.71,-0.272 13.951,-0.359 21.767,-0.228 -0.01,0.113 -0.018,0.228 -0.018,0.344 0,2.243 1.819,4.062 4.061,4.062 2.243,0 4.061,-1.819 4.061,-4.062 0,-0.046 -0.005,-0.092 -0.007,-0.136 5.287,0.179 10.818,0.455 16.605,0.832 -0.222,5.67 -0.864,11.525 -1.841,17.502 -3.826,-0.382 -11.63,-1.01 -21.619,-1.01 -0.461,0 -0.926,10e-4 -1.396,0.004 C 88.42,-9.24 68.295,-7.87 50.089,-1.802 36.237,2.816 27.138,9.334 23.774,17.048 23.298,18.139 22.943,19.25 22.7,20.375 9.729,20.594 0.077,15.61 -3.443,7.013 -2.88,5.107 -1.856,2.679 0,0" /></g><g
           transform="translate(252.8135,213.2334)"
           id="g14106"><path
             id="path14108"
             style="fill:#652f8f;fill-opacity:1;fill-rule:nonzero;stroke:none"
             d="m 0,0 c -31.805,14.664 -48.022,29.225 -56.089,41.295 -0.4,0.538 -0.785,1.083 -1.152,1.635 -1.845,2.773 -3.23,5.662 -4.141,8.58 -0.212,0.575 -0.408,1.14 -0.584,1.695 -0.749,0.078 -1.527,0.117 -2.326,0.117 -7.643,0 -18.125,-3.8 -24.695,-12.064 1.264,-0.689 2.123,-2.029 2.123,-3.57 0,-1.617 -0.947,-3.008 -2.313,-3.662 1.433,-3.647 3.703,-7.878 7.041,-12.445 0.638,0.417 1.399,0.662 2.218,0.662 2.243,0 4.061,-1.818 4.061,-4.061 0,-1.117 -0.451,-2.128 -1.181,-2.862 3.311,-3.68 7.309,-7.493 12.09,-11.327 0.742,0.805 1.802,1.313 2.983,1.313 2.243,0 4.061,-1.819 4.061,-4.062 0,-0.766 -0.217,-1.481 -0.586,-2.093 4.607,-3.232 9.805,-6.447 15.656,-9.579 0.713,1.169 1.996,1.951 3.465,1.951 2.243,0 4.061,-1.818 4.061,-4.06 0,-0.548 -0.11,-1.07 -0.307,-1.547 5.309,-2.545 11.086,-5.014 17.37,-7.368 0.624,1.441 2.057,2.45 3.726,2.45 2.244,0 4.061,-1.818 4.061,-4.061 0,-0.383 -0.056,-0.752 -0.155,-1.104 5.967,-2.016 12.349,-3.928 19.171,-5.711 0.639,1.403 2.05,2.38 3.692,2.38 2.243,0 4.062,-1.818 4.062,-4.062 0,-0.08 -0.008,-0.159 -0.013,-0.239 6.373,-1.5 13.102,-2.889 20.207,-4.146 0.411,1.807 2.025,3.158 3.956,3.158 2.243,0 4.061,-1.818 4.061,-4.062 0,-0.146 -0.008,-0.29 -0.023,-0.431 7.246,-1.138 14.861,-2.142 22.859,-2.995 0.211,2.045 1.939,3.64 4.039,3.64 2.244,0 4.061,-1.818 4.061,-4.06 0,-0.129 -0.007,-0.256 -0.019,-0.381 8.842,-0.806 18.135,-1.429 27.893,-1.853 17.319,0.744 32.551,1.887 43.815,2.889 -28.28,4.494 -54.338,9.857 -77.683,15.995 C 42.73,-17.016 19.359,-8.926 0,0" /></g><g
           transform="translate(420.8828,170.1719)"
           id="g14110"><path
             id="path14112"
             style="fill:#652f8f;fill-opacity:1;fill-rule:nonzero;stroke:none"
             d="m 0,0 c -0.465,-0.058 -47.138,-5.792 -100.481,-5.792 -38.705,0 -71.326,2.951 -96.956,8.772 -33.48,7.604 -54.959,20.187 -63.836,37.399 -10.922,21.174 -7.208,35.475 -2.169,43.743 7.32,12.014 20.885,17.392 31.081,17.392 0.559,0 1.108,-0.023 1.651,-0.054 -0.121,2.308 0.065,4.591 0.569,6.809 1.43,6.289 5.227,11.527 10.98,15.15 5.533,3.483 12.685,5.254 20.79,5.18 0.185,2.048 0.734,4.106 1.656,6.134 5.423,11.93 20.711,19.023 36.345,16.867 11.233,-1.55 18.934,-4.932 26.382,-8.204 8.131,-3.571 15.867,-6.965 27.921,-7.889 -4.662,14.295 -10.07,28.51 -15.162,41.891 -6.531,17.168 -12.701,33.383 -16.012,46.529 -9.439,37.472 -10.815,60.032 7.856,79.345 6.46,6.683 16.372,11.549 27.908,13.702 10.435,1.946 20.834,1.356 27.823,-1.579 10.342,-4.344 14.778,-9.46 18.692,-13.975 0.074,-0.085 0.147,-0.17 0.22,-0.254 0.082,0.045 0.164,0.091 0.243,0.145 0.201,0.123 0.405,0.255 0.596,0.408 0.202,0.143 0.388,0.306 0.574,0.471 0.192,0.162 0.354,0.344 0.53,0.514 0.159,0.179 0.325,0.352 0.464,0.529 0.142,0.175 0.275,0.345 0.39,0.508 0.471,0.65 0.705,1.152 0.705,1.152 0,0 0.046,-0.551 -0.049,-1.396 -0.02,-0.212 -0.053,-0.441 -0.094,-0.685 -0.037,-0.245 -0.1,-0.498 -0.158,-0.767 -0.075,-0.261 -0.137,-0.544 -0.237,-0.818 -0.094,-0.277 -0.193,-0.563 -0.319,-0.84 -0.113,-0.284 -0.251,-0.558 -0.397,-0.828 -0.096,-0.198 -0.211,-0.382 -0.325,-0.563 3.121,-3.395 6.611,-6.328 13.566,-8.524 3.763,-1.189 7.986,-1.685 12.07,-2.164 7.391,-0.869 14.372,-1.689 17.354,-6.746 2.061,-3.498 1.777,-8.169 -0.896,-14.703 -3.003,-7.342 -9.552,-12.813 -18.612,-15.816 0.219,0.047 0.338,0.07 0.338,0.07 0,0 -0.424,-0.196 -1.179,-0.516 -0.189,-0.079 -0.399,-0.168 -0.627,-0.264 -0.228,-0.096 -0.482,-0.176 -0.751,-0.275 -0.539,-0.187 -1.141,-0.427 -1.822,-0.609 -0.009,-0.003 -0.019,-0.006 -0.029,-0.009 0.571,-0.316 1.133,-0.676 1.671,-1.089 0.343,-0.243 0.656,-0.527 0.983,-0.801 0.307,-0.294 0.623,-0.585 0.91,-0.904 0.301,-0.309 0.57,-0.644 0.851,-0.974 0.263,-0.339 0.528,-0.684 0.765,-1.043 0.987,-1.42 1.75,-2.97 2.396,-4.52 0.327,-0.777 0.604,-1.557 0.878,-2.338 0.137,-0.397 0.268,-0.779 0.387,-1.155 0.085,-0.268 0.164,-0.533 0.244,-0.799 0,-0.002 10e-4,-0.005 10e-4,-0.006 0.217,-0.675 0.432,-1.344 0.644,-2.005 0.103,-0.331 0.215,-0.648 0.323,-0.967 0.109,-0.318 0.206,-0.64 0.32,-0.944 0.427,-1.247 0.9,-2.392 1.412,-3.445 0.132,-0.261 0.262,-0.518 0.39,-0.772 0.143,-0.242 0.285,-0.481 0.424,-0.715 0.07,-0.119 0.137,-0.237 0.205,-0.354 0.078,-0.109 0.154,-0.217 0.23,-0.324 0.15,-0.217 0.3,-0.431 0.445,-0.639 0.155,-0.201 0.32,-0.386 0.475,-0.576 0.161,-0.182 0.299,-0.386 0.47,-0.544 0.335,-0.323 0.634,-0.664 0.959,-0.936 0.328,-0.274 0.636,-0.53 0.92,-0.767 0.305,-0.212 0.585,-0.407 0.838,-0.583 0.13,-0.089 0.247,-0.181 0.37,-0.255 0.125,-0.072 0.241,-0.139 0.35,-0.202 0.216,-0.126 0.4,-0.234 0.55,-0.321 0.298,-0.179 0.456,-0.275 0.456,-0.275 0,0 -0.183,0.03 -0.525,0.086 -0.17,0.031 -0.381,0.069 -0.627,0.113 -0.124,0.022 -0.257,0.046 -0.399,0.072 -0.139,0.033 -0.287,0.085 -0.445,0.131 -0.318,0.096 -0.668,0.211 -1.057,0.34 -0.372,0.152 -0.761,0.342 -1.19,0.538 -0.22,0.09 -0.419,0.226 -0.633,0.354 -0.215,0.132 -0.436,0.268 -0.661,0.407 -0.235,0.131 -0.433,0.319 -0.658,0.486 -0.138,0.11 -0.282,0.221 -0.424,0.335 0.102,-0.288 0.208,-0.57 0.316,-0.842 0.415,-1.074 0.89,-2.013 1.372,-2.818 0.486,-0.802 0.982,-1.469 1.439,-1.984 0.11,-0.134 0.224,-0.25 0.332,-0.361 0.107,-0.109 0.201,-0.224 0.299,-0.316 0.194,-0.186 0.354,-0.354 0.5,-0.478 0.285,-0.255 0.437,-0.391 0.437,-0.391 0,0 -0.189,0.075 -0.545,0.215 -0.346,0.156 -0.877,0.391 -1.484,0.79 -0.615,0.392 -1.339,0.932 -2.062,1.671 -0.723,0.736 -1.46,1.656 -2.13,2.733 -0.339,0.537 -0.651,1.115 -0.967,1.717 -0.305,0.606 -0.593,1.242 -0.877,1.897 -0.276,0.658 -0.536,1.338 -0.795,2.032 -0.255,0.693 -0.491,1.405 -0.735,2.124 -0.462,1.418 -0.94,2.884 -1.425,4.373 -0.121,0.365 -0.25,0.729 -0.379,1.089 -0.059,0.168 -0.119,0.337 -0.179,0.506 -0.333,0.895 -0.666,1.784 -1.021,2.647 -0.518,1.291 -1.107,2.512 -1.758,3.638 -0.173,0.272 -0.326,0.563 -0.512,0.819 -0.181,0.261 -0.361,0.52 -0.54,0.779 -0.396,0.478 -0.773,0.97 -1.21,1.384 -0.401,0.458 -0.89,0.798 -1.327,1.194 -0.236,0.174 -0.481,0.333 -0.717,0.499 -0.119,0.083 -0.238,0.166 -0.355,0.247 -0.122,0.077 -0.25,0.142 -0.373,0.214 -0.249,0.141 -0.496,0.281 -0.738,0.419 -0.241,0.145 -0.509,0.23 -0.754,0.354 -0.161,0.073 -0.317,0.145 -0.475,0.218 -0.066,-0.011 -0.132,-0.022 -0.199,-0.034 -4.298,-6.911 -12.062,-7.713 -19.598,-8.486 -4.171,-0.428 -8.484,-0.871 -12.245,-2.345 -3.601,-1.411 -5.951,-3.51 -7.186,-6.418 -1.93,-4.543 -1.134,-11.118 2.367,-19.542 6.981,-16.8 14.538,-32.61 21.846,-47.9 4.627,-9.679 9.157,-19.158 13.314,-28.442 6.613,-0.317 11.893,-2.219 15.69,-5.662 3.34,-3.031 5.32,-7.077 5.726,-11.701 0.145,-1.667 0.069,-3.314 -0.194,-4.887 1.746,-0.349 4.283,-1.047 6.952,-2.431 4.448,-2.305 10.138,-7.002 11.995,-16.28 C 1.794,88.548 1.506,83.52 -0.197,79.278 11.155,72.874 17.693,54.239 13.575,39.465 11.377,31.578 6.379,25.222 -0.876,21.083 c -6.786,-3.87 -15.456,-5.818 -25.842,-5.818 -1.995,0 -4.058,0.076 -6.179,0.219 -1.227,-1.612 -2.568,-3.138 -4.021,-4.577 11.889,-2.103 24.22,-4.048 36.955,-5.822 L 19.296,2.402 Z" /></g><g
           transform="translate(296.1396,202.1221)"
           id="g14114"><path
             id="path14116"
             style="fill:#e90e8b;fill-opacity:1;fill-rule:nonzero;stroke:none"
             d="m 0,0 c 4.689,-1.505 9.515,-2.973 14.475,-4.401 1.739,1.701 3.32,3.489 4.756,5.355 C 14.914,0.375 7.326,-0.408 0,0" /></g><g
           transform="translate(349.3931,324.7222)"
           id="g14118"><path
             id="path14120"
             style="fill:#e90e8b;fill-opacity:1;fill-rule:nonzero;stroke:none"
             d="m 0,0 c -0.485,-0.913 -1.308,-1.616 -2.302,-1.948 2.282,-6.265 4.673,-13.009 7.014,-20.163 0.503,0.223 1.058,0.349 1.642,0.349 1.672,0 3.106,-1.011 3.729,-2.453 4.069,-0.097 11.038,-0.043 18,1.024 -3.515,7.926 -7.325,16.009 -11.25,24.242 C 11.581,0.186 6.158,-0.021 2.201,-0.021 1.402,-0.021 0.666,-0.013 0,0" /></g><g
           transform="translate(339.6431,356.2676)"
           id="g14122"><path
             id="path14124"
             style="fill:#e90e8b;fill-opacity:1;fill-rule:nonzero;stroke:none"
             d="M 0,0 C 3.599,0.133 8.241,0.366 11.669,0.756 10.769,2.345 9.861,3.939 8.938,5.545 5.425,11.652 -2.25,24.044 -5.504,12.277 -6.17,9.867 -5.827,6.388 -4.762,1.965 -4.388,2.079 -3.991,2.142 -3.579,2.142 -2.03,2.142 -0.685,1.275 0,0" /></g><g
           transform="translate(361.853,185.2822)"
           id="g14126"><path
             id="path14128"
             style="fill:#e90e8b;fill-opacity:1;fill-rule:nonzero;stroke:none"
             d="M 0,0 C 5.15,-1.05 10.397,-2.067 15.738,-3.052 17.55,-1.566 19.201,0.053 20.69,1.794 14.45,0.366 8.473,-0.072 3.504,-0.072 2.27,-0.072 1.099,-0.046 0,0" /></g><g
           transform="translate(369.916,241.2285)"
           id="g14130"><path
             id="path14132"
             style="fill:#e90e8b;fill-opacity:1;fill-rule:nonzero;stroke:none"
             d="m 0,0 c -0.635,-0.97 -1.673,-1.648 -2.877,-1.803 0.123,-6.637 -0.245,-13.333 -1.265,-19.786 1.332,-0.362 2.392,-1.38 2.806,-2.689 5.497,-0.66 16.492,-1.476 26.628,0.809 1.309,7.727 1.517,15.787 0.633,24.339 C 20.726,-0.225 15.382,-0.574 10.689,-0.574 6.365,-0.574 2.597,-0.278 0,0" /></g><g
           transform="translate(366.6099,269.2949)"
           id="g14134"><path
             id="path14136"
             style="fill:#e90e8b;fill-opacity:1;fill-rule:nonzero;stroke:none"
             d="m 0,0 c -0.548,-1.048 -1.54,-1.825 -2.726,-2.085 1.262,-6.131 2.249,-12.817 2.77,-19.706 1.732,-0.057 3.188,-1.196 3.713,-2.766 5.28,-0.549 15.584,-1.171 25.056,0.878 -0.602,4.429 -1.483,8.99 -2.648,13.706 C 25.215,-6.131 24.09,-2.242 22.821,1.69 14.299,0.276 6.509,-0.011 1.604,-0.011 1.028,-0.011 0.493,-0.007 0,0" /></g><g
           transform="translate(337.1333,350.4346)"
           id="g14138"><path
             id="path14140"
             style="fill:#e90e8b;fill-opacity:1;fill-rule:nonzero;stroke:none"
             d="m 0,0 c 1.859,-5.734 4.361,-12.464 7.161,-20.044 0.467,0.188 0.977,0.294 1.512,0.294 1.662,0 3.089,-1 3.718,-2.431 3.618,-0.064 9.455,0.01 15.116,0.841 -0.406,0.852 -0.814,1.704 -1.223,2.559 C 22.839,-11.573 19.339,-4.247 15.867,3.247 12.204,2.741 6.758,2.458 2.66,2.307 2.175,1.184 1.198,0.327 0,0" /></g><g
           transform="translate(359.3237,296.9756)"
           id="g14142"><path
             id="path14144"
             style="fill:#e90e8b;fill-opacity:1;fill-rule:nonzero;stroke:none"
             d="m 0,0 c -0.564,-1.046 -1.573,-1.816 -2.774,-2.058 1.948,-6.333 3.818,-12.947 5.513,-19.798 0.305,0.073 0.622,0.116 0.949,0.116 1.654,0 3.073,-0.989 3.707,-2.406 4.485,-0.05 12.659,0.116 21.59,1.546 -2.651,7.77 -5.84,15.712 -9.367,23.821 C 13.532,0.207 7.453,-0.039 3.025,-0.039 1.899,-0.039 0.885,-0.022 0,0" /></g><g
           transform="translate(368.0693,213.4473)"
           id="g14146"><path
             id="path14148"
             style="fill:#e90e8b;fill-opacity:1;fill-rule:nonzero;stroke:none"
             d="m 0,0 c -0.73,-1.076 -1.963,-1.783 -3.361,-1.783 -0.192,0 -0.38,0.018 -0.565,0.044 -1.929,-7.497 -4.918,-14.45 -9.259,-20.324 0.759,-0.505 1.338,-1.258 1.622,-2.145 5.697,-0.622 17.484,-1.223 29.358,2.363 0.661,1.055 1.273,2.143 1.832,3.267 3.088,6.215 5.343,12.559 6.782,19.131 C 21.487,-0.42 16.499,-0.745 12.035,-0.745 7.124,-0.745 2.851,-0.353 0,0" /></g><g
           transform="translate(308.1543,243.0869)"
           id="g14150"><path
             id="path14152"
             style="fill:#e90e8b;fill-opacity:1;fill-rule:nonzero;stroke:none"
             d="m 0,0 c 0.029,-3.013 0.19,-7.531 0.786,-12.063 5.649,0.385 11.527,0.927 17.65,1.622 0.545,4.755 0.687,9.706 0.488,14.803 C 13.137,3.985 7.606,3.71 2.319,3.53 2.267,1.968 1.334,0.632 0,0" /></g><g
           transform="translate(274.6709,243.1582)"
           id="g14154"><path
             id="path14156"
             style="fill:#e90e8b;fill-opacity:1;fill-rule:nonzero;stroke:none"
             d="m 0,0 c -1.293,0.679 -2.177,2.033 -2.177,3.596 0,0.107 0.008,0.213 0.016,0.318 -7.731,0.52 -14.682,1.303 -20.929,2.292 -0.264,-1.396 -1.241,-2.538 -2.54,-3.034 -0.155,-3.122 -0.138,-7.886 0.858,-12.552 7.398,-1.45 15.176,-2.444 23.416,-2.99 0.602,-0.04 1.211,-0.072 1.818,-0.108 C -0.016,-7.843 -0.053,-3.136 0,0" /></g><g
           transform="translate(219.3823,253.7529)"
           id="g14158"><path
             id="path14160"
             style="fill:#e90e8b;fill-opacity:1;fill-rule:nonzero;stroke:none"
             d="m 0,0 c -1.127,0.722 -1.877,1.981 -1.877,3.419 0,0.694 0.175,1.348 0.482,1.919 -5.342,2.608 -9.386,5.395 -12.449,8.133 -0.574,-0.558 -1.312,-0.946 -2.135,-1.087 -0.508,-2.75 -0.77,-7.081 0.731,-12.388 C -11.151,-4.19 -5.807,-7.826 0.55,-10.715 -0.202,-6.453 -0.185,-2.644 0,0" /></g><g
           transform="translate(199.9883,267.126)"
           id="g14162"><path
             id="path14164"
             style="fill:#e90e8b;fill-opacity:1;fill-rule:nonzero;stroke:none"
             d="m 0,0 c -0.821,0.743 -1.339,1.813 -1.339,3.008 0,1.261 0.575,2.388 1.476,3.132 -1.856,2.678 -2.88,5.107 -3.443,7.012 -0.388,-0.948 -0.703,-1.94 -0.938,-2.974 C -5.047,6.647 -4.824,2.874 -3.647,-0.88 -2.826,-3.065 -1.761,-5.256 -0.46,-7.446 -0.66,-4.412 -0.38,-1.883 0,0" /></g><g
           transform="translate(302.3765,246.4092)"
           id="g14166"><path
             id="path14168"
             style="fill:#e90e8b;fill-opacity:1;fill-rule:nonzero;stroke:none"
             d="m 0,0 c -7.816,-0.131 -15.057,-0.044 -21.767,0.229 -0.045,-1.607 -1.021,-2.977 -2.409,-3.594 -0.05,-3.17 -0.008,-7.974 0.499,-12.541 8.356,-0.347 17.216,-0.249 26.712,0.299 -0.603,4.69 -0.762,9.26 -0.788,12.314 C 1.004,-2.678 0.122,-1.449 0,0" /></g><g
           transform="translate(245.5166,246.6338)"
           id="g14170"><path
             id="path14172"
             style="fill:#e90e8b;fill-opacity:1;fill-rule:nonzero;stroke:none"
             d="m 0,0 c -1.187,0.708 -1.985,2.002 -1.985,3.485 0,0.239 0.025,0.47 0.064,0.697 -7.048,1.455 -13.054,3.192 -18.169,5.099 -0.392,-1.205 -1.333,-2.159 -2.528,-2.575 -0.185,-2.884 -0.156,-7.256 0.982,-11.962 7.057,-2.823 14.449,-5.094 22.275,-6.823 C -0.167,-7.468 -0.159,-3.005 0,0" /></g><g
           transform="translate(261.7476,284.3652)"
           id="g14174"><path
             id="path14176"
             style="fill:#e90e8b;fill-opacity:1;fill-rule:nonzero;stroke:none"
             d="m 0,0 c -1.059,0.732 -1.753,1.954 -1.753,3.339 0,0.38 0.056,0.747 0.154,1.096 -7.092,2.387 -12.509,5.082 -16.635,7.731 -0.69,-0.958 -1.786,-1.601 -3.037,-1.68 -0.921,-2.976 -1.772,-7.816 -0.346,-13.51 3.303,-1.833 7.216,-3.514 11.706,-5.011 3.231,-1.077 6.533,-2.002 9.861,-2.796 C -0.538,-6.63 -0.312,-2.712 0,0" /></g><g
           transform="translate(290.4092,279.1113)"
           id="g14178"><path
             id="path14180"
             style="fill:#e90e8b;fill-opacity:1;fill-rule:nonzero;stroke:none"
             d="m 0,0 c -1.244,0.694 -2.087,2.021 -2.087,3.548 0,0.019 0.003,0.038 0.003,0.058 -7.791,0.963 -14.543,2.264 -20.392,3.779 -0.398,-1.278 -1.409,-2.283 -2.689,-2.675 -0.308,-2.774 -0.52,-6.876 0.122,-11.106 8.697,-1.822 17.471,-2.798 25.569,-3.262 C -0.029,-6.229 -0.076,-2.611 0,0" /></g><g
           transform="translate(320.4897,277.4336)"
           id="g14182"><path
             id="path14184"
             style="fill:#e90e8b;fill-opacity:1;fill-rule:nonzero;stroke:none"
             d="M 0,0 0.562,-7.689 C 1.843,-7.592 2.945,-7.495 3.846,-7.41 3.242,-4.254 2.551,-1.069 1.79,2.135 1.462,1.229 0.823,0.475 0,0" /></g><g
           transform="translate(237.187,296.2041)"
           id="g14186"><path
             id="path14188"
             style="fill:#e90e8b;fill-opacity:1;fill-rule:nonzero;stroke:none"
             d="m 0,0 c -0.638,0.717 -1.029,1.659 -1.029,2.695 0,0.976 0.345,1.871 0.919,2.572 -2.599,2.418 -4.178,4.57 -5.108,6.119 C -6.513,9.901 -7.572,8.289 -8.35,6.578 -9.968,3.018 -10.048,-0.488 -8.586,-3.841 -7.267,-6.866 -4.747,-9.709 -1.125,-12.306 -1.79,-7.13 -0.917,-2.819 0,0" /></g><g
           transform="translate(314.4043,280.9492)"
           id="g14190"><path
             id="path14192"
             style="fill:#e90e8b;fill-opacity:1;fill-rule:nonzero;stroke:none"
             d="m 0,0 c 0,0.009 0.001,0.018 0.001,0.026 -6.498,0.118 -12.499,0.43 -18.038,0.905 -0.262,-1.349 -1.191,-2.458 -2.43,-2.973 -0.073,-2.643 -0.014,-6.337 0.609,-9.631 9.112,-0.367 17.163,-0.118 22.986,0.229 l -0.56,7.671 C 1.065,-3.179 0,-1.715 0,0" /></g><g
           transform="translate(394.3896,286.4033)"
           id="g14194"><path
             id="path14196"
             style="fill:#e90e8b;fill-opacity:1;fill-rule:nonzero;stroke:none"
             d="m 0,0 c -1.361,-1.045 -2.814,-1.867 -4.073,-2.478 0.915,-2.417 1.786,-4.82 2.61,-7.21 2.459,0.954 4.361,4.403 4.727,8.306 C 3.194,-1.386 3.126,-1.393 3.056,-1.393 1.835,-1.393 0.744,-0.852 0,0" /></g><g
           transform="translate(411.7822,261.4023)"
           id="g14198"><path
             id="path14200"
             style="fill:#e90e8b;fill-opacity:1;fill-rule:nonzero;stroke:none"
             d="m 0,0 c 0.513,-0.68 0.819,-1.522 0.819,-2.438 0,-1.424 -0.734,-2.675 -1.843,-3.4 0.236,-2.881 0.277,-7.035 -0.729,-11.087 1.682,1.057 3.222,2.404 4.423,4.138 2.583,3.723 3.27,8.716 2.046,14.841 C 4.531,2.977 4.298,3.841 4.024,4.654 3.03,3.191 1.713,1.568 0,0" /></g><g
           transform="translate(407.25,255.1162)"
           id="g14202"><path
             id="path14204"
             style="fill:#e90e8b;fill-opacity:1;fill-rule:nonzero;stroke:none"
             d="m 0,0 c -0.935,0.313 -1.716,0.957 -2.208,1.793 -1.777,-0.828 -3.773,-1.526 -6.008,-2.027 0.963,-4.682 1.647,-9.223 2.05,-13.642 1.419,0.249 2.974,0.618 4.542,1.161 C 0.232,-8.481 0.259,-3.343 0,0" /></g><g
           transform="translate(428.1777,218.6904)"
           id="g14206"><path
             id="path14208"
             style="fill:#e90e8b;fill-opacity:1;fill-rule:nonzero;stroke:none"
             d="m 0,0 c -4.253,-4.475 -9.415,-7.269 -14.379,-9.007 0.061,-0.279 0.095,-0.568 0.095,-0.866 0,-1.567 -0.89,-2.924 -2.19,-3.601 -0.101,-3.239 -0.719,-8.118 -3.082,-13.014 14.215,3.656 19.174,12.637 20.895,18.811 0.596,2.136 0.932,4.317 1.047,6.495 C 1.456,-1.064 0.624,-0.636 0,0" /></g><g
           transform="translate(405.9404,207.6641)"
           id="g14210"><path
             id="path14212"
             style="fill:#e90e8b;fill-opacity:1;fill-rule:nonzero;stroke:none"
             d="m 0,0 c -3.262,-0.565 -6.075,-0.742 -7.994,-0.783 -1.446,-4.853 -3.327,-9.606 -5.657,-14.294 -0.331,-0.667 -0.681,-1.321 -1.043,-1.967 1.02,-0.037 2.019,-0.059 2.986,-0.059 3.633,0 6.9,0.254 9.841,0.712 3.155,4.975 3.942,10.416 4.082,13.85 C 1.153,-2.059 0.336,-1.134 0,0" /></g><g
           transform="translate(339.6431,356.2676)"
           id="g14214"><path
             id="path14216"
             style="fill:#2aabe2;fill-opacity:1;fill-rule:nonzero;stroke:none"
             d="m 0,0 c -0.685,1.275 -2.03,2.142 -3.579,2.142 -0.412,0 -0.809,-0.063 -1.183,-0.177 -1.666,-0.507 -2.878,-2.053 -2.878,-3.884 0,-2.243 1.819,-4.061 4.061,-4.061 0.371,0 0.728,0.054 1.069,0.147 1.198,0.327 2.176,1.184 2.66,2.307 4.099,0.151 9.544,0.434 13.207,0.94 -0.517,1.115 -1.033,2.234 -1.548,3.357 C 11.762,0.766 11.716,0.761 11.669,0.756 8.241,0.366 3.599,0.133 0,0" /></g><g
           transform="translate(349.5239,328.2539)"
           id="g14218"><path
             id="path14220"
             style="fill:#2aabe2;fill-opacity:1;fill-rule:nonzero;stroke:none"
             d="m 0,0 c -0.628,1.431 -2.055,2.431 -3.718,2.431 -0.534,0 -1.044,-0.106 -1.512,-0.294 -1.494,-0.6 -2.549,-2.059 -2.549,-3.767 0,-2.243 1.818,-4.061 4.061,-4.061 0.45,0 0.881,0.076 1.285,0.211 0.994,0.332 1.817,1.036 2.302,1.948 0.666,-0.013 1.402,-0.021 2.201,-0.021 3.957,0 9.38,0.207 14.632,1.073 -0.527,1.104 -1.055,2.21 -1.585,3.321 C 9.455,0.01 3.618,-0.064 0,0" /></g><g
           transform="translate(359.4761,300.5068)"
           id="g14222"><path
             id="path14224"
             style="fill:#2aabe2;fill-opacity:1;fill-rule:nonzero;stroke:none"
             d="m 0,0 c -0.623,1.442 -2.057,2.453 -3.729,2.453 -0.584,0 -1.139,-0.126 -1.642,-0.349 -1.423,-0.63 -2.419,-2.053 -2.419,-3.711 0,-2.244 1.819,-4.062 4.061,-4.062 0.275,0 0.543,0.028 0.803,0.08 1.2,0.241 2.21,1.012 2.774,2.058 0.885,-0.023 1.899,-0.039 3.025,-0.039 4.427,0 10.506,0.246 16.592,1.259 C 18.983,-1.202 18.495,-0.091 18,1.024 11.038,-0.043 4.069,-0.097 0,0" /></g><g
           transform="translate(366.7187,272.8291)"
           id="g14226"><path
             id="path14228"
             style="fill:#2aabe2;fill-opacity:1;fill-rule:nonzero;stroke:none"
             d="m 0,0 c -0.634,1.417 -2.053,2.406 -3.707,2.406 -0.327,0 -0.644,-0.043 -0.949,-0.116 -1.784,-0.429 -3.112,-2.029 -3.112,-3.944 0,-2.243 1.819,-4.062 4.061,-4.062 0.3,0 0.591,0.035 0.873,0.097 1.186,0.26 2.177,1.037 2.725,2.085 0.493,-0.007 1.028,-0.011 1.604,-0.011 4.905,0 12.695,0.287 21.217,1.701 C 22.349,-0.717 21.977,0.412 21.59,1.547 12.659,0.116 4.485,-0.05 0,0" /></g><g
           transform="translate(370.3672,244.7383)"
           id="g14230"><path
             id="path14232"
             style="fill:#2aabe2;fill-opacity:1;fill-rule:nonzero;stroke:none"
             d="m 0,0 c -0.525,1.569 -1.981,2.709 -3.713,2.766 -0.045,0.002 -0.09,0.006 -0.135,0.006 -2.243,0 -4.061,-1.817 -4.061,-4.06 0,-2.243 1.818,-4.062 4.061,-4.062 0.176,0 0.349,0.016 0.52,0.038 1.204,0.154 2.242,0.833 2.877,1.802 2.597,-0.278 6.365,-0.574 10.689,-0.574 4.693,0 10.037,0.35 15.236,1.444 -0.12,1.163 -0.258,2.335 -0.418,3.518 C 15.583,-1.171 5.28,-0.55 0,0" /></g><g
           transform="translate(368.5796,216.9502)"
           id="g14234"><path
             id="path14236"
             style="fill:#2aabe2;fill-opacity:1;fill-rule:nonzero;stroke:none"
             d="m 0,0 c -0.414,1.31 -1.474,2.327 -2.805,2.689 -0.341,0.093 -0.697,0.147 -1.067,0.147 -2.242,0 -4.061,-1.818 -4.061,-4.061 0,-2.05 1.522,-3.742 3.497,-4.017 0.185,-0.026 0.373,-0.044 0.564,-0.044 1.399,0 2.631,0.707 3.362,1.783 2.851,-0.352 7.124,-0.745 12.035,-0.745 4.463,0 9.452,0.325 14.374,1.298 0.272,1.244 0.516,2.497 0.73,3.76 C 16.493,-1.476 5.498,-0.66 0,0" /></g><g
           transform="translate(356.5063,189.2393)"
           id="g14238"><path
             id="path14240"
             style="fill:#2aabe2;fill-opacity:1;fill-rule:nonzero;stroke:none"
             d="m 0,0 c -0.284,0.887 -0.863,1.64 -1.622,2.145 -0.643,0.427 -1.415,0.677 -2.245,0.677 -2.207,0 -4,-1.762 -4.055,-3.956 4.346,-0.966 8.772,-1.906 13.269,-2.823 1.099,-0.046 2.27,-0.072 3.504,-0.072 4.969,0 10.946,0.438 17.186,1.866 1.218,1.427 2.327,2.936 3.321,4.526 C 17.484,-1.223 5.697,-0.622 0,0" /></g><g
           transform="translate(314.4058,280.9756)"
           id="g14242"><path
             id="path14244"
             style="fill:#2aabe2;fill-opacity:1;fill-rule:nonzero;stroke:none"
             d="m 0,0 c 0,-0.009 -0.001,-0.018 -0.001,-0.026 0,-1.715 1.065,-3.179 2.568,-3.774 l 0.56,-7.671 c 1.286,0.077 2.462,0.158 3.519,0.24 l -0.562,7.689 c 0.823,0.475 1.462,1.229 1.79,2.135 C 7.528,0.048 7.168,1.508 6.793,2.971 6.072,3.63 5.114,4.035 4.059,4.035 1.826,4.035 0.014,2.23 0,0" /></g><g
           transform="translate(240.4761,294.8516)"
           id="g14246"><path
             id="path14248"
             style="fill:#2aabe2;fill-opacity:1;fill-rule:nonzero;stroke:none"
             d="m 0,0 c 1.251,0.079 2.347,0.722 3.037,1.68 0.48,0.667 0.766,1.483 0.766,2.368 0,2.242 -1.818,4.06 -4.06,4.06 -1.267,0 -2.398,-0.58 -3.142,-1.489 -0.574,-0.7 -0.919,-1.596 -0.919,-2.571 0,-1.036 0.391,-1.979 1.029,-2.695 -0.918,-2.82 -1.79,-7.13 -1.126,-12.306 1.23,-0.882 2.589,-1.735 4.07,-2.558 C -1.772,-7.816 -0.921,-2.977 0,0" /></g><g
           transform="translate(265.2441,283.8213)"
           id="g14250"><path
             id="path14252"
             style="fill:#2aabe2;fill-opacity:1;fill-rule:nonzero;stroke:none"
             d="m 0,0 c 1.28,0.392 2.292,1.397 2.689,2.675 0.119,0.382 0.183,0.787 0.183,1.208 0,2.243 -1.818,4.061 -4.061,4.061 -1.862,0 -3.429,-1.256 -3.907,-2.965 C -5.194,4.63 -5.25,4.263 -5.25,3.883 c 0,-1.385 0.695,-2.607 1.753,-3.339 -0.312,-2.712 -0.537,-6.63 -0.049,-10.831 1.219,-0.291 2.442,-0.564 3.668,-0.819 C -0.52,-6.876 -0.308,-2.774 0,0" /></g><g
           transform="translate(293.937,278.9072)"
           id="g14254"><path
             id="path14256"
             style="fill:#2aabe2;fill-opacity:1;fill-rule:nonzero;stroke:none"
             d="m 0,0 c 1.239,0.515 2.168,1.624 2.43,2.973 0.049,0.252 0.077,0.512 0.077,0.779 0,2.242 -1.818,4.06 -4.061,4.06 -2.223,0 -4.026,-1.787 -4.058,-4.001 0,-0.021 -0.003,-0.04 -0.003,-0.059 0,-1.526 0.843,-2.854 2.087,-3.548 -0.076,-2.611 -0.029,-6.228 0.527,-9.658 1.219,-0.069 2.424,-0.129 3.61,-0.177 C -0.014,-6.337 -0.073,-2.643 0,0" /></g><g
           transform="translate(393.3848,289.0713)"
           id="g14258"><path
             id="path14260"
             style="fill:#2aabe2;fill-opacity:1;fill-rule:nonzero;stroke:none"
             d="m 0,0 c 0,-1.022 0.381,-1.954 1.005,-2.668 0.744,-0.852 1.835,-1.393 3.056,-1.393 0.07,0 0.138,0.007 0.208,0.011 0.08,0.85 0.087,1.719 0.011,2.591 C 4.165,-0.14 3.787,1.822 2.676,3.813 1.116,3.246 0,1.755 0,0" /></g><g
           transform="translate(413.8936,208.8174)"
           id="g14262"><path
             id="path14264"
             style="fill:#2aabe2;fill-opacity:1;fill-rule:nonzero;stroke:none"
             d="m 0,0 c 0,0.298 -0.034,0.587 -0.095,0.866 -0.396,1.826 -2.02,3.196 -3.966,3.196 -2.243,0 -4.061,-1.819 -4.061,-4.062 0,-0.401 0.06,-0.788 0.169,-1.153 0.336,-1.134 1.153,-2.059 2.215,-2.541 -0.14,-3.434 -0.927,-8.875 -4.082,-13.85 1.613,0.251 3.127,0.563 4.549,0.929 2.362,4.896 2.98,9.775 3.082,13.014 C -0.89,-2.924 0,-1.567 0,0" /></g><g
           transform="translate(427.0127,221.5342)"
           id="g14266"><path
             id="path14268"
             style="fill:#2aabe2;fill-opacity:1;fill-rule:nonzero;stroke:none"
             d="M 0,0 C 0,-1.108 0.445,-2.111 1.165,-2.844 1.789,-3.479 2.621,-3.908 3.551,-4.025 3.692,-1.343 3.495,1.336 3.021,3.921 1.283,3.461 0,1.882 0,0" /></g><g
           transform="translate(410.7578,255.5645)"
           id="g14270"><path
             id="path14272"
             style="fill:#2aabe2;fill-opacity:1;fill-rule:nonzero;stroke:none"
             d="m 0,0 c 1.109,0.725 1.844,1.976 1.844,3.399 0,0.916 -0.307,1.759 -0.82,2.439 -0.74,0.984 -1.915,1.623 -3.242,1.623 -2.242,0 -4.06,-1.818 -4.06,-4.062 0,-0.751 0.208,-1.451 0.562,-2.054 0.492,-0.836 1.274,-1.48 2.208,-1.793 0.259,-3.343 0.233,-8.482 -1.624,-12.715 1.496,0.517 2.999,1.193 4.403,2.076 C 0.277,-7.035 0.236,-2.881 0,0" /></g><g
           transform="translate(310.4736,246.6172)"
           id="g14274"><path
             id="path14276"
             style="fill:#2aabe2;fill-opacity:1;fill-rule:nonzero;stroke:none"
             d="m 0,0 c 0.001,0.045 0.007,0.091 0.007,0.137 0,2.243 -1.818,4.061 -4.061,4.061 -2.242,0 -4.061,-1.818 -4.061,-4.061 0,-0.116 0.008,-0.232 0.018,-0.345 0.122,-1.449 1.004,-2.678 2.246,-3.293 0.027,-3.054 0.186,-7.624 0.789,-12.314 1.166,0.067 2.343,0.14 3.528,0.221 -0.595,4.532 -0.756,9.051 -0.785,12.064 C -0.985,-2.898 -0.052,-1.562 0,0" /></g><g
           transform="translate(203.4033,266.1367)"
           id="g14278"><path
             id="path14280"
             style="fill:#2aabe2;fill-opacity:1;fill-rule:nonzero;stroke:none"
             d="m 0,0 c 0.823,0.142 1.561,0.529 2.135,1.087 0.759,0.737 1.233,1.767 1.233,2.91 0,2.243 -1.818,4.062 -4.061,4.062 -0.982,0 -1.883,-0.349 -2.585,-0.93 -0.901,-0.744 -1.476,-1.871 -1.476,-3.132 0,-1.194 0.518,-2.265 1.339,-3.008 -0.38,-1.883 -0.66,-4.412 -0.46,-7.446 0.411,-0.692 0.845,-1.386 1.304,-2.078 0.986,-1.33 2.091,-2.615 3.302,-3.853 C -0.77,-7.081 -0.508,-2.75 0,0" /></g><g
           transform="translate(223.2949,256.8252)"
           id="g14282"><path
             id="path14284"
             style="fill:none;stroke:#2aabe2;stroke-width:0.75;stroke-linecap:round;stroke-linejoin:round;stroke-miterlimit:4;stroke-dasharray:none;stroke-opacity:1"
             d="M 0,0 V 0" /></g><g
           transform="translate(223.2949,256.8252)"
           id="g14286"><path
             id="path14288"
             style="fill:#2aabe2;fill-opacity:1;fill-rule:nonzero;stroke:none"
             d="m 0,0 z m -0.396,-3.485 c 1.194,0.416 2.135,1.37 2.527,2.575 0.129,0.396 0.201,0.818 0.201,1.257 0,2.243 -1.818,4.061 -4.061,4.061 -1.548,0 -2.894,-0.867 -3.579,-2.142 C -5.615,1.694 -5.79,1.041 -5.79,0.347 c 0,-1.438 0.75,-2.698 1.877,-3.419 -0.184,-2.644 -0.201,-6.453 0.551,-10.715 0.589,-0.268 1.187,-0.529 1.793,-0.784 0.714,-0.3 1.434,-0.588 2.155,-0.876 -1.138,4.706 -1.167,9.078 -0.982,11.962" /></g><g
           transform="translate(249.3379,249.873)"
           id="g14290"><path
             id="path14292"
             style="fill:none;stroke:#2aabe2;stroke-width:0.75;stroke-linecap:round;stroke-linejoin:round;stroke-miterlimit:4;stroke-dasharray:none;stroke-opacity:1"
             d="M 0,0 V 0" /></g><g
           transform="translate(249.3379,249.873)"
           id="g14294"><path
             id="path14296"
             style="fill:#2aabe2;fill-opacity:1;fill-rule:nonzero;stroke:none"
             d="m 0,0 z m -0.297,-3.543 c 1.299,0.496 2.276,1.638 2.54,3.034 0.046,0.245 0.072,0.497 0.072,0.755 0,2.243 -1.818,4.062 -4.061,4.062 -2.004,0 -3.666,-1.454 -3.997,-3.366 -0.039,-0.226 -0.064,-0.458 -0.064,-0.696 0,-1.483 0.798,-2.777 1.986,-3.485 -0.159,-3.005 -0.167,-7.468 0.638,-12.079 1.237,-0.274 2.486,-0.531 3.744,-0.777 -0.996,4.666 -1.013,9.43 -0.858,12.552" /></g><g
           transform="translate(278.2007,243.0439)"
           id="g14298"><path
             id="path14300"
             style="fill:#2aabe2;fill-opacity:1;fill-rule:nonzero;stroke:none"
             d="m 0,0 c 1.388,0.617 2.363,1.987 2.409,3.594 0.001,0.039 0.006,0.077 0.006,0.116 0,2.243 -1.818,4.061 -4.061,4.061 -2.135,0 -3.882,-1.649 -4.045,-3.743 -0.008,-0.105 -0.016,-0.211 -0.016,-0.318 0,-1.563 0.884,-2.917 2.177,-3.596 -0.053,-3.135 -0.016,-7.843 0.463,-12.477 1.178,-0.068 2.366,-0.128 3.566,-0.178 C -0.008,-7.974 -0.05,-3.17 0,0" /></g><g
           transform="translate(189.0039,210.8633)"
           id="g14302"><path
             id="path14304"
             style="fill:#e90e8b;fill-opacity:1;fill-rule:nonzero;stroke:none"
             d="m 0,0 c -1.314,0.672 -2.216,2.036 -2.216,3.614 0,1.062 0.41,2.026 1.078,2.749 -4.782,3.834 -8.779,7.647 -12.09,11.327 -0.59,-0.594 -1.365,-1.003 -2.23,-1.141 -1.103,-4.708 -2.383,-14.189 0.581,-26.991 4.166,-3.705 9.525,-7.348 16.387,-10.759 C 0.125,-13.507 -0.039,-4.815 0,0" /></g><g
           transform="translate(234.2344,190.1699)"
           id="g14306"><path
             id="path14308"
             style="fill:#e90e8b;fill-opacity:1;fill-rule:nonzero;stroke:none"
             d="m 0,0 c 0,0.573 0.12,1.117 0.334,1.611 -6.284,2.355 -12.061,4.824 -17.37,7.368 -0.371,-0.9 -1.057,-1.634 -1.92,-2.072 0.131,-4.421 0.499,-11.929 1.527,-17.027 6.262,-1.68 13.2,-3.207 20.88,-4.548 C 2.763,-10.549 2.482,-6.493 2.37,-3.688 0.973,-3.047 0,-1.639 0,0" /></g><g
           transform="translate(289.2148,176.3848)"
           id="g14310"><path
             id="path14312"
             style="fill:#e90e8b;fill-opacity:1;fill-rule:nonzero;stroke:none"
             d="M 0,0 C 0,0.312 0.038,0.612 0.104,0.903 -7,2.161 -13.729,3.55 -20.102,5.05 c -0.082,-1.4 -0.87,-2.607 -2.015,-3.272 0.171,-1.914 0.427,-4.321 0.782,-6.537 7.566,-0.673 15.657,-1.197 24.302,-1.556 L 2.698,-3.821 C 1.127,-3.261 0,-1.765 0,0" /></g><g
           transform="translate(320.1514,172.5381)"
           id="g14314"><path
             id="path14316"
             style="fill:#e90e8b;fill-opacity:1;fill-rule:nonzero;stroke:none"
             d="m 0,0 c 0,0.142 0.007,0.281 0.021,0.42 -7.998,0.853 -15.613,1.857 -22.859,2.995 -0.135,-1.273 -0.859,-2.367 -1.894,-3.013 l 0.324,-3.009 c 7.773,-0.277 15.984,-0.422 24.658,-0.422 0.372,0 0.74,0.002 1.11,0.002 C 0.527,-2.283 0,-1.205 0,0" /></g><g
           transform="translate(326.9429,169.5381)"
           id="g14318"><path
             id="path14320"
             style="fill:#e90e8b;fill-opacity:1;fill-rule:nonzero;stroke:none"
             d="M 0,0 C 10.141,0.088 19.968,0.371 29.203,0.767 19.446,1.19 10.152,1.813 1.311,2.619 1.214,1.583 0.727,0.662 0,0" /></g><g
           transform="translate(261.0034,181.6738)"
           id="g14322"><path
             id="path14324"
             style="fill:#e90e8b;fill-opacity:1;fill-rule:nonzero;stroke:none"
             d="m 0,0 c 0,0.601 0.133,1.169 0.368,1.682 -6.822,1.783 -13.203,3.695 -19.171,5.711 -0.309,-1.097 -1.067,-2.004 -2.064,-2.513 0.124,-2.979 0.44,-7.399 1.241,-11.672 7.018,-1.135 14.628,-2.116 22.882,-2.919 C 2.952,-7.636 2.729,-5.504 2.575,-3.775 1.068,-3.183 0,-1.718 0,0" /></g><g
           transform="translate(209.3838,200.6963)"
           id="g14326"><path
             id="path14328"
             style="fill:#e90e8b;fill-opacity:1;fill-rule:nonzero;stroke:none"
             d="m 0,0 c 0,0.773 0.22,1.493 0.596,2.109 -5.851,3.132 -11.049,6.347 -15.656,9.579 -0.42,-0.696 -1.042,-1.254 -1.786,-1.596 -0.033,-5.245 0.177,-15.192 1.956,-23.001 5.337,-2.385 11.478,-4.634 18.54,-6.685 C 2.797,-14.35 2.482,-7.736 2.365,-3.687 0.97,-3.044 0,-1.637 0,0" /></g><g
           transform="translate(170.1421,228.4365)"
           id="g14330"><path
             id="path14332"
             style="fill:#e90e8b;fill-opacity:1;fill-rule:nonzero;stroke:none"
             d="m 0,0 c -0.802,0.742 -1.307,1.8 -1.307,2.979 0,1.423 0.734,2.674 1.843,3.399 -3.339,4.567 -5.608,8.798 -7.042,12.445 -0.53,-0.254 -1.12,-0.399 -1.747,-0.399 -0.787,0 -1.519,0.227 -2.142,0.615 -3.84,-9.606 -2.349,-21.447 4.421,-34.574 1.349,-2.614 3.138,-5.296 5.481,-7.981 C -2.261,-12.512 -1.068,-4.38 0,0" /></g><g
           transform="translate(163.6362,247.2598)"
           id="g14334"><path
             id="path14336"
             style="fill:#2aabe2;fill-opacity:1;fill-rule:nonzero;stroke:none"
             d="M 0,0 C 1.367,0.653 2.313,2.045 2.313,3.661 2.313,5.202 1.455,6.543 0.19,7.231 -0.527,6.329 -1.2,5.375 -1.815,4.365 -2.626,3.034 -3.316,1.649 -3.889,0.216 c 0.622,-0.388 1.355,-0.615 2.142,-0.615 0.626,0 1.217,0.145 1.747,0.399" /></g><g
           transform="translate(217.1987,199.1494)"
           id="g14338"><path
             id="path14340"
             style="fill:#2aabe2;fill-opacity:1;fill-rule:nonzero;stroke:none"
             d="m 0,0 c 0.197,0.477 0.307,0.999 0.307,1.547 0,2.242 -1.818,4.06 -4.061,4.06 -1.469,0 -2.752,-0.782 -3.465,-1.951 C -7.595,3.04 -7.815,2.32 -7.815,1.547 c 0,-1.637 0.97,-3.044 2.365,-3.687 0.117,-4.049 0.432,-10.663 1.285,-15.907 1.229,-0.357 2.486,-0.708 3.772,-1.053 -1.028,5.098 -1.396,12.607 -1.527,17.028 C -1.057,-1.635 -0.371,-0.9 0,0" /></g><g
           transform="translate(242.2002,189.0664)"
           id="g14342"><path
             id="path14344"
             style="fill:#2aabe2;fill-opacity:1;fill-rule:nonzero;stroke:none"
             d="m 0,0 c 0.099,0.352 0.156,0.721 0.156,1.104 0,2.243 -1.818,4.061 -4.061,4.061 -1.67,0 -3.103,-1.009 -3.727,-2.45 -0.214,-0.494 -0.334,-1.038 -0.334,-1.611 0,-1.639 0.973,-3.047 2.37,-3.689 0.113,-2.805 0.393,-6.86 1.081,-10.979 1.212,-0.212 2.443,-0.418 3.692,-0.621 -0.801,4.274 -1.117,8.694 -1.24,11.672 C -1.066,-2.004 -0.309,-1.097 0,0" /></g><g
           transform="translate(269.1128,181.4346)"
           id="g14346"><path
             id="path14348"
             style="fill:#2aabe2;fill-opacity:1;fill-rule:nonzero;stroke:none"
             d="m 0,0 c 0.004,0.08 0.012,0.159 0.012,0.239 0,2.243 -1.818,4.062 -4.061,4.062 -1.642,0 -3.053,-0.977 -3.693,-2.38 -0.234,-0.513 -0.367,-1.081 -0.367,-1.682 0,-1.718 1.068,-3.182 2.575,-3.775 0.154,-1.729 0.376,-3.86 0.68,-5.936 1.194,-0.116 2.4,-0.228 3.621,-0.337 -0.355,2.216 -0.611,4.623 -0.782,6.538 C -0.87,-2.606 -0.082,-1.399 0,0" /></g><g
           transform="translate(297.313,175.9531)"
           id="g14350"><path
             id="path14352"
             style="fill:#2aabe2;fill-opacity:1;fill-rule:nonzero;stroke:none"
             d="m 0,0 c 0.015,0.142 0.023,0.285 0.023,0.432 0,2.243 -1.817,4.061 -4.061,4.061 -1.931,0 -3.545,-1.35 -3.956,-3.158 -0.066,-0.291 -0.104,-0.592 -0.104,-0.903 0,-1.765 1.127,-3.261 2.698,-3.822 l 0.269,-2.494 c 1.177,-0.049 2.362,-0.095 3.561,-0.138 l -0.324,3.009 C -0.859,-2.367 -0.134,-1.273 0,0" /></g><g
           transform="translate(328.2539,172.1572)"
           id="g14354"><path
             id="path14356"
             style="fill:#2aabe2;fill-opacity:1;fill-rule:nonzero;stroke:none"
             d="m 0,0 c 0.012,0.125 0.019,0.252 0.019,0.381 0,2.242 -1.818,4.06 -4.061,4.06 -2.101,0 -3.829,-1.595 -4.039,-3.64 -0.014,-0.139 -0.022,-0.279 -0.022,-0.42 0,-1.205 0.528,-2.283 1.36,-3.027 1.82,0.002 3.631,0.011 5.432,0.027 C -0.584,-1.957 -0.097,-1.036 0,0" /></g><g
           transform="translate(173.5464,227.4121)"
           id="g14358"><path
             id="path14360"
             style="fill:#2aabe2;fill-opacity:1;fill-rule:nonzero;stroke:none"
             d="m 0,0 c 0.865,0.139 1.639,0.547 2.229,1.142 0.73,0.733 1.181,1.745 1.181,2.861 0,2.243 -1.818,4.061 -4.061,4.061 -0.819,0 -1.579,-0.245 -2.218,-0.662 -1.109,-0.724 -1.842,-1.975 -1.842,-3.399 0,-1.179 0.504,-2.236 1.307,-2.979 -1.069,-4.379 -2.262,-12.511 -0.493,-23.515 1.311,-1.503 2.797,-3.007 4.478,-4.5 C -2.384,-14.188 -1.103,-4.708 0,0" /></g><g
           transform="translate(192.5376,210.7881)"
           id="g14362"><path
             id="path14364"
             style="fill:#2aabe2;fill-opacity:1;fill-rule:nonzero;stroke:none"
             d="m 0,0 c 0.745,0.342 1.366,0.9 1.786,1.597 0.369,0.611 0.586,1.326 0.586,2.092 0,2.244 -1.818,4.062 -4.061,4.062 C -2.87,7.751 -3.93,7.243 -4.672,6.438 -5.339,5.715 -5.75,4.751 -5.75,3.689 c 0,-1.578 0.902,-2.942 2.216,-3.614 -0.039,-4.815 0.125,-13.507 1.511,-21.201 1.273,-0.634 2.6,-1.259 3.979,-1.875 C 0.177,-15.191 -0.033,-5.245 0,0" /></g><g
           transform="translate(356.146,170.3047)"
           id="g14366"><path
             id="path14368"
             style="fill:#000000;fill-opacity:1;fill-rule:nonzero;stroke:none"
             d="m 0,0 c -9.235,-0.396 -19.062,-0.679 -29.203,-0.767 -1.801,-0.015 -3.612,-0.024 -5.432,-0.027 -0.369,0 -0.738,-0.002 -1.109,-0.002 -8.674,0 -16.885,0.146 -24.659,0.422 -1.199,0.043 -2.384,0.09 -3.561,0.139 -8.645,0.359 -16.736,0.883 -24.303,1.556 -1.22,0.109 -2.426,0.221 -3.62,0.337 -8.253,0.803 -15.864,1.784 -22.882,2.919 -1.249,0.202 -2.48,0.408 -3.692,0.62 -7.68,1.341 -14.618,2.868 -20.879,4.548 -1.286,0.345 -2.543,0.695 -3.772,1.053 -7.062,2.051 -13.203,4.3 -18.54,6.684 -1.38,0.617 -2.706,1.242 -3.98,1.875 -6.862,3.412 -12.222,7.054 -16.387,10.759 -1.68,1.493 -3.167,2.997 -4.478,4.5 -2.343,2.685 -4.132,5.366 -5.481,7.981 -6.77,13.127 -8.261,24.967 -4.421,34.574 0.573,1.433 1.263,2.818 2.074,4.149 0.615,1.01 1.288,1.964 2.005,2.867 6.571,8.264 17.052,12.064 24.696,12.064 0.799,0 1.577,-0.039 2.326,-0.117 0.176,-0.555 0.372,-1.12 0.584,-1.696 0.911,-2.917 2.296,-5.806 4.14,-8.58 0.367,-0.551 0.752,-1.096 1.152,-1.634 8.068,-12.071 24.285,-26.631 56.089,-41.295 19.36,-8.926 42.731,-17.016 69.466,-24.045 C -10.523,12.746 15.536,7.383 43.816,2.889 32.552,1.887 17.32,0.744 0,0 m -133.321,123.336 c 0.244,-1.125 0.599,-2.236 1.074,-3.327 3.364,-7.714 12.464,-14.232 26.316,-18.85 18.205,-6.068 38.33,-7.438 52.008,-7.518 0.47,-0.003 0.934,-0.004 1.396,-0.004 9.989,0 17.793,0.628 21.619,1.009 0.976,-5.976 1.618,-11.831 1.84,-17.501 0.199,-5.098 0.057,-10.048 -0.488,-14.804 -6.123,-0.695 -12.001,-1.237 -17.65,-1.622 -1.186,-0.081 -2.362,-0.155 -3.528,-0.222 -9.497,-0.548 -18.356,-0.645 -26.713,-0.299 -1.199,0.05 -2.387,0.111 -3.566,0.178 -0.607,0.035 -1.216,0.067 -1.818,0.107 -8.24,0.546 -16.018,1.54 -23.416,2.991 -1.258,0.246 -2.507,0.503 -3.744,0.776 -7.825,1.729 -15.217,4 -22.274,6.823 -0.721,0.288 -1.442,0.576 -2.155,0.876 -0.606,0.255 -1.204,0.517 -1.793,0.784 -6.358,2.889 -11.702,6.525 -15.798,10.711 -1.212,1.238 -2.317,2.523 -3.302,3.853 -0.459,0.692 -0.894,1.386 -1.305,2.078 -1.301,2.19 -2.365,4.381 -3.187,6.566 -1.176,3.754 -1.4,7.528 -0.597,11.058 0.235,1.034 0.55,2.026 0.939,2.975 3.519,8.597 13.171,13.581 26.142,13.362 m 18.238,20.494 c 5.693,2.53 12.351,3.438 18.749,2.556 10.525,-1.452 17.894,-4.689 25.02,-7.819 8.622,-3.787 17.519,-7.691 31.659,-8.439 1.72,-5.512 3.31,-11.022 4.708,-16.486 0.375,-1.463 0.735,-2.923 1.081,-4.378 0.761,-3.204 1.451,-6.389 2.056,-9.545 -0.901,-0.085 -2.003,-0.182 -3.285,-0.28 -1.056,-0.081 -2.232,-0.162 -3.518,-0.239 -5.824,-0.346 -13.874,-0.596 -22.987,-0.228 -1.186,0.048 -2.391,0.107 -3.61,0.176 -8.099,0.464 -16.873,1.441 -25.57,3.262 -1.225,0.256 -2.449,0.528 -3.668,0.819 -3.329,0.794 -6.63,1.719 -9.861,2.796 -4.491,1.497 -8.404,3.178 -11.706,5.011 -1.481,0.823 -2.839,1.676 -4.069,2.558 -3.622,2.596 -6.142,5.439 -7.461,8.465 -1.462,3.352 -1.382,6.858 0.236,10.419 0.778,1.71 1.837,3.323 3.132,4.807 2.327,2.666 5.426,4.916 9.094,6.545 M -83.17,55.365 c 5.047,-0.334 10.269,-0.502 15.696,-0.502 11.383,0 23.668,0.739 37.133,2.225 -1.678,-9.025 -4.997,-17.242 -10.434,-24.317 -1.436,-1.866 -3.017,-3.654 -4.756,-5.355 -4.96,1.429 -9.786,2.896 -14.475,4.401 -15.238,4.889 -29.021,10.163 -41.179,15.77 -12.782,5.893 -23.724,12.124 -32.681,18.601 15.151,-6.022 31.766,-9.569 50.696,-10.823 M 39.915,122.58 c 1.111,-1.991 1.489,-3.953 1.604,-5.272 0.076,-0.872 0.068,-1.742 -0.012,-2.591 -0.365,-3.904 -2.267,-7.353 -4.726,-8.306 -0.824,2.39 -1.696,4.793 -2.61,7.21 -2.011,5.315 -4.229,10.696 -6.597,16.145 7.097,-0.928 10.612,-4.089 12.341,-7.186 M 59.661,95.752 c 0.273,-0.814 0.506,-1.678 0.691,-2.601 1.225,-6.125 0.537,-11.118 -2.046,-14.84 -1.201,-1.734 -2.741,-3.082 -4.423,-4.138 -1.404,-0.883 -2.907,-1.56 -4.403,-2.076 -1.568,-0.543 -3.123,-0.912 -4.542,-1.161 -0.403,4.418 -1.087,8.96 -2.05,13.641 -0.384,1.868 -0.806,3.756 -1.28,5.671 -0.921,3.731 -2.001,7.497 -3.212,11.297 2.725,0.989 5.009,3.34 6.488,6.396 3.044,-0.514 11.621,-2.785 14.777,-12.189 M 73.887,55.15 c 0.475,-2.585 0.672,-5.263 0.53,-7.946 -0.115,-2.179 -0.451,-4.359 -1.046,-6.495 -1.721,-6.174 -6.68,-15.155 -20.895,-18.812 -1.422,-0.366 -2.935,-0.677 -4.549,-0.928 -2.94,-0.458 -6.208,-0.712 -9.84,-0.712 -0.967,0 -1.966,0.021 -2.986,0.058 0.362,0.646 0.712,1.3 1.043,1.967 2.33,4.689 4.21,9.442 5.656,14.294 2.796,9.388 3.945,19.155 3.466,29.579 l 0.059,-0.359 C 52.726,66.996 58.467,70.064 62,74.683 67.512,71.567 72.284,63.9 73.887,55.15 M 27.818,10.774 c 1.454,1.439 2.795,2.965 4.021,4.578 2.121,-0.144 4.184,-0.22 6.18,-0.22 10.386,0 19.056,1.948 25.842,5.818 7.255,4.139 12.253,10.495 14.451,18.382 4.118,14.774 -2.42,33.409 -13.772,39.814 1.703,4.241 1.991,9.269 0.842,15.011 -1.856,9.279 -7.547,13.975 -11.994,16.281 -2.669,1.383 -5.206,2.082 -6.952,2.43 0.263,1.573 0.339,3.22 0.193,4.887 -0.405,4.624 -2.385,8.67 -5.725,11.701 -3.797,3.443 -9.077,5.345 -15.691,5.662 -4.156,9.284 -8.687,18.763 -13.313,28.443 -7.308,15.29 -14.865,31.099 -21.846,47.899 -3.501,8.424 -4.298,14.999 -2.367,19.542 1.234,2.908 3.585,5.007 7.186,6.418 3.761,1.475 8.074,1.917 12.245,2.345 7.536,0.774 15.299,1.575 19.597,8.486 -0.019,-0.003 -0.039,-0.006 -0.058,-0.009 -0.435,-0.08 -0.884,-0.117 -1.336,-0.179 -0.226,-0.028 -0.453,-0.056 -0.682,-0.084 -0.229,-0.025 -0.46,-0.033 -0.692,-0.05 -0.464,-0.028 -0.931,-0.067 -1.401,-0.085 -0.47,-0.011 -0.942,-0.021 -1.414,-0.032 -0.472,-0.004 -0.944,0.024 -1.413,0.035 -0.152,0.003 -0.303,0.01 -0.454,0.017 -2.993,-1.882 -7.188,-2.433 -12.671,-2.996 -4.513,-0.464 -9.18,-0.943 -13.593,-2.672 -4.882,-1.913 -8.258,-5.005 -10.036,-9.188 -2.489,-5.86 -1.697,-13.772 2.352,-23.516 3.238,-7.792 6.594,-15.36 9.989,-22.758 0.515,-1.123 1.031,-2.242 1.548,-3.357 3.472,-7.494 6.972,-14.82 10.417,-22.028 0.409,-0.855 0.817,-1.707 1.224,-2.559 0.53,-1.11 1.058,-2.217 1.585,-3.321 3.925,-8.234 7.735,-16.317 11.251,-24.242 0.494,-1.116 0.982,-2.227 1.464,-3.335 3.528,-8.109 6.717,-16.051 9.368,-23.821 0.387,-1.134 0.759,-2.263 1.122,-3.39 1.269,-3.933 2.394,-7.822 3.343,-11.663 1.165,-4.717 2.047,-9.278 2.649,-13.706 0.16,-1.183 0.298,-2.355 0.418,-3.518 0.884,-8.552 0.676,-16.612 -0.632,-24.339 -0.214,-1.263 -0.458,-2.516 -0.73,-3.76 -1.44,-6.571 -3.694,-12.916 -6.783,-19.131 -0.558,-1.124 -1.171,-2.211 -1.832,-3.266 -0.994,-1.59 -2.102,-3.1 -3.321,-4.527 -1.489,-1.741 -3.14,-3.36 -4.952,-4.845 -5.341,0.984 -10.588,2.002 -15.738,3.052 -4.497,0.917 -8.923,1.857 -13.269,2.823 -8.644,1.92 -16.984,3.935 -25.001,6.044 -2.483,0.652 -4.936,1.314 -7.359,1.985 32.967,35.662 8.216,100.716 -11.775,153.26 -6.477,17.023 -12.595,33.102 -15.833,45.957 -5.226,20.745 -7.163,34.179 -6.479,44.918 0.76,11.93 4.785,21.062 13.049,29.61 5.726,5.923 14.662,10.264 25.162,12.223 9.345,1.745 18.884,1.26 24.895,-1.265 9.237,-3.88 13.083,-8.316 16.802,-12.606 3.98,-4.591 8.097,-9.339 18.04,-12.479 4.227,-1.335 8.695,-1.86 13.017,-2.368 6.091,-0.715 11.843,-1.391 13.534,-4.257 0.943,-1.6 0.83,-4.195 -0.327,-7.728 H 35.416 c -0.657,1.358 -2.044,2.298 -3.654,2.298 -2.243,0 -4.061,-1.819 -4.061,-4.061 0,-2.243 1.818,-4.061 4.061,-4.061 1.61,0 2.997,0.939 3.654,2.297 h 13.351 c -3.856,-7.9 -13.34,-12.967 -26.27,-13.966 l 0.001,-0.003 c -0.165,-0.02 -0.737,-0.089 -1.637,-0.198 -0.268,-0.032 -0.565,-0.067 -0.888,-0.106 -0.306,-0.024 -0.637,-0.051 -0.991,-0.079 -0.355,-0.029 -0.732,-0.06 -1.131,-0.093 -0.397,-0.038 -0.833,-0.038 -1.279,-0.061 -0.448,-0.017 -0.916,-0.035 -1.401,-0.054 -0.484,0 -0.985,0 -1.5,0 -1.034,-0.017 -2.12,0.051 -3.25,0.095 -0.566,0.02 -1.135,0.087 -1.716,0.129 -0.58,0.05 -1.17,0.089 -1.758,0.173 -0.591,0.074 -1.187,0.148 -1.784,0.223 -0.596,0.098 -1.193,0.197 -1.79,0.296 -0.601,0.091 -1.193,0.218 -1.784,0.346 -0.588,0.133 -1.187,0.233 -1.762,0.392 -0.58,0.15 -1.155,0.299 -1.723,0.446 -0.568,0.15 -1.116,0.338 -1.664,0.502 -0.273,0.085 -0.544,0.169 -0.813,0.252 -0.267,0.088 -0.525,0.189 -0.784,0.281 -0.519,0.189 -1.026,0.374 -1.519,0.553 -0.484,0.205 -0.955,0.405 -1.409,0.598 -0.229,0.097 -0.453,0.192 -0.674,0.286 -0.219,0.096 -0.425,0.206 -0.633,0.305 -0.823,0.408 -1.593,0.765 -2.233,1.154 -0.647,0.377 -1.233,0.679 -1.673,0.991 -0.905,0.595 -1.421,0.935 -1.421,0.935 0,0 0.469,-0.404 1.291,-1.113 0.402,-0.371 0.944,-0.746 1.546,-1.21 0.595,-0.476 1.319,-0.935 2.1,-1.456 0.196,-0.128 0.392,-0.268 0.601,-0.394 0.21,-0.124 0.425,-0.25 0.643,-0.377 0.437,-0.257 0.89,-0.522 1.355,-0.795 0.478,-0.248 0.97,-0.504 1.472,-0.765 0.253,-0.128 0.505,-0.266 0.766,-0.392 0.263,-0.12 0.528,-0.242 0.796,-0.365 0.538,-0.241 1.078,-0.507 1.64,-0.737 0.564,-0.228 1.135,-0.458 1.711,-0.69 0.574,-0.241 1.171,-0.423 1.763,-0.64 0.593,-0.212 1.19,-0.423 1.797,-0.597 0.606,-0.184 1.212,-0.367 1.816,-0.55 0.61,-0.158 1.219,-0.316 1.823,-0.472 v 0 c 0.003,-0.001 0.468,-0.048 1.276,-0.157 0.808,-0.104 1.961,-0.254 3.345,-0.433 0.69,-0.092 1.439,-0.171 2.229,-0.262 0.394,-0.05 0.8,-0.089 1.216,-0.122 0.414,-0.039 0.838,-0.08 1.268,-0.12 0.431,-0.031 0.869,-0.062 1.312,-0.093 0.443,-0.038 0.892,-0.038 1.344,-0.07 0.452,-0.028 0.907,-0.049 1.364,-0.05 0.458,-0.002 0.917,-0.023 1.375,-0.012 0.459,0.004 0.918,0.008 1.375,0.011 0.457,0.01 0.911,0.041 1.362,0.06 0.452,0.017 0.898,0.055 1.34,0.087 0.44,0.039 0.879,0.053 1.306,0.111 0.854,0.105 1.686,0.18 2.467,0.309 0.785,0.106 1.522,0.242 2.206,0.361 0.686,0.111 1.304,0.259 1.861,0.365 0.556,0.108 1.038,0.216 1.434,0.311 0.394,0.089 0.705,0.157 0.919,0.203 9.059,3.003 15.609,8.473 18.612,15.816 2.673,6.533 2.957,11.205 0.896,14.702 -2.982,5.057 -9.963,5.877 -17.354,6.746 -4.084,0.479 -8.307,0.975 -12.071,2.164 -6.954,2.196 -10.444,5.129 -13.566,8.524 0.115,0.181 0.229,0.365 0.326,0.563 0.146,0.27 0.283,0.544 0.397,0.828 0.126,0.277 0.225,0.563 0.318,0.84 0.101,0.274 0.163,0.557 0.238,0.818 0.058,0.27 0.12,0.523 0.158,0.768 0.041,0.243 0.074,0.472 0.094,0.684 0.094,0.845 0.049,1.396 0.049,1.396 0,0 -0.234,-0.502 -0.705,-1.152 -0.115,-0.163 -0.249,-0.333 -0.391,-0.508 -0.138,-0.177 -0.304,-0.35 -0.463,-0.529 -0.176,-0.17 -0.338,-0.352 -0.53,-0.513 -0.186,-0.165 -0.372,-0.329 -0.575,-0.472 -0.19,-0.153 -0.395,-0.285 -0.595,-0.408 -0.079,-0.054 -0.161,-0.1 -0.243,-0.145 -0.073,0.085 -0.146,0.169 -0.221,0.255 -3.913,4.514 -8.349,9.63 -18.691,13.974 -6.989,2.935 -17.389,3.526 -27.823,1.579 -11.536,-2.153 -21.448,-7.019 -27.908,-13.701 -18.671,-19.313 -17.295,-41.873 -7.856,-79.346 3.311,-13.146 9.481,-29.361 16.012,-46.528 5.092,-13.382 10.5,-27.597 15.162,-41.892 -12.054,0.924 -19.79,4.318 -27.921,7.89 -7.448,3.271 -15.149,6.653 -26.382,8.203 -15.635,2.156 -30.923,-4.937 -36.346,-16.866 -0.921,-2.029 -1.47,-4.086 -1.655,-6.135 -8.105,0.074 -15.258,-1.696 -20.79,-5.18 -5.753,-3.623 -9.55,-8.861 -10.98,-15.15 -0.504,-2.218 -0.69,-4.501 -0.569,-6.809 -0.544,0.031 -1.092,0.054 -1.651,0.054 -10.196,0 -23.761,-5.378 -31.082,-17.392 -5.038,-8.267 -8.752,-22.569 2.169,-43.743 8.878,-17.212 30.356,-29.795 63.837,-37.398 25.63,-5.822 58.251,-8.773 96.956,-8.773 53.343,0 100.016,5.735 100.481,5.792 L 84.033,2.27 64.774,4.952 C 52.039,6.727 39.708,8.671 27.818,10.774" /></g><g
           transform="translate(329.6729,456.7114)"
           id="g14370"><path
             id="path14372"
             style="fill:#ffffff;fill-opacity:1;fill-rule:nonzero;stroke:none"
             d="m 0,0 c -0.126,-0.376 -0.197,-0.777 -0.197,-1.196 0,-1.421 0.786,-2.658 1.946,-3.303 0.132,-0.074 0.269,-0.139 0.411,-0.197 0.015,-0.006 0.032,-0.011 0.048,-0.017 0.117,-0.046 0.238,-0.086 0.36,-0.12 0.038,-0.011 0.078,-0.021 0.116,-0.03 0.107,-0.026 0.215,-0.047 0.325,-0.064 0.041,-0.006 0.082,-0.014 0.124,-0.019 0.148,-0.017 0.297,-0.029 0.45,-0.029 0.124,0 0.247,0.007 0.368,0.018 0.041,0.004 0.081,0.012 0.122,0.017 0.079,0.011 0.158,0.021 0.235,0.036 0.049,0.009 0.096,0.022 0.145,0.033 0.067,0.016 0.134,0.033 0.199,0.052 0.052,0.015 0.103,0.032 0.154,0.05 0.059,0.02 0.118,0.041 0.176,0.064 0.053,0.022 0.106,0.044 0.158,0.068 0.051,0.024 0.103,0.049 0.153,0.075 0.056,0.027 0.109,0.056 0.163,0.086 0.044,0.026 0.086,0.052 0.129,0.079 0.057,0.036 0.113,0.071 0.168,0.11 0.033,0.023 0.065,0.048 0.097,0.073 0.061,0.046 0.122,0.091 0.18,0.141 0.015,0.013 0.03,0.028 0.045,0.041 0.475,0.419 0.845,0.955 1.063,1.564 0.001,0.002 0.002,0.004 0.002,0.007 0.036,0.101 0.068,0.206 0.096,0.311 0.001,0.004 0.002,0.007 0.002,0.011 0.028,0.106 0.051,0.214 0.069,0.324 0.033,0.202 0.055,0.408 0.055,0.619 0,1.583 -0.973,2.937 -2.354,3.5 0.855,0.182 1.741,0.279 2.65,0.279 6.986,0 12.649,-5.663 12.649,-12.649 0,-2.899 -0.98,-5.568 -2.621,-7.701 0.02,-0.007 0.041,-0.014 0.061,-0.02 0.85,0.995 1.605,2.058 2.226,3.188 0.69,1.26 1.223,2.594 1.587,3.963 0.362,1.362 0.559,2.788 0.583,4.158 0.008,0.338 -0.008,0.744 -0.013,1.065 -0.029,0.349 -0.04,0.698 -0.083,1.043 -0.045,0.346 -0.073,0.693 -0.138,1.034 l -0.086,0.514 -0.11,0.508 c -0.295,1.354 -0.78,2.657 -1.399,3.882 -0.147,0.31 -0.33,0.602 -0.492,0.903 -0.185,0.289 -0.353,0.587 -0.552,0.865 -0.377,0.571 -0.794,1.113 -1.234,1.633 -0.886,1.035 -1.905,1.95 -3.004,2.739 -1.111,0.773 -2.306,1.419 -3.559,1.904 -1.254,0.484 -2.559,0.829 -3.888,0.992 -0.33,0.031 -0.672,0.081 -0.985,0.09 L 6.123,10.725 5.578,10.732 C 4.922,10.745 4.245,10.695 3.584,10.63 2.259,10.473 0.962,10.148 -0.285,9.692 -1.526,9.218 -2.712,8.602 -3.802,7.845 -4.882,7.077 -5.898,6.209 -6.767,5.207 -7.64,4.21 -8.4,3.113 -9.001,1.933 -9.615,0.76 -10.083,-0.489 -10.38,-1.78 c -0.162,-0.642 -0.256,-1.299 -0.338,-1.957 l -0.04,-0.473 c -0.012,-0.165 -0.034,-0.297 -0.036,-0.492 l -0.019,-0.546 -0.004,-0.136 -0.002,-0.056 v -0.004 l 0.001,-0.031 0.005,-0.248 0.024,-1.286 -1.243,-0.276 -3.155,-0.7 c 1.657,-0.461 3.312,-0.929 4.964,-1.407 l 5.261,-1.511 c -0.018,0.277 -0.03,0.555 -0.03,0.837 0,4.108 1.959,7.755 4.992,10.066" /></g><g
           transform="translate(336.9111,454.5723)"
           id="g14374"><path
             id="path14376"
             style="fill:#2aabe2;fill-opacity:1;fill-rule:nonzero;stroke:none"
             d="M 0,0 C 0,-0.003 -0.001,-0.007 -0.002,-0.011 -0.001,-0.007 0,-0.003 0,0" /></g><g
           transform="translate(336.813,454.25)"
           id="g14378"><path
             id="path14380"
             style="fill:#2aabe2;fill-opacity:1;fill-rule:nonzero;stroke:none"
             d="M 0,0 C 0,-0.002 -0.001,-0.005 -0.002,-0.007 -0.001,-0.005 0,-0.002 0,0" /></g><g
           transform="translate(337.3306,459.2949)"
           id="g14382"><path
             id="path14384"
             style="fill:#2aabe2;fill-opacity:1;fill-rule:nonzero;stroke:none"
             d="m 0,0 c -0.909,0 -1.795,-0.098 -2.65,-0.28 1.381,-0.563 2.355,-1.916 2.355,-3.499 0,-0.212 -0.022,-0.418 -0.056,-0.62 v 0.002 c 0.196,0.013 0.392,0.022 0.59,0.022 4.603,0 8.335,-3.731 8.335,-8.334 0,-2.504 -1.105,-4.749 -2.853,-6.276 -0.003,10e-4 -0.007,0.002 -0.011,0.003 0.161,-0.05 0.322,-0.099 0.482,-0.151 l 2.663,-0.842 c 0.392,-0.123 0.782,-0.251 1.173,-0.376 1.641,2.134 2.621,4.802 2.621,7.702 C 12.649,-5.663 6.986,0 0,0" /></g><g
           transform="translate(334.6548,452.0068)"
           id="g14386"><path
             id="path14388"
             style="fill:#2aabe2;fill-opacity:1;fill-rule:nonzero;stroke:none"
             d="M 0,0 C -0.058,-0.023 -0.117,-0.044 -0.176,-0.064 -0.117,-0.044 -0.058,-0.023 0,0" /></g><g
           transform="translate(334.9663,452.1489)"
           id="g14390"><path
             id="path14392"
             style="fill:#2aabe2;fill-opacity:1;fill-rule:nonzero;stroke:none"
             d="M 0,0 C -0.05,-0.026 -0.102,-0.051 -0.154,-0.074 -0.102,-0.051 -0.05,-0.026 0,0" /></g><g
           transform="translate(332.3569,451.8481)"
           id="g14394"><path
             id="path14396"
             style="fill:#2aabe2;fill-opacity:1;fill-rule:nonzero;stroke:none"
             d="M 0,0 C -0.039,0.01 -0.078,0.02 -0.116,0.03 -0.078,0.019 -0.039,0.01 0,0" /></g><g
           transform="translate(332.8057,451.7656)"
           id="g14398"><path
             id="path14400"
             style="fill:#2aabe2;fill-opacity:1;fill-rule:nonzero;stroke:none"
             d="M 0,0 C -0.042,0.005 -0.083,0.013 -0.124,0.019 -0.083,0.012 -0.042,0.005 0,0" /></g><g
           transform="translate(334.3252,451.8921)"
           id="g14402"><path
             id="path14404"
             style="fill:#2aabe2;fill-opacity:1;fill-rule:nonzero;stroke:none"
             d="M 0,0 C -0.065,-0.019 -0.133,-0.036 -0.2,-0.051 -0.133,-0.035 -0.065,-0.019 0,0" /></g><g
           transform="translate(335.5229,452.4971)"
           id="g14406"><path
             id="path14408"
             style="fill:#2aabe2;fill-opacity:1;fill-rule:nonzero;stroke:none"
             d="M 0,0 C -0.032,-0.024 -0.064,-0.049 -0.097,-0.073 -0.064,-0.049 -0.032,-0.024 0,0" /></g><g
           transform="translate(333.6235,451.7549)"
           id="g14410"><path
             id="path14412"
             style="fill:#2aabe2;fill-opacity:1;fill-rule:nonzero;stroke:none"
             d="M 0,0 C -0.121,-0.012 -0.244,-0.019 -0.368,-0.019 -0.244,-0.019 -0.121,-0.012 0,0" /></g><g
           transform="translate(335.748,452.6797)"
           id="g14414"><path
             id="path14416"
             style="fill:#2aabe2;fill-opacity:1;fill-rule:nonzero;stroke:none"
             d="M 0,0 C -0.016,-0.014 -0.03,-0.028 -0.045,-0.042 -0.03,-0.028 -0.016,-0.014 0,0" /></g><g
           transform="translate(335.2578,452.3145)"
           id="g14418"><path
             id="path14420"
             style="fill:#2aabe2;fill-opacity:1;fill-rule:nonzero;stroke:none"
             d="M 0,0 C -0.043,-0.027 -0.085,-0.053 -0.129,-0.079 -0.085,-0.053 -0.043,-0.027 0,0" /></g><g
           transform="translate(329.2344,446.5854)"
           id="g14422"><path
             id="path14424"
             style="fill:#2aabe2;fill-opacity:1;fill-rule:nonzero;stroke:none"
             d="M 0,0 C 0,2.169 0.829,4.144 2.187,5.627 1.027,6.272 0.242,7.509 0.242,8.93 c 0,0.419 0.07,0.82 0.196,1.196 C -2.595,7.815 -4.553,4.167 -4.553,0.06 c 0,-0.282 0.011,-0.56 0.03,-0.837 l 0.101,-0.03 2.681,-0.772 2.675,-0.795 -0.643,0.192 C 0.102,-1.486 0,-0.755 0,0" /></g><g
           transform="translate(331.8809,451.998)"
           id="g14426"><path
             id="path14428"
             style="fill:#2aabe2;fill-opacity:1;fill-rule:nonzero;stroke:none"
             d="M 0,0 C -0.016,0.006 -0.033,0.011 -0.048,0.018 -0.033,0.011 -0.016,0.006 0,0" /></g><g
           transform="translate(333.981,451.8076)"
           id="g14430"><path
             id="path14432"
             style="fill:#2aabe2;fill-opacity:1;fill-rule:nonzero;stroke:none"
             d="M 0,0 C -0.077,-0.015 -0.156,-0.025 -0.235,-0.036 -0.156,-0.025 -0.077,-0.015 0,0" /></g><g
           transform="translate(327.4937,445.0068)"
           id="g14434"><path
             id="path14436"
             style="fill:#000000;fill-opacity:1;fill-rule:nonzero;stroke:none"
             d="m 0,0 -2.681,0.772 -0.102,0.029 -5.26,1.512 c -1.653,0.478 -3.308,0.945 -4.965,1.407 L -9.853,4.419 -8.61,4.695 -8.634,5.982 -8.639,6.229 -8.64,6.26 v 0.005 l 0.002,0.056 0.005,0.136 0.018,0.546 c 0.002,0.194 0.025,0.327 0.036,0.491 l 0.04,0.474 c 0.082,0.657 0.177,1.314 0.338,1.957 0.297,1.291 0.765,2.539 1.379,3.712 0.601,1.18 1.361,2.278 2.235,3.274 0.868,1.003 1.884,1.87 2.964,2.639 1.09,0.756 2.276,1.373 3.517,1.847 1.247,0.456 2.544,0.78 3.87,0.938 0.66,0.064 1.337,0.115 1.993,0.102 l 0.545,-0.008 0.477,-0.03 c 0.313,-0.009 0.655,-0.059 0.986,-0.091 1.328,-0.162 2.633,-0.508 3.887,-0.991 1.253,-0.485 2.448,-1.131 3.559,-1.905 1.1,-0.788 2.118,-1.703 3.004,-2.739 0.44,-0.52 0.857,-1.062 1.234,-1.632 0.199,-0.279 0.367,-0.577 0.552,-0.865 0.163,-0.301 0.346,-0.593 0.492,-0.904 0.619,-1.225 1.104,-2.527 1.399,-3.881 l 0.11,-0.509 0.086,-0.513 C 24.153,8.027 24.181,7.681 24.226,7.335 24.27,6.989 24.28,6.64 24.31,6.292 24.314,5.971 24.33,5.564 24.322,5.227 24.298,3.856 24.102,2.431 23.739,1.068 c -0.364,-1.369 -0.897,-2.702 -1.587,-3.963 -0.621,-1.13 -1.376,-2.192 -2.226,-3.188 -0.02,0.007 -0.041,0.014 -0.061,0.021 -0.391,0.125 -0.782,0.252 -1.173,0.375 l -2.663,0.842 c -0.16,0.052 -0.321,0.101 -0.482,0.151 0.004,-0.001 0.008,-0.002 0.011,-0.003 1.748,1.528 2.853,3.772 2.853,6.276 0,4.603 -3.732,8.335 -8.335,8.335 -0.199,0 -0.394,-0.01 -0.59,-0.023 V 9.889 C 9.468,9.78 9.445,9.671 9.417,9.565 9.417,9.562 9.416,9.558 9.415,9.555 9.388,9.449 9.355,9.345 9.319,9.243 9.319,9.241 9.318,9.238 9.317,9.236 9.099,8.627 8.729,8.092 8.254,7.673 8.239,7.659 8.225,7.645 8.209,7.631 8.151,7.582 8.09,7.536 8.029,7.49 7.997,7.466 7.965,7.441 7.932,7.417 7.877,7.379 7.821,7.343 7.764,7.308 7.721,7.281 7.679,7.254 7.635,7.229 7.582,7.199 7.528,7.17 7.473,7.142 7.422,7.116 7.371,7.091 7.319,7.068 7.267,7.044 7.214,7.021 7.161,7 7.103,6.977 7.044,6.956 6.985,6.936 6.934,6.918 6.883,6.901 6.832,6.885 6.766,6.866 6.699,6.85 6.632,6.834 6.583,6.823 6.536,6.81 6.487,6.801 6.41,6.786 6.332,6.775 6.252,6.765 6.211,6.76 6.171,6.752 6.13,6.748 6.009,6.736 5.886,6.729 5.762,6.729 5.609,6.729 5.46,6.741 5.312,6.759 5.271,6.764 5.229,6.771 5.188,6.777 5.079,6.794 4.97,6.815 4.863,6.841 4.825,6.851 4.786,6.86 4.747,6.871 4.625,6.906 4.504,6.945 4.387,6.991 4.371,6.998 4.354,7.002 4.339,7.009 4.197,7.066 4.06,7.132 3.928,7.206 2.57,5.723 1.741,3.748 1.741,1.579 c 0,-0.756 0.102,-1.487 0.29,-2.183 l 0.644,-0.191 z m 18.528,-6.313 c 1.821,-0.385 3.649,-0.746 5.478,-1.101 -1.336,0.444 -2.673,0.881 -4.013,1.31 0.972,0.868 1.856,1.846 2.622,2.92 0.843,1.218 1.546,2.544 2.082,3.946 0.511,1.417 0.851,2.875 1.011,4.411 0.164,1.476 0.119,3.032 -0.114,4.537 -0.217,1.472 -0.637,2.916 -1.212,4.301 0.041,0.036 0.081,0.072 0.126,0.112 0.149,0.137 0.303,0.312 0.473,0.492 0.083,0.09 0.17,0.184 0.26,0.282 0.086,0.102 0.168,0.212 0.255,0.323 0.17,0.223 0.353,0.447 0.508,0.706 0.16,0.253 0.329,0.506 0.465,0.783 0.146,0.27 0.283,0.544 0.397,0.829 0.126,0.276 0.224,0.562 0.318,0.839 0.1,0.274 0.163,0.558 0.238,0.818 0.057,0.27 0.12,0.523 0.157,0.768 0.042,0.244 0.075,0.472 0.095,0.684 0.094,0.845 0.049,1.396 0.049,1.396 0,0 -0.235,-0.501 -0.706,-1.151 -0.114,-0.163 -0.247,-0.333 -0.39,-0.509 -0.138,-0.176 -0.304,-0.349 -0.463,-0.529 -0.176,-0.169 -0.338,-0.352 -0.531,-0.513 -0.186,-0.165 -0.372,-0.328 -0.573,-0.472 -0.191,-0.153 -0.396,-0.285 -0.597,-0.408 -0.192,-0.132 -0.401,-0.231 -0.593,-0.331 -0.186,-0.106 -0.387,-0.175 -0.564,-0.248 -0.09,-0.035 -0.175,-0.072 -0.26,-0.102 -0.086,-0.026 -0.17,-0.05 -0.25,-0.072 -0.155,-0.042 -0.288,-0.089 -0.414,-0.115 -0.127,0.177 -0.257,0.352 -0.39,0.525 -0.949,1.227 -2.06,2.332 -3.282,3.301 -1.233,0.953 -2.579,1.777 -4.018,2.406 -1.442,0.617 -2.96,1.074 -4.516,1.321 -0.392,0.053 -0.771,0.121 -1.186,0.151 L 8.379,25.349 7.832,25.371 C 7.031,25.404 6.251,25.367 5.461,25.309 3.889,25.159 2.328,24.826 0.834,24.295 -0.655,23.753 -2.083,23.037 -3.4,22.152 -4.711,21.261 -5.921,20.214 -6.971,19.024 -8.023,17.835 -8.944,16.526 -9.667,15.11 c -0.73,-1.411 -1.284,-2.915 -1.634,-4.465 -0.188,-0.772 -0.301,-1.56 -0.392,-2.348 -0.031,-0.36 -0.061,-0.755 -0.075,-1.103 l -3.259,-0.774 -4.467,-1.083 -5.912,-1.432 5.868,-1.445 5.417,-1.334 c 1.806,-0.445 3.614,-0.88 5.425,-1.305 l 5.429,-1.286 2.715,-0.642 2.721,-0.619 5.442,-1.236 5.454,-1.193 c 0.91,-0.197 1.817,-0.401 2.729,-0.588 z" /></g><g
           transform="translate(389.1929,420.7017)"
           id="g14438"><path
             id="path14440"
             style="fill:#e90e8b;fill-opacity:1;fill-rule:nonzero;stroke:none"
             d="M 0,0 C -0.557,-0.106 -1.175,-0.254 -1.861,-0.365 -2.545,-0.484 -3.282,-0.62 -4.067,-0.726 -4.848,-0.855 -5.68,-0.93 -6.534,-1.035 -6.96,-1.093 -7.399,-1.107 -7.84,-1.146 c -0.442,-0.032 -0.888,-0.07 -1.34,-0.087 -0.451,-0.019 -0.905,-0.05 -1.362,-0.059 -0.457,-0.004 -0.916,-0.008 -1.375,-0.012 -0.458,-0.011 -0.917,0.01 -1.375,0.012 -0.457,0.001 -0.912,0.022 -1.364,0.05 -0.451,0.032 -0.901,0.032 -1.344,0.07 -0.443,0.031 -0.881,0.062 -1.312,0.093 -0.43,0.04 -0.854,0.081 -1.268,0.12 -0.416,0.033 -0.822,0.072 -1.216,0.122 -0.789,0.091 -1.538,0.17 -2.228,0.262 -1.385,0.179 -2.538,0.329 -3.346,0.433 -0.808,0.109 -1.273,0.156 -1.276,0.157 v 0 c 0,0 0.442,-0.157 1.221,-0.404 0.389,-0.126 0.863,-0.273 1.414,-0.421 0.549,-0.156 1.17,-0.331 1.854,-0.486 0.343,-0.081 0.699,-0.166 1.068,-0.254 0.371,-0.074 0.756,-0.151 1.15,-0.23 0.79,-0.163 1.632,-0.293 2.504,-0.419 0.876,-0.1 1.78,-0.232 2.707,-0.278 0.313,-0.024 0.629,-0.043 0.946,-0.056 0.151,-0.007 0.302,-0.014 0.454,-0.017 0.47,-0.011 0.941,-0.039 1.413,-0.035 0.472,0.011 0.944,0.022 1.414,0.032 0.47,0.018 0.937,0.057 1.401,0.085 0.232,0.017 0.463,0.025 0.692,0.05 0.229,0.028 0.456,0.056 0.682,0.084 0.452,0.062 0.901,0.099 1.336,0.179 0.019,0.003 0.039,0.006 0.058,0.009 0.068,0.012 0.134,0.023 0.2,0.034 0.158,-0.073 0.314,-0.144 0.475,-0.218 0.245,-0.124 0.513,-0.209 0.754,-0.354 0.242,-0.138 0.488,-0.277 0.738,-0.419 0.123,-0.071 0.251,-0.137 0.373,-0.213 0.117,-0.082 0.236,-0.164 0.355,-0.247 0.236,-0.167 0.481,-0.326 0.717,-0.5 0.437,-0.396 0.926,-0.736 1.327,-1.193 0.437,-0.414 0.814,-0.907 1.21,-1.385 0.179,-0.258 0.359,-0.518 0.54,-0.778 0.186,-0.257 0.339,-0.548 0.512,-0.82 0.651,-1.126 1.24,-2.347 1.757,-3.637 0.356,-0.864 0.688,-1.753 1.022,-2.647 0.06,-0.169 0.12,-0.339 0.179,-0.507 0.129,-0.36 0.257,-0.723 0.379,-1.089 0.485,-1.489 0.963,-2.955 1.425,-4.373 0.244,-0.718 0.48,-1.43 0.735,-2.124 0.259,-0.694 0.519,-1.374 0.795,-2.032 0.284,-0.655 0.572,-1.29 0.877,-1.896 0.316,-0.602 0.628,-1.181 0.967,-1.718 0.67,-1.077 1.407,-1.997 2.13,-2.733 0.723,-0.739 1.447,-1.279 2.062,-1.671 0.607,-0.398 1.137,-0.634 1.484,-0.79 0.356,-0.14 0.545,-0.214 0.545,-0.214 0,0 -0.152,0.135 -0.437,0.39 -0.146,0.124 -0.306,0.292 -0.5,0.478 -0.098,0.092 -0.192,0.207 -0.299,0.317 -0.108,0.11 -0.222,0.227 -0.332,0.36 -0.457,0.516 -0.953,1.182 -1.439,1.984 -0.482,0.805 -0.957,1.745 -1.372,2.818 -0.108,0.273 -0.214,0.554 -0.316,0.842 0.142,-0.114 0.286,-0.225 0.424,-0.335 0.225,-0.167 0.422,-0.354 0.658,-0.486 0.225,-0.139 0.446,-0.275 0.661,-0.406 0.214,-0.129 0.413,-0.265 0.633,-0.355 0.429,-0.195 0.818,-0.386 1.19,-0.538 0.389,-0.128 0.739,-0.244 1.057,-0.339 0.158,-0.047 0.305,-0.099 0.445,-0.132 0.142,-0.026 0.275,-0.05 0.399,-0.072 0.246,-0.044 0.457,-0.082 0.627,-0.113 0.342,-0.055 0.525,-0.085 0.525,-0.085 0,0 -0.158,0.095 -0.456,0.275 -0.15,0.087 -0.334,0.194 -0.55,0.32 -0.109,0.063 -0.226,0.13 -0.351,0.203 -0.122,0.073 -0.239,0.166 -0.369,0.254 -0.253,0.176 -0.533,0.371 -0.838,0.583 -0.284,0.237 -0.592,0.494 -0.92,0.768 -0.325,0.272 -0.624,0.612 -0.959,0.936 -0.171,0.157 -0.309,0.361 -0.47,0.544 -0.155,0.189 -0.32,0.374 -0.475,0.575 -0.145,0.209 -0.295,0.422 -0.445,0.639 -0.076,0.107 -0.152,0.215 -0.23,0.325 -0.068,0.116 -0.135,0.234 -0.205,0.353 -0.139,0.234 -0.281,0.473 -0.424,0.715 -0.128,0.254 -0.258,0.511 -0.39,0.772 -0.512,1.053 -0.985,2.199 -1.412,3.445 -0.114,0.304 -0.211,0.626 -0.321,0.944 -0.107,0.319 -0.219,0.636 -0.322,0.967 -0.212,0.662 -0.427,1.33 -0.644,2.005 0,0.002 -10e-4,0.004 -10e-4,0.006 -0.08,0.266 -0.16,0.531 -0.244,0.799 -0.119,0.376 -0.25,0.758 -0.387,1.155 -0.274,0.781 -0.551,1.561 -0.878,2.339 -0.646,1.549 -1.409,3.099 -2.396,4.519 -0.237,0.359 -0.502,0.704 -0.765,1.044 -0.281,0.33 -0.55,0.664 -0.851,0.973 -0.287,0.319 -0.603,0.61 -0.91,0.904 -0.327,0.274 -0.64,0.558 -0.983,0.801 -0.538,0.413 -1.1,0.773 -1.671,1.09 0.009,0.003 0.02,0.006 0.029,0.008 0.681,0.182 1.283,0.422 1.822,0.609 0.269,0.099 0.523,0.179 0.751,0.276 0.228,0.095 0.438,0.184 0.627,0.263 0.755,0.32 1.179,0.516 1.179,0.516 0,0 -0.119,-0.023 -0.338,-0.069 C 2.139,0.468 1.828,0.4 1.435,0.311 1.038,0.216 0.556,0.108 0,0" /></g><g
           transform="translate(382.7041,187.5391)"
           id="g14442"><path
             id="path14444"
             style="fill:#fcee11;fill-opacity:1;fill-rule:nonzero;stroke:none"
             d="M 0,0 -6.953,2.781 C -6.961,2.77 -6.969,2.759 -6.977,2.747 l 6.941,-2.759 C -0.024,-0.008 -0.012,-0.004 0,0" /></g><g
           transform="translate(382.0029,246.8369)"
           id="g14446"><path
             id="path14448"
             style="fill:#e21e25;fill-opacity:1;fill-rule:nonzero;stroke:none"
             d="M 0,0 3.295,20.76 3.294,20.761 -0.001,0.005 C -0.001,0.003 0,0.002 0,0" /></g><g
           transform="translate(374.0669,196.8262)"
           id="g14450"><path
             id="path14452"
             style="fill:#fcee11;fill-opacity:1;fill-rule:nonzero;stroke:none"
             d="M 0,0 0.948,5.975 C 0.946,5.975 0.943,5.974 0.941,5.973 L -0.011,-0.018 C -0.007,-0.012 -0.003,-0.006 0,0" /></g><g
           transform="translate(375.7734,207.5811)"
           id="g14454"><path
             id="path14456"
             style="fill:#fcee11;fill-opacity:1;fill-rule:nonzero;stroke:none"
             d="M 0,0 3.913,24.655 C 3.912,24.661 3.912,24.665 3.911,24.67 L -0.007,-0.004 C -0.004,-0.003 -0.002,-0.001 0,0" /></g><g
           transform="translate(493.1426,179.9551)"
           id="g14458"><path
             id="path14460"
             style="fill:#e7e7e8;fill-opacity:1;fill-rule:nonzero;stroke:none"
             d="m 0,0 -5.689,1.205 6.79,0.877 5.69,-1.204 z m -11.597,-1.497 -5.689,1.204 6.791,0.878 5.69,-1.205 z m -13.101,2.774 6.791,0.877 5.689,-1.205 -6.791,-0.877 z m -7.41,1.57 6.792,0.877 5.689,-1.205 -6.792,-0.878 z m 18.386,2.375 5.691,-1.205 -6.791,-0.877 -5.69,1.204 z M -2.125,6.719 3.565,5.515 -3.227,4.637 -8.916,5.842 Z M 9.471,8.217 15.161,7.012 8.37,6.135 2.681,7.34 Z m -10.093,-5.77 -6.79,-0.877 -5.69,1.205 6.791,0.877 z M 10.975,3.945 4.184,3.068 -1.506,4.272 5.285,5.15 Z M 16.146,2.086 11.596,1.499 5.906,2.703 12.697,3.581 16.073,2.865 15.912,4.583 15.78,4.566 10.09,5.771 15.733,6.5 15.54,8.57 14.276,8.838 15.5,8.996 15.408,9.977 -39.447,2.891 -12.403,-2.837 16.261,0.866 Z" /></g><g
           transform="translate(483.0459,172.5674)"
           id="g14462"><path
             id="path14464"
             style="fill:#a8a9ad;fill-opacity:1;fill-rule:nonzero;stroke:none"
             d="M 0,0 V -4.364 L 27.209,-0.85 26.806,3.463 Z" /></g><g
           transform="translate(581.1074,191.3184)"
           id="g14466"><path
             id="path14468"
             style="fill:#e7e7e8;fill-opacity:1;fill-rule:nonzero;stroke:none"
             d="m 0,0 -6.791,-0.877 -5.69,1.205 6.791,0.877 z m -14.822,3.139 -0.71,-0.092 0.055,-0.579 2.374,0.306 5.691,-1.205 -6.792,-0.877 -1.123,0.239 0.161,-1.673 3.569,-0.756 -3.452,-0.445 0.117,-1.22 23.396,3.022 -18.443,3.906 -0.039,-0.006 -5.689,1.205 0.065,-0.001 -0.077,0.016 0.162,-1.685 z" /></g><g
           transform="translate(567.0566,179.0547)"
           id="g14470"><path
             id="path14472"
             style="fill:#a8a9ad;fill-opacity:1;fill-rule:nonzero;stroke:none"
             d="M 0,0 34.431,4.448 V 8.813 L -0.417,4.312 Z" /></g><g
           transform="translate(478.2373,168.9072)"
           id="g14474"><path
             id="path14476"
             style="fill:#d2d3d4;fill-opacity:1;fill-rule:nonzero;stroke:none"
             d="M 0,0 V 3.826 L -24.846,9.087 Z" /></g><g
           transform="translate(508.3037,186.9668)"
           id="g14478"><path
             id="path14480"
             style="fill:#000000;fill-opacity:1;fill-rule:nonzero;stroke:none"
             d="m 0,0 -5.69,1.205 -6.79,-0.877 5.689,-1.205 z" /></g><g
           transform="translate(491.6367,184.2275)"
           id="g14482"><path
             id="path14484"
             style="fill:#000000;fill-opacity:1;fill-rule:nonzero;stroke:none"
             d="M 0,0 5.689,-1.204 12.48,-0.327 6.791,0.878 Z" /></g><g
           transform="translate(480.041,182.7305)"
           id="g14486"><path
             id="path14488"
             style="fill:#000000;fill-opacity:1;fill-rule:nonzero;stroke:none"
             d="m 0,0 5.689,-1.205 6.79,0.877 -5.688,1.205 z" /></g><g
           transform="translate(496.708,185.4697)"
           id="g14490"><path
             id="path14492"
             style="fill:#000000;fill-opacity:1;fill-rule:nonzero;stroke:none"
             d="m 0,0 -5.69,1.204 -6.791,-0.877 5.689,-1.205 z" /></g><g
           transform="translate(487.4531,181.1602)"
           id="g14494"><path
             id="path14496"
             style="fill:#000000;fill-opacity:1;fill-rule:nonzero;stroke:none"
             d="M 0,0 5.689,-1.205 12.48,-0.327 6.79,0.877 Z" /></g><g
           transform="translate(574.3164,190.4414)"
           id="g14498"><path
             id="path14500"
             style="fill:#000000;fill-opacity:1;fill-rule:nonzero;stroke:none"
             d="M 0,0 6.791,0.877 1.101,2.082 -5.69,1.205 Z" /></g><g
           transform="translate(485.1113,183.9717)"
           id="g14502"><path
             id="path14504"
             style="fill:#000000;fill-opacity:1;fill-rule:nonzero;stroke:none"
             d="m 0,0 -5.69,1.205 -6.79,-0.878 5.689,-1.204 z" /></g><g
           transform="translate(467.8262,183.6787)"
           id="g14506"><path
             id="path14508"
             style="fill:#000000;fill-opacity:1;fill-rule:nonzero;stroke:none"
             d="m 0,0 -6.792,-0.877 5.689,-1.206 6.792,0.878 z" /></g><g
           transform="translate(475.8564,179.6621)"
           id="g14510"><path
             id="path14512"
             style="fill:#000000;fill-opacity:1;fill-rule:nonzero;stroke:none"
             d="m 0,0 5.689,-1.204 6.792,0.877 -5.69,1.205 z" /></g><g
           transform="translate(475.2354,182.1094)"
           id="g14514"><path
             id="path14516"
             style="fill:#000000;fill-opacity:1;fill-rule:nonzero;stroke:none"
             d="m 0,0 -6.791,-0.877 5.689,-1.205 6.791,0.877 z" /></g><g
           transform="translate(638.3301,383.8828)"
           id="g14518"><path
             id="path14520"
             style="fill:#e7e7e8;fill-opacity:1;fill-rule:nonzero;stroke:none"
             d="m 0,0 -7.646,3.059 -215.98,-16.887 7.647,-3.059 z" /></g><g
           transform="translate(406.1484,368.2979)"
           id="g14522"><path
             id="path14524"
             style="fill:#d2d3d4;fill-opacity:1;fill-rule:nonzero;stroke:none"
             d="m 0,0 -27.601,-173.917 13.155,-5.263 27.601,173.918 z" /></g><g
           transform="translate(424.0566,362.3062)"
           id="g14526"><path
             id="path14528"
             style="fill:#a8a9ad;fill-opacity:1;fill-rule:nonzero;stroke:none"
             d="m 0,0 -27.678,-174.402 0.983,0.757 110.02,13.763 -8.852,94.617 56.513,6.197 9.067,-93.718 54.233,6.785 27.563,163.347 z" /></g><g
           transform="translate(618.3428,216.3047)"
           id="g14530"><path
             id="path14532"
             style="fill:#000000;fill-opacity:1;fill-rule:nonzero;stroke:none"
             d="m 0,0 -54.233,-6.784 -9.067,93.718 -56.513,-6.198 8.852,-94.617 -110.02,-13.763 -0.983,-0.756 27.678,174.401 221.848,17.346 z m -100.909,-69.692 -13.676,146.164 46.968,5.151 13.703,-141.65 z m -30.811,9.154 24.779,3.699 1.151,-12.307 z m -3.577,12.436 v 4.365 l 26.806,3.463 0.403,-4.313 z m -29.35,14.643 54.855,7.086 0.092,-0.981 -1.224,-0.158 1.264,-0.267 0.193,-2.071 -5.643,-0.728 5.69,-1.205 0.132,0.016 0.161,-1.717 -3.376,0.715 -6.791,-0.877 5.69,-1.205 4.549,0.587 0.116,-1.219 -28.665,-3.704 z m 24.542,-13.938 -24.846,9.086 24.846,-5.26 z m -86.536,20.21 -13.154,5.263 27.601,173.917 13.155,-5.262 z m 238.982,197.824 7.646,-3.059 -215.979,-16.887 -7.647,3.059 z m -65.218,-190.66 -0.065,0.001 5.689,-1.206 0.038,0.006 18.444,-3.905 -23.396,-3.022 -0.117,1.219 3.452,0.446 -3.569,0.755 -0.162,1.673 1.124,-0.238 6.792,0.877 -5.691,1.205 -2.374,-0.307 -0.056,0.58 0.71,0.091 -0.734,0.156 -0.162,1.685 z m 36.022,-12.779 -34.431,-4.448 -0.417,4.312 34.848,4.501 z m 29.939,208.321 -229.259,-17.926 -16.014,-100.912 -0.856,-5.388 v -10e-4 l -3.295,-20.76 c 0,0.002 -0.001,0.003 -0.001,0.005 l -2.317,-14.591 c 0,-0.005 10e-4,-0.008 0.002,-0.014 l -3.913,-24.656 c -0.003,-10e-4 -0.005,-0.003 -0.007,-0.004 l -0.759,-4.778 c 0.002,10e-4 0.005,0.002 0.007,0.002 l -0.948,-5.975 c -0.003,-0.005 -0.007,-0.011 -0.011,-0.017 l -0.875,-5.511 2.546,-1.012 c 0.008,0.012 0.016,0.023 0.024,0.035 l 6.953,-2.782 c -0.011,-0.004 -0.024,-0.007 -0.035,-0.011 l 6.421,-2.553 c 0.004,10e-4 0.008,0.003 0.012,0.005 l 4.186,-1.674 114.542,14.328 0.273,-2.912 -71.132,-9.188 v -6.655 l 43.396,-15.87 30.336,3.918 0.249,-2.665 -44.96,-6.713 49.151,-16.316 54.488,11.205 -2.111,21.828 38.776,5.01 v 13.275 l -41.392,8.765 -0.332,3.417 56.142,7.023 1.775,0.222 28.994,171.824 z" /></g><g
           transform="translate(486.623,155.7666)"
           id="g14534"><path
             id="path14536"
             style="fill:#a8a9ad;fill-opacity:1;fill-rule:nonzero;stroke:none"
             d="M 0,0 25.93,-8.607 24.778,3.699 Z" /></g><g
           transform="translate(503.7578,292.7764)"
           id="g14538"><path
             id="path14540"
             style="fill:#d2d3d4;fill-opacity:1;fill-rule:nonzero;stroke:none"
             d="m 0,0 13.676,-146.164 46.995,9.665 -13.703,141.65 z" /></g><g
           transform="translate(424.1104,161.3818)"
           id="g14542"><path
             id="path14544"
             style="fill:#d2d3d4;fill-opacity:1;fill-rule:nonzero;stroke:none"
             d="M 0,0 C 0,1.913 -3.779,5.081 -9.636,6.748 -13.118,3.536 -13.2,-1.243 -12.923,-3.878 -3.601,-3.361 0,-1.341 0,0" /></g><g
           transform="translate(388.8057,161.3818)"
           id="g14546"><path
             id="path14548"
             style="fill:#d2d3d4;fill-opacity:1;fill-rule:nonzero;stroke:none"
             d="m 0,0 c 0,-1.545 4.775,-3.993 17.578,-4.003 -0.099,1.174 -0.135,2.608 0.026,4.161 0.3,2.903 1.192,5.452 2.624,7.582 C 19.391,7.812 18.533,7.853 17.653,7.853 7.455,7.853 0,2.688 0,0" /></g><g
           transform="translate(406.4102,161.54)"
           id="g14550"><path
             id="path14552"
             style="fill:#000000;fill-opacity:1;fill-rule:nonzero;stroke:none"
             d="m 0,0 c -0.161,-1.553 -0.126,-2.987 -0.026,-4.161 -12.803,0.01 -17.578,2.458 -17.578,4.003 0,2.687 7.455,7.852 17.653,7.852 0.88,0 1.737,-0.04 2.574,-0.112 C 1.191,5.452 0.3,2.902 0,0 M 8.064,6.59 C 13.921,4.923 17.7,1.755 17.7,-0.158 17.7,-1.499 14.1,-3.52 4.777,-4.036 4.5,-1.401 4.582,3.378 8.064,6.59 M -21.31,3.529 c -0.711,-1.182 -1.103,-2.424 -1.103,-3.687 0,-4.204 4.146,-6.26 7.624,-7.243 3.681,-1.041 8.673,-1.569 14.838,-1.569 6.164,0 11.156,0.528 14.836,1.569 3.478,0.983 7.625,3.039 7.625,7.243 0,5.128 -6.413,9.899 -14.761,11.796 0,0 -15.682,4.692 -29.059,-8.109" /></g></g></g></g></svg>
