<?xml version="1.0" encoding="UTF-8" standalone="no"?>
<svg
   xmlns:dc="http://purl.org/dc/elements/1.1/"
   xmlns:cc="http://creativecommons.org/ns#"
   xmlns:rdf="http://www.w3.org/1999/02/22-rdf-syntax-ns#"
   xmlns:svg="http://www.w3.org/2000/svg"
   xmlns="http://www.w3.org/2000/svg"
   viewBox="0 0 518.30786 583.61615"
   height="583.61615"
   width="518.30786"
   xml:space="preserve"
   id="svg4811"
   version="1.1"><metadata
     id="metadata4817"><rdf:RDF><cc:Work
         rdf:about=""><dc:format>image/svg+xml</dc:format><dc:type
           rdf:resource="http://purl.org/dc/dcmitype/StillImage" /><dc:title></dc:title></cc:Work></rdf:RDF></metadata><defs
     id="defs4815"><clipPath
       id="clipPath4827"
       clipPathUnits="userSpaceOnUse"><path
         id="path4825"
         d="M 0,612 H 2130 V 0 H 0 Z" /></clipPath></defs><g
     transform="matrix(1.3333333,0,0,-1.3333333,-2109.9127,686.04292)"
     id="g4819"><g
       id="g4821"><g
         clip-path="url(#clipPath4827)"
         id="g4823"><g
           transform="translate(1829.1699,450.7021)"
           id="g4829"><path
             id="path4831"
             style="fill:#652f8f;fill-opacity:1;fill-rule:nonzero;stroke:none"
             d="m 0,0 -7.354,1.672 -3.678,0.836 -3.669,0.866 -7.337,1.738 c -2.447,0.575 -4.891,1.163 -7.33,1.765 l -7.32,1.802 -7.931,1.953 7.989,1.936 6.036,1.462 4.405,1.047 c 0.018,0.471 0.059,1.004 0.1,1.49 0.125,1.065 0.277,2.129 0.53,3.173 0.474,2.096 1.222,4.127 2.208,6.035 0.979,1.913 2.223,3.683 3.644,5.288 1.419,1.61 3.054,3.024 4.826,4.228 1.779,1.196 3.71,2.164 5.722,2.896 2.019,0.717 4.129,1.167 6.254,1.37 1.067,0.079 2.121,0.129 3.202,0.083 l 0.74,-0.029 0.826,-0.07 c 0.562,-0.04 1.072,-0.132 1.603,-0.204 2.102,-0.333 4.154,-0.951 6.103,-1.785 1.945,-0.851 3.762,-1.964 5.43,-3.251 1.65,-1.311 3.152,-2.803 4.435,-4.461 0.18,-0.235 0.355,-0.471 0.527,-0.71 0.171,0.035 0.35,0.098 0.56,0.154 0.107,0.031 0.221,0.065 0.337,0.098 0.116,0.04 0.229,0.09 0.351,0.139 0.239,0.098 0.511,0.192 0.763,0.335 0.258,0.135 0.543,0.269 0.801,0.447 0.272,0.166 0.548,0.344 0.806,0.551 0.273,0.194 0.524,0.415 0.775,0.638 0.26,0.218 0.48,0.464 0.717,0.694 0.215,0.242 0.439,0.476 0.626,0.715 0.193,0.236 0.373,0.466 0.527,0.687 0.637,0.878 0.954,1.556 0.954,1.556 0,0 0.061,-0.745 -0.066,-1.886 C 27.085,32.97 27.04,32.662 26.983,32.332 26.935,32.001 26.85,31.659 26.771,31.295 26.67,30.942 26.585,30.561 26.45,30.19 26.324,29.814 26.19,29.429 26.021,29.055 25.866,28.671 25.681,28.3 25.483,27.936 25.3,27.56 25.071,27.219 24.854,26.877 c -0.208,-0.35 -0.456,-0.653 -0.686,-0.954 -0.116,-0.15 -0.228,-0.299 -0.344,-0.437 -0.12,-0.132 -0.238,-0.259 -0.35,-0.382 -0.231,-0.242 -0.439,-0.478 -0.641,-0.665 -0.061,-0.053 -0.113,-0.1 -0.17,-0.151 0.776,-1.87 1.345,-3.822 1.639,-5.811 0.314,-2.034 0.375,-4.136 0.153,-6.131 C 24.239,10.27 23.78,8.299 23.089,6.385 22.364,4.49 21.415,2.697 20.275,1.053 19.24,-0.399 18.046,-1.722 16.733,-2.894 c 1.81,-0.58 3.618,-1.169 5.422,-1.77 -2.471,0.479 -4.941,0.968 -7.402,1.487 l -3.694,0.772 C 9.825,-2.153 8.6,-1.878 7.37,-1.612 Z m 49.532,-30.463 c -1.178,0.171 -2.316,0.346 -3.383,0.567 -0.535,0.106 -1.054,0.21 -1.555,0.311 -0.499,0.118 -0.98,0.232 -1.443,0.343 -0.924,0.209 -1.763,0.446 -2.505,0.656 -0.745,0.2 -1.385,0.399 -1.911,0.569 -1.054,0.335 -1.651,0.545 -1.651,0.545 h 10e-4 c -0.816,0.212 -1.639,0.425 -2.465,0.64 -0.815,0.247 -1.635,0.495 -2.453,0.742 -0.82,0.236 -1.627,0.522 -2.429,0.807 -0.8,0.293 -1.606,0.54 -2.383,0.866 -0.777,0.313 -1.549,0.624 -2.311,0.932 -0.76,0.31 -1.49,0.672 -2.217,0.996 -0.361,0.166 -0.721,0.33 -1.076,0.493 -0.352,0.17 -0.693,0.356 -1.034,0.53 -0.679,0.353 -1.343,0.697 -1.989,1.033 -0.629,0.37 -1.241,0.727 -1.832,1.074 -0.294,0.173 -0.584,0.343 -0.869,0.51 -0.282,0.171 -0.547,0.36 -0.812,0.533 -1.056,0.705 -2.032,1.324 -2.837,1.967 -0.815,0.627 -1.547,1.134 -2.09,1.635 -1.109,0.958 -1.744,1.505 -1.744,1.505 0,0 0.697,-0.46 1.92,-1.265 0.594,-0.421 1.387,-0.829 2.262,-1.338 0.864,-0.526 1.904,-1.008 3.017,-1.559 0.279,-0.135 0.559,-0.283 0.856,-0.413 0.297,-0.127 0.6,-0.256 0.909,-0.387 0.614,-0.261 1.251,-0.53 1.903,-0.808 0.668,-0.243 1.353,-0.492 2.053,-0.747 0.351,-0.125 0.7,-0.26 1.06,-0.379 0.364,-0.113 0.73,-0.226 1.1,-0.34 0.74,-0.222 1.48,-0.476 2.248,-0.679 0.769,-0.199 1.545,-0.4 2.328,-0.604 0.779,-0.214 1.587,-0.349 2.383,-0.529 0.798,-0.173 1.598,-0.346 2.41,-0.467 0.807,-0.134 1.614,-0.267 2.418,-0.401 0.809,-0.101 1.613,-0.201 2.411,-0.301 0.795,-0.113 1.592,-0.167 2.376,-0.233 0.785,-0.057 1.555,-0.149 2.319,-0.175 1.527,-0.06 2.995,-0.151 4.392,-0.128 h 2.028 c 0.654,0.025 1.287,0.05 1.893,0.073 0.603,0.031 1.192,0.032 1.729,0.082 0.538,0.044 1.047,0.086 1.528,0.125 0.478,0.038 0.925,0.075 1.338,0.108 0.437,0.052 0.839,0.099 1.201,0.142 1.217,0.148 1.988,0.242 2.211,0.268 v 0.004 c 17.474,1.35 30.289,8.198 35.501,18.875 H 76.294 c -0.887,-1.837 -2.762,-3.106 -4.938,-3.106 -3.03,0 -5.488,2.457 -5.488,5.489 0,3.03 2.458,5.487 5.488,5.487 2.176,0 4.051,-1.27 4.938,-3.105 h 19.93 c 1.564,4.775 1.716,8.282 0.441,10.444 -2.283,3.872 -10.058,4.786 -18.288,5.753 -5.841,0.685 -11.88,1.395 -17.592,3.199 -13.437,4.244 -19,10.66 -24.379,16.865 -5.026,5.798 -10.223,11.792 -22.707,17.035 -8.122,3.412 -21.012,4.068 -33.642,1.71 -14.189,-2.647 -26.265,-8.514 -34.003,-16.519 -11.168,-11.551 -16.607,-23.892 -17.635,-40.014 -0.924,-14.513 1.694,-32.667 8.756,-60.702 4.375,-17.372 12.643,-39.101 21.396,-62.105 27.017,-71.007 60.464,-158.92 15.912,-207.115 3.276,-0.906 6.59,-1.801 9.946,-2.682 10.834,-2.849 22.105,-5.573 33.787,-8.168 0.074,2.965 2.496,5.347 5.479,5.347 1.122,0 2.165,-0.339 3.035,-0.917 5.865,7.939 9.905,17.335 12.512,27.467 -2.669,0.372 -4.725,2.657 -4.725,5.429 0,3.03 2.457,5.487 5.488,5.487 0.5,0 0.981,-0.072 1.441,-0.197 1.378,8.72 1.875,17.767 1.709,26.738 -0.231,-0.029 -0.465,-0.05 -0.703,-0.05 -3.03,0 -5.487,2.457 -5.487,5.489 0,3.03 2.457,5.487 5.487,5.487 0.062,0 0.121,-0.007 0.183,-0.009 -0.704,9.31 -2.038,18.345 -3.743,26.63 -0.379,-0.083 -0.774,-0.13 -1.178,-0.13 -3.031,0 -5.488,2.457 -5.488,5.488 0,2.588 1.793,4.752 4.204,5.331 -2.29,9.259 -4.818,18.198 -7.451,26.756 -0.349,-0.07 -0.712,-0.108 -1.083,-0.108 -3.031,0 -5.488,2.457 -5.488,5.488 0,2.24 1.345,4.163 3.269,5.016 -3.164,9.669 -6.396,18.781 -9.479,27.248 -0.547,-0.183 -1.129,-0.285 -1.737,-0.285 -3.031,0 -5.488,2.457 -5.488,5.488 0,2.308 1.426,4.279 3.445,5.09 -3.783,10.244 -7.165,19.339 -9.677,27.087 -0.462,-0.125 -0.944,-0.198 -1.445,-0.198 -3.031,0 -5.488,2.457 -5.488,5.488 0,2.473 1.638,4.563 3.888,5.249 -1.437,5.975 -1.902,10.678 -1.002,13.934 4.399,15.902 14.77,-0.843 19.516,-9.096 1.248,-2.171 2.475,-4.326 3.691,-6.473 0.065,0.007 0.127,0.015 0.19,0.022 -4.587,9.997 -9.123,20.223 -13.499,30.753 -5.472,13.169 -6.542,23.861 -3.179,31.78 2.402,5.653 6.965,9.831 13.563,12.416 5.963,2.338 12.27,2.985 18.369,3.611 7.41,0.761 13.08,1.506 17.123,4.049 -0.428,0.018 -0.854,0.043 -1.278,0.075 -1.252,0.063 -2.474,0.24 -3.658,0.376" /></g><g
           transform="translate(1776.5127,127.8252)"
           id="g4833"><path
             id="path4835"
             style="fill:#652f8f;fill-opacity:1;fill-rule:nonzero;stroke:none"
             d="m 0,0 c 9.9,-0.551 20.154,0.507 25.988,1.29 7.348,9.56 11.834,20.664 14.101,32.86 -18.196,-2.008 -34.798,-3.006 -50.181,-3.006 -7.334,0 -14.389,0.227 -21.212,0.678 -25.581,1.695 -48.035,6.489 -68.51,14.625 12.105,-8.751 26.892,-17.173 44.166,-25.136 C -39.219,13.735 -20.592,6.606 0,0" /></g><g
           transform="translate(1909.2861,241.7217)"
           id="g4837"><path
             id="path4839"
             style="fill:#652f8f;fill-opacity:1;fill-rule:nonzero;stroke:none"
             d="m 0,0 c -0.843,0.965 -1.357,2.224 -1.357,3.605 0,2.373 1.507,4.388 3.615,5.154 -2.336,4.184 -7.086,8.457 -16.676,9.711 3.199,-7.364 6.195,-14.635 8.914,-21.818 C -3.803,-2.522 -1.838,-1.411 0,0" /></g><g
           transform="translate(1696.6953,262.084)"
           id="g4841"><path
             id="path4843"
             style="fill:#652f8f;fill-opacity:1;fill-rule:nonzero;stroke:none"
             d="m 0,0 c 1.007,1.229 2.534,2.013 4.246,2.013 3.03,0 5.488,-2.457 5.488,-5.489 0,-1.195 -0.386,-2.297 -1.036,-3.199 5.576,-3.58 12.898,-7.221 22.481,-10.449 0.646,2.311 2.763,4.009 5.279,4.009 3.031,0 5.488,-2.457 5.488,-5.489 0,-0.568 -0.087,-1.117 -0.246,-1.632 7.904,-2.047 17.028,-3.805 27.557,-5.107 0.043,2.994 2.48,5.409 5.484,5.409 3.03,0 5.487,-2.458 5.487,-5.488 0,-0.36 -0.038,-0.712 -0.103,-1.054 7.485,-0.64 15.595,-1.063 24.377,-1.221 0.019,3.014 2.468,5.453 5.485,5.453 1.426,0 2.72,-0.548 3.696,-1.439 -1.891,7.385 -4.039,14.831 -6.364,22.28 C 88.212,-0.393 76.187,4.885 64.536,10.002 54.905,14.232 44.948,18.605 30.724,20.567 22.077,21.759 13.081,20.533 5.387,17.114 0.431,14.912 -3.757,11.873 -6.902,8.269 -5.646,6.176 -3.512,3.268 0,0" /></g><g
           transform="translate(1918.8555,173.7441)"
           id="g4845"><path
             id="path4847"
             style="fill:#652f8f;fill-opacity:1;fill-rule:nonzero;stroke:none"
             d="m 0,0 -0.079,0.484 c 0.646,-14.087 -0.904,-27.286 -4.684,-39.971 2.594,0.055 6.397,0.294 10.804,1.057 -0.146,0.494 -0.229,1.017 -0.229,1.56 0,3.03 2.458,5.488 5.489,5.488 2.629,0 4.823,-1.85 5.359,-4.317 6.708,2.347 13.685,6.124 19.432,12.17 -0.973,0.99 -1.574,2.345 -1.574,3.842 0,2.544 1.733,4.678 4.082,5.3 C 36.432,-2.563 29.983,7.799 22.536,12.009 17.761,5.768 10.003,1.621 0,0" /></g><g
           transform="translate(1909.4932,222.0537)"
           id="g4849"><path
             id="path4851"
             style="fill:#652f8f;fill-opacity:1;fill-rule:nonzero;stroke:none"
             d="m 0,0 c 1.637,-5.135 3.094,-10.224 4.34,-15.267 0.639,-2.587 1.211,-5.138 1.73,-7.663 3.019,0.677 5.717,1.62 8.119,2.74 -0.48,0.816 -0.759,1.762 -0.759,2.777 0,3.031 2.457,5.488 5.486,5.488 1.793,0 3.381,-0.863 4.382,-2.193 2.314,2.12 4.095,4.313 5.438,6.29 C 24.473,4.882 12.881,7.949 8.768,8.646 6.768,4.514 3.682,1.338 0,0" /></g><g
           transform="translate(1646.7607,223.9687)"
           id="g4853"><path
             id="path4855"
             style="fill:#652f8f;fill-opacity:1;fill-rule:nonzero;stroke:none"
             d="m 0,0 c 0.948,0.784 2.165,1.255 3.492,1.255 3.031,0 5.488,-2.457 5.488,-5.488 0,-1.544 -0.64,-2.936 -1.666,-3.933 4.139,-3.699 9.605,-7.465 16.824,-10.991 0.924,1.723 2.744,2.896 4.837,2.896 3.03,0 5.486,-2.457 5.486,-5.488 0,-0.594 -0.096,-1.163 -0.271,-1.699 6.914,-2.578 15.031,-4.925 24.554,-6.892 0.446,2.582 2.693,4.548 5.401,4.548 3.031,0 5.488,-2.457 5.488,-5.488 0,-0.349 -0.036,-0.69 -0.098,-1.021 8.442,-1.337 17.837,-2.394 28.283,-3.097 0.22,2.829 2.58,5.058 5.466,5.058 3.031,0 5.488,-2.458 5.488,-5.488 0,-0.054 -0.006,-0.105 -0.008,-0.158 9.068,-0.368 18.853,-0.485 29.416,-0.309 -0.014,0.154 -0.024,0.309 -0.024,0.467 0,3.03 2.457,5.488 5.488,5.488 3.031,0 5.488,-2.458 5.488,-5.488 0,-0.063 -0.007,-0.124 -0.009,-0.186 7.145,0.243 14.619,0.616 22.439,1.125 -0.299,7.664 -1.167,15.576 -2.488,23.652 -5.17,-0.517 -15.717,-1.365 -29.215,-1.365 -0.624,0 -1.252,0.002 -1.887,0.006 -18.483,0.109 -45.679,1.959 -70.283,10.16 C 48.97,3.805 36.672,12.612 32.127,23.037 31.484,24.512 31.005,26.014 30.676,27.533 13.146,27.829 0.104,21.095 -4.653,9.477 -3.894,6.9 -2.51,3.619 0,0" /></g><g
           transform="translate(1717.9619,142.8418)"
           id="g4857"><path
             id="path4859"
             style="fill:#652f8f;fill-opacity:1;fill-rule:nonzero;stroke:none"
             d="m 0,0 c -42.98,19.816 -64.896,39.493 -75.799,55.805 -0.539,0.727 -1.06,1.463 -1.555,2.209 -2.494,3.749 -4.365,7.652 -5.596,11.595 -0.287,0.778 -0.551,1.541 -0.79,2.291 -1.012,0.106 -2.063,0.159 -3.143,0.159 -10.329,0 -24.494,-5.135 -33.373,-16.305 1.709,-0.93 2.869,-2.741 2.869,-4.824 0,-2.185 -1.279,-4.065 -3.127,-4.949 1.938,-4.928 5.006,-10.644 9.517,-16.817 0.862,0.564 1.89,0.895 2.997,0.895 3.031,0 5.488,-2.458 5.488,-5.489 0,-1.509 -0.61,-2.876 -1.595,-3.867 4.472,-4.974 9.876,-10.126 16.337,-15.307 1.003,1.087 2.435,1.773 4.031,1.773 3.031,0 5.488,-2.458 5.488,-5.488 0,-1.036 -0.292,-2.001 -0.791,-2.828 6.226,-4.37 13.25,-8.714 21.157,-12.946 0.963,1.579 2.697,2.638 4.682,2.638 3.031,0 5.488,-2.458 5.488,-5.488 0,-0.741 -0.148,-1.447 -0.414,-2.09 7.174,-3.44 14.981,-6.776 23.473,-9.957 0.844,1.947 2.78,3.309 5.036,3.309 3.031,0 5.488,-2.457 5.488,-5.488 0,-0.517 -0.077,-1.016 -0.211,-1.49 8.066,-2.724 16.689,-5.309 25.907,-7.718 0.866,1.896 2.772,3.216 4.991,3.216 3.031,0 5.488,-2.457 5.488,-5.488 0,-0.11 -0.01,-0.216 -0.017,-0.325 8.613,-2.026 17.707,-3.903 27.308,-5.602 0.555,2.442 2.736,4.266 5.346,4.266 3.031,0 5.488,-2.457 5.488,-5.488 0,-0.197 -0.012,-0.391 -0.032,-0.583 9.793,-1.537 20.085,-2.894 30.892,-4.048 0.285,2.764 2.62,4.921 5.459,4.921 3.031,0 5.489,-2.458 5.489,-5.488 0,-0.174 -0.011,-0.346 -0.027,-0.515 11.949,-1.089 24.508,-1.93 37.694,-2.503 23.405,1.006 43.99,2.55 59.211,3.903 -38.217,6.073 -73.432,13.322 -104.98,21.616 C 57.746,-22.996 26.162,-12.063 0,0" /></g><g
           transform="translate(1945.0889,84.6484)"
           id="g4861"><path
             id="path4863"
             style="fill:#652f8f;fill-opacity:1;fill-rule:nonzero;stroke:none"
             d="m 0,0 c -0.629,-0.078 -63.702,-7.828 -135.789,-7.828 -52.305,0 -96.388,3.988 -131.023,11.855 -45.247,10.276 -74.272,27.281 -86.27,50.54 -14.759,28.615 -9.74,47.941 -2.932,59.115 9.895,16.235 28.225,23.502 42.004,23.502 0.755,0 1.496,-0.03 2.231,-0.073 -0.163,3.118 0.088,6.205 0.77,9.202 1.932,8.499 7.063,15.578 14.837,20.474 7.477,4.707 17.143,7.1 28.096,6.999 0.25,2.77 0.992,5.551 2.237,8.29 7.329,16.122 27.988,25.708 49.116,22.794 15.18,-2.094 25.588,-6.665 35.653,-11.086 10.989,-4.826 21.443,-9.414 37.732,-10.661 -6.299,19.317 -13.608,38.527 -20.488,56.611 -8.827,23.2 -17.164,45.113 -21.641,62.878 -12.754,50.64 -14.614,81.127 10.617,107.227 8.731,9.03 22.125,15.606 37.716,18.515 14.101,2.631 28.155,1.833 37.599,-2.132 13.976,-5.87 19.971,-12.785 25.26,-18.886 0.099,-0.115 0.199,-0.23 0.297,-0.344 0.112,0.061 0.222,0.122 0.33,0.195 0.27,0.167 0.545,0.345 0.804,0.551 0.274,0.195 0.525,0.415 0.776,0.639 0.259,0.217 0.478,0.464 0.716,0.693 0.215,0.242 0.439,0.477 0.626,0.715 0.193,0.236 0.372,0.467 0.528,0.688 0.635,0.877 0.952,1.555 0.952,1.555 0,0 0.062,-0.744 -0.065,-1.885 -0.027,-0.289 -0.072,-0.596 -0.127,-0.926 -0.051,-0.331 -0.136,-0.673 -0.213,-1.037 -0.102,-0.353 -0.187,-0.735 -0.322,-1.105 -0.127,-0.376 -0.259,-0.762 -0.43,-1.136 -0.154,-0.383 -0.339,-0.754 -0.536,-1.12 -0.131,-0.266 -0.285,-0.514 -0.44,-0.759 4.218,-4.588 8.935,-8.552 18.332,-11.52 5.087,-1.606 10.793,-2.276 16.313,-2.925 9.988,-1.174 19.422,-2.282 23.451,-9.116 2.787,-4.726 2.402,-11.039 -1.209,-19.869 -4.06,-9.923 -12.91,-17.315 -25.153,-21.373 0.295,0.062 0.456,0.094 0.456,0.094 0,0 -0.573,-0.265 -1.593,-0.697 -0.255,-0.108 -0.539,-0.227 -0.847,-0.357 -0.309,-0.13 -0.652,-0.238 -1.015,-0.372 -0.728,-0.253 -1.544,-0.577 -2.461,-0.822 l -0.041,-0.012 c 0.772,-0.428 1.531,-0.914 2.258,-1.472 0.464,-0.329 0.887,-0.713 1.329,-1.083 0.413,-0.397 0.842,-0.791 1.229,-1.223 0.408,-0.417 0.771,-0.868 1.151,-1.314 0.355,-0.459 0.712,-0.926 1.033,-1.41 1.333,-1.919 2.366,-4.014 3.239,-6.109 0.441,-1.05 0.815,-2.104 1.186,-3.16 0.186,-0.536 0.362,-1.052 0.523,-1.559 0.114,-0.365 0.221,-0.722 0.329,-1.081 10e-4,-0.002 0.002,-0.006 0.003,-0.008 0.292,-0.912 0.583,-1.817 0.87,-2.71 0.139,-0.447 0.29,-0.875 0.435,-1.307 0.147,-0.429 0.279,-0.864 0.432,-1.275 0.576,-1.685 1.219,-3.233 1.91,-4.655 0.177,-0.353 0.352,-0.701 0.526,-1.043 0.194,-0.328 0.384,-0.651 0.574,-0.967 0.093,-0.16 0.185,-0.32 0.277,-0.478 0.104,-0.147 0.207,-0.294 0.31,-0.438 0.204,-0.294 0.405,-0.581 0.601,-0.864 0.209,-0.271 0.432,-0.522 0.642,-0.778 0.219,-0.246 0.404,-0.521 0.635,-0.735 0.453,-0.437 0.858,-0.898 1.296,-1.265 0.444,-0.37 0.86,-0.717 1.245,-1.037 0.412,-0.287 0.79,-0.55 1.132,-0.788 0.174,-0.12 0.335,-0.244 0.499,-0.344 0.169,-0.097 0.326,-0.189 0.473,-0.273 0.292,-0.171 0.541,-0.316 0.743,-0.434 0.403,-0.242 0.617,-0.371 0.617,-0.371 0,0 -0.247,0.04 -0.71,0.116 -0.231,0.041 -0.514,0.092 -0.848,0.153 -0.167,0.03 -0.346,0.062 -0.537,0.096 -0.19,0.044 -0.389,0.116 -0.603,0.178 -0.428,0.129 -0.903,0.285 -1.428,0.459 -0.502,0.205 -1.028,0.463 -1.608,0.727 -0.298,0.121 -0.566,0.305 -0.856,0.479 -0.289,0.178 -0.587,0.361 -0.893,0.55 -0.318,0.177 -0.584,0.431 -0.889,0.656 -0.186,0.149 -0.38,0.299 -0.573,0.453 0.138,-0.389 0.28,-0.769 0.427,-1.137 0.562,-1.453 1.202,-2.721 1.855,-3.809 0.655,-1.084 1.326,-1.985 1.944,-2.682 0.149,-0.18 0.304,-0.337 0.448,-0.487 0.146,-0.147 0.273,-0.303 0.404,-0.428 0.262,-0.251 0.479,-0.478 0.676,-0.645 0.386,-0.345 0.592,-0.527 0.592,-0.527 0,0 -0.257,0.1 -0.738,0.29 -0.469,0.21 -1.184,0.528 -2.006,1.067 -0.83,0.529 -1.809,1.259 -2.785,2.258 -0.978,0.994 -1.973,2.237 -2.879,3.692 -0.459,0.727 -0.88,1.508 -1.307,2.321 -0.412,0.82 -0.802,1.678 -1.185,2.564 -0.373,0.889 -0.725,1.808 -1.074,2.746 -0.345,0.937 -0.665,1.899 -0.993,2.87 -0.625,1.917 -1.27,3.898 -1.926,5.91 -0.166,0.493 -0.338,0.986 -0.512,1.472 -0.08,0.227 -0.161,0.456 -0.242,0.684 -0.451,1.209 -0.9,2.41 -1.381,3.577 -0.699,1.744 -1.495,3.393 -2.374,4.916 -0.235,0.368 -0.442,0.76 -0.693,1.107 -0.244,0.353 -0.488,0.703 -0.729,1.052 -0.535,0.646 -1.045,1.311 -1.635,1.871 -0.543,0.619 -1.204,1.078 -1.793,1.613 -0.319,0.236 -0.65,0.449 -0.971,0.675 -0.16,0.112 -0.321,0.224 -0.48,0.334 -0.164,0.103 -0.336,0.192 -0.503,0.288 -0.337,0.192 -0.671,0.381 -0.998,0.567 -0.325,0.196 -0.687,0.311 -1.018,0.478 -0.218,0.1 -0.428,0.196 -0.641,0.295 -0.091,-0.016 -0.18,-0.029 -0.27,-0.045 -5.808,-9.34 -16.301,-10.424 -26.485,-11.469 -5.636,-0.579 -11.464,-1.177 -16.548,-3.169 -4.865,-1.907 -8.042,-4.744 -9.711,-8.672 -2.608,-6.14 -1.531,-15.026 3.199,-26.411 9.435,-22.702 19.647,-44.067 29.523,-64.729 6.253,-13.082 12.374,-25.891 17.992,-38.438 8.938,-0.428 16.073,-2.998 21.203,-7.652 4.515,-4.095 7.19,-9.563 7.737,-15.812 0.198,-2.253 0.095,-4.478 -0.26,-6.604 2.359,-0.472 5.788,-1.415 9.395,-3.285 6.009,-3.116 13.699,-9.463 16.208,-22.001 1.552,-7.76 1.163,-14.554 -1.14,-20.286 C 15.074,98.48 23.911,73.299 18.346,53.332 15.375,42.674 8.621,34.084 -1.185,28.491 c -9.17,-5.229 -20.886,-7.863 -34.921,-7.863 -2.697,0 -5.484,0.103 -8.351,0.298 -1.656,-2.18 -3.471,-4.243 -5.434,-6.186 C -33.824,11.896 -17.16,9.27 0.051,6.872 L 26.076,3.246 Z" /></g><g
           transform="translate(1776.5127,127.8252)"
           id="g4865"><path
             id="path4867"
             style="fill:#e90e8b;fill-opacity:1;fill-rule:nonzero;stroke:none"
             d="m 0,0 c 6.336,-2.033 12.858,-4.017 19.561,-5.948 2.351,2.299 4.488,4.716 6.427,7.238 C 20.154,0.507 9.9,-0.551 0,0" /></g><g
           transform="translate(1848.4785,293.5059)"
           id="g4869"><path
             id="path4871"
             style="fill:#e90e8b;fill-opacity:1;fill-rule:nonzero;stroke:none"
             d="m 0,0 c -0.655,-1.233 -1.768,-2.185 -3.11,-2.633 3.083,-8.467 6.314,-17.579 9.478,-27.248 0.68,0.301 1.428,0.472 2.219,0.472 2.26,0 4.197,-1.366 5.039,-3.316 5.5,-0.129 14.916,-0.057 24.326,1.385 -4.75,10.711 -9.9,21.634 -15.205,32.76 C 15.649,0.251 8.321,-0.029 2.976,-0.029 1.896,-0.029 0.899,-0.019 0,0" /></g><g
           transform="translate(1835.3018,336.1357)"
           id="g4873"><path
             id="path4875"
             style="fill:#e90e8b;fill-opacity:1;fill-rule:nonzero;stroke:none"
             d="M 0,0 C 4.863,0.18 11.138,0.494 15.77,1.021 14.553,3.168 13.326,5.323 12.078,7.494 7.332,15.747 -3.039,32.492 -7.437,16.591 -8.338,13.334 -7.873,8.632 -6.436,2.656 -5.929,2.81 -5.393,2.895 -4.836,2.895 -2.743,2.895 -0.926,1.723 0,0" /></g><g
           transform="translate(1865.3174,105.0684)"
           id="g4877"><path
             id="path4879"
             style="fill:#e90e8b;fill-opacity:1;fill-rule:nonzero;stroke:none"
             d="m 0,0 c 6.959,-1.419 14.049,-2.794 21.268,-4.124 2.448,2.007 4.679,4.195 6.691,6.549 C 19.527,0.495 11.45,-0.099 4.734,-0.099 3.066,-0.099 1.484,-0.062 0,0" /></g><g
           transform="translate(1876.2129,180.6738)"
           id="g4881"><path
             id="path4883"
             style="fill:#e90e8b;fill-opacity:1;fill-rule:nonzero;stroke:none"
             d="m 0,0 c -0.858,-1.311 -2.261,-2.228 -3.888,-2.437 0.166,-8.97 -0.331,-18.018 -1.709,-26.738 1.799,-0.489 3.233,-1.866 3.791,-3.636 7.429,-0.891 22.288,-1.994 35.987,1.094 1.767,10.443 2.048,21.336 0.853,32.892 C 28.009,-0.305 20.787,-0.776 14.446,-0.776 8.603,-0.776 3.511,-0.377 0,0" /></g><g
           transform="translate(1871.7451,218.6025)"
           id="g4885"><path
             id="path4887"
             style="fill:#e90e8b;fill-opacity:1;fill-rule:nonzero;stroke:none"
             d="m 0,0 c -0.741,-1.416 -2.08,-2.468 -3.684,-2.818 1.705,-8.286 3.039,-17.321 3.744,-26.63 2.34,-0.077 4.308,-1.616 5.018,-3.738 7.135,-0.743 21.059,-1.583 33.86,1.186 -0.814,5.984 -2.005,12.148 -3.581,18.522 C 34.076,-8.286 32.555,-3.031 30.84,2.284 19.323,0.373 8.796,-0.015 2.168,-0.015 1.39,-0.015 0.666,-0.009 0,0" /></g><g
           transform="translate(1831.9111,328.2529)"
           id="g4889"><path
             id="path4891"
             style="fill:#e90e8b;fill-opacity:1;fill-rule:nonzero;stroke:none"
             d="m 0,0 c 2.512,-7.748 5.894,-16.843 9.677,-27.087 0.632,0.254 1.32,0.398 2.043,0.398 2.247,0 4.176,-1.352 5.024,-3.286 4.891,-0.086 12.777,0.013 20.428,1.136 -0.549,1.152 -1.1,2.304 -1.652,3.458 C 30.864,-15.639 26.134,-5.739 21.441,4.388 16.492,3.704 9.133,3.322 3.595,3.118 2.939,1.601 1.618,0.441 0,0" /></g><g
           transform="translate(1861.8984,256.0088)"
           id="g4893"><path
             id="path4895"
             style="fill:#e90e8b;fill-opacity:1;fill-rule:nonzero;stroke:none"
             d="m 0,0 c -0.761,-1.413 -2.126,-2.454 -3.749,-2.779 2.633,-8.559 5.16,-17.497 7.45,-26.757 0.413,0.099 0.841,0.157 1.284,0.157 2.235,0 4.152,-1.337 5.008,-3.252 6.063,-0.067 17.108,0.157 29.177,2.091 C 35.588,-20.041 31.278,-9.308 26.511,1.649 18.286,0.28 10.071,-0.052 4.088,-0.052 2.567,-0.052 1.196,-0.03 0,0" /></g><g
           transform="translate(1873.7178,143.1299)"
           id="g4897"><path
             id="path4899"
             style="fill:#e90e8b;fill-opacity:1;fill-rule:nonzero;stroke:none"
             d="m 0,0 c -0.987,-1.454 -2.653,-2.409 -4.543,-2.409 -0.259,0 -0.513,0.024 -0.763,0.059 -2.607,-10.131 -6.647,-19.528 -12.511,-27.466 1.025,-0.683 1.807,-1.701 2.19,-2.898 7.699,-0.842 23.627,-1.652 39.675,3.193 0.891,1.426 1.721,2.896 2.475,4.416 4.174,8.398 7.22,16.971 9.165,25.852 C 29.037,-0.567 22.296,-1.007 16.264,-1.007 9.627,-1.007 3.853,-0.477 0,0" /></g><g
           transform="translate(1792.749,183.1846)"
           id="g4901"><path
             id="path4903"
             style="fill:#e90e8b;fill-opacity:1;fill-rule:nonzero;stroke:none"
             d="m 0,0 c 0.04,-4.071 0.258,-10.178 1.062,-16.302 7.634,0.521 15.577,1.253 23.852,2.192 0.736,6.427 0.928,13.116 0.659,20.006 C 17.754,5.386 10.279,5.014 3.135,4.771 3.063,2.659 1.803,0.854 0,0" /></g><g
           transform="translate(1747.5,183.2812)"
           id="g4905"><path
             id="path4907"
             style="fill:#e90e8b;fill-opacity:1;fill-rule:nonzero;stroke:none"
             d="m 0,0 c -1.749,0.918 -2.942,2.747 -2.942,4.859 0,0.145 0.009,0.287 0.021,0.43 -10.446,0.703 -19.842,1.761 -28.283,3.098 -0.356,-1.888 -1.678,-3.43 -3.432,-4.101 -0.211,-4.22 -0.186,-10.656 1.16,-16.962 9.997,-1.96 20.508,-3.303 31.643,-4.041 0.812,-0.054 1.637,-0.097 2.457,-0.145 C -0.022,-10.599 -0.072,-4.237 0,0" /></g><g
           transform="translate(1672.7832,197.5986)"
           id="g4909"><path
             id="path4911"
             style="fill:#e90e8b;fill-opacity:1;fill-rule:nonzero;stroke:none"
             d="m 0,0 c -1.523,0.975 -2.536,2.678 -2.536,4.621 0,0.938 0.236,1.82 0.651,2.592 -7.219,3.526 -12.684,7.292 -16.823,10.991 -0.775,-0.754 -1.773,-1.277 -2.885,-1.469 -0.686,-3.715 -1.041,-9.569 0.988,-16.741 5.536,-5.657 12.757,-10.569 21.349,-14.473 C -0.272,-8.72 -0.249,-3.572 0,0" /></g><g
           transform="translate(1646.5742,215.6719)"
           id="g4913"><path
             id="path4915"
             style="fill:#e90e8b;fill-opacity:1;fill-rule:nonzero;stroke:none"
             d="m 0,0 c -1.108,1.004 -1.81,2.45 -1.81,4.063 0,1.705 0.778,3.227 1.997,4.234 -2.51,3.619 -3.894,6.9 -4.654,9.476 -0.524,-1.282 -0.95,-2.622 -1.268,-4.02 C -6.819,8.982 -6.519,3.882 -4.928,-1.19 -3.817,-4.144 -2.38,-7.104 -0.622,-10.064 -0.892,-5.963 -0.513,-2.546 0,0" /></g><g
           transform="translate(1784.9404,187.6738)"
           id="g4917"><path
             id="path4919"
             style="fill:#e90e8b;fill-opacity:1;fill-rule:nonzero;stroke:none"
             d="m 0,0 c -10.563,-0.176 -20.348,-0.06 -29.416,0.309 -0.061,-2.17 -1.379,-4.023 -3.255,-4.856 -0.067,-4.283 -0.011,-10.775 0.674,-16.948 11.294,-0.468 23.266,-0.337 36.099,0.403 C 3.287,-14.753 3.072,-8.576 3.036,-4.449 1.357,-3.618 0.166,-1.957 0,0" /></g><g
           transform="translate(1708.1016,187.9775)"
           id="g4921"><path
             id="path4923"
             style="fill:#e90e8b;fill-opacity:1;fill-rule:nonzero;stroke:none"
             d="m 0,0 c -1.605,0.958 -2.683,2.706 -2.683,4.711 0,0.321 0.033,0.635 0.086,0.94 -9.523,1.967 -17.64,4.314 -24.553,6.892 -0.531,-1.628 -1.802,-2.919 -3.415,-3.48 -0.25,-3.897 -0.211,-9.806 1.326,-16.166 9.536,-3.815 19.527,-6.883 30.102,-9.22 C -0.226,-10.092 -0.215,-4.061 0,0" /></g><g
           transform="translate(1730.0361,238.9678)"
           id="g4925"><path
             id="path4927"
             style="fill:#e90e8b;fill-opacity:1;fill-rule:nonzero;stroke:none"
             d="m 0,0 c -1.432,0.99 -2.369,2.641 -2.369,4.513 0,0.513 0.074,1.008 0.207,1.479 -9.583,3.228 -16.904,6.869 -22.481,10.449 -0.931,-1.295 -2.413,-2.164 -4.104,-2.27 -1.244,-4.023 -2.395,-10.563 -0.466,-18.258 4.462,-2.477 9.751,-4.748 15.819,-6.771 4.367,-1.455 8.828,-2.705 13.326,-3.779 C -0.727,-8.959 -0.423,-3.665 0,0" /></g><g
           transform="translate(1768.7686,231.8682)"
           id="g4929"><path
             id="path4931"
             style="fill:#e90e8b;fill-opacity:1;fill-rule:nonzero;stroke:none"
             d="m 0,0 c -1.682,0.937 -2.82,2.731 -2.82,4.794 0,0.026 0.004,0.053 0.004,0.079 -10.53,1.302 -19.654,3.06 -27.557,5.106 -0.538,-1.726 -1.905,-3.085 -3.635,-3.614 -0.416,-3.75 -0.702,-9.292 0.164,-15.011 11.754,-2.46 23.611,-3.779 34.555,-4.407 C -0.039,-8.417 -0.104,-3.528 0,0" /></g><g
           transform="translate(1809.4189,229.5996)"
           id="g4933"><path
             id="path4935"
             style="fill:#e90e8b;fill-opacity:1;fill-rule:nonzero;stroke:none"
             d="m 0,0 0.759,-10.391 c 1.731,0.132 3.22,0.262 4.438,0.378 C 4.381,-5.748 3.447,-1.444 2.419,2.885 1.976,1.662 1.112,0.642 0,0" /></g><g
           transform="translate(1696.8447,254.9668)"
           id="g4937"><path
             id="path4939"
             style="fill:#e90e8b;fill-opacity:1;fill-rule:nonzero;stroke:none"
             d="m 0,0 c -0.863,0.969 -1.391,2.242 -1.391,3.642 0,1.319 0.466,2.529 1.242,3.475 -3.512,3.268 -5.646,6.176 -6.903,8.269 -1.75,-2.006 -3.181,-4.185 -4.232,-6.496 -2.188,-4.813 -2.295,-9.549 -0.32,-14.08 1.784,-4.089 5.19,-7.93 10.083,-11.44 C -2.419,-9.635 -1.24,-3.811 0,0" /></g><g
           transform="translate(1801.1953,234.3516)"
           id="g4941"><path
             id="path4943"
             style="fill:#e90e8b;fill-opacity:1;fill-rule:nonzero;stroke:none"
             d="m 0,0 c 0,0.012 0.002,0.023 0.002,0.035 -8.782,0.158 -16.892,0.581 -24.377,1.222 -0.354,-1.822 -1.609,-3.321 -3.285,-4.016 -0.097,-3.572 -0.018,-8.563 0.823,-13.015 12.316,-0.497 23.194,-0.161 31.065,0.308 L 3.471,-5.1 C 1.439,-4.295 0,-2.317 0,0" /></g><g
           transform="translate(1909.2861,241.7217)"
           id="g4945"><path
             id="path4947"
             style="fill:#e90e8b;fill-opacity:1;fill-rule:nonzero;stroke:none"
             d="m 0,0 c -1.838,-1.411 -3.803,-2.522 -5.504,-3.348 1.236,-3.266 2.414,-6.514 3.527,-9.744 3.324,1.288 5.894,5.95 6.388,11.225 C 4.317,-1.872 4.225,-1.882 4.129,-1.882 2.48,-1.882 1.006,-1.151 0,0" /></g><g
           transform="translate(1932.791,207.9355)"
           id="g4949"><path
             id="path4951"
             style="fill:#e90e8b;fill-opacity:1;fill-rule:nonzero;stroke:none"
             d="m 0,0 c 0.692,-0.918 1.106,-2.057 1.106,-3.295 0,-1.924 -0.992,-3.614 -2.492,-4.594 0.32,-3.893 0.377,-9.507 -0.983,-14.982 2.272,1.428 4.353,3.249 5.977,5.591 3.49,5.031 4.419,11.779 2.764,20.055 C 6.123,4.023 5.808,5.191 5.438,6.29 4.095,4.313 2.314,2.12 0,0" /></g><g
           transform="translate(1926.665,199.4414)"
           id="g4953"><path
             id="path4955"
             style="fill:#e90e8b;fill-opacity:1;fill-rule:nonzero;stroke:none"
             d="m 0,0 c -1.263,0.424 -2.318,1.293 -2.982,2.422 -2.403,-1.119 -5.101,-2.063 -8.12,-2.739 1.301,-6.327 2.225,-12.463 2.77,-18.435 1.918,0.336 4.018,0.836 6.139,1.568 C 0.314,-11.462 0.352,-4.518 0,0" /></g><g
           transform="translate(1954.9473,150.2148)"
           id="g4957"><path
             id="path4959"
             style="fill:#e90e8b;fill-opacity:1;fill-rule:nonzero;stroke:none"
             d="m 0,0 c -5.747,-6.046 -12.724,-9.822 -19.432,-12.17 0.082,-0.378 0.128,-0.769 0.128,-1.171 0,-2.118 -1.201,-3.952 -2.958,-4.867 -0.137,-4.377 -0.973,-10.97 -4.166,-17.587 19.21,4.941 25.912,17.078 28.238,25.421 0.804,2.887 1.257,5.834 1.414,8.778 C 1.967,-1.438 0.843,-0.859 0,0" /></g><g
           transform="translate(1924.8965,135.3145)"
           id="g4961"><path
             id="path4963"
             style="fill:#e90e8b;fill-opacity:1;fill-rule:nonzero;stroke:none"
             d="m 0,0 c -4.407,-0.764 -8.21,-1.002 -10.804,-1.058 -1.954,-6.557 -4.496,-12.98 -7.644,-19.317 -0.448,-0.9 -0.92,-1.785 -1.41,-2.657 1.379,-0.05 2.729,-0.079 4.037,-0.079 4.908,0 9.324,0.342 13.298,0.962 4.262,6.722 5.327,14.075 5.516,18.715 C 1.558,-2.781 0.453,-1.532 0,0" /></g><g
           transform="translate(1835.3018,336.1357)"
           id="g4965"><path
             id="path4967"
             style="fill:#2aabe2;fill-opacity:1;fill-rule:nonzero;stroke:none"
             d="m 0,0 c -0.926,1.723 -2.743,2.895 -4.836,2.895 -0.557,0 -1.093,-0.085 -1.6,-0.239 -2.25,-0.685 -3.888,-2.775 -3.888,-5.249 0,-3.031 2.457,-5.488 5.488,-5.488 0.501,0 0.983,0.073 1.445,0.198 1.619,0.442 2.94,1.601 3.595,3.118 5.538,0.204 12.898,0.586 17.847,1.27 -0.698,1.508 -1.396,3.019 -2.092,4.538 C 15.896,1.036 15.834,1.028 15.77,1.021 11.138,0.494 4.863,0.18 0,0" /></g><g
           transform="translate(1848.6553,298.2783)"
           id="g4969"><path
             id="path4971"
             style="fill:#2aabe2;fill-opacity:1;fill-rule:nonzero;stroke:none"
             d="m 0,0 c -0.849,1.934 -2.777,3.285 -5.024,3.285 -0.723,0 -1.412,-0.143 -2.043,-0.397 -2.019,-0.811 -3.446,-2.783 -3.446,-5.09 0,-3.031 2.457,-5.488 5.489,-5.488 0.608,0 1.19,0.102 1.737,0.285 1.343,0.448 2.455,1.399 3.11,2.633 0.9,-0.019 1.896,-0.03 2.976,-0.03 5.346,0 12.674,0.281 19.771,1.449 -0.711,1.494 -1.425,2.989 -2.142,4.489 C 12.777,0.013 4.891,-0.086 0,0" /></g><g
           transform="translate(1862.1045,260.7812)"
           id="g4973"><path
             id="path4975"
             style="fill:#2aabe2;fill-opacity:1;fill-rule:nonzero;stroke:none"
             d="m 0,0 c -0.842,1.949 -2.779,3.315 -5.039,3.315 -0.791,0 -1.539,-0.17 -2.219,-0.471 -1.924,-0.853 -3.268,-2.776 -3.268,-5.016 0,-3.031 2.457,-5.488 5.487,-5.488 0.371,0 0.734,0.038 1.084,0.108 1.623,0.325 2.988,1.366 3.749,2.78 1.196,-0.031 2.567,-0.052 4.088,-0.052 5.983,0 14.198,0.332 22.423,1.701 -0.651,1.498 -1.311,3.001 -1.979,4.508 C 14.916,-0.058 5.5,-0.13 0,0" /></g><g
           transform="translate(1871.8916,223.3779)"
           id="g4977"><path
             id="path4979"
             style="fill:#2aabe2;fill-opacity:1;fill-rule:nonzero;stroke:none"
             d="m 0,0 c -0.856,1.915 -2.773,3.252 -5.008,3.252 -0.443,0 -0.871,-0.058 -1.284,-0.157 -2.411,-0.578 -4.204,-2.742 -4.204,-5.33 0,-3.032 2.457,-5.489 5.488,-5.489 0.404,0 0.799,0.047 1.178,0.13 1.603,0.351 2.942,1.403 3.684,2.819 0.666,-0.009 1.389,-0.015 2.167,-0.015 6.628,0 17.156,0.388 28.672,2.299 -0.49,1.522 -0.992,3.049 -1.516,4.582 C 17.107,0.157 6.062,-0.067 0,0" /></g><g
           transform="translate(1876.8232,185.417)"
           id="g4981"><path
             id="path4983"
             style="fill:#2aabe2;fill-opacity:1;fill-rule:nonzero;stroke:none"
             d="m 0,0 c -0.71,2.121 -2.678,3.66 -5.019,3.737 -0.061,0.002 -0.121,0.009 -0.182,0.009 -3.03,0 -5.487,-2.457 -5.487,-5.487 0,-3.031 2.457,-5.488 5.487,-5.488 0.238,0 0.472,0.02 0.703,0.049 1.627,0.209 3.029,1.126 3.888,2.437 3.51,-0.377 8.602,-0.777 14.446,-0.777 6.341,0 13.562,0.472 20.588,1.952 -0.162,1.572 -0.348,3.156 -0.565,4.754 C 21.059,-1.583 7.135,-0.743 0,0" /></g><g
           transform="translate(1874.4072,147.8633)"
           id="g4985"><path
             id="path4987"
             style="fill:#2aabe2;fill-opacity:1;fill-rule:nonzero;stroke:none"
             d="m 0,0 c -0.559,1.77 -1.992,3.146 -3.791,3.636 -0.46,0.125 -0.941,0.197 -1.441,0.197 -3.032,0 -5.489,-2.457 -5.489,-5.487 0,-2.772 2.057,-5.057 4.726,-5.429 0.25,-0.035 0.504,-0.06 0.763,-0.06 1.889,0 3.555,0.956 4.543,2.41 3.852,-0.477 9.627,-1.007 16.263,-1.007 6.032,0 12.774,0.439 19.425,1.754 0.368,1.681 0.697,3.375 0.987,5.08 C 22.288,-1.994 7.429,-0.892 0,0" /></g><g
           transform="translate(1858.0908,110.416)"
           id="g4989"><path
             id="path4991"
             style="fill:#2aabe2;fill-opacity:1;fill-rule:nonzero;stroke:none"
             d="m 0,0 c -0.383,1.197 -1.165,2.215 -2.19,2.897 -0.871,0.579 -1.914,0.917 -3.036,0.917 -2.983,0 -5.405,-2.382 -5.479,-5.347 5.873,-1.305 11.853,-2.576 17.932,-3.815 1.484,-0.061 3.066,-0.098 4.734,-0.098 6.716,0 14.793,0.593 23.225,2.523 1.648,1.928 3.145,3.968 4.489,6.116 C 23.627,-1.652 7.699,-0.842 0,0" /></g><g
           transform="translate(1801.1973,234.3867)"
           id="g4993"><path
             id="path4995"
             style="fill:#2aabe2;fill-opacity:1;fill-rule:nonzero;stroke:none"
             d="m 0,0 c 0,-0.012 -0.002,-0.023 -0.002,-0.035 0,-2.318 1.439,-4.295 3.471,-5.1 l 0.757,-10.366 c 1.738,0.105 3.327,0.214 4.754,0.323 L 8.222,-4.787 c 1.112,0.641 1.975,1.662 2.419,2.885 C 10.173,0.065 9.687,2.037 9.181,4.015 8.205,4.905 6.911,5.453 5.485,5.453 2.468,5.453 0.019,3.015 0,0" /></g><g
           transform="translate(1701.2891,253.1387)"
           id="g4997"><path
             id="path4999"
             style="fill:#2aabe2;fill-opacity:1;fill-rule:nonzero;stroke:none"
             d="m 0,0 c 1.691,0.106 3.173,0.976 4.104,2.271 0.65,0.901 1.037,2.003 1.037,3.199 0,3.031 -2.458,5.488 -5.489,5.488 -1.712,0 -3.239,-0.784 -4.246,-2.013 -0.775,-0.946 -1.241,-2.156 -1.241,-3.475 0,-1.4 0.527,-2.673 1.391,-3.642 -1.241,-3.81 -2.419,-9.635 -1.522,-16.63 1.663,-1.191 3.498,-2.344 5.5,-3.456 C -2.395,-10.563 -1.244,-4.022 0,0" /></g><g
           transform="translate(1734.7607,238.2334)"
           id="g5001"><path
             id="path5003"
             style="fill:#2aabe2;fill-opacity:1;fill-rule:nonzero;stroke:none"
             d="m 0,0 c 1.729,0.528 3.097,1.888 3.635,3.614 0.159,0.516 0.246,1.065 0.246,1.633 0,3.031 -2.457,5.488 -5.488,5.488 -2.516,0 -4.633,-1.697 -5.28,-4.008 -0.133,-0.471 -0.207,-0.966 -0.207,-1.48 0,-1.872 0.938,-3.522 2.369,-4.513 -0.422,-3.665 -0.726,-8.959 -0.068,-14.636 1.648,-0.394 3.302,-0.761 4.957,-1.109 C -0.702,-9.292 -0.416,-3.75 0,0" /></g><g
           transform="translate(1773.5352,231.5928)"
           id="g5005"><path
             id="path5007"
             style="fill:#2aabe2;fill-opacity:1;fill-rule:nonzero;stroke:none"
             d="m 0,0 c 1.676,0.694 2.931,2.193 3.285,4.016 0.066,0.341 0.103,0.693 0.103,1.053 0,3.031 -2.456,5.489 -5.487,5.489 -3.004,0 -5.441,-2.415 -5.484,-5.41 0,-0.026 -0.004,-0.052 -0.004,-0.079 0,-2.062 1.139,-3.856 2.82,-4.794 -0.103,-3.528 -0.039,-8.417 0.711,-13.052 1.649,-0.094 3.277,-0.174 4.879,-0.239 C -0.018,-8.563 -0.097,-3.572 0,0" /></g><g
           transform="translate(1907.9287,245.3271)"
           id="g5009"><path
             id="path5011"
             style="fill:#2aabe2;fill-opacity:1;fill-rule:nonzero;stroke:none"
             d="m 0,0 c 0,-1.382 0.515,-2.641 1.357,-3.605 1.006,-1.152 2.481,-1.882 4.129,-1.882 0.096,0 0.189,0.009 0.283,0.014 0.107,1.148 0.118,2.324 0.015,3.501 C 5.628,-0.188 5.117,2.464 3.615,5.153 1.508,4.388 0,2.372 0,0" /></g><g
           transform="translate(1935.6436,136.874)"
           id="g5013"><path
             id="path5015"
             style="fill:#2aabe2;fill-opacity:1;fill-rule:nonzero;stroke:none"
             d="m 0,0 c 0,0.401 -0.046,0.793 -0.128,1.171 -0.536,2.467 -2.73,4.317 -5.359,4.317 -3.032,0 -5.489,-2.458 -5.489,-5.488 0,-0.543 0.082,-1.065 0.229,-1.56 0.453,-1.532 1.558,-2.781 2.993,-3.433 -0.189,-4.641 -1.254,-11.993 -5.517,-18.716 2.18,0.339 4.226,0.761 6.147,1.255 3.192,6.617 4.028,13.21 4.166,17.587 C -1.201,-3.952 0,-2.118 0,0" /></g><g
           transform="translate(1953.373,154.0576)"
           id="g5017"><path
             id="path5019"
             style="fill:#2aabe2;fill-opacity:1;fill-rule:nonzero;stroke:none"
             d="M 0,0 C 0,-1.497 0.602,-2.853 1.574,-3.843 2.417,-4.702 3.541,-5.281 4.798,-5.438 4.989,-1.812 4.723,1.807 4.082,5.3 1.733,4.678 0,2.544 0,0" /></g><g
           transform="translate(1931.4053,200.0469)"
           id="g5021"><path
             id="path5023"
             style="fill:#2aabe2;fill-opacity:1;fill-rule:nonzero;stroke:none"
             d="m 0,0 c 1.5,0.979 2.492,2.67 2.492,4.594 0,1.238 -0.414,2.377 -1.106,3.295 -1.001,1.33 -2.589,2.193 -4.382,2.193 -3.029,0 -5.486,-2.457 -5.486,-5.488 0,-1.015 0.279,-1.961 0.759,-2.778 0.664,-1.129 1.72,-1.998 2.983,-2.421 0.351,-4.518 0.314,-11.462 -2.194,-17.184 2.022,0.699 4.053,1.613 5.951,2.807 C 0.377,-9.507 0.319,-3.894 0,0" /></g><g
           transform="translate(1795.8838,187.9551)"
           id="g5025"><path
             id="path5027"
             style="fill:#2aabe2;fill-opacity:1;fill-rule:nonzero;stroke:none"
             d="m 0,0 c 0.002,0.062 0.009,0.123 0.009,0.186 0,3.03 -2.457,5.488 -5.488,5.488 -3.031,0 -5.488,-2.458 -5.488,-5.488 0,-0.159 0.01,-0.313 0.024,-0.467 0.166,-1.957 1.357,-3.618 3.036,-4.449 0.036,-4.127 0.251,-10.304 1.065,-16.643 1.576,0.092 3.166,0.191 4.769,0.301 -0.804,6.124 -1.022,12.23 -1.062,16.301 C -1.332,-3.916 -0.071,-2.111 0,0" /></g><g
           transform="translate(1651.1904,214.334)"
           id="g5029"><path
             id="path5031"
             style="fill:#2aabe2;fill-opacity:1;fill-rule:nonzero;stroke:none"
             d="m 0,0 c 1.111,0.191 2.109,0.715 2.885,1.469 1.025,0.997 1.666,2.388 1.666,3.932 0,3.032 -2.457,5.489 -5.488,5.489 -1.328,0 -2.544,-0.471 -3.493,-1.255 -1.218,-1.007 -1.996,-2.53 -1.996,-4.234 0,-1.613 0.701,-3.059 1.81,-4.063 -0.513,-2.546 -0.892,-5.963 -0.622,-10.065 0.556,-0.935 1.143,-1.871 1.763,-2.807 1.332,-1.798 2.826,-3.534 4.462,-5.207 C -1.041,-9.569 -0.687,-3.716 0,0" /></g><g
           transform="translate(1678.0713,201.751)"
           id="g5033"><path
             id="path5035"
             style="fill:none;stroke:#2aabe2;stroke-width:0.75;stroke-linecap:round;stroke-linejoin:round;stroke-miterlimit:4;stroke-dasharray:none;stroke-opacity:1"
             d="M 0,0 V 0" /></g><g
           transform="translate(1678.0713,201.751)"
           id="g5037"><path
             id="path5039"
             style="fill:#2aabe2;fill-opacity:1;fill-rule:nonzero;stroke:none"
             d="m 0,0 z m -0.535,-4.71 c 1.613,0.561 2.885,1.852 3.415,3.48 0.175,0.536 0.27,1.105 0.27,1.699 0,3.031 -2.456,5.488 -5.486,5.488 -2.093,0 -3.912,-1.173 -4.837,-2.896 -0.415,-0.772 -0.651,-1.655 -0.651,-2.592 0,-1.944 1.012,-3.647 2.536,-4.621 -0.249,-3.573 -0.273,-8.72 0.744,-14.48 0.796,-0.362 1.605,-0.716 2.423,-1.059 0.965,-0.406 1.939,-0.795 2.912,-1.185 -1.537,6.359 -1.576,12.269 -1.326,16.166" /></g><g
           transform="translate(1713.2656,192.3555)"
           id="g5041"><path
             id="path5043"
             style="fill:none;stroke:#2aabe2;stroke-width:0.75;stroke-linecap:round;stroke-linejoin:round;stroke-miterlimit:4;stroke-dasharray:none;stroke-opacity:1"
             d="M 0,0 V 0" /></g><g
           transform="translate(1713.2656,192.3555)"
           id="g5045"><path
             id="path5047"
             style="fill:#2aabe2;fill-opacity:1;fill-rule:nonzero;stroke:none"
             d="m 0,0 z m -0.401,-4.788 c 1.754,0.671 3.076,2.213 3.431,4.101 0.062,0.331 0.098,0.671 0.098,1.02 0,3.031 -2.457,5.488 -5.488,5.488 -2.708,0 -4.954,-1.966 -5.401,-4.548 -0.053,-0.305 -0.086,-0.619 -0.086,-0.94 0,-2.005 1.077,-3.753 2.683,-4.711 -0.215,-4.06 -0.226,-10.092 0.863,-16.323 1.67,-0.369 3.359,-0.716 5.06,-1.049 -1.347,6.306 -1.371,12.742 -1.16,16.962" /></g><g
           transform="translate(1752.2695,183.127)"
           id="g5049"><path
             id="path5051"
             style="fill:#2aabe2;fill-opacity:1;fill-rule:nonzero;stroke:none"
             d="m 0,0 c 1.876,0.833 3.194,2.686 3.255,4.855 0.002,0.054 0.009,0.105 0.009,0.159 0,3.03 -2.457,5.488 -5.489,5.488 -2.885,0 -5.246,-2.23 -5.465,-5.059 -0.012,-0.142 -0.022,-0.285 -0.022,-0.429 0,-2.113 1.193,-3.942 2.942,-4.86 -0.072,-4.237 -0.022,-10.598 0.624,-16.862 1.594,-0.092 3.2,-0.173 4.82,-0.24 C -0.011,-10.775 -0.067,-4.283 0,0" /></g><g
           transform="translate(1631.7314,139.6377)"
           id="g5053"><path
             id="path5055"
             style="fill:#e90e8b;fill-opacity:1;fill-rule:nonzero;stroke:none"
             d="m 0,0 c -1.777,0.908 -2.996,2.752 -2.996,4.885 0,1.434 0.555,2.737 1.457,3.715 -6.462,5.181 -11.865,10.334 -16.338,15.307 -0.799,-0.803 -1.846,-1.355 -3.014,-1.544 -1.49,-6.361 -3.22,-19.174 0.786,-36.475 5.629,-5.006 12.872,-9.928 22.146,-14.538 C 0.167,-18.253 -0.054,-6.508 0,0" /></g><g
           transform="translate(1692.8545,111.6729)"
           id="g5057"><path
             id="path5059"
             style="fill:#e90e8b;fill-opacity:1;fill-rule:nonzero;stroke:none"
             d="m 0,0 c 0,0.774 0.162,1.511 0.451,2.179 -8.492,3.181 -16.299,6.517 -23.472,9.957 -0.502,-1.217 -1.429,-2.209 -2.595,-2.801 0.177,-5.974 0.674,-16.121 2.063,-23.011 8.461,-2.269 17.837,-4.334 28.216,-6.145 -0.93,5.566 -1.308,11.047 -1.46,14.837 C 1.314,-4.117 0,-2.214 0,0" /></g><g
           transform="translate(1767.1543,93.0439)"
           id="g5061"><path
             id="path5063"
             style="fill:#e90e8b;fill-opacity:1;fill-rule:nonzero;stroke:none"
             d="m 0,0 c 0,0.421 0.052,0.828 0.142,1.222 -9.601,1.699 -18.696,3.576 -27.308,5.602 -0.11,-1.89 -1.175,-3.521 -2.723,-4.42 0.232,-2.588 0.577,-5.84 1.057,-8.835 10.226,-0.909 21.158,-1.618 32.841,-2.103 l -0.363,3.37 C 1.523,-4.406 0,-2.384 0,0" /></g><g
           transform="translate(1808.9619,87.8457)"
           id="g5065"><path
             id="path5067"
             style="fill:#e90e8b;fill-opacity:1;fill-rule:nonzero;stroke:none"
             d="m 0,0 c 0,0.191 0.01,0.381 0.028,0.567 -10.807,1.154 -21.099,2.511 -30.892,4.048 -0.181,-1.72 -1.161,-3.199 -2.559,-4.071 l 0.438,-4.067 c 10.505,-0.373 21.601,-0.571 33.323,-0.571 0.502,0 1,0.003 1.5,0.004 C 0.713,-3.086 0,-1.628 0,0" /></g><g
           transform="translate(1818.1396,83.792)"
           id="g5069"><path
             id="path5071"
             style="fill:#e90e8b;fill-opacity:1;fill-rule:nonzero;stroke:none"
             d="M 0,0 C 13.704,0.118 26.984,0.501 39.465,1.036 26.279,1.608 13.721,2.45 1.771,3.539 1.641,2.139 0.982,0.896 0,0" /></g><g
           transform="translate(1729.0303,100.1924)"
           id="g5073"><path
             id="path5075"
             style="fill:#e90e8b;fill-opacity:1;fill-rule:nonzero;stroke:none"
             d="m 0,0 c 0,0.812 0.18,1.579 0.496,2.272 -9.219,2.41 -17.842,4.995 -25.907,7.718 -0.418,-1.482 -1.441,-2.708 -2.788,-3.395 0.167,-4.027 0.594,-9.999 1.676,-15.774 9.484,-1.533 19.769,-2.86 30.922,-3.945 -0.411,2.805 -0.711,5.686 -0.92,8.02 C 1.443,-4.302 0,-2.321 0,0" /></g><g
           transform="translate(1659.2705,125.8984)"
           id="g5077"><path
             id="path5079"
             style="fill:#e90e8b;fill-opacity:1;fill-rule:nonzero;stroke:none"
             d="m 0,0 c 0,1.045 0.299,2.019 0.807,2.851 -7.908,4.231 -14.932,8.576 -21.158,12.945 -0.567,-0.941 -1.408,-1.696 -2.414,-2.157 -0.045,-7.088 0.24,-20.531 2.644,-31.084 7.213,-3.222 15.512,-6.262 25.055,-9.034 -1.153,7.086 -1.58,16.024 -1.737,21.497 C 1.312,-4.113 0,-2.212 0,0" /></g><g
           transform="translate(1606.2412,163.3867)"
           id="g5081"><path
             id="path5083"
             style="fill:#e90e8b;fill-opacity:1;fill-rule:nonzero;stroke:none"
             d="m 0,0 c -1.084,1.002 -1.767,2.432 -1.767,4.025 0,1.924 0.992,3.615 2.491,4.594 -4.511,6.173 -7.579,11.889 -9.517,16.818 -0.715,-0.342 -1.514,-0.54 -2.36,-0.54 -1.064,0 -2.054,0.308 -2.895,0.832 -5.19,-12.982 -3.175,-28.984 5.975,-46.723 1.822,-3.533 4.24,-7.157 7.406,-10.784 C -3.057,-16.908 -1.443,-5.92 0,0" /></g><g
           transform="translate(1597.4482,188.8232)"
           id="g5085"><path
             id="path5087"
             style="fill:#2aabe2;fill-opacity:1;fill-rule:nonzero;stroke:none"
             d="m 0,0 c 1.848,0.884 3.127,2.764 3.127,4.948 0,2.083 -1.16,3.895 -2.869,4.824 C -0.712,8.554 -1.621,7.265 -2.453,5.899 -3.549,4.102 -4.48,2.229 -5.255,0.292 c 0.841,-0.523 1.831,-0.831 2.895,-0.831 0.846,0 1.645,0.197 2.36,0.539" /></g><g
           transform="translate(1669.833,123.8086)"
           id="g5089"><path
             id="path5091"
             style="fill:#2aabe2;fill-opacity:1;fill-rule:nonzero;stroke:none"
             d="m 0,0 c 0.266,0.644 0.414,1.35 0.414,2.09 0,3.03 -2.457,5.488 -5.488,5.488 -1.985,0 -3.719,-1.058 -4.682,-2.638 -0.508,-0.832 -0.807,-1.805 -0.807,-2.85 0,-2.212 1.313,-4.113 3.198,-4.983 0.157,-5.472 0.584,-14.41 1.736,-21.496 1.662,-0.482 3.36,-0.957 5.098,-1.423 -1.39,6.89 -1.887,17.038 -2.064,23.011 C -1.429,-2.209 -0.502,-1.217 0,0" /></g><g
           transform="translate(1703.6191,110.1826)"
           id="g5093"><path
             id="path5095"
             style="fill:#2aabe2;fill-opacity:1;fill-rule:nonzero;stroke:none"
             d="m 0,0 c 0.134,0.475 0.211,0.974 0.211,1.49 0,3.031 -2.457,5.489 -5.488,5.489 -2.256,0 -4.193,-1.363 -5.036,-3.31 -0.29,-0.668 -0.452,-1.404 -0.452,-2.179 0,-2.214 1.315,-4.117 3.203,-4.984 0.153,-3.79 0.531,-9.271 1.46,-14.837 1.638,-0.286 3.301,-0.565 4.99,-0.838 -1.082,5.774 -1.509,11.747 -1.676,15.773 C -1.44,-2.708 -0.418,-1.482 0,0" /></g><g
           transform="translate(1739.9883,99.8682)"
           id="g5097"><path
             id="path5099"
             style="fill:#2aabe2;fill-opacity:1;fill-rule:nonzero;stroke:none"
             d="m 0,0 c 0.007,0.108 0.017,0.215 0.017,0.324 0,3.031 -2.457,5.488 -5.489,5.488 -2.218,0 -4.125,-1.32 -4.99,-3.215 -0.316,-0.694 -0.496,-1.461 -0.496,-2.273 0,-2.321 1.443,-4.302 3.479,-5.103 0.208,-2.335 0.509,-5.216 0.92,-8.021 1.615,-0.156 3.244,-0.308 4.893,-0.455 -0.48,2.995 -0.825,6.247 -1.057,8.835 C -1.175,-3.521 -0.11,-1.891 0,0" /></g><g
           transform="translate(1778.0977,92.4609)"
           id="g5101"><path
             id="path5103"
             style="fill:#2aabe2;fill-opacity:1;fill-rule:nonzero;stroke:none"
             d="m 0,0 c 0.021,0.191 0.032,0.386 0.032,0.583 0,3.031 -2.457,5.488 -5.488,5.488 -2.609,0 -4.791,-1.824 -5.346,-4.266 -0.09,-0.394 -0.141,-0.801 -0.141,-1.222 0,-2.384 1.523,-4.406 3.646,-5.164 l 0.362,-3.37 c 1.592,-0.067 3.194,-0.129 4.814,-0.188 l -0.438,4.068 C -1.161,-3.199 -0.181,-1.721 0,0" /></g><g
           transform="translate(1819.9111,87.3311)"
           id="g5105"><path
             id="path5107"
             style="fill:#2aabe2;fill-opacity:1;fill-rule:nonzero;stroke:none"
             d="m 0,0 c 0.016,0.169 0.026,0.341 0.026,0.515 0,3.03 -2.458,5.488 -5.488,5.488 -2.839,0 -5.175,-2.157 -5.459,-4.921 -0.018,-0.186 -0.028,-0.376 -0.028,-0.567 0,-1.628 0.713,-3.086 1.838,-4.09 2.458,0.003 4.906,0.015 7.34,0.036 C -0.789,-2.644 -0.131,-1.4 0,0" /></g><g
           transform="translate(1610.8408,162.001)"
           id="g5109"><path
             id="path5111"
             style="fill:#2aabe2;fill-opacity:1;fill-rule:nonzero;stroke:none"
             d="m 0,0 c 1.168,0.188 2.215,0.74 3.014,1.544 0.985,0.991 1.595,2.357 1.595,3.867 0,3.03 -2.457,5.488 -5.488,5.488 -1.107,0 -2.135,-0.331 -2.997,-0.894 -1.499,-0.98 -2.49,-2.67 -2.49,-4.594 0,-1.594 0.682,-3.023 1.766,-4.025 -1.443,-5.92 -3.056,-16.908 -0.667,-31.779 1.773,-2.031 3.783,-4.063 6.052,-6.083 C -3.221,-19.174 -1.49,-6.361 0,0" /></g><g
           transform="translate(1636.5059,139.5371)"
           id="g5113"><path
             id="path5115"
             style="fill:#2aabe2;fill-opacity:1;fill-rule:nonzero;stroke:none"
             d="m 0,0 c 1.006,0.461 1.847,1.217 2.414,2.157 0.499,0.827 0.791,1.792 0.791,2.828 0,3.031 -2.457,5.489 -5.488,5.489 -1.596,0 -3.028,-0.686 -4.03,-1.774 -0.903,-0.977 -1.458,-2.28 -1.458,-3.715 0,-2.132 1.219,-3.976 2.997,-4.884 -0.054,-6.508 0.167,-18.253 2.041,-28.651 1.72,-0.856 3.512,-1.701 5.377,-2.534 C 0.239,-20.53 -0.045,-7.088 0,0" /></g><g
           transform="translate(1857.6045,84.8281)"
           id="g5117"><path
             id="path5119"
             style="fill:#000000;fill-opacity:1;fill-rule:nonzero;stroke:none"
             d="m 0,0 c -12.48,-0.535 -25.761,-0.918 -39.465,-1.036 -2.433,-0.021 -4.882,-0.033 -7.34,-0.036 -0.5,-10e-4 -0.998,-0.004 -1.5,-0.004 -11.721,0 -22.818,0.197 -33.323,0.57 -1.62,0.059 -3.222,0.121 -4.813,0.188 -11.683,0.485 -22.616,1.194 -32.841,2.103 -1.65,0.147 -3.279,0.299 -4.893,0.455 -11.153,1.085 -21.438,2.412 -30.923,3.946 -1.688,0.272 -3.351,0.551 -4.989,0.837 -10.379,1.812 -19.755,3.876 -28.216,6.146 -1.737,0.466 -3.435,0.94 -5.097,1.423 -9.543,2.771 -17.842,5.811 -25.055,9.033 -1.864,0.833 -3.656,1.678 -5.377,2.534 -9.274,4.611 -16.517,9.532 -22.147,14.538 -2.269,2.02 -4.279,4.052 -6.051,6.083 -3.166,3.627 -5.584,7.251 -7.407,10.784 -9.149,17.74 -11.165,33.742 -5.974,46.723 0.774,1.938 1.706,3.81 2.802,5.608 0.832,1.365 1.741,2.654 2.711,3.873 8.878,11.17 23.044,16.304 33.373,16.304 1.08,0 2.13,-0.052 3.142,-0.158 0.239,-0.75 0.503,-1.514 0.79,-2.291 1.232,-3.943 3.103,-7.847 5.596,-11.596 0.495,-0.746 1.017,-1.481 1.556,-2.209 10.902,-16.311 32.818,-35.988 75.798,-55.804 C -113.48,45.95 -81.896,35.018 -45.769,25.519 -14.221,17.225 20.994,9.976 59.212,3.902 43.99,2.55 23.405,1.006 0,0 m -180.168,166.674 c 0.329,-1.52 0.809,-3.022 1.451,-4.496 4.545,-10.425 16.843,-19.233 35.563,-25.473 24.603,-8.201 51.8,-10.052 70.282,-10.16 0.636,-0.004 1.264,-0.006 1.888,-0.006 13.498,0 24.045,0.848 29.214,1.364 1.321,-8.076 2.189,-15.987 2.488,-23.651 0.268,-6.89 0.077,-13.578 -0.659,-20.006 -8.276,-0.938 -16.218,-1.671 -23.853,-2.191 -1.602,-0.11 -3.192,-0.209 -4.769,-0.301 -12.833,-0.74 -24.804,-0.871 -36.098,-0.403 -1.62,0.067 -3.226,0.148 -4.819,0.24 -0.821,0.048 -1.645,0.092 -2.458,0.145 -11.134,0.738 -21.645,2.081 -31.642,4.041 -1.701,0.333 -3.39,0.68 -5.06,1.049 -10.575,2.337 -20.566,5.405 -30.102,9.221 -0.973,0.39 -1.947,0.779 -2.912,1.184 -0.819,0.344 -1.627,0.698 -2.423,1.06 -8.592,3.904 -15.814,8.816 -21.35,14.474 -1.636,1.673 -3.13,3.409 -4.462,5.207 -0.62,0.936 -1.207,1.872 -1.763,2.807 -1.758,2.961 -3.196,5.921 -4.306,8.874 -1.591,5.073 -1.892,10.173 -0.808,14.944 0.319,1.398 0.745,2.738 1.269,4.02 4.757,11.618 17.799,18.353 35.329,18.057 m 24.646,27.696 c 7.694,3.419 16.69,4.645 25.336,3.453 14.225,-1.962 24.182,-6.335 33.813,-10.565 11.65,-5.117 23.676,-10.395 42.783,-11.405 2.324,-7.449 4.473,-14.895 6.363,-22.28 0.506,-1.977 0.993,-3.949 1.46,-5.917 1.029,-4.329 1.962,-8.633 2.779,-12.897 -1.218,-0.116 -2.707,-0.246 -4.439,-0.378 -1.427,-0.11 -3.016,-0.219 -4.755,-0.323 -7.87,-0.469 -18.749,-0.805 -31.064,-0.309 -1.603,0.064 -3.231,0.145 -4.879,0.238 -10.944,0.628 -22.801,1.947 -34.555,4.408 -1.655,0.347 -3.308,0.714 -4.957,1.108 -4.498,1.073 -8.959,2.323 -13.325,3.778 -6.068,2.024 -11.357,4.294 -15.819,6.772 -2.002,1.111 -3.837,2.264 -5.5,3.456 -4.893,3.51 -8.299,7.35 -10.082,11.439 -1.976,4.531 -1.868,9.268 0.319,14.08 1.051,2.312 2.482,4.491 4.232,6.496 3.146,3.605 7.333,6.644 12.29,8.846 m 43.126,-119.551 c 6.823,-0.451 13.878,-0.678 21.212,-0.678 15.383,0 31.985,0.998 50.181,3.006 -2.267,-12.196 -6.753,-23.3 -14.101,-32.86 -1.939,-2.522 -4.076,-4.939 -6.427,-7.238 -6.702,1.931 -13.225,3.915 -19.561,5.948 -20.592,6.607 -39.219,13.735 -55.648,21.311 -17.274,7.963 -32.061,16.385 -44.166,25.136 20.475,-8.136 42.929,-12.93 68.51,-14.625 m 166.335,90.833 c 1.502,-2.689 2.013,-5.341 2.169,-7.125 0.103,-1.177 0.092,-2.353 -0.015,-3.501 -0.494,-5.274 -3.065,-9.936 -6.388,-11.224 -1.113,3.229 -2.291,6.477 -3.527,9.744 -2.719,7.183 -5.715,14.454 -8.914,21.817 9.59,-1.254 14.34,-5.526 16.675,-9.711 m 26.686,-36.255 c 0.369,-1.098 0.685,-2.266 0.934,-3.514 1.655,-8.277 0.725,-15.025 -2.764,-20.056 -1.624,-2.342 -3.705,-4.163 -5.978,-5.591 -1.897,-1.193 -3.928,-2.107 -5.95,-2.806 -2.121,-0.733 -4.221,-1.233 -6.138,-1.569 -0.545,5.972 -1.469,12.109 -2.77,18.435 -0.52,2.524 -1.091,5.076 -1.73,7.663 -1.247,5.043 -2.704,10.132 -4.34,15.267 3.681,1.337 6.767,4.513 8.767,8.645 4.114,-0.696 15.705,-3.764 19.969,-16.474 M 99.851,74.529 c 0.64,-3.493 0.907,-7.112 0.715,-10.738 -0.156,-2.944 -0.609,-5.892 -1.414,-8.778 -2.325,-8.343 -9.027,-20.481 -28.237,-25.421 -1.921,-0.494 -3.967,-0.916 -6.146,-1.255 -3.974,-0.619 -8.39,-0.962 -13.298,-0.962 -1.308,0 -2.658,0.029 -4.037,0.079 0.49,0.872 0.962,1.757 1.41,2.657 3.148,6.337 5.69,12.76 7.644,19.318 3.78,12.685 5.33,25.884 4.684,39.971 l 0.079,-0.484 c 10.003,1.621 17.761,5.768 22.536,12.009 7.447,-4.21 13.896,-14.571 16.064,-26.396 M 37.594,14.561 c 1.963,1.942 3.777,4.005 5.433,6.185 2.868,-0.194 5.655,-0.298 8.351,-0.298 14.035,0 25.751,2.634 34.922,7.864 9.805,5.592 16.559,14.182 19.53,24.84 5.566,19.967 -3.271,45.149 -18.613,53.804 2.303,5.732 2.691,12.526 1.139,20.286 -2.508,12.538 -10.199,18.885 -16.208,22.001 -3.607,1.87 -7.036,2.814 -9.395,3.285 0.355,2.126 0.458,4.351 0.261,6.605 -0.547,6.248 -3.223,11.717 -7.738,15.811 -5.13,4.655 -12.264,7.224 -21.203,7.653 -5.618,12.547 -11.739,25.355 -17.992,38.437 -9.876,20.662 -20.088,42.028 -29.522,64.73 -4.731,11.384 -5.808,20.27 -3.2,26.41 1.669,3.929 4.846,6.765 9.711,8.673 5.084,1.991 10.912,2.59 16.548,3.169 10.185,1.045 20.677,2.129 26.486,11.468 -0.028,-0.005 -0.054,-0.009 -0.081,-0.013 -0.587,-0.109 -1.195,-0.159 -1.804,-0.242 -0.306,-0.038 -0.614,-0.076 -0.922,-0.114 -0.31,-0.033 -0.623,-0.045 -0.936,-0.068 -0.627,-0.036 -1.257,-0.09 -1.892,-0.113 -0.636,-0.015 -1.274,-0.03 -1.912,-0.044 -0.638,-0.006 -1.276,0.033 -1.91,0.047 -0.205,0.004 -0.409,0.014 -0.614,0.023 -4.043,-2.543 -9.713,-3.288 -17.123,-4.049 -6.098,-0.626 -12.405,-1.273 -18.369,-3.611 -6.598,-2.585 -11.16,-6.763 -13.562,-12.416 -3.364,-7.919 -2.293,-18.611 3.178,-31.78 4.376,-10.53 8.912,-20.756 13.499,-30.753 0.697,-1.519 1.394,-3.031 2.092,-4.539 4.692,-10.126 9.423,-20.026 14.078,-29.768 0.553,-1.154 1.104,-2.307 1.653,-3.458 0.716,-1.5 1.431,-2.995 2.142,-4.488 5.305,-11.126 10.455,-22.049 15.205,-32.76 0.668,-1.507 1.328,-3.01 1.979,-4.508 4.767,-10.957 9.077,-21.69 12.659,-32.189 0.524,-1.534 1.026,-3.06 1.516,-4.582 1.715,-5.316 3.237,-10.571 4.518,-15.762 1.575,-6.374 2.767,-12.538 3.58,-18.523 0.217,-1.597 0.402,-3.181 0.565,-4.753 C 54.837,85.465 54.557,74.571 52.789,64.129 52.499,62.424 52.17,60.73 51.802,59.049 49.856,50.168 46.811,41.595 42.637,33.196 41.882,31.677 41.053,30.207 40.161,28.781 38.817,26.633 37.32,24.593 35.672,22.665 33.66,20.312 31.429,18.123 28.98,16.116 c -7.218,1.33 -14.308,2.705 -21.267,4.124 -6.078,1.239 -12.059,2.51 -17.932,3.815 -11.681,2.595 -22.953,5.319 -33.787,8.168 -3.355,0.881 -6.67,1.776 -9.945,2.682 44.552,48.195 11.104,136.108 -15.912,207.115 -8.753,23.004 -17.022,44.733 -21.397,62.105 -7.061,28.035 -9.679,46.189 -8.756,60.702 1.029,16.122 6.467,28.463 17.635,40.014 7.738,8.005 19.815,13.872 34.003,16.519 12.63,2.358 25.521,1.702 33.643,-1.71 12.483,-5.243 17.68,-11.237 22.707,-17.035 5.379,-6.205 10.941,-12.621 24.379,-16.865 5.712,-1.804 11.751,-2.514 17.591,-3.199 8.231,-0.967 16.005,-1.881 18.288,-5.753 1.276,-2.162 1.124,-5.669 -0.441,-10.444 h -19.93 c -0.886,1.835 -2.761,3.105 -4.937,3.105 -3.03,0 -5.488,-2.457 -5.488,-5.487 0,-3.032 2.458,-5.489 5.488,-5.489 2.176,0 4.051,1.269 4.937,3.106 H 65.903 C 60.691,350.912 47.876,344.064 30.402,342.714 v -0.004 c -0.222,-0.026 -0.994,-0.12 -2.211,-0.268 -0.362,-0.043 -0.763,-0.09 -1.201,-0.142 -0.413,-0.033 -0.859,-0.07 -1.338,-0.108 -0.48,-0.039 -0.99,-0.081 -1.528,-0.125 -0.536,-0.05 -1.126,-0.051 -1.728,-0.082 -0.607,-0.023 -1.24,-0.048 -1.894,-0.073 h -2.027 c -1.398,-0.023 -2.866,0.068 -4.393,0.128 -0.764,0.026 -1.533,0.118 -2.318,0.175 -0.785,0.066 -1.581,0.12 -2.376,0.233 -0.798,0.1 -1.603,0.2 -2.411,0.301 -0.804,0.134 -1.612,0.267 -2.418,0.401 -0.813,0.121 -1.613,0.294 -2.411,0.467 -0.795,0.18 -1.604,0.315 -2.382,0.529 -0.784,0.204 -1.56,0.405 -2.329,0.604 -0.767,0.203 -1.507,0.457 -2.248,0.679 -0.37,0.114 -0.736,0.227 -1.099,0.34 -0.361,0.119 -0.709,0.254 -1.061,0.379 -0.7,0.255 -1.384,0.504 -2.052,0.748 -0.653,0.277 -1.29,0.546 -1.904,0.807 -0.308,0.131 -0.612,0.26 -0.909,0.387 -0.297,0.13 -0.576,0.278 -0.855,0.413 -1.114,0.551 -2.154,1.033 -3.018,1.559 -0.875,0.509 -1.668,0.917 -2.262,1.338 -1.222,0.805 -1.92,1.265 -1.92,1.265 0,0 0.635,-0.547 1.745,-1.505 0.542,-0.501 1.275,-1.008 2.089,-1.635 0.805,-0.643 1.782,-1.262 2.837,-1.967 0.266,-0.173 0.531,-0.362 0.813,-0.533 0.284,-0.167 0.574,-0.337 0.868,-0.51 0.592,-0.347 1.203,-0.704 1.832,-1.074 0.646,-0.336 1.311,-0.68 1.989,-1.033 0.341,-0.174 0.683,-0.36 1.034,-0.53 0.356,-0.163 0.715,-0.327 1.077,-0.493 0.726,-0.324 1.457,-0.686 2.216,-0.996 0.762,-0.308 1.535,-0.618 2.312,-0.932 0.776,-0.326 1.583,-0.573 2.383,-0.866 0.801,-0.285 1.608,-0.571 2.428,-0.807 0.819,-0.247 1.638,-0.495 2.454,-0.742 0.826,-0.215 1.648,-0.428 2.464,-0.64 0.004,0 0.633,-0.063 1.725,-0.21 1.092,-0.141 2.65,-0.343 4.521,-0.586 0.931,-0.124 1.944,-0.231 3.011,-0.354 0.532,-0.066 1.081,-0.12 1.644,-0.164 0.558,-0.054 1.132,-0.109 1.713,-0.163 0.582,-0.041 1.174,-0.083 1.773,-0.126 0.599,-0.051 1.206,-0.052 1.817,-0.095 0.609,-0.037 1.224,-0.064 1.843,-0.066 0.617,-0.003 1.239,-0.033 1.858,-0.017 0.621,0.005 1.241,0.01 1.857,0.015 0.618,0.013 1.232,0.055 1.842,0.081 0.61,0.023 1.213,0.074 1.81,0.118 0.596,0.053 1.189,0.071 1.765,0.149 1.155,0.142 2.278,0.244 3.334,0.418 1.061,0.144 2.057,0.327 2.981,0.488 0.926,0.149 1.762,0.35 2.514,0.493 0.752,0.146 1.404,0.292 1.94,0.42 0.531,0.122 0.951,0.213 1.242,0.274 12.242,4.059 21.093,11.45 25.152,21.373 3.612,8.83 3.996,15.144 1.209,19.869 -4.029,6.834 -13.463,7.943 -23.451,9.117 -5.52,0.648 -11.226,1.318 -16.312,2.924 -9.398,2.968 -14.115,6.932 -18.333,11.52 0.156,0.245 0.309,0.493 0.44,0.76 0.197,0.365 0.383,0.736 0.536,1.12 0.171,0.374 0.304,0.76 0.431,1.136 0.134,0.37 0.219,0.751 0.321,1.104 0.077,0.364 0.162,0.706 0.213,1.037 0.056,0.33 0.1,0.638 0.128,0.926 0.127,1.141 0.064,1.886 0.064,1.886 0,0 -0.316,-0.679 -0.952,-1.556 -0.155,-0.221 -0.335,-0.451 -0.527,-0.688 -0.188,-0.238 -0.411,-0.472 -0.626,-0.714 -0.238,-0.23 -0.457,-0.477 -0.717,-0.694 -0.251,-0.223 -0.502,-0.444 -0.775,-0.638 -0.259,-0.206 -0.535,-0.385 -0.805,-0.551 -0.107,-0.073 -0.218,-0.135 -0.329,-0.196 -0.099,0.115 -0.198,0.229 -0.298,0.344 -5.289,6.101 -11.283,13.016 -25.26,18.886 -9.444,3.966 -23.498,4.764 -37.598,2.133 -15.591,-2.909 -28.986,-9.486 -37.716,-18.516 -25.232,-26.099 -23.371,-56.587 -10.617,-107.226 4.476,-17.766 12.813,-39.679 21.64,-62.878 6.88,-18.084 14.19,-37.294 20.488,-56.612 -16.289,1.247 -26.743,5.835 -37.732,10.661 -10.064,4.421 -20.473,8.993 -35.652,11.086 -21.128,2.914 -41.787,-6.671 -49.116,-22.794 -1.246,-2.739 -1.988,-5.52 -2.238,-8.29 -10.953,0.101 -20.619,-2.292 -28.095,-6.999 -7.775,-4.896 -12.906,-11.975 -14.837,-20.473 -0.683,-2.997 -0.934,-6.084 -0.771,-9.202 -0.734,0.043 -1.476,0.072 -2.23,0.072 -13.78,0 -32.11,-7.267 -42.004,-23.502 -6.809,-11.174 -11.827,-30.5 2.931,-59.114 11.998,-23.26 41.024,-40.265 86.27,-50.54 34.636,-7.868 78.719,-11.856 131.023,-11.856 72.087,0 135.16,7.75 135.789,7.828 L 113.561,3.066 87.535,6.692 C 70.324,9.09 53.66,11.717 37.594,14.561" /></g><g
           transform="translate(1821.8291,471.875)"
           id="g5121"><path
             id="path5123"
             style="fill:#ffffff;fill-opacity:1;fill-rule:nonzero;stroke:none"
             d="m 0,0 c -0.171,-0.509 -0.267,-1.051 -0.267,-1.616 0,-1.921 1.063,-3.592 2.63,-4.464 0.178,-0.1 0.365,-0.189 0.556,-0.266 0.02,-0.009 0.043,-0.015 0.065,-0.024 0.159,-0.063 0.321,-0.115 0.487,-0.162 0.05,-0.015 0.103,-0.028 0.156,-0.041 0.144,-0.035 0.291,-0.064 0.439,-0.086 0.056,-0.009 0.111,-0.019 0.167,-0.026 0.201,-0.023 0.403,-0.039 0.609,-0.039 0.168,0 0.333,0.009 0.497,0.025 0.056,0.006 0.11,0.015 0.165,0.023 0.107,0.014 0.213,0.028 0.318,0.048 0.066,0.013 0.13,0.03 0.196,0.045 0.089,0.022 0.18,0.044 0.269,0.069 0.069,0.022 0.139,0.045 0.207,0.069 0.08,0.027 0.159,0.055 0.238,0.088 0.073,0.028 0.143,0.058 0.213,0.09 0.071,0.033 0.14,0.066 0.209,0.1 0.074,0.038 0.147,0.077 0.219,0.118 0.059,0.034 0.117,0.07 0.174,0.106 0.076,0.048 0.153,0.097 0.226,0.149 0.045,0.032 0.088,0.065 0.133,0.099 0.082,0.061 0.164,0.123 0.242,0.19 0.021,0.018 0.04,0.037 0.062,0.056 0.642,0.566 1.142,1.29 1.436,2.113 0,0.003 0.002,0.006 0.002,0.009 0.05,0.138 0.093,0.278 0.13,0.421 10e-4,0.005 0.003,0.01 0.003,0.014 0.038,0.144 0.069,0.29 0.093,0.438 0.046,0.273 0.075,0.552 0.075,0.838 0,2.138 -1.316,3.968 -3.181,4.728 1.155,0.246 2.351,0.379 3.58,0.379 9.441,0 17.094,-7.653 17.094,-17.095 0,-3.918 -1.325,-7.524 -3.543,-10.407 0.029,-0.009 0.056,-0.018 0.083,-0.027 1.151,1.345 2.17,2.781 3.009,4.309 0.932,1.703 1.653,3.504 2.144,5.354 0.49,1.842 0.757,3.769 0.788,5.621 0.011,0.456 -0.011,1.005 -0.017,1.439 -0.04,0.47 -0.054,0.942 -0.112,1.41 -0.062,0.467 -0.099,0.934 -0.187,1.397 l -0.117,0.694 -0.147,0.686 c -0.4,1.83 -1.055,3.591 -1.892,5.246 -0.197,0.419 -0.445,0.814 -0.664,1.221 -0.25,0.39 -0.476,0.793 -0.746,1.17 -0.51,0.77 -1.073,1.503 -1.668,2.205 -1.197,1.4 -2.574,2.636 -4.06,3.701 -1.501,1.046 -3.116,1.92 -4.809,2.574 -1.694,0.654 -3.457,1.12 -5.254,1.34 -0.446,0.043 -0.908,0.11 -1.331,0.122 L 8.273,14.493 7.537,14.504 C 6.651,14.521 5.736,14.453 4.844,14.365 3.053,14.152 1.299,13.714 -0.386,13.097 c -1.677,-0.64 -3.28,-1.474 -4.753,-2.496 -1.459,-1.038 -2.832,-2.21 -4.006,-3.566 -1.181,-1.347 -2.207,-2.83 -3.02,-4.424 -0.829,-1.585 -1.462,-3.272 -1.863,-5.016 -0.218,-0.868 -0.345,-1.757 -0.456,-2.646 l -0.055,-0.639 c -0.016,-0.222 -0.046,-0.402 -0.049,-0.664 l -0.024,-0.738 -0.006,-0.184 -0.003,-0.077 v -0.005 l 0.002,-0.041 0.006,-0.334 0.032,-1.74 -1.68,-0.373 -4.263,-0.945 c 2.239,-0.624 4.476,-1.255 6.71,-1.902 l 7.109,-2.042 c -0.025,0.374 -0.041,0.751 -0.041,1.131 C -6.746,-8.053 -4.1,-3.123 0,0" /></g><g
           transform="translate(1831.6104,468.9834)"
           id="g5125"><path
             id="path5127"
             style="fill:#2aabe2;fill-opacity:1;fill-rule:nonzero;stroke:none"
             d="M 0,0 C 0,-0.005 -0.002,-0.01 -0.003,-0.015 -0.002,-0.01 0,-0.005 0,0" /></g><g
           transform="translate(1831.4775,468.5479)"
           id="g5129"><path
             id="path5131"
             style="fill:#2aabe2;fill-opacity:1;fill-rule:nonzero;stroke:none"
             d="M 0,0 C 0,-0.003 -0.002,-0.006 -0.003,-0.009 -0.002,-0.006 0,-0.003 0,0" /></g><g
           transform="translate(1832.1768,475.3662)"
           id="g5133"><path
             id="path5135"
             style="fill:#2aabe2;fill-opacity:1;fill-rule:nonzero;stroke:none"
             d="m 0,0 c -1.229,0 -2.425,-0.133 -3.58,-0.379 1.865,-0.761 3.182,-2.59 3.182,-4.728 0,-0.287 -0.03,-0.565 -0.076,-0.838 0,0.001 0.001,0.002 0.001,0.002 0.264,0.018 0.528,0.031 0.796,0.031 6.222,0 11.265,-5.043 11.265,-11.264 0,-3.384 -1.494,-6.416 -3.856,-8.481 -0.004,0.002 -0.009,0.004 -0.013,0.005 0.216,-0.069 0.433,-0.134 0.65,-0.204 l 3.599,-1.139 c 0.528,-0.166 1.055,-0.338 1.584,-0.507 2.218,2.883 3.543,6.488 3.543,10.407 C 17.095,-7.653 9.441,0 0,0" /></g><g
           transform="translate(1828.5615,465.5176)"
           id="g5137"><path
             id="path5139"
             style="fill:#2aabe2;fill-opacity:1;fill-rule:nonzero;stroke:none"
             d="M 0,0 C -0.079,-0.032 -0.158,-0.061 -0.238,-0.088 -0.158,-0.061 -0.079,-0.032 0,0" /></g><g
           transform="translate(1828.9834,465.708)"
           id="g5141"><path
             id="path5143"
             style="fill:#2aabe2;fill-opacity:1;fill-rule:nonzero;stroke:none"
             d="M 0,0 C -0.069,-0.034 -0.139,-0.067 -0.209,-0.1 -0.139,-0.067 -0.069,-0.034 0,0" /></g><g
           transform="translate(1825.4561,465.3018)"
           id="g5145"><path
             id="path5147"
             style="fill:#2aabe2;fill-opacity:1;fill-rule:nonzero;stroke:none"
             d="M 0,0 C -0.053,0.014 -0.105,0.026 -0.156,0.041 -0.105,0.026 -0.053,0.014 0,0" /></g><g
           transform="translate(1826.0625,465.1904)"
           id="g5149"><path
             id="path5151"
             style="fill:#2aabe2;fill-opacity:1;fill-rule:nonzero;stroke:none"
             d="M 0,0 C -0.057,0.007 -0.111,0.017 -0.167,0.025 -0.111,0.017 -0.057,0.007 0,0" /></g><g
           transform="translate(1828.1162,465.3613)"
           id="g5153"><path
             id="path5155"
             style="fill:#2aabe2;fill-opacity:1;fill-rule:nonzero;stroke:none"
             d="M 0,0 C -0.089,-0.025 -0.18,-0.047 -0.27,-0.069 -0.18,-0.047 -0.089,-0.025 0,0" /></g><g
           transform="translate(1829.7354,466.1797)"
           id="g5157"><path
             id="path5159"
             style="fill:#2aabe2;fill-opacity:1;fill-rule:nonzero;stroke:none"
             d="M 0,0 C -0.045,-0.033 -0.088,-0.066 -0.133,-0.099 -0.088,-0.066 -0.045,-0.033 0,0" /></g><g
           transform="translate(1827.168,465.1758)"
           id="g5161"><path
             id="path5163"
             style="fill:#2aabe2;fill-opacity:1;fill-rule:nonzero;stroke:none"
             d="M 0,0 C -0.164,-0.016 -0.329,-0.024 -0.497,-0.024 -0.329,-0.024 -0.163,-0.016 0,0" /></g><g
           transform="translate(1830.0391,466.4258)"
           id="g5165"><path
             id="path5167"
             style="fill:#2aabe2;fill-opacity:1;fill-rule:nonzero;stroke:none"
             d="M 0,0 C -0.021,-0.019 -0.041,-0.038 -0.062,-0.056 -0.041,-0.038 -0.021,-0.019 0,0" /></g><g
           transform="translate(1829.376,465.9316)"
           id="g5169"><path
             id="path5171"
             style="fill:#2aabe2;fill-opacity:1;fill-rule:nonzero;stroke:none"
             d="M 0,0 C -0.057,-0.035 -0.115,-0.071 -0.174,-0.105 -0.115,-0.071 -0.057,-0.035 0,0" /></g><g
           transform="translate(1821.2363,458.1904)"
           id="g5173"><path
             id="path5175"
             style="fill:#2aabe2;fill-opacity:1;fill-rule:nonzero;stroke:none"
             d="m 0,0 c 0,2.931 1.12,5.601 2.956,7.604 -1.567,0.873 -2.63,2.543 -2.63,4.464 0,0.566 0.096,1.108 0.267,1.617 -4.1,-3.123 -6.746,-8.053 -6.746,-13.604 0,-0.381 0.015,-0.758 0.041,-1.132 l 0.136,-0.039 3.623,-1.044 3.616,-1.073 -0.87,0.258 C 0.138,-2.009 0,-1.021 0,0" /></g><g
           transform="translate(1824.8135,465.5049)"
           id="g5177"><path
             id="path5179"
             style="fill:#2aabe2;fill-opacity:1;fill-rule:nonzero;stroke:none"
             d="M 0,0 C -0.022,0.009 -0.045,0.015 -0.065,0.024 -0.045,0.015 -0.022,0.009 0,0" /></g><g
           transform="translate(1827.6514,465.2471)"
           id="g5181"><path
             id="path5183"
             style="fill:#2aabe2;fill-opacity:1;fill-rule:nonzero;stroke:none"
             d="M 0,0 C -0.105,-0.021 -0.211,-0.034 -0.318,-0.048 -0.211,-0.034 -0.105,-0.021 0,0" /></g><g
           transform="translate(1818.8838,456.0566)"
           id="g5185"><path
             id="path5187"
             style="fill:#000000;fill-opacity:1;fill-rule:nonzero;stroke:none"
             d="m 0,0 -3.623,1.044 -0.137,0.039 -7.109,2.042 c -2.234,0.647 -4.471,1.278 -6.71,1.902 l 4.264,0.946 1.679,0.373 -0.032,1.739 -0.006,0.334 -0.002,0.041 v 0.006 l 0.003,0.076 0.006,0.185 0.024,0.737 c 0.003,0.263 0.034,0.442 0.049,0.664 l 0.055,0.64 c 0.111,0.888 0.238,1.777 0.456,2.645 0.401,1.744 1.034,3.432 1.863,5.017 0.814,1.593 1.839,3.077 3.021,4.424 1.174,1.355 2.547,2.528 4.006,3.565 1.472,1.022 3.076,1.856 4.753,2.496 1.684,0.617 3.438,1.056 5.229,1.269 0.893,0.087 1.808,0.155 2.693,0.138 l 0.737,-0.01 0.645,-0.042 c 0.423,-0.012 0.885,-0.08 1.331,-0.123 1.797,-0.219 3.56,-0.686 5.254,-1.339 1.694,-0.655 3.309,-1.529 4.81,-2.575 1.485,-1.065 2.862,-2.3 4.059,-3.701 0.595,-0.702 1.159,-1.434 1.668,-2.205 0.27,-0.377 0.496,-0.78 0.746,-1.17 0.219,-0.407 0.467,-0.802 0.664,-1.22 0.837,-1.656 1.493,-3.416 1.892,-5.247 l 0.148,-0.686 0.117,-0.693 C 32.641,10.848 32.678,10.38 32.739,9.913 32.797,9.445 32.812,8.974 32.852,8.503 32.857,8.069 32.879,7.521 32.868,7.064 32.837,5.212 32.57,3.285 32.08,1.443 31.589,-0.406 30.868,-2.208 29.937,-3.911 29.098,-5.438 28.078,-6.875 26.928,-8.22 c -0.028,0.009 -0.055,0.019 -0.083,0.028 -0.529,0.169 -1.056,0.34 -1.584,0.506 l -3.599,1.139 c -0.217,0.07 -0.434,0.136 -0.65,0.204 0.004,-0.001 0.009,-0.003 0.013,-0.005 2.362,2.066 3.856,5.098 3.856,8.482 0,6.22 -5.043,11.263 -11.265,11.263 -0.268,0 -0.532,-0.012 -0.796,-0.031 0,0 -10e-4,-10e-4 -10e-4,-0.002 -0.024,-0.147 -0.054,-0.294 -0.092,-0.437 0,-0.005 -0.002,-0.01 -0.003,-0.015 -0.037,-0.142 -0.08,-0.283 -0.13,-0.421 0,-0.003 -0.002,-0.006 -0.003,-0.009 -0.294,-0.823 -0.794,-1.546 -1.436,-2.113 -0.021,-0.018 -0.041,-0.038 -0.061,-0.056 -0.078,-0.067 -0.16,-0.128 -0.242,-0.19 C 10.807,10.09 10.764,10.057 10.719,10.024 10.646,9.973 10.568,9.924 10.492,9.875 10.436,9.84 10.377,9.804 10.318,9.77 10.246,9.729 10.173,9.689 10.1,9.651 10.03,9.617 9.961,9.584 9.891,9.552 9.82,9.52 9.75,9.489 9.678,9.461 9.599,9.429 9.52,9.4 9.439,9.373 9.371,9.35 9.302,9.326 9.232,9.305 9.144,9.279 9.053,9.258 8.963,9.235 8.897,9.221 8.833,9.203 8.768,9.19 8.662,9.17 8.557,9.156 8.449,9.143 8.395,9.135 8.34,9.125 8.284,9.119 8.121,9.104 7.955,9.095 7.787,9.095 7.581,9.095 7.379,9.11 7.179,9.134 7.122,9.141 7.067,9.15 7.012,9.159 6.863,9.182 6.717,9.21 6.572,9.245 6.52,9.259 6.467,9.271 6.416,9.286 6.25,9.333 6.088,9.386 5.93,9.448 5.907,9.457 5.885,9.463 5.864,9.473 5.673,9.55 5.486,9.639 5.309,9.738 3.473,7.734 2.353,5.064 2.353,2.134 2.353,1.113 2.49,0.125 2.745,-0.815 l 0.87,-0.258 z m 25.039,-8.531 c 2.461,-0.52 4.931,-1.008 7.402,-1.488 -1.804,0.601 -3.612,1.191 -5.421,1.771 1.312,1.172 2.506,2.494 3.542,3.946 1.139,1.645 2.088,3.438 2.813,5.332 0.691,1.914 1.15,3.885 1.366,5.961 0.222,1.995 0.161,4.098 -0.153,6.131 -0.294,1.989 -0.862,3.941 -1.639,5.812 0.057,0.05 0.11,0.097 0.17,0.151 0.202,0.186 0.41,0.423 0.641,0.665 0.112,0.122 0.23,0.25 0.35,0.382 0.117,0.138 0.228,0.287 0.344,0.436 0.231,0.301 0.478,0.605 0.687,0.954 0.216,0.342 0.445,0.683 0.629,1.059 0.197,0.364 0.382,0.735 0.537,1.119 0.17,0.374 0.303,0.76 0.429,1.136 0.135,0.37 0.22,0.752 0.322,1.104 0.078,0.365 0.163,0.706 0.212,1.038 0.056,0.33 0.101,0.637 0.128,0.925 0.127,1.142 0.066,1.886 0.066,1.886 0,0 -0.317,-0.678 -0.954,-1.556 -0.154,-0.22 -0.334,-0.451 -0.527,-0.686 C 35.796,27.308 35.572,27.073 35.357,26.831 35.12,26.602 34.9,26.355 34.641,26.138 34.389,25.914 34.138,25.693 33.865,25.5 33.607,25.293 33.331,25.114 33.06,24.948 32.801,24.771 32.517,24.637 32.258,24.502 32.006,24.358 31.734,24.265 31.495,24.166 31.373,24.117 31.26,24.067 31.145,24.027 31.028,23.994 30.914,23.961 30.807,23.93 c -0.21,-0.057 -0.389,-0.119 -0.56,-0.155 -0.172,0.24 -0.347,0.476 -0.527,0.71 -1.283,1.659 -2.784,3.151 -4.435,4.461 -1.668,1.287 -3.485,2.401 -5.43,3.251 -1.949,0.834 -4.001,1.452 -6.103,1.785 -0.531,0.073 -1.041,0.164 -1.603,0.205 l -0.826,0.07 -0.74,0.028 C 9.502,34.331 8.448,34.281 7.381,34.202 5.256,33.999 3.146,33.55 1.127,32.832 c -2.012,-0.731 -3.942,-1.699 -5.722,-2.895 -1.772,-1.205 -3.407,-2.619 -4.826,-4.228 -1.421,-1.605 -2.665,-3.375 -3.643,-5.288 -0.987,-1.908 -1.735,-3.94 -2.208,-6.035 -0.254,-1.044 -0.406,-2.109 -0.531,-3.173 -0.041,-0.486 -0.082,-1.02 -0.1,-1.49 l -4.405,-1.047 -6.036,-1.462 -7.989,-1.937 7.931,-1.953 7.32,-1.802 c 2.439,-0.601 4.883,-1.19 7.33,-1.764 l 7.337,-1.738 3.669,-0.867 3.678,-0.836 7.354,-1.671 7.37,-1.613 c 1.23,-0.265 2.455,-0.541 3.689,-0.793 z" /></g><g
           transform="translate(1902.2627,423.2109)"
           id="g5189"><path
             id="path5191"
             style="fill:#e90e8b;fill-opacity:1;fill-rule:nonzero;stroke:none"
             d="m 0,0 c -0.752,-0.143 -1.588,-0.344 -2.515,-0.493 -0.923,-0.161 -1.92,-0.344 -2.98,-0.487 -1.056,-0.175 -2.179,-0.277 -3.334,-0.418 -0.576,-0.079 -1.169,-0.097 -1.765,-0.15 -0.597,-0.044 -1.2,-0.095 -1.81,-0.118 -0.611,-0.025 -1.224,-0.067 -1.842,-0.081 -0.616,-0.005 -1.236,-0.01 -1.858,-0.015 -0.619,-0.015 -1.24,0.014 -1.857,0.017 -0.619,0.002 -1.234,0.029 -1.844,0.066 -0.61,0.043 -1.217,0.044 -1.816,0.095 -0.599,0.043 -1.191,0.085 -1.774,0.126 -0.581,0.055 -1.154,0.109 -1.712,0.163 -0.563,0.044 -1.112,0.098 -1.644,0.164 -1.067,0.123 -2.08,0.231 -3.012,0.355 -1.87,0.242 -3.428,0.444 -4.52,0.586 -1.092,0.146 -1.721,0.21 -1.725,0.21 h -10e-4 c 0,0 0.597,-0.21 1.652,-0.545 0.525,-0.17 1.166,-0.37 1.91,-0.57 0.742,-0.21 1.581,-0.447 2.506,-0.656 0.462,-0.11 0.943,-0.225 1.442,-0.343 0.501,-0.1 1.02,-0.205 1.556,-0.311 1.066,-0.221 2.205,-0.396 3.382,-0.567 1.184,-0.135 2.406,-0.313 3.659,-0.376 0.423,-0.032 0.849,-0.056 1.277,-0.075 0.205,-0.009 0.409,-0.018 0.614,-0.023 0.634,-0.014 1.272,-0.053 1.909,-0.047 0.639,0.014 1.277,0.029 1.913,0.044 0.634,0.023 1.265,0.077 1.892,0.113 0.313,0.023 0.626,0.035 0.936,0.068 0.308,0.039 0.616,0.077 0.922,0.114 0.609,0.084 1.216,0.133 1.804,0.242 0.027,0.004 0.053,0.009 0.08,0.014 0.09,0.015 0.179,0.029 0.27,0.044 0.213,-0.098 0.424,-0.195 0.641,-0.294 0.332,-0.167 0.693,-0.283 1.018,-0.479 0.327,-0.186 0.661,-0.375 0.998,-0.566 0.167,-0.096 0.339,-0.186 0.503,-0.288 0.159,-0.111 0.32,-0.222 0.48,-0.334 0.321,-0.226 0.652,-0.44 0.971,-0.675 0.589,-0.535 1.25,-0.994 1.793,-1.614 0.59,-0.559 1.1,-1.224 1.635,-1.871 0.241,-0.348 0.485,-0.699 0.729,-1.051 0.251,-0.347 0.458,-0.74 0.693,-1.108 0.879,-1.522 1.676,-3.172 2.374,-4.916 0.481,-1.167 0.93,-2.368 1.382,-3.577 0.08,-0.227 0.161,-0.457 0.241,-0.684 0.174,-0.486 0.347,-0.978 0.513,-1.471 0.655,-2.013 1.3,-3.993 1.925,-5.91 0.328,-0.971 0.648,-1.933 0.993,-2.87 0.349,-0.938 0.702,-1.858 1.074,-2.747 0.384,-0.885 0.773,-1.744 1.185,-2.563 0.427,-0.814 0.848,-1.595 1.307,-2.321 0.906,-1.455 1.901,-2.699 2.879,-3.693 0.976,-0.999 1.955,-1.728 2.785,-2.258 0.822,-0.539 1.537,-0.857 2.006,-1.067 0.481,-0.189 0.738,-0.29 0.738,-0.29 0,0 -0.206,0.183 -0.592,0.527 -0.197,0.167 -0.414,0.395 -0.675,0.646 -0.132,0.125 -0.259,0.28 -0.405,0.428 -0.144,0.15 -0.299,0.306 -0.448,0.487 -0.618,0.696 -1.289,1.598 -1.944,2.682 -0.653,1.087 -1.293,2.356 -1.855,3.808 -0.147,0.368 -0.289,0.748 -0.427,1.138 0.193,-0.154 0.387,-0.305 0.573,-0.453 0.305,-0.226 0.571,-0.48 0.889,-0.657 0.306,-0.188 0.604,-0.372 0.893,-0.549 0.29,-0.174 0.559,-0.359 0.856,-0.48 0.58,-0.264 1.106,-0.521 1.608,-0.726 0.525,-0.174 1,-0.33 1.428,-0.459 0.214,-0.063 0.414,-0.134 0.603,-0.178 0.191,-0.034 0.37,-0.067 0.537,-0.097 0.334,-0.06 0.617,-0.111 0.848,-0.152 0.463,-0.076 0.71,-0.116 0.71,-0.116 0,0 -0.214,0.129 -0.616,0.371 -0.203,0.118 -0.452,0.262 -0.744,0.433 -0.147,0.084 -0.304,0.176 -0.473,0.274 -0.164,0.099 -0.324,0.223 -0.499,0.344 -0.342,0.238 -0.72,0.501 -1.132,0.788 -0.385,0.32 -0.801,0.667 -1.245,1.037 -0.438,0.367 -0.843,0.828 -1.296,1.264 -0.231,0.214 -0.416,0.49 -0.635,0.736 -0.21,0.256 -0.433,0.507 -0.641,0.777 -0.197,0.283 -0.398,0.57 -0.602,0.864 -0.103,0.145 -0.206,0.291 -0.31,0.439 -0.091,0.157 -0.184,0.317 -0.277,0.477 -0.189,0.317 -0.38,0.639 -0.574,0.967 -0.174,0.343 -0.349,0.691 -0.526,1.043 -0.691,1.423 -1.334,2.971 -1.91,4.655 -0.153,0.412 -0.285,0.846 -0.431,1.276 -0.146,0.431 -0.297,0.859 -0.436,1.306 -0.287,0.894 -0.578,1.798 -0.87,2.71 -0.001,0.002 -0.002,0.006 -0.003,0.008 -0.107,0.36 -0.215,0.717 -0.329,1.081 -0.161,0.507 -0.337,1.024 -0.523,1.56 -0.371,1.055 -0.745,2.109 -1.186,3.16 -0.873,2.095 -1.905,4.189 -3.238,6.108 -0.322,0.485 -0.679,0.952 -1.034,1.411 -0.379,0.446 -0.743,0.897 -1.151,1.314 -0.387,0.432 -0.815,0.825 -1.228,1.223 -0.443,0.37 -0.866,0.754 -1.33,1.083 -0.727,0.557 -1.486,1.044 -2.258,1.471 l 0.041,0.012 c 0.918,0.245 1.733,0.569 2.462,0.822 0.362,0.134 0.706,0.242 1.014,0.372 0.308,0.13 0.592,0.249 0.847,0.358 1.02,0.431 1.593,0.696 1.593,0.696 0,0 -0.16,-0.031 -0.455,-0.094 C 2.891,0.633 2.471,0.542 1.939,0.42 1.403,0.292 0.752,0.146 0,0" /></g></g></g></g></svg>
