<?xml version="1.0" encoding="UTF-8" standalone="no"?>
<svg
   xmlns:dc="http://purl.org/dc/elements/1.1/"
   xmlns:cc="http://creativecommons.org/ns#"
   xmlns:rdf="http://www.w3.org/1999/02/22-rdf-syntax-ns#"
   xmlns:svg="http://www.w3.org/2000/svg"
   xmlns="http://www.w3.org/2000/svg"
   viewBox="0 0 960.60114 424.42212"
   height="424.42212"
   width="960.60114"
   xml:space="preserve"
   id="svg3718"
   version="1.1"><metadata
     id="metadata3724"><rdf:RDF><cc:Work
         rdf:about=""><dc:format>image/svg+xml</dc:format><dc:type
           rdf:resource="http://purl.org/dc/dcmitype/StillImage" /><dc:title></dc:title></cc:Work></rdf:RDF></metadata><defs
     id="defs3722"><clipPath
       id="clipPath3734"
       clipPathUnits="userSpaceOnUse"><path
         id="path3732"
         d="M 0,612 H 792 V 0 H 0 Z" /></clipPath></defs><g
     transform="matrix(1.3333333,0,0,-1.3333333,-51.634237,628.7267)"
     id="g3726"><g
       transform="matrix(2.7922342,0,0,2.7922342,-705.37793,-539.60976)"
       id="g3728"><g
         clip-path="url(#clipPath3734)"
         id="g3730"><g
           transform="translate(461.1289,296.9414)"
           id="g3736"><path
             id="path3738"
             style="fill:#231f20;fill-opacity:1;fill-rule:nonzero;stroke:none"
             d="m 0,0 c -1.096,-8.867 -4.205,-17.643 -9.781,-17.643 -3.008,0 -5.293,1.631 -5.936,4.942 3.311,5.541 4.494,10.642 4.494,10.642 0,0 -1.797,-2.031 -4.423,-4.625 0.964,8.536 4.701,21.951 11.99,21.951 2.56,0 3.564,-1.738 3.84,-4.754 C -2.285,9.599 -3.84,6.766 -3.84,4.113 -3.84,1.92 -2.65,0 0,0 m -66.793,56.931 c 0.023,-0.098 0.059,-0.189 0.059,-0.293 0,-0.674 -0.543,-1.219 -1.217,-1.219 -0.674,0 -1.219,0.545 -1.219,1.219 0,0.545 0.363,0.988 0.857,1.145 -0.294,0.08 -0.599,0.136 -0.919,0.136 -0.614,0 -1.18,-0.169 -1.684,-0.445 v -0.008 c 0,0 -0.008,0.002 -0.01,0.002 -1.088,-0.599 -1.834,-1.744 -1.834,-3.074 0,-0.871 0.326,-1.656 0.848,-2.271 -0.979,0.906 -1.598,2.195 -1.598,3.632 0,1.061 0.342,2.039 0.91,2.846 -0.099,0.141 -0.187,0.287 -0.263,0.434 -0.246,0.521 -0.321,1.045 -0.344,1.423 -0.018,0.381 0.014,0.625 0.014,0.625 0,0 0.093,-0.23 0.285,-0.533 0.191,-0.299 0.49,-0.668 0.832,-0.898 0.101,-0.07 0.201,-0.119 0.299,-0.16 0.869,0.752 1.988,1.222 3.226,1.222 2.737,0 4.957,-2.22 4.957,-4.959 0,-0.054 -0.006,-0.109 -0.008,-0.166 l 2.61,-0.599 -0.016,-0.01 -4.771,-1.299 c 0.047,0.231 0.072,0.469 0.072,0.713 0,0.998 -0.42,1.895 -1.086,2.537 m -60.826,-90.476 c -1.098,-5.393 -3.492,-6.879 -5.303,-7.129 -1.917,-0.265 -3.458,1.151 -3.656,3.016 -0.522,4.91 4.297,7.496 10.056,9.416 z m 178.168,15.719 c -2.651,0 -3.381,1.281 -3.381,2.834 0,2.012 3.93,18.101 4.387,21.117 0.091,0.732 0.183,1.371 0.183,2.103 0,6.215 -3.775,11.41 -10.513,11.518 C 37.203,19.81 32.998,17.552 29.25,14.81 l 1.096,4.936 H 17.184 L 14.701,8.043 C 13.299,7.133 11.773,6.4 9.689,6.4 8.41,6.4 7.588,6.674 7.039,7.223 6.857,13.896 4.641,20.054 -4.021,20.66 c -11.6,0.81 -24.043,-9.69 -24.043,-32.178 0,-1.738 0.136,-3.312 0.396,-4.748 -1.457,-0.765 -2.838,-1.275 -4.051,-1.377 -3.552,-0.3 -4.57,1.372 -4.57,3.383 0,0.822 0.182,1.828 0.457,2.926 0,0 3.049,13.973 3.748,17.459 1.756,8.763 -2.41,14.179 -10.33,14.535 -5.908,0.265 -9.27,-2.657 -12.08,-7.44 -6.418,-10.915 -8,-16.915 -9.002,-16.327 -0.961,0.562 14.836,50.577 7.73,61.763 -5.037,7.929 -14.205,8.125 -19.318,3.355 -0.328,0.231 -0.617,0.582 -0.803,0.873 -0.191,0.303 -0.285,0.532 -0.285,0.532 0,0 -0.033,-0.245 -0.014,-0.625 0.024,-0.379 0.098,-0.903 0.344,-1.424 0.006,-0.01 0.012,-0.02 0.018,-0.032 -3.287,-2.994 -12.293,0.209 -12.295,-4.753 h 2.646 c 0.149,0.439 0.553,0.761 1.039,0.761 0.612,0 1.11,-0.498 1.11,-1.111 0,-0.611 -0.498,-1.109 -1.11,-1.109 -0.486,0 -0.888,0.322 -1.037,0.759 h -2.586 c 0.163,-1.199 0.78,-2.3 1.564,-3.058 1.958,-1.897 8.239,-3.052 11.768,-3.548 0.751,-0.106 1.095,-0.173 1.605,-0.253 0.505,-0.125 0.982,-0.225 1.417,-0.351 0.432,-0.149 0.828,-0.258 1.165,-0.417 0.342,-0.137 0.625,-0.293 0.853,-0.425 0.455,-0.28 0.652,-0.508 0.652,-0.508 0,0 -0.253,0.164 -0.74,0.313 -0.244,0.079 -0.541,0.158 -0.891,0.223 -0.339,0.091 -0.745,0.123 -1.171,0.192 -0.863,0.114 -1.88,0.169 -2.967,0.215 -0.543,0 -1.103,0.027 -1.677,0.043 -3.785,0.037 -34.386,0.088 -34.386,0.088 l 1.604,-1.613 -2.347,-1.612 h 10.638 l -4.996,-21.64 h 3.5 l 4.995,21.635 h 22.606 c -4.168,-1.381 -7.934,-1.596 -7.336,-3.362 1.101,-3.252 14.228,0.836 13.41,-6.812 -0.071,-0.819 -0.172,-1.696 -0.295,-2.616 -3.543,-20.269 -10.084,-40.396 -9.715,-46.378 -2.383,-1.965 -4.497,-3.303 -6.918,-3.641 -3.596,-0.503 -4.515,1.588 -4.57,3.475 -0.039,1.307 0.023,1.932 6.215,30.257 h 5.486 l 0.731,3.657 h -5.485 c 1.174,5.558 2.178,10.189 2.707,12.615 h -13.129 c 0,0 -6.156,-27.925 -8.456,-39.517 -0.138,-0.698 -0.365,-1.791 -0.586,-3.065 -0.021,-0.121 -0.046,-0.254 -0.065,-0.363 0,0 -0.004,-0.027 -0.009,-0.066 -0.211,-1.268 -0.402,-2.69 -0.498,-4.088 -2.471,-2.332 -5.291,-4.121 -8.243,-5.551 l 8.501,40.04 h -13.164 l -7.222,-33.823 c 0,0 -3.957,-3.285 -6.855,-3.567 -3.64,-0.353 -4.572,1.463 -4.572,3.475 0,0.822 0.183,1.828 0.367,2.834 l 6.581,31.081 h -13.163 l -6.582,-31.081 c -0.367,-1.736 -0.549,-3.291 -0.549,-4.662 0,-6.856 4.417,-10.508 11.426,-9.873 6.516,0.592 12.25,6.855 12.25,6.855 l -1.28,-6.215 c -8.683,-2.56 -15.722,-5.302 -15.722,-13.713 0,-5.941 5.209,-9.873 10.787,-9.873 6.033,0 13.712,2.469 16.454,15.541 l 1.828,8.776 c 3.781,1.375 7.14,2.59 9.699,4.197 0.001,-0.002 0.001,-0.004 0.002,-0.006 l 0.006,0.002 c 1.491,-3.992 5.262,-5.97 10.62,-5.66 5.248,0.303 9.508,3.816 13.748,7.791 0.66,-3.478 2.422,-6.799 6.436,-8.023 1.181,-0.412 2.408,-0.557 3.587,-0.502 h 0.02 l 0.002,0.002 c 0.525,0.025 1.043,0.086 1.539,0.183 6,1.168 8.467,6.231 18.133,25.565 2.562,5.129 3.562,6.812 3.375,4.625 -0.188,-2.188 -4.176,-14.875 -4.176,-19.678 0,-6.856 4.205,-10.512 11.336,-10.512 5.398,0 9.789,1.567 13.342,3.905 2.267,-2.6 5.799,-3.905 10.789,-3.905 9.142,0 19.105,9.051 20.844,27.424 2.535,0.701 4.939,1.764 7.074,3.065 l -6.348,-29.94 h 13.164 l 7.772,36.931 c 1.918,1.28 3.564,1.92 5.758,1.92 2.468,0 4.205,-2.103 4.205,-5.394 0,-0.73 -0.092,-1.553 -0.274,-2.377 l -3.474,-16.453 c -0.366,-1.738 -0.549,-3.201 -0.549,-4.664 0,-6.856 3.383,-10.512 9.326,-10.512 5.377,0 16.877,2.565 19.961,24.194 -0.111,-0.774 -6.535,-15.51 -12.832,-15.51" /></g><g
           transform="translate(334.1934,320.1968)"
           id="g3740"><path
             id="path3742"
             style="fill:#231f20;fill-opacity:1;fill-rule:nonzero;stroke:none"
             d="M 0,0 C 2.071,0 3.62,0.922 4.857,1.887 L 4.484,0.275 h 3.499 l 5.741,24.866 H 10.225 L 5.473,4.559 C 4.026,3.684 2.929,3.314 1.823,3.314 c -1.197,0 -1.657,0.6 -1.359,1.889 l 4.602,19.938 h -3.5 L -3.207,4.465 C -3.855,1.658 -2.902,0 0,0" /></g><g
           transform="translate(307.3633,320.4722)"
           id="g3744"><path
             id="path3746"
             style="fill:#231f20;fill-opacity:1;fill-rule:nonzero;stroke:none"
             d="m 0,0 4.518,19.57 c 1.226,0.92 2.539,1.426 4.367,1.565 l 0.914,3.959 c -1.888,0 -3.159,-0.92 -4.665,-2.854 l 0.605,2.625 h -3.5 L -3.501,0 Z" /></g><g
           transform="translate(319.5947,320.1968)"
           id="g3748"><path
             id="path3750"
             style="fill:#231f20;fill-opacity:1;fill-rule:nonzero;stroke:none"
             d="m 0,0 h 0.828 c 3.731,0 6.053,1.887 6.915,5.617 l 1.105,4.789 H 5.395 L 4.257,5.479 C 3.917,4.006 3.011,3.27 1.537,3.27 h -0.69 c -1.474,0 -2.04,0.736 -1.701,2.209 l 3.338,14.458 c 0.341,1.473 1.246,2.209 2.72,2.209 h 0.645 c 1.473,0 2.041,-0.736 1.702,-2.209 L 6.604,15.838 h 3.453 l 0.936,4.053 c 0.851,3.683 -0.567,5.525 -4.252,5.525 H 5.867 c -3.73,0 -6.053,-1.889 -6.914,-5.617 L -4.321,5.617 C -5.184,1.887 -3.73,0 0,0" /></g><g
           transform="translate(354.374,339.5952)"
           id="g3752"><path
             id="path3754"
             style="fill:#231f20;fill-opacity:1;fill-rule:nonzero;stroke:none"
             d="m 0,0 h -3.501 l -4.413,-19.123 h 3.5 z" /></g><g
           transform="translate(357.2793,351.7827)"
           id="g3756"><path
             id="path3758"
             style="fill:#231f20;fill-opacity:1;fill-rule:nonzero;stroke:none"
             d="m 0,0 h -3.683 l -0.904,-3.914 h 3.685 z" /></g><g
           transform="translate(300.2344,296.3066)"
           id="g3760"><path
             id="path3762"
             style="fill:#231f20;fill-opacity:1;fill-rule:nonzero;stroke:none"
             d="m 0,0 c -3.017,-14.535 -4.902,-17.889 -9.782,-18.465 -1.452,-0.172 -3.747,0 -5.942,1.645 l 6.582,30.714 c 1.737,1.189 3.474,1.92 5.211,1.92 2.925,0 5.119,-1.096 5.119,-6.582 C 1.188,7.039 0.823,4.023 0,0 m -0.736,21.3 c -3.182,-0.174 -7.4,-2.652 -7.4,-2.652 l 0.365,1.738 h -13.163 l -12.81,-60.425 h 13.106 l 3.726,17.551 c 2.742,-1.737 5.577,-2.742 8.593,-2.742 9.324,0 17.186,6.673 20.02,26.328 0.366,2.377 0.548,4.478 0.548,6.398 0,9.416 -3.422,14.324 -12.985,13.804" /></g><g
           transform="translate(306.9004,351.7827)"
           id="g3764"><path
             id="path3766"
             style="fill:#231f20;fill-opacity:1;fill-rule:nonzero;stroke:none"
             d="m 0,0 h -3.683 l -0.904,-3.914 h 3.683 z" /></g><g
           transform="translate(285.4717,320.1968)"
           id="g3768"><path
             id="path3770"
             style="fill:#231f20;fill-opacity:1;fill-rule:nonzero;stroke:none"
             d="m 0,0 h 0.829 c 3.73,0 6.053,1.887 6.914,5.617 l 1.106,4.789 H 5.395 L 4.257,5.479 C 3.917,4.006 3.011,3.27 1.537,3.27 h -0.69 c -1.474,0 -2.04,0.736 -1.701,2.209 l 3.338,14.458 c 0.341,1.473 1.246,2.209 2.72,2.209 h 0.645 c 1.474,0 2.041,-0.736 1.702,-2.209 L 6.604,15.838 h 3.453 l 0.936,4.053 c 0.851,3.683 -0.567,5.525 -4.252,5.525 H 5.867 c -3.73,0 -6.053,-1.889 -6.914,-5.617 L -4.322,5.617 C -5.184,1.887 -3.73,0 0,0" /></g><g
           transform="translate(299.5801,320.4722)"
           id="g3772"><path
             id="path3774"
             style="fill:#231f20;fill-opacity:1;fill-rule:nonzero;stroke:none"
             d="M 0,0 5.74,24.865 H 2.239 L -3.499,0 Z" /></g></g></g></g></svg>
