<?xml version="1.0" encoding="UTF-8" standalone="no"?>
<svg
   xmlns:dc="http://purl.org/dc/elements/1.1/"
   xmlns:cc="http://creativecommons.org/ns#"
   xmlns:rdf="http://www.w3.org/1999/02/22-rdf-syntax-ns#"
   xmlns:svg="http://www.w3.org/2000/svg"
   xmlns="http://www.w3.org/2000/svg"
   viewBox="0 0 199.41333 215.23466"
   height="215.23466"
   width="199.41333"
   xml:space="preserve"
   id="svg3814"
   version="1.1"><metadata
     id="metadata3820"><rdf:RDF><cc:Work
         rdf:about=""><dc:format>image/svg+xml</dc:format><dc:type
           rdf:resource="http://purl.org/dc/dcmitype/StillImage" /><dc:title></dc:title></cc:Work></rdf:RDF></metadata><defs
     id="defs3818"><clipPath
       id="clipPath3830"
       clipPathUnits="userSpaceOnUse"><path
         id="path3828"
         d="M 0,612 H 792 V 0 H 0 Z" /></clipPath></defs><g
     transform="matrix(1.3333333,0,0,-1.3333333,-427.73759,516.16372)"
     id="g3822"><g
       id="g3824"><g
         clip-path="url(#clipPath3830)"
         id="g3826"><g
           transform="translate(391.0352,375.5918)"
           id="g3832"><path
             id="path3834"
             style="fill:#231f20;fill-opacity:1;fill-rule:nonzero;stroke:none"
             d="m 0,0 c 0.005,0.071 0.005,0.141 0.013,0.208 0.395,3.404 3.474,5.845 6.875,5.45 1.539,-0.179 2.861,-0.925 3.835,-1.984 0.127,0.037 0.256,0.083 0.394,0.156 0.457,0.236 0.883,0.653 1.163,0.997 0.281,0.349 0.431,0.622 0.431,0.622 0,0 0.003,-0.307 -0.072,-0.779 C 12.556,4.202 12.387,3.563 12.005,2.95 11.891,2.778 11.761,2.609 11.615,2.448 12.205,1.363 12.49,0.099 12.338,-1.219 12.13,-3.007 11.177,-4.52 9.829,-5.505 c 0.737,0.69 1.254,1.619 1.382,2.702 C 11.4,-1.15 10.64,0.379 9.372,1.281 9.369,1.281 9.359,1.28 9.359,1.28 L 9.362,1.291 C 8.775,1.705 8.095,1.998 7.331,2.086 6.934,2.132 6.547,2.105 6.171,2.049 6.763,1.784 7.149,1.181 7.071,0.503 6.973,-0.335 6.218,-0.935 5.383,-0.837 4.544,-0.74 3.947,0.016 4.043,0.854 4.059,0.981 4.115,1.091 4.16,1.209 3.238,0.507 2.586,-0.548 2.443,-1.789 2.41,-2.092 2.407,-2.392 2.431,-2.685 l -5.744,2.301 -0.018,0.016 z m 12.057,-11.872 c 4.697,-1.267 11.897,-4.312 19.261,-9.43 4.645,-3.227 9.35,-7.286 13.541,-12.245 l 1.075,1.076 c -0.198,0.6 -0.065,1.281 0.408,1.754 0.67,0.673 1.762,0.671 2.432,10e-4 0.67,-0.671 0.67,-1.763 -0.003,-2.435 -0.474,-0.471 -1.155,-0.604 -1.75,-0.407 l -1.178,-1.178 c 1.978,-2.461 3.827,-5.136 5.476,-8.032 l 2.106,1.408 c -0.078,0.626 0.184,1.267 0.74,1.638 0.789,0.531 1.861,0.318 2.389,-0.472 0.524,-0.788 0.311,-1.859 -0.478,-2.388 -0.558,-0.369 -1.252,-0.365 -1.797,-0.056 l -2.217,-1.482 c 1.457,-2.723 2.742,-5.632 3.798,-8.736 l 3.176,1.315 c 0.047,0.629 0.431,1.206 1.049,1.462 0.878,0.366 1.885,-0.052 2.249,-0.93 0.36,-0.875 -0.058,-1.884 -0.933,-2.248 -0.623,-0.254 -1.3,-0.114 -1.776,0.296 l -3.281,-1.361 c 0.895,-2.876 1.596,-5.916 2.066,-9.122 l 4.147,0.824 c 0.166,0.607 0.654,1.099 1.311,1.229 0.932,0.189 1.838,-0.42 2.023,-1.35 0.187,-0.931 -0.423,-1.837 -1.353,-2.024 -0.659,-0.128 -1.299,0.14 -1.683,0.636 l -4.248,-0.845 c 0.356,-2.93 0.52,-5.997 0.462,-9.201 h 4.776 c 0.283,0.564 0.856,0.95 1.526,0.95 0.951,0.003 1.722,-0.768 1.722,-1.718 0,-0.948 -0.774,-1.719 -1.722,-1.722 -0.672,0.006 -1.246,0.393 -1.526,0.953 h -4.809 c -0.034,-0.884 -0.083,-1.78 -0.153,-2.684 -0.063,-1.01 -0.146,-2.026 -0.263,-3.043 -0.132,-1.139 -0.308,-2.26 -0.506,-3.373 l 4.741,-0.943 c 0.387,0.493 1.026,0.763 1.683,0.631 0.932,-0.182 1.537,-1.091 1.353,-2.021 -0.185,-0.929 -1.093,-1.534 -2.023,-1.352 -0.659,0.135 -1.147,0.628 -1.313,1.23 l -4.735,0.943 c -0.631,-3.033 -1.503,-5.965 -2.603,-8.773 l 4.408,-1.826 c 0.476,0.41 1.156,0.548 1.776,0.291 0.878,-0.361 1.293,-1.368 0.93,-2.246 -0.361,-0.875 -1.371,-1.293 -2.249,-0.93 -0.617,0.26 -0.999,0.839 -1.046,1.462 l -4.409,1.826 c -1.205,-2.837 -2.638,-5.545 -4.279,-8.097 l 3.931,-2.627 c 0.548,0.308 1.239,0.311 1.799,-0.063 0.79,-0.524 1.003,-1.593 0.473,-2.383 -0.525,-0.789 -1.594,-0.999 -2.386,-0.475 -0.556,0.376 -0.818,1.018 -0.74,1.641 l -3.931,2.627 c -1.735,-2.539 -3.675,-4.915 -5.793,-7.11 l 3.319,-3.32 c 0.596,0.198 1.277,0.065 1.751,-0.41 0.673,-0.67 0.673,-1.76 0,-2.43 -0.669,-0.673 -1.759,-0.67 -2.432,0 -0.473,0.475 -0.605,1.158 -0.407,1.752 l -3.317,3.316 c -2.188,-2.144 -4.559,-4.096 -7.075,-5.843 l 2.591,-3.875 c 0.624,0.075 1.265,-0.185 1.637,-0.746 0.529,-0.787 0.316,-1.856 -0.473,-2.383 -0.79,-0.528 -1.857,-0.315 -2.387,0.474 -0.371,0.559 -0.368,1.255 -0.056,1.8 l -2.581,3.862 c -2.561,-1.673 -5.269,-3.125 -8.089,-4.353 l 1.768,-4.269 c 0.626,-0.047 1.205,-0.427 1.462,-1.048 0.363,-0.875 -0.055,-1.883 -0.932,-2.247 -0.875,-0.363 -1.882,0.055 -2.246,0.933 -0.255,0.62 -0.117,1.301 0.293,1.773 l -1.76,4.25 c -2.828,-1.136 -5.769,-2.027 -8.791,-2.679 l 0.895,-4.499 c 0.605,-0.169 1.099,-0.655 1.229,-1.315 0.186,-0.931 -0.421,-1.836 -1.351,-2.022 -0.933,-0.185 -1.836,0.421 -2.022,1.352 -0.13,0.658 0.139,1.299 0.632,1.683 l -0.89,4.484 c -2.983,-0.554 -6.044,-0.85 -9.152,-0.894 v -4.579 c 0.56,-0.283 0.95,-0.857 0.95,-1.53 0,-0.947 -0.77,-1.718 -1.72,-1.718 -0.948,0 -1.719,0.771 -1.719,1.718 0,0.673 0.389,1.247 0.95,1.53 v 4.562 c -1.843,0.026 -3.703,0.144 -5.572,0.361 -1.21,0.14 -2.399,0.333 -3.578,0.547 l -0.891,-4.478 c 0.492,-0.387 0.761,-1.028 0.628,-1.688 -0.181,-0.932 -1.087,-1.532 -2.022,-1.347 -0.925,0.183 -1.532,1.088 -1.348,2.017 0.13,0.66 0.624,1.15 1.231,1.317 l 0.888,4.473 c -3.046,0.646 -5.986,1.542 -8.804,2.663 l -1.741,-4.206 c 0.408,-0.474 0.548,-1.157 0.289,-1.778 -0.362,-0.878 -1.367,-1.29 -2.247,-0.927 -0.872,0.361 -1.292,1.369 -0.929,2.242 0.256,0.623 0.836,1.009 1.464,1.053 l 1.741,4.204 c -2.845,1.226 -5.553,2.684 -8.108,4.346 l -2.534,-3.793 c 0.308,-0.545 0.312,-1.241 -0.062,-1.8 -0.527,-0.792 -1.593,-1.002 -2.385,-0.472 -0.785,0.525 -1.001,1.594 -0.475,2.381 0.374,0.558 1.016,0.823 1.642,0.746 l 2.535,3.793 c -2.535,1.753 -4.901,3.715 -7.09,5.855 l -3.246,-3.246 c 0.196,-0.594 0.064,-1.279 -0.412,-1.752 -0.671,-0.673 -1.757,-0.673 -2.431,0.002 -0.668,0.668 -0.67,1.758 -0.002,2.426 0.477,0.477 1.159,0.612 1.756,0.412 l 3.241,3.242 c -2.132,2.206 -4.067,4.595 -5.801,7.125 l -3.841,-2.566 c 0.076,-0.621 -0.189,-1.265 -0.745,-1.639 -0.792,-0.527 -1.857,-0.314 -2.386,0.477 -0.524,0.788 -0.314,1.854 0.473,2.381 0.56,0.374 1.254,0.374 1.801,0.063 l 3.833,2.56 c -1.657,2.57 -3.09,5.288 -4.3,8.116 l -4.289,-1.778 c -0.048,-0.623 -0.433,-1.205 -1.051,-1.462 -0.879,-0.363 -1.881,0.052 -2.246,0.933 -0.362,0.875 0.053,1.879 0.928,2.243 0.621,0.257 1.303,0.122 1.779,-0.291 l 4.286,1.775 c -1.118,2.832 -1.996,5.773 -2.628,8.794 l -4.587,-0.913 c -0.168,-0.602 -0.659,-1.095 -1.315,-1.227 -0.934,-0.188 -1.835,0.418 -2.021,1.352 -0.186,0.927 0.419,1.833 1.349,2.02 0.658,0.13 1.299,-0.138 1.686,-0.633 l 4.587,0.912 c -0.535,2.978 -0.818,6.03 -0.846,9.131 h -4.73 c -0.283,-0.559 -0.859,-0.947 -1.529,-0.95 -0.951,0 -1.72,0.771 -1.72,1.722 0,0.947 0.772,1.715 1.72,1.718 0.67,-0.003 1.246,-0.389 1.529,-0.95 h 4.728 c 0.035,1.744 0.145,3.502 0.351,5.271 0.15,1.298 0.35,2.578 0.588,3.842 l -4.678,0.93 c -0.387,-0.493 -1.03,-0.761 -1.685,-0.634 -0.933,0.188 -1.536,1.091 -1.35,2.025 0.183,0.927 1.09,1.534 2.02,1.348 0.658,-0.131 1.148,-0.623 1.315,-1.227 l 4.71,-0.938 c 0.657,3.027 1.557,5.946 2.682,8.745 l -4.462,1.847 c -0.476,-0.407 -1.158,-0.545 -1.776,-0.29 -0.879,0.364 -1.294,1.369 -0.929,2.247 0.36,0.875 1.368,1.293 2.244,0.93 0.619,-0.258 1.004,-0.835 1.051,-1.462 l 4.447,-1.843 c 1.23,2.821 2.707,5.494 4.368,8.029 l -4.059,2.712 c -0.546,-0.306 -1.241,-0.309 -1.797,0.062 -0.791,0.527 -1.003,1.595 -0.475,2.384 0.526,0.79 1.595,1.003 2.384,0.475 0.557,-0.374 0.821,-1.015 0.744,-1.638 l 4.053,-2.708 c 1.749,2.51 3.705,4.854 5.835,7.022 l -3.486,3.485 c -0.597,-0.194 -1.278,-0.062 -1.753,0.411 -0.673,0.672 -0.673,1.759 0,2.43 0.67,0.673 1.761,0.673 2.43,10e-4 0.473,-0.473 0.608,-1.155 0.411,-1.754 l 3.493,-3.493 c 2.194,2.113 4.548,4.055 7.061,5.774 l -2.755,4.123 c -0.621,-0.076 -1.264,0.186 -1.638,0.744 -0.527,0.79 -0.314,1.856 0.475,2.385 0.788,0.527 1.857,0.314 2.385,-0.476 0.372,-0.557 0.369,-1.251 0.06,-1.799 l 2.769,-4.144 c 2.552,1.642 5.232,3.091 8.039,4.294 l -1.908,4.608 c -0.626,0.047 -1.206,0.43 -1.462,1.051 -0.364,0.877 0.053,1.882 0.93,2.244 0.877,0.365 1.883,-0.053 2.248,-0.93 0.254,-0.619 0.117,-1.299 -0.294,-1.777 l 1.915,-4.624 c 0.829,0.327 1.654,0.661 2.499,0.947 7.183,2.439 16.515,3.455 23.007,2.585 6.492,-0.869 10.104,-1.057 11.145,1.146 0.673,1.423 -1.229,2.255 -4.061,3.355 -0.22,0.083 -0.425,0.164 -0.638,0.244 -4.763,1.825 -7.562,3.189 -9.12,4.051 -0.372,0.208 -0.672,0.385 -0.914,0.533 -0.609,0.376 -0.839,0.57 -0.839,0.57 0,0 0.277,0.256 0.883,0.538 0.301,0.135 0.678,0.286 1.122,0.408 0.442,0.147 0.951,0.228 1.508,0.35 0.559,0.094 1.166,0.148 1.813,0.232 0.644,0.025 1.324,0.053 2.03,0.083 1.393,0.025 2.867,-0.031 4.311,-0.003 1.986,0.039 4.515,0.099 6.976,0.758 1.371,0.365 2.725,0.91 3.947,1.754 1.358,0.939 2.14,2.49 2.287,3.785 l -3.213,0.371 c -0.25,-0.523 -0.795,-0.865 -1.4,-0.795 -0.759,0.089 -1.306,0.779 -1.218,1.537 0.088,0.764 0.779,1.312 1.538,1.224 0.604,-0.071 1.061,-0.531 1.18,-1.096 l 3.29,-0.382 c 0.712,6.169 -10.941,3.484 -14.597,7.678 0.01,0.013 0.018,0.025 0.026,0.036 0.382,0.613 0.55,1.254 0.633,1.721 0.078,0.47 0.073,0.778 0.073,0.778 0,0 -0.148,-0.272 -0.431,-0.619 C 16.045,6.964 15.635,6.569 15.193,6.33 12.553,9.434 8.674,11.31 4.531,11.511 l 0.016,0.02 c -0.172,0 -0.349,-0.012 -0.52,-0.015 -0.464,0.007 -0.932,-0.005 -1.399,-0.041 -30.502,-1.205 -72.86,-30.931 -72.86,-86.589 0,-41.301 33.48,-74.781 74.779,-74.781 41.299,0 74.781,33.48 74.781,74.781 0,34.896 -29.613,64.808 -67.271,63.242" /></g><g
           transform="translate(371.3359,345.1797)"
           id="g3836"><path
             id="path3838"
             style="fill:#231f20;fill-opacity:1;fill-rule:nonzero;stroke:none"
             d="M 0,0 C -2.196,-1.196 -4.293,-2.555 -6.278,-4.053 V -51.251 H 0 Z" /></g><g
           transform="translate(381.6123,342.6523)"
           id="g3840"><path
             id="path3842"
             style="fill:#231f20;fill-opacity:1;fill-rule:nonzero;stroke:none"
             d="m 0,0 v -23.831 -2.155 c 0,-0.252 -0.196,-0.451 -0.443,-0.47 h -1.472 v 0.035 2.59 23.83 1.873 c 0.429,0.157 0.865,0.302 1.3,0.444 C -0.312,2.396 0,2.379 0,1.766 Z m 6.029,-32.046 c 0,2.716 -1.656,3.596 -1.656,3.596 0,0 1.656,0.88 1.656,3.596 V 4.244 C 6.026,6.282 4.43,7.783 2.415,7.354 1.519,7.145 0.631,6.913 -0.249,6.656 -0.722,6.519 -1.196,6.376 -1.665,6.226 -3.823,5.526 -5.923,4.693 -7.943,3.725 v -52.449 h 6.028 v 15.652 2.589 0.039 H 0 v -0.003 h -0.478 c 0.263,0 0.478,-0.213 0.478,-0.478 v -2.147 -15.652 h 6.029 z" /></g><g
           transform="translate(428.8682,333.3516)"
           id="g3844"><path
             id="path3846"
             style="fill:#231f20;fill-opacity:1;fill-rule:nonzero;stroke:none"
             d="M 0,0 V 5.506 C -1.966,7.22 -4.063,8.785 -6.278,10.183 V -39.423 H 0 Z" /></g><g
           transform="translate(412.3125,348.4941)"
           id="g3848"><path
             id="path3850"
             style="fill:#231f20;fill-opacity:1;fill-rule:nonzero;stroke:none"
             d="m 0,0 c -1.961,0.686 -3.97,1.263 -6.029,1.705 v -52.443 c 0,-2.114 1.714,-3.827 3.827,-3.827 h 0.112 2.339 1.415 2.339 0.112 c 2.112,0 3.825,1.708 3.827,3.822 v 42.521 4.654 c -1.934,1.08 -3.949,2.026 -6.028,2.849 V -45.344 -50.1 c 0,-0.263 -0.215,-0.477 -0.478,-0.477 H 0.478 C 0.214,-50.577 0,-50.363 0,-50.1 v 5.753 z" /></g><g
           transform="translate(352.5786,293.9287)"
           id="g3852"><path
             id="path3854"
             style="fill:#231f20;fill-opacity:1;fill-rule:nonzero;stroke:none"
             d="m 0,0 h 2.45 1.416 1.992 0.458 c 2.115,0 3.829,1.714 3.829,3.827 V 18.279 H 4.115 V 7.782 4.466 C 4.115,4.202 3.901,3.988 3.637,3.988 H 2.679 c -0.263,0 -0.478,0.214 -0.478,0.478 v -0.478 0 3.794 18.723 2.316 l 0.002,-0.003 c 0,0.318 0.1,0.593 0.239,0.875 0.36,0.632 0.745,1.247 1.134,1.86 0.193,0.267 0.539,0.249 0.539,-0.174 v -4.874 -4.237 h 6.03 v 17.617 c 0,3.376 -2.368,3.147 -3.786,1.854 C 5.499,40.838 4.66,39.916 3.866,38.953 V 38.945 C 3.377,38.351 2.912,37.738 2.45,37.12 v 0.031 C 1.109,35.367 -0.11,33.484 -1.21,31.529 -3.336,27.624 -3.829,26.098 -3.829,22.551 V 3.827 c 0,-2.033 1.592,-3.68 3.594,-3.804 V 0 Z" /></g><g
           transform="translate(402.8691,250.4941)"
           id="g3856"><path
             id="path3858"
             style="fill:#231f20;fill-opacity:1;fill-rule:nonzero;stroke:none"
             d="M 0,0 C 1.541,0.224 3.063,0.509 4.557,0.868 V 39.939 H 0 V 28.838 24.407 H -1.914 V 28.34 39.939 H -6.472 V -0.519 c 1.538,0.026 3.057,0.119 4.558,0.278 v 16.174 4.486 H 0 v -3.988 z" /></g><g
           transform="translate(421.8447,257.2852)"
           id="g3860"><path
             id="path3862"
             style="fill:#231f20;fill-opacity:1;fill-rule:nonzero;stroke:none"
             d="m 0,0 c 1.586,0.962 3.104,2.025 4.568,3.153 v 10.475 l 1.913,-8.95 0.003,0.014 c 1.611,1.366 3.14,2.819 4.567,4.373 V 33.148 H 6.481 V 16.284 L 4.568,33.148 H 0 Z" /></g><g
           transform="translate(378.8359,252.7959)"
           id="g3864"><path
             id="path3866"
             style="fill:#231f20;fill-opacity:1;fill-rule:nonzero;stroke:none"
             d="m 0,0 v 18.112 l 3.117,15.537 v 3.989 h -4.57 V 33.649 L -2.376,22.105 -3.368,33.649 v 3.989 H -7.936 V 33.649 L -4.819,18.112 V 1.966 C -3.254,1.23 -1.646,0.576 0,0" /></g><g
           transform="translate(362.7988,286.4453)"
           id="g3868"><path
             id="path3870"
             style="fill:#231f20;fill-opacity:1;fill-rule:nonzero;stroke:none"
             d="M 0,0 H 1.436 C 1.7,0 1.914,-0.214 1.914,-0.478 v -10.588 c 0,-0.265 -0.214,-0.478 -0.478,-0.478 H 0 Z m 0.249,-24.673 v 9.136 h 1.415 2.44 c 1.315,0.008 2.379,1.072 2.379,2.391 V 1.597 c 0,1.322 -1.071,2.391 -2.392,2.391 H 4.002 1.664 0.249 -2.09 -2.583 -4.57 v -24.061 c 1.504,-1.636 3.114,-3.172 4.819,-4.6" /></g><g
           transform="translate(415.6035,280.6709)"
           id="g3872"><path
             id="path3874"
             style="fill:#231f20;fill-opacity:1;fill-rule:nonzero;stroke:none"
             d="m 0,0 v -18.898 -2.458 c -0.003,-0.644 -0.129,-0.844 -0.423,-1.01 -0.282,-0.134 -0.569,-0.263 -0.854,-0.39 -0.247,-0.104 -0.637,-0.181 -0.637,0.382 V -18.898 0 5.297 c 0,0.264 0.215,0.477 0.478,0.477 h 0.958 C -0.214,5.774 0,5.561 0,5.297 Z m 2.09,9.763 h -2.338 -1.418 -2.337 -0.088 c -1.321,0 -2.391,-1.07 -2.391,-2.392 v -33.556 c 0,-1.84 1.08,-2.293 2.225,-1.999 0.191,0.062 4.246,1.476 6.764,2.768 1.69,0.867 2.061,1.202 2.061,3.232 V 7.371 c 0,1.322 -1.069,2.392 -2.391,2.392 z" /></g><g
           transform="translate(391.6611,250.1191)"
           id="g3876"><path
             id="path3878"
             style="fill:#231f20;fill-opacity:1;fill-rule:nonzero;stroke:none"
             d="m 0,0 v 36.326 h 3.066 v 3.988 H 0 -4.819 -7.987 v -3.988 h 3.168 V 0.6 C -3.235,0.324 -1.631,0.124 0,0" /></g><g
           transform="translate(397.6709,293.9287)"
           id="g3880"><path
             id="path3882"
             style="fill:#231f20;fill-opacity:1;fill-rule:nonzero;stroke:none"
             d="m 0,0 h 2.033 0.428 c 2.072,0 3.75,1.648 3.817,3.705 V 18.279 H 0.254 V 9.997 4.466 C 0.254,4.202 0.04,3.988 -0.224,3.988 h -0.958 c -0.263,0 -0.477,0.214 -0.477,0.478 v 5.531 39.204 3.691 c 0,0.264 0.214,0.478 0.477,0.478 0.336,-0.007 0.674,-0.016 1.009,-0.03 0.239,-0.023 0.427,-0.202 0.427,-0.448 V 47.553 22.268 h 6.024 v 31.221 c -0.067,2.06 -1.745,3.708 -3.817,3.708 h 0.034 c -1.514,0.135 -3.045,0.216 -4.592,0.216 -0.646,0 -1.288,-0.023 -1.926,-0.047 -2.034,-0.101 -3.659,-1.942 -3.659,-3.999 V 3.827 c 0,-2.043 1.606,-3.698 3.622,-3.806 L -4.06,0 h 0.206 2.437 z" /></g><g
           transform="translate(432.2695,335.6025)"
           id="g3884"><path
             id="path3886"
             style="fill:#231f20;fill-opacity:1;fill-rule:nonzero;stroke:none"
             d="M 0,0 V -0.002 C -0.52,0.546 -1.049,1.08 -1.595,1.603 -1.68,1.685 -1.767,1.766 -1.853,1.848 V -3.94 C -1.219,-4.651 -0.59,-5.367 0,-6.117 V -6.39 -41.674 h 6.278 v 24.966 c 0.379,-0.889 0.738,-1.784 1.062,-2.698 h 4.22 c -0.584,1.809 -1.27,3.573 -2.044,5.289 -0.068,0.148 -0.132,0.299 -0.203,0.444 -0.223,0.483 -0.454,0.961 -0.693,1.436 -0.08,0.158 -0.161,0.317 -0.244,0.475 -0.246,0.481 -0.498,0.961 -0.761,1.431 -0.039,0.07 -0.08,0.138 -0.119,0.207 -0.39,0.691 -0.797,1.369 -1.218,2.041 v 0.008 C 4.458,-5.172 2.353,-2.469 0,0" /></g></g></g></g></svg>
