<?xml version="1.0" encoding="UTF-8" standalone="no"?>
<svg
   xmlns:dc="http://purl.org/dc/elements/1.1/"
   xmlns:cc="http://creativecommons.org/ns#"
   xmlns:rdf="http://www.w3.org/1999/02/22-rdf-syntax-ns#"
   xmlns:svg="http://www.w3.org/2000/svg"
   xmlns="http://www.w3.org/2000/svg"
   viewBox="0 0 591.83307 604.73022"
   height="604.73022"
   width="591.83307"
   xml:space="preserve"
   id="svg4811"
   version="1.1"><metadata
     id="metadata4817"><rdf:RDF><cc:Work
         rdf:about=""><dc:format>image/svg+xml</dc:format><dc:type
           rdf:resource="http://purl.org/dc/dcmitype/StillImage" /><dc:title></dc:title></cc:Work></rdf:RDF></metadata><defs
     id="defs4815"><clipPath
       id="clipPath4827"
       clipPathUnits="userSpaceOnUse"><path
         id="path4825"
         d="M 0,612 H 2130 V 0 H 0 Z" /></clipPath></defs><g
     transform="matrix(1.3333333,0,0,-1.3333333,-149.2636,686.04318)"
     id="g4819"><g
       id="g4821"><g
         clip-path="url(#clipPath4827)"
         id="g4823"><g
           transform="translate(421.3262,103.959)"
           id="g10149"><path
             id="path10151"
             style="fill:#652f8f;fill-opacity:1;fill-rule:nonzero;stroke:none"
             d="m 0,0 c 4.881,1.035 9.68,2.124 14.386,3.267 -0.134,0.475 -0.21,0.974 -0.21,1.493 0,3.03 2.457,5.487 5.488,5.487 2.608,0 4.788,-1.822 5.345,-4.263 9.598,2.586 18.742,5.419 27.317,8.511 -0.2,0.57 -0.314,1.18 -0.314,1.817 0,3.031 2.456,5.489 5.487,5.489 2.282,0 4.237,-1.394 5.065,-3.376 8.575,3.506 16.456,7.308 23.513,11.425 -0.536,0.846 -0.851,1.848 -0.851,2.925 0,3.032 2.458,5.489 5.488,5.489 1.931,0 3.626,-1 4.603,-2.508 6.689,4.706 12.361,9.776 16.858,15.229 -1.283,1.004 -2.111,2.564 -2.111,4.319 0,3.031 2.457,5.488 5.489,5.488 1.015,0 1.965,-0.281 2.781,-0.764 1.955,3.59 3.436,7.327 4.403,11.215 -5.588,11.425 -14.503,19.943 -21.205,23.231 C 100.639,92.44 99.62,90.388 98.46,88.316 83.865,62.257 37.718,43.923 -28.149,38.017 c -0.431,-0.039 -0.865,-0.072 -1.296,-0.11 0.041,-0.101 0.08,-0.206 0.12,-0.307 0.019,-0.048 0.039,-0.095 0.057,-0.142 0.522,-1.298 1.052,-2.585 1.592,-3.859 0.029,-0.067 0.057,-0.131 0.085,-0.198 0.528,-1.24 1.064,-2.469 1.609,-3.688 0.055,-0.124 0.111,-0.245 0.166,-0.368 0.513,-1.143 1.036,-2.277 1.565,-3.4 5.174,-10.965 10.54,-19.796 15.468,-26.752 4.087,0.285 7.076,0.571 8.739,0.801 z" /></g><g
           transform="translate(386.9795,173.9922)"
           id="g10153"><path
             id="path10155"
             style="fill:#652f8f;fill-opacity:1;fill-rule:nonzero;stroke:none"
             d="m 0,0 c 0,3.03 2.458,5.487 5.488,5.487 2.775,0 5.062,-2.06 5.43,-4.733 8.929,1.397 17.679,3.078 26.149,5.017 -0.061,0.33 -0.097,0.668 -0.097,1.016 0,3.031 2.457,5.488 5.488,5.488 2.478,0 4.569,-1.642 5.252,-3.897 8.604,2.256 16.852,4.781 24.622,7.545 -0.173,0.534 -0.269,1.103 -0.269,1.695 0,3.03 2.457,5.488 5.487,5.488 2.248,0 4.178,-1.352 5.025,-3.287 7.659,3.114 14.737,6.474 21.093,10.044 -0.533,0.846 -0.847,1.845 -0.847,2.918 0,3.032 2.458,5.489 5.489,5.489 1.992,0 3.73,-1.065 4.691,-2.653 6.24,4.238 11.487,8.716 15.544,13.385 -1.159,1.006 -1.896,2.486 -1.896,4.142 0,2.302 1.421,4.271 3.432,5.085 -0.685,1.206 -1.459,2.378 -2.333,3.516 C 118.112,74.284 99.308,79.629 87.423,76.906 84.554,71.414 79.382,65.263 70.366,59.062 52.078,46.484 24.959,32.184 -10.545,25.043 c 0.179,-1.094 0.36,-2.184 0.55,-3.269 0.055,-0.318 0.109,-0.636 0.165,-0.954 0.239,-1.351 0.487,-2.695 0.741,-4.033 0.064,-0.328 0.126,-0.655 0.19,-0.983 0.265,-1.37 0.537,-2.737 0.818,-4.092 0.037,-0.178 0.076,-0.354 0.113,-0.531 0.278,-1.322 0.562,-2.636 0.854,-3.943 0.041,-0.182 0.081,-0.366 0.122,-0.55 0.311,-1.376 0.632,-2.744 0.96,-4.103 0.056,-0.24 0.115,-0.48 0.174,-0.719 0.267,-1.099 0.544,-2.191 0.823,-3.279 1.704,0.196 3.404,0.401 5.098,0.618 C 0.026,-0.534 0,-0.271 0,0" /></g><g
           transform="translate(200.9775,217.6045)"
           id="g10157"><path
             id="path10159"
             style="fill:#652f8f;fill-opacity:1;fill-rule:nonzero;stroke:none"
             d="m 0,0 c 3.031,0 5.488,-2.457 5.488,-5.487 0,-1.62 -0.706,-3.072 -1.822,-4.076 6.48,-5.891 13.941,-11.022 22.187,-15.447 0.945,1.654 2.722,2.771 4.763,2.771 3.031,0 5.488,-2.457 5.488,-5.488 0,-0.734 -0.148,-1.434 -0.41,-2.075 8.374,-3.691 17.388,-6.761 26.873,-9.256 0.613,2.363 2.752,4.111 5.307,4.111 3.031,0 5.487,-2.458 5.487,-5.489 0,-0.393 -0.043,-0.776 -0.121,-1.146 5.593,-1.184 11.318,-2.188 17.148,-3.016 -0.087,1.299 -0.168,2.607 -0.241,3.928 -0.044,0.816 -0.087,1.635 -0.126,2.459 -0.284,5.926 -0.428,12.081 -0.434,18.481 C 69.144,-15.741 55.127,-8.724 46.399,-2.917 34.758,4.826 26.702,14.297 23.491,23.779 8.921,19.937 -2.148,12.204 -7.435,2.587 -6.332,1.117 -5.179,-0.316 -3.978,-1.714 -2.978,-0.66 -1.567,0 0,0" /></g><g
           transform="translate(387.8789,228.1367)"
           id="g10161"><path
             id="path10163"
             style="fill:#652f8f;fill-opacity:1;fill-rule:nonzero;stroke:none"
             d="m 0,0 c 0,3.03 2.457,5.487 5.488,5.487 2.675,0 4.9,-1.915 5.385,-4.448 8.445,2.406 16.434,5.2 23.809,8.254 -0.272,0.649 -0.422,1.362 -0.422,2.11 0,3.032 2.457,5.489 5.488,5.489 2.181,0 4.059,-1.276 4.943,-3.12 7.946,3.84 14.946,7.952 20.748,12.128 -0.604,0.882 -0.959,1.949 -0.959,3.098 0,3.03 2.458,5.488 5.488,5.488 1.541,0 2.931,-0.637 3.928,-1.66 3.444,3.268 6.071,6.503 7.766,9.61 -2.402,4.949 -7.325,8.978 -13.94,11.219 -3.191,1.081 -6.287,1.606 -9.469,1.606 -9.544,0 -18.905,-4.928 -29.744,-10.635 C 16.652,38.384 2.613,30.994 -16.236,27.432 c 0.166,-11.04 0.729,-21.759 1.69,-32.131 5.042,0.848 9.991,1.849 14.822,2.985 C 0.099,-1.174 0,-0.599 0,0" /></g><g
           transform="translate(252.9658,246.1982)"
           id="g10165"><path
             id="path10167"
             style="fill:#652f8f;fill-opacity:1;fill-rule:nonzero;stroke:none"
             d="m 0,0 c 3.031,0 5.488,-2.457 5.488,-5.488 0,-0.966 -0.252,-1.873 -0.691,-2.662 7.382,-3.764 14.969,-6.857 22.682,-9.344 0.761,2.115 2.78,3.631 5.159,3.631 3.031,0 5.487,-2.457 5.487,-5.489 0,-0.394 -0.044,-0.778 -0.123,-1.148 0.119,-0.03 0.237,-0.061 0.356,-0.09 0.556,10.51 1.419,21.618 2.588,33.381 -7.373,1.924 -13.238,4.063 -18.371,5.938 -7.242,2.643 -12.962,4.73 -19.313,4.73 -3.608,0 -7.426,-0.671 -11.673,-2.053 C -15.739,19.022 -20.548,15.045 -22.527,9.879 -16.822,5.115 -10.892,0.901 -4.786,-2.808 -3.847,-1.134 -2.057,0 0,0" /></g><g
           transform="translate(155.75,126.0879)"
           id="g10169"><path
             id="path10171"
             style="fill:#652f8f;fill-opacity:1;fill-rule:nonzero;stroke:none"
             d="M 0,0 C 1.305,-0.159 2.611,-0.317 3.912,-0.477 6.538,-0.796 9.203,-1.12 11.828,-1.445 11.151,-0.444 10.498,0.562 9.874,1.573 6.322,1.003 3.022,0.478 0,0" /></g><g
           transform="translate(179.3926,150.6621)"
           id="g10173"><path
             id="path10175"
             style="fill:#652f8f;fill-opacity:1;fill-rule:nonzero;stroke:none"
             d="m 0,0 c 3.03,0 5.487,-2.457 5.487,-5.487 0,-1.318 -0.465,-2.526 -1.238,-3.472 6.694,-5.274 14.535,-9.88 23.226,-13.891 0.812,2.013 2.782,3.435 5.087,3.435 3.031,0 5.487,-2.457 5.487,-5.487 0,-0.786 -0.168,-1.532 -0.465,-2.207 8.893,-3.43 18.454,-6.345 28.416,-8.814 0.609,2.366 2.751,4.117 5.309,4.117 3.03,0 5.488,-2.457 5.488,-5.487 0,-0.371 -0.038,-0.731 -0.109,-1.082 10.574,-2.241 21.47,-4.032 32.392,-5.453 0.344,2.701 2.645,4.79 5.439,4.79 3.031,0 5.488,-2.457 5.488,-5.488 0,-0.203 -0.013,-0.402 -0.035,-0.599 2.447,-0.266 4.889,-0.513 7.325,-0.744 -5.158,10.877 -9.098,23.769 -11.786,38.62 C 90.481,-4.177 68.35,0.93 51.02,7.663 34.931,13.915 22.683,21.812 14.614,31.132 9.607,36.915 6.359,43.146 4.979,49.508 -7.105,41.12 -14.516,30.735 -16.85,18.971 -14.126,11.296 -9.69,4.466 -3.884,-1.609 -2.891,-0.614 -1.518,0 0,0" /></g><g
           transform="translate(462.9346,186.3604)"
           id="g10177"><path
             id="path10179"
             style="fill:#e90e8b;fill-opacity:1;fill-rule:nonzero;stroke:none"
             d="m 0,0 c -1.714,0.52 -3.071,1.855 -3.623,3.555 -7.771,-2.764 -16.018,-5.289 -24.622,-7.545 0.152,-0.504 0.235,-1.037 0.235,-1.591 0,-1.949 -1.019,-3.657 -2.552,-4.631 0.508,-5.318 1.026,-14.052 0.082,-22.091 10.896,2.157 21.029,4.752 30.194,7.741 C 1.38,-15.063 0.688,-5.517 0,0" /></g><g
           transform="translate(427.6289,175.6035)"
           id="g10181"><path
             id="path10183"
             style="fill:#e90e8b;fill-opacity:1;fill-rule:nonzero;stroke:none"
             d="m 0,0 c -1.83,0.639 -3.217,2.217 -3.582,4.159 -8.471,-1.938 -17.221,-3.619 -26.149,-5.016 0.034,-0.247 0.057,-0.497 0.057,-0.754 0,-1.976 -1.047,-3.702 -2.612,-4.668 0.384,-4.817 0.719,-12.538 -0.06,-20.626 11.255,1.08 22.055,2.565 32.245,4.423 C 1.038,-14.609 0.512,-5.459 0,0" /></g><g
           transform="translate(390.5908,168.8408)"
           id="g10185"><path
             id="path10187"
             style="fill:#e90e8b;fill-opacity:1;fill-rule:nonzero;stroke:none"
             d="M 0,0 C -1.865,0.68 -3.254,2.339 -3.548,4.356 -5.242,4.14 -6.942,3.935 -8.646,3.738 -8.578,3.471 -8.514,3.2 -8.444,2.935 -8.407,2.791 -8.369,2.649 -8.332,2.507 -7.975,1.141 -7.61,-0.218 -7.236,-1.565 l 0.055,-0.203 c 0.379,-1.357 0.768,-2.704 1.164,-4.043 0.062,-0.209 0.123,-0.418 0.186,-0.626 0.39,-1.305 0.787,-2.604 1.193,-3.892 0.058,-0.183 0.117,-0.363 0.175,-0.546 0.413,-1.3 0.834,-2.592 1.265,-3.873 0.011,-0.036 0.023,-0.072 0.036,-0.108 0.43,-1.276 0.87,-2.539 1.316,-3.794 0.083,-0.236 0.167,-0.472 0.251,-0.706 0.158,-0.439 0.321,-0.87 0.481,-1.304 0.323,0.026 0.647,0.055 0.971,0.082 C 0.702,-12.623 0.375,-4.815 0,0" /></g><g
           transform="translate(493.8506,201.4834)"
           id="g10189"><path
             id="path10191"
             style="fill:#e90e8b;fill-opacity:1;fill-rule:nonzero;stroke:none"
             d="m 0,0 c -1.343,0.364 -2.479,1.224 -3.203,2.372 -6.357,-3.57 -13.434,-6.931 -21.093,-10.044 0.296,-0.674 0.463,-1.418 0.463,-2.201 0,-1.868 -0.936,-3.516 -2.361,-4.507 0.681,-5.322 1.362,-14.239 0.086,-23.57 0.603,0.215 1.205,0.431 1.798,0.651 9.162,3.376 17.071,7.111 23.703,11.182 C 1.694,-15.817 0.847,-5.7 0,0" /></g><g
           transform="translate(515.5244,222.9941)"
           id="g10193"><path
             id="path10195"
             style="fill:#e90e8b;fill-opacity:1;fill-rule:nonzero;stroke:none"
             d="m 0,0 c -4.057,-4.669 -9.304,-9.146 -15.544,-13.385 0.502,-0.828 0.797,-1.797 0.797,-2.836 0,-1.806 -0.878,-3.406 -2.227,-4.405 0.793,-5.201 1.586,-13.885 0.211,-23.32 6.911,5.019 12.047,10.497 15.355,16.403 5.331,9.519 7.47,18.429 6.427,26.391 C 4.563,-1.274 4.087,-1.346 3.593,-1.346 2.218,-1.346 0.964,-0.836 0,0" /></g><g
           transform="translate(228.5645,185.3027)"
           id="g10197"><path
             id="path10199"
             style="fill:#e90e8b;fill-opacity:1;fill-rule:nonzero;stroke:none"
             d="m 0,0 c -1.481,0.983 -2.459,2.664 -2.459,4.575 0,0.989 0.266,1.915 0.725,2.717 -8.245,4.425 -15.707,9.556 -22.187,15.446 -0.762,-0.685 -1.715,-1.159 -2.77,-1.333 -0.252,-1.096 -0.503,-2.37 -0.721,-3.814 -0.665,-4.412 -1.122,-11.24 0.211,-19.463 6.549,-6.59 15.638,-12.387 27.107,-17.289 C -0.91,-11.653 -0.482,-4.543 0,0" /></g><g
           transform="translate(270.8027,172.0449)"
           id="g10201"><path
             id="path10203"
             style="fill:#e90e8b;fill-opacity:1;fill-rule:nonzero;stroke:none"
             d="m 0,0 c -0.26,-4.161 -0.462,-10.685 0.039,-18.24 7.332,-1.434 15.014,-2.661 22.954,-3.677 -0.934,6.216 -1.669,12.742 -2.195,19.583 -0.062,0.79 -0.12,1.585 -0.175,2.383 -0.021,0.303 -0.04,0.609 -0.061,0.913 C 14.732,1.79 9.008,2.794 3.415,3.978 3.024,2.145 1.719,0.655 0,0" /></g><g
           transform="translate(266.0449,172.459)"
           id="g10205"><path
             id="path10207"
             style="fill:#e90e8b;fill-opacity:1;fill-rule:nonzero;stroke:none"
             d="m 0,0 c -1.604,0.958 -2.682,2.706 -2.682,4.71 0,0.477 0.068,0.936 0.182,1.378 -9.485,2.495 -18.499,5.564 -26.873,9.256 -0.606,-1.481 -1.838,-2.636 -3.369,-3.138 -0.501,-4.842 -0.938,-12.713 0.239,-20.578 9.511,-3.637 20.469,-6.75 32.462,-9.297 C -0.467,-10.313 -0.262,-4.065 0,0" /></g><g
           transform="translate(197.2852,208.0654)"
           id="g10209"><path
             id="path10211"
             style="fill:#e90e8b;fill-opacity:1;fill-rule:nonzero;stroke:none"
             d="m 0,0 c -1.1,1.004 -1.795,2.444 -1.795,4.052 0,1.463 0.576,2.79 1.51,3.773 -1.201,1.398 -2.355,2.831 -3.457,4.301 C -5.648,8.658 -6.806,4.947 -7.103,1.085 -7.596,-5.329 -5.646,-11.856 -1.443,-18.024 -1.894,-10.221 -0.94,-3.995 0,0" /></g><g
           transform="translate(318.3887,86.0371)"
           id="g10213"><path
             id="path10215"
             style="fill:#e90e8b;fill-opacity:1;fill-rule:nonzero;stroke:none"
             d="m 0,0 c -4.422,5.367 -8.321,11.631 -11.699,18.756 -2.436,0.231 -4.878,0.478 -7.325,0.744 -0.219,-2.02 -1.534,-3.71 -3.337,-4.465 -0.122,-5.003 0.074,-13.11 2.01,-20.504 C -12.117,-5.934 -3.309,-6.291 6.102,-6.54 3.968,-4.523 1.932,-2.345 0,0" /></g><g
           transform="translate(247.9092,108.6504)"
           id="g10217"><path
             id="path10219"
             style="fill:#e90e8b;fill-opacity:1;fill-rule:nonzero;stroke:none"
             d="m 0,0 c -1.612,0.956 -2.695,2.709 -2.695,4.719 0,0.473 0.065,0.931 0.178,1.37 -9.962,2.469 -19.523,5.384 -28.416,8.813 -0.595,-1.352 -1.721,-2.415 -3.114,-2.933 -0.369,-5.86 -0.446,-16.176 2.355,-25.73 7.133,-3.052 15.974,-5.955 28.64,-8.422 1.499,-0.292 3.044,-0.574 4.627,-0.848 C -0.404,-14.665 -0.319,-5.509 0,0" /></g><g
           transform="translate(291.2559,101.335)"
           id="g10221"><path
             id="path10223"
             style="fill:#e90e8b;fill-opacity:1;fill-rule:nonzero;stroke:none"
             d="m 0,0 c -1.688,0.936 -2.832,2.734 -2.832,4.801 0,0.237 0.019,0.47 0.049,0.698 -10.922,1.421 -21.819,3.212 -32.392,5.453 -0.371,-1.855 -1.679,-3.367 -3.409,-4.035 -0.312,-5.676 -0.37,-15.358 1.955,-23.472 10.947,-1.675 23.716,-2.978 38.426,-3.915 C 0.029,-12.851 -0.136,-4.956 0,0" /></g><g
           transform="translate(209.1006,121.0781)"
           id="g10225"><path
             id="path10227"
             style="fill:#e90e8b;fill-opacity:1;fill-rule:nonzero;stroke:none"
             d="m 0,0 c -1.578,0.964 -2.635,2.697 -2.635,4.682 0,0.726 0.145,1.418 0.402,2.052 -8.691,4.011 -16.532,8.617 -23.226,13.891 -0.679,-0.829 -1.595,-1.456 -2.645,-1.776 -0.621,-5.426 -1.042,-14.681 1.6,-23.326 5.728,-5.818 12.108,-10.656 18.43,-14.085 l 0.998,-0.542 c 2.767,-1.502 5.563,-3.019 8.617,-4.519 C -0.483,-14.475 -0.362,-5.416 0,0" /></g><g
           transform="translate(176.2656,140.668)"
           id="g10229"><path
             id="path10231"
             style="fill:#e90e8b;fill-opacity:1;fill-rule:nonzero;stroke:none"
             d="m 0,0 c -1.426,0.991 -2.361,2.639 -2.361,4.507 0,1.514 0.613,2.885 1.604,3.878 -5.806,6.075 -10.242,12.905 -12.966,20.58 -0.598,-3.02 -0.863,-6.13 -0.788,-9.32 C -14.199,6.557 -8.353,-6.21 -0.042,-16.82 -0.865,-10.212 -0.486,-4.079 0,0" /></g><g
           transform="translate(476.8437,115.1582)"
           id="g10233"><path
             id="path10235"
             style="fill:#e90e8b;fill-opacity:1;fill-rule:nonzero;stroke:none"
             d="m 0,0 c -1.488,0.577 -2.661,1.784 -3.191,3.296 -8.576,-3.092 -17.719,-5.925 -27.318,-8.511 0.09,-0.394 0.142,-0.803 0.142,-1.224 0,-1.985 -1.056,-3.717 -2.633,-4.681 0.392,-4.954 0.752,-12.815 -0.045,-19.992 9.376,1.281 18.129,2.799 26.231,4.55 2.299,0.497 4.543,1.015 6.74,1.55 C 0.896,-16.854 0.418,-6.136 0,0" /></g><g
           transform="translate(511.418,126.3271)"
           id="g10237"><path
             id="path10239"
             style="fill:#e90e8b;fill-opacity:1;fill-rule:nonzero;stroke:none"
             d="m 0,0 c -0.172,1.98 -0.398,3.675 -0.631,5.069 -1.421,0.332 -2.627,1.214 -3.384,2.412 -7.057,-4.116 -14.938,-7.918 -23.512,-11.424 0.271,-0.651 0.423,-1.364 0.423,-2.113 0,-2.016 -1.092,-3.774 -2.712,-4.727 0.404,-5.856 0.861,-15.819 0.091,-24.145 10.845,2.887 20.33,6.265 28.417,10.119 C 0.581,-13.909 0.461,-5.369 0,0" /></g><g
           transform="translate(439.0928,103.5742)"
           id="g10241"><path
             id="path10243"
             style="fill:#e90e8b;fill-opacity:1;fill-rule:nonzero;stroke:none"
             d="M 0,0 C -1.636,0.604 -2.902,1.96 -3.381,3.651 -8.087,2.509 -12.886,1.42 -17.767,0.385 l -0.044,-0.006 c -1.663,-0.231 -4.652,-0.517 -8.739,-0.801 8.64,-12.2 15.922,-18.631 18.429,-20.669 2.694,0.291 5.345,0.599 7.948,0.925 C 0.75,-13.183 0.392,-5.049 0,0" /></g><g
           transform="translate(536.043,153.8457)"
           id="g10245"><path
             id="path10247"
             style="fill:#e90e8b;fill-opacity:1;fill-rule:nonzero;stroke:none"
             d="m 0,0 c -0.949,0.146 -1.818,0.531 -2.542,1.099 -4.497,-5.453 -10.169,-10.524 -16.857,-15.23 0.557,-0.858 0.883,-1.881 0.883,-2.98 0,-1.74 -0.81,-3.286 -2.074,-4.292 0.931,-5.433 1.795,-15.095 -0.097,-28.251 6.692,3.65 12.255,7.677 16.653,12.075 2.128,2.127 4.057,4.301 5.798,6.513 C 4.007,-18.434 1.679,-6.337 0,0" /></g><g
           transform="translate(544.0635,175.2021)"
           id="g10249"><path
             id="path10251"
             style="fill:#e90e8b;fill-opacity:1;fill-rule:nonzero;stroke:none"
             d="m 0,0 c -0.968,-3.888 -2.448,-7.625 -4.403,-11.215 1.618,-0.955 2.707,-2.711 2.707,-4.724 0,-1.584 -0.677,-3.008 -1.75,-4.01 1.392,-5.157 3.19,-13.921 2.855,-23.908 5.585,10.319 7.211,21.276 4.692,32.351 C 3.174,-7.434 1.75,-3.575 0,0" /></g><g
           transform="translate(280.1152,226.8467)"
           id="g10253"><path
             id="path10255"
             style="fill:#e90e8b;fill-opacity:1;fill-rule:nonzero;stroke:none"
             d="m 0,0 c 0,0.653 0.119,1.276 0.329,1.857 -7.713,2.488 -15.3,5.58 -22.682,9.344 -0.793,-1.428 -2.206,-2.459 -3.875,-2.742 -1.196,-3.691 -2.709,-9.259 -3.222,-14.997 0.104,-0.069 0.206,-0.141 0.31,-0.211 6.478,-4.309 16.077,-9.328 29.367,-13.113 0.197,5.724 1.127,11.567 1.893,15.536 C 0.832,-3.322 0,-1.76 0,0" /></g><g
           transform="translate(286.9033,221.5205)"
           id="g10257"><path
             id="path10259"
             style="fill:#e90e8b;fill-opacity:1;fill-rule:nonzero;stroke:none"
             d="m 0,0 c -0.778,-4.064 -1.733,-10.135 -1.826,-15.791 1.782,-0.438 3.628,-0.851 5.53,-1.238 0.092,6.765 0.329,13.795 0.717,21.117 C 4.302,4.117 4.184,4.147 4.064,4.178 3.626,2.121 2.036,0.496 0,0" /></g><g
           transform="translate(461.7754,260.9629)"
           id="g10261"><path
             id="path10263"
             style="fill:#e90e8b;fill-opacity:1;fill-rule:nonzero;stroke:none"
             d="m 0,0 c 0.964,-0.989 1.56,-2.338 1.56,-3.828 0,-1.611 -0.699,-3.056 -1.805,-4.06 0.483,-1.976 0.967,-4.42 1.243,-7.084 6.26,6.476 9.151,13.269 8.254,19.729 C 9.018,6.446 8.512,8.071 7.766,9.609 6.07,6.503 3.443,3.268 0,0" /></g><g
           transform="translate(391.8252,222.8721)"
           id="g10265"><path
             id="path10267"
             style="fill:#e90e8b;fill-opacity:1;fill-rule:nonzero;stroke:none"
             d="m 0,0 c -1.733,0.507 -3.109,1.843 -3.67,3.551 -4.831,-1.136 -9.78,-2.137 -14.822,-2.986 0.232,-2.506 0.485,-4.996 0.763,-7.461 0.011,-0.099 0.022,-0.198 0.034,-0.295 0.1,-0.889 0.206,-1.773 0.313,-2.657 0.024,-0.196 0.047,-0.393 0.07,-0.59 0.095,-0.763 0.193,-1.524 0.291,-2.284 0.04,-0.301 0.077,-0.604 0.117,-0.905 0.083,-0.622 0.169,-1.242 0.255,-1.861 0.057,-0.424 0.114,-0.849 0.173,-1.27 0.032,-0.217 0.065,-0.431 0.095,-0.647 5.912,1.197 11.584,2.597 17.013,4.16 C 0.944,-8.526 0.479,-3.531 0,0" /></g><g
           transform="translate(453.3184,254.0371)"
           id="g10269"><path
             id="path10271"
             style="fill:#e90e8b;fill-opacity:1;fill-rule:nonzero;stroke:none"
             d="m 0,0 c -5.803,-4.177 -12.803,-8.288 -20.748,-12.128 0.346,-0.718 0.544,-1.519 0.544,-2.369 0,-1.735 -0.808,-3.28 -2.066,-4.285 0.485,-2.647 0.944,-6.119 0.965,-9.845 8.245,4.293 15.468,8.747 21.649,12.998 1.636,1.125 3.16,2.271 4.576,3.43 C 4.9,-8.521 4.27,-4.972 3.631,-2.311 2.126,-2.063 0.827,-1.207 0,0" /></g><g
           transform="translate(246.2324,223.5215)"
           id="g10273"><path
             id="path10275"
             style="fill:#e90e8b;fill-opacity:1;fill-rule:nonzero;stroke:none"
             d="m 0,0 c 0.7,5.09 1.992,9.786 3.066,13.114 -1.115,1.005 -1.82,2.456 -1.82,4.074 0,0.975 0.257,1.888 0.701,2.681 -6.105,3.709 -12.036,7.923 -17.741,12.687 -0.917,-2.393 -1.227,-5.041 -0.897,-7.905 C -15.74,16.407 -9.738,7.62 0,0" /></g><g
           transform="translate(426.3887,234.1982)"
           id="g10277"><path
             id="path10279"
             style="fill:#e90e8b;fill-opacity:1;fill-rule:nonzero;stroke:none"
             d="m 0,0 c -1.734,0.4 -3.155,1.619 -3.828,3.231 -7.375,-3.053 -15.363,-5.847 -23.809,-8.253 0.066,-0.337 0.102,-0.684 0.102,-1.04 0,-1.85 -0.918,-3.483 -2.32,-4.477 0.459,-3.337 0.909,-7.947 0.764,-12.578 11.032,3.456 21.005,7.553 29.894,11.895 C 1.029,-7.062 0.534,-2.984 0,0" /></g><g
           transform="translate(467.6562,187.1035)"
           id="g10281"><path
             id="path10283"
             style="fill:#2aabe2;fill-opacity:1;fill-rule:nonzero;stroke:none"
             d="m 0,0 c 1.426,0.991 2.361,2.639 2.361,4.507 0,0.783 -0.167,1.527 -0.463,2.201 -0.847,1.935 -2.777,3.287 -5.025,3.287 -3.03,0 -5.487,-2.458 -5.487,-5.488 0,-0.592 0.096,-1.161 0.269,-1.695 0.552,-1.7 1.909,-3.036 3.623,-3.555 0.689,-5.517 1.38,-15.064 -0.286,-24.563 1.733,0.566 3.433,1.143 5.094,1.736 C 1.362,-14.239 0.682,-5.322 0,0" /></g><g
           transform="translate(498.5508,202.3682)"
           id="g10285"><path
             id="path10287"
             style="fill:#2aabe2;fill-opacity:1;fill-rule:nonzero;stroke:none"
             d="m 0,0 c 1.349,0.999 2.227,2.599 2.227,4.405 0,1.039 -0.295,2.008 -0.797,2.836 -0.961,1.588 -2.7,2.653 -4.692,2.653 -3.03,0 -5.488,-2.457 -5.488,-5.489 0,-1.073 0.313,-2.072 0.847,-2.918 0.723,-1.148 1.86,-2.008 3.203,-2.372 0.846,-5.7 1.694,-15.817 -0.608,-26.117 1.953,1.198 3.79,2.426 5.519,3.682 C 1.586,-13.885 0.793,-5.201 0,0" /></g><g
           transform="translate(481.6016,115.5439)"
           id="g10289"><path
             id="path10291"
             style="fill:#2aabe2;fill-opacity:1;fill-rule:nonzero;stroke:none"
             d="m 0,0 c 1.62,0.953 2.712,2.711 2.712,4.728 0,0.749 -0.151,1.461 -0.423,2.112 -0.828,1.982 -2.783,3.376 -5.065,3.376 -3.032,0 -5.488,-2.458 -5.488,-5.488 0,-0.638 0.115,-1.248 0.315,-1.818 0.53,-1.512 1.703,-2.719 3.191,-3.296 0.418,-6.135 0.897,-16.854 -0.074,-25.011 1.672,0.407 3.312,0.825 4.924,1.252 C 0.861,-15.818 0.404,-5.855 0,0" /></g><g
           transform="translate(290.9678,225.6982)"
           id="g10293"><path
             id="path10295"
             style="fill:#2aabe2;fill-opacity:1;fill-rule:nonzero;stroke:none"
             d="m 0,0 c 0.079,0.37 0.123,0.754 0.123,1.148 0,3.032 -2.456,5.489 -5.487,5.489 -2.379,0 -4.398,-1.516 -5.159,-3.631 -0.21,-0.581 -0.33,-1.204 -0.33,-1.858 0,-1.759 0.832,-3.322 2.121,-4.326 -0.766,-3.968 -1.697,-9.811 -1.894,-15.536 1.529,-0.435 3.107,-0.855 4.735,-1.255 0.093,5.656 1.048,11.727 1.827,15.791 C -2.028,-3.682 -0.438,-2.057 0,0" /></g><g
           transform="translate(257.7627,238.0479)"
           id="g10297"><path
             id="path10299"
             style="fill:#2aabe2;fill-opacity:1;fill-rule:nonzero;stroke:none"
             d="m 0,0 c 0.439,0.789 0.691,1.696 0.691,2.662 0,3.031 -2.457,5.488 -5.488,5.488 -2.057,0 -3.847,-1.133 -4.786,-2.807 -0.444,-0.793 -0.701,-1.706 -0.701,-2.681 0,-1.618 0.705,-3.069 1.82,-4.074 -1.074,-3.328 -2.366,-8.025 -3.066,-13.114 1.401,-1.097 2.88,-2.17 4.432,-3.213 0.513,5.738 2.027,11.305 3.223,14.997 C -2.206,-2.459 -0.794,-1.428 0,0" /></g><g
           transform="translate(513.6289,227.1357)"
           id="g10301"><path
             id="path10303"
             style="fill:#2aabe2;fill-opacity:1;fill-rule:nonzero;stroke:none"
             d="m 0,0 c 0,-1.655 0.736,-3.136 1.896,-4.142 0.963,-0.836 2.217,-1.345 3.592,-1.345 0.494,0 0.971,0.071 1.426,0.193 C 6.184,0.364 3.432,5.086 3.432,5.086 1.421,4.271 0,2.303 0,0" /></g><g
           transform="translate(201.1523,202.8936)"
           id="g10305"><path
             id="path10307"
             style="fill:#2aabe2;fill-opacity:1;fill-rule:nonzero;stroke:none"
             d="m 0,0 c 0.218,1.444 0.469,2.718 0.721,3.814 1.055,0.174 2.008,0.648 2.77,1.333 1.116,1.005 1.822,2.457 1.822,4.077 0,3.03 -2.457,5.487 -5.488,5.487 -1.567,0 -2.977,-0.66 -3.977,-1.714 -0.934,-0.983 -1.51,-2.31 -1.51,-3.773 0,-1.608 0.695,-3.048 1.795,-4.052 -0.941,-3.995 -1.894,-10.221 -1.444,-18.025 0.175,-3.017 0.557,-6.268 1.235,-9.72 l 4.676,0.918 c -0.146,0.742 -0.272,1.47 -0.389,2.192 C -1.122,-11.24 -0.665,-4.412 0,0" /></g><g
           transform="translate(233.3027,184.665)"
           id="g10309"><path
             id="path10311"
             style="fill:#2aabe2;fill-opacity:1;fill-rule:nonzero;stroke:none"
             d="m 0,0 c 1.531,0.502 2.764,1.657 3.369,3.138 0.262,0.64 0.409,1.341 0.409,2.075 0,3.03 -2.456,5.487 -5.487,5.487 -2.041,0 -3.818,-1.117 -4.764,-2.77 -0.459,-0.802 -0.724,-1.728 -0.724,-2.717 0,-1.911 0.977,-3.592 2.459,-4.575 -0.483,-4.543 -0.91,-11.654 -0.094,-19.161 0.188,-1.734 0.442,-3.488 0.778,-5.237 l 4.68,0.899 C 0.48,-22.103 0.354,-21.34 0.239,-20.578 -0.937,-12.713 -0.501,-4.842 0,0" /></g><g
           transform="translate(270.8027,172.0449)"
           id="g10313"><path
             id="path10315"
             style="fill:#2aabe2;fill-opacity:1;fill-rule:nonzero;stroke:none"
             d="m 0,0 c 1.719,0.655 3.024,2.145 3.415,3.978 0.078,0.37 0.121,0.752 0.121,1.146 0,3.03 -2.456,5.488 -5.487,5.488 -2.555,0 -4.695,-1.748 -5.307,-4.11 -0.114,-0.441 -0.181,-0.901 -0.181,-1.378 0,-2.004 1.078,-3.752 2.681,-4.71 -0.262,-4.065 -0.467,-10.312 -0.041,-17.669 0.112,-1.94 0.267,-3.957 0.477,-6.032 l 4.742,0.481 C 0.262,-21.25 0.138,-19.727 0.039,-18.24 -0.462,-10.685 -0.26,-4.161 0,0" /></g><g
           transform="translate(395.2832,148.6982)"
           id="g10317"><path
             id="path10319"
             style="fill:#2aabe2;fill-opacity:1;fill-rule:nonzero;stroke:none"
             d="m 0,0 c 0.778,8.088 0.443,15.81 0.06,20.626 1.565,0.966 2.612,2.692 2.612,4.668 0,0.257 -0.024,0.507 -0.058,0.754 -0.368,2.673 -2.655,4.733 -5.429,4.733 -3.031,0 -5.489,-2.457 -5.489,-5.487 0,-0.271 0.027,-0.534 0.064,-0.795 0.294,-2.018 1.682,-3.677 3.548,-4.356 C -4.317,15.327 -3.99,7.52 -4.835,-0.436 -4.908,-1.12 -4.99,-1.806 -5.081,-2.49 c 0.038,-0.101 0.073,-0.203 0.111,-0.305 0.057,-0.148 0.114,-0.298 0.171,-0.446 l 4.343,-0.618 C -0.273,-2.57 -0.123,-1.281 0,0" /></g><g
           transform="translate(432.373,176.1484)"
           id="g10321"><path
             id="path10323"
             style="fill:#2aabe2;fill-opacity:1;fill-rule:nonzero;stroke:none"
             d="m 0,0 c 1.532,0.974 2.552,2.682 2.552,4.631 0,0.554 -0.083,1.087 -0.236,1.591 -0.682,2.255 -2.774,3.897 -5.252,3.897 -3.031,0 -5.488,-2.457 -5.488,-5.488 0,-0.348 0.036,-0.687 0.098,-1.017 0.365,-1.942 1.752,-3.52 3.582,-4.159 0.512,-5.459 1.038,-14.609 -0.101,-22.482 -0.122,-0.847 -0.263,-1.678 -0.426,-2.489 l 4.671,-0.94 c 0.285,1.413 0.506,2.878 0.681,4.365 C 1.025,-14.052 0.508,-5.318 0,0" /></g><g
           transform="translate(443.8437,104.0381)"
           id="g10325"><path
             id="path10327"
             style="fill:#2aabe2;fill-opacity:1;fill-rule:nonzero;stroke:none"
             d="m 0,0 c 1.577,0.964 2.633,2.696 2.633,4.681 0,0.422 -0.052,0.83 -0.142,1.224 -0.556,2.441 -2.736,4.263 -5.345,4.263 -3.031,0 -5.488,-2.457 -5.488,-5.487 0,-0.519 0.076,-1.018 0.21,-1.493 0.479,-1.692 1.745,-3.048 3.381,-3.652 0.392,-5.049 0.75,-13.182 -0.173,-20.166 1.645,0.206 3.272,0.419 4.879,0.638 C 0.752,-12.814 0.392,-4.954 0,0" /></g><g
           transform="translate(515.4531,132.4424)"
           id="g10329"><path
             id="path10331"
             style="fill:#2aabe2;fill-opacity:1;fill-rule:nonzero;stroke:none"
             d="m 0,0 c 1.264,1.006 2.074,2.553 2.074,4.292 0,1.1 -0.326,2.122 -0.884,2.98 -0.977,1.508 -2.672,2.508 -4.603,2.508 -3.03,0 -5.488,-2.457 -5.488,-5.488 0,-1.077 0.315,-2.079 0.851,-2.926 0.757,-1.198 1.963,-2.08 3.384,-2.412 0.232,-1.394 0.459,-3.089 0.631,-5.069 0.461,-5.369 0.581,-13.909 -1.308,-24.809 1.82,0.867 3.57,1.758 5.246,2.673 C 1.795,-15.095 0.931,-5.433 0,0" /></g><g
           transform="translate(540.6172,155.2529)"
           id="g10333"><path
             id="path10335"
             style="fill:#2aabe2;fill-opacity:1;fill-rule:nonzero;stroke:none"
             d="m 0,0 c 1.073,1.002 1.75,2.426 1.75,4.01 0,2.013 -1.089,3.769 -2.707,4.724 -0.816,0.483 -1.766,0.764 -2.781,0.764 -3.032,0 -5.489,-2.457 -5.489,-5.488 0,-1.755 0.828,-3.315 2.111,-4.319 0.723,-0.567 1.593,-0.953 2.542,-1.098 1.678,-6.337 4.007,-18.434 1.763,-31.067 2.202,2.797 4.092,5.656 5.666,8.566 C 3.19,-13.921 1.393,-5.157 0,0" /></g><g
           transform="translate(433.1143,239.54)"
           id="g10337"><path
             id="path10339"
             style="fill:#2aabe2;fill-opacity:1;fill-rule:nonzero;stroke:none"
             d="m 0,0 c 0,0.85 -0.198,1.651 -0.544,2.369 -0.885,1.844 -2.763,3.119 -4.943,3.119 -3.032,0 -5.489,-2.457 -5.489,-5.488 0,-0.748 0.151,-1.461 0.422,-2.11 0.673,-1.613 2.094,-2.831 3.828,-3.232 0.535,-2.984 1.03,-7.062 0.803,-11.221 1.645,0.803 3.252,1.616 4.822,2.433 -0.021,3.726 -0.48,7.198 -0.964,9.845 C -0.808,-3.28 0,-1.735 0,0" /></g><g
           transform="translate(463.335,257.1348)"
           id="g10341"><path
             id="path10343"
             style="fill:#2aabe2;fill-opacity:1;fill-rule:nonzero;stroke:none"
             d="m 0,0 c 0,1.49 -0.596,2.839 -1.56,3.828 -0.997,1.023 -2.387,1.66 -3.928,1.66 -3.031,0 -5.488,-2.458 -5.488,-5.488 0,-1.149 0.355,-2.216 0.959,-3.098 0.828,-1.207 2.126,-2.062 3.631,-2.31 0.639,-2.661 1.27,-6.21 1.289,-9.889 1.666,1.365 3.18,2.752 4.535,4.153 -0.276,2.665 -0.759,5.108 -1.243,7.084 C -0.698,-3.056 0,-1.611 0,0" /></g><g
           transform="translate(396.5332,223.6592)"
           id="g10345"><path
             id="path10347"
             style="fill:#2aabe2;fill-opacity:1;fill-rule:nonzero;stroke:none"
             d="m 0,0 c 1.402,0.994 2.32,2.627 2.32,4.478 0,0.355 -0.036,0.702 -0.101,1.039 -0.486,2.533 -2.71,4.448 -5.385,4.448 -3.031,0 -5.488,-2.457 -5.488,-5.487 0,-0.599 0.098,-1.174 0.276,-1.714 0.561,-1.708 1.937,-3.044 3.67,-3.551 0.479,-3.531 0.944,-8.526 0.632,-13.245 1.636,0.47 3.249,0.956 4.841,1.454 C 0.909,-7.947 0.46,-3.337 0,0" /></g><g
           transform="translate(296.0273,101.0723)"
           id="g10349"><path
             id="path10351"
             style="fill:#2aabe2;fill-opacity:1;fill-rule:nonzero;stroke:none"
             d="m 0,0 c 1.804,0.755 3.118,2.445 3.337,4.465 0.022,0.197 0.035,0.396 0.035,0.598 0,3.032 -2.457,5.489 -5.488,5.489 -2.794,0 -5.095,-2.089 -5.439,-4.79 -0.029,-0.229 -0.049,-0.461 -0.049,-0.699 0,-2.066 1.144,-3.865 2.833,-4.8 -0.136,-4.956 0.029,-12.851 1.796,-20.47 1.636,-0.104 3.301,-0.202 4.986,-0.297 C 0.074,-13.11 -0.122,-5.003 0,0" /></g><g
           transform="translate(252.6719,108.252)"
           id="g10353"><path
             id="path10355"
             style="fill:#2aabe2;fill-opacity:1;fill-rule:nonzero;stroke:none"
             d="m 0,0 c 1.73,0.668 3.038,2.18 3.409,4.035 0.07,0.351 0.109,0.711 0.109,1.082 0,3.03 -2.458,5.487 -5.489,5.487 -2.557,0 -4.699,-1.75 -5.308,-4.117 -0.114,-0.438 -0.179,-0.896 -0.179,-1.37 0,-2.01 1.083,-3.763 2.695,-4.719 -0.319,-5.508 -0.404,-14.665 1.575,-23.031 1.667,-0.289 3.382,-0.568 5.143,-0.839 C -0.37,-15.358 -0.312,-5.676 0,0" /></g><g
           transform="translate(213.8623,120.6191)"
           id="g10357"><path
             id="path10359"
             style="fill:#2aabe2;fill-opacity:1;fill-rule:nonzero;stroke:none"
             d="m 0,0 c 1.393,0.519 2.519,1.581 3.114,2.934 0.297,0.675 0.465,1.42 0.465,2.207 0,3.03 -2.456,5.487 -5.487,5.487 -2.305,0 -4.275,-1.422 -5.087,-3.435 -0.257,-0.634 -0.401,-1.326 -0.401,-2.052 0,-1.985 1.056,-3.718 2.634,-4.682 -0.362,-5.416 -0.483,-14.475 1.541,-23.623 1.758,-0.862 3.602,-1.72 5.575,-2.565 C -0.446,-16.176 -0.369,-5.859 0,0" /></g><g
           transform="translate(180.9961,139.9268)"
           id="g10361"><path
             id="path10363"
             style="fill:#2aabe2;fill-opacity:1;fill-rule:nonzero;stroke:none"
             d="m 0,0 c 1.051,0.32 1.967,0.947 2.646,1.776 0.773,0.947 1.238,2.155 1.238,3.472 0,3.03 -2.457,5.487 -5.488,5.487 -1.517,0 -2.89,-0.614 -3.883,-1.609 -0.992,-0.993 -1.605,-2.364 -1.605,-3.878 0,-1.868 0.936,-3.516 2.362,-4.507 -0.487,-4.079 -0.866,-10.212 -0.042,-16.82 1.996,-2.548 4.134,-4.972 6.373,-7.246 C -1.041,-14.681 -0.62,-5.426 0,0" /></g><g
           transform="translate(313.1094,427.998)"
           id="g10365"><path
             id="path10367"
             style="fill:#652f8f;fill-opacity:1;fill-rule:nonzero;stroke:none"
             d="m 0,0 c -0.448,0.167 -0.887,0.329 -1.312,0.487 -0.305,0.109 -0.596,0.227 -0.881,0.346 0.562,-0.518 1.131,-1.027 1.706,-1.525 0.118,0.181 0.237,0.364 0.368,0.537 C -0.081,-0.102 -0.039,-0.053 0,0" /></g><g
           transform="translate(319.6914,298.791)"
           id="g10369"><path
             id="path10371"
             style="fill:#e90e8b;fill-opacity:1;fill-rule:nonzero;stroke:none"
             d="m 0,0 c 5.453,-0.519 14.888,-1.064 24.881,-0.05 0.728,2.177 2.78,3.747 5.202,3.747 0.037,0 0.073,-0.005 0.109,-0.005 0.6,10.202 1.264,19.179 1.619,26.807 -0.271,-0.042 -0.546,-0.069 -0.829,-0.069 -1.92,0 -3.608,0.988 -4.588,2.482 -2.318,-0.192 -4.748,-0.272 -7.132,-0.272 -4.113,0 -8.074,0.223 -11.031,0.449 C 7.271,31.497 5.53,30.43 3.536,30.43 3.015,30.43 2.513,30.507 2.035,30.643 -0.295,22.797 -2.395,13.675 -4.238,3.61 -2.257,3.266 -0.644,1.861 0,0" /></g><g
           transform="translate(328.3604,336.6338)"
           id="g10373"><path
             id="path10375"
             style="fill:#e90e8b;fill-opacity:1;fill-rule:nonzero;stroke:none"
             d="m 0,0 c 4.464,-0.336 11.25,-0.666 17.105,-0.203 0.723,2.186 2.781,3.766 5.208,3.766 0.369,0 0.728,-0.038 1.075,-0.107 C 23.237,16.556 20.82,23.319 12.571,22.55 6.721,22.003 1.446,14.898 -3.119,3.176 -1.681,2.607 -0.544,1.45 0,0" /></g><g
           transform="translate(312.3701,223.7207)"
           id="g10377"><path
             id="path10379"
             style="fill:#e90e8b;fill-opacity:1;fill-rule:nonzero;stroke:none"
             d="m 0,0 c 6.903,-0.835 20.157,-1.94 32.604,-0.176 0.636,2.251 2.67,3.911 5.107,3.986 -0.745,9.323 -1.156,18.25 -1.333,26.747 -0.148,-0.013 -0.297,-0.023 -0.447,-0.023 -1.926,0 -3.618,0.993 -4.597,2.494 -5.106,-0.547 -10.03,-0.748 -14.485,-0.748 -6.305,0 -11.669,0.399 -15.301,0.769 -0.978,-1.512 -2.674,-2.515 -4.609,-2.515 -0.051,0 -0.101,0.006 -0.153,0.008 C -3.983,21.827 -4.603,12.874 -5.063,3.81 -2.688,3.739 -0.69,2.164 0,0" /></g><g
           transform="translate(314.499,261.5146)"
           id="g10381"><path
             id="path10383"
             style="fill:#e90e8b;fill-opacity:1;fill-rule:nonzero;stroke:none"
             d="m 0,0 c 5.992,-0.596 16.877,-1.272 28.599,-0.035 0.726,2.178 2.779,3.751 5.203,3.751 0.116,0 0.228,-0.011 0.343,-0.018 0.013,9.385 0.284,18.177 0.661,26.323 -1.732,0.148 -3.232,1.097 -4.13,2.477 -4.379,-0.453 -8.631,-0.623 -12.509,-0.623 -5.482,0 -10.223,0.332 -13.539,0.655 C 3.652,31.009 1.95,29.998 0.01,29.998 c -0.302,0 -0.596,0.031 -0.884,0.078 C -2.178,21.714 -3.319,12.846 -4.29,3.636 -2.281,3.304 -0.644,1.885 0,0" /></g><g
           transform="translate(311.5566,186.4668)"
           id="g10385"><path
             id="path10387"
             style="fill:#e90e8b;fill-opacity:1;fill-rule:nonzero;stroke:none"
             d="m 0,0 c 8.335,-1.052 25.715,-2.733 38.32,-0.484 0.508,2.293 2.448,4.047 4.835,4.271 -0.179,1.082 -0.359,2.168 -0.537,3.268 -1.282,7.925 -2.296,15.634 -3.084,23.112 -0.275,-0.042 -0.555,-0.07 -0.841,-0.07 -1.834,0 -3.454,0.902 -4.45,2.285 -5.224,-0.756 -10.538,-1.032 -15.495,-1.032 -7.56,0 -14.287,0.636 -18.608,1.171 -0.986,-1.462 -2.658,-2.424 -4.553,-2.424 -0.107,0 -0.209,0.009 -0.314,0.015 C -5.044,21.364 -5.213,12.562 -5.226,3.813 -2.779,3.813 -0.709,2.211 0,0" /></g><g
           transform="translate(324.415,109.7539)"
           id="g10389"><path
             id="path10391"
             style="fill:#e90e8b;fill-opacity:1;fill-rule:nonzero;stroke:none"
             d="m 0,0 c 7.88,-2.199 25.425,-5.497 47.292,0.21 0.321,1.878 1.591,3.43 3.303,4.141 -3.586,7.766 -6.837,16.834 -9.823,27.356 -0.542,-0.181 -1.121,-0.281 -1.723,-0.281 -1.615,0 -3.063,0.702 -4.067,1.812 -6.836,-1.713 -13.959,-2.324 -20.633,-2.324 -10.459,0 -19.818,1.496 -25.252,2.588 -0.768,-0.965 -1.853,-1.665 -3.098,-1.941 1.791,-9.922 4.101,-18.984 6.783,-27.094 0.56,0.192 1.158,0.302 1.783,0.302 C -2.648,4.769 -0.353,2.69 0,0" /></g><g
           transform="translate(314.5547,147.9297)"
           id="g10393"><path
             id="path10395"
             style="fill:#e90e8b;fill-opacity:1;fill-rule:nonzero;stroke:none"
             d="m 0,0 c 8.528,-1.674 27.129,-4.385 43.502,-0.356 0.374,2.248 2.109,4.034 4.334,4.475 -2.051,8.331 -3.975,17.456 -5.8,27.433 -0.434,-0.112 -0.889,-0.177 -1.358,-0.177 -1.722,0 -3.256,0.794 -4.263,2.034 -4.999,-0.915 -10.627,-1.25 -16.169,-1.25 -9.376,0 -18.503,0.952 -23.913,1.647 C -4.623,32.383 -6.23,31.437 -8.062,31.383 -7.746,21.812 -6.981,12.732 -5.839,4.2 -5.674,4.216 -5.506,4.226 -5.336,4.226 -2.739,4.226 -0.571,2.422 0,0" /></g><g
           transform="translate(380.0547,104.4092)"
           id="g10397"><path
             id="path10399"
             style="fill:#e90e8b;fill-opacity:1;fill-rule:nonzero;stroke:none"
             d="m 0,0 c -0.852,-0.543 -1.859,-0.862 -2.943,-0.862 -1.627,0 -3.083,0.711 -4.088,1.835 -9.604,-2.53 -18.38,-3.421 -25.961,-3.421 -10.844,0 -19.248,1.813 -24.166,3.233 -0.532,-0.543 -1.178,-0.973 -1.898,-1.259 4.385,-10.634 9.433,-19.13 14.684,-25.198 8.655,-6.058 18.788,-9.65 30.283,-10.716 11.575,-1.071 28.988,-1.007 46.213,5.39 1.778,0.661 3.411,1.338 4.897,2.004 C 21.658,-25.333 9.689,-16.455 0,0" /></g><g
           transform="translate(327.9229,331.8799)"
           id="g10401"><path
             id="path10403"
             style="fill:#2aabe2;fill-opacity:1;fill-rule:nonzero;stroke:none"
             d="m 0,0 c 2.956,-0.226 6.918,-0.449 11.03,-0.449 2.385,0 4.815,0.08 7.132,0.272 0.981,-1.494 2.669,-2.482 4.589,-2.482 0.282,0 0.558,0.027 0.828,0.069 2.637,0.4 4.66,2.67 4.66,5.419 0,2.662 -1.897,4.881 -4.414,5.381 -0.346,0.069 -0.706,0.106 -1.074,0.106 -2.428,0 -4.485,-1.579 -5.208,-3.765 C 11.688,4.088 4.901,4.418 0.437,4.754 c -0.543,1.45 -1.68,2.607 -3.119,3.176 -0.624,0.247 -1.302,0.386 -2.013,0.386 -3.032,0 -5.489,-2.457 -5.489,-5.487 0,-2.511 1.687,-4.622 3.988,-5.275 0.477,-0.136 0.979,-0.213 1.501,-0.213 1.994,0 3.734,1.067 4.695,2.659" /></g><g
           transform="translate(319.127,294.0449)"
           id="g10405"><path
             id="path10407"
             style="fill:#2aabe2;fill-opacity:1;fill-rule:nonzero;stroke:none"
             d="m 0,0 c 3.316,-0.323 8.057,-0.655 13.539,-0.655 3.878,0 8.13,0.17 12.509,0.623 0.898,-1.38 2.398,-2.329 4.13,-2.477 0.155,-0.012 0.31,-0.023 0.469,-0.023 3.032,0 5.488,2.457 5.488,5.488 0,2.993 -2.398,5.423 -5.378,5.482 -0.036,0 -0.072,0.005 -0.11,0.005 -2.421,0 -4.473,-1.57 -5.202,-3.747 C 15.452,3.682 6.018,4.228 0.564,4.746 c -0.643,1.861 -2.256,3.266 -4.238,3.61 -0.307,0.054 -0.622,0.087 -0.944,0.087 -3.031,0 -5.488,-2.457 -5.488,-5.487 0,-2.729 1.994,-4.987 4.604,-5.41 0.288,-0.047 0.582,-0.078 0.884,-0.078 1.94,0 3.642,1.011 4.618,2.532" /></g><g
           transform="translate(313.918,256.7695)"
           id="g10409"><path
             id="path10411"
             style="fill:#2aabe2;fill-opacity:1;fill-rule:nonzero;stroke:none"
             d="m 0,0 c 3.632,-0.37 8.996,-0.769 15.301,-0.769 4.455,0 9.379,0.202 14.485,0.748 0.98,-1.5 2.671,-2.494 4.597,-2.494 0.15,0 0.3,0.01 0.447,0.023 2.821,0.228 5.04,2.586 5.04,5.465 0,2.915 -2.274,5.293 -5.144,5.47 C 34.611,8.45 34.499,8.461 34.383,8.461 31.959,8.461 29.906,6.888 29.18,4.71 17.458,3.473 6.573,4.149 0.581,4.745 -0.062,6.63 -1.7,8.049 -3.709,8.381 c -0.294,0.049 -0.592,0.08 -0.899,0.08 -3.032,0 -5.489,-2.458 -5.489,-5.488 0,-2.979 2.375,-5.399 5.335,-5.48 0.052,-0.002 0.102,-0.008 0.154,-0.008 1.934,0 3.63,1.003 4.608,2.515" /></g><g
           transform="translate(311.6963,218.9873)"
           id="g10413"><path
             id="path10415"
             style="fill:#2aabe2;fill-opacity:1;fill-rule:nonzero;stroke:none"
             d="m 0,0 c 4.321,-0.534 11.048,-1.171 18.608,-1.171 4.957,0 10.271,0.276 15.496,1.032 0.996,-1.382 2.616,-2.285 4.45,-2.285 0.286,0 0.565,0.028 0.841,0.07 2.63,0.406 4.647,2.673 4.647,5.417 0,3.031 -2.457,5.489 -5.488,5.489 -0.057,0 -0.113,-0.007 -0.169,-0.009 C 35.948,8.469 33.914,6.809 33.277,4.558 20.831,2.793 7.577,3.898 0.674,4.733 c -0.691,2.164 -2.688,3.74 -5.064,3.81 -0.054,0.002 -0.108,0.009 -0.163,0.009 -3.031,0 -5.488,-2.458 -5.488,-5.489 0,-2.924 2.29,-5.308 5.175,-5.471 0.104,-0.006 0.207,-0.016 0.313,-0.016 1.896,0 3.568,0.962 4.553,2.424" /></g><g
           transform="translate(310.8877,181.7354)"
           id="g10417"><path
             id="path10419"
             style="fill:#2aabe2;fill-opacity:1;fill-rule:nonzero;stroke:none"
             d="m 0,0 c 5.41,-0.694 14.537,-1.646 23.913,-1.646 5.542,0 11.17,0.334 16.169,1.25 1.007,-1.241 2.541,-2.035 4.263,-2.035 0.469,0 0.924,0.066 1.358,0.177 2.372,0.606 4.129,2.751 4.129,5.312 0,3.03 -2.456,5.487 -5.487,5.487 -0.176,0 -0.349,-0.01 -0.521,-0.026 C 41.437,8.294 39.497,6.54 38.989,4.247 26.384,1.998 9.004,3.68 0.669,4.731 -0.04,6.942 -2.11,8.545 -4.557,8.545 c -3.031,0 -5.488,-2.457 -5.488,-5.487 0,-3.032 2.457,-5.489 5.488,-5.489 0.055,0 0.109,0.007 0.162,0.008 1.832,0.055 3.439,1 4.395,2.423" /></g><g
           transform="translate(313.5117,143.2559)"
           id="g10421"><path
             id="path10423"
             style="fill:#2aabe2;fill-opacity:1;fill-rule:nonzero;stroke:none"
             d="m 0,0 c 5.435,-1.092 14.793,-2.588 25.252,-2.588 6.675,0 13.797,0.611 20.634,2.324 1.004,-1.11 2.451,-1.812 4.066,-1.812 0.603,0 1.182,0.1 1.724,0.281 2.185,0.723 3.763,2.779 3.763,5.207 0,3.03 -2.456,5.487 -5.487,5.487 -0.368,0 -0.726,-0.037 -1.073,-0.106 C 46.654,8.352 44.919,6.565 44.545,4.317 28.172,0.289 9.571,3 1.043,4.674 0.472,7.096 -1.696,8.899 -4.293,8.899 -4.463,8.899 -4.631,8.89 -4.796,8.874 -7.591,8.62 -9.781,6.272 -9.781,3.412 c 0,-3.03 2.457,-5.488 5.488,-5.488 0.41,0 0.811,0.049 1.195,0.135 C -1.853,-1.665 -0.768,-0.965 0,0" /></g><g
           transform="translate(347.0625,101.9609)"
           id="g10425"><path
             id="path10427"
             style="fill:#2aabe2;fill-opacity:1;fill-rule:nonzero;stroke:none"
             d="m 0,0 c 7.581,0 16.357,0.892 25.961,3.421 1.005,-1.124 2.461,-1.835 4.088,-1.835 1.084,0 2.092,0.319 2.943,0.862 1.528,0.974 2.544,2.68 2.544,4.625 0,3.031 -2.457,5.489 -5.487,5.489 -0.745,0 -1.454,-0.15 -2.102,-0.418 C 26.235,11.433 24.966,9.881 24.645,8.003 2.777,2.296 -14.768,5.594 -22.647,7.793 c -0.353,2.69 -2.649,4.769 -5.435,4.769 -0.625,0 -1.224,-0.11 -1.783,-0.302 -2.155,-0.741 -3.705,-2.781 -3.705,-5.187 0,-3.03 2.457,-5.487 5.488,-5.487 0.713,0 1.394,0.141 2.019,0.389 0.719,0.285 1.365,0.715 1.897,1.258 C -19.248,1.813 -10.844,0 0,0" /></g><g
           transform="translate(543.4727,131.3447)"
           id="g10429"><path
             id="path10431"
             style="fill:#000000;fill-opacity:1;fill-rule:nonzero;stroke:none"
             d="m 0,0 c -1.574,-2.91 -3.465,-5.769 -5.666,-8.565 -1.74,-2.212 -3.67,-4.386 -5.798,-6.513 -4.397,-4.398 -9.961,-8.425 -16.652,-12.075 -1.677,-0.915 -3.427,-1.806 -5.246,-2.673 -8.087,-3.855 -17.573,-7.233 -28.417,-10.119 -1.612,-0.428 -3.252,-0.846 -4.924,-1.253 -2.197,-0.535 -4.441,-1.054 -6.74,-1.551 -8.102,-1.751 -16.855,-3.269 -26.231,-4.55 -1.607,-0.219 -3.234,-0.431 -4.879,-0.638 -2.603,-0.326 -5.254,-0.633 -7.948,-0.924 -2.507,2.038 -9.789,8.468 -18.429,20.669 -4.927,6.956 -10.294,15.787 -15.467,26.752 -0.53,1.123 -1.052,2.256 -1.566,3.399 -0.055,0.123 -0.11,0.244 -0.166,0.368 -0.545,1.219 -1.081,2.448 -1.608,3.689 -0.029,0.066 -0.057,0.13 -0.085,0.197 -0.54,1.274 -1.071,2.561 -1.592,3.859 -0.019,0.047 -0.038,0.094 -0.058,0.142 -0.04,0.101 -0.079,0.206 -0.12,0.307 0.432,0.039 0.865,0.071 1.296,0.11 65.867,5.906 112.015,24.24 126.609,50.3 1.161,2.071 2.179,4.124 3.073,6.157 C -13.912,63.8 -4.997,55.282 0.591,43.857 2.341,40.282 3.765,36.424 4.691,32.352 7.211,21.276 5.585,10.319 0,0 m -153.159,14.559 c -0.038,0.101 -0.073,0.204 -0.112,0.304 0.091,0.685 0.173,1.37 0.247,2.055 -0.325,-0.027 -0.649,-0.056 -0.972,-0.082 -0.16,0.435 -0.323,0.865 -0.481,1.304 -0.084,0.234 -0.168,0.47 -0.251,0.706 -0.446,1.256 -0.886,2.518 -1.316,3.794 -0.013,0.036 -0.024,0.072 -0.036,0.108 -0.431,1.281 -0.852,2.573 -1.265,3.873 -0.057,0.183 -0.117,0.363 -0.175,0.546 -0.406,1.288 -0.803,2.587 -1.193,3.893 -0.062,0.208 -0.124,0.417 -0.185,0.626 -0.397,1.338 -0.786,2.685 -1.164,4.043 l -0.056,0.202 c -0.374,1.347 -0.738,2.706 -1.096,4.072 -0.037,0.143 -0.075,0.284 -0.112,0.428 -0.07,0.265 -0.134,0.536 -0.202,0.803 -0.28,1.088 -0.556,2.18 -0.824,3.28 -0.058,0.239 -0.117,0.478 -0.173,0.718 -0.329,1.36 -0.649,2.728 -0.96,4.104 -0.041,0.184 -0.081,0.367 -0.122,0.55 -0.292,1.306 -0.577,2.621 -0.854,3.942 -0.037,0.178 -0.076,0.354 -0.113,0.531 -0.281,1.356 -0.553,2.722 -0.819,4.092 -0.063,0.328 -0.126,0.655 -0.189,0.984 -0.254,1.337 -0.502,2.681 -0.741,4.033 -0.056,0.317 -0.111,0.636 -0.165,0.954 -0.19,1.085 -0.371,2.175 -0.55,3.268 35.504,7.141 62.623,21.442 80.911,34.019 9.016,6.201 14.188,12.353 17.057,17.845 11.884,2.722 30.689,-2.622 40.325,-15.161 0.874,-1.138 1.647,-2.311 2.333,-3.516 0,0 2.752,-4.722 3.482,-10.38 1.044,-7.962 -1.095,-16.872 -6.426,-26.391 -3.308,-5.906 -8.444,-11.383 -15.355,-16.403 -1.728,-1.256 -3.566,-2.483 -5.518,-3.682 -6.632,-4.071 -14.542,-7.805 -23.703,-11.181 -0.593,-0.22 -1.195,-0.437 -1.798,-0.652 -1.662,-0.592 -3.362,-1.169 -5.094,-1.735 -9.165,-2.988 -19.298,-5.583 -30.195,-7.74 -0.174,-1.487 -0.396,-2.952 -0.68,-4.365 l -4.672,0.94 c 0.163,0.811 0.305,1.642 0.427,2.488 -10.191,-1.857 -20.991,-3.342 -32.245,-4.422 -0.123,-1.282 -0.274,-2.571 -0.457,-3.86 l -4.342,0.618 c -0.058,0.149 -0.115,0.298 -0.171,0.447 m -14.869,59.563 c -0.031,0.216 -0.064,0.431 -0.095,0.648 -0.06,0.42 -0.116,0.845 -0.174,1.269 -0.086,0.619 -0.172,1.239 -0.255,1.861 -0.04,0.301 -0.077,0.604 -0.116,0.906 -0.099,0.759 -0.196,1.52 -0.291,2.284 -0.023,0.196 -0.047,0.393 -0.07,0.59 -0.108,0.883 -0.213,1.767 -0.314,2.656 -0.011,0.098 -0.022,0.196 -0.033,0.295 -0.278,2.466 -0.531,4.955 -0.764,7.462 -0.961,10.372 -1.524,21.091 -1.69,32.131 18.85,3.562 32.889,10.952 44.745,17.194 10.839,5.707 20.2,10.635 29.744,10.635 3.182,0 6.278,-0.525 9.469,-1.606 6.615,-2.241 11.538,-6.27 13.94,-11.219 0.746,-1.539 1.252,-3.164 1.487,-4.853 0.897,-6.46 -1.994,-13.253 -8.254,-19.729 -1.356,-1.401 -2.869,-2.788 -4.535,-4.153 -1.416,-1.159 -2.94,-2.305 -4.577,-3.43 -6.18,-4.25 -13.403,-8.705 -21.648,-12.998 -1.57,-0.817 -3.178,-1.629 -4.822,-2.433 -8.889,-4.343 -18.862,-8.44 -29.894,-11.896 -1.592,-0.498 -3.205,-0.983 -4.841,-1.454 -5.428,-1.562 -11.1,-2.963 -17.012,-4.16 m -77.407,-124.898 c -1.684,0.094 -3.349,0.193 -4.985,0.297 -14.71,0.936 -27.478,2.239 -38.426,3.915 -1.76,0.27 -3.475,0.549 -5.142,0.838 -1.583,0.275 -3.128,0.557 -4.627,0.849 -12.666,2.467 -21.507,5.369 -28.641,8.422 -1.973,0.846 -3.817,1.703 -5.575,2.565 -3.054,1.5 -5.85,3.017 -8.617,4.52 l -0.998,0.542 c -6.322,3.429 -12.702,8.266 -18.43,14.085 -2.238,2.274 -4.377,4.698 -6.373,7.246 -8.311,10.61 -14.157,23.377 -14.469,36.465 -0.075,3.19 0.19,6.301 0.788,9.32 2.334,11.765 9.744,22.15 21.828,30.537 1.381,-6.362 4.629,-12.593 9.636,-18.376 8.069,-9.32 20.317,-17.217 36.405,-23.469 17.331,-6.733 39.462,-11.839 64.492,-14.912 2.688,-14.85 6.628,-27.743 11.786,-38.62 3.378,-7.125 7.277,-13.388 11.699,-18.756 1.932,-2.344 3.968,-4.523 6.102,-6.54 -9.411,0.249 -18.219,0.607 -26.453,1.072 m -138.376,45.043 c -1.3,0.159 -2.607,0.317 -3.912,0.476 3.023,0.478 6.323,1.003 9.874,1.573 0.624,-1.011 1.278,-2.017 1.954,-3.018 -2.625,0.325 -5.29,0.649 -7.916,0.969 m 30.521,83.539 c 0.297,3.862 1.454,7.573 3.36,11.041 5.286,9.617 16.356,17.349 30.926,21.192 3.211,-9.482 11.267,-18.953 22.908,-26.696 8.728,-5.807 22.744,-12.824 43.188,-16.814 0.006,-6.399 0.15,-12.554 0.433,-18.48 0.039,-0.824 0.082,-1.644 0.127,-2.459 0.073,-1.321 0.154,-2.629 0.241,-3.928 0.02,-0.304 0.039,-0.61 0.06,-0.913 0.055,-0.798 0.113,-1.593 0.175,-2.383 0.526,-6.841 1.261,-13.367 2.195,-19.583 -7.94,1.016 -15.622,2.243 -22.954,3.677 0.099,-1.486 0.223,-3.01 0.381,-4.565 l -4.742,-0.482 c -0.21,2.075 -0.364,4.092 -0.477,6.032 -11.993,2.547 -22.951,5.66 -32.462,9.297 0.115,-0.762 0.242,-1.524 0.387,-2.283 l -4.68,-0.898 c -0.336,1.749 -0.589,3.502 -0.778,5.236 -11.469,4.902 -20.559,10.699 -27.107,17.289 0.117,-0.722 0.243,-1.45 0.388,-2.192 l -4.675,-0.918 c -0.678,3.452 -1.06,6.703 -1.235,9.72 -4.202,6.168 -6.152,12.696 -5.659,19.11 m 40.256,46.926 c 1.979,5.166 6.788,9.144 14.116,11.528 4.247,1.382 8.065,2.052 11.673,2.052 6.351,0 12.071,-2.086 19.313,-4.73 5.133,-1.874 10.998,-4.014 18.371,-5.937 -1.168,-11.763 -2.032,-22.872 -2.587,-33.381 -0.388,-7.323 -0.625,-14.352 -0.717,-21.118 -1.903,0.388 -3.748,0.8 -5.531,1.239 -1.627,0.399 -3.206,0.819 -4.735,1.255 -13.29,3.785 -22.889,8.804 -29.366,13.113 -0.105,0.07 -0.206,0.142 -0.311,0.211 -1.552,1.043 -3.031,2.116 -4.432,3.213 -9.739,7.62 -15.74,16.407 -16.692,24.651 -0.33,2.863 -0.019,5.512 0.898,7.904 M 11.027,33.794 c -4.584,20.142 -19.411,34.675 -29.341,39.383 1.574,5.028 2.291,9.909 2.132,14.598 -0.254,7.586 -2.747,14.509 -7.41,20.577 -10.441,13.586 -29.145,19.539 -42.856,18.187 0.805,3.488 0.753,6.479 0.44,8.73 -1.335,9.615 -8.728,17.59 -19.779,21.334 -3.872,1.311 -7.652,1.949 -11.554,1.949 -11.15,0 -21.171,-5.276 -32.772,-11.384 -11.722,-6.172 -24.6,-12.944 -41.767,-16.354 -0.001,0.732 0.002,1.466 0.006,2.201 0.002,0.716 0.004,1.43 0.01,2.149 0.004,0.393 0.01,0.787 0.014,1.181 0.011,0.989 0.024,1.98 0.04,2.975 0.005,0.266 0.011,0.533 0.016,0.798 0.023,1.19 0.049,2.382 0.08,3.579 0.003,0.092 0.005,0.184 0.007,0.276 0.797,29.661 4.287,61.458 10.447,95.02 4.031,21.968 10.862,36.919 16.888,50.111 7.826,17.132 14.585,31.928 11.009,54.562 -2.313,14.626 -11.317,25.974 -26.039,32.816 -13.008,6.046 -29.774,8.096 -47.209,5.773 -19.591,-2.61 -25.919,-16.543 -29.781,-26.879 -0.038,0.025 -0.073,0.049 -0.11,0.075 -0.244,0.18 -0.483,0.373 -0.732,0.569 -0.473,0.402 -0.945,0.835 -1.347,1.283 -0.207,0.22 -0.396,0.444 -0.57,0.664 -0.181,0.217 -0.33,0.434 -0.478,0.637 -0.28,0.408 -0.492,0.771 -0.63,1.034 -0.136,0.262 -0.2,0.423 -0.2,0.423 0,0 -0.037,-0.167 -0.075,-0.472 -0.034,-0.303 -0.068,-0.742 -0.067,-1.279 0.008,-0.265 0.009,-0.562 0.038,-0.87 0.021,-0.31 0.053,-0.639 0.105,-0.978 0.091,-0.683 0.253,-1.404 0.448,-2.133 0.11,-0.355 0.217,-0.721 0.339,-1.074 0.13,-0.347 0.257,-0.696 0.392,-1.03 0.147,-0.329 0.289,-0.648 0.424,-0.95 0.139,-0.302 0.29,-0.574 0.422,-0.835 0.04,-0.08 0.079,-0.152 0.12,-0.227 -1.045,-2.668 -2.214,-5.184 -3.201,-5.433 -9.097,-2.295 -14.42,-7.971 -14.984,-15.985 -0.566,-8.031 3.822,-18.316 12.04,-28.219 3.276,-3.947 6.947,-7.595 10.827,-10.805 0.048,0.167 0.094,0.334 0.146,0.5 0.16,0.56 0.359,1.112 0.56,1.657 0.228,0.54 0.438,1.08 0.699,1.6 0.24,0.529 0.53,1.033 0.804,1.536 0.191,0.301 0.378,0.601 0.571,0.897 -0.575,0.498 -1.143,1.008 -1.706,1.525 -0.527,0.22 -1.028,0.45 -1.502,0.659 -0.72,0.351 -1.38,0.662 -1.946,0.988 -0.569,0.317 -1.064,0.592 -1.453,0.844 -0.782,0.497 -1.22,0.799 -1.22,0.799 0,0 0.505,-0.168 1.373,-0.493 0.432,-0.17 0.971,-0.326 1.568,-0.548 0.597,-0.218 1.299,-0.409 2.036,-0.667 0.374,-0.118 0.769,-0.223 1.174,-0.343 0.405,-0.118 0.818,-0.253 1.253,-0.36 0.432,-0.115 0.876,-0.232 1.329,-0.353 0.46,-0.099 0.923,-0.219 1.395,-0.332 0.471,-0.124 0.958,-0.212 1.448,-0.313 0.492,-0.096 0.985,-0.208 1.49,-0.289 0.501,-0.089 1.008,-0.178 1.515,-0.267 0.512,-0.074 1.025,-0.147 1.537,-0.219 0.511,-0.088 1.028,-0.132 1.54,-0.192 0.514,-0.049 1.023,-0.132 1.533,-0.161 0.509,-0.037 1.013,-0.081 1.512,-0.131 0.499,-0.042 0.995,-0.055 1.481,-0.084 0.973,-0.06 1.916,-0.069 2.812,-0.1 0.449,-0.024 0.883,-0.002 1.307,-0.005 0.423,-0.002 0.832,-0.005 1.225,-0.007 0.786,0.016 1.507,0.03 2.146,0.043 0.643,0.006 1.199,0.042 1.662,0.058 0.924,0.037 1.458,0.038 1.458,0.038 0,0 -0.044,-0.013 -0.12,-0.034 0.543,0.102 1.083,0.206 1.621,0.309 0.536,0.139 1.07,0.277 1.6,0.413 0.528,0.144 1.059,0.26 1.573,0.424 0.515,0.161 1.023,0.337 1.525,0.503 0.501,0.175 1.006,0.322 1.49,0.516 0.485,0.19 0.962,0.384 1.431,0.582 0.47,0.195 0.935,0.389 1.393,0.581 0.446,0.217 0.887,0.433 1.322,0.647 1.752,0.818 3.301,1.794 4.735,2.654 0.687,0.478 1.346,0.936 1.973,1.372 0.31,0.219 0.612,0.435 0.904,0.644 0.281,0.226 0.553,0.446 0.817,0.659 1.044,0.867 1.965,1.592 2.649,2.286 0.705,0.663 1.231,1.215 1.599,1.576 0.359,0.371 0.551,0.568 0.551,0.568 0,0 -0.248,-0.121 -0.716,-0.349 -0.457,-0.238 -1.143,-0.564 -1.979,-1.018 -0.209,-0.113 -0.429,-0.23 -0.662,-0.354 -0.235,-0.117 -0.489,-0.227 -0.749,-0.349 -0.523,-0.238 -1.074,-0.514 -1.667,-0.796 -0.295,-0.145 -0.597,-0.294 -0.911,-0.448 -0.32,-0.136 -0.649,-0.277 -0.988,-0.421 -0.67,-0.294 -1.373,-0.603 -2.108,-0.925 -0.745,-0.288 -1.52,-0.588 -2.323,-0.899 -0.79,-0.332 -1.637,-0.595 -2.496,-0.884 -0.428,-0.148 -0.862,-0.296 -1.301,-0.448 -0.446,-0.128 -0.897,-0.256 -1.354,-0.386 -0.457,-0.127 -0.915,-0.261 -1.377,-0.402 -0.461,-0.138 -0.942,-0.229 -1.417,-0.348 -0.478,-0.115 -0.959,-0.223 -1.44,-0.346 -0.482,-0.121 -0.978,-0.194 -1.471,-0.295 -0.493,-0.094 -0.99,-0.188 -1.49,-0.284 -0.501,-0.075 -1.006,-0.151 -1.513,-0.227 -0.507,-0.068 -1.013,-0.162 -1.526,-0.212 -0.513,-0.045 -1.028,-0.099 -1.543,-0.155 -1.026,-0.137 -2.069,-0.143 -3.105,-0.217 -0.519,-0.049 -1.039,-0.028 -1.559,-0.047 -0.519,-0.004 -1.039,-0.027 -1.557,-0.019 -0.673,0.035 -1.345,0.029 -2.014,0.045 -0.361,0.008 -0.723,0.021 -1.082,0.054 -1.522,0.067 -3.022,0.215 -4.493,0.388 -0.514,0.061 -1.024,0.123 -1.528,0.188 -1.947,0.296 -3.836,0.602 -5.611,1.005 -1.782,0.373 -3.457,0.804 -5.002,1.232 -0.968,0.264 -1.872,0.538 -2.724,0.805 -0.313,0.361 -0.627,0.721 -0.93,1.088 -2.67,3.216 -4.894,6.48 -6.604,9.634 0.823,0.211 1.451,1.205 1.743,2.606 3.492,-0.487 9.762,-1.173 17.34,-1.173 4.411,0 9.263,0.233 14.265,0.874 0.99,-1.437 2.645,-2.38 4.522,-2.38 3.031,0 5.488,2.458 5.488,5.489 0,3.032 -2.457,5.489 -5.488,5.489 -2.473,0 -4.563,-1.636 -5.249,-3.883 -13.69,-1.721 -26.452,-0.24 -31.108,0.439 -0.596,2.105 -1.752,3.539 -2.911,3.409 -0.92,-0.102 -1.62,-1.164 -1.93,-2.688 -0.531,2.088 -0.751,4.041 -0.627,5.795 0.368,5.203 3.668,8.52 10.091,10.141 4.7,1.186 6.622,6.442 8.848,12.527 3.672,10.038 8.241,22.531 25.324,24.807 16.224,2.163 31.713,0.307 43.612,-5.224 8.834,-4.107 19.885,-12.286 22.358,-27.937 3.271,-20.7 -2.806,-34.004 -10.5,-50.847 -6.184,-13.536 -13.193,-28.878 -17.369,-51.639 -3.843,-20.94 -6.657,-41.21 -8.436,-60.72 l -0.011,0.001 c -1.103,-12.082 -1.802,-23.888 -2.106,-35.394 -0.002,-0.087 -0.004,-0.172 -0.006,-0.258 -0.031,-1.215 -0.059,-2.426 -0.081,-3.633 -0.005,-0.27 -0.011,-0.541 -0.016,-0.809 -0.016,-0.994 -0.029,-1.984 -0.04,-2.972 -0.005,-0.416 -0.01,-0.833 -0.015,-1.248 -0.005,-0.632 -0.006,-1.26 -0.009,-1.889 -0.014,-2.976 -10e-4,-5.93 0.04,-8.861 0,-0.02 0.001,-0.039 0.001,-0.059 0.126,-8.813 0.498,-17.427 1.126,-25.821 0.37,-4.952 0.831,-9.831 1.376,-14.636 0.012,-0.105 0.023,-0.211 0.035,-0.315 0.1,-0.878 0.204,-1.752 0.311,-2.625 0.027,-0.232 0.054,-0.463 0.083,-0.695 0.088,-0.721 0.181,-1.441 0.275,-2.16 0.047,-0.365 0.093,-0.731 0.141,-1.094 0.071,-0.539 0.146,-1.073 0.219,-1.609 0.073,-0.53 0.145,-1.061 0.219,-1.59 0.033,-0.23 0.067,-0.459 0.101,-0.687 0.261,-1.821 0.534,-3.63 0.822,-5.426 0.026,-0.168 0.057,-0.334 0.084,-0.502 0.206,-1.271 0.419,-2.537 0.639,-3.798 0.063,-0.37 0.127,-0.742 0.193,-1.112 0.239,-1.35 0.486,-2.692 0.741,-4.029 0.07,-0.37 0.142,-0.739 0.213,-1.108 0.267,-1.375 0.539,-2.744 0.822,-4.104 0.043,-0.208 0.088,-0.414 0.132,-0.622 0.275,-1.307 0.556,-2.605 0.845,-3.897 0.052,-0.227 0.1,-0.456 0.151,-0.683 0.314,-1.387 0.638,-2.764 0.968,-4.134 0.064,-0.267 0.128,-0.531 0.192,-0.796 0.339,-1.388 0.686,-2.769 1.041,-4.14 0.041,-0.158 0.084,-0.315 0.125,-0.472 0.362,-1.381 0.73,-2.753 1.11,-4.117 0.022,-0.083 0.045,-0.167 0.068,-0.25 0.387,-1.385 0.784,-2.761 1.19,-4.13 0.063,-0.213 0.127,-0.428 0.19,-0.643 0.4,-1.339 0.808,-2.669 1.226,-3.989 0.058,-0.186 0.118,-0.369 0.176,-0.554 0.43,-1.348 0.867,-2.689 1.314,-4.018 0.007,-0.019 0.013,-0.039 0.019,-0.057 0.444,-1.316 0.899,-2.618 1.36,-3.915 0.082,-0.233 0.164,-0.466 0.248,-0.698 0.443,-1.236 0.895,-2.462 1.355,-3.681 0.094,-0.248 0.189,-0.494 0.284,-0.742 0.468,-1.231 0.943,-2.455 1.429,-3.667 0.006,-0.014 0.011,-0.027 0.017,-0.041 0.022,-0.055 0.044,-0.109 0.065,-0.163 0.528,-1.31 1.059,-2.595 1.592,-3.858 0.041,-0.095 0.08,-0.189 0.12,-0.283 13.766,-32.407 29.857,-49.208 36.853,-55.449 -0.436,-0.267 -0.917,-0.552 -1.436,-0.85 -0.07,-0.04 -0.138,-0.079 -0.209,-0.119 -0.02,-0.013 -0.044,-0.025 -0.064,-0.037 -0.383,-0.216 -0.785,-0.44 -1.209,-0.668 -0.067,-0.035 -0.136,-0.071 -0.203,-0.108 -0.389,-0.207 -0.791,-0.418 -1.214,-0.632 -0.073,-0.038 -0.149,-0.075 -0.222,-0.112 -0.178,-0.09 -0.355,-0.179 -0.539,-0.269 -0.027,-0.014 -0.057,-0.028 -0.084,-0.041 -0.233,-0.116 -0.47,-0.231 -0.712,-0.346 -0.132,-0.063 -0.268,-0.127 -0.403,-0.189 -0.142,-0.068 -0.282,-0.134 -0.426,-0.202 -0.266,-0.123 -0.539,-0.247 -0.814,-0.371 -1.487,-0.666 -3.12,-1.342 -4.898,-2.004 -17.225,-6.396 -34.638,-6.461 -46.213,-5.389 -11.495,1.065 -21.628,4.657 -30.283,10.716 -3.675,2.572 -7.083,5.587 -10.217,9.044 -0.7,0.774 -1.388,1.57 -2.06,2.387 -14.024,17.023 -22.545,43.952 -25.327,80.042 -0.659,8.556 -0.998,17.618 -1.016,27.257 -0.031,16.648 0.896,35.016 2.793,55.448 0.199,2.152 0.409,4.325 0.631,6.522 0.094,0.947 0.191,1.894 0.291,2.841 0.032,0.323 0.067,0.646 0.101,0.969 0.066,0.626 0.131,1.252 0.198,1.878 l 0.109,0.999 c 0.066,0.611 0.131,1.221 0.199,1.831 0.046,0.422 0.094,0.844 0.141,1.266 0.058,0.521 0.116,1.043 0.176,1.564 0.049,0.448 0.101,0.894 0.153,1.341 0.056,0.494 0.113,0.989 0.171,1.483 0.055,0.48 0.113,0.959 0.17,1.438 0.053,0.459 0.107,0.918 0.162,1.377 0.06,0.508 0.123,1.013 0.184,1.52 0.052,0.429 0.104,0.86 0.157,1.29 0.065,0.531 0.131,1.061 0.198,1.592 0.05,0.403 0.099,0.807 0.15,1.209 0.066,0.523 0.133,1.044 0.199,1.567 0.053,0.413 0.106,0.826 0.159,1.238 0.065,0.504 0.131,1.006 0.197,1.509 0.056,0.428 0.111,0.856 0.168,1.284 0.067,0.51 0.136,1.018 0.204,1.525 0.056,0.417 0.11,0.835 0.167,1.251 0.07,0.518 0.142,1.035 0.213,1.551 0.056,0.407 0.111,0.816 0.168,1.223 0.069,0.502 0.14,1.003 0.21,1.504 0.059,0.422 0.118,0.844 0.178,1.265 0.07,0.498 0.142,0.996 0.213,1.493 0.06,0.419 0.12,0.837 0.18,1.254 0.072,0.499 0.146,0.997 0.219,1.494 0.06,0.417 0.121,0.835 0.183,1.252 0.076,0.508 0.152,1.016 0.228,1.524 0.06,0.397 0.119,0.795 0.179,1.191 0.08,0.528 0.16,1.054 0.242,1.58 0.057,0.377 0.114,0.756 0.173,1.133 0.08,0.519 0.161,1.036 0.242,1.553 0.059,0.387 0.12,0.774 0.181,1.16 0.081,0.511 0.163,1.021 0.244,1.531 0.061,0.385 0.123,0.77 0.184,1.154 0.083,0.517 0.167,1.032 0.251,1.548 0.061,0.375 0.122,0.752 0.184,1.127 0.085,0.516 0.171,1.031 0.257,1.545 0.061,0.372 0.122,0.744 0.184,1.114 0.086,0.514 0.173,1.026 0.26,1.539 0.063,0.37 0.125,0.74 0.188,1.109 0.087,0.513 0.176,1.023 0.264,1.533 0.064,0.364 0.126,0.729 0.189,1.092 0.088,0.505 0.177,1.008 0.265,1.511 0.067,0.372 0.131,0.744 0.198,1.114 0.087,0.493 0.175,0.984 0.263,1.476 0.067,0.372 0.134,0.744 0.201,1.116 0.09,0.499 0.182,0.996 0.273,1.494 0.066,0.36 0.132,0.722 0.198,1.081 0.091,0.494 0.184,0.986 0.275,1.479 0.068,0.361 0.134,0.722 0.203,1.084 0.092,0.492 0.185,0.982 0.279,1.472 0.067,0.356 0.135,0.711 0.202,1.066 0.095,0.49 0.19,0.977 0.284,1.466 0.069,0.352 0.136,0.706 0.204,1.057 0.096,0.487 0.192,0.972 0.287,1.455 0.069,0.348 0.137,0.696 0.207,1.041 0.095,0.485 0.193,0.967 0.29,1.45 0.069,0.345 0.138,0.692 0.209,1.037 0.096,0.475 0.193,0.95 0.291,1.423 0.07,0.346 0.141,0.693 0.211,1.038 0.098,0.469 0.196,0.936 0.293,1.404 0.073,0.345 0.144,0.69 0.216,1.034 0.099,0.464 0.197,0.926 0.295,1.387 0.072,0.343 0.146,0.688 0.219,1.03 0.099,0.459 0.197,0.915 0.296,1.37 0.074,0.341 0.147,0.682 0.222,1.022 0.099,0.454 0.199,0.906 0.298,1.357 0.075,0.338 0.149,0.675 0.224,1.011 0.1,0.449 0.2,0.896 0.301,1.344 0.075,0.333 0.15,0.667 0.225,1 0.101,0.442 0.202,0.882 0.302,1.323 0.076,0.334 0.153,0.668 0.23,1 0.101,0.437 0.202,0.871 0.303,1.304 0.077,0.33 0.154,0.659 0.231,0.986 0.102,0.434 0.205,0.866 0.307,1.298 0.078,0.322 0.155,0.645 0.232,0.966 0.102,0.43 0.206,0.858 0.309,1.286 0.079,0.319 0.156,0.64 0.234,0.959 0.103,0.421 0.206,0.839 0.309,1.257 0.079,0.32 0.159,0.638 0.238,0.956 0.103,0.416 0.208,0.83 0.311,1.244 0.08,0.314 0.158,0.629 0.238,0.941 0.105,0.409 0.209,0.816 0.314,1.223 0.08,0.313 0.161,0.627 0.241,0.938 0.105,0.401 0.208,0.798 0.312,1.195 0.082,0.311 0.164,0.624 0.246,0.933 0.104,0.395 0.21,0.787 0.313,1.178 0.082,0.307 0.165,0.615 0.247,0.92 0.105,0.388 0.21,0.774 0.315,1.16 0.083,0.303 0.166,0.605 0.249,0.906 0.105,0.385 0.212,0.768 0.318,1.149 0.082,0.296 0.165,0.591 0.247,0.885 0.107,0.377 0.212,0.751 0.319,1.123 0.084,0.297 0.169,0.594 0.253,0.888 0.105,0.367 0.21,0.733 0.317,1.097 0.085,0.294 0.17,0.587 0.255,0.878 0.105,0.358 0.211,0.715 0.316,1.069 0.087,0.293 0.173,0.584 0.26,0.874 0.105,0.351 0.21,0.699 0.316,1.046 0.087,0.288 0.174,0.575 0.261,0.86 0.106,0.343 0.211,0.684 0.316,1.024 0.088,0.285 0.177,0.569 0.265,0.851 0.105,0.335 0.21,0.669 0.316,1 0.088,0.281 0.177,0.56 0.266,0.838 0.106,0.328 0.211,0.655 0.317,0.981 0.088,0.275 0.178,0.548 0.267,0.821 0.106,0.321 0.211,0.641 0.317,0.959 0.089,0.27 0.179,0.541 0.27,0.81 0.105,0.313 0.211,0.625 0.316,0.936 0.091,0.266 0.182,0.53 0.272,0.794 0.105,0.306 0.211,0.61 0.316,0.914 0.092,0.261 0.183,0.521 0.274,0.779 0.106,0.299 0.211,0.596 0.316,0.891 0.093,0.258 0.185,0.514 0.277,0.768 0.104,0.289 0.21,0.576 0.313,0.862 0.094,0.255 0.189,0.509 0.282,0.761 0.104,0.279 0.207,0.556 0.312,0.832 0.094,0.25 0.187,0.497 0.281,0.743 0.105,0.273 0.209,0.546 0.314,0.815 0.094,0.243 0.188,0.485 0.282,0.725 0.104,0.265 0.209,0.529 0.313,0.791 0.095,0.238 0.19,0.474 0.284,0.709 0.105,0.257 0.207,0.512 0.312,0.764 0.044,0.107 0.087,0.212 0.131,0.319 1.239,-0.249 2.518,-0.406 3.83,-0.47 l 0.159,3.245 -0.03,-3.249 c 0,0 0.225,0.011 0.646,0.03 0.211,0.011 0.471,0.024 0.778,0.039 0.306,0.015 0.635,0.021 1.118,0.082 0.456,0.051 0.961,0.109 1.511,0.171 0.135,0.016 0.275,0.033 0.418,0.05 0.132,0.026 0.267,0.05 0.406,0.076 0.274,0.051 0.558,0.106 0.853,0.161 0.293,0.056 0.596,0.114 0.907,0.173 0.31,0.064 0.621,0.154 0.943,0.232 0.639,0.173 1.325,0.313 2.005,0.546 1.382,0.414 2.84,0.933 4.343,1.544 1.498,0.619 3.044,1.322 4.596,2.12 0.775,0.401 1.564,0.803 2.336,1.25 0.39,0.219 0.78,0.438 1.174,0.66 0.386,0.231 0.773,0.464 1.163,0.697 1.559,0.929 3.091,1.94 4.603,2.969 0.756,0.515 1.495,1.053 2.237,1.576 0.728,0.544 1.463,1.073 2.172,1.619 1.423,1.091 2.806,2.18 4.112,3.271 2.621,2.168 4.979,4.284 6.95,6.143 3.949,3.716 6.363,6.392 6.363,6.392 0,0 -2.703,-2.389 -7.017,-5.614 -2.153,-1.616 -4.711,-3.435 -7.518,-5.267 -1.398,-0.923 -2.869,-1.833 -4.372,-2.736 -0.75,-0.452 -1.52,-0.885 -2.283,-1.331 -0.777,-0.425 -1.549,-0.864 -2.332,-1.277 -1.568,-0.825 -3.143,-1.627 -4.722,-2.338 -0.393,-0.18 -0.786,-0.359 -1.175,-0.537 -0.395,-0.166 -0.786,-0.331 -1.176,-0.495 -0.775,-0.34 -1.554,-0.63 -2.316,-0.921 -1.526,-0.579 -3.017,-1.06 -4.433,-1.466 -1.418,-0.397 -2.764,-0.709 -4.003,-0.932 -0.619,-0.139 -1.215,-0.185 -1.776,-0.273 -0.283,-0.035 -0.556,-0.084 -0.822,-0.107 -0.265,-0.019 -0.522,-0.037 -0.772,-0.056 -0.248,-0.018 -0.489,-0.036 -0.722,-0.053 -0.115,-0.009 -0.229,-0.018 -0.341,-0.026 -0.103,0 -0.206,0.001 -0.305,0.001 -0.396,-0.001 -0.761,-0.003 -1.089,-0.004 -0.302,-0.014 -0.676,0.018 -0.98,0.036 -0.304,0.021 -0.564,0.038 -0.775,0.051 -0.242,0.016 -0.41,0.027 -0.517,0.033 v 0.005 c -2.132,0.105 -4.124,0.53 -5.922,1.264 -4.469,1.826 -9.12,4.6 -13.553,8.009 -0.015,-0.031 -0.034,-0.061 -0.047,-0.094 -0.395,-0.712 -0.679,-1.499 -0.993,-2.277 -0.126,-0.406 -0.252,-0.813 -0.379,-1.223 -0.135,-0.406 -0.214,-0.844 -0.326,-1.265 -0.124,-0.561 -0.231,-1.137 -0.331,-1.717 3.674,-2.651 7.466,-4.896 11.242,-6.615 -0.008,-0.018 -0.016,-0.038 -0.024,-0.055 -6.377,-15.583 -12.589,-37.965 -17.975,-63.978 -4.783,-22.905 -9.248,-50.279 -12.57,-81.386 -0.011,-0.113 -0.023,-0.225 -0.036,-0.338 -0.001,-0.01 -0.002,-0.02 -0.003,-0.029 -6.691,1.793 -12.077,3.759 -16.817,5.489 -7.844,2.863 -14.04,5.125 -21.541,5.125 -4.301,0 -8.776,-0.776 -13.683,-2.373 -13.465,-4.379 -20.726,-14.105 -19.487,-26.052 -22.685,-5.912 -38.015,-20.628 -39.355,-38.084 -0.055,-0.727 -0.084,-1.452 -0.089,-2.179 -23.95,-15.165 -28.67,-34.028 -28.355,-47.311 0.207,-8.72 2.599,-17.705 6.992,-26.456 -18.59,-2.972 -29.58,-4.606 -29.696,-4.624 l -20.607,-3.057 20.559,-3.363 c 6.891,-1.126 16.793,-2.332 26.37,-3.497 4.758,-0.58 9.646,-1.174 14.167,-1.759 7.077,-8.447 15.722,-15.629 24.885,-20.598 l 0.994,-0.54 c 10.544,-5.726 21.446,-11.647 44.693,-16.175 21.253,-4.14 50.594,-6.541 89.201,-7.28 9.367,-6.344 20.254,-10.119 32.551,-11.258 4.21,-0.39 8.227,-0.566 12.05,-0.566 31.548,0.001 49.798,12.006 53.83,14.977 51.809,5.542 87.143,17.496 105.356,35.709 20.242,20.242 20.905,40.249 17.896,53.468" /></g><g
           transform="translate(361.0889,454.6802)"
           id="g10433"><path
             id="path10435"
             style="fill:#652f8f;fill-opacity:1;fill-rule:nonzero;stroke:none"
             d="m 0,0 c 1.374,0.597 2.753,1.174 4.136,1.744 -0.25,1.754 -0.394,3.637 -0.394,5.61 0,0 -0.007,0.084 -0.018,0.208 C 3.714,7.015 3.705,6.467 3.708,5.92 L 3.746,3.799 3.845,1.665 C 3.482,3.044 3.157,4.425 2.92,5.846 2.698,7.261 2.464,8.682 2.368,10.115 c -0.144,1.436 -0.192,2.858 -0.216,4.314 -0.021,1.443 0.043,2.888 0.148,4.334 0.204,2.894 0.646,5.79 1.455,8.639 0.1,0.355 0.224,0.707 0.335,1.06 -0.048,0.061 -0.094,0.12 -0.144,0.183 -0.196,0.256 -0.409,0.535 -0.634,0.829 -0.215,0.307 -0.422,0.663 -0.639,1.009 -0.209,0.348 -0.426,0.707 -0.647,1.072 -0.225,0.346 -0.404,0.759 -0.585,1.154 -0.174,0.39 -0.349,0.781 -0.52,1.165 -0.166,0.378 -0.27,0.801 -0.392,1.173 -0.107,0.386 -0.243,0.723 -0.294,1.094 -0.06,0.351 -0.118,0.684 -0.171,0.99 -0.046,0.303 -0.044,0.597 -0.061,0.839 -0.019,0.241 -0.015,0.46 0.001,0.639 0.013,0.35 0.055,0.537 0.055,0.537 0,0 0.082,-0.185 0.27,-0.463 0.085,-0.14 0.198,-0.3 0.352,-0.479 0.151,-0.178 0.293,-0.381 0.492,-0.579 0.2,-0.191 0.415,-0.399 0.643,-0.618 0.205,-0.219 0.507,-0.406 0.768,-0.611 0.281,-0.197 0.525,-0.413 0.837,-0.59 0.306,-0.171 0.617,-0.346 0.927,-0.52 0.305,-0.169 0.589,-0.34 0.931,-0.464 0.319,-0.13 0.634,-0.259 0.938,-0.383 0.174,-0.067 0.329,-0.126 0.49,-0.19 0.316,0.476 0.653,0.945 1.036,1.4 1.051,1.238 2.504,2.478 4.51,2.922 2.064,0.462 4.144,-0.278 5.552,-1.385 1.424,-1.105 2.413,-2.432 3.237,-3.775 0.814,-1.352 1.463,-2.746 2,-4.16 1.088,-2.824 1.731,-5.732 2.162,-8.645 0.217,-1.456 0.366,-2.918 0.469,-4.379 0.062,-0.944 0.101,-1.888 0.122,-2.832 l 2.159,-0.484 c 1.243,-0.285 2.491,-0.543 3.728,-0.861 L 37.683,10.509 31.896,8.792 30.226,8.295 23.974,6.44 16.02,4.181 12.029,3.091 8.034,2.018 C 5.363,1.323 2.692,0.631 0,0 m -26.544,-28.039 c -0.638,-0.117 -1.355,-0.271 -2.146,-0.377 -0.792,-0.095 -1.651,-0.233 -2.566,-0.289 -0.914,-0.056 -1.881,-0.151 -2.884,-0.132 -0.501,0.001 -1.01,-0.015 -1.527,-0.001 -0.515,0.015 -1.038,0.037 -1.563,0.065 -0.528,0.018 -1.056,0.078 -1.587,0.13 -0.531,0.056 -1.065,0.097 -1.594,0.183 -0.529,0.081 -1.06,0.161 -1.587,0.242 -0.523,0.105 -1.044,0.211 -1.561,0.315 -0.035,0.006 -0.067,0.016 -0.101,0.023 -0.075,-0.098 -0.152,-0.195 -0.225,-0.295 -0.384,-0.658 -0.846,-1.273 -1.177,-1.986 4.434,-3.409 9.084,-6.182 13.554,-8.008 1.798,-0.735 3.79,-1.16 5.922,-1.264 v -0.005 c 0.107,-0.007 0.274,-0.018 0.517,-0.033 0.211,-0.014 0.47,-0.03 0.775,-0.051 0.304,-0.019 0.678,-0.051 0.98,-0.036 0.328,10e-4 0.693,0.003 1.088,0.004 0.1,0 0.203,-10e-4 0.306,-10e-4 0.111,0.008 0.226,0.016 0.341,0.025 0.232,0.018 0.474,0.035 0.722,0.054 0.25,0.018 0.506,0.037 0.772,0.056 0.266,0.023 0.539,0.072 0.821,0.107 0.562,0.088 1.158,0.134 1.777,0.272 1.239,0.223 2.585,0.536 4.003,0.932 1.416,0.406 2.907,0.888 4.433,1.467 0.762,0.291 1.541,0.581 2.316,0.921 0.389,0.164 0.781,0.329 1.175,0.495 0.39,0.178 0.783,0.356 1.176,0.536 1.578,0.712 3.154,1.514 4.722,2.339 0.783,0.413 1.555,0.851 2.332,1.276 0.763,0.447 1.533,0.879 2.283,1.331 1.503,0.904 2.974,1.814 4.372,2.737 2.807,1.832 5.364,3.651 7.518,5.266 4.314,3.226 7.016,5.615 7.016,5.615 0,0 -2.414,-2.676 -6.362,-6.392 -1.972,-1.859 -4.329,-3.976 -6.95,-6.144 -1.306,-1.09 -2.69,-2.179 -4.112,-3.27 -0.709,-0.546 -1.444,-1.075 -2.172,-1.619 -0.742,-0.524 -1.481,-1.062 -2.238,-1.576 -1.511,-1.03 -3.044,-2.04 -4.602,-2.969 -0.39,-0.234 -0.777,-0.466 -1.163,-0.697 -0.394,-0.222 -0.784,-0.442 -1.174,-0.661 -0.773,-0.447 -1.562,-0.848 -2.336,-1.25 -1.552,-0.797 -3.099,-1.501 -4.597,-2.12 -1.503,-0.61 -2.961,-1.13 -4.342,-1.544 -0.68,-0.232 -1.367,-0.373 -2.005,-0.546 -0.323,-0.078 -0.633,-0.168 -0.943,-0.231 -0.311,-0.06 -0.614,-0.117 -0.907,-0.174 -0.295,-0.055 -0.579,-0.109 -0.853,-0.16 -0.139,-0.026 -0.274,-0.051 -0.407,-0.076 -0.142,-0.018 -0.282,-0.034 -0.418,-0.05 -0.549,-0.062 -1.054,-0.12 -1.51,-0.172 -0.483,-0.06 -0.812,-0.066 -1.119,-0.082 -0.306,-0.015 -0.566,-0.027 -0.777,-0.038 -0.421,-0.02 -0.646,-0.03 -0.646,-0.03 l 0.03,3.249 -0.159,-3.245 c -1.312,0.063 -2.591,0.22 -3.83,0.469 -0.044,-0.106 -0.087,-0.212 -0.131,-0.318 -0.105,-0.253 -0.207,-0.508 -0.312,-0.765 -0.095,-0.234 -0.189,-0.47 -0.284,-0.709 -0.104,-0.261 -0.209,-0.525 -0.313,-0.791 -0.094,-0.24 -0.188,-0.481 -0.283,-0.724 -0.104,-0.27 -0.209,-0.542 -0.313,-0.816 -0.094,-0.246 -0.188,-0.493 -0.281,-0.743 -0.105,-0.275 -0.208,-0.553 -0.312,-0.832 -0.094,-0.252 -0.188,-0.506 -0.282,-0.761 -0.104,-0.286 -0.209,-0.573 -0.314,-0.862 -0.091,-0.254 -0.183,-0.51 -0.276,-0.767 -0.105,-0.295 -0.21,-0.592 -0.316,-0.891 -0.091,-0.259 -0.182,-0.519 -0.274,-0.779 -0.105,-0.304 -0.211,-0.609 -0.316,-0.914 -0.09,-0.264 -0.181,-0.529 -0.272,-0.794 -0.105,-0.311 -0.212,-0.623 -0.316,-0.937 -0.091,-0.268 -0.181,-0.539 -0.271,-0.81 -0.105,-0.318 -0.211,-0.637 -0.316,-0.958 -0.089,-0.273 -0.179,-0.546 -0.268,-0.822 -0.105,-0.325 -0.211,-0.652 -0.316,-0.98 -0.089,-0.279 -0.178,-0.558 -0.267,-0.838 -0.105,-0.331 -0.211,-0.665 -0.315,-1 -0.088,-0.282 -0.177,-0.567 -0.266,-0.852 -0.104,-0.34 -0.21,-0.68 -0.315,-1.023 -0.087,-0.285 -0.174,-0.572 -0.261,-0.86 -0.106,-0.347 -0.211,-0.696 -0.316,-1.046 -0.087,-0.29 -0.173,-0.581 -0.26,-0.874 -0.105,-0.355 -0.211,-0.711 -0.316,-1.07 -0.085,-0.291 -0.17,-0.584 -0.255,-0.878 -0.107,-0.364 -0.212,-0.729 -0.318,-1.096 -0.084,-0.294 -0.169,-0.591 -0.253,-0.888 -0.106,-0.372 -0.212,-0.746 -0.318,-1.123 -0.082,-0.294 -0.165,-0.589 -0.247,-0.886 -0.107,-0.381 -0.213,-0.764 -0.318,-1.148 -0.083,-0.301 -0.166,-0.604 -0.249,-0.907 -0.105,-0.385 -0.21,-0.771 -0.315,-1.16 -0.082,-0.304 -0.165,-0.612 -0.247,-0.92 -0.103,-0.39 -0.209,-0.783 -0.313,-1.177 -0.082,-0.31 -0.165,-0.622 -0.247,-0.934 -0.103,-0.396 -0.207,-0.794 -0.311,-1.194 -0.08,-0.312 -0.161,-0.625 -0.241,-0.939 -0.105,-0.406 -0.209,-0.813 -0.314,-1.222 -0.08,-0.313 -0.158,-0.627 -0.238,-0.942 -0.104,-0.414 -0.208,-0.827 -0.312,-1.243 -0.079,-0.318 -0.158,-0.637 -0.237,-0.956 -0.103,-0.418 -0.206,-0.837 -0.309,-1.258 -0.079,-0.318 -0.156,-0.639 -0.234,-0.959 -0.103,-0.428 -0.207,-0.855 -0.309,-1.285 -0.078,-0.321 -0.155,-0.645 -0.232,-0.967 -0.102,-0.431 -0.205,-0.863 -0.307,-1.298 -0.078,-0.327 -0.154,-0.656 -0.231,-0.985 -0.101,-0.434 -0.202,-0.867 -0.304,-1.305 -0.076,-0.332 -0.153,-0.666 -0.229,-1 -0.101,-0.44 -0.201,-0.881 -0.302,-1.323 -0.075,-0.333 -0.15,-0.667 -0.225,-1 -0.101,-0.447 -0.202,-0.894 -0.301,-1.344 -0.075,-0.336 -0.15,-0.673 -0.224,-1.01 -0.099,-0.452 -0.199,-0.904 -0.299,-1.358 -0.074,-0.34 -0.147,-0.68 -0.221,-1.021 -0.099,-0.455 -0.198,-0.911 -0.296,-1.37 -0.074,-0.342 -0.147,-0.687 -0.219,-1.031 -0.099,-0.461 -0.196,-0.923 -0.295,-1.386 -0.072,-0.344 -0.144,-0.69 -0.216,-1.035 -0.097,-0.467 -0.195,-0.934 -0.293,-1.404 -0.07,-0.345 -0.141,-0.691 -0.212,-1.037 -0.097,-0.474 -0.194,-0.948 -0.291,-1.424 -0.07,-0.345 -0.139,-0.691 -0.209,-1.037 -0.096,-0.482 -0.194,-0.965 -0.29,-1.449 -0.069,-0.346 -0.137,-0.694 -0.206,-1.041 -0.095,-0.484 -0.191,-0.968 -0.287,-1.455 -0.068,-0.352 -0.136,-0.705 -0.204,-1.058 -0.095,-0.488 -0.189,-0.975 -0.284,-1.466 -0.068,-0.354 -0.135,-0.71 -0.202,-1.065 -0.094,-0.49 -0.187,-0.981 -0.28,-1.473 -0.068,-0.361 -0.134,-0.722 -0.202,-1.084 -0.092,-0.493 -0.184,-0.984 -0.275,-1.478 -0.067,-0.36 -0.132,-0.721 -0.198,-1.081 -0.091,-0.498 -0.183,-0.995 -0.273,-1.494 -0.067,-0.373 -0.135,-0.745 -0.201,-1.117 -0.088,-0.492 -0.176,-0.982 -0.264,-1.475 -0.066,-0.37 -0.131,-0.742 -0.197,-1.115 -0.088,-0.502 -0.178,-1.005 -0.266,-1.51 -0.062,-0.364 -0.125,-0.729 -0.188,-1.092 -0.088,-0.511 -0.177,-1.021 -0.264,-1.533 -0.063,-0.369 -0.125,-0.74 -0.188,-1.11 -0.087,-0.512 -0.174,-1.024 -0.26,-1.539 -0.062,-0.37 -0.123,-0.742 -0.185,-1.113 -0.085,-0.515 -0.171,-1.029 -0.256,-1.546 -0.062,-0.375 -0.123,-0.752 -0.184,-1.127 -0.084,-0.515 -0.168,-1.03 -0.251,-1.548 -0.061,-0.383 -0.123,-0.768 -0.185,-1.153 -0.081,-0.511 -0.163,-1.021 -0.244,-1.531 -0.06,-0.386 -0.121,-0.774 -0.18,-1.16 -0.081,-0.517 -0.162,-1.035 -0.243,-1.553 -0.058,-0.377 -0.116,-0.756 -0.172,-1.133 -0.082,-0.526 -0.162,-1.053 -0.243,-1.58 -0.059,-0.397 -0.119,-0.794 -0.178,-1.191 -0.076,-0.508 -0.153,-1.016 -0.228,-1.525 -0.062,-0.417 -0.123,-0.835 -0.183,-1.252 -0.074,-0.497 -0.147,-0.994 -0.219,-1.493 -0.061,-0.417 -0.12,-0.836 -0.18,-1.255 -0.071,-0.497 -0.143,-0.994 -0.214,-1.492 -0.059,-0.421 -0.118,-0.844 -0.177,-1.266 -0.07,-0.501 -0.141,-1.002 -0.21,-1.504 -0.057,-0.407 -0.113,-0.815 -0.168,-1.222 -0.072,-0.517 -0.143,-1.033 -0.213,-1.551 -0.057,-0.416 -0.112,-0.834 -0.167,-1.251 -0.069,-0.508 -0.137,-1.016 -0.204,-1.525 -0.057,-0.428 -0.113,-0.857 -0.168,-1.285 -0.066,-0.502 -0.132,-1.004 -0.198,-1.508 -0.052,-0.412 -0.105,-0.826 -0.158,-1.239 -0.066,-0.522 -0.134,-1.044 -0.199,-1.566 -0.051,-0.402 -0.101,-0.807 -0.15,-1.209 -0.067,-0.531 -0.133,-1.062 -0.199,-1.593 -0.052,-0.429 -0.104,-0.86 -0.156,-1.29 -0.061,-0.507 -0.124,-1.012 -0.184,-1.519 -0.055,-0.459 -0.109,-0.918 -0.163,-1.377 -0.056,-0.48 -0.114,-0.958 -0.169,-1.439 -0.058,-0.494 -0.115,-0.988 -0.171,-1.482 -0.052,-0.447 -0.104,-0.894 -0.154,-1.341 -0.059,-0.522 -0.117,-1.043 -0.175,-1.564 -0.047,-0.422 -0.095,-0.844 -0.141,-1.266 -0.068,-0.61 -0.133,-1.221 -0.199,-1.831 l -0.109,-0.999 c -0.067,-0.626 -0.133,-1.252 -0.198,-1.878 -0.034,-0.323 -0.069,-0.647 -0.102,-0.97 -0.099,-0.946 -0.196,-1.893 -0.291,-2.841 -0.221,-2.196 -0.431,-4.37 -0.63,-6.521 -1.897,-20.433 -2.825,-38.8 -2.793,-55.448 0.018,-9.639 0.357,-18.702 1.016,-27.257 2.781,-36.09 11.303,-63.02 25.326,-80.042 0.673,-0.818 1.361,-1.614 2.061,-2.387 3.134,-3.457 6.542,-6.473 10.217,-9.045 -5.251,6.068 -10.299,14.564 -14.684,25.198 -0.625,-0.248 -1.306,-0.388 -2.018,-0.388 -3.032,0 -5.489,2.457 -5.489,5.487 0,2.406 1.551,4.445 3.705,5.187 -2.682,8.11 -4.992,17.171 -6.783,27.093 -0.385,-0.086 -0.785,-0.134 -1.195,-0.134 -3.031,0 -5.488,2.458 -5.488,5.488 0,2.86 2.19,5.208 4.985,5.462 -1.143,8.532 -1.907,17.611 -2.223,27.182 -0.053,-0.001 -0.107,-0.007 -0.162,-0.007 -3.031,0 -5.488,2.457 -5.488,5.488 0,3.03 2.457,5.487 5.488,5.487 0.013,8.748 0.182,17.551 0.499,26.299 -2.885,0.163 -5.175,2.547 -5.175,5.472 0,3.03 2.457,5.488 5.489,5.488 0.054,0 0.108,-0.007 0.163,-0.009 0.461,9.065 1.08,18.018 1.849,26.733 -2.96,0.081 -5.335,2.5 -5.335,5.479 0,3.03 2.457,5.488 5.489,5.488 0.307,0 0.605,-0.031 0.899,-0.08 0.971,9.21 2.112,18.078 3.416,26.441 -2.61,0.422 -4.604,2.68 -4.604,5.41 0,3.03 2.457,5.487 5.488,5.487 0.322,0 0.637,-0.033 0.944,-0.087 1.844,10.065 3.944,19.187 6.274,27.032 -2.301,0.654 -3.988,2.765 -3.988,5.276 0,3.03 2.457,5.487 5.489,5.487 0.711,0 1.389,-0.14 2.013,-0.387 4.566,11.723 9.84,18.828 15.691,19.374 8.249,0.77 10.666,-5.994 10.816,-19.093 2.517,-0.5 4.414,-2.719 4.414,-5.381 0,-2.749 -2.023,-5.02 -4.66,-5.419 -0.354,-7.628 -1.018,-16.606 -1.618,-26.807 2.98,-0.059 5.378,-2.489 5.378,-5.482 0,-3.031 -2.456,-5.488 -5.487,-5.488 -0.16,0 -0.315,0.01 -0.47,0.023 -0.377,-8.147 -0.648,-16.939 -0.661,-26.323 2.87,-0.178 5.144,-2.556 5.144,-5.471 0,-2.879 -2.219,-5.236 -5.04,-5.465 0.177,-8.497 0.588,-17.424 1.333,-26.747 0.057,0.002 0.112,0.009 0.169,0.009 3.031,0 5.488,-2.458 5.488,-5.488 0,-2.745 -2.016,-5.012 -4.647,-5.417 0.788,-7.478 1.802,-15.187 3.084,-23.113 0.178,-1.099 0.357,-2.185 0.537,-3.267 0.172,0.016 0.345,0.026 0.521,0.026 3.031,0 5.487,-2.457 5.487,-5.487 0,-2.561 -1.757,-4.706 -4.129,-5.312 1.825,-9.976 3.749,-19.101 5.8,-27.432 0.346,0.069 0.705,0.106 1.073,0.106 3.031,0 5.487,-2.457 5.487,-5.487 0,-2.428 -1.578,-4.485 -3.763,-5.207 2.985,-10.523 6.236,-19.59 9.822,-27.357 0.647,0.269 1.356,0.418 2.101,0.418 3.031,0 5.488,-2.457 5.488,-5.488 0,-1.945 -1.017,-3.651 -2.544,-4.625 9.689,-16.455 21.658,-25.333 37.021,-28.994 0.276,0.124 0.549,0.248 0.815,0.371 0.144,0.067 0.284,0.134 0.426,0.201 0.134,0.063 0.271,0.126 0.403,0.19 0.242,0.115 0.478,0.23 0.712,0.345 0.027,0.014 0.056,0.028 0.084,0.041 0.183,0.09 0.361,0.18 0.539,0.27 0.073,0.037 0.149,0.074 0.222,0.111 0.422,0.215 0.825,0.426 1.213,0.633 0.068,0.036 0.137,0.072 0.203,0.107 0.424,0.229 0.827,0.453 1.209,0.668 0.021,0.012 0.044,0.025 0.065,0.037 0.071,0.041 0.139,0.08 0.209,0.12 0.518,0.297 1,0.583 1.435,0.849 -6.996,6.241 -23.086,23.042 -36.852,55.449 -0.04,0.094 -0.079,0.189 -0.12,0.284 -0.533,1.262 -1.065,2.547 -1.592,3.857 -0.021,0.055 -0.043,0.108 -0.065,0.163 -0.006,0.015 -0.011,0.027 -0.017,0.041 -0.486,1.212 -0.961,2.437 -1.43,3.667 -0.094,0.248 -0.189,0.494 -0.283,0.742 -0.46,1.219 -0.912,2.446 -1.355,3.682 -0.084,0.231 -0.166,0.465 -0.248,0.697 -0.461,1.297 -0.916,2.6 -1.36,3.915 -0.007,0.019 -0.013,0.038 -0.019,0.058 -0.448,1.329 -0.884,2.67 -1.314,4.017 -0.058,0.185 -0.118,0.369 -0.177,0.554 -0.418,1.321 -0.825,2.651 -1.225,3.989 -0.064,0.215 -0.127,0.43 -0.191,0.644 -0.405,1.368 -0.802,2.744 -1.189,4.13 -0.023,0.083 -0.046,0.167 -0.068,0.25 -0.38,1.363 -0.748,2.735 -1.11,4.116 -0.041,0.157 -0.084,0.315 -0.125,0.473 -0.355,1.371 -0.702,2.752 -1.041,4.139 -0.064,0.265 -0.129,0.53 -0.192,0.796 -0.33,1.37 -0.654,2.747 -0.968,4.134 -0.051,0.228 -0.1,0.456 -0.151,0.684 -0.289,1.292 -0.571,2.59 -0.845,3.896 -0.044,0.208 -0.089,0.414 -0.132,0.622 -0.283,1.361 -0.556,2.73 -0.822,4.105 -0.071,0.369 -0.143,0.738 -0.213,1.107 -0.255,1.337 -0.502,2.68 -0.741,4.029 -0.067,0.371 -0.13,0.743 -0.194,1.113 -0.219,1.261 -0.432,2.526 -0.638,3.798 -0.028,0.168 -0.058,0.334 -0.084,0.502 -0.288,1.795 -0.561,3.605 -0.823,5.425 -0.033,0.229 -0.067,0.457 -0.1,0.688 -0.074,0.528 -0.147,1.059 -0.219,1.59 -0.073,0.536 -0.148,1.07 -0.22,1.608 -0.047,0.363 -0.093,0.73 -0.14,1.095 -0.094,0.719 -0.187,1.438 -0.276,2.16 -0.028,0.231 -0.055,0.463 -0.083,0.694 -0.106,0.873 -0.211,1.747 -0.31,2.625 -0.012,0.105 -0.024,0.21 -0.035,0.316 -0.545,4.804 -1.006,9.683 -1.376,14.635 -0.628,8.395 -1,17.008 -1.126,25.822 0,0.019 -0.001,0.039 -0.001,0.058 -0.041,2.932 -0.054,5.885 -0.04,8.862 0.003,0.629 0.004,1.257 0.009,1.888 0.004,0.415 0.01,0.832 0.015,1.248 0.011,0.989 0.024,1.979 0.04,2.972 0.005,0.269 0.011,0.539 0.016,0.81 0.022,1.207 0.05,2.418 0.081,3.632 0.002,0.086 0.004,0.171 0.006,0.258 0.303,11.506 1.003,23.313 2.106,35.395 l 0.011,-0.001 c 1.779,19.51 4.593,39.779 8.435,60.72 4.177,22.76 11.186,38.102 17.37,51.638 7.694,16.844 13.771,30.148 10.5,50.848 -2.473,15.65 -13.524,23.83 -22.358,27.936 -11.899,5.532 -27.389,7.387 -43.612,5.225 -17.083,-2.276 -21.652,-14.77 -25.324,-24.808 -2.226,-6.085 -4.148,-11.34 -8.848,-12.526 -6.423,-1.621 -9.724,-4.938 -10.091,-10.142 -0.124,-1.753 0.096,-3.707 0.627,-5.794 0.31,1.524 1.01,2.585 1.93,2.688 1.159,0.13 2.315,-1.305 2.911,-3.409 4.656,-0.68 17.418,-2.16 31.107,-0.44 0.687,2.247 2.777,3.883 5.249,3.883 3.032,0 5.489,-2.457 5.489,-5.488 0,-3.031 -2.457,-5.489 -5.489,-5.489 -1.877,0 -3.531,0.943 -4.521,2.38 -5.002,-0.641 -9.855,-0.875 -14.265,-0.875 -7.578,0 -13.848,0.687 -17.341,1.173 -0.292,-1.4 -0.919,-2.394 -1.742,-2.605 1.71,-3.154 3.934,-6.418 6.604,-9.635 0.302,-0.366 0.617,-0.726 0.929,-1.088 0.853,-0.266 1.757,-0.541 2.725,-0.804 1.545,-0.428 3.22,-0.86 5.002,-1.233 1.774,-0.402 3.664,-0.709 5.61,-1.005 0.505,-0.064 1.015,-0.127 1.529,-0.187 1.47,-0.173 2.97,-0.322 4.493,-0.389 0.359,-0.032 0.721,-0.046 1.082,-0.054 0.669,-0.015 1.341,-0.009 2.014,-0.045 0.518,-0.007 1.038,0.015 1.557,0.02 0.52,0.019 1.04,-0.002 1.559,0.047 1.036,0.073 2.079,0.08 3.105,0.217 0.515,0.055 1.03,0.11 1.543,0.155 0.513,0.05 1.019,0.143 1.526,0.212 0.506,0.076 1.011,0.151 1.513,0.226 0.5,0.096 0.996,0.191 1.49,0.285 0.493,0.1 0.989,0.173 1.471,0.294 0.481,0.124 0.962,0.232 1.44,0.346 0.475,0.119 0.956,0.21 1.417,0.349 0.462,0.14 0.92,0.274 1.377,0.401 0.457,0.131 0.908,0.259 1.354,0.387 0.439,0.151 0.873,0.3 1.301,0.447 0.859,0.289 1.706,0.553 2.496,0.885 0.803,0.31 1.578,0.61 2.323,0.898 0.735,0.323 1.438,0.631 2.108,0.925 0.338,0.145 0.668,0.285 0.988,0.422 0.313,0.153 0.616,0.303 0.911,0.447 0.593,0.283 1.144,0.559 1.667,0.796 0.26,0.122 0.514,0.233 0.749,0.35 0.232,0.124 0.453,0.241 0.662,0.353 0.836,0.454 1.522,0.781 1.979,1.019 0.467,0.227 0.715,0.349 0.715,0.349 0,0 -0.191,-0.198 -0.55,-0.569 -0.368,-0.36 -0.894,-0.913 -1.599,-1.575 -0.684,-0.694 -1.605,-1.419 -2.649,-2.286 -0.264,-0.213 -0.536,-0.434 -0.817,-0.659 -0.293,-0.209 -0.594,-0.425 -0.904,-0.645 -0.627,-0.435 -1.286,-0.893 -1.974,-1.371 -1.433,-0.86 -2.982,-1.837 -4.734,-2.654 -0.436,-0.214 -0.876,-0.43 -1.322,-0.648 -0.458,-0.191 -0.923,-0.385 -1.393,-0.581 -0.47,-0.197 -0.946,-0.391 -1.432,-0.582 -0.483,-0.193 -0.988,-0.341 -1.489,-0.515 -0.503,-0.166 -1.011,-0.342 -1.525,-0.503 -0.514,-0.164 -1.045,-0.281 -1.573,-0.424 -0.531,-0.137 -1.064,-0.275 -1.6,-0.413 -0.538,-0.104 -1.078,-0.207 -1.621,-0.31 -0.199,-0.056 -0.641,-0.181 -1.289,-0.346 -0.451,-0.108 -0.997,-0.267 -1.635,-0.374" /></g><g
           transform="translate(314.6084,420.9258)"
           id="g10437"><path
             id="path10439"
             style="fill:#e90e8b;fill-opacity:1;fill-rule:nonzero;stroke:none"
             d="M 0,0 C 0.127,0.41 0.253,0.817 0.379,1.223 0.693,2.001 0.978,2.788 1.372,3.5 1.386,3.533 1.404,3.563 1.419,3.594 1.749,4.307 2.212,4.921 2.596,5.579 2.669,5.68 2.745,5.776 2.82,5.874 2.854,5.867 2.887,5.857 2.922,5.852 3.438,5.747 3.96,5.642 4.482,5.536 5.01,5.455 5.54,5.375 6.069,5.294 6.599,5.208 7.133,5.167 7.663,5.111 8.194,5.06 8.723,4.999 9.25,4.981 9.775,4.953 10.299,4.932 10.813,4.916 c 0.517,-0.014 1.027,0.002 1.528,10e-4 1.003,-0.019 1.97,0.076 2.884,0.133 0.915,0.055 1.773,0.193 2.565,0.289 0.791,0.105 1.509,0.26 2.147,0.377 0.637,0.106 1.183,0.265 1.634,0.374 0.649,0.165 1.09,0.289 1.289,0.346 0.077,0.021 0.12,0.034 0.12,0.034 0,0 -0.534,-10e-4 -1.458,-0.038 C 21.06,6.416 20.503,6.38 19.86,6.374 19.222,6.361 18.5,6.347 17.714,6.331 17.321,6.333 16.912,6.336 16.489,6.338 16.065,6.341 15.631,6.319 15.183,6.343 14.286,6.374 13.343,6.383 12.37,6.443 11.884,6.472 11.389,6.485 10.89,6.527 10.391,6.577 9.887,6.621 9.377,6.658 8.867,6.687 8.358,6.77 7.845,6.819 7.332,6.879 6.815,6.923 6.305,7.011 5.792,7.083 5.279,7.156 4.768,7.229 4.26,7.319 3.753,7.408 3.252,7.497 2.747,7.578 2.254,7.69 1.763,7.786 1.272,7.887 0.785,7.975 0.314,8.099 -0.158,8.212 -0.621,8.332 -1.081,8.431 -1.534,8.552 -1.978,8.669 -2.41,8.784 c -0.435,0.107 -0.848,0.242 -1.253,0.36 -0.404,0.12 -0.8,0.225 -1.174,0.343 -0.737,0.258 -1.438,0.449 -2.036,0.667 -0.597,0.222 -1.136,0.378 -1.567,0.548 -0.869,0.325 -1.373,0.493 -1.373,0.493 0,0 0.437,-0.302 1.219,-0.799 C -8.205,10.144 -7.71,9.869 -7.141,9.552 -6.575,9.226 -5.915,8.915 -5.194,8.563 -4.721,8.354 -4.22,8.125 -3.692,7.905 -3.407,7.786 -3.116,7.668 -2.812,7.56 -2.386,7.401 -1.947,7.239 -1.499,7.072 -1.538,7.02 -1.58,6.971 -1.618,6.917 -1.749,6.744 -1.868,6.562 -1.986,6.38 -2.18,6.084 -2.367,5.784 -2.558,5.483 -2.832,4.979 -3.122,4.476 -3.361,3.947 -3.623,3.427 -3.833,2.887 -4.061,2.347 -4.262,1.802 -4.461,1.25 -4.621,0.69 -4.673,0.524 -4.719,0.357 -4.767,0.189 -5.361,-1.886 -5.681,-4.018 -5.866,-6.11 -5.97,-7.244 -6.009,-8.362 -6.043,-9.48 c -0.015,-0.568 -0.027,-1.113 -0.027,-1.646 0.001,-0.381 0.007,-0.754 0.011,-1.129 v -0.009 c -0.003,-0.957 -0.008,-1.907 -0.011,-2.845 0.002,-0.469 -0.013,-0.923 -0.022,-1.378 -0.01,-0.454 -0.004,-0.909 -0.027,-1.347 -0.041,-1.779 -0.186,-3.448 -0.415,-5.014 -0.064,-0.389 -0.126,-0.774 -0.188,-1.153 -0.086,-0.371 -0.172,-0.735 -0.255,-1.095 -0.041,-0.181 -0.081,-0.36 -0.121,-0.539 -0.055,-0.172 -0.108,-0.343 -0.163,-0.511 -0.105,-0.342 -0.21,-0.677 -0.312,-1.005 -0.117,-0.322 -0.254,-0.628 -0.377,-0.936 -0.135,-0.3 -0.229,-0.619 -0.385,-0.892 -0.299,-0.552 -0.547,-1.114 -0.853,-1.597 -0.312,-0.486 -0.604,-0.943 -0.874,-1.363 -0.306,-0.399 -0.587,-0.764 -0.841,-1.093 -0.131,-0.168 -0.245,-0.334 -0.372,-0.48 -0.131,-0.143 -0.254,-0.278 -0.37,-0.403 -0.226,-0.251 -0.419,-0.465 -0.577,-0.638 -0.31,-0.352 -0.476,-0.54 -0.476,-0.54 0,0 0.224,0.114 0.642,0.325 0.207,0.11 0.462,0.244 0.763,0.402 0.149,0.079 0.311,0.164 0.482,0.255 0.167,0.098 0.336,0.226 0.521,0.35 0.369,0.252 0.775,0.545 1.225,0.869 0.415,0.347 0.839,0.751 1.312,1.178 0.247,0.205 0.447,0.462 0.672,0.715 0.223,0.258 0.451,0.522 0.685,0.793 0.25,0.266 0.427,0.587 0.651,0.894 0.132,0.199 0.271,0.4 0.409,0.605 -0.015,-0.413 -0.036,-0.817 -0.064,-1.213 -0.098,-1.554 -0.326,-2.958 -0.62,-4.191 -0.296,-1.232 -0.665,-2.292 -1.043,-3.143 -0.088,-0.217 -0.189,-0.413 -0.281,-0.6 -0.094,-0.184 -0.17,-0.372 -0.257,-0.53 -0.173,-0.317 -0.312,-0.6 -0.449,-0.819 -0.263,-0.444 -0.404,-0.681 -0.404,-0.681 0,0 0.214,0.173 0.615,0.499 0.383,0.341 0.97,0.862 1.591,1.622 0.632,0.756 1.344,1.746 1.973,2.993 0.632,1.244 1.207,2.73 1.63,4.39 0.219,0.831 0.385,1.703 0.546,2.608 0.147,0.904 0.258,1.84 0.358,2.801 0.086,0.959 0.144,1.942 0.195,2.942 0.045,0.998 0.059,2.011 0.08,3.036 0.018,2.015 0.035,4.099 0.054,6.216 0.008,0.52 0.025,1.041 0.044,1.556 0.008,0.242 0.015,0.485 0.024,0.726 0.066,1.289 0.131,2.57 0.238,3.828 0.093,1.26 0.248,2.489 0.45,3.685 0.099,0.58 0.206,1.156 0.33,1.717 C -0.214,-0.844 -0.135,-0.406 0,0" /></g><g
           transform="translate(370.4854,478.3882)"
           id="g10441"><path
             id="path10443"
             style="fill:#ffffff;fill-opacity:1;fill-rule:nonzero;stroke:none"
             d="m 0,0 c 0.383,1.142 0.946,1.881 1.582,1.881 0.845,0 1.57,-1.283 1.897,-3.119 2.292,-2.557 3.895,-8.358 3.895,-15.116 0,-0.204 -0.01,-0.403 -0.013,-0.605 l 6.318,2.4 1.559,0.572 -1.146,0.18 -1.541,0.243 -0.051,1.666 c -0.083,2.745 -0.272,5.487 -0.715,8.178 -0.218,1.345 -0.489,2.678 -0.821,3.985 C 10.625,1.57 10.268,2.864 9.809,4.106 9.358,5.349 8.816,6.541 8.183,7.628 7.551,8.707 6.797,9.681 5.98,10.328 5.57,10.642 5.165,10.88 4.772,11.012 4.658,11.059 4.601,11.063 4.547,11.082 4.504,11.09 4.522,11.108 4.427,11.116 L 4.162,11.137 C 4.011,11.156 3.781,11.152 3.591,11.115 2.793,10.995 1.868,10.41 1.071,9.53 0.259,8.667 -0.424,7.566 -1.05,6.419 -1.668,5.261 -2.198,4.022 -2.656,2.747 -3.557,0.187 -4.208,-2.505 -4.697,-5.237 -4.94,-6.605 -5.11,-7.987 -5.264,-9.376 c -0.152,-1.376 -0.272,-2.791 -0.321,-4.189 -0.046,-0.858 -0.072,-1.719 -0.087,-2.581 0.01,-0.124 0.018,-0.208 0.018,-0.208 C -5.654,-7.975 -3.189,-1.07 0,0" /></g><g
           transform="translate(373.9639,477.1499)"
           id="g10445"><path
             id="path10447"
             style="fill:#2aabe2;fill-opacity:1;fill-rule:nonzero;stroke:none"
             d="m 0,0 c 0.117,-0.661 0.186,-1.388 0.186,-2.16 0,-1.449 -0.231,-2.76 -0.604,-3.714 1.234,-1.893 2.063,-5.318 2.063,-9.241 0,-0.505 -0.019,-0.998 -0.045,-1.484 l 0.872,0.342 1.411,0.536 c 0.003,0.202 0.012,0.401 0.012,0.606 C 3.895,-8.357 2.292,-2.557 0,0" /></g><g
           transform="translate(367.0835,462.0347)"
           id="g10449"><path
             id="path10451"
             style="fill:#2aabe2;fill-opacity:1;fill-rule:nonzero;stroke:none"
             d="M 0,0 C 0,5.004 1.343,9.202 3.165,10.431 3.001,11.184 2.9,12.036 2.9,12.956 c 0,1.301 0.194,2.477 0.502,3.398 C 0.212,15.284 -2.252,8.379 -2.252,0 c 0,-1.973 0.143,-3.856 0.394,-5.61 0.76,0.313 1.521,0.622 2.282,0.932 C 0.155,-3.261 0,-1.678 0,0" /></g><g
           transform="translate(373.9639,477.1499)"
           id="g10453"><path
             id="path10455"
             style="fill:#ffffff;fill-opacity:1;fill-rule:nonzero;stroke:none"
             d="m 0,0 c -0.327,1.836 -1.051,3.12 -1.896,3.12 -0.637,0 -1.2,-0.74 -1.583,-1.882 -0.308,-0.92 -0.501,-2.096 -0.501,-3.398 0,-0.92 0.101,-1.772 0.265,-2.525 0.354,-1.634 1.031,-2.755 1.819,-2.755 0.578,0 1.101,0.6 1.478,1.566 0.373,0.954 0.604,2.265 0.604,3.714 C 0.186,-1.388 0.117,-0.661 0,0" /></g><g
           transform="translate(373.1182,457.771)"
           id="g10457"><path
             id="path10459"
             style="fill:#000000;fill-opacity:1;fill-rule:nonzero;stroke:none"
             d="m 0,0 3.99,1.09 7.954,2.26 6.252,1.855 1.671,0.496 5.787,1.717 -6.001,1.541 C 18.416,9.277 17.168,9.536 15.924,9.82 l -2.158,0.484 c -0.021,0.944 -0.06,1.888 -0.122,2.832 -0.103,1.462 -0.252,2.923 -0.469,4.38 -0.431,2.912 -1.074,5.82 -2.162,8.645 -0.537,1.413 -1.186,2.807 -2,4.159 -0.825,1.343 -1.814,2.67 -3.237,3.775 -1.408,1.107 -3.488,1.847 -5.552,1.385 -2.006,-0.444 -3.459,-1.684 -4.511,-2.921 -0.382,-0.455 -0.719,-0.925 -1.035,-1.401 -0.161,0.064 -0.317,0.123 -0.49,0.191 -0.304,0.124 -0.619,0.252 -0.938,0.382 -0.342,0.124 -0.626,0.295 -0.931,0.464 -0.311,0.174 -0.621,0.349 -0.927,0.52 -0.312,0.177 -0.557,0.393 -0.837,0.59 -0.261,0.205 -0.563,0.392 -0.768,0.611 -0.228,0.219 -0.444,0.427 -0.643,0.618 -0.199,0.198 -0.341,0.401 -0.493,0.579 -0.153,0.179 -0.267,0.34 -0.351,0.479 -0.189,0.278 -0.271,0.463 -0.271,0.463 0,0 -0.041,-0.186 -0.054,-0.536 -0.016,-0.18 -0.02,-0.399 -10e-4,-0.64 0.017,-0.242 0.015,-0.536 0.061,-0.838 0.053,-0.307 0.111,-0.64 0.171,-0.991 0.051,-0.371 0.187,-0.708 0.294,-1.093 0.122,-0.373 0.226,-0.795 0.392,-1.174 0.171,-0.384 0.345,-0.775 0.52,-1.165 0.18,-0.395 0.36,-0.808 0.585,-1.154 0.221,-0.365 0.438,-0.724 0.647,-1.071 0.217,-0.347 0.423,-0.703 0.638,-1.01 0.225,-0.294 0.438,-0.572 0.635,-0.829 0.05,-0.063 0.095,-0.121 0.144,-0.182 -0.112,-0.354 -0.235,-0.705 -0.335,-1.06 -0.809,-2.85 -1.251,-5.746 -1.455,-8.64 -0.105,-1.446 -0.169,-2.891 -0.148,-4.334 0.024,-1.456 0.071,-2.878 0.216,-4.314 0.096,-1.433 0.329,-2.854 0.552,-4.269 0.237,-1.421 0.562,-2.802 0.925,-4.181 l -0.1,2.134 -0.038,2.122 c -0.002,0.546 0.007,1.094 0.017,1.641 0.015,0.862 0.041,1.723 0.087,2.581 0.049,1.399 0.169,2.813 0.321,4.189 0.154,1.389 0.324,2.771 0.567,4.139 0.489,2.732 1.141,5.425 2.041,7.984 0.458,1.276 0.988,2.514 1.606,3.673 0.626,1.146 1.309,2.247 2.121,3.11 0.797,0.88 1.722,1.465 2.52,1.585 0.19,0.038 0.42,0.041 0.571,0.022 l 0.265,-0.021 c 0.096,-0.007 0.077,-0.026 0.121,-0.034 0.053,-0.018 0.11,-0.023 0.224,-0.07 0.393,-0.131 0.799,-0.37 1.208,-0.684 0.817,-0.647 1.571,-1.621 2.203,-2.7 0.633,-1.087 1.175,-2.279 1.626,-3.522 0.459,-1.242 0.816,-2.536 1.155,-3.841 0.333,-1.307 0.603,-2.639 0.821,-3.985 0.443,-2.69 0.633,-5.433 0.716,-8.178 L 9.918,7.053 11.459,6.811 12.605,6.63 11.046,6.059 4.729,3.658 3.317,3.122 2.445,2.78 c 0.027,0.486 0.045,0.979 0.045,1.484 0,3.923 -0.828,7.348 -2.062,9.241 -0.378,-0.966 -0.901,-1.567 -1.479,-1.567 -0.787,0 -1.465,1.122 -1.819,2.756 -1.821,-1.229 -3.165,-5.426 -3.165,-10.43 0,-1.679 0.156,-3.261 0.425,-4.678 -0.762,-0.31 -1.523,-0.62 -2.283,-0.933 -1.383,-0.57 -2.763,-1.147 -4.136,-1.744 2.692,0.631 5.363,1.323 8.034,2.018 z" /></g></g></g></g></svg>
