<?xml version="1.0" encoding="UTF-8" standalone="no"?>
<svg
   xmlns:dc="http://purl.org/dc/elements/1.1/"
   xmlns:cc="http://creativecommons.org/ns#"
   xmlns:rdf="http://www.w3.org/1999/02/22-rdf-syntax-ns#"
   xmlns:svg="http://www.w3.org/2000/svg"
   xmlns="http://www.w3.org/2000/svg"
   viewBox="0 0 133.04771 157.02719"
   height="157.02719"
   width="133.04771"
   xml:space="preserve"
   id="svg16116"
   version="1.1"><metadata
     id="metadata16122"><rdf:RDF><cc:Work
         rdf:about=""><dc:format>image/svg+xml</dc:format><dc:type
           rdf:resource="http://purl.org/dc/dcmitype/StillImage" /><dc:title></dc:title></cc:Work></rdf:RDF></metadata><defs
     id="defs16120"><clipPath
       id="clipPath16132"
       clipPathUnits="userSpaceOnUse"><path
         id="path16130"
         d="M 0,612 H 792 V 0 H 0 Z" /></clipPath><clipPath
       id="clipPath16548"
       clipPathUnits="userSpaceOnUse"><path
         id="path16546"
         d="m 229.702,461.775 h 74.472 v -9.815 h -74.472 z" /></clipPath><clipPath
       id="clipPath16564"
       clipPathUnits="userSpaceOnUse"><path
         id="path16562"
         d="m 229.066,461 h 75.744 v -9.978 h -75.744 z" /></clipPath><clipPath
       id="clipPath16580"
       clipPathUnits="userSpaceOnUse"><path
         id="path16578"
         d="m 228.125,460.456 h 77.627 v -10.22 h -77.627 z" /></clipPath><clipPath
       id="clipPath16596"
       clipPathUnits="userSpaceOnUse"><path
         id="path16594"
         d="m 227.301,459.822 h 79.274 V 449.39 h -79.274 z" /></clipPath><clipPath
       id="clipPath17036"
       clipPathUnits="userSpaceOnUse"><path
         id="path17034"
         d="M 669.747,556.885 H 684.09 V 537.862 H 669.747 Z" /></clipPath><clipPath
       id="clipPath17040"
       clipPathUnits="userSpaceOnUse"><path
         id="path17038"
         d="m 672.119,544.556 c 2.945,-5.015 7.48,-7.819 10.128,-6.265 2.65,1.557 2.413,6.885 -0.528,11.9 -2.948,5.015 -7.48,7.82 -10.13,6.265 -2.651,-1.556 -2.413,-6.883 0.53,-11.9" /></clipPath><linearGradient
       id="linearGradient17052"
       spreadMethod="pad"
       gradientTransform="matrix(-9.5994511,-5.6348329,5.6348329,-9.5994511,681.71875,550.19043)"
       gradientUnits="userSpaceOnUse"
       y2="0"
       x2="1"
       y1="0"
       x1="0"><stop
         id="stop17046"
         offset="0"
         style="stop-opacity:0;stop-color:#ffffff" /><stop
         id="stop17048"
         offset="0.74930432"
         style="stop-opacity:0;stop-color:#ffffff" /><stop
         id="stop17050"
         offset="1"
         style="stop-opacity:1;stop-color:#ffffff" /></linearGradient><mask
       id="mask17054"
       height="1"
       width="1"
       y="0"
       x="0"
       maskUnits="userSpaceOnUse"><g
         id="g17064"><g
           id="g17062"><g
             id="g17060"><g
               id="g17058"><path
                 id="path17056"
                 style="fill:url(#linearGradient17052);stroke:none"
                 d="M -32768,32767 H 32767 V -32768 H -32768 Z" /></g></g></g></g></mask><linearGradient
       id="linearGradient17072"
       spreadMethod="pad"
       gradientTransform="matrix(-9.5994511,-5.6348329,5.6348329,-9.5994511,681.71875,550.19043)"
       gradientUnits="userSpaceOnUse"
       y2="0"
       x2="1"
       y1="0"
       x1="0"><stop
         id="stop17066"
         offset="0"
         style="stop-opacity:1;stop-color:#231f20" /><stop
         id="stop17068"
         offset="0.74930432"
         style="stop-opacity:1;stop-color:#231f20" /><stop
         id="stop17070"
         offset="1"
         style="stop-opacity:1;stop-color:#231f20" /></linearGradient><clipPath
       id="clipPath17098"
       clipPathUnits="userSpaceOnUse"><path
         id="path17096"
         d="M 567.837,559.77 H 686.266 V 478.343 H 567.837 Z" /></clipPath><clipPath
       id="clipPath17102"
       clipPathUnits="userSpaceOnUse"><path
         id="path17100"
         d="M 567.837,559.77 H 686.266 V 478.343 H 567.837 Z" /></clipPath><clipPath
       id="clipPath17106"
       clipPathUnits="userSpaceOnUse"><path
         id="path17104"
         d="m 569.51,495.232 9.487,5.565 0.002,-0.004 c 0.01,0.007 0.021,0.017 0.031,0.024 0.992,0.582 2.275,0.483 3.627,-0.143 l 16.725,9.815 c -0.123,2.219 0.48,3.995 1.84,4.791 l 27.923,16.392 c 0.096,2.308 0.885,4.125 2.389,5.008 l 37.348,21.92 c 0.217,0.127 0.443,0.231 0.678,0.314 0.133,0.103 0.262,0.211 0.41,0.296 3.453,2.028 9.368,-1.627 13.203,-8.164 3.835,-6.537 4.147,-13.481 0.693,-15.509 -0.213,-0.125 -0.434,-0.225 -0.664,-0.308 -0.139,-0.108 -0.274,-0.219 -0.428,-0.309 l -37.341,-21.918 c -1.506,-0.883 -3.479,-0.688 -5.541,0.354 l -27.923,-16.388 c -1.359,-0.798 -3.201,-0.457 -5.079,0.729 l -16.512,-9.691 c -0.029,-1.7 -0.577,-3.047 -1.669,-3.687 -0.009,-0.007 -0.022,-0.01 -0.034,-0.017 l 0.003,-0.004 -9.484,-5.563 c -2.408,-1.418 -6.527,1.132 -9.201,5.688 -2.674,4.556 -2.889,9.395 -0.483,10.809" /></clipPath><linearGradient
       id="linearGradient17122"
       spreadMethod="pad"
       gradientTransform="matrix(-13.670649,23.780159,-23.780159,-13.670649,633.28125,506.08447)"
       gradientUnits="userSpaceOnUse"
       y2="0"
       x2="1"
       y1="0"
       x1="0"><stop
         id="stop17112"
         offset="0"
         style="stop-opacity:1;stop-color:#ffffff" /><stop
         id="stop17114"
         offset="0.00880261"
         style="stop-opacity:1;stop-color:#ffffff" /><stop
         id="stop17116"
         offset="0.570552"
         style="stop-opacity:1;stop-color:#ffffff" /><stop
         id="stop17118"
         offset="0.72093833"
         style="stop-opacity:1;stop-color:#ffffff" /><stop
         id="stop17120"
         offset="1"
         style="stop-opacity:0;stop-color:#ffffff" /></linearGradient><mask
       id="mask17124"
       height="1"
       width="1"
       y="0"
       x="0"
       maskUnits="userSpaceOnUse"><g
         id="g17134"><g
           id="g17132"><g
             id="g17130"><g
               id="g17128"><path
                 id="path17126"
                 style="fill:url(#linearGradient17122);stroke:none"
                 d="M -32768,32767 H 32767 V -32768 H -32768 Z" /></g></g></g></g></mask><linearGradient
       id="linearGradient17146"
       spreadMethod="pad"
       gradientTransform="matrix(-13.670649,23.780159,-23.780159,-13.670649,633.28125,506.08447)"
       gradientUnits="userSpaceOnUse"
       y2="0"
       x2="1"
       y1="0"
       x1="0"><stop
         id="stop17136"
         offset="0"
         style="stop-opacity:1;stop-color:#231f20" /><stop
         id="stop17138"
         offset="0.00880261"
         style="stop-opacity:1;stop-color:#231f20" /><stop
         id="stop17140"
         offset="0.570552"
         style="stop-opacity:1;stop-color:#ffffff" /><stop
         id="stop17142"
         offset="0.72093833"
         style="stop-opacity:1;stop-color:#ffffff" /><stop
         id="stop17144"
         offset="1"
         style="stop-opacity:1;stop-color:#231f20" /></linearGradient><clipPath
       id="clipPath17770"
       clipPathUnits="userSpaceOnUse"><path
         id="path17768"
         d="m 346.963,425.556 h 34 v -32.45 h -34 z" /></clipPath><clipPath
       id="clipPath17774"
       clipPathUnits="userSpaceOnUse"><path
         id="path17772"
         d="m 346.963,425.556 h 34 v -32.45 h -34 z" /></clipPath><clipPath
       id="clipPath17778"
       clipPathUnits="userSpaceOnUse"><path
         id="path17776"
         d="m 380.963,425.556 v -25.25 c 0,-3.976 -3.224,-7.2 -7.2,-7.2 h -19.6 c -3.976,0 -7.2,3.224 -7.2,7.2 v 25.25 z" /></clipPath><linearGradient
       id="linearGradient17794"
       spreadMethod="pad"
       gradientTransform="matrix(-34,0,0,-34,380.96289,409.33105)"
       gradientUnits="userSpaceOnUse"
       y2="0"
       x2="1"
       y1="0"
       x1="0"><stop
         id="stop17784"
         offset="0"
         style="stop-opacity:1;stop-color:#ffffff" /><stop
         id="stop17786"
         offset="0.00792198"
         style="stop-opacity:1;stop-color:#ffffff" /><stop
         id="stop17788"
         offset="0.513473"
         style="stop-opacity:1;stop-color:#ffffff" /><stop
         id="stop17790"
         offset="0.68384755"
         style="stop-opacity:1;stop-color:#ffffff" /><stop
         id="stop17792"
         offset="1"
         style="stop-opacity:0;stop-color:#ffffff" /></linearGradient><mask
       id="mask17796"
       height="1"
       width="1"
       y="0"
       x="0"
       maskUnits="userSpaceOnUse"><g
         id="g17806"><g
           id="g17804"><g
             id="g17802"><g
               id="g17800"><path
                 id="path17798"
                 style="fill:url(#linearGradient17794);stroke:none"
                 d="M -32768,32767 H 32767 V -32768 H -32768 Z" /></g></g></g></g></mask><linearGradient
       id="linearGradient17818"
       spreadMethod="pad"
       gradientTransform="matrix(-34,0,0,-34,380.96289,409.33105)"
       gradientUnits="userSpaceOnUse"
       y2="0"
       x2="1"
       y1="0"
       x1="0"><stop
         id="stop17808"
         offset="0"
         style="stop-opacity:1;stop-color:#231f20" /><stop
         id="stop17810"
         offset="0.00792198"
         style="stop-opacity:1;stop-color:#231f20" /><stop
         id="stop17812"
         offset="0.513473"
         style="stop-opacity:1;stop-color:#ffffff" /><stop
         id="stop17814"
         offset="0.68384755"
         style="stop-opacity:1;stop-color:#ffffff" /><stop
         id="stop17816"
         offset="1"
         style="stop-opacity:1;stop-color:#231f20" /></linearGradient><clipPath
       id="clipPath17936"
       clipPathUnits="userSpaceOnUse"><path
         id="path17934"
         d="m 173.035,484.845 h 23.447 v -38.383 h -23.447 z" /></clipPath><clipPath
       id="clipPath17952"
       clipPathUnits="userSpaceOnUse"><path
         id="path17950"
         d="m 173.035,484.845 h 23.447 v -38.383 h -23.447 z" /></clipPath><clipPath
       id="clipPath17968"
       clipPathUnits="userSpaceOnUse"><path
         id="path17966"
         d="m 177.07,477.623 h 18.502 V 447.372 H 177.07 Z" /></clipPath><clipPath
       id="clipPath18304"
       clipPathUnits="userSpaceOnUse"><path
         id="path18302"
         d="m 145.241,466.084 h 29.951 V 384.05 h -29.951 z" /></clipPath><clipPath
       id="clipPath18410"
       clipPathUnits="userSpaceOnUse"><path
         id="path18408"
         d="m 145.241,466.084 h 29.951 V 384.05 h -29.951 z" /></clipPath><clipPath
       id="clipPath18426"
       clipPathUnits="userSpaceOnUse"><path
         id="path18424"
         d="m 161.35,439.43 h 33.018 V 384.05 H 161.35 Z" /></clipPath><clipPath
       id="clipPath18494"
       clipPathUnits="userSpaceOnUse"><path
         id="path18492"
         d="m 161.35,439.43 h 33.018 V 384.05 H 161.35 Z" /></clipPath><clipPath
       id="clipPath18510"
       clipPathUnits="userSpaceOnUse"><path
         id="path18508"
         d="m 123.813,427.481 h 35.316 V 384.05 h -35.316 z" /></clipPath><clipPath
       id="clipPath18578"
       clipPathUnits="userSpaceOnUse"><path
         id="path18576"
         d="m 123.813,427.481 h 35.316 V 384.05 h -35.316 z" /></clipPath><clipPath
       id="clipPath18598"
       clipPathUnits="userSpaceOnUse"><path
         id="path18596"
         d="m 139.484,494.23 h -12.3 c 0,0 -1.418,-9.774 4.781,-10.567 v 0 c 5.063,-0.647 4.679,4.813 11.238,5.86 v 0 l -0.028,0.037 c 0.802,0.066 2.106,0.216 3.428,0.103 v 0 c 0.413,-0.022 0.839,-0.054 1.29,-0.103 v 0 l 0.067,-0.128 c 1.133,-0.301 2.152,-0.903 2.714,-2.061 v 0 c 0.589,-1.212 0.545,-2.475 0.291,-3.553 v 0 c 3.694,0.659 2.82,10.412 2.82,10.412 v 0 z" /></clipPath><linearGradient
       id="linearGradient18612"
       spreadMethod="pad"
       gradientTransform="matrix(26.830078,0,0,-26.830078,127.04492,488.91992)"
       gradientUnits="userSpaceOnUse"
       y2="0"
       x2="1"
       y1="0"
       x1="0"><stop
         id="stop18608"
         offset="0"
         style="stop-opacity:0.6;stop-color:#ffffff" /><stop
         id="stop18610"
         offset="1"
         style="stop-opacity:0;stop-color:#ffffff" /></linearGradient><mask
       id="mask18614"
       height="1"
       width="1"
       y="0"
       x="0"
       maskUnits="userSpaceOnUse"><g
         id="g18624"><g
           id="g18622"><g
             id="g18620"><g
               id="g18618"><path
                 id="path18616"
                 style="fill:url(#linearGradient18612);stroke:none"
                 d="M -32768,32767 H 32767 V -32768 H -32768 Z" /></g></g></g></g></mask><linearGradient
       id="linearGradient18634"
       spreadMethod="pad"
       gradientTransform="matrix(26.830078,0,0,-26.830078,127.04492,488.91992)"
       gradientUnits="userSpaceOnUse"
       y2="0"
       x2="1"
       y1="0"
       x1="0"><stop
         id="stop18630"
         offset="0"
         style="stop-opacity:1;stop-color:#ffffff" /><stop
         id="stop18632"
         offset="1"
         style="stop-opacity:1;stop-color:#ffffff" /></linearGradient><clipPath
       id="clipPath18644"
       clipPathUnits="userSpaceOnUse"><path
         id="path18642"
         d="M 0,612 H 792 V 0 H 0 Z" /></clipPath><clipPath
       id="clipPath18652"
       clipPathUnits="userSpaceOnUse"><path
         id="path18650"
         d="m 126.875,494.4 h 27.161 v -10.96 h -27.161 z" /></clipPath><clipPath
       id="clipPath18670"
       clipPathUnits="userSpaceOnUse"><path
         id="path18668"
         d="m 167.907,368.574 h 60.561 v -59.927 h -60.561 z" /></clipPath><clipPath
       id="clipPath18686"
       clipPathUnits="userSpaceOnUse"><path
         id="path18684"
         d="m 168.811,365.506 h 60.074 v -59.575 h -60.074 z" /></clipPath><clipPath
       id="clipPath18702"
       clipPathUnits="userSpaceOnUse"><path
         id="path18700"
         d="m 169.486,362.438 h 59.818 v -59.391 h -59.818 z" /></clipPath><clipPath
       id="clipPath18718"
       clipPathUnits="userSpaceOnUse"><path
         id="path18716"
         d="m 170.441,359.372 h 59.282 V 300.36 h -59.282 z" /></clipPath><clipPath
       id="clipPath18734"
       clipPathUnits="userSpaceOnUse"><path
         id="path18732"
         d="m 171.453,356.305 h 58.686 v -58.6 h -58.686 z" /></clipPath><clipPath
       id="clipPath20622"
       clipPathUnits="userSpaceOnUse"><path
         id="path20620"
         d="M 0,612 H 792 V 0 H 0 Z" /></clipPath></defs><g
     transform="matrix(1.3333333,0,0,-1.3333333,-758.53279,453.27199)"
     id="g16124"><g
       id="g18638"><g
         clip-path="url(#clipPath18644)"
         id="g18640"><g
           transform="translate(492.7959,323.2324)"
           id="g20008" /><g
           transform="translate(632.2666,245.0547)"
           id="g20192"><path
             id="path20194"
             style="fill:#00adee;fill-opacity:1;fill-rule:nonzero;stroke:none"
             d="M 0,0 C 0.194,6.545 0.387,13.092 0.581,19.639 -0.102,19.585 -0.788,19.536 -1.479,19.493 -1.863,12.819 -2.25,6.151 -2.637,-0.515 -2.64,-0.719 -2.644,-0.924 -2.646,-1.128 c -0.216,-3.466 -0.432,-6.93 -0.648,-10.393 -0.175,-2.887 -0.35,-5.774 -0.525,-8.662 1.142,0.098 2.245,0.215 3.303,0.355 0.173,6.388 0.346,12.775 0.519,19.164 C 0.002,-0.442 0.001,-0.222 0,0" /></g><g
           transform="translate(624.7187,244.1025)"
           id="g20196"><path
             id="path20198"
             style="fill:#00adee;fill-opacity:1;fill-rule:nonzero;stroke:none"
             d="m 0,0 c -0.032,6.731 -0.064,13.463 -0.097,20.195 -0.745,-0.013 -1.491,-0.019 -2.239,-0.02 0.045,-0.036 0.091,-0.074 0.136,-0.111 -0.155,-6.689 -0.31,-13.378 -0.464,-20.068 0.004,-0.215 0.008,-0.431 0.012,-0.646 -0.096,-3.445 -0.193,-6.888 -0.288,-10.332 -0.073,-2.847 -0.146,-5.693 -0.219,-8.539 1.146,0 2.251,0.029 3.33,0.071 C 0.123,-13.194 0.076,-6.94 0.029,-0.685 0.02,-0.457 0.01,-0.229 0,0" /></g><g
           transform="translate(628.5039,244.46)"
           id="g20200"><path
             id="path20202"
             style="fill:#00adee;fill-opacity:1;fill-rule:nonzero;stroke:none"
             d="m 0,0 0.252,19.975 c -0.725,-0.035 -1.451,-0.064 -2.181,-0.087 0.031,-0.031 0.06,-0.062 0.09,-0.092 -0.272,-6.687 -0.544,-13.371 -0.816,-20.055 0,-0.21 10e-4,-0.419 10e-4,-0.629 -0.157,-3.451 -0.313,-6.902 -0.469,-10.351 -0.124,-2.856 -0.247,-5.709 -0.371,-8.564 1.144,0.047 2.251,0.116 3.32,0.205 0.064,6.309 0.126,12.617 0.189,18.925 C 0.01,-0.448 0.005,-0.225 0,0" /></g><g
           transform="translate(620.9238,243.9805)"
           id="g20204"><path
             id="path20206"
             style="fill:#00adee;fill-opacity:1;fill-rule:nonzero;stroke:none"
             d="m 0,0 c -0.15,6.739 -0.302,13.479 -0.452,20.219 0.038,0.029 0.075,0.059 0.113,0.088 -0.739,0.008 -1.477,0.022 -2.216,0.043 -0.037,-6.699 -0.074,-13.399 -0.111,-20.097 0.008,-0.222 0.016,-0.443 0.023,-0.664 -0.035,-3.446 -0.07,-6.892 -0.104,-10.338 -0.023,-2.86 -0.046,-5.721 -0.069,-8.581 1.08,-0.042 2.183,-0.069 3.33,-0.07 C 0.356,-13.167 0.198,-6.934 0.041,-0.698 0.027,-0.465 0.014,-0.232 0,0" /></g><g
           transform="translate(609.5967,245.0381)"
           id="g20208"><path
             id="path20210"
             style="fill:#00adee;fill-opacity:1;fill-rule:nonzero;stroke:none"
             d="m 0,0 c -0.492,6.653 -0.983,13.313 -1.473,19.98 -0.675,0.074 -1.346,0.152 -2.014,0.236 0.289,-6.401 0.577,-12.801 0.866,-19.197 0.017,-0.244 0.036,-0.487 0.054,-0.729 0.144,-3.493 0.29,-6.985 0.435,-10.477 0.131,-3.036 0.262,-6.072 0.394,-9.107 1.046,-0.192 2.138,-0.364 3.278,-0.515 -0.488,6.348 -0.976,12.7 -1.462,19.06 C 0.052,-0.5 0.026,-0.25 0,0" /></g><g
           transform="translate(605.8799,245.8623)"
           id="g20212"><path
             id="path20214"
             style="fill:#00adee;fill-opacity:1;fill-rule:nonzero;stroke:none"
             d="m 0,0 c -0.586,6.545 -1.171,13.099 -1.755,19.66 -0.658,0.096 -1.311,0.195 -1.96,0.303 0.374,-6.234 0.749,-12.464 1.126,-18.689 0.022,-0.251 0.043,-0.502 0.065,-0.752 0.201,-3.523 0.402,-7.045 0.604,-10.566 0.184,-3.121 0.367,-6.24 0.552,-9.359 1.028,-0.251 2.108,-0.485 3.245,-0.696 C 1.28,-13.663 0.685,-7.222 0.091,-0.769 0.061,-0.512 0.03,-0.256 0,0" /></g><g
           transform="translate(617.1309,244.0967)"
           id="g20216"><path
             id="path20218"
             style="fill:#00adee;fill-opacity:1;fill-rule:nonzero;stroke:none"
             d="m 0,0 c -0.27,6.729 -0.539,13.46 -0.808,20.192 l 0.112,0.109 c -0.737,0.031 -1.47,0.07 -2.202,0.113 0.08,-6.637 0.158,-13.272 0.238,-19.908 0.011,-0.228 0.022,-0.456 0.034,-0.685 0.025,-3.453 0.052,-6.905 0.078,-10.358 0.028,-2.901 0.056,-5.803 0.083,-8.704 1.07,-0.088 2.177,-0.155 3.321,-0.201 -0.268,6.241 -0.536,12.483 -0.803,18.727 z" /></g><g
           transform="translate(613.3506,244.4492)"
           id="g20220"><path
             id="path20222"
             style="fill:#00adee;fill-opacity:1;fill-rule:nonzero;stroke:none"
             d="m 0,0 c -0.386,6.729 -0.77,13.461 -1.154,20.197 -0.689,0.052 -1.374,0.109 -2.057,0.171 0.189,-6.536 0.378,-13.071 0.567,-19.605 0.014,-0.237 0.029,-0.472 0.043,-0.707 0.087,-3.469 0.173,-6.938 0.26,-10.406 0.079,-2.963 0.158,-5.923 0.237,-8.884 1.059,-0.138 2.162,-0.254 3.303,-0.35 C 0.822,-13.303 0.444,-7.019 0.066,-0.73 0.044,-0.486 0.022,-0.243 0,0" /></g><g
           transform="translate(650.3389,251.5762)"
           id="g20224"><path
             id="path20226"
             style="fill:#00adee;fill-opacity:1;fill-rule:nonzero;stroke:none"
             d="M 0,0 C 0.537,5.453 1.065,10.924 1.595,16.394 1.023,16.224 0.44,16.059 -0.157,15.899 -0.906,9.99 -1.659,4.089 -2.421,-1.786 -2.44,-1.972 -2.461,-2.157 -2.48,-2.343 -2.962,-5.994 -3.445,-9.64 -3.931,-13.278 c -0.429,-3.242 -0.862,-6.475 -1.296,-9.706 1.139,0.458 2.174,0.927 3.105,1.396 0.693,6.97 1.383,13.951 2.065,20.95 C -0.037,-0.425 -0.019,-0.212 0,0" /></g><g
           transform="translate(653.7207,253.5889)"
           id="g20228"><path
             id="path20230"
             style="fill:#00adee;fill-opacity:1;fill-rule:nonzero;stroke:none"
             d="M 0,0 C 0.556,5.163 1.101,10.35 1.647,15.533 1.107,15.328 0.55,15.13 -0.022,14.938 -0.793,9.266 -1.565,3.598 -2.352,-2.037 c -0.022,-0.184 -0.045,-0.366 -0.069,-0.55 -0.523,-3.711 -1.05,-7.414 -1.58,-11.109 -0.47,-3.296 -0.944,-6.582 -1.42,-9.865 1.177,0.596 2.19,1.186 3.05,1.741 0.776,7.045 1.547,14.103 2.307,21.185 C -0.043,-0.423 -0.021,-0.211 0,0" /></g><g
           transform="translate(658.6592,270.5391)"
           id="g20232"><path
             id="path20234"
             style="fill:#00adee;fill-opacity:1;fill-rule:nonzero;stroke:none"
             d="m 0,0 c -0.511,-0.251 -1.042,-0.493 -1.588,-0.729 -0.776,-5.435 -1.553,-10.869 -2.348,-16.261 -0.026,-0.182 -0.051,-0.364 -0.077,-0.544 -0.56,-3.779 -1.126,-7.549 -1.695,-11.308 -0.499,-3.3 -1.004,-6.587 -1.511,-9.871 1.405,0.912 2.388,1.718 3.011,2.282 0.834,7.013 1.662,14.038 2.476,21.096 C -1.146,-10.241 -0.575,-5.117 0,0" /></g><g
           transform="translate(635.9961,245.8857)"
           id="g20236"><path
             id="path20238"
             style="fill:#00adee;fill-opacity:1;fill-rule:nonzero;stroke:none"
             d="M 0,0 C 0.292,6.394 0.584,12.791 0.875,19.189 0.208,19.114 -0.464,19.046 -1.141,18.981 -1.629,12.393 -2.119,5.809 -2.609,-0.77 c -0.007,-0.199 -0.014,-0.399 -0.022,-0.598 -0.274,-3.488 -0.55,-6.974 -0.825,-10.457 -0.226,-2.942 -0.452,-5.881 -0.68,-8.82 1.14,0.153 2.233,0.326 3.278,0.52 0.284,6.488 0.566,12.979 0.848,19.472 C -0.007,-0.436 -0.004,-0.218 0,0" /></g><g
           transform="translate(646.8623,249.7979)"
           id="g20240"><path
             id="path20242"
             style="fill:#00adee;fill-opacity:1;fill-rule:nonzero;stroke:none"
             d="M 0,0 C 0.501,5.73 0.997,11.474 1.492,17.218 0.893,17.076 0.284,16.938 -0.337,16.807 -1.047,10.682 -1.76,4.565 -2.479,-1.53 c -0.017,-0.19 -0.035,-0.379 -0.052,-0.568 -0.435,-3.598 -0.87,-7.192 -1.308,-10.781 -0.382,-3.168 -0.766,-6.33 -1.15,-9.49 1.133,0.361 2.18,0.741 3.155,1.13 0.6,6.858 1.197,13.723 1.79,20.601 C -0.029,-0.426 -0.015,-0.213 0,0" /></g><g
           transform="translate(639.6797,246.9531)"
           id="g20244"><path
             id="path20246"
             style="fill:#00adee;fill-opacity:1;fill-rule:nonzero;stroke:none"
             d="M 0,0 C 0.378,6.205 0.754,12.416 1.13,18.629 0.482,18.533 -0.173,18.444 -0.834,18.358 -1.412,11.889 -1.992,5.428 -2.575,-1.023 -2.586,-1.219 -2.596,-1.415 -2.606,-1.61 c -0.331,-3.518 -0.662,-7.033 -0.993,-10.544 -0.279,-3.008 -0.559,-6.014 -0.839,-9.019 1.135,0.213 2.215,0.447 3.243,0.7 0.391,6.605 0.783,13.212 1.173,19.826 C -0.015,-0.432 -0.007,-0.216 0,0" /></g><g
           transform="translate(643.3047,248.2578)"
           id="g20248"><path
             id="path20250"
             style="fill:#00adee;fill-opacity:1;fill-rule:nonzero;stroke:none"
             d="M 0,0 C 0.448,5.982 0.894,11.974 1.338,17.968 0.712,17.85 0.08,17.735 -0.562,17.627 -1.215,11.314 -1.871,5.011 -2.53,-1.278 l -0.041,-0.575 c -0.385,-3.554 -0.77,-7.105 -1.157,-10.652 -0.331,-3.086 -0.664,-6.168 -0.997,-9.249 1.131,0.281 2.202,0.581 3.204,0.899 0.498,6.732 0.995,13.468 1.488,20.213 C -0.021,-0.428 -0.011,-0.214 0,0" /></g><g
           transform="translate(588.2715,253.5371)"
           id="g20252"><path
             id="path20254"
             style="fill:#00adee;fill-opacity:1;fill-rule:nonzero;stroke:none"
             d="m 0,0 c -0.825,5.592 -1.63,11.226 -2.434,16.862 -0.539,0.242 -1.06,0.493 -1.57,0.75 0.598,-5.322 1.191,-10.649 1.802,-15.946 0.815,-7.082 1.646,-14.135 2.484,-21.172 0.638,-0.571 1.624,-1.368 3.009,-2.262 C 2.226,-14.842 1.172,-7.886 0.136,-0.892 0.091,-0.595 0.045,-0.298 0,0" /></g><g
           transform="translate(582.583,272.0586)"
           id="g20256"><path
             id="path20258"
             style="fill:#00adee;fill-opacity:1;fill-rule:nonzero;stroke:none"
             d="m 0,0 c -0.806,0.467 -1.565,0.955 -2.272,1.467 l 7.465,-38.745 c 0.128,-0.136 0.351,-0.361 0.662,-0.645 -1.156,7.174 -2.295,14.385 -3.41,21.646 C 1.615,-10.879 0.804,-5.447 0,0" /></g><g
           transform="translate(602.2129,246.9248)"
           id="g20260"><path
             id="path20262"
             style="fill:#00adee;fill-opacity:1;fill-rule:nonzero;stroke:none"
             d="m 0,0 c -0.668,6.399 -1.332,12.814 -1.992,19.239 -0.638,0.118 -1.271,0.241 -1.895,0.371 0.445,-6.031 0.89,-12.059 1.338,-18.08 0.025,-0.259 0.049,-0.518 0.073,-0.777 0.256,-3.563 0.513,-7.122 0.77,-10.681 0.235,-3.209 0.471,-6.416 0.707,-9.622 1.004,-0.315 2.073,-0.614 3.204,-0.892 C 1.501,-13.903 0.799,-7.354 0.101,-0.79 0.067,-0.526 0.033,-0.264 0,0" /></g><g
           transform="translate(660.3184,271.418)"
           id="g20264"><path
             id="path20266"
             style="fill:#00adee;fill-opacity:1;fill-rule:nonzero;stroke:none"
             d="m 0,0 c -0.773,-5.231 -1.554,-10.448 -2.351,-15.636 -0.619,-4.035 -1.246,-8.056 -1.878,-12.065 -0.502,-3.177 -1.01,-6.34 -1.52,-9.501 0.268,0.248 0.459,0.441 0.576,0.565 L 2.219,1.408 C 1.533,0.92 0.792,0.45 0,0" /></g><g
           transform="translate(598.6064,248.2207)"
           id="g20268"><path
             id="path20270"
             style="fill:#00adee;fill-opacity:1;fill-rule:nonzero;stroke:none"
             d="m 0,0 c -0.732,6.229 -1.46,12.477 -2.183,18.734 -0.615,0.144 -1.221,0.294 -1.82,0.449 0.498,-5.803 0.998,-11.605 1.502,-17.394 0.027,-0.268 0.054,-0.535 0.081,-0.803 0.308,-3.608 0.616,-7.214 0.926,-10.817 0.285,-3.291 0.571,-6.579 0.857,-9.865 0.976,-0.388 2.025,-0.765 3.158,-1.123 C 1.714,-14.167 0.908,-7.501 0.11,-0.812 0.074,-0.541 0.037,-0.271 0,0" /></g><g
           transform="translate(595.0723,249.7568)"
           id="g20272"><path
             id="path20274"
             style="fill:#00adee;fill-opacity:1;fill-rule:nonzero;stroke:none"
             d="m 0,0 c -0.779,6.031 -1.551,12.088 -2.317,18.153 -0.59,0.17 -1.17,0.347 -1.742,0.531 0.537,-5.552 1.073,-11.104 1.616,-16.638 0.029,-0.278 0.059,-0.556 0.089,-0.833 0.355,-3.662 0.711,-7.319 1.069,-10.974 0.33,-3.354 0.663,-6.704 0.996,-10.051 0.933,-0.466 1.967,-0.934 3.106,-1.389 C 1.912,-14.435 1.011,-7.649 0.12,-0.836 0.08,-0.558 0.04,-0.278 0,0" /></g><g
           transform="translate(591.624,251.5303)"
           id="g20276"><path
             id="path20278"
             style="fill:#00adee;fill-opacity:1;fill-rule:nonzero;stroke:none"
             d="m 0,0 c -0.811,5.813 -1.606,11.661 -2.399,17.515 -0.564,0.201 -1.118,0.408 -1.658,0.623 C -3.5,12.853 -2.944,7.564 -2.378,2.3 c 0.031,-0.287 0.064,-0.574 0.096,-0.862 0.397,-3.723 0.798,-7.441 1.201,-11.155 0.366,-3.37 0.735,-6.735 1.105,-10.098 0.865,-0.553 1.879,-1.14 3.057,-1.733 C 2.087,-14.68 1.101,-7.79 0.128,-0.865 0.085,-0.576 0.043,-0.288 0,0" /></g><g
           transform="translate(584.2676,271.1494)"
           id="g20280"><path
             id="path20282"
             style="fill:#00ffff;fill-opacity:1;fill-rule:nonzero;stroke:none"
             d="m 0,0 c -0.581,0.293 -1.145,0.596 -1.685,0.909 0.804,-5.447 1.616,-10.879 2.446,-16.277 1.114,-7.261 2.254,-14.472 3.41,-21.646 0.037,-0.034 0.075,-0.068 0.115,-0.104 -0.838,7.037 -1.669,14.09 -2.484,21.172 C 1.191,-10.649 0.598,-5.322 0,0" /></g><g
           transform="translate(589.3418,252.9687)"
           id="g20284"><path
             id="path20286"
             style="fill:#00ffff;fill-opacity:1;fill-rule:nonzero;stroke:none"
             d="m 0,0 c -0.032,0.287 -0.064,0.574 -0.096,0.861 -0.566,5.265 -1.122,10.553 -1.678,15.838 -0.592,0.236 -1.168,0.48 -1.73,0.732 C -2.7,11.794 -1.896,6.16 -1.07,0.568 c 0.045,-0.297 0.091,-0.594 0.135,-0.891 1.037,-6.994 2.09,-13.95 3.156,-20.876 0.028,-0.018 0.057,-0.036 0.086,-0.055 -0.37,3.363 -0.74,6.729 -1.106,10.099 C 0.798,-7.441 0.397,-3.724 0,0" /></g><g
           transform="translate(592.7187,250.9697)"
           id="g20288"><path
             id="path20290"
             style="fill:#00ffff;fill-opacity:1;fill-rule:nonzero;stroke:none"
             d="m 0,0 c -0.03,0.277 -0.061,0.555 -0.09,0.833 -0.543,5.534 -1.079,11.086 -1.615,16.638 -0.608,0.194 -1.205,0.395 -1.789,0.604 0.793,-5.853 1.589,-11.701 2.399,-17.514 0.043,-0.289 0.085,-0.577 0.128,-0.866 0.973,-6.924 1.959,-13.814 2.953,-20.682 0.026,-0.013 0.052,-0.026 0.078,-0.038 -0.333,3.347 -0.666,6.697 -0.996,10.051 C 0.711,-7.319 0.354,-3.662 0,0" /></g><g
           transform="translate(596.1865,249.207)"
           id="g20292"><path
             id="path20294"
             style="fill:#00ffff;fill-opacity:1;fill-rule:nonzero;stroke:none"
             d="m 0,0 c -0.027,0.268 -0.054,0.535 -0.081,0.803 -0.504,5.789 -1.004,11.591 -1.502,17.393 -0.626,0.162 -1.241,0.332 -1.849,0.507 0.767,-6.065 1.538,-12.122 2.318,-18.153 0.04,-0.279 0.08,-0.558 0.12,-0.836 0.89,-6.814 1.792,-13.599 2.697,-20.365 0.026,-0.011 0.054,-0.021 0.08,-0.032 -0.286,3.287 -0.572,6.575 -0.857,9.866 C 0.616,-7.214 0.308,-3.608 0,0" /></g><g
           transform="translate(599.7373,247.6777)"
           id="g20296"><path
             id="path20298"
             style="fill:#00ffff;fill-opacity:1;fill-rule:nonzero;stroke:none"
             d="m 0,0 c -0.024,0.259 -0.049,0.519 -0.073,0.777 -0.448,6.021 -0.894,12.049 -1.338,18.08 -0.643,0.134 -1.277,0.275 -1.902,0.42 0.722,-6.257 1.45,-12.506 2.182,-18.734 0.037,-0.271 0.074,-0.541 0.11,-0.812 0.798,-6.689 1.604,-13.355 2.412,-20.007 0.028,-0.009 0.057,-0.018 0.086,-0.027 C 1.24,-17.097 1.005,-13.89 0.77,-10.681 0.513,-7.122 0.256,-3.563 0,0" /></g><g
           transform="translate(603.3555,246.3848)"
           id="g20300"><path
             id="path20302"
             style="fill:#00ffff;fill-opacity:1;fill-rule:nonzero;stroke:none"
             d="m 0,0 c -0.021,0.25 -0.043,0.501 -0.064,0.752 -0.377,6.225 -0.752,12.455 -1.126,18.688 -0.654,0.108 -1.303,0.22 -1.945,0.339 0.66,-6.425 1.324,-12.84 1.992,-19.239 0.034,-0.264 0.068,-0.526 0.101,-0.79 0.698,-6.564 1.4,-13.113 2.104,-19.652 l 0.094,-0.024 c -0.184,3.119 -0.368,6.238 -0.552,9.36 C 0.402,-7.046 0.201,-3.523 0,0" /></g><g
           transform="translate(607.9463,223.7109)"
           id="g20304"><path
             id="path20306"
             style="fill:#00ffff;fill-opacity:1;fill-rule:nonzero;stroke:none"
             d="M 0,0 C -0.003,0.057 -0.005,0.114 -0.008,0.171 -0.01,0.172 -0.013,0.172 -0.016,0.173 -0.011,0.115 -0.005,0.058 0,0" /></g><g
           transform="translate(607.0293,245.3281)"
           id="g20308"><path
             id="path20310"
             style="fill:#00ffff;fill-opacity:1;fill-rule:nonzero;stroke:none"
             d="m 0,0 c -0.018,0.242 -0.036,0.485 -0.054,0.729 -0.289,6.396 -0.577,12.796 -0.866,19.197 -0.666,0.084 -1.327,0.174 -1.984,0.268 0.584,-6.561 1.169,-13.115 1.755,-19.66 0.03,-0.256 0.06,-0.512 0.09,-0.768 0.594,-6.453 1.19,-12.895 1.787,-19.33 0.034,-0.006 0.067,-0.014 0.101,-0.02 -0.132,3.035 -0.263,6.071 -0.393,9.107 C 0.29,-6.985 0.145,-3.493 0,0" /></g><g
           transform="translate(611.3047,223.043)"
           id="g20312"><path
             id="path20314"
             style="fill:#00ffff;fill-opacity:1;fill-rule:nonzero;stroke:none"
             d="m 0,0 -0.009,0.34 c -0.006,0 -0.012,0.001 -0.017,0.002 C -0.018,0.228 -0.009,0.113 0,0" /></g><g
           transform="translate(610.75,244.5049)"
           id="g20316"><path
             id="path20318"
             style="fill:#00ffff;fill-opacity:1;fill-rule:nonzero;stroke:none"
             d="m 0,0 c -0.015,0.235 -0.029,0.471 -0.043,0.707 -0.189,6.534 -0.379,13.069 -0.567,19.605 -0.675,0.062 -1.347,0.129 -2.016,0.202 0.489,-6.667 0.98,-13.327 1.473,-19.981 0.026,-0.25 0.051,-0.5 0.078,-0.749 0.486,-6.36 0.973,-12.712 1.462,-19.059 0.037,-0.005 0.073,-0.01 0.11,-0.015 -0.079,2.961 -0.158,5.922 -0.237,8.885 C 0.173,-6.937 0.087,-3.469 0,0" /></g><g
           transform="translate(614.6885,222.5654)"
           id="g20320"><path
             id="path20322"
             style="fill:#00ffff;fill-opacity:1;fill-rule:nonzero;stroke:none"
             d="M 0,0 C -0.002,0.158 -0.003,0.315 -0.005,0.474 -0.013,0.475 -0.021,0.476 -0.028,0.476 -0.02,0.317 -0.01,0.158 0,0" /></g><g
           transform="translate(614.5049,243.918)"
           id="g20324"><path
             id="path20326"
             style="fill:#00ffff;fill-opacity:1;fill-rule:nonzero;stroke:none"
             d="m 0,0 c -0.012,0.229 -0.023,0.457 -0.034,0.685 -0.08,6.635 -0.158,13.271 -0.238,19.908 -0.681,0.04 -1.36,0.085 -2.037,0.136 0.385,-6.737 0.769,-13.468 1.155,-20.198 0.022,-0.243 0.044,-0.486 0.066,-0.73 0.378,-6.288 0.756,-12.572 1.133,-18.854 0.039,-0.003 0.078,-0.007 0.116,-0.009 -0.027,2.901 -0.055,5.802 -0.083,8.704 C 0.052,-6.905 0.025,-3.453 0,0" /></g><g
           transform="translate(618.0889,222.2783)"
           id="g20328"><path
             id="path20330"
             style="fill:#00ffff;fill-opacity:1;fill-rule:nonzero;stroke:none"
             d="M 0,0 C 0.002,0.19 0.003,0.38 0.005,0.569 -0.005,0.57 -0.015,0.57 -0.024,0.571 -0.017,0.381 -0.008,0.19 0,0" /></g><g
           transform="translate(618.2812,243.5693)"
           id="g20332"><path
             id="path20334"
             style="fill:#00ffff;fill-opacity:1;fill-rule:nonzero;stroke:none"
             d="m 0,0 c -0.008,0.221 -0.016,0.442 -0.023,0.664 0.037,6.698 0.074,13.399 0.111,20.097 -0.646,0.017 -1.291,0.041 -1.935,0.067 L -1.958,20.72 C -1.689,13.987 -1.42,7.257 -1.15,0.527 l 0.052,-0.714 c 0.268,-6.245 0.536,-12.487 0.804,-18.728 0.04,-0.002 0.08,-0.003 0.12,-0.004 0.024,2.86 0.047,5.721 0.07,8.581 C -0.07,-6.892 -0.035,-3.446 0,0" /></g><g
           transform="translate(621.498,222.1836)"
           id="g20336"><path
             id="path20338"
             style="fill:#00ffff;fill-opacity:1;fill-rule:nonzero;stroke:none"
             d="M 0,0 C 0.005,0.199 0.01,0.397 0.016,0.597 0.005,0.597 -0.005,0.596 -0.015,0.596 -0.01,0.397 -0.005,0.198 0,0" /></g><g
           transform="translate(622.0664,243.4521)"
           id="g20340"><path
             id="path20342"
             style="fill:#00ffff;fill-opacity:1;fill-rule:nonzero;stroke:none"
             d="m 0,0 c -0.004,0.216 -0.008,0.432 -0.012,0.646 0.155,6.69 0.309,13.379 0.464,20.069 -0.045,0.036 -0.091,0.074 -0.136,0.11 -0.055,0 -0.111,-10e-4 -0.167,-10e-4 -0.543,0 -1.086,0.005 -1.63,0.011 -0.039,-0.028 -0.076,-0.059 -0.114,-0.088 0.151,-6.74 0.302,-13.479 0.452,-20.219 0.014,-0.232 0.028,-0.465 0.041,-0.698 0.158,-6.235 0.316,-12.469 0.473,-18.702 h 0.024 c 0.033,0 0.065,0.001 0.098,0.001 0.073,2.847 0.147,5.692 0.219,8.539 C -0.192,-6.888 -0.096,-3.444 0,0" /></g><g
           transform="translate(624.9072,222.2783)"
           id="g20344"><path
             id="path20346"
             style="fill:#00ffff;fill-opacity:1;fill-rule:nonzero;stroke:none"
             d="M 0,0 C 0.009,0.191 0.017,0.383 0.024,0.574 0.015,0.573 0.006,0.573 -0.004,0.573 -0.003,0.382 -0.001,0.19 0,0" /></g><g
           transform="translate(625.8496,243.5723)"
           id="g20348"><path
             id="path20350"
             style="fill:#00ffff;fill-opacity:1;fill-rule:nonzero;stroke:none"
             d="m 0,0 c 0,0.21 -0.001,0.419 -0.001,0.629 0.272,6.683 0.544,13.368 0.816,20.055 -0.03,0.03 -0.059,0.061 -0.089,0.091 -0.65,-0.02 -1.3,-0.039 -1.954,-0.049 0.033,-6.733 0.065,-13.464 0.097,-20.196 0.01,-0.228 0.02,-0.457 0.029,-0.684 0.047,-6.256 0.094,-12.51 0.142,-18.766 0.04,0.002 0.081,0.003 0.12,0.005 0.124,2.854 0.247,5.708 0.371,8.563 C -0.312,-6.902 -0.156,-3.451 0,0" /></g><g
           transform="translate(628.3076,222.5654)"
           id="g20352"><path
             id="path20354"
             style="fill:#00ffff;fill-opacity:1;fill-rule:nonzero;stroke:none"
             d="M 0,0 C 0.01,0.16 0.02,0.319 0.029,0.479 0.021,0.479 0.013,0.478 0.005,0.478 0.003,0.318 0.002,0.159 0,0" /></g><g
           transform="translate(629.6201,243.9268)"
           id="g20356"><path
             id="path20358"
             style="fill:#00ffff;fill-opacity:1;fill-rule:nonzero;stroke:none"
             d="M 0,0 C 0.003,0.204 0.007,0.409 0.01,0.613 0.396,7.279 0.783,13.947 1.168,20.621 0.493,20.578 -0.184,20.54 -0.864,20.508 L -1.116,0.533 c 0.005,-0.224 0.01,-0.448 0.014,-0.673 -0.062,-6.308 -0.125,-12.616 -0.188,-18.924 0.04,0.002 0.078,0.006 0.117,0.009 0.176,2.888 0.351,5.775 0.526,8.662 C -0.432,-6.93 -0.216,-3.466 0,0" /></g><g
           transform="translate(631.6914,223.043)"
           id="g20360"><path
             id="path20362"
             style="fill:#00ffff;fill-opacity:1;fill-rule:nonzero;stroke:none"
             d="M 0,0 C 0.009,0.117 0.019,0.235 0.027,0.353 0.021,0.352 0.016,0.351 0.01,0.351 0.006,0.233 0.003,0.117 0,0" /></g><g
           transform="translate(633.3652,244.5176)"
           id="g20364"><path
             id="path20366"
             style="fill:#00ffff;fill-opacity:1;fill-rule:nonzero;stroke:none"
             d="M 0,0 C 0.008,0.199 0.015,0.399 0.021,0.599 0.512,7.177 1.002,13.761 1.49,20.35 0.825,20.287 0.156,20.229 -0.518,20.176 -0.712,13.629 -0.904,7.082 -1.099,0.537 c 10e-4,-0.222 0.002,-0.442 0.003,-0.664 -0.173,-6.389 -0.345,-12.776 -0.518,-19.164 0.037,0.005 0.073,0.01 0.109,0.015 0.228,2.938 0.454,5.878 0.68,8.819 C -0.55,-6.974 -0.274,-3.488 0,0" /></g><g
           transform="translate(635.0488,223.7109)"
           id="g20368"><path
             id="path20370"
             style="fill:#00ffff;fill-opacity:1;fill-rule:nonzero;stroke:none"
             d="M 0,0 C 0.006,0.062 0.012,0.125 0.018,0.187 0.015,0.187 0.011,0.186 0.008,0.186 0.006,0.123 0.003,0.062 0,0" /></g><g
           transform="translate(637.0732,245.3428)"
           id="g20372"><path
             id="path20374"
             style="fill:#00ffff;fill-opacity:1;fill-rule:nonzero;stroke:none"
             d="M 0,0 C 0.011,0.195 0.021,0.392 0.031,0.587 0.614,7.038 1.194,13.499 1.772,19.969 1.121,19.885 0.462,19.807 -0.202,19.732 -0.493,13.334 -0.785,6.937 -1.077,0.543 -1.081,0.325 -1.084,0.107 -1.087,-0.11 c -0.282,-6.494 -0.564,-12.984 -0.849,-19.472 0.036,0.006 0.07,0.013 0.104,0.02 0.28,3.004 0.561,6.01 0.84,9.018 C -0.661,-7.032 -0.33,-3.518 0,0" /></g><g
           transform="translate(640.7334,246.4053)"
           id="g20376"><path
             id="path20378"
             style="fill:#00ffff;fill-opacity:1;fill-rule:nonzero;stroke:none"
             d="M 0,0 0.041,0.574 C 0.7,6.863 1.356,13.167 2.009,19.479 1.373,19.373 0.728,19.273 0.076,19.177 -0.3,12.964 -0.676,6.753 -1.054,0.548 -1.061,0.332 -1.068,0.116 -1.076,-0.1 c -0.39,-6.613 -0.781,-13.22 -1.173,-19.825 0.031,0.008 0.063,0.016 0.096,0.024 0.333,3.081 0.666,6.163 0.997,9.249 C -0.77,-7.105 -0.385,-3.555 0,0" /></g><g
           transform="translate(644.3311,247.7002)"
           id="g20380"><path
             id="path20382"
             style="fill:#00ffff;fill-opacity:1;fill-rule:nonzero;stroke:none"
             d="M 0,0 C 0.018,0.188 0.035,0.378 0.053,0.567 0.771,6.663 1.484,12.779 2.194,18.904 1.576,18.772 0.949,18.646 0.312,18.525 -0.133,12.531 -0.578,6.54 -1.026,0.558 -1.037,0.344 -1.048,0.13 -1.06,-0.084 c -0.493,-6.745 -0.99,-13.481 -1.487,-20.214 0.029,0.009 0.06,0.018 0.089,0.027 0.384,3.16 0.769,6.322 1.15,9.49 C -0.87,-7.192 -0.435,-3.599 0,0" /></g><g
           transform="translate(647.8584,249.2334)"
           id="g20384"><path
             id="path20386"
             style="fill:#00ffff;fill-opacity:1;fill-rule:nonzero;stroke:none"
             d="M 0,0 C 0.02,0.186 0.04,0.371 0.06,0.557 0.821,6.432 1.574,12.333 2.323,18.242 1.727,18.084 1.117,17.93 0.496,17.782 0.001,12.038 -0.495,6.295 -0.996,0.564 -1.011,0.352 -1.025,0.139 -1.04,-0.073 c -0.593,-6.878 -1.19,-13.743 -1.79,-20.602 0.027,0.012 0.056,0.023 0.084,0.033 0.433,3.232 0.866,6.465 1.296,9.706 C -0.965,-7.297 -0.481,-3.651 0,0" /></g><g
           transform="translate(651.2998,251.002)"
           id="g20388"><path
             id="path20390"
             style="fill:#00ffff;fill-opacity:1;fill-rule:nonzero;stroke:none"
             d="M 0,0 C 0.023,0.184 0.047,0.366 0.069,0.55 0.855,6.185 1.628,11.853 2.398,17.524 1.825,17.333 1.237,17.147 0.634,16.968 0.104,11.498 -0.424,6.027 -0.961,0.574 -0.979,0.362 -0.998,0.149 -1.018,-0.063 -1.7,-7.062 -2.39,-14.044 -3.083,-21.014 c 0.027,0.013 0.056,0.027 0.083,0.04 0.476,3.283 0.95,6.569 1.42,9.865 C -1.05,-7.414 -0.523,-3.711 0,0" /></g><g
           transform="translate(654.6465,253.0049)"
           id="g20392"><path
             id="path20394"
             style="fill:#00ffff;fill-opacity:1;fill-rule:nonzero;stroke:none"
             d="M 0,0 C 0.025,0.181 0.051,0.362 0.077,0.544 0.872,5.937 1.648,11.37 2.425,16.805 1.981,16.612 1.531,16.424 1.064,16.242 0.954,16.199 0.834,16.159 0.722,16.117 0.175,10.934 -0.37,5.747 -0.926,0.584 -0.947,0.373 -0.969,0.161 -0.99,-0.051 c -0.76,-7.082 -1.531,-14.14 -2.307,-21.185 0.029,0.018 0.063,0.038 0.091,0.057 0.507,3.284 1.012,6.572 1.511,9.871 C -1.126,-7.549 -0.561,-3.779 0,0" /></g><g
           transform="translate(657.9678,255.7822)"
           id="g20396"><path
             id="path20398"
             style="fill:#00ffff;fill-opacity:1;fill-rule:nonzero;stroke:none"
             d="M 0,0 C 0.797,5.187 1.577,10.404 2.351,15.636 1.82,15.334 1.269,15.041 0.691,14.757 0.116,9.64 -0.454,4.516 -1.041,-0.578 c -0.813,-7.058 -1.642,-14.083 -2.476,-21.096 0.039,0.036 0.082,0.074 0.119,0.108 0.509,3.161 1.017,6.324 1.519,9.501 C -1.246,-8.057 -0.619,-4.035 0,0" /></g><g
           transform="translate(576.9121,290.7031)"
           id="g20400"><path
             id="path20402"
             style="fill:#652d90;fill-opacity:1;fill-rule:nonzero;stroke:none"
             d="m 0,0 c -0.242,-0.315 -0.443,-0.646 -0.634,-0.979 0.551,-0.229 0.94,-0.771 0.94,-1.405 0,-0.458 -0.207,-0.864 -0.529,-1.143 1.125,-1.296 2.582,-2.538 4.315,-3.714 0.266,0.438 0.745,0.734 1.296,0.734 0.84,0 1.52,-0.68 1.52,-1.52 0,-0.296 -0.088,-0.571 -0.234,-0.804 1.764,-0.991 3.722,-1.925 5.848,-2.788 0.236,0.534 0.768,0.909 1.392,0.909 0.839,0 1.521,-0.681 1.521,-1.52 0,-0.165 -0.033,-0.319 -0.081,-0.467 2.157,-0.768 4.449,-1.466 6.837,-2.092 0.191,0.623 0.763,1.078 1.448,1.078 0.84,0 1.522,-0.681 1.522,-1.521 0,-0.096 -0.012,-0.189 -0.028,-0.28 2.349,-0.538 4.776,-1.003 7.253,-1.39 0.103,0.739 0.731,1.31 1.499,1.31 0.84,0 1.521,-0.681 1.521,-1.521 0,-0.075 -0.011,-0.147 -0.022,-0.219 2.766,-0.355 5.579,-0.608 8.398,-0.755 0.051,0.794 0.704,1.425 1.512,1.425 0.84,0 1.52,-0.682 1.52,-1.523 0,-0.006 -10e-4,-0.012 -10e-4,-0.018 2.932,-0.069 5.857,-0.02 8.73,0.167 -10e-4,0.028 -0.008,0.054 -0.008,0.082 0,0.84 0.681,1.52 1.521,1.52 0.782,0 1.419,-0.591 1.505,-1.35 2.776,0.276 5.489,0.685 8.097,1.237 -0.021,0.102 -0.033,0.207 -0.033,0.315 0,0.839 0.681,1.52 1.521,1.52 0.708,0 1.297,-0.484 1.467,-1.139 2.63,0.693 5.13,1.543 7.452,2.567 -0.073,0.177 -0.114,0.37 -0.114,0.573 0,0.84 0.682,1.522 1.522,1.522 0.564,0 1.051,-0.312 1.314,-0.77 2.288,1.228 4.359,2.651 6.156,4.286 -0.308,0.278 -0.506,0.678 -0.506,1.126 0,0.84 0.681,1.522 1.521,1.522 0.434,0 0.821,-0.183 1.099,-0.474 0.333,0.388 0.651,0.787 0.957,1.195 -1.469,2.667 -4.544,4.808 -8.588,5.871 -1.916,-5.647 -10.152,-11.636 -23.297,-12.753 -1.973,-0.167 -3.958,-0.252 -5.901,-0.252 h -0.001 c -16.343,0 -28.229,5.816 -35.323,10.694 -2.497,1.718 -3.922,3.419 -4.717,4.94 C 7.891,4.955 2.674,3.479 0,0" /></g><g
           transform="translate(650.7725,292.8398)"
           id="g20404"><path
             id="path20406"
             style="fill:#652d90;fill-opacity:1;fill-rule:nonzero;stroke:none"
             d="M 0,0 C 1.688,1.025 3.328,2.191 4.907,3.509 4.694,4.058 4.367,4.559 3.927,5.004 2.506,3.369 0.784,1.873 -1.065,0.737 -0.608,0.662 -0.224,0.386 0,0" /></g><g
           transform="translate(645.0244,291.8506)"
           id="g20408"><path
             id="path20410"
             style="fill:#652d90;fill-opacity:1;fill-rule:nonzero;stroke:none"
             d="m 0,0 c 0,0 -0.243,0.012 -0.667,0.032 -0.205,0.003 -0.469,0.02 -0.818,0.09 -0.325,0.067 -0.734,0.102 -1.09,0.226 -0.367,0.119 -0.78,0.209 -1.182,0.376 -0.401,0.167 -0.841,0.307 -1.258,0.52 -0.852,0.393 -1.73,0.854 -2.569,1.369 C -8.612,3.229 -9.592,3.9 -10.46,4.537 -13.201,4.065 -16.554,3.743 -20.811,3.743 h -0.003 c -0.657,0 -1.332,0.008 -2.033,0.024 -8.21,0.187 -13.643,3.048 -18.009,5.347 -3.005,1.582 -5.6,2.949 -8.246,2.949 -0.881,0 -1.739,-0.146 -2.623,-0.445 -1.832,-0.621 -3.19,-1.738 -3.857,-3.108 0.469,-0.862 1.196,-1.757 2.15,-2.662 0.277,0.281 0.66,0.456 1.084,0.456 0.841,0 1.522,-0.681 1.522,-1.522 0,-0.316 -0.097,-0.609 -0.262,-0.852 1.609,-1.159 3.55,-2.296 5.754,-3.361 0.247,0.506 0.762,0.859 1.363,0.859 0.839,0 1.521,-0.682 1.521,-1.522 0,-0.204 -0.042,-0.399 -0.115,-0.577 2.044,-0.847 4.256,-1.619 6.598,-2.287 0.138,0.698 0.752,1.225 1.491,1.225 0.84,0 1.521,-0.681 1.521,-1.521 0,-0.166 -0.033,-0.322 -0.082,-0.472 2.312,-0.544 4.725,-0.971 7.196,-1.264 0.102,0.741 0.732,1.315 1.501,1.315 0.841,0 1.522,-0.681 1.522,-1.521 0,-0.029 -0.007,-0.055 -0.009,-0.083 2.377,-0.165 4.794,-0.183 7.223,-0.049 -0.004,0.044 -0.014,0.087 -0.014,0.132 0,0.84 0.68,1.521 1.52,1.521 0.799,0 1.448,-0.62 1.509,-1.404 2.174,0.243 4.345,0.618 6.492,1.156 -0.02,0.101 -0.032,0.204 -0.032,0.312 0,0.839 0.68,1.521 1.521,1.521 0.654,0 1.207,-0.416 1.421,-0.996 2.14,0.69 4.242,1.557 6.29,2.601 -0.117,0.214 -0.188,0.455 -0.188,0.715 0,0.216 0.046,0.42 0.127,0.606 C 2.784,0.714 2.526,0.589 2.267,0.482 1.581,0.201 0.828,0.039 0.03,0.001 L -0.013,0.9 Z" /></g><g
           transform="translate(630.4092,307.5127)"
           id="g20412"><path
             id="path20414"
             style="fill:#652d90;fill-opacity:1;fill-rule:nonzero;stroke:none"
             d="M 0,0 C 0.61,0.058 1.222,0.096 1.833,0.14 1.841,1.517 1.967,2.896 2.294,4.262 2.5,5.009 2.709,5.759 3.254,6.477 3.398,6.652 3.578,6.835 3.854,6.957 3.915,6.985 4.005,7.014 4.103,7.031 4.225,7.05 4.166,7.042 4.314,7.048 4.477,7.041 4.637,7.002 4.766,6.936 5.286,6.657 5.477,6.256 5.671,5.898 5.675,5.892 5.677,5.884 5.68,5.877 c 0.113,0.077 0.229,0.157 0.34,0.251 0.278,0.215 0.502,0.49 0.668,0.714 0.155,0.226 0.231,0.404 0.231,0.404 0,0 0.038,-0.186 0.039,-0.486 C 6.948,6.469 6.913,6.055 6.789,5.661 6.682,5.258 6.508,4.863 6.354,4.583 6.291,4.473 6.24,4.383 6.196,4.307 6.243,4.091 6.284,3.875 6.32,3.659 6.442,2.908 6.508,2.155 6.537,1.403 6.569,0.651 6.549,-0.097 6.474,-0.846 6.425,-1.598 6.316,-2.33 6.18,-3.063 c 0.002,0.29 0.005,0.58 0.007,0.871 L 6.178,-2.226 C 6.164,-2.521 6.144,-2.805 6.115,-3.077 6.387,-3.225 6.66,-3.368 6.93,-3.521 5.731,-3.102 4.557,-2.631 3.373,-2.179 l -3.513,1.437 -1.447,0.592 z m -16.407,3.729 c -4.259,1.003 -7.614,0.774 -9.868,-0.722 -2.6,-1.725 -3.15,-4.695 -3.267,-5.938 1.337,-0.555 2.693,-1.261 4.14,-2.023 4.418,-2.326 9.424,-4.963 17.212,-5.141 0.686,-0.015 1.347,-0.023 1.991,-0.023 h 0.003 c 3.314,0 6.056,0.203 8.386,0.517 -0.878,0.72 -1.415,1.211 -1.415,1.211 0,0 0.788,-0.569 2.02,-1.339 1.228,-0.772 2.912,-1.732 4.656,-2.523 0.867,-0.404 1.758,-0.745 2.596,-1.019 0.415,-0.155 0.831,-0.233 1.215,-0.344 0.384,-0.112 0.754,-0.143 1.089,-0.212 0.345,-0.077 0.611,-0.049 0.868,-0.08 0.235,-0.032 0.485,-0.022 0.705,10e-4 0.351,0.023 0.569,0.038 0.636,0.043 v 10e-4 c 0.591,0.028 1.143,0.146 1.639,0.349 1.8,0.736 3.596,1.975 5.165,3.428 -0.305,-0.127 -0.632,-0.25 -0.994,-0.361 -0.266,-0.085 -0.549,-0.133 -0.833,-0.203 -0.283,-0.074 -0.575,-0.128 -0.87,-0.163 -0.589,-0.083 -1.182,-0.097 -1.737,-0.105 -0.556,-0.013 -1.076,0.085 -1.515,0.113 -0.436,0.064 -0.789,0.165 -1.041,0.213 -0.25,0.061 -0.393,0.096 -0.393,0.096 0,0 0.04,0 0.072,-0.001 -0.01,0.002 -0.021,0.003 -0.031,0.005 -0.619,0.062 -1.187,0.315 -1.754,0.458 -0.57,0.147 -1.067,0.444 -1.559,0.648 -0.497,0.194 -0.918,0.505 -1.314,0.751 -0.387,0.26 -0.77,0.465 -1.033,0.724 -0.276,0.246 -0.518,0.46 -0.716,0.637 -0.394,0.359 -0.612,0.575 -0.612,0.575 0,0 0.28,-0.124 0.758,-0.36 0.237,-0.121 0.524,-0.268 0.854,-0.437 0.32,-0.195 0.719,-0.295 1.119,-0.481 0.411,-0.16 0.827,-0.37 1.319,-0.501 0.485,-0.131 0.974,-0.338 1.508,-0.442 0.536,-0.098 1.072,-0.267 1.639,-0.315 0.564,-0.069 1.133,-0.168 1.711,-0.154 l 0.864,-0.038 c 0.287,0.013 0.573,0.027 0.857,0.04 0.57,0.008 1.126,0.103 1.67,0.15 0.533,0.108 1.064,0.161 1.554,0.283 0.491,0.111 0.959,0.217 1.385,0.342 0.258,0.071 0.498,0.142 0.726,0.213 0.844,0.974 1.566,1.989 2.111,2.985 -0.224,0.063 -0.396,0.332 -0.476,0.715 -0.964,-0.135 -2.693,-0.325 -4.806,-0.325 -1.223,0 -2.567,0.064 -3.954,0.242 -0.274,-0.398 -0.732,-0.659 -1.253,-0.659 -0.84,0 -1.52,0.681 -1.52,1.52 0,0.841 0.68,1.522 1.52,1.522 0.684,0 1.254,-0.453 1.447,-1.072 3.802,-0.478 7.344,-0.071 8.632,0.117 0.165,0.582 0.483,0.982 0.805,0.945 0.253,-0.028 0.447,-0.319 0.533,-0.738 0.144,0.566 0.211,1.105 0.176,1.599 C 26.11,-0.104 25.196,0.815 23.415,1.264 22.113,1.593 21.58,3.049 20.964,4.735 19.946,7.518 18.68,10.98 13.944,11.611 7.61,12.453 1.525,10.733 -2.336,7.004 V 7.005 C -2.384,6.959 -3.476,5.936 -5.104,4.407 -5.534,4.018 -6.009,3.6 -6.528,3.179 -7.044,2.753 -7.608,2.328 -8.208,1.909 -8.536,1.688 -8.872,1.465 -9.216,1.246 L -9.219,1.24 c -0.001,0.001 -0.003,0.001 -0.004,0.002 -0.29,-0.183 -0.584,-0.364 -0.891,-0.529 -0.662,-0.387 -1.365,-0.722 -2.073,-1.041 -0.71,-0.308 -1.437,-0.583 -2.158,-0.82 -0.731,-0.211 -1.438,-0.453 -2.15,-0.582 -0.703,-0.162 -1.384,-0.302 -2.04,-0.374 -0.652,-0.095 -1.267,-0.185 -1.841,-0.206 -0.571,-0.035 -1.096,-0.067 -1.56,-0.096 -0.464,0.002 -0.87,0.003 -1.203,0.004 -0.666,0.003 -1.046,0.004 -1.046,0.004 0,0 0.38,0.027 1.044,0.073 0.331,0.024 0.734,0.052 1.195,0.085 0.458,0.062 0.973,0.133 1.537,0.21 0.564,0.062 1.165,0.197 1.799,0.337 0.637,0.118 1.295,0.305 1.968,0.514 0.148,0.038 0.294,0.096 0.441,0.142 z" /></g><g
           transform="translate(575.4844,291.7998)"
           id="g20416"><path
             id="path20418"
             style="fill:#652d90;fill-opacity:1;fill-rule:nonzero;stroke:none"
             d="M 0,0 C 0.203,0.264 0.417,0.518 0.641,0.761 -1.501,2.251 -3.411,5.205 -4.708,7.598 -4.339,2.607 -2.687,-0.995 -1.557,-2.933 -1.216,-1.893 -0.699,-0.909 0,0" /></g><g
           transform="translate(644.5166,273.0527)"
           id="g20420"><path
             id="path20422"
             style="fill:#eb008b;fill-opacity:1;fill-rule:nonzero;stroke:none"
             d="m 0,0 c -0.477,0.183 -0.839,0.595 -0.946,1.104 -2.609,-0.552 -5.322,-0.961 -8.098,-1.238 0.006,-0.056 0.017,-0.112 0.017,-0.17 0,-0.574 -0.323,-1.068 -0.792,-1.327 0.051,-1.26 0.099,-3.173 0.007,-4.842 3.4,0.323 6.693,0.787 9.798,1.397 C 0.127,-2.974 0.072,-1.156 0,0" /></g><g
           transform="translate(633.377,271.3477)"
           id="g20424"><path
             id="path20426"
             style="fill:#eb008b;fill-opacity:1;fill-rule:nonzero;stroke:none"
             d="M 0,0 C -0.522,0.221 -0.89,0.726 -0.922,1.319 -3.795,1.133 -6.72,1.083 -9.652,1.152 -9.66,0.539 -10.029,0.015 -10.559,-0.219 c -0.036,-1.304 -0.069,-3.325 0.002,-5.093 3.556,-10e-4 7.102,0.14 10.553,0.427 C 0.099,-3.251 0.052,-1.286 0,0" /></g><g
           transform="translate(654.9102,276.5547)"
           id="g20428"><path
             id="path20430"
             style="fill:#eb008b;fill-opacity:1;fill-rule:nonzero;stroke:none"
             d="m 0,0 c -0.423,0.14 -0.766,0.454 -0.933,0.864 -2.322,-1.023 -4.822,-1.874 -7.452,-2.566 0.032,-0.122 0.055,-0.249 0.055,-0.382 0,-0.555 -0.301,-1.036 -0.745,-1.302 0.073,-1.13 0.13,-2.868 0.011,-4.918 3.264,0.699 6.297,1.562 8.998,2.596 C 0.262,-3.52 0.14,-1.339 0,0" /></g><g
           transform="translate(621.498,271.1807)"
           id="g20432"><path
             id="path20434"
             style="fill:#eb008b;fill-opacity:1;fill-rule:nonzero;stroke:none"
             d="m 0,0 c -0.482,0.255 -0.813,0.755 -0.813,1.338 0,0.033 0.007,0.064 0.009,0.098 -2.819,0.146 -5.632,0.399 -8.398,0.754 -0.081,-0.559 -0.462,-1.016 -0.978,-1.205 -0.102,-1.319 -0.192,-3.449 0.033,-5.629 3.33,-0.294 6.737,-0.46 10.146,-0.495 C -0.071,-3.326 -0.038,-1.305 0,0" /></g><g
           transform="translate(581.3965,281.458)"
           id="g20436"><path
             id="path20438"
             style="fill:#eb008b;fill-opacity:1;fill-rule:nonzero;stroke:none"
             d="m 0,0 c -0.373,0.277 -0.618,0.718 -0.618,1.218 0,0.289 0.085,0.555 0.225,0.786 C -2.125,3.18 -3.582,4.422 -4.707,5.718 -4.975,5.486 -5.318,5.341 -5.7,5.341 c -0.135,0 -0.263,0.023 -0.387,0.055 -0.291,-2.208 0.294,-4.676 1.774,-7.317 0.916,-1.636 2.367,-3.126 4.243,-4.471 C -0.437,-3.803 -0.218,-1.428 0,0" /></g><g
           transform="translate(610.001,272.2988)"
           id="g20440"><path
             id="path20442"
             style="fill:#eb008b;fill-opacity:1;fill-rule:nonzero;stroke:none"
             d="m 0,0 c -0.434,0.268 -0.725,0.743 -0.725,1.291 0,0.072 0.012,0.142 0.022,0.211 C -3.18,1.89 -5.606,2.354 -7.956,2.893 -8.057,2.354 -8.44,1.921 -8.948,1.743 -9.087,0.256 -9.23,-2.223 -8.935,-4.383 -6.068,-4.911 -3.067,-5.329 0.01,-5.636 -0.195,-3.42 -0.104,-1.318 0,0" /></g><g
           transform="translate(599.7373,274.1904)"
           id="g20444"><path
             id="path20446"
             style="fill:#eb008b;fill-opacity:1;fill-rule:nonzero;stroke:none"
             d="m 0,0 c -0.424,0.27 -0.707,0.74 -0.707,1.28 0,0.156 0.03,0.302 0.073,0.444 -2.388,0.626 -4.68,1.324 -6.838,2.091 -0.152,-0.469 -0.523,-0.836 -0.995,-0.98 -0.188,-1.506 -0.38,-4.102 0.057,-6.697 2.581,-0.839 5.395,-1.556 8.375,-2.151 C -0.279,-3.815 -0.139,-1.449 0,0" /></g><g
           transform="translate(589.959,277.2236)"
           id="g20448"><path
             id="path20450"
             style="fill:#eb008b;fill-opacity:1;fill-rule:nonzero;stroke:none"
             d="m 0,0 c -0.395,0.275 -0.654,0.731 -0.654,1.249 0,0.218 0.047,0.424 0.13,0.611 C -2.65,2.724 -4.609,3.657 -6.373,4.648 -6.572,4.329 -6.887,4.094 -7.258,3.991 -7.49,2.427 -7.72,-0.341 -7.106,-3.164 -5.095,-4.386 -2.709,-5.472 -0.037,-6.418 -0.37,-3.873 -0.187,-1.453 0,0" /></g><g
           transform="translate(664.9687,285.2041)"
           id="g20452"><path
             id="path20454"
             style="fill:#eb008b;fill-opacity:1;fill-rule:nonzero;stroke:none"
             d="m 0,0 c 0.26,-0.272 0.422,-0.641 0.422,-1.048 0,-0.445 -0.194,-0.842 -0.499,-1.12 0.26,-1.103 0.524,-2.817 0.402,-4.975 1.155,1.686 1.706,3.47 1.568,5.272 C 1.811,-0.798 1.487,0.232 0.957,1.195 0.651,0.787 0.333,0.388 0,0" /></g><g
           transform="translate(663.6211,282.6611)"
           id="g20456"><path
             id="path20458"
             style="fill:#eb008b;fill-opacity:1;fill-rule:nonzero;stroke:none"
             d="m 0,0 c -0.293,0.048 -0.555,0.18 -0.766,0.369 -1.797,-1.635 -3.868,-3.058 -6.156,-4.286 0.127,-0.223 0.206,-0.477 0.206,-0.752 0,-0.529 -0.271,-0.995 -0.681,-1.268 0.133,-1.257 0.252,-3.222 0.026,-5.306 3.173,1.364 5.713,3.012 7.516,4.824 C 0.602,-3.572 0.299,-1.309 0,0" /></g><g
           transform="translate(650.7725,292.8398)"
           id="g20460"><path
             id="path20462"
             style="fill:#eb008b;fill-opacity:1;fill-rule:nonzero;stroke:none"
             d="M 0,0 C 0.13,-0.225 0.21,-0.481 0.21,-0.759 0.21,-1.207 0.013,-1.605 -0.296,-1.884 0.005,-2.817 0.366,-4.14 0.56,-5.571 3.097,-3.689 4.869,-1.389 5.181,1.311 5.272,2.11 5.166,2.841 4.907,3.509 3.328,2.191 1.688,1.025 0,0" /></g><g
           transform="translate(649.2041,290.5869)"
           id="g20464"><path
             id="path20466"
             style="fill:#eb008b;fill-opacity:1;fill-rule:nonzero;stroke:none"
             d="m 0,0 c -0.469,0.08 -0.859,0.374 -1.077,0.778 -2.048,-1.044 -4.15,-1.91 -6.289,-2.6 0.06,-0.164 0.098,-0.34 0.098,-0.526 0,-0.487 -0.232,-0.915 -0.587,-1.193 0.207,-1.076 0.458,-2.651 0.519,-4.207 2.942,0.863 5.835,2.062 8.23,3.581 C 0.752,-2.571 0.332,-1.025 0,0" /></g><g
           transform="translate(591.1553,296.6328)"
           id="g20468"><path
             id="path20470"
             style="fill:#eb008b;fill-opacity:1;fill-rule:nonzero;stroke:none"
             d="M 0,0 C 0,0.415 0.167,0.791 0.437,1.065 -0.517,1.971 -1.244,2.866 -1.713,3.728 -1.921,3.3 -2.065,2.85 -2.131,2.38 c -0.247,-1.785 0.566,-3.66 2.29,-5.45 0.077,0.739 0.212,1.4 0.346,1.947 C 0.197,-0.846 0,-0.447 0,0" /></g><g
           transform="translate(600.1064,290.5752)"
           id="g20472"><path
             id="path20474"
             style="fill:#eb008b;fill-opacity:1;fill-rule:nonzero;stroke:none"
             d="m 0,0 c -0.348,0.278 -0.574,0.701 -0.574,1.182 0,0.238 0.059,0.462 0.158,0.663 C -2.62,2.909 -4.562,4.047 -6.17,5.205 -6.397,4.869 -6.759,4.633 -7.176,4.562 -7.354,3.821 -7.523,2.841 -7.528,1.814 -7.138,1.495 -6.72,1.179 -6.269,0.868 -4.556,-0.31 -2.553,-1.545 -0.268,-2.734 -0.261,-1.699 -0.135,-0.733 0,0" /></g><g
           transform="translate(629.4199,286.5225)"
           id="g20476"><path
             id="path20478"
             style="fill:#eb008b;fill-opacity:1;fill-rule:nonzero;stroke:none"
             d="m 0,0 c -2.429,-0.134 -4.846,-0.116 -7.223,0.049 -0.034,-0.628 -0.447,-1.151 -1.018,-1.348 -0.104,-0.98 -0.225,-2.37 -0.256,-3.744 2.299,-0.258 4.696,-0.413 7.216,-0.413 h 10e-4 c 0.869,0 1.748,0.022 2.63,0.057 -0.046,1.285 -0.211,2.95 -0.339,4.101 C 0.456,-1.105 0.053,-0.605 0,0" /></g><g
           transform="translate(619.1631,286.6543)"
           id="g20480"><path
             id="path20482"
             style="fill:#eb008b;fill-opacity:1;fill-rule:nonzero;stroke:none"
             d="M 0,0 C 0,0.07 0.012,0.138 0.021,0.206 -2.451,0.499 -4.863,0.927 -7.176,1.471 -7.331,0.998 -7.707,0.632 -8.185,0.49 -8.318,-0.487 -8.445,-1.869 -8.36,-3.177 -5.642,-3.96 -2.714,-4.605 0.442,-5.026 0.479,-3.632 0.599,-2.254 0.703,-1.277 0.281,-1.007 0,-0.537 0,0" /></g><g
           transform="translate(609.6709,287.3574)"
           id="g20484"><path
             id="path20486"
             style="fill:#eb008b;fill-opacity:1;fill-rule:nonzero;stroke:none"
             d="m 0,0 c -0.388,0.275 -0.644,0.727 -0.644,1.239 0,0.102 0.011,0.2 0.031,0.296 C -2.955,2.203 -5.167,2.976 -7.212,3.822 -7.396,3.373 -7.79,3.034 -8.271,2.921 -8.42,2.094 -8.55,0.971 -8.487,-0.188 -6.025,-1.392 -3.267,-2.525 -0.21,-3.483 -0.25,-2.199 -0.127,-0.924 0,0" /></g><g
           transform="translate(640.0547,286.7666)"
           id="g20488"><path
             id="path20490"
             style="fill:#eb008b;fill-opacity:1;fill-rule:nonzero;stroke:none"
             d="M 0,0 C -0.565,0.138 -1.008,0.588 -1.127,1.161 -3.274,0.623 -5.445,0.248 -7.619,0.005 c 0.003,-0.039 0.012,-0.077 0.012,-0.117 0,-0.538 -0.282,-1.008 -0.705,-1.278 0.13,-1.161 0.296,-2.84 0.345,-4.179 0.601,0.035 1.201,0.064 1.801,0.115 2.069,0.176 4.365,0.568 6.671,1.166 C 0.471,-2.742 0.212,-1.104 0,0" /></g><g
           transform="translate(591.2705,277.0254)"
           id="g20492"><path
             id="path20494"
             style="fill:#00adee;fill-opacity:1;fill-rule:nonzero;stroke:none"
             d="m 0,0 c 0.472,0.145 0.843,0.511 0.995,0.98 0.049,0.149 0.081,0.303 0.081,0.467 0,0.84 -0.681,1.521 -1.52,1.521 -0.624,0 -1.157,-0.375 -1.392,-0.909 -0.083,-0.188 -0.13,-0.394 -0.13,-0.612 0,-0.517 0.26,-0.973 0.654,-1.249 -0.186,-1.453 -0.37,-3.873 -0.037,-6.418 0.46,-0.163 0.928,-0.323 1.406,-0.477 C -0.38,-4.102 -0.188,-1.506 0,0" /></g><g
           transform="translate(582.7012,281.2148)"
           id="g20496"><path
             id="path20498"
             style="fill:#00adee;fill-opacity:1;fill-rule:nonzero;stroke:none"
             d="m 0,0 c 0.371,0.103 0.686,0.338 0.885,0.657 0.146,0.234 0.234,0.508 0.234,0.804 0,0.84 -0.681,1.52 -1.52,1.52 -0.551,0 -1.03,-0.295 -1.296,-0.734 -0.141,-0.23 -0.226,-0.497 -0.226,-0.786 0,-0.5 0.245,-0.94 0.618,-1.218 -0.217,-1.428 -0.436,-3.803 -0.07,-6.391 0.481,-0.346 0.99,-0.682 1.526,-1.007 C -0.462,-4.332 -0.232,-1.564 0,0" /></g><g
           transform="translate(648.127,291.3652)"
           id="g20500"><path
             id="path20502"
             style="fill:#00adee;fill-opacity:1;fill-rule:nonzero;stroke:none"
             d="M 0,0 C 0.218,-0.404 0.608,-0.698 1.077,-0.778 1.409,-1.804 1.829,-3.35 1.971,-4.945 2.4,-4.673 2.811,-4.39 3.205,-4.097 3.012,-2.665 2.65,-1.343 2.35,-0.409 2.658,-0.131 2.855,0.268 2.855,0.716 2.855,0.993 2.775,1.25 2.646,1.475 2.422,1.86 2.037,2.137 1.58,2.212 1.042,1.881 0.494,1.585 -0.061,1.321 -0.142,1.136 -0.187,0.932 -0.187,0.716 -0.187,0.455 -0.116,0.214 0,0" /></g><g
           transform="translate(576.6895,287.1758)"
           id="g20504"><path
             id="path20506"
             style="fill:#00adee;fill-opacity:1;fill-rule:nonzero;stroke:none"
             d="m 0,0 c 0.321,0.279 0.528,0.686 0.528,1.144 0,0.633 -0.388,1.175 -0.939,1.404 -0.509,-0.895 -0.835,-1.853 -0.969,-2.869 0.124,-0.033 0.252,-0.056 0.387,-0.056 0.382,0 0.725,0.146 0.993,0.377" /></g><g
           transform="translate(641.3486,287.0459)"
           id="g20508"><path
             id="path20510"
             style="fill:#00adee;fill-opacity:1;fill-rule:nonzero;stroke:none"
             d="m 0,0 c 0.355,0.278 0.588,0.706 0.588,1.193 0,0.186 -0.038,0.362 -0.099,0.526 -0.215,0.58 -0.767,0.996 -1.422,0.996 -0.84,0 -1.52,-0.683 -1.52,-1.522 0,-0.107 0.012,-0.211 0.032,-0.311 0.119,-0.573 0.562,-1.024 1.127,-1.161 0.212,-1.105 0.471,-2.742 0.505,-4.288 0.436,0.113 0.873,0.232 1.309,0.36 C 0.458,-2.651 0.207,-1.076 0,0" /></g><g
           transform="translate(664.8916,283.0361)"
           id="g20512"><path
             id="path20514"
             style="fill:#00adee;fill-opacity:1;fill-rule:nonzero;stroke:none"
             d="m 0,0 c 0.305,0.278 0.499,0.675 0.499,1.12 0,0.407 -0.162,0.776 -0.422,1.048 -0.277,0.291 -0.665,0.474 -1.098,0.474 -0.84,0 -1.522,-0.682 -1.522,-1.522 0,-0.448 0.198,-0.848 0.507,-1.126 0.211,-0.189 0.473,-0.321 0.765,-0.369 0.299,-1.309 0.602,-3.572 0.145,-6.419 0.587,0.591 1.103,1.197 1.528,1.819 C 0.524,-2.817 0.26,-1.103 0,0" /></g><g
           transform="translate(656.2236,276.7246)"
           id="g20516"><path
             id="path20518"
             style="fill:#00adee;fill-opacity:1;fill-rule:nonzero;stroke:none"
             d="m 0,0 c 0.41,0.272 0.682,0.738 0.682,1.268 0,0.275 -0.079,0.529 -0.206,0.752 -0.263,0.458 -0.75,0.769 -1.315,0.769 -0.84,0 -1.521,-0.682 -1.521,-1.521 0,-0.204 0.041,-0.397 0.114,-0.574 0.167,-0.41 0.51,-0.724 0.933,-0.864 0.139,-1.339 0.261,-3.519 -0.067,-5.708 0.07,0.026 0.145,0.053 0.215,0.08 0.408,0.158 0.802,0.324 1.191,0.491 C 0.253,-3.223 0.134,-1.258 0,0" /></g><g
           transform="translate(645.835,273.1689)"
           id="g20520"><path
             id="path20522"
             style="fill:#00adee;fill-opacity:1;fill-rule:nonzero;stroke:none"
             d="m 0,0 c 0.444,0.266 0.745,0.747 0.745,1.302 0,0.133 -0.022,0.26 -0.055,0.382 -0.169,0.654 -0.759,1.138 -1.467,1.138 -0.84,0 -1.521,-0.68 -1.521,-1.52 0,-0.108 0.012,-0.213 0.033,-0.315 0.108,-0.508 0.47,-0.921 0.947,-1.103 0.072,-1.156 0.127,-2.974 -0.014,-5.076 0.452,0.088 0.899,0.179 1.343,0.274 C 0.13,-2.868 0.073,-1.13 0,0" /></g><g
           transform="translate(611.3184,272.166)"
           id="g20524"><path
             id="path20526"
             style="fill:#00adee;fill-opacity:1;fill-rule:nonzero;stroke:none"
             d="M 0,0 C 0.516,0.188 0.896,0.646 0.978,1.205 0.988,1.277 1,1.349 1,1.424 c 0,0.84 -0.682,1.521 -1.521,1.521 -0.768,0 -1.396,-0.571 -1.5,-1.31 -0.009,-0.07 -0.021,-0.139 -0.021,-0.211 0,-0.548 0.291,-1.024 0.725,-1.291 -0.105,-1.319 -0.196,-3.42 0.009,-5.636 0.446,-0.044 0.892,-0.086 1.34,-0.126 C -0.192,-3.449 -0.103,-1.319 0,0" /></g><g
           transform="translate(601.0527,274.042)"
           id="g20528"><path
             id="path20530"
             style="fill:#00adee;fill-opacity:1;fill-rule:nonzero;stroke:none"
             d="M 0,0 C 0.508,0.178 0.892,0.611 0.992,1.149 1.009,1.24 1.021,1.333 1.021,1.429 1.021,2.27 0.339,2.95 -0.502,2.95 -1.187,2.95 -1.759,2.495 -1.949,1.872 -1.992,1.73 -2.022,1.584 -2.022,1.429 c 0,-0.54 0.283,-1.011 0.707,-1.281 -0.139,-1.449 -0.28,-3.815 -0.036,-6.012 0.452,-0.091 0.907,-0.178 1.365,-0.262 C -0.282,-3.966 -0.139,-1.487 0,0" /></g><g
           transform="translate(610.9785,287.1445)"
           id="g20532"><path
             id="path20534"
             style="fill:#00adee;fill-opacity:1;fill-rule:nonzero;stroke:none"
             d="m 0,0 c 0.478,0.142 0.854,0.508 1.009,0.98 0.049,0.15 0.082,0.306 0.082,0.472 0,0.84 -0.681,1.521 -1.521,1.521 -0.739,0 -1.353,-0.527 -1.491,-1.225 -0.019,-0.096 -0.03,-0.194 -0.03,-0.296 0,-0.513 0.256,-0.964 0.643,-1.239 -0.127,-0.924 -0.25,-2.199 -0.21,-3.484 0.44,-0.137 0.89,-0.266 1.342,-0.396 C -0.261,-2.359 -0.134,-0.978 0,0" /></g><g
           transform="translate(601.4004,290.2783)"
           id="g20536"><path
             id="path20538"
             style="fill:#00adee;fill-opacity:1;fill-rule:nonzero;stroke:none"
             d="M 0,0 C 0.48,0.113 0.874,0.452 1.059,0.901 1.132,1.079 1.174,1.274 1.174,1.479 1.174,2.318 0.492,3 -0.347,3 -0.948,3 -1.463,2.647 -1.71,2.142 -1.809,1.94 -1.868,1.717 -1.868,1.479 c 0,-0.481 0.226,-0.904 0.574,-1.182 -0.135,-0.734 -0.261,-1.699 -0.268,-2.735 0.435,-0.226 0.889,-0.449 1.345,-0.671 C -0.279,-1.95 -0.149,-0.827 0,0" /></g><g
           transform="translate(592.9307,295.1377)"
           id="g20540"><path
             id="path20542"
             style="fill:#00adee;fill-opacity:1;fill-rule:nonzero;stroke:none"
             d="m 0,0 c 0.417,0.07 0.778,0.307 1.006,0.643 0.165,0.243 0.262,0.536 0.262,0.852 0,0.841 -0.681,1.522 -1.522,1.522 -0.425,0 -0.808,-0.175 -1.084,-0.456 -0.27,-0.275 -0.437,-0.651 -0.437,-1.066 0,-0.447 0.197,-0.846 0.504,-1.123 -0.133,-0.547 -0.268,-1.208 -0.345,-1.947 0.381,-0.396 0.793,-0.787 1.263,-1.173 C -0.348,-1.722 -0.178,-0.741 0,0" /></g><g
           transform="translate(622.1973,286.5713)"
           id="g20544"><path
             id="path20546"
             style="fill:#00adee;fill-opacity:1;fill-rule:nonzero;stroke:none"
             d="m 0,0 c 0.002,0.028 0.009,0.055 0.009,0.083 0,0.84 -0.681,1.521 -1.522,1.521 -0.769,0 -1.399,-0.574 -1.501,-1.315 -0.008,-0.068 -0.02,-0.136 -0.02,-0.206 0,-0.537 0.281,-1.007 0.703,-1.277 -0.105,-0.977 -0.225,-2.355 -0.261,-3.749 0.432,-0.058 0.878,-0.099 1.318,-0.149 0.031,1.374 0.152,2.764 0.255,3.744 C -0.447,-1.15 -0.034,-0.628 0,0" /></g><g
           transform="translate(631.7432,285.377)"
           id="g20548"><path
             id="path20550"
             style="fill:#00adee;fill-opacity:1;fill-rule:nonzero;stroke:none"
             d="m 0,0 c 0.423,0.27 0.704,0.739 0.704,1.277 0,0.04 -0.009,0.078 -0.012,0.118 -0.061,0.784 -0.71,1.404 -1.508,1.404 -0.84,0 -1.521,-0.682 -1.521,-1.522 0,-0.045 0.01,-0.088 0.014,-0.131 0.052,-0.606 0.456,-1.106 1.011,-1.298 0.127,-1.152 0.292,-2.817 0.338,-4.102 0.44,0.018 0.878,0.049 1.319,0.074 C 0.296,-2.841 0.13,-1.161 0,0" /></g><g
           transform="translate(634.6973,271.4219)"
           id="g20552"><path
             id="path20554"
             style="fill:#00adee;fill-opacity:1;fill-rule:nonzero;stroke:none"
             d="m 0,0 c 0.47,0.259 0.792,0.753 0.792,1.327 0,0.058 -0.011,0.113 -0.017,0.17 -0.086,0.759 -0.722,1.351 -1.504,1.351 -0.84,0 -1.521,-0.681 -1.521,-1.521 0,-0.028 0.007,-0.054 0.008,-0.082 0.032,-0.594 0.399,-1.099 0.922,-1.319 0.051,-1.286 0.098,-3.251 -0.004,-4.885 0.446,0.037 0.889,0.076 1.332,0.117 C 0.1,-3.173 0.052,-1.26 0,0" /></g><g
           transform="translate(622.8184,271.1289)"
           id="g20556"><path
             id="path20558"
             style="fill:#00adee;fill-opacity:1;fill-rule:nonzero;stroke:none"
             d="m 0,0 c 0.529,0.233 0.898,0.758 0.906,1.371 0,0.006 0.002,0.012 0.002,0.019 0,0.84 -0.68,1.522 -1.52,1.522 -0.808,0 -1.461,-0.631 -1.512,-1.425 -0.002,-0.033 -0.01,-0.064 -0.01,-0.097 0,-0.583 0.331,-1.083 0.814,-1.338 -0.038,-1.305 -0.072,-3.326 -10e-4,-5.139 0.44,-0.005 0.882,-0.007 1.323,-0.007 C -0.069,-3.325 -0.036,-1.305 0,0" /></g><g
           transform="translate(645.0547,291.8516)"
           id="g20560"><path
             id="path20562"
             style="fill:#000000;fill-opacity:1;fill-rule:nonzero;stroke:none"
             d="m 0,0 c 0.798,0.038 1.551,0.2 2.236,0.481 0.26,0.107 0.518,0.232 0.776,0.354 0.554,0.264 1.102,0.56 1.64,0.891 1.85,1.135 3.572,2.631 4.993,4.266 0.44,-0.445 0.767,-0.946 0.98,-1.495 C 10.884,3.829 10.99,3.099 10.898,2.299 10.587,-0.4 8.814,-2.701 6.277,-4.583 5.883,-4.876 5.473,-5.159 5.043,-5.432 2.648,-6.95 -0.244,-8.149 -3.187,-9.013 c -0.435,-0.128 -0.872,-0.247 -1.308,-0.36 -2.306,-0.598 -4.602,-0.99 -6.671,-1.166 -0.6,-0.051 -1.2,-0.08 -1.801,-0.115 -0.44,-0.026 -0.879,-0.057 -1.318,-0.075 -0.882,-0.034 -1.761,-0.056 -2.63,-0.056 h -0.001 c -2.52,0 -4.917,0.155 -7.216,0.413 -0.439,0.05 -0.886,0.091 -1.317,0.148 -3.156,0.421 -6.084,1.067 -8.803,1.85 -0.452,0.13 -0.902,0.259 -1.342,0.396 -3.056,0.958 -5.815,2.092 -8.277,3.295 -0.456,0.223 -0.91,0.446 -1.345,0.672 -2.285,1.19 -4.288,2.425 -6.001,3.603 -0.451,0.31 -0.869,0.627 -1.26,0.946 -0.47,0.386 -0.882,0.777 -1.263,1.173 -1.725,1.79 -2.537,3.665 -2.29,5.45 0.065,0.47 0.21,0.92 0.418,1.348 0.667,1.37 2.025,2.487 3.857,3.108 0.884,0.299 1.741,0.445 2.623,0.445 2.646,0 5.24,-1.367 8.245,-2.949 4.366,-2.299 9.8,-5.16 18.01,-5.347 0.701,-0.016 1.376,-0.024 2.032,-0.024 h 0.004 c 4.257,0 7.61,0.322 10.351,0.794 0.868,-0.637 1.847,-1.307 2.876,-1.924 0.839,-0.515 1.717,-0.976 2.569,-1.369 0.417,-0.213 0.857,-0.353 1.258,-0.52 0.401,-0.167 0.814,-0.257 1.182,-0.376 0.356,-0.124 0.765,-0.159 1.089,-0.226 0.35,-0.07 0.614,-0.087 0.819,-0.09 0.424,-0.02 0.667,-0.032 0.667,-0.032 l -0.013,0.9 z m -52.238,-1.893 c 7.093,-4.878 18.979,-10.693 35.322,-10.693 h 0.001 c 1.943,0 3.929,0.085 5.901,0.252 13.146,1.116 21.381,7.105 23.297,12.753 4.044,-1.064 7.119,-3.204 8.588,-5.871 0.53,-0.963 0.854,-1.993 0.936,-3.067 0.138,-1.801 -0.412,-3.585 -1.568,-5.271 -0.426,-0.622 -0.941,-1.229 -1.528,-1.819 -1.803,-1.813 -4.343,-3.46 -7.516,-4.825 -0.389,-0.167 -0.783,-0.333 -1.191,-0.491 -0.07,-0.027 -0.145,-0.054 -0.215,-0.08 -2.7,-1.034 -5.733,-1.897 -8.998,-2.596 -0.443,-0.094 -0.891,-0.186 -1.343,-0.274 -3.105,-0.609 -6.398,-1.074 -9.798,-1.396 -0.442,-0.041 -0.885,-0.081 -1.332,-0.118 -3.451,-0.287 -6.997,-0.428 -10.552,-0.427 -0.442,0 -0.883,0.002 -1.324,0.006 -3.409,0.036 -6.816,0.201 -10.146,0.496 -0.448,0.04 -0.895,0.082 -1.34,0.126 -3.077,0.306 -6.078,0.724 -8.944,1.252 -0.458,0.084 -0.913,0.171 -1.365,0.262 -2.979,0.595 -5.793,1.312 -8.375,2.151 -0.477,0.154 -0.945,0.314 -1.405,0.477 -2.672,0.946 -5.057,2.032 -7.069,3.254 -0.536,0.325 -1.045,0.661 -1.527,1.007 -1.875,1.345 -3.327,2.835 -4.243,4.471 -1.479,2.64 -2.064,5.109 -1.773,7.317 0.134,1.017 0.46,1.975 0.969,2.869 0.19,0.334 0.391,0.664 0.633,0.98 2.674,3.478 7.891,4.955 11.187,4.196 0.796,-1.522 2.221,-3.223 4.718,-4.941 M -68.93,0.709 c -0.223,-0.243 -0.437,-0.497 -0.64,-0.761 -0.7,-0.909 -1.216,-1.892 -1.557,-2.932 -1.13,1.937 -2.782,5.54 -3.151,10.53 1.297,-2.393 3.207,-5.347 5.348,-6.837 M 9.515,-57.636 c -0.036,-0.033 -0.079,-0.071 -0.119,-0.107 -0.623,-0.565 -1.606,-1.37 -3.01,-2.282 -0.029,-0.02 -0.062,-0.039 -0.091,-0.058 -0.86,-0.555 -1.873,-1.145 -3.05,-1.74 -0.027,-0.014 -0.056,-0.028 -0.083,-0.04 -0.931,-0.469 -1.966,-0.939 -3.104,-1.397 -0.029,-0.011 -0.057,-0.021 -0.084,-0.033 -0.975,-0.389 -2.023,-0.769 -3.156,-1.13 -0.029,-0.009 -0.059,-0.017 -0.089,-0.026 -1.002,-0.318 -2.073,-0.617 -3.204,-0.899 -0.032,-0.007 -0.064,-0.015 -0.095,-0.023 -1.028,-0.253 -2.108,-0.487 -3.243,-0.7 -0.035,-0.007 -0.069,-0.014 -0.104,-0.02 -1.045,-0.194 -2.138,-0.367 -3.277,-0.519 -0.036,-0.005 -0.073,-0.01 -0.11,-0.015 -1.058,-0.14 -2.161,-0.257 -3.303,-0.354 -0.039,-0.003 -0.078,-0.007 -0.118,-0.01 -1.069,-0.089 -2.175,-0.158 -3.32,-0.205 -0.039,-0.002 -0.08,-0.003 -0.12,-0.005 -1.079,-0.042 -2.184,-0.071 -3.33,-0.072 -0.033,0 -0.066,0 -0.099,0 h -0.023 c -1.147,0 -2.25,0.028 -3.33,0.07 -0.04,10e-4 -0.08,0.002 -0.12,0.004 -1.145,0.046 -2.251,0.113 -3.322,0.201 -0.038,0.003 -0.077,0.007 -0.116,0.01 -1.141,0.095 -2.244,0.212 -3.303,0.349 -0.037,0.005 -0.073,0.01 -0.11,0.015 -1.14,0.15 -2.232,0.322 -3.278,0.515 -0.034,0.005 -0.068,0.013 -0.102,0.019 -1.137,0.211 -2.217,0.444 -3.245,0.695 l -0.094,0.024 c -1.131,0.278 -2.2,0.577 -3.204,0.892 -0.028,0.009 -0.057,0.018 -0.086,0.027 -1.134,0.358 -2.182,0.735 -3.158,1.123 -0.026,0.011 -0.054,0.02 -0.08,0.031 -1.14,0.455 -2.174,0.923 -3.106,1.389 -0.027,0.012 -0.053,0.025 -0.079,0.038 -1.177,0.593 -2.192,1.18 -3.056,1.732 -0.029,0.019 -0.058,0.037 -0.086,0.055 -1.385,0.894 -2.371,1.69 -3.009,2.262 -0.04,0.036 -0.078,0.07 -0.115,0.104 -0.312,0.284 -0.534,0.509 -0.662,0.645 l -7.466,38.745 c 0.707,-0.512 1.467,-1 2.272,-1.467 0.54,-0.313 1.104,-0.616 1.685,-0.909 0.51,-0.257 1.031,-0.508 1.57,-0.75 0.562,-0.252 1.138,-0.496 1.73,-0.732 0.54,-0.214 1.093,-0.421 1.657,-0.623 0.584,-0.209 1.182,-0.41 1.789,-0.604 0.571,-0.184 1.151,-0.36 1.741,-0.53 0.608,-0.175 1.223,-0.345 1.849,-0.507 0.598,-0.155 1.205,-0.305 1.82,-0.448 0.626,-0.146 1.26,-0.287 1.902,-0.42 0.625,-0.13 1.257,-0.253 1.895,-0.371 0.642,-0.12 1.291,-0.232 1.944,-0.339 0.649,-0.108 1.302,-0.207 1.96,-0.303 0.658,-0.095 1.319,-0.185 1.985,-0.269 0.668,-0.084 1.339,-0.162 2.014,-0.235 0.669,-0.072 1.341,-0.14 2.016,-0.201 0.683,-0.063 1.368,-0.119 2.057,-0.171 0.676,-0.051 1.355,-0.096 2.036,-0.136 0.732,-0.043 1.466,-0.082 2.202,-0.113 0.643,-0.026 1.289,-0.05 1.934,-0.067 0.739,-0.021 1.477,-0.035 2.216,-0.043 0.544,-0.006 1.088,-0.011 1.631,-0.011 0.056,0 0.111,10e-4 0.167,10e-4 0.748,0.001 1.494,0.007 2.239,0.02 0.654,0.011 1.304,0.03 1.954,0.05 0.729,0.024 1.456,0.053 2.18,0.087 0.681,0.032 1.358,0.07 2.032,0.113 0.691,0.043 1.377,0.092 2.06,0.146 0.674,0.053 1.343,0.111 2.008,0.174 0.677,0.064 1.348,0.132 2.015,0.208 0.664,0.074 1.324,0.152 1.975,0.236 0.661,0.086 1.316,0.175 1.964,0.27 0.651,0.097 1.297,0.197 1.932,0.303 0.643,0.109 1.275,0.223 1.901,0.341 0.638,0.12 1.265,0.247 1.883,0.379 0.621,0.132 1.229,0.269 1.829,0.411 0.621,0.148 1.23,0.302 1.827,0.46 0.598,0.159 1.181,0.324 1.752,0.494 0.603,0.18 1.191,0.365 1.765,0.557 0.572,0.192 1.129,0.39 1.669,0.596 0.113,0.042 0.233,0.082 0.343,0.125 0.467,0.181 0.917,0.37 1.361,0.562 0.546,0.236 1.077,0.479 1.587,0.73 0.578,0.284 1.129,0.577 1.66,0.878 0.792,0.451 1.533,0.92 2.218,1.409 L 10.091,-57.07 c -0.117,-0.124 -0.309,-0.318 -0.576,-0.566 m 14.088,49.255 c -0.372,4.839 -4.625,8.913 -10.914,10.552 0.214,2.05 -0.47,3.864 -1.911,5.236 1.702,2.339 2.728,4.816 2.585,6.834 -0.156,2.221 -1.631,3.795 -4.152,4.43 -0.277,0.07 -0.596,0.759 -0.891,1.515 0.012,0.02 0.022,0.037 0.034,0.059 0.154,0.279 0.328,0.674 0.435,1.077 0.124,0.394 0.158,0.808 0.168,1.099 -0.001,0.3 -0.039,0.486 -0.039,0.486 0,0 -0.076,-0.178 -0.23,-0.404 C 8.522,22.279 8.298,22.004 8.02,21.789 7.943,21.725 7.865,21.674 7.787,21.618 c -1.07,2.864 -2.826,6.717 -8.25,7.44 -6.875,0.921 -13.516,-0.989 -17.77,-5.097 l 0.626,-0.648 -0.635,0.64 c 0,0 -1.028,-1.119 -2.57,-2.797 -0.386,-0.407 -0.81,-0.838 -1.275,-1.276 -0.397,-0.382 -0.834,-0.764 -1.292,-1.145 -0.072,-0.06 -0.14,-0.12 -0.214,-0.18 -0.546,-0.429 -1.11,-0.879 -1.726,-1.27 -0.604,-0.416 -1.249,-0.785 -1.905,-1.14 -0.659,-0.347 -1.338,-0.663 -2.018,-0.944 -0.541,-0.2 -1.071,-0.406 -1.605,-0.576 -0.146,-0.047 -0.293,-0.105 -0.44,-0.143 -0.674,-0.209 -1.331,-0.396 -1.969,-0.514 -0.634,-0.14 -1.234,-0.275 -1.799,-0.337 -0.563,-0.077 -1.079,-0.148 -1.537,-0.21 -0.461,-0.033 -0.863,-0.061 -1.194,-0.085 -0.664,-0.046 -1.044,-0.073 -1.044,-0.073 0,0 0.38,-10e-4 1.046,-0.004 0.333,-0.001 0.738,-0.002 1.203,-0.004 0.464,0.029 0.988,0.061 1.56,0.097 0.574,0.02 1.188,0.11 1.84,0.205 0.657,0.072 1.337,0.213 2.04,0.374 0.712,0.129 1.419,0.371 2.151,0.582 0.72,0.237 1.447,0.512 2.158,0.82 0.708,0.319 1.41,0.654 2.072,1.042 0.308,0.164 0.602,0.345 0.892,0.528 10e-4,-10e-4 0.003,-10e-4 0.004,-0.002 l 0.003,0.006 c 0.343,0.219 0.679,0.443 1.007,0.663 0.6,0.419 1.165,0.844 1.68,1.27 0.52,0.421 0.994,0.839 1.424,1.228 1.629,1.529 2.721,2.553 2.769,2.598 v 0 c 3.861,3.728 9.946,5.448 16.28,4.606 4.735,-0.63 6.002,-4.093 7.019,-6.876 0.617,-1.686 1.15,-3.142 2.452,-3.471 1.781,-0.449 2.695,-1.368 2.797,-2.811 0.036,-0.494 -0.032,-1.033 -0.175,-1.598 -0.086,0.419 -0.281,0.709 -0.534,0.737 -0.322,0.037 -0.639,-0.362 -0.804,-0.944 -1.288,-0.189 -4.83,-0.596 -8.632,-0.118 -0.193,0.62 -0.764,1.072 -1.447,1.072 -0.84,0 -1.521,-0.681 -1.521,-1.522 0,-0.839 0.681,-1.52 1.521,-1.52 0.52,0 0.978,0.261 1.253,0.659 1.386,-0.178 2.731,-0.242 3.954,-0.242 2.113,0 3.841,0.19 4.805,0.325 0.08,-0.383 0.252,-0.651 0.477,-0.715 C 9.919,9.252 9.196,8.237 8.353,7.263 8.124,7.192 7.885,7.121 7.627,7.05 7.2,6.925 6.732,6.819 6.241,6.708 5.752,6.586 5.221,6.533 4.687,6.425 4.144,6.378 3.588,6.283 3.018,6.275 2.733,6.262 2.447,6.248 2.16,6.235 L 1.297,6.273 C 0.719,6.259 0.149,6.358 -0.414,6.427 -0.981,6.476 -1.518,6.645 -2.054,6.742 -2.588,6.846 -3.076,7.053 -3.562,7.185 -4.054,7.315 -4.47,7.525 -4.881,7.686 -5.28,7.871 -5.68,7.971 -6,8.166 c -0.329,0.169 -0.616,0.316 -0.854,0.438 -0.477,0.235 -0.757,0.359 -0.757,0.359 0,0 0.217,-0.216 0.611,-0.575 0.198,-0.177 0.44,-0.391 0.717,-0.637 0.262,-0.259 0.645,-0.464 1.032,-0.724 0.397,-0.246 0.817,-0.557 1.314,-0.751 0.493,-0.204 0.99,-0.501 1.559,-0.648 0.567,-0.143 1.136,-0.396 1.755,-0.458 0.01,-0.002 0.02,-0.003 0.03,-0.005 0.158,-0.001 0.666,-0.009 1.394,-0.04 0.435,0.013 0.937,0.004 1.475,0.035 0.54,0.027 1.114,0.064 1.68,0.164 0.287,0.025 0.571,0.066 0.848,0.127 0.276,0.058 0.554,0.094 0.813,0.166 0.52,0.143 1.019,0.24 1.426,0.392 0.417,0.125 0.76,0.245 0.999,0.337 0.243,0.083 0.383,0.13 0.383,0.13 0,0 -0.124,-0.079 -0.343,-0.214 C 7.859,6.134 7.551,5.925 7.141,5.757 7.013,5.695 6.863,5.637 6.719,5.576 5.149,4.123 3.354,2.884 1.554,2.148 1.058,1.945 0.506,1.827 -0.086,1.799 V 1.798 C -0.152,1.793 -0.37,1.778 -0.722,1.755 -0.941,1.732 -1.191,1.722 -1.427,1.754 c -0.257,0.031 -0.522,0.003 -0.868,0.08 -0.335,0.069 -0.704,0.101 -1.089,0.212 -0.384,0.111 -0.8,0.189 -1.215,0.345 -0.838,0.273 -1.728,0.614 -2.595,1.018 -1.744,0.791 -3.428,1.751 -4.657,2.524 -1.231,0.769 -2.019,1.338 -2.019,1.338 0,0 0.536,-0.491 1.415,-1.21 -2.33,-0.315 -5.072,-0.518 -8.387,-0.518 h -0.003 c -0.643,0 -1.304,0.008 -1.991,0.023 -7.787,0.178 -12.794,2.815 -17.212,5.141 -1.446,0.762 -2.803,1.468 -4.14,2.023 0.118,1.243 0.667,4.213 3.267,5.938 2.255,1.497 5.609,1.725 9.868,0.722 l -0.081,1.874 c -4.554,0.997 -8.168,0.64 -10.783,-1.096 -2.947,-1.955 -3.776,-5.085 -4.011,-6.809 -1.051,0.313 -2.107,0.504 -3.204,0.504 -1.081,0 -2.128,-0.177 -3.201,-0.54 -3.063,-1.039 -5.111,-3.25 -5.481,-5.915 -0.086,-0.624 -0.096,-1.456 0.128,-2.424 -3.032,0.302 -6.945,-0.685 -9.877,-3.013 -2.906,1.671 -5.86,7.609 -6.795,9.876 l -1.479,3.583 -0.252,-3.868 c -0.642,-9.85 3.582,-15.926 4.494,-17.116 -0.121,-2.383 0.558,-4.974 2.051,-7.641 0.663,-1.183 1.548,-2.285 2.616,-3.315 l 7.928,-41.147 0.035,0.006 c 0.615,-1.281 6.88,-7.709 21.841,-10.317 0.003,-10e-4 0.006,-10e-4 0.008,-0.002 1.069,-0.185 2.18,-0.353 3.34,-0.497 0.005,-0.001 0.011,-0.002 0.017,-0.002 1.082,-0.135 2.201,-0.25 3.364,-0.342 0.008,0 0.016,-10e-4 0.024,-0.002 1.089,-0.084 2.221,-0.146 3.381,-0.189 0.01,-0.001 0.019,-0.001 0.029,-0.002 1.094,-0.04 2.208,-0.068 3.367,-0.068 h 0.023 c 0.009,0 0.019,0.001 0.03,0.001 1.167,0 2.29,0.029 3.39,0.071 0.009,0 0.018,0 0.028,0.001 1.16,0.044 2.295,0.104 3.381,0.19 0.008,0 0.015,10e-4 0.024,0.002 1.166,0.093 2.281,0.213 3.364,0.349 0.006,0 0.012,0.001 0.018,0.002 1.16,0.145 2.272,0.313 3.338,0.501 0.003,0 0.007,0.001 0.01,0.001 15.497,2.726 21.313,9.534 21.61,9.893 l 0.146,0.177 7.894,40.632 c 2.8,2.645 4.186,5.681 3.941,8.871" /></g><g
           transform="translate(627.4473,315.165)"
           id="g20564"><path
             id="path20566"
             style="fill:#652d90;fill-opacity:1;fill-rule:nonzero;stroke:none"
             d="M 0,0 Z" /></g><g
           transform="translate(636.5967,305.624)"
           id="g20568"><path
             id="path20570"
             style="fill:#ffffff;fill-opacity:1;fill-rule:nonzero;stroke:none"
             d="m 0,0 c -0.003,-0.113 -0.005,-0.227 -0.01,-0.337 l 0.009,0.033 C 0,-0.203 0,-0.101 0,0" /></g><g
           transform="translate(634.8242,310.167)"
           id="g20572"><path
             id="path20574"
             style="fill:#00adee;fill-opacity:1;fill-rule:nonzero;stroke:none"
             d="m 0,0 c -0.447,-0.704 -0.761,-2.296 -0.761,-4.153 0,-0.094 0.006,-0.182 0.008,-0.275 0.149,-0.079 0.297,-0.156 0.445,-0.234 -0.008,0.166 -0.014,0.335 -0.014,0.509 0,1.08 0.164,2.016 0.405,2.537 -0.073,0.263 -0.119,0.626 -0.119,1.026 0,0.211 0.013,0.409 0.036,0.59" /></g><g
           transform="translate(636.5742,306.6748)"
           id="g20576"><path
             id="path20578"
             style="fill:#00adee;fill-opacity:1;fill-rule:nonzero;stroke:none"
             d="m 0,0 c -0.008,0.353 -0.032,0.706 -0.062,1.058 -0.169,1.472 -0.549,2.54 -1.004,2.762 0.056,-0.251 0.092,-0.568 0.092,-0.918 0,-0.256 -0.019,-0.492 -0.051,-0.701 0.355,-0.337 0.619,-1.485 0.619,-2.862 0,-0.483 -0.035,-0.932 -0.093,-1.335 0.15,-0.08 0.299,-0.162 0.449,-0.243 0.029,0.272 0.049,0.556 0.063,0.851 0.005,0.111 0.007,0.224 0.009,0.337 C 0.022,-0.699 0.019,-0.348 0,0" /></g><g
           transform="translate(635.5078,310.4946)"
           id="g20580"><path
             id="path20582"
             style="fill:#ffffff;fill-opacity:1;fill-rule:nonzero;stroke:none"
             d="M 0,0 C 0.455,-0.222 0.835,-1.29 1.004,-2.762 0.971,-2.38 0.932,-1.999 0.895,-1.62 0.81,-0.892 0.689,-0.168 0.519,0.535 0.343,1.233 0.13,1.933 -0.183,2.525 -0.333,2.81 -0.553,3.088 -0.711,3.143 -0.746,3.16 -0.77,3.157 -0.791,3.16 -0.813,3.157 -0.884,3.152 -0.86,3.148 -0.853,3.145 -0.853,3.148 -0.875,3.135 -0.94,3.105 -1.038,3.026 -1.125,2.913 -1.483,2.44 -1.711,1.729 -1.878,1.05 -2.22,-0.337 -2.344,-1.799 -2.388,-3.254 L -2.4,-3.681 -2.806,-3.692 c -0.238,-0.007 -0.476,-0.013 -0.715,-0.021 l 2,-0.998 c 0.028,-0.016 0.056,-0.03 0.084,-0.045 -10e-4,0.093 -0.007,0.181 -0.007,0.276 0,1.856 0.313,3.448 0.76,4.152 -0.023,-0.18 -0.036,-0.379 -0.036,-0.589 0,-0.401 0.046,-0.764 0.119,-1.027 0.075,-0.263 0.176,-0.426 0.289,-0.426 0.153,0 0.284,0.306 0.353,0.751 0.032,0.209 0.052,0.446 0.052,0.702 C 0.093,-0.568 0.057,-0.251 0,0" /></g><g
           transform="translate(633.7822,305.3335)"
           id="g20584"><path
             id="path20586"
             style="fill:#000000;fill-opacity:1;fill-rule:nonzero;stroke:none"
             d="m 0,0 c 1.184,-0.452 2.358,-0.922 3.557,-1.341 -0.27,0.152 -0.543,0.296 -0.815,0.443 -0.15,0.081 -0.299,0.163 -0.449,0.243 0.058,0.404 0.093,0.853 0.093,1.336 0,1.377 -0.264,2.525 -0.619,2.861 C 1.697,3.097 1.566,2.791 1.413,2.791 1.301,2.791 1.199,2.954 1.125,3.217 0.884,2.697 0.72,1.76 0.72,0.681 0.72,0.506 0.726,0.337 0.734,0.171 0.586,0.25 0.437,0.327 0.289,0.405 0.261,0.42 0.232,0.435 0.204,0.45 l -2,0.998 c 0.239,0.008 0.478,0.014 0.716,0.021 l 0.405,0.011 0.013,0.427 c 0.044,1.455 0.168,2.917 0.51,4.304 0.167,0.68 0.394,1.39 0.753,1.863 0.086,0.113 0.184,0.193 0.25,0.222 0.022,0.014 0.022,0.01 0.014,0.013 -0.023,0.004 0.047,0.009 0.07,0.012 0.021,-0.003 0.044,0 0.08,-0.017 C 1.173,8.249 1.393,7.971 1.543,7.687 1.855,7.094 2.068,6.394 2.244,5.696 2.415,4.993 2.535,4.27 2.62,3.541 2.657,3.163 2.696,2.781 2.729,2.399 2.76,2.047 2.784,1.694 2.792,1.341 2.811,0.994 2.814,0.643 2.814,0.291 c 0,-0.102 0,-0.203 -10e-4,-0.304 C 2.812,-0.304 2.809,-0.594 2.807,-0.884 2.943,-0.151 3.052,0.582 3.101,1.333 3.176,2.083 3.196,2.83 3.164,3.583 3.135,4.334 3.069,5.087 2.947,5.838 2.911,6.054 2.87,6.271 2.823,6.486 2.867,6.562 2.918,6.652 2.98,6.763 3.135,7.042 3.309,7.437 3.416,7.84 3.54,8.234 3.575,8.648 3.585,8.939 3.584,9.239 3.546,9.425 3.546,9.425 3.546,9.425 3.47,9.247 3.315,9.021 3.149,8.797 2.925,8.522 2.646,8.308 2.536,8.213 2.42,8.133 2.307,8.057 2.304,8.063 2.302,8.071 2.298,8.078 2.104,8.435 1.913,8.836 1.393,9.115 1.264,9.181 1.104,9.22 0.941,9.228 0.793,9.221 0.852,9.229 0.729,9.21 0.632,9.193 0.542,9.165 0.481,9.136 0.205,9.014 0.025,8.831 -0.119,8.656 -0.664,7.938 -0.873,7.188 -1.079,6.441 -1.406,5.076 -1.532,3.696 -1.54,2.319 -2.151,2.275 -2.763,2.237 -3.373,2.179 L -4.96,2.029 -3.513,1.437 Z" /></g><g
           transform="translate(644.7832,296.9219)"
           id="g20588"><path
             id="path20590"
             style="fill:#eb008b;fill-opacity:1;fill-rule:nonzero;stroke:none"
             d="M 0,0 C 0.252,-0.048 0.605,-0.149 1.041,-0.213 1.48,-0.241 2,-0.339 2.556,-0.326 c 0.555,0.008 1.148,0.022 1.737,0.105 0.295,0.034 0.587,0.089 0.87,0.162 0.284,0.071 0.567,0.119 0.833,0.204 0.362,0.111 0.689,0.234 0.994,0.361 0.145,0.06 0.294,0.119 0.422,0.181 0.41,0.167 0.719,0.376 0.942,0.504 0.218,0.136 0.342,0.214 0.342,0.214 0,0 -0.139,-0.047 -0.383,-0.13 C 8.074,1.184 7.731,1.063 7.314,0.938 6.907,0.787 6.408,0.689 5.889,0.547 5.63,0.475 5.352,0.438 5.075,0.381 4.799,0.319 4.515,0.278 4.228,0.254 3.661,0.153 3.088,0.117 2.548,0.09 2.01,0.059 1.508,0.067 1.072,0.055 0.345,0.086 -0.163,0.094 -0.321,0.095 -0.354,0.096 -0.393,0.096 -0.393,0.096 -0.393,0.096 -0.25,0.061 0,0" /></g><g
           transform="translate(616.8994,326.478)"
           id="g20592"><path
             id="path20594"
             style="fill:#ed1c24;fill-opacity:1;fill-rule:nonzero;stroke:none"
             d="m 0,0 c -0.466,0.255 -1.434,0.959 -1.269,2.363 0.217,1.835 1.065,2.266 1.065,4.304 0,0 2.725,-3.866 0.548,-6.644 0,-0.005 0.001,-0.009 0.001,-0.015 0.376,0.118 0.733,0.249 1.069,0.386 2.032,1.423 1.577,5.022 0.555,7.903 -1.188,3.345 -2.806,5.179 -2.806,5.179 0,0 0.108,-3.021 -1.833,-7.121 -1.785,-3.767 0.997,-6.333 2.534,-6.483 0.047,0.012 0.096,0.021 0.141,0.034 C 0.003,-0.063 0.002,-0.031 0,0" /></g><g
           transform="translate(616.8115,329.1514)"
           id="g20596"><path
             id="path20598"
             style="fill:#f15a24;fill-opacity:1;fill-rule:nonzero;stroke:none"
             d="m 0,0 c 0.104,0.015 0.182,-0.051 0.195,-0.145 0.002,-0.013 0.146,-0.986 0.237,-2.505 2.177,2.777 -0.548,6.644 -0.548,6.644 0,-2.038 -0.848,-2.47 -1.065,-4.304 -0.165,-1.404 0.803,-2.108 1.269,-2.363 -0.09,1.503 -0.232,2.465 -0.233,2.477 C -0.159,-0.102 -0.094,-0.014 0,0" /></g><g
           transform="translate(617.0068,329.0063)"
           id="g20600"><path
             id="path20602"
             style="fill:#fbb03b;fill-opacity:1;fill-rule:nonzero;stroke:none"
             d="M 0,0 C -0.014,0.094 -0.091,0.16 -0.195,0.145 -0.289,0.131 -0.354,0.043 -0.34,-0.051 c 0.001,-0.012 0.143,-0.974 0.233,-2.477 0.002,-0.031 0.003,-0.063 0.004,-0.095 0.117,0.033 0.228,0.068 0.34,0.103 0,0.005 -0.001,0.009 -0.001,0.015 C 0.146,-0.986 0.002,-0.013 0,0" /></g><g
           transform="translate(614.002,311.2412)"
           id="g20604"><path
             id="path20606"
             style="fill:#eb008b;fill-opacity:1;fill-rule:nonzero;stroke:none"
             d="m 0,0 0.206,-4.765 c 0.533,0.17 1.064,0.376 1.605,0.576 0.68,0.282 1.359,0.598 2.018,0.944 0.655,0.355 1.301,0.724 1.904,1.14 0.617,0.392 1.181,0.842 1.727,1.27 0.074,0.06 0.142,0.121 0.214,0.181 L 7.406,12.782 C 7.31,12.679 7.207,12.589 7.094,12.533 5.889,11.93 5.651,13.626 4.942,13.221 4.34,12.877 4.427,12.446 4.083,11.5 3.738,10.553 2.877,9.521 2.188,10.553 1.5,11.586 0.295,10.467 0.037,9.09 -0.222,7.713 0.553,6.508 -0.136,5.992 -0.181,5.958 -0.217,5.956 -0.257,5.939 l 0.176,-4.065 z" /></g><g
           transform="translate(614.0391,320.3311)"
           id="g20608"><path
             id="path20610"
             style="fill:#a00d6b;fill-opacity:1;fill-rule:nonzero;stroke:none"
             d="M 0,0 C 0.258,1.377 1.463,2.496 2.151,1.463 2.84,0.431 3.701,1.463 4.046,2.41 4.39,3.356 4.303,3.787 4.905,4.131 5.614,4.537 5.852,2.84 7.057,3.443 7.17,3.5 7.272,3.589 7.369,3.692 8.293,4.681 8.391,7.545 7.144,7.545 6.413,7.545 5.463,7.024 4.274,6.541 3.938,6.404 3.581,6.273 3.205,6.155 3.093,6.12 2.981,6.085 2.865,6.053 2.82,6.04 2.771,6.031 2.725,6.019 2.536,5.97 2.35,5.919 2.151,5.881 -0.085,5.451 -1.291,4.733 -1.205,2.84 c 0.086,-1.893 0.488,-2.237 0.344,-4.131 -0.049,-0.661 0.001,-2.092 0.567,-1.86 0.04,0.017 0.076,0.019 0.121,0.053 C 0.516,-2.582 -0.259,-1.377 0,0" /></g></g></g><text
       id="text20614"
       style="font-variant:normal;font-weight:900;font-stretch:normal;font-size:38.03369904px;font-family:'Gotham Black';-inkscape-font-specification:Gotham-Black;writing-mode:lr-tb;fill:#652d90;fill-opacity:1;fill-rule:nonzero;stroke:none"
       transform="matrix(1,0,0,-1,614.3193,231.0732)"><tspan
         id="tspan20612"
         y="0"
         x="0">1</tspan></text>
</g></svg>
