solid AssimpScene
 facet normal 0.0811587 0.996701 0
  outer loop
  vertex -5.25911 6.64964 1
  vertex -5.25911 6.64964 0
  vertex -5.38044 6.65952 1
  endloop
 endfacet

 facet normal 0.0811587 0.996701 0
  outer loop
  vertex -5.38044 6.65952 1
  vertex -5.25911 6.64964 0
  vertex -5.38044 6.65952 0
  endloop
 endfacet

 facet normal 0.241338 0.970441 0
  outer loop
  vertex -5.38044 6.65952 1
  vertex -5.38044 6.65952 0
  vertex -5.49858 6.6889 1
  endloop
 endfacet

 facet normal 0.241338 0.970441 0
  outer loop
  vertex -5.49858 6.6889 1
  vertex -5.38044 6.65952 0
  vertex -5.49858 6.6889 0
  endloop
 endfacet

 facet normal 0.395159 0.918613 0
  outer loop
  vertex -5.49858 6.6889 1
  vertex -5.49858 6.6889 0
  vertex -5.61041 6.73701 1
  endloop
 endfacet

 facet normal 0.395159 0.918613 0
  outer loop
  vertex -5.61041 6.73701 1
  vertex -5.49858 6.6889 0
  vertex -5.61041 6.73701 0
  endloop
 endfacet

 facet normal 0.538568 0.842582 0
  outer loop
  vertex -5.61041 6.73701 1
  vertex -5.61041 6.73701 0
  vertex -5.71299 6.80257 1
  endloop
 endfacet

 facet normal 0.538568 0.842582 0
  outer loop
  vertex -5.71299 6.80257 1
  vertex -5.61041 6.73701 0
  vertex -5.71299 6.80257 0
  endloop
 endfacet

 facet normal 0.667788 0.744352 0
  outer loop
  vertex -5.71299 6.80257 1
  vertex -5.71299 6.80257 0
  vertex -5.8036 6.88387 1
  endloop
 endfacet

 facet normal 0.667788 0.744352 0
  outer loop
  vertex -5.8036 6.88387 1
  vertex -5.71299 6.80257 0
  vertex -5.8036 6.88387 0
  endloop
 endfacet

 facet normal 0.779413 0.62651 0
  outer loop
  vertex -5.8036 6.88387 1
  vertex -5.8036 6.88387 0
  vertex -5.87987 6.97875 1
  endloop
 endfacet

 facet normal 0.779413 0.62651 0
  outer loop
  vertex -5.87987 6.97875 1
  vertex -5.8036 6.88387 0
  vertex -5.87987 6.97875 0
  endloop
 endfacet

 facet normal 0.870504 0.492162 0
  outer loop
  vertex -5.87987 6.97875 1
  vertex -5.87987 6.97875 0
  vertex -5.93979 7.08472 1
  endloop
 endfacet

 facet normal 0.870504 0.492162 0
  outer loop
  vertex -5.93979 7.08472 1
  vertex -5.87987 6.97875 0
  vertex -5.93979 7.08472 0
  endloop
 endfacet

 facet normal 0.938659 0.344846 0
  outer loop
  vertex -5.93979 7.08472 1
  vertex -5.93979 7.08472 0
  vertex -5.98177 7.199 1
  endloop
 endfacet

 facet normal 0.938659 0.344846 0
  outer loop
  vertex -5.98177 7.199 1
  vertex -5.93979 7.08472 0
  vertex -5.98177 7.199 0
  endloop
 endfacet

 facet normal 0.982084 0.188445 0
  outer loop
  vertex -5.98177 7.199 1
  vertex -5.98177 7.199 0
  vertex -6.00471 7.31855 1
  endloop
 endfacet

 facet normal 0.982084 0.188445 0
  outer loop
  vertex -6.00471 7.31855 1
  vertex -5.98177 7.199 0
  vertex -6.00471 7.31855 0
  endloop
 endfacet

 facet normal 0.999633 0.0270794 0
  outer loop
  vertex -6.00471 7.31855 1
  vertex -6.00471 7.31855 0
  vertex -6.00801 7.44025 1
  endloop
 endfacet

 facet normal 0.999633 0.0270794 0
  outer loop
  vertex -6.00801 7.44025 1
  vertex -6.00471 7.31855 0
  vertex -6.00801 7.44025 0
  endloop
 endfacet

 facet normal 0.990846 -0.135 0
  outer loop
  vertex -6.00801 7.44025 1
  vertex -6.00801 7.44025 0
  vertex -5.99157 7.56087 1
  endloop
 endfacet

 facet normal 0.990846 -0.135 0
  outer loop
  vertex -5.99157 7.56087 1
  vertex -6.00801 7.44025 0
  vertex -5.99157 7.56087 0
  endloop
 endfacet

 facet normal 0.955952 -0.293523 0
  outer loop
  vertex -5.99157 7.56087 1
  vertex -5.99157 7.56087 0
  vertex -5.95584 7.67725 1
  endloop
 endfacet

 facet normal 0.955952 -0.293523 0
  outer loop
  vertex -5.95584 7.67725 1
  vertex -5.99157 7.56087 0
  vertex -5.95584 7.67725 0
  endloop
 endfacet

 facet normal 0.895872 -0.444312 0
  outer loop
  vertex -5.95584 7.67725 1
  vertex -5.95584 7.67725 0
  vertex -5.90175 7.78631 1
  endloop
 endfacet

 facet normal 0.895872 -0.444312 0
  outer loop
  vertex -5.90175 7.78631 1
  vertex -5.95584 7.67725 0
  vertex -5.90175 7.78631 0
  endloop
 endfacet

 facet normal 0.812189 -0.583395 0
  outer loop
  vertex -5.90175 7.78631 1
  vertex -5.90175 7.78631 0
  vertex -5.83073 7.88518 1
  endloop
 endfacet

 facet normal 0.812189 -0.583395 0
  outer loop
  vertex -5.83073 7.88518 1
  vertex -5.90175 7.78631 0
  vertex -5.83073 7.88518 0
  endloop
 endfacet

 facet normal 0.707107 -0.707107 0
  outer loop
  vertex -5.83073 7.88518 1
  vertex -5.83073 7.88518 0
  vertex -5.74465 7.97126 1
  endloop
 endfacet

 facet normal 0.707107 -0.707107 0
  outer loop
  vertex -5.74465 7.97126 1
  vertex -5.83073 7.88518 0
  vertex -5.74465 7.97126 0
  endloop
 endfacet

 facet normal 0.583395 -0.812189 0
  outer loop
  vertex -5.74465 7.97126 1
  vertex -5.74465 7.97126 0
  vertex -5.64577 8.04228 1
  endloop
 endfacet

 facet normal 0.583395 -0.812189 0
  outer loop
  vertex -5.64577 8.04228 1
  vertex -5.74465 7.97126 0
  vertex -5.64577 8.04228 0
  endloop
 endfacet

 facet normal 0.444312 -0.895872 0
  outer loop
  vertex -5.64577 8.04228 1
  vertex -5.64577 8.04228 0
  vertex -5.53671 8.09637 1
  endloop
 endfacet

 facet normal 0.444312 -0.895872 0
  outer loop
  vertex -5.53671 8.09637 1
  vertex -5.64577 8.04228 0
  vertex -5.53671 8.09637 0
  endloop
 endfacet

 facet normal 0.293523 -0.955952 0
  outer loop
  vertex -5.53671 8.09637 1
  vertex -5.53671 8.09637 0
  vertex -5.42034 8.13211 1
  endloop
 endfacet

 facet normal 0.293523 -0.955952 0
  outer loop
  vertex -5.42034 8.13211 1
  vertex -5.53671 8.09637 0
  vertex -5.42034 8.13211 0
  endloop
 endfacet

 facet normal 0.135 -0.990846 0
  outer loop
  vertex -5.42034 8.13211 1
  vertex -5.42034 8.13211 0
  vertex -5.29971 8.14854 1
  endloop
 endfacet

 facet normal 0.135 -0.990846 0
  outer loop
  vertex -5.29971 8.14854 1
  vertex -5.42034 8.13211 0
  vertex -5.29971 8.14854 0
  endloop
 endfacet

 facet normal -0.0270794 -0.999633 0
  outer loop
  vertex -5.29971 8.14854 1
  vertex -5.29971 8.14854 0
  vertex -5.17802 8.14524 1
  endloop
 endfacet

 facet normal -0.0270794 -0.999633 0
  outer loop
  vertex -5.17802 8.14524 1
  vertex -5.29971 8.14854 0
  vertex -5.17802 8.14524 0
  endloop
 endfacet

 facet normal -0.188445 -0.982084 0
  outer loop
  vertex -5.17802 8.14524 1
  vertex -5.17802 8.14524 0
  vertex -5.05846 8.1223 1
  endloop
 endfacet

 facet normal -0.188445 -0.982084 0
  outer loop
  vertex -5.05846 8.1223 1
  vertex -5.17802 8.14524 0
  vertex -5.05846 8.1223 0
  endloop
 endfacet

 facet normal -0.344846 -0.938659 0
  outer loop
  vertex -5.05846 8.1223 1
  vertex -5.05846 8.1223 0
  vertex -4.94419 8.08032 1
  endloop
 endfacet

 facet normal -0.344846 -0.938659 0
  outer loop
  vertex -4.94419 8.08032 1
  vertex -5.05846 8.1223 0
  vertex -4.94419 8.08032 0
  endloop
 endfacet

 facet normal -0.492162 -0.870504 0
  outer loop
  vertex -4.94419 8.08032 1
  vertex -4.94419 8.08032 0
  vertex -4.83822 8.02041 1
  endloop
 endfacet

 facet normal -0.492162 -0.870504 0
  outer loop
  vertex -4.83822 8.02041 1
  vertex -4.94419 8.08032 0
  vertex -4.83822 8.02041 0
  endloop
 endfacet

 facet normal -0.62651 -0.779413 0
  outer loop
  vertex -4.83822 8.02041 1
  vertex -4.83822 8.02041 0
  vertex -4.74333 7.94414 1
  endloop
 endfacet

 facet normal -0.62651 -0.779413 0
  outer loop
  vertex -4.74333 7.94414 1
  vertex -4.83822 8.02041 0
  vertex -4.74333 7.94414 0
  endloop
 endfacet

 facet normal -0.744352 -0.667788 0
  outer loop
  vertex -4.74333 7.94414 1
  vertex -4.74333 7.94414 0
  vertex -4.66204 7.85352 1
  endloop
 endfacet

 facet normal -0.744352 -0.667788 0
  outer loop
  vertex -4.66204 7.85352 1
  vertex -4.74333 7.94414 0
  vertex -4.66204 7.85352 0
  endloop
 endfacet

 facet normal -0.842582 -0.538568 0
  outer loop
  vertex -4.66204 7.85352 1
  vertex -4.66204 7.85352 0
  vertex -4.59647 7.75095 1
  endloop
 endfacet

 facet normal -0.842582 -0.538568 0
  outer loop
  vertex -4.59647 7.75095 1
  vertex -4.66204 7.85352 0
  vertex -4.59647 7.75095 0
  endloop
 endfacet

 facet normal -0.918613 -0.395159 0
  outer loop
  vertex -4.59647 7.75095 1
  vertex -4.59647 7.75095 0
  vertex -4.54837 7.63912 1
  endloop
 endfacet

 facet normal -0.918613 -0.395159 0
  outer loop
  vertex -4.54837 7.63912 1
  vertex -4.59647 7.75095 0
  vertex -4.54837 7.63912 0
  endloop
 endfacet

 facet normal -0.970441 -0.241338 0
  outer loop
  vertex -4.54837 7.63912 1
  vertex -4.54837 7.63912 0
  vertex -4.51899 7.52098 1
  endloop
 endfacet

 facet normal -0.970441 -0.241338 0
  outer loop
  vertex -4.51899 7.52098 1
  vertex -4.54837 7.63912 0
  vertex -4.51899 7.52098 0
  endloop
 endfacet

 facet normal -0.996701 -0.0811587 0
  outer loop
  vertex -4.51899 7.52098 1
  vertex -4.51899 7.52098 0
  vertex -4.50911 7.39964 1
  endloop
 endfacet

 facet normal -0.996701 -0.0811587 0
  outer loop
  vertex -4.50911 7.39964 1
  vertex -4.51899 7.52098 0
  vertex -4.50911 7.39964 0
  endloop
 endfacet

 facet normal 0.997452 0.0713392 0
  outer loop
  vertex -4.25911 7.39964 1
  vertex -4.25911 7.39964 0
  vertex -4.26929 7.54196 1
  endloop
 endfacet

 facet normal 0.997452 0.0713392 0
  outer loop
  vertex -4.26929 7.54196 1
  vertex -4.25911 7.39964 0
  vertex -4.26929 7.54196 0
  endloop
 endfacet

 facet normal 0.977147 0.212565 0
  outer loop
  vertex -4.26929 7.54196 1
  vertex -4.26929 7.54196 0
  vertex -4.29961 7.68137 1
  endloop
 endfacet

 facet normal 0.977147 0.212565 0
  outer loop
  vertex -4.29961 7.68137 1
  vertex -4.26929 7.54196 0
  vertex -4.29961 7.68137 0
  endloop
 endfacet

 facet normal 0.93695 0.349464 0
  outer loop
  vertex -4.29961 7.68137 1
  vertex -4.29961 7.68137 0
  vertex -4.34948 7.81506 1
  endloop
 endfacet

 facet normal 0.93695 0.349464 0
  outer loop
  vertex -4.34948 7.81506 1
  vertex -4.29961 7.68137 0
  vertex -4.34948 7.81506 0
  endloop
 endfacet

 facet normal 0.877679 0.479249 0
  outer loop
  vertex -4.34948 7.81506 1
  vertex -4.34948 7.81506 0
  vertex -4.41785 7.94028 1
  endloop
 endfacet

 facet normal 0.877679 0.479249 0
  outer loop
  vertex -4.41785 7.94028 1
  vertex -4.34948 7.81506 0
  vertex -4.41785 7.94028 0
  endloop
 endfacet

 facet normal 0.800541 0.599278 0
  outer loop
  vertex -4.41785 7.94028 1
  vertex -4.41785 7.94028 0
  vertex -4.50336 8.0545 1
  endloop
 endfacet

 facet normal 0.800541 0.599278 0
  outer loop
  vertex -4.50336 8.0545 1
  vertex -4.41785 7.94028 0
  vertex -4.50336 8.0545 0
  endloop
 endfacet

 facet normal 0.707107 0.707107 0
  outer loop
  vertex -4.50336 8.0545 1
  vertex -4.50336 8.0545 0
  vertex -4.60425 8.15539 1
  endloop
 endfacet

 facet normal 0.707107 0.707107 0
  outer loop
  vertex -4.60425 8.15539 1
  vertex -4.50336 8.0545 0
  vertex -4.60425 8.15539 0
  endloop
 endfacet

 facet normal 0.599278 0.800541 0
  outer loop
  vertex -4.60425 8.15539 1
  vertex -4.60425 8.15539 0
  vertex -4.71847 8.2409 1
  endloop
 endfacet

 facet normal 0.599278 0.800541 0
  outer loop
  vertex -4.71847 8.2409 1
  vertex -4.60425 8.15539 0
  vertex -4.71847 8.2409 0
  endloop
 endfacet

 facet normal 0.479249 0.877679 0
  outer loop
  vertex -4.71847 8.2409 1
  vertex -4.71847 8.2409 0
  vertex -4.84369 8.30927 1
  endloop
 endfacet

 facet normal 0.479249 0.877679 0
  outer loop
  vertex -4.84369 8.30927 1
  vertex -4.71847 8.2409 0
  vertex -4.84369 8.30927 0
  endloop
 endfacet

 facet normal 0.349464 0.93695 0
  outer loop
  vertex -4.84369 8.30927 1
  vertex -4.84369 8.30927 0
  vertex -4.97737 8.35913 1
  endloop
 endfacet

 facet normal 0.349464 0.93695 -1.03462e-16
  outer loop
  vertex -4.97737 8.35913 1
  vertex -4.84369 8.30927 0
  vertex -4.97737 8.35913 0
  endloop
 endfacet

 facet normal 0.212565 0.977147 -1.88796e-16
  outer loop
  vertex -4.97737 8.35913 1
  vertex -4.97737 8.35913 0
  vertex -5.11679 8.38946 1
  endloop
 endfacet

 facet normal 0.212565 0.977147 -1.25864e-16
  outer loop
  vertex -5.11679 8.38946 1
  vertex -4.97737 8.35913 0
  vertex -5.11679 8.38946 0
  endloop
 endfacet

 facet normal 0.0713392 0.997452 0
  outer loop
  vertex -5.11679 8.38946 1
  vertex -5.11679 8.38946 0
  vertex -5.25911 8.39964 1
  endloop
 endfacet

 facet normal 0.0713392 0.997452 0
  outer loop
  vertex -5.25911 8.39964 1
  vertex -5.11679 8.38946 0
  vertex -5.25911 8.39964 0
  endloop
 endfacet

 facet normal -0.0713392 0.997452 0
  outer loop
  vertex -5.25911 8.39964 1
  vertex -5.25911 8.39964 0
  vertex -5.40142 8.38946 1
  endloop
 endfacet

 facet normal -0.0713392 0.997452 0
  outer loop
  vertex -5.40142 8.38946 1
  vertex -5.25911 8.39964 0
  vertex -5.40142 8.38946 0
  endloop
 endfacet

 facet normal -0.212565 0.977147 0
  outer loop
  vertex -5.40142 8.38946 1
  vertex -5.40142 8.38946 0
  vertex -5.54084 8.35913 1
  endloop
 endfacet

 facet normal -0.212565 0.977147 0
  outer loop
  vertex -5.54084 8.35913 1
  vertex -5.40142 8.38946 0
  vertex -5.54084 8.35913 0
  endloop
 endfacet

 facet normal -0.349464 0.93695 0
  outer loop
  vertex -5.54084 8.35913 1
  vertex -5.54084 8.35913 0
  vertex -5.67452 8.30927 1
  endloop
 endfacet

 facet normal -0.349464 0.93695 0
  outer loop
  vertex -5.67452 8.30927 1
  vertex -5.54084 8.35913 0
  vertex -5.67452 8.30927 0
  endloop
 endfacet

 facet normal -0.479249 0.877679 0
  outer loop
  vertex -5.67452 8.30927 1
  vertex -5.67452 8.30927 0
  vertex -5.79975 8.2409 1
  endloop
 endfacet

 facet normal -0.479249 0.877679 0
  outer loop
  vertex -5.79975 8.2409 1
  vertex -5.67452 8.30927 0
  vertex -5.79975 8.2409 0
  endloop
 endfacet

 facet normal -0.599278 0.800541 0
  outer loop
  vertex -5.79975 8.2409 1
  vertex -5.79975 8.2409 0
  vertex -5.91397 8.15539 1
  endloop
 endfacet

 facet normal -0.599278 0.800541 0
  outer loop
  vertex -5.91397 8.15539 1
  vertex -5.79975 8.2409 0
  vertex -5.91397 8.15539 0
  endloop
 endfacet

 facet normal -0.707107 0.707107 0
  outer loop
  vertex -5.91397 8.15539 1
  vertex -5.91397 8.15539 0
  vertex -6.01486 8.0545 1
  endloop
 endfacet

 facet normal -0.707107 0.707107 0
  outer loop
  vertex -6.01486 8.0545 1
  vertex -5.91397 8.15539 0
  vertex -6.01486 8.0545 0
  endloop
 endfacet

 facet normal -0.800541 0.599278 0
  outer loop
  vertex -6.01486 8.0545 1
  vertex -6.01486 8.0545 0
  vertex -6.10036 7.94028 1
  endloop
 endfacet

 facet normal -0.800541 0.599278 0
  outer loop
  vertex -6.10036 7.94028 1
  vertex -6.01486 8.0545 0
  vertex -6.10036 7.94028 0
  endloop
 endfacet

 facet normal -0.877679 0.479249 0
  outer loop
  vertex -6.10036 7.94028 1
  vertex -6.10036 7.94028 0
  vertex -6.16874 7.81506 1
  endloop
 endfacet

 facet normal -0.877679 0.479249 0
  outer loop
  vertex -6.16874 7.81506 1
  vertex -6.10036 7.94028 0
  vertex -6.16874 7.81506 0
  endloop
 endfacet

 facet normal -0.93695 0.349464 0
  outer loop
  vertex -6.16874 7.81506 1
  vertex -6.16874 7.81506 0
  vertex -6.2186 7.68137 1
  endloop
 endfacet

 facet normal -0.93695 0.349464 0
  outer loop
  vertex -6.2186 7.68137 1
  vertex -6.16874 7.81506 0
  vertex -6.2186 7.68137 0
  endloop
 endfacet

 facet normal -0.977147 0.212565 0
  outer loop
  vertex -6.2186 7.68137 1
  vertex -6.2186 7.68137 0
  vertex -6.24893 7.54196 1
  endloop
 endfacet

 facet normal -0.977147 0.212565 0
  outer loop
  vertex -6.24893 7.54196 1
  vertex -6.2186 7.68137 0
  vertex -6.24893 7.54196 0
  endloop
 endfacet

 facet normal -0.997452 0.0713392 0
  outer loop
  vertex -6.24893 7.54196 1
  vertex -6.24893 7.54196 0
  vertex -6.25911 7.39964 1
  endloop
 endfacet

 facet normal -0.997452 0.0713392 0
  outer loop
  vertex -6.25911 7.39964 1
  vertex -6.24893 7.54196 0
  vertex -6.25911 7.39964 0
  endloop
 endfacet

 facet normal -0.997452 -0.0713392 0
  outer loop
  vertex -6.25911 7.39964 1
  vertex -6.25911 7.39964 0
  vertex -6.24893 7.25733 1
  endloop
 endfacet

 facet normal -0.997452 -0.0713392 0
  outer loop
  vertex -6.24893 7.25733 1
  vertex -6.25911 7.39964 0
  vertex -6.24893 7.25733 0
  endloop
 endfacet

 facet normal -0.977147 -0.212565 0
  outer loop
  vertex -6.24893 7.25733 1
  vertex -6.24893 7.25733 0
  vertex -6.2186 7.11791 1
  endloop
 endfacet

 facet normal -0.977147 -0.212565 0
  outer loop
  vertex -6.2186 7.11791 1
  vertex -6.24893 7.25733 0
  vertex -6.2186 7.11791 0
  endloop
 endfacet

 facet normal -0.93695 -0.349464 0
  outer loop
  vertex -6.2186 7.11791 1
  vertex -6.2186 7.11791 0
  vertex -6.16874 6.98423 1
  endloop
 endfacet

 facet normal -0.93695 -0.349464 0
  outer loop
  vertex -6.16874 6.98423 1
  vertex -6.2186 7.11791 0
  vertex -6.16874 6.98423 0
  endloop
 endfacet

 facet normal -0.877679 -0.479249 0
  outer loop
  vertex -6.16874 6.98423 1
  vertex -6.16874 6.98423 0
  vertex -6.10036 6.859 1
  endloop
 endfacet

 facet normal -0.877679 -0.479249 0
  outer loop
  vertex -6.10036 6.859 1
  vertex -6.16874 6.98423 0
  vertex -6.10036 6.859 0
  endloop
 endfacet

 facet normal -0.800541 -0.599278 0
  outer loop
  vertex -6.10036 6.859 1
  vertex -6.10036 6.859 0
  vertex -6.01486 6.74478 1
  endloop
 endfacet

 facet normal -0.800541 -0.599278 0
  outer loop
  vertex -6.01486 6.74478 1
  vertex -6.10036 6.859 0
  vertex -6.01486 6.74478 0
  endloop
 endfacet

 facet normal -0.707107 -0.707107 0
  outer loop
  vertex -6.01486 6.74478 1
  vertex -6.01486 6.74478 0
  vertex -5.91397 6.64389 1
  endloop
 endfacet

 facet normal -0.707107 -0.707107 0
  outer loop
  vertex -5.91397 6.64389 1
  vertex -6.01486 6.74478 0
  vertex -5.91397 6.64389 0
  endloop
 endfacet

 facet normal -0.599278 -0.800541 0
  outer loop
  vertex -5.91397 6.64389 1
  vertex -5.91397 6.64389 0
  vertex -5.79975 6.55839 1
  endloop
 endfacet

 facet normal -0.599278 -0.800541 0
  outer loop
  vertex -5.79975 6.55839 1
  vertex -5.91397 6.64389 0
  vertex -5.79975 6.55839 0
  endloop
 endfacet

 facet normal -0.479249 -0.877679 0
  outer loop
  vertex -5.79975 6.55839 1
  vertex -5.79975 6.55839 0
  vertex -5.67452 6.49001 1
  endloop
 endfacet

 facet normal -0.479249 -0.877679 0
  outer loop
  vertex -5.67452 6.49001 1
  vertex -5.79975 6.55839 0
  vertex -5.67452 6.49001 0
  endloop
 endfacet

 facet normal -0.349464 -0.93695 0
  outer loop
  vertex -5.67452 6.49001 1
  vertex -5.67452 6.49001 0
  vertex -5.54084 6.44015 1
  endloop
 endfacet

 facet normal -0.349464 -0.93695 0
  outer loop
  vertex -5.54084 6.44015 1
  vertex -5.67452 6.49001 0
  vertex -5.54084 6.44015 0
  endloop
 endfacet

 facet normal -0.212565 -0.977147 0
  outer loop
  vertex -5.54084 6.44015 1
  vertex -5.54084 6.44015 0
  vertex -5.40142 6.40982 1
  endloop
 endfacet

 facet normal -0.212565 -0.977147 0
  outer loop
  vertex -5.40142 6.40982 1
  vertex -5.54084 6.44015 0
  vertex -5.40142 6.40982 0
  endloop
 endfacet

 facet normal -0.0713392 -0.997452 0
  outer loop
  vertex -5.40142 6.40982 1
  vertex -5.40142 6.40982 0
  vertex -5.25911 6.39964 1
  endloop
 endfacet

 facet normal -0.0713392 -0.997452 0
  outer loop
  vertex -5.25911 6.39964 1
  vertex -5.40142 6.40982 0
  vertex -5.25911 6.39964 0
  endloop
 endfacet

 facet normal 0 0 1
  outer loop
  vertex -4.25911 7.39964 1
  vertex -4.26929 7.54196 1
  vertex -4.50911 7.39964 1
  endloop
 endfacet

 facet normal 0 0 1
  outer loop
  vertex -4.50911 7.39964 1
  vertex -4.26929 7.54196 1
  vertex -4.51899 7.52098 1
  endloop
 endfacet

 facet normal 0 0 1
  outer loop
  vertex -4.51899 7.52098 1
  vertex -4.26929 7.54196 1
  vertex -4.29961 7.68137 1
  endloop
 endfacet

 facet normal 0 0 1
  outer loop
  vertex -4.51899 7.52098 1
  vertex -4.29961 7.68137 1
  vertex -4.54837 7.63912 1
  endloop
 endfacet

 facet normal 0 0 1
  outer loop
  vertex -4.54837 7.63912 1
  vertex -4.29961 7.68137 1
  vertex -4.34948 7.81506 1
  endloop
 endfacet

 facet normal 0 0 1
  outer loop
  vertex -4.54837 7.63912 1
  vertex -4.34948 7.81506 1
  vertex -4.59647 7.75095 1
  endloop
 endfacet

 facet normal 0 0 1
  outer loop
  vertex -4.59647 7.75095 1
  vertex -4.34948 7.81506 1
  vertex -4.41785 7.94028 1
  endloop
 endfacet

 facet normal 0 0 1
  outer loop
  vertex -4.59647 7.75095 1
  vertex -4.41785 7.94028 1
  vertex -4.66204 7.85352 1
  endloop
 endfacet

 facet normal 0 0 1
  outer loop
  vertex -4.66204 7.85352 1
  vertex -4.41785 7.94028 1
  vertex -4.50336 8.0545 1
  endloop
 endfacet

 facet normal 0 0 1
  outer loop
  vertex -4.66204 7.85352 1
  vertex -4.50336 8.0545 1
  vertex -4.74333 7.94414 1
  endloop
 endfacet

 facet normal 0 0 1
  outer loop
  vertex -4.74333 7.94414 1
  vertex -4.50336 8.0545 1
  vertex -4.60425 8.15539 1
  endloop
 endfacet

 facet normal 0 0 1
  outer loop
  vertex -4.74333 7.94414 1
  vertex -4.60425 8.15539 1
  vertex -4.83822 8.02041 1
  endloop
 endfacet

 facet normal 0 0 1
  outer loop
  vertex -4.83822 8.02041 1
  vertex -4.60425 8.15539 1
  vertex -4.71847 8.2409 1
  endloop
 endfacet

 facet normal 0 0 1
  outer loop
  vertex -4.83822 8.02041 1
  vertex -4.71847 8.2409 1
  vertex -4.94419 8.08032 1
  endloop
 endfacet

 facet normal 0 0 1
  outer loop
  vertex -4.94419 8.08032 1
  vertex -4.71847 8.2409 1
  vertex -4.84369 8.30927 1
  endloop
 endfacet

 facet normal 0 0 1
  outer loop
  vertex -4.94419 8.08032 1
  vertex -4.84369 8.30927 1
  vertex -4.97737 8.35913 1
  endloop
 endfacet

 facet normal 0 0 1
  outer loop
  vertex -4.94419 8.08032 1
  vertex -4.97737 8.35913 1
  vertex -5.05846 8.1223 1
  endloop
 endfacet

 facet normal 0 0 1
  outer loop
  vertex -5.05846 8.1223 1
  vertex -4.97737 8.35913 1
  vertex -5.11679 8.38946 1
  endloop
 endfacet

 facet normal 0 0 1
  outer loop
  vertex -5.05846 8.1223 1
  vertex -5.11679 8.38946 1
  vertex -5.17802 8.14524 1
  endloop
 endfacet

 facet normal 0 0 1
  outer loop
  vertex -5.17802 8.14524 1
  vertex -5.11679 8.38946 1
  vertex -5.25911 8.39964 1
  endloop
 endfacet

 facet normal 0 0 1
  outer loop
  vertex -5.17802 8.14524 1
  vertex -5.25911 8.39964 1
  vertex -5.29971 8.14854 1
  endloop
 endfacet

 facet normal 0 0 1
  outer loop
  vertex -5.29971 8.14854 1
  vertex -5.25911 8.39964 1
  vertex -5.40142 8.38946 1
  endloop
 endfacet

 facet normal 0 0 1
  outer loop
  vertex -5.29971 8.14854 1
  vertex -5.40142 8.38946 1
  vertex -5.42034 8.13211 1
  endloop
 endfacet

 facet normal 0 0 1
  outer loop
  vertex -5.42034 8.13211 1
  vertex -5.40142 8.38946 1
  vertex -5.54084 8.35913 1
  endloop
 endfacet

 facet normal 0 0 1
  outer loop
  vertex -5.42034 8.13211 1
  vertex -5.54084 8.35913 1
  vertex -5.53671 8.09637 1
  endloop
 endfacet

 facet normal 0 0 1
  outer loop
  vertex -5.53671 8.09637 1
  vertex -5.54084 8.35913 1
  vertex -5.67452 8.30927 1
  endloop
 endfacet

 facet normal 0 0 1
  outer loop
  vertex -5.53671 8.09637 1
  vertex -5.67452 8.30927 1
  vertex -5.64577 8.04228 1
  endloop
 endfacet

 facet normal 0 0 1
  outer loop
  vertex -5.64577 8.04228 1
  vertex -5.67452 8.30927 1
  vertex -5.79975 8.2409 1
  endloop
 endfacet

 facet normal 0 0 1
  outer loop
  vertex -5.64577 8.04228 1
  vertex -5.79975 8.2409 1
  vertex -5.74465 7.97126 1
  endloop
 endfacet

 facet normal 0 0 1
  outer loop
  vertex -5.74465 7.97126 1
  vertex -5.79975 8.2409 1
  vertex -5.91397 8.15539 1
  endloop
 endfacet

 facet normal 0 0 1
  outer loop
  vertex -5.74465 7.97126 1
  vertex -5.91397 8.15539 1
  vertex -6.01486 8.0545 1
  endloop
 endfacet

 facet normal 0 0 1
  outer loop
  vertex -5.74465 7.97126 1
  vertex -6.01486 8.0545 1
  vertex -5.83073 7.88518 1
  endloop
 endfacet

 facet normal 0 0 1
  outer loop
  vertex -5.83073 7.88518 1
  vertex -6.01486 8.0545 1
  vertex -6.10036 7.94028 1
  endloop
 endfacet

 facet normal 0 0 1
  outer loop
  vertex -5.83073 7.88518 1
  vertex -6.10036 7.94028 1
  vertex -5.90175 7.78631 1
  endloop
 endfacet

 facet normal 0 0 1
  outer loop
  vertex -5.90175 7.78631 1
  vertex -6.10036 7.94028 1
  vertex -6.16874 7.81506 1
  endloop
 endfacet

 facet normal 0 0 1
  outer loop
  vertex -5.90175 7.78631 1
  vertex -6.16874 7.81506 1
  vertex -5.95584 7.67725 1
  endloop
 endfacet

 facet normal 0 0 1
  outer loop
  vertex -5.95584 7.67725 1
  vertex -6.16874 7.81506 1
  vertex -6.2186 7.68137 1
  endloop
 endfacet

 facet normal 0 0 1
  outer loop
  vertex -5.95584 7.67725 1
  vertex -6.2186 7.68137 1
  vertex -5.99157 7.56087 1
  endloop
 endfacet

 facet normal 0 0 1
  outer loop
  vertex -5.99157 7.56087 1
  vertex -6.2186 7.68137 1
  vertex -6.24893 7.54196 1
  endloop
 endfacet

 facet normal 0 0 1
  outer loop
  vertex -5.99157 7.56087 1
  vertex -6.24893 7.54196 1
  vertex -6.00801 7.44025 1
  endloop
 endfacet

 facet normal 0 0 1
  outer loop
  vertex -6.00801 7.44025 1
  vertex -6.24893 7.54196 1
  vertex -6.25911 7.39964 1
  endloop
 endfacet

 facet normal 0 0 1
  outer loop
  vertex -6.00801 7.44025 1
  vertex -6.25911 7.39964 1
  vertex -6.00471 7.31855 1
  endloop
 endfacet

 facet normal 0 0 1
  outer loop
  vertex -6.00471 7.31855 1
  vertex -6.25911 7.39964 1
  vertex -6.24893 7.25733 1
  endloop
 endfacet

 facet normal 0 0 1
  outer loop
  vertex -6.00471 7.31855 1
  vertex -6.24893 7.25733 1
  vertex -5.98177 7.199 1
  endloop
 endfacet

 facet normal 0 0 1
  outer loop
  vertex -5.98177 7.199 1
  vertex -6.24893 7.25733 1
  vertex -6.2186 7.11791 1
  endloop
 endfacet

 facet normal 0 0 1
  outer loop
  vertex -5.98177 7.199 1
  vertex -6.2186 7.11791 1
  vertex -5.93979 7.08472 1
  endloop
 endfacet

 facet normal 0 0 1
  outer loop
  vertex -5.93979 7.08472 1
  vertex -6.2186 7.11791 1
  vertex -6.16874 6.98423 1
  endloop
 endfacet

 facet normal 0 0 1
  outer loop
  vertex -5.93979 7.08472 1
  vertex -6.16874 6.98423 1
  vertex -6.10036 6.859 1
  endloop
 endfacet

 facet normal 0 0 1
  outer loop
  vertex -5.93979 7.08472 1
  vertex -6.10036 6.859 1
  vertex -5.87987 6.97875 1
  endloop
 endfacet

 facet normal 0 0 1
  outer loop
  vertex -5.87987 6.97875 1
  vertex -6.10036 6.859 1
  vertex -6.01486 6.74478 1
  endloop
 endfacet

 facet normal 0 0 1
  outer loop
  vertex -5.87987 6.97875 1
  vertex -6.01486 6.74478 1
  vertex -5.8036 6.88387 1
  endloop
 endfacet

 facet normal 0 0 1
  outer loop
  vertex -5.8036 6.88387 1
  vertex -6.01486 6.74478 1
  vertex -5.91397 6.64389 1
  endloop
 endfacet

 facet normal 0 0 1
  outer loop
  vertex -5.8036 6.88387 1
  vertex -5.91397 6.64389 1
  vertex -5.71299 6.80257 1
  endloop
 endfacet

 facet normal 0 0 1
  outer loop
  vertex -5.71299 6.80257 1
  vertex -5.91397 6.64389 1
  vertex -5.79975 6.55839 1
  endloop
 endfacet

 facet normal 0 0 1
  outer loop
  vertex -5.71299 6.80257 1
  vertex -5.79975 6.55839 1
  vertex -5.61041 6.73701 1
  endloop
 endfacet

 facet normal 0 0 1
  outer loop
  vertex -5.61041 6.73701 1
  vertex -5.79975 6.55839 1
  vertex -5.67452 6.49001 1
  endloop
 endfacet

 facet normal 0 0 1
  outer loop
  vertex -5.61041 6.73701 1
  vertex -5.67452 6.49001 1
  vertex -5.49858 6.6889 1
  endloop
 endfacet

 facet normal 0 0 1
  outer loop
  vertex -5.49858 6.6889 1
  vertex -5.67452 6.49001 1
  vertex -5.54084 6.44015 1
  endloop
 endfacet

 facet normal 0 0 1
  outer loop
  vertex -5.49858 6.6889 1
  vertex -5.54084 6.44015 1
  vertex -5.38044 6.65952 1
  endloop
 endfacet

 facet normal 0 0 1
  outer loop
  vertex -5.38044 6.65952 1
  vertex -5.54084 6.44015 1
  vertex -5.40142 6.40982 1
  endloop
 endfacet

 facet normal 0 0 1
  outer loop
  vertex -5.38044 6.65952 1
  vertex -5.40142 6.40982 1
  vertex -5.25911 6.64964 1
  endloop
 endfacet

 facet normal 0 0 1
  outer loop
  vertex -5.25911 6.64964 1
  vertex -5.40142 6.40982 1
  vertex -5.25911 6.39964 1
  endloop
 endfacet

 facet normal 2.25745e-16 1 0
  outer loop
  vertex -4.25911 7.39964 0
  vertex -4.25911 7.39964 1
  vertex -0.324668 7.39964 0
  endloop
 endfacet

 facet normal 2.25745e-16 1 0
  outer loop
  vertex -0.324668 7.39964 0
  vertex -4.25911 7.39964 1
  vertex -0.324668 7.39964 1.5
  endloop
 endfacet

 facet normal 1.50496e-16 1 5.92119e-16
  outer loop
  vertex -0.324668 7.39964 1.5
  vertex -4.25911 7.39964 1
  vertex -5.25911 7.39964 1.5
  endloop
 endfacet

 facet normal 7.52482e-17 1 1.18424e-15
  outer loop
  vertex -5.25911 7.39964 1.5
  vertex -4.25911 7.39964 1
  vertex -4.50911 7.39964 1
  endloop
 endfacet

 facet normal -3.94746e-16 1 1.18424e-15
  outer loop
  vertex -5.25911 7.39964 1.5
  vertex -4.50911 7.39964 1
  vertex -5.25911 7.39964 0
  endloop
 endfacet

 facet normal -7.89492e-16 1 5.92119e-16
  outer loop
  vertex -5.25911 7.39964 0
  vertex -4.50911 7.39964 1
  vertex -4.50911 7.39964 0
  endloop
 endfacet

 facet normal 1 0 0
  outer loop
  vertex 3.82653 -2.2 0
  vertex 3.82653 -1.09069 0
  vertex 3.82653 -2.2 1.5
  endloop
 endfacet

 facet normal 1 0 0
  outer loop
  vertex 3.82653 -2.2 1.5
  vertex 3.82653 -1.09069 0
  vertex 3.82653 -1.09069 1.5
  endloop
 endfacet

 facet normal 0 1 0
  outer loop
  vertex 4.5 -2.2 0
  vertex 3.82653 -2.2 0
  vertex 4.5 -2.2 1.5
  endloop
 endfacet

 facet normal 0 1 0
  outer loop
  vertex 4.5 -2.2 1.5
  vertex 3.82653 -2.2 0
  vertex 3.82653 -2.2 1.5
  endloop
 endfacet

 facet normal -1 0 0
  outer loop
  vertex 4.5 -1.1 0
  vertex 4.5 -2.2 0
  vertex 4.5 -1.1 1.5
  endloop
 endfacet

 facet normal -1 0 0
  outer loop
  vertex 4.5 -1.1 1.5
  vertex 4.5 -2.2 0
  vertex 4.5 -2.2 1.5
  endloop
 endfacet

 facet normal -0.0138215 -0.999904 0
  outer loop
  vertex 3.82653 -1.09069 0
  vertex 4.5 -1.1 0
  vertex 3.82653 -1.09069 1.5
  endloop
 endfacet

 facet normal -0.0138215 -0.999904 0
  outer loop
  vertex 3.82653 -1.09069 1.5
  vertex 4.5 -1.1 0
  vertex 4.5 -1.1 1.5
  endloop
 endfacet

 facet normal 0 -1 0
  outer loop
  vertex -5.25911 -3 0
  vertex -3 -3 0
  vertex -5.25911 -3 1.5
  endloop
 endfacet

 facet normal 0 -1 0
  outer loop
  vertex -5.25911 -3 1.5
  vertex -3 -3 0
  vertex -3 -3 1.5
  endloop
 endfacet

 facet normal -1 0 0
  outer loop
  vertex -5.25911 6.39964 0
  vertex -5.25911 -3 0
  vertex -5.25911 6.39964 1
  endloop
 endfacet

 facet normal -1 0 0
  outer loop
  vertex -5.25911 6.39964 1
  vertex -5.25911 -3 0
  vertex -5.25911 -3 1.5
  endloop
 endfacet

 facet normal -1 0 0
  outer loop
  vertex -5.25911 6.39964 1
  vertex -5.25911 -3 1.5
  vertex -5.25911 7.39964 1.5
  endloop
 endfacet

 facet normal -1 0 0
  outer loop
  vertex -5.25911 6.39964 1
  vertex -5.25911 7.39964 1.5
  vertex -5.25911 6.64964 1
  endloop
 endfacet

 facet normal -1 0 0
  outer loop
  vertex -5.25911 6.64964 1
  vertex -5.25911 7.39964 1.5
  vertex -5.25911 7.39964 0
  endloop
 endfacet

 facet normal -1 0 0
  outer loop
  vertex -5.25911 6.64964 1
  vertex -5.25911 7.39964 0
  vertex -5.25911 6.64964 0
  endloop
 endfacet

 facet normal 1 0 0
  outer loop
  vertex -0.324668 -0.814661 0
  vertex -0.324668 7.39964 0
  vertex -0.324668 -0.814661 1.5
  endloop
 endfacet

 facet normal 1 0 0
  outer loop
  vertex -0.324668 -0.814661 1.5
  vertex -0.324668 7.39964 0
  vertex -0.324668 7.39964 1.5
  endloop
 endfacet

 facet normal 0 1 0
  outer loop
  vertex 0.271664 -0.814661 0
  vertex -0.324668 -0.814661 0
  vertex 0.271664 -0.814661 1.5
  endloop
 endfacet

 facet normal 0 1 0
  outer loop
  vertex 0.271664 -0.814661 1.5
  vertex -0.324668 -0.814661 0
  vertex -0.324668 -0.814661 1.5
  endloop
 endfacet

 facet normal -1 0 0
  outer loop
  vertex 0.271664 7.39964 0
  vertex 0.271664 -0.814661 0
  vertex 0.271664 7.39964 1.5
  endloop
 endfacet

 facet normal -1 0 0
  outer loop
  vertex 0.271664 7.39964 1.5
  vertex 0.271664 -0.814661 0
  vertex 0.271664 -0.814661 1.5
  endloop
 endfacet

 facet normal 0 1 0
  outer loop
  vertex 5.15794 7.39964 0
  vertex 0.271664 7.39964 0
  vertex 5.15794 7.39964 1.5
  endloop
 endfacet

 facet normal 0 1 0
  outer loop
  vertex 5.15794 7.39964 1.5
  vertex 0.271664 7.39964 0
  vertex 0.271664 7.39964 1.5
  endloop
 endfacet

 facet normal 1 0 0
  outer loop
  vertex 5.15794 -3 0
  vertex 5.15794 7.39964 0
  vertex 5.15794 -3 1.5
  endloop
 endfacet

 facet normal 1 0 0
  outer loop
  vertex 5.15794 -3 1.5
  vertex 5.15794 7.39964 0
  vertex 5.15794 7.39964 1.5
  endloop
 endfacet

 facet normal 0 -1 0
  outer loop
  vertex 3 -3 0
  vertex 5.15794 -3 0
  vertex 3 -3 1.5
  endloop
 endfacet

 facet normal 0 -1 0
  outer loop
  vertex 3 -3 1.5
  vertex 5.15794 -3 0
  vertex 5.15794 -3 1.5
  endloop
 endfacet

 facet normal -1 0 0
  outer loop
  vertex 3 5.1 0
  vertex 3 -3 0
  vertex 3 5.1 1.5
  endloop
 endfacet

 facet normal -1 0 0
  outer loop
  vertex 3 5.1 1.5
  vertex 3 -3 0
  vertex 3 -3 1.5
  endloop
 endfacet

 facet normal 0 -1 0
  outer loop
  vertex 2.4 5.1 0
  vertex 3 5.1 0
  vertex 2.4 5.1 1.5
  endloop
 endfacet

 facet normal 0 -1 0
  outer loop
  vertex 2.4 5.1 1.5
  vertex 3 5.1 0
  vertex 3 5.1 1.5
  endloop
 endfacet

 facet normal 1 0 0
  outer loop
  vertex 2.4 -3 0
  vertex 2.4 5.1 0
  vertex 2.4 -3 1.5
  endloop
 endfacet

 facet normal 1 0 0
  outer loop
  vertex 2.4 -3 1.5
  vertex 2.4 5.1 0
  vertex 2.4 5.1 1.5
  endloop
 endfacet

 facet normal 0 -1 0
  outer loop
  vertex -2.5 -3 0
  vertex 2.4 -3 0
  vertex -2.5 -3 1.5
  endloop
 endfacet

 facet normal 0 -1 0
  outer loop
  vertex -2.5 -3 1.5
  vertex 2.4 -3 0
  vertex 2.4 -3 1.5
  endloop
 endfacet

 facet normal -1 0 0
  outer loop
  vertex -2.5 5.15 0
  vertex -2.5 -3 0
  vertex -2.5 5.15 1.5
  endloop
 endfacet

 facet normal -1 0 0
  outer loop
  vertex -2.5 5.15 1.5
  vertex -2.5 -3 0
  vertex -2.5 -3 1.5
  endloop
 endfacet

 facet normal 0 -1 0
  outer loop
  vertex -3 5.15 0
  vertex -2.5 5.15 0
  vertex -3 5.15 1.5
  endloop
 endfacet

 facet normal 0 -1 0
  outer loop
  vertex -3 5.15 1.5
  vertex -2.5 5.15 0
  vertex -2.5 5.15 1.5
  endloop
 endfacet

 facet normal 1 0 0
  outer loop
  vertex -3 -3 0
  vertex -3 5.15 0
  vertex -3 -3 1.5
  endloop
 endfacet

 facet normal 1 0 0
  outer loop
  vertex -3 -3 1.5
  vertex -3 5.15 0
  vertex -3 5.15 1.5
  endloop
 endfacet

 facet normal 0 0 1
  outer loop
  vertex 4.5 -1.1 1.5
  vertex 3 5.1 1.5
  vertex 3.82653 -1.09069 1.5
  endloop
 endfacet

 facet normal 0 0 1
  outer loop
  vertex 3.82653 -1.09069 1.5
  vertex 3 5.1 1.5
  vertex 3 -3 1.5
  endloop
 endfacet

 facet normal 0 0 1
  outer loop
  vertex 3.82653 -1.09069 1.5
  vertex 3 -3 1.5
  vertex 3.82653 -2.2 1.5
  endloop
 endfacet

 facet normal 0 0 1
  outer loop
  vertex 3.82653 -2.2 1.5
  vertex 3 -3 1.5
  vertex 5.15794 -3 1.5
  endloop
 endfacet

 facet normal 0 0 1
  outer loop
  vertex 3.82653 -2.2 1.5
  vertex 5.15794 -3 1.5
  vertex 4.5 -2.2 1.5
  endloop
 endfacet

 facet normal 0 0 1
  outer loop
  vertex 4.5 -2.2 1.5
  vertex 5.15794 -3 1.5
  vertex 4.5 -1.1 1.5
  endloop
 endfacet

 facet normal 0 0 1
  outer loop
  vertex 4.5 -1.1 1.5
  vertex 5.15794 -3 1.5
  vertex 5.15794 7.39964 1.5
  endloop
 endfacet

 facet normal 0 0 1
  outer loop
  vertex 4.5 -1.1 1.5
  vertex 5.15794 7.39964 1.5
  vertex 3 5.1 1.5
  endloop
 endfacet

 facet normal 0 0 1
  outer loop
  vertex 3 5.1 1.5
  vertex 5.15794 7.39964 1.5
  vertex 0.271664 7.39964 1.5
  endloop
 endfacet

 facet normal 0 0 1
  outer loop
  vertex 3 5.1 1.5
  vertex 0.271664 7.39964 1.5
  vertex 2.4 5.1 1.5
  endloop
 endfacet

 facet normal 0 0 1
  outer loop
  vertex 2.4 5.1 1.5
  vertex 0.271664 7.39964 1.5
  vertex 0.271664 -0.814661 1.5
  endloop
 endfacet

 facet normal 0 0 1
  outer loop
  vertex 2.4 5.1 1.5
  vertex 0.271664 -0.814661 1.5
  vertex 2.4 -3 1.5
  endloop
 endfacet

 facet normal 0 0 1
  outer loop
  vertex 2.4 -3 1.5
  vertex 0.271664 -0.814661 1.5
  vertex -0.324668 -0.814661 1.5
  endloop
 endfacet

 facet normal 0 0 1
  outer loop
  vertex 2.4 -3 1.5
  vertex -0.324668 -0.814661 1.5
  vertex -2.5 -3 1.5
  endloop
 endfacet

 facet normal 0 0 1
  outer loop
  vertex -2.5 -3 1.5
  vertex -0.324668 -0.814661 1.5
  vertex -2.5 5.15 1.5
  endloop
 endfacet

 facet normal 0 0 1
  outer loop
  vertex -2.5 5.15 1.5
  vertex -0.324668 -0.814661 1.5
  vertex -0.324668 7.39964 1.5
  endloop
 endfacet

 facet normal 0 0 1
  outer loop
  vertex -2.5 5.15 1.5
  vertex -0.324668 7.39964 1.5
  vertex -3 5.15 1.5
  endloop
 endfacet

 facet normal 0 0 1
  outer loop
  vertex -3 5.15 1.5
  vertex -0.324668 7.39964 1.5
  vertex -5.25911 7.39964 1.5
  endloop
 endfacet

 facet normal 0 0 1
  outer loop
  vertex -3 5.15 1.5
  vertex -5.25911 7.39964 1.5
  vertex -5.25911 -3 1.5
  endloop
 endfacet

 facet normal 0 0 1
  outer loop
  vertex -3 -3 1.5
  vertex -3 5.15 1.5
  vertex -5.25911 -3 1.5
  endloop
 endfacet

 facet normal 0 0 -1
  outer loop
  vertex -0.324668 7.39964 0
  vertex -2.5 5.15 0
  vertex -4.25911 7.39964 0
  endloop
 endfacet

 facet normal 0 0 -1
  outer loop
  vertex -4.25911 7.39964 0
  vertex -2.5 5.15 0
  vertex -3 5.15 0
  endloop
 endfacet

 facet normal 0 0 -1
  outer loop
  vertex -4.25911 7.39964 0
  vertex -3 5.15 0
  vertex -5.25911 6.39964 0
  endloop
 endfacet

 facet normal 0 0 -1
  outer loop
  vertex -5.25911 6.39964 0
  vertex -3 5.15 0
  vertex -5.25911 -3 0
  endloop
 endfacet

 facet normal 0 0 -1
  outer loop
  vertex -5.25911 -3 0
  vertex -3 5.15 0
  vertex -3 -3 0
  endloop
 endfacet

 facet normal 0 0 -1
  outer loop
  vertex -0.324668 7.39964 0
  vertex -0.324668 -0.814661 0
  vertex -2.5 5.15 0
  endloop
 endfacet

 facet normal 0 0 -1
  outer loop
  vertex -2.5 5.15 0
  vertex -0.324668 -0.814661 0
  vertex -2.5 -3 0
  endloop
 endfacet

 facet normal 0 0 -1
  outer loop
  vertex -2.5 -3 0
  vertex -0.324668 -0.814661 0
  vertex 2.4 -3 0
  endloop
 endfacet

 facet normal 0 0 -1
  outer loop
  vertex 2.4 -3 0
  vertex -0.324668 -0.814661 0
  vertex 0.271664 -0.814661 0
  endloop
 endfacet

 facet normal 0 0 -1
  outer loop
  vertex 2.4 -3 0
  vertex 0.271664 -0.814661 0
  vertex 2.4 5.1 0
  endloop
 endfacet

 facet normal 0 0 -1
  outer loop
  vertex 2.4 5.1 0
  vertex 0.271664 -0.814661 0
  vertex 0.271664 7.39964 0
  endloop
 endfacet

 facet normal 0 0 -1
  outer loop
  vertex 2.4 5.1 0
  vertex 0.271664 7.39964 0
  vertex 3 5.1 0
  endloop
 endfacet

 facet normal 0 0 -1
  outer loop
  vertex 3 5.1 0
  vertex 0.271664 7.39964 0
  vertex 5.15794 7.39964 0
  endloop
 endfacet

 facet normal 0 0 -1
  outer loop
  vertex 3 5.1 0
  vertex 5.15794 7.39964 0
  vertex 4.5 -1.1 0
  endloop
 endfacet

 facet normal 0 0 -1
  outer loop
  vertex 4.5 -1.1 0
  vertex 5.15794 7.39964 0
  vertex 5.15794 -3 0
  endloop
 endfacet

 facet normal 0 0 -1
  outer loop
  vertex 4.5 -1.1 0
  vertex 5.15794 -3 0
  vertex 4.5 -2.2 0
  endloop
 endfacet

 facet normal 0 0 -1
  outer loop
  vertex 4.5 -2.2 0
  vertex 5.15794 -3 0
  vertex 3.82653 -2.2 0
  endloop
 endfacet

 facet normal 0 0 -1
  outer loop
  vertex 3.82653 -2.2 0
  vertex 5.15794 -3 0
  vertex 3 -3 0
  endloop
 endfacet

 facet normal 0 0 -1
  outer loop
  vertex 3.82653 -2.2 0
  vertex 3 -3 0
  vertex 3.82653 -1.09069 0
  endloop
 endfacet

 facet normal 0 0 -1
  outer loop
  vertex 3.82653 -1.09069 0
  vertex 3 -3 0
  vertex 3 5.1 0
  endloop
 endfacet

 facet normal 0 0 -1
  outer loop
  vertex 3.82653 -1.09069 0
  vertex 3 5.1 0
  vertex 4.5 -1.1 0
  endloop
 endfacet

 facet normal 0 0 -1
  outer loop
  vertex -4.25911 7.39964 0
  vertex -5.25911 6.39964 0
  vertex -5.25911 6.64964 0
  endloop
 endfacet

 facet normal 0 0 -1
  outer loop
  vertex -5.25911 6.64964 0
  vertex -5.25911 6.39964 0
  vertex -5.40142 6.40982 0
  endloop
 endfacet

 facet normal 0 0 -1
  outer loop
  vertex -5.25911 6.64964 0
  vertex -5.40142 6.40982 0
  vertex -5.38044 6.65952 0
  endloop
 endfacet

 facet normal 0 0 -1
  outer loop
  vertex -5.38044 6.65952 0
  vertex -5.40142 6.40982 0
  vertex -5.54084 6.44015 0
  endloop
 endfacet

 facet normal 0 0 -1
  outer loop
  vertex -5.38044 6.65952 0
  vertex -5.54084 6.44015 0
  vertex -5.49858 6.6889 0
  endloop
 endfacet

 facet normal 0 0 -1
  outer loop
  vertex -5.49858 6.6889 0
  vertex -5.54084 6.44015 0
  vertex -5.67452 6.49001 0
  endloop
 endfacet

 facet normal 0 0 -1
  outer loop
  vertex -5.49858 6.6889 0
  vertex -5.67452 6.49001 0
  vertex -5.61041 6.73701 0
  endloop
 endfacet

 facet normal 0 0 -1
  outer loop
  vertex -5.61041 6.73701 0
  vertex -5.67452 6.49001 0
  vertex -5.79975 6.55839 0
  endloop
 endfacet

 facet normal 0 0 -1
  outer loop
  vertex -5.61041 6.73701 0
  vertex -5.79975 6.55839 0
  vertex -5.71299 6.80257 0
  endloop
 endfacet

 facet normal 0 0 -1
  outer loop
  vertex -5.71299 6.80257 0
  vertex -5.79975 6.55839 0
  vertex -5.91397 6.64389 0
  endloop
 endfacet

 facet normal 0 0 -1
  outer loop
  vertex -5.71299 6.80257 0
  vertex -5.91397 6.64389 0
  vertex -5.8036 6.88387 0
  endloop
 endfacet

 facet normal 0 0 -1
  outer loop
  vertex -5.8036 6.88387 0
  vertex -5.91397 6.64389 0
  vertex -6.01486 6.74478 0
  endloop
 endfacet

 facet normal 0 0 -1
  outer loop
  vertex -5.8036 6.88387 0
  vertex -6.01486 6.74478 0
  vertex -5.87987 6.97875 0
  endloop
 endfacet

 facet normal 0 0 -1
  outer loop
  vertex -5.87987 6.97875 0
  vertex -6.01486 6.74478 0
  vertex -6.10036 6.859 0
  endloop
 endfacet

 facet normal 0 0 -1
  outer loop
  vertex -5.87987 6.97875 0
  vertex -6.10036 6.859 0
  vertex -5.93979 7.08472 0
  endloop
 endfacet

 facet normal 0 0 -1
  outer loop
  vertex -5.93979 7.08472 0
  vertex -6.10036 6.859 0
  vertex -6.16874 6.98423 0
  endloop
 endfacet

 facet normal 0 0 -1
  outer loop
  vertex -5.93979 7.08472 0
  vertex -6.16874 6.98423 0
  vertex -6.2186 7.11791 0
  endloop
 endfacet

 facet normal 0 0 -1
  outer loop
  vertex -5.93979 7.08472 0
  vertex -6.2186 7.11791 0
  vertex -5.98177 7.199 0
  endloop
 endfacet

 facet normal 0 0 -1
  outer loop
  vertex -5.98177 7.199 0
  vertex -6.2186 7.11791 0
  vertex -6.24893 7.25733 0
  endloop
 endfacet

 facet normal 0 0 -1
  outer loop
  vertex -5.98177 7.199 0
  vertex -6.24893 7.25733 0
  vertex -6.00471 7.31855 0
  endloop
 endfacet

 facet normal 0 0 -1
  outer loop
  vertex -6.00471 7.31855 0
  vertex -6.24893 7.25733 0
  vertex -6.25911 7.39964 0
  endloop
 endfacet

 facet normal 0 0 -1
  outer loop
  vertex -6.00471 7.31855 0
  vertex -6.25911 7.39964 0
  vertex -6.00801 7.44025 0
  endloop
 endfacet

 facet normal 0 0 -1
  outer loop
  vertex -6.00801 7.44025 0
  vertex -6.25911 7.39964 0
  vertex -6.24893 7.54196 0
  endloop
 endfacet

 facet normal 0 0 -1
  outer loop
  vertex -6.00801 7.44025 0
  vertex -6.24893 7.54196 0
  vertex -5.99157 7.56087 0
  endloop
 endfacet

 facet normal 0 0 -1
  outer loop
  vertex -5.99157 7.56087 0
  vertex -6.24893 7.54196 0
  vertex -6.2186 7.68137 0
  endloop
 endfacet

 facet normal 0 0 -1
  outer loop
  vertex -5.99157 7.56087 0
  vertex -6.2186 7.68137 0
  vertex -5.95584 7.67725 0
  endloop
 endfacet

 facet normal 0 0 -1
  outer loop
  vertex -5.95584 7.67725 0
  vertex -6.2186 7.68137 0
  vertex -6.16874 7.81506 0
  endloop
 endfacet

 facet normal 0 0 -1
  outer loop
  vertex -5.95584 7.67725 0
  vertex -6.16874 7.81506 0
  vertex -5.90175 7.78631 0
  endloop
 endfacet

 facet normal 0 0 -1
  outer loop
  vertex -5.90175 7.78631 0
  vertex -6.16874 7.81506 0
  vertex -6.10036 7.94028 0
  endloop
 endfacet

 facet normal 0 0 -1
  outer loop
  vertex -5.90175 7.78631 0
  vertex -6.10036 7.94028 0
  vertex -5.83073 7.88518 0
  endloop
 endfacet

 facet normal 0 0 -1
  outer loop
  vertex -5.83073 7.88518 0
  vertex -6.10036 7.94028 0
  vertex -6.01486 8.0545 0
  endloop
 endfacet

 facet normal 0 0 -1
  outer loop
  vertex -5.83073 7.88518 0
  vertex -6.01486 8.0545 0
  vertex -5.74465 7.97126 0
  endloop
 endfacet

 facet normal 0 0 -1
  outer loop
  vertex -5.74465 7.97126 0
  vertex -6.01486 8.0545 0
  vertex -5.91397 8.15539 0
  endloop
 endfacet

 facet normal 0 0 -1
  outer loop
  vertex -5.74465 7.97126 0
  vertex -5.91397 8.15539 0
  vertex -5.79975 8.2409 0
  endloop
 endfacet

 facet normal 0 0 -1
  outer loop
  vertex -5.74465 7.97126 0
  vertex -5.79975 8.2409 0
  vertex -5.64577 8.04228 0
  endloop
 endfacet

 facet normal 0 0 -1
  outer loop
  vertex -5.64577 8.04228 0
  vertex -5.79975 8.2409 0
  vertex -5.67452 8.30927 0
  endloop
 endfacet

 facet normal 0 0 -1
  outer loop
  vertex -5.64577 8.04228 0
  vertex -5.67452 8.30927 0
  vertex -5.53671 8.09637 0
  endloop
 endfacet

 facet normal 0 0 -1
  outer loop
  vertex -5.53671 8.09637 0
  vertex -5.67452 8.30927 0
  vertex -5.54084 8.35913 0
  endloop
 endfacet

 facet normal 0 0 -1
  outer loop
  vertex -5.53671 8.09637 0
  vertex -5.54084 8.35913 0
  vertex -5.42034 8.13211 0
  endloop
 endfacet

 facet normal 0 0 -1
  outer loop
  vertex -5.42034 8.13211 0
  vertex -5.54084 8.35913 0
  vertex -5.40142 8.38946 0
  endloop
 endfacet

 facet normal 0 0 -1
  outer loop
  vertex -5.42034 8.13211 0
  vertex -5.40142 8.38946 0
  vertex -5.29971 8.14854 0
  endloop
 endfacet

 facet normal 0 0 -1
  outer loop
  vertex -5.29971 8.14854 0
  vertex -5.40142 8.38946 0
  vertex -5.25911 8.39964 0
  endloop
 endfacet

 facet normal 0 0 -1
  outer loop
  vertex -5.29971 8.14854 0
  vertex -5.25911 8.39964 0
  vertex -5.17802 8.14524 0
  endloop
 endfacet

 facet normal 0 0 -1
  outer loop
  vertex -5.17802 8.14524 0
  vertex -5.25911 8.39964 0
  vertex -5.11679 8.38946 0
  endloop
 endfacet

 facet normal 0 0 -1
  outer loop
  vertex -5.17802 8.14524 0
  vertex -5.11679 8.38946 0
  vertex -5.05846 8.1223 0
  endloop
 endfacet

 facet normal 0 0 -1
  outer loop
  vertex -5.05846 8.1223 0
  vertex -5.11679 8.38946 0
  vertex -4.97737 8.35913 0
  endloop
 endfacet

 facet normal 0 0 -1
  outer loop
  vertex -5.05846 8.1223 0
  vertex -4.97737 8.35913 0
  vertex -4.94419 8.08032 0
  endloop
 endfacet

 facet normal 0 0 -1
  outer loop
  vertex -4.94419 8.08032 0
  vertex -4.97737 8.35913 0
  vertex -4.84369 8.30927 0
  endloop
 endfacet

 facet normal 0 0 -1
  outer loop
  vertex -4.94419 8.08032 0
  vertex -4.84369 8.30927 0
  vertex -4.71847 8.2409 0
  endloop
 endfacet

 facet normal 0 0 -1
  outer loop
  vertex -4.94419 8.08032 0
  vertex -4.71847 8.2409 0
  vertex -4.83822 8.02041 0
  endloop
 endfacet

 facet normal 0 0 -1
  outer loop
  vertex -4.83822 8.02041 0
  vertex -4.71847 8.2409 0
  vertex -4.60425 8.15539 0
  endloop
 endfacet

 facet normal 0 0 -1
  outer loop
  vertex -4.83822 8.02041 0
  vertex -4.60425 8.15539 0
  vertex -4.74333 7.94414 0
  endloop
 endfacet

 facet normal 0 0 -1
  outer loop
  vertex -4.74333 7.94414 0
  vertex -4.60425 8.15539 0
  vertex -4.50336 8.0545 0
  endloop
 endfacet

 facet normal 0 0 -1
  outer loop
  vertex -4.74333 7.94414 0
  vertex -4.50336 8.0545 0
  vertex -4.66204 7.85352 0
  endloop
 endfacet

 facet normal 0 0 -1
  outer loop
  vertex -4.66204 7.85352 0
  vertex -4.50336 8.0545 0
  vertex -4.41785 7.94028 0
  endloop
 endfacet

 facet normal 0 0 -1
  outer loop
  vertex -4.66204 7.85352 0
  vertex -4.41785 7.94028 0
  vertex -4.59647 7.75095 0
  endloop
 endfacet

 facet normal 0 0 -1
  outer loop
  vertex -4.59647 7.75095 0
  vertex -4.41785 7.94028 0
  vertex -4.34948 7.81506 0
  endloop
 endfacet

 facet normal 0 0 -1
  outer loop
  vertex -4.59647 7.75095 0
  vertex -4.34948 7.81506 0
  vertex -4.54837 7.63912 0
  endloop
 endfacet

 facet normal 0 0 -1
  outer loop
  vertex -4.54837 7.63912 0
  vertex -4.34948 7.81506 0
  vertex -4.29961 7.68137 0
  endloop
 endfacet

 facet normal 0 0 -1
  outer loop
  vertex -4.54837 7.63912 0
  vertex -4.29961 7.68137 0
  vertex -4.51899 7.52098 0
  endloop
 endfacet

 facet normal 0 0 -1
  outer loop
  vertex -4.51899 7.52098 0
  vertex -4.29961 7.68137 0
  vertex -4.26929 7.54196 0
  endloop
 endfacet

 facet normal 0 0 -1
  outer loop
  vertex -4.51899 7.52098 0
  vertex -4.26929 7.54196 0
  vertex -4.50911 7.39964 0
  endloop
 endfacet

 facet normal 0 0 -1
  outer loop
  vertex -4.50911 7.39964 0
  vertex -4.26929 7.54196 0
  vertex -4.25911 7.39964 0
  endloop
 endfacet

 facet normal 0 0 -1
  outer loop
  vertex -4.50911 7.39964 0
  vertex -4.25911 7.39964 0
  vertex -5.25911 6.64964 0
  endloop
 endfacet

 facet normal 0 0 -1
  outer loop
  vertex -5.25911 6.64964 0
  vertex -5.25911 7.39964 0
  vertex -4.50911 7.39964 0
  endloop
 endfacet

endsolid AssimpScene
