<?xml version="1.0" encoding="UTF-8" standalone="no"?>
<!-- Created with Inkscape (http://www.inkscape.org/) -->

<svg
   xmlns:dc="http://purl.org/dc/elements/1.1/"
   xmlns:cc="http://creativecommons.org/ns#"
   xmlns:rdf="http://www.w3.org/1999/02/22-rdf-syntax-ns#"
   xmlns:svg="http://www.w3.org/2000/svg"
   xmlns="http://www.w3.org/2000/svg"
   version="1.1"
   width="765.09967"
   height="158.82559"
   id="svg2">
  <defs
     id="defs4">
    <symbol
       id="*Paper_Space" />
    <symbol
       id="*Model_Space" />
    <pattern
       height="8"
       id="Hatch"
       patternUnits="userSpaceOnUse"
       width="8"
       x="0"
       y="0">
      <path
         d="M8 4 l-4,4"
         linecap="square"
         stroke="#000000"
         stroke-width="0.25"
         id="path3030" />
      <path
         d="M6 2 l-4,4"
         linecap="square"
         stroke="#000000"
         stroke-width="0.25"
         id="path3032" />
      <path
         d="M4 0 l-4,4"
         linecap="square"
         stroke="#000000"
         stroke-width="0.25"
         id="path3034" />
    </pattern>
    <marker
       refX="0"
       refY="0"
       orient="auto"
       id="DistanceX"
       style="overflow:visible">
      <path
         d="M 3,-3 -3,3 M 0,-5 0,5"
         id="path3027"
         style="stroke:#000000;stroke-width:0.5" />
    </marker>
  </defs>
  <metadata
     id="metadata7">
    <rdf:RDF>
      <cc:Work
         rdf:about="">
        <dc:format>image/svg+xml</dc:format>
        <dc:type
           rdf:resource="http://purl.org/dc/dcmitype/StillImage" />
        <dc:title></dc:title>
      </cc:Work>
    </rdf:RDF>
  </metadata>
  <g
     transform="translate(-463.61971,-103.98436)"
     id="layer1">
    <g
       transform="translate(474.11971,-800.05225)"
       id="g3038" />
    <path
       d="m 474.11971,216.99105 8.38645,-95.79752 25.49501,0 15.95818,65.41468 15.86248,-65.41468 25.39886,0 8.91346,95.79752 -18.06677,0 -6.32579,-64.02471 -15.43095,64.02471 -20.41521,0 -16.10201,-64.02471 -5.60688,64.02471 -18.06683,0 0,0 z"
       id="path3042"
       style="fill:none;stroke:#bebebe" />
    <path
       d="m 585.06082,216.99105 0,-69.48774 18.35416,0 0,69.48774 -18.35416,0 0,0 z"
       id="path3044"
       style="fill:none;stroke:#bebebe" />
    <path
       d="m 584.4376,137.15201 0,-11.54959 a 3.667629,3.667629 0 0 1 0.77873,-2.55179 3.012482,3.012482 0 0 1 2.33617,-0.85049 l 13.75388,0 a 2.665344,2.665344 0 0 1 2.15675,0.85049 3.874957,3.874957 0 0 1 0.71861,2.55179 l 0,11.54959 a 3.170925,3.170925 0 0 1 -0.71861,2.2641 2.844672,2.844672 0 0 1 -2.15675,0.7548 l -13.75388,0 a 3.183373,3.183373 0 0 1 -2.27606,-0.79069 2.91442,2.91442 0 0 1 -0.83884,-2.22821 l 0,0 z"
       id="path3046"
       style="fill:none;stroke:#bebebe" />
    <path
       d="m 614.10181,182.15117 a 104.76828,104.76828 0 0 1 0.4073,-9.62042 61.45992,61.45992 0 0 1 1.22222,-7.96728 34.257292,34.257292 0 0 1 2.02456,-6.2896 18.589823,18.589823 0 0 1 2.81556,-4.58861 18.372489,18.372489 0 0 1 7.1404,-5.29557 25.178476,25.178476 0 0 1 9.29684,-1.55745 139.56012,139.56012 0 0 1 17.5877,1.01826 80.33883,80.33883 0 0 1 14.32895,3.05509 l 0,10.97421 a 913.84864,913.84864 0 0 0 -25.74636,0.0659 25.765381,25.765381 0 0 0 -2.98332,0.19783 10.614363,10.614363 0 0 0 -3.33051,1.29399 5.904958,5.904958 0 0 0 -2.63582,3.23482 31.868466,31.868466 0 0 0 -1.36576,6.43958 73.360882,73.360882 0 0 0 -0.45546,8.67975 97.248263,97.248263 0 0 0 0.31162,8.4166 30.406975,30.406975 0 0 0 0.93453,5.64883 13.352632,13.352632 0 0 0 1.53966,3.54027 6.228032,6.228032 0 0 0 2.12638,2.09068 9.932543,9.932543 0 0 0 3.12103,1.0243 26.061579,26.061579 0 0 0 4.52268,0.3415 252.7863,252.7863 0 0 0 21.37366,-0.9105 l 3.49828,-0.2876 0,11.5494 a 31.724353,31.724353 0 0 1 -11.74129,3.6421 158.5758,158.5758 0 0 1 -14.80802,0.8147 l -0.76677,0 a 36.794709,36.794709 0 0 1 -14.74822,-1.7372 18.781067,18.781067 0 0 1 -7.00851,-5.2116 19.357438,19.357438 0 0 1 -2.91432,-4.6785 33.943497,33.943497 0 0 1 -2.0816,-6.31978 60.236572,60.236572 0 0 1 -1.24921,-7.96117 102.18754,102.18754 0 0 1 -0.4162,-9.60257 l 0,0 z"
       id="path3048"
       style="fill:none;stroke:#bebebe" />
    <path
       d="m 679.80386,216.99105 0,-69.48774 15.43095,0 2.87536,8.76962 a 37.96926,37.96926 0 0 1 9.88418,-7.0806 23.135088,23.135088 0 0 1 10.0038,-2.36009 49.347494,49.347494 0 0 1 4.75639,0.19169 12.434249,12.434249 0 0 1 2.95909,0.57507 l 0,17.68339 a 99.917807,99.917807 0 0 0 -9.91977,-0.38338 37.215466,37.215466 0 0 0 -5.73876,0.4073 21.894431,21.894431 0 0 0 -4.66069,1.22222 14.160958,14.160958 0 0 0 -3.88165,2.33617 19.705025,19.705025 0 0 0 -3.40259,3.74978 l 0,44.37657 -18.30631,0 0,0 z"
       id="path3050"
       style="fill:none;stroke:#bebebe" />
    <path
       d="m 754.27554,165.28239 a 101.69692,101.69692 0 0 0 -2.0126,9.66857 52.999906,52.999906 0 0 0 -0.67107,7.91912 69.045724,69.045724 0 0 0 0.67107,10.97428 16.561755,16.561755 0 0 0 0.94036,3.45043 8.854315,8.854315 0 0 0 1.47954,2.49198 7.551397,7.551397 0 0 0 3.97766,2.53988 27.363959,27.363959 0 0 0 6.03841,0.5272 45.079768,45.079768 0 0 0 5.70257,-0.2636 9.767782,9.767782 0 0 0 3.66696,-1.3179 5.86791,5.86791 0 0 0 2.53952,-3.2587 27.050263,27.050263 0 0 0 1.25749,-5.53508 55.730735,55.730735 0 0 0 0.42019,-7.21251 158.11284,158.11284 0 0 0 -0.31284,-11.78882 30.217313,30.217313 0 0 0 -1.10107,-6.30187 5.911226,5.911226 0 0 0 -2.51499,-3.57004 10.986507,10.986507 0 0 0 -3.58967,-1.47372 21.310199,21.310199 0 0 0 -4.82232,-0.49134 57.038011,57.038011 0 0 0 -4.65456,0.16194 17.096194,17.096194 0 0 0 -3.08484,0.4852 7.14005,7.14005 0 0 0 -3.92981,2.99498 l 0,0 z"
       id="path3052"
       style="fill:none;stroke:#bebebe" />
    <path
       d="m 733.28556,183.589 a 92.623124,92.623124 0 0 1 1.03022,-15.09572 34.923348,34.923348 0 0 1 3.25874,-10.35129 16.997543,16.997543 0 0 1 6.15803,-6.70918 27.334986,27.334986 0 0 1 8.92573,-3.45043 58.555226,58.555226 0 0 1 12.30409,-1.15014 64.576878,64.576878 0 0 1 8.27122,0.49134 39.74236,39.74236 0 0 1 6.88921,1.47341 24.998971,24.998971 0 0 1 5.51149,2.4561 17.713605,17.713605 0 0 1 4.12825,3.43847 20.147183,20.147183 0 0 1 3.00878,4.6935 33.054914,33.054914 0 0 1 2.15,6.2209 56.120992,56.120992 0 0 1 1.28816,7.7486 92.689443,92.689443 0 0 1 0.42939,9.27599 93.582889,93.582889 0 0 1 -0.42325,9.252 55.494869,55.494869 0 0 1 -1.2667,7.67662 31.745279,31.745279 0 0 1 -2.11013,6.10108 18.697304,18.697304 0 0 1 -2.95663,4.5258 17.025604,17.025604 0 0 1 -4.09145,3.2707 25.393667,25.393667 0 0 1 -5.51762,2.3362 41.865621,41.865621 0 0 1 -6.94227,1.4018 69.328567,69.328567 0 0 1 -8.36845,0.4672 63.054282,63.054282 0 0 1 -8.23963,-0.5002 39.37126,39.37126 0 0 1 -6.89197,-1.5006 25.293848,25.293848 0 0 1 -5.544,-2.5009 18.401937,18.401937 0 0 1 -4.19634,-3.5014 20.408256,20.408256 0 0 1 -2.97719,-4.5227 30.962036,30.962036 0 0 1 -2.12639,-5.85256 49.71676,49.71676 0 0 1 -1.2762,-7.18239 79.250711,79.250711 0 0 1 -0.42509,-8.5122 l 0,0 z"
       id="path3054"
       style="fill:none;stroke:#bebebe" />
    <path
       d="m 848.06104,137.39155 -21.46935,0 0,28.03468 21.37427,0 a 9.641122,9.641122 0 0 0 5.07904,-1.19799 6.289092,6.289092 0 0 0 1.92917,-1.80311 10.492988,10.492988 0 0 0 1.37711,-2.82139 28.324879,28.324879 0 0 0 1.10107,-8.69815 26.4065,26.4065 0 0 0 -0.58581,-5.91236 12.140086,12.140086 0 0 0 -1.76048,-4.22332 7.47549,7.47549 0 0 0 -2.93517,-2.5337 9.405207,9.405207 0 0 0 -4.10985,-0.84466 l 0,0 z"
       id="path3070"
       style="fill:none;stroke:#ff0000" />
    <path
       d="m 957.94734,161.35288 0,-10.20776 11.26221,-3.78566 3.01798,-19.36075 15.28924,0 0,19.36075 15.57453,0 0,13.99342 -15.57453,0 0,27.89084 a 42.025479,42.025479 0 0 0 0.35885,5.97244 12.328486,12.328486 0 0 0 1.07653,3.82783 8.288976,8.288976 0 0 0 4.45643,3.95366 211.85149,211.85149 0 0 0 6.12183,2.0487 14.600045,14.600045 0 0 0 2.64989,0.6828 l 0,11.2619 -15.95782,0 a 16.804947,16.804947 0 0 1 -7.44373,-1.5545 13.606965,13.606965 0 0 1 -5.31827,-4.6635 22.537606,22.537606 0 0 1 -3.18973,-7.7724 49.35507,49.35507 0 0 1 -1.0612,-10.88151 l 0,-30.76626 -11.26221,0 0,0 z"
       id="path3072"
       style="fill:none;stroke:#ff0000" />
    <path
       d="m 1197.4165,146.30501 a 24.952696,24.952696 0 0 1 9.1,1.52157 16.077531,16.077531 0 0 1 6.4991,4.56469 19.935463,19.935463 0 0 1 3.8982,7.60782 39.066225,39.066225 0 0 1 1.3004,10.65064 l 0,46.34132 -18.3042,0 0,-46.58086 a 15.801149,15.801149 0 0 0 -0.4845,-4.1304 7.859179,7.859179 0 0 0 -1.4446,-2.95019 5.977282,5.977282 0 0 0 -2.4138,-1.77 8.891394,8.891394 0 0 0 -3.3738,-0.5901 25.71484,25.71484 0 0 0 -8.9373,1.36576 29.528311,29.528311 0 0 0 -7.8364,4.67234 l 0,49.98345 -18.3072,0 0,-69.48774 14.6667,0 3.6405,7.42778 a 71.772372,71.772372 0 0 1 8.5663,-5.43911 24.453688,24.453688 0 0 1 6.6248,-2.5159 31.484828,31.484828 0 0 1 6.8058,-0.67107 l 0,0 z"
       id="path3074"
       style="fill:none;stroke:#ff0000" />
    <path
       d="m 882.47028,147.50331 19.21508,0 12.07804,48.68928 a 6.616536,6.616536 0 0 0 2.23895,3.70202 6.560409,6.560409 0 0 0 4.13438,1.23404 2.645525,2.645525 0 0 0 0.52754,0.1437 l 13.89681,-53.76904 19.11999,0 -24.10395,91.48424 -9.53546,13.3224 -13.13312,0 9.82377,-35.3189 a 22.713351,22.713351 0 0 1 -7.27505,-1.1052 17.518915,17.518915 0 0 1 -5.86726,-3.3157 20.440644,20.440644 0 0 1 -4.4595,-5.5261 32.678904,32.678904 0 0 1 -3.05171,-7.73647 l -13.60851,-51.80427 0,0 z"
       id="path3076"
       style="fill:none;stroke:#ff0000" />
    <path
       d="m 1011.86,216.99105 0,-102.50669 18.163,0 0,40.44673 a 72.12737,72.12737 0 0 1 8.5172,-5.39126 25.732974,25.732974 0 0 1 6.6739,-2.56375 33.530661,33.530661 0 0 1 6.95,-0.67107 24.944515,24.944515 0 0 1 9.0968,1.52157 16.082612,16.082612 0 0 1 6.5022,4.56469 19.935463,19.935463 0 0 1 3.8982,7.60782 39.066225,39.066225 0 0 1 1.3004,10.65064 l 0,46.34132 -18.3072,0 0,-46.58086 a 15.799795,15.799795 0 0 0 -0.4815,-4.1304 7.862409,7.862409 0 0 0 -1.4477,-2.95019 5.972344,5.972344 0 0 0 -2.4107,-1.77 8.899237,8.899237 0 0 0 -3.3768,-0.5901 25.71484,25.71484 0 0 0 -8.9374,1.36576 29.519786,29.519786 0 0 0 -7.8332,4.67234 l 0,49.98345 -18.3072,0 0,0 z"
       id="path3078"
       style="fill:none;stroke:#ff0000" />
    <path
       d="m 1082.7855,183.589 a 92.623252,92.623252 0 0 1 1.0305,-15.09572 34.921866,34.921866 0 0 1 3.2572,-10.35129 16.998317,16.998317 0 0 1 6.1587,-6.70918 27.333351,27.333351 0 0 1 8.9251,-3.45043 58.559567,58.559567 0 0 1 12.305,-1.15014 64.58165,64.58165 0 0 1 8.2718,0.49134 39.738976,39.738976 0 0 1 6.8886,1.47341 24.998971,24.998971 0 0 1 5.5115,2.4561 17.713605,17.713605 0 0 1 4.1283,3.43847 20.147183,20.147183 0 0 1 3.0088,4.6935 33.054914,33.054914 0 0 1 2.15,6.2209 56.120992,56.120992 0 0 1 1.2881,7.7486 92.689443,92.689443 0 0 1 0.4294,9.27599 93.581477,93.581477 0 0 1 -0.4202,9.252 55.498435,55.498435 0 0 1 -1.2697,7.67662 31.745279,31.745279 0 0 1 -2.1102,6.10108 18.697304,18.697304 0 0 1 -2.9566,4.5258 17.025604,17.025604 0 0 1 -4.0914,3.2707 25.393667,25.393667 0 0 1 -5.5177,2.3362 41.856735,41.856735 0 0 1 -6.9407,1.4018 69.341232,69.341232 0 0 1 -8.37,0.4672 63.04259,63.04259 0 0 1 -8.2381,-0.5002 39.369587,39.369587 0 0 1 -6.8917,-1.5006 25.298499,25.298499 0 0 1 -5.5452,-2.5009 18.400351,18.400351 0 0 1 -4.1957,-3.5014 20.410163,20.410163 0 0 1 -2.9781,-4.5227 30.960474,30.960474 0 0 1 -2.1255,-5.85256 49.716395,49.716395 0 0 1 -1.2759,-7.18239 79.251281,79.251281 0 0 1 -0.4263,-8.5122 l 0,0 z"
       id="path3080"
       style="fill:none;stroke:#ff0000" />
    <path
       d="m 1103.7764,165.28239 a 101.69564,101.69564 0 0 0 -2.012,9.66857 53.000252,53.000252 0 0 0 -0.6717,7.91912 69.045959,69.045959 0 0 0 0.6717,10.97428 16.559516,16.559516 0 0 0 0.9385,3.45043 8.857186,8.857186 0 0 0 1.4814,2.49198 7.547675,7.547675 0 0 0 3.9749,2.53988 27.366717,27.366717 0 0 0 6.039,0.5272 45.096704,45.096704 0 0 0 5.7048,-0.2636 9.763441,9.763441 0 0 0 3.6651,-1.3179 5.86791,5.86791 0 0 0 2.5395,-3.2587 27.050263,27.050263 0 0 0 1.2575,-5.53508 55.730735,55.730735 0 0 0 0.4202,-7.21251 158.11284,158.11284 0 0 0 -0.3129,-11.78882 30.217313,30.217313 0 0 0 -1.101,-6.30187 5.911226,5.911226 0 0 0 -2.515,-3.57004 10.983294,10.983294 0 0 0 -3.5885,-1.47372 21.319589,21.319589 0 0 0 -4.8244,-0.49134 57.015487,57.015487 0 0 0 -4.6528,0.16194 17.099511,17.099511 0 0 0 -3.0854,0.4852 7.138992,7.138992 0 0 0 -3.9289,2.99498 l 0,0 z"
       id="path3082"
       style="fill:none;stroke:#ff0000" />
    <path
       d="m 808.23539,216.99105 0,-95.79752 41.2641,0 a 34.14365,34.14365 0 0 1 12.2774,1.98899 19.541659,19.541659 0 0 1 8.37612,5.96633 23.907413,23.907413 0 0 1 4.41962,8.9975 48.211674,48.211674 0 0 1 1.47525,12.61539 51.335387,51.335387 0 0 1 -1.77276,14.40103 37.898378,37.898378 0 0 1 -1.96598,5.31336 19.829803,19.829803 0 0 1 -2.34936,3.91172 16.201726,16.201726 0 0 1 -6.46841,4.88796 26.614618,26.614618 0 0 1 -11.40636,2.39628 143.35618,143.35618 0 0 1 -14.75865,-1.19799 519.68963,519.68963 0 0 1 -7.78724,-0.95876 24.527385,24.527385 0 0 1 -2.94743,-0.47907 l 0,37.95478 -18.3563,0 0,0 z"
       id="path3084"
       style="fill:none;stroke:#ff0000" />
  </g>
</svg>
