  0
SECTION
  2
HEADER
  9
$ACADVER
  1
AC1015
  9
$ACADMAINTVER
 70
     6
  9
$DWGCODEPAGE
  3
ANSI_1252
  9
$INSBASE
 10
0.0
 20
0.0
 30
0.0
  9
$EXTMIN
 10
0.0000000000000001
 20
0.0
 30
0.0
  9
$EXTMAX
 10
3.692708053216686
 20
0.6839852852251591
 30
0.0
  9
$LIMMIN
 10
0.0
 20
0.0
  9
$LIMMAX
 10
12.0
 20
9.0
  9
$ORTHOMODE
 70
     0
  9
$REGENMODE
 70
     1
  9
$FILLMODE
 70
     1
  9
$QTEXTMODE
 70
     0
  9
$MIRRTEXT
 70
     1
  9
$LTSCALE
 40
1.0
  9
$ATTMODE
 70
     1
  9
$TEXTSIZE
 40
0.2
  9
$TRACEWID
 40
0.05
  9
$TEXTSTYLE
  7
Standard
  9
$CLAYER
  8
TEXT-RED
  9
$CELTYPE
  6
ByLayer
  9
$CECOLOR
 62
   256
  9
$CELTSCALE
 40
1.0
  9
$DISPSILH
 70
     0
  9
$DIMSCALE
 40
1.0
  9
$DIMASZ
 40
0.18
  9
$DIMEXO
 40
0.0625
  9
$DIMDLI
 40
0.38
  9
$DIMRND
 40
0.0
  9
$DIMDLE
 40
0.0
  9
$DIMEXE
 40
0.18
  9
$DIMTP
 40
0.0
  9
$DIMTM
 40
0.0
  9
$DIMTXT
 40
0.18
  9
$DIMCEN
 40
0.09
  9
$DIMTSZ
 40
0.0
  9
$DIMTOL
 70
     0
  9
$DIMLIM
 70
     0
  9
$DIMTIH
 70
     1
  9
$DIMTOH
 70
     1
  9
$DIMSE1
 70
     0
  9
$DIMSE2
 70
     0
  9
$DIMTAD
 70
     0
  9
$DIMZIN
 70
     0
  9
$DIMBLK
  1

  9
$DIMASO
 70
     1
  9
$DIMSHO
 70
     1
  9
$DIMPOST
  1

  9
$DIMAPOST
  1

  9
$DIMALT
 70
     0
  9
$DIMALTD
 70
     2
  9
$DIMALTF
 40
25.4
  9
$DIMLFAC
 40
1.0
  9
$DIMTOFL
 70
     0
  9
$DIMTVP
 40
0.0
  9
$DIMTIX
 70
     0
  9
$DIMSOXD
 70
     0
  9
$DIMSAH
 70
     0
  9
$DIMBLK1
  1

  9
$DIMBLK2
  1

  9
$DIMSTYLE
  2
Standard
  9
$DIMCLRD
 70
     0
  9
$DIMCLRE
 70
     0
  9
$DIMCLRT
 70
     0
  9
$DIMTFAC
 40
1.0
  9
$DIMGAP
 40
0.09
  9
$DIMJUST
 70
     0
  9
$DIMSD1
 70
     0
  9
$DIMSD2
 70
     0
  9
$DIMTOLJ
 70
     1
  9
$DIMTZIN
 70
     0
  9
$DIMALTZ
 70
     0
  9
$DIMALTTZ
 70
     0
  9
$DIMUPT
 70
     0
  9
$DIMDEC
 70
     3
  9
$DIMTDEC
 70
     3
  9
$DIMALTU
 70
     2
  9
$DIMALTTD
 70
     2
  9
$DIMTXSTY
  7
Standard
  9
$DIMAUNIT
 70
     0
  9
$DIMADEC
 70
     0
  9
$DIMALTRND
 40
0.0
  9
$DIMAZIN
 70
     0
  9
$DIMDSEP
 70
    46
  9
$DIMATFIT
 70
     3
  9
$DIMFRAC
 70
     0
  9
$DIMLDRBLK
  1

  9
$DIMLUNIT
 70
     2
  9
$DIMLWD
 70
    -2
  9
$DIMLWE
 70
    -2
  9
$DIMTMOVE
 70
     2
  9
$LUNITS
 70
     2
  9
$LUPREC
 70
     3
  9
$SKETCHINC
 40
0.1
  9
$FILLETRAD
 40
0.5
  9
$AUNITS
 70
     0
  9
$AUPREC
 70
     0
  9
$MENU
  1
.
  9
$ELEVATION
 40
0.0
  9
$PELEVATION
 40
0.0
  9
$THICKNESS
 40
0.0
  9
$LIMCHECK
 70
     0
  9
$CHAMFERA
 40
0.0
  9
$CHAMFERB
 40
0.0
  9
$CHAMFERC
 40
0.0
  9
$CHAMFERD
 40
0.0
  9
$SKPOLY
 70
     0
  9
$TDCREATE
 40
2456662.269745891
  9
$TDUCREATE
 40
2456662.519745903
  9
$TDUPDATE
 40
2456662.282164352
  9
$TDUUPDATE
 40
2456662.532164352
  9
$TDINDWG
 40
0.0000000116
  9
$TDUSRTIMER
 40
2456662.519895833
  9
$USRTIMER
 70
     1
  9
$ANGBASE
 50
0.0
  9
$ANGDIR
 70
     0
  9
$PDMODE
 70
     0
  9
$PDSIZE
 40
0.0
  9
$PLINEWID
 40
0.0
  9
$SPLFRAME
 70
     0
  9
$SPLINETYPE
 70
     6
  9
$SPLINESEGS
 70
     8
  9
$HANDSEED
  5
1D7
  9
$SURFTAB1
 70
     6
  9
$SURFTAB2
 70
     6
  9
$SURFTYPE
 70
     6
  9
$SURFU
 70
     6
  9
$SURFV
 70
     6
  9
$UCSBASE
  2

  9
$UCSNAME
  2

  9
$UCSORG
 10
0.0
 20
0.0
 30
0.0
  9
$UCSXDIR
 10
1.0
 20
0.0
 30
0.0
  9
$UCSYDIR
 10
0.0
 20
1.0
 30
0.0
  9
$UCSORTHOREF
  2

  9
$UCSORTHOVIEW
 70
     0
  9
$UCSORGTOP
 10
0.0
 20
0.0
 30
0.0
  9
$UCSORGBOTTOM
 10
0.0
 20
0.0
 30
0.0
  9
$UCSORGLEFT
 10
0.0
 20
0.0
 30
0.0
  9
$UCSORGRIGHT
 10
0.0
 20
0.0
 30
0.0
  9
$UCSORGFRONT
 10
0.0
 20
0.0
 30
0.0
  9
$UCSORGBACK
 10
0.0
 20
0.0
 30
0.0
  9
$PUCSBASE
  2

  9
$PUCSNAME
  2

  9
$PUCSORG
 10
0.0
 20
0.0
 30
0.0
  9
$PUCSXDIR
 10
1.0
 20
0.0
 30
0.0
  9
$PUCSYDIR
 10
0.0
 20
1.0
 30
0.0
  9
$PUCSORTHOREF
  2

  9
$PUCSORTHOVIEW
 70
     0
  9
$PUCSORGTOP
 10
0.0
 20
0.0
 30
0.0
  9
$PUCSORGBOTTOM
 10
0.0
 20
0.0
 30
0.0
  9
$PUCSORGLEFT
 10
0.0
 20
0.0
 30
0.0
  9
$PUCSORGRIGHT
 10
0.0
 20
0.0
 30
0.0
  9
$PUCSORGFRONT
 10
0.0
 20
0.0
 30
0.0
  9
$PUCSORGBACK
 10
0.0
 20
0.0
 30
0.0
  9
$USERI1
 70
     0
  9
$USERI2
 70
     0
  9
$USERI3
 70
     0
  9
$USERI4
 70
     0
  9
$USERI5
 70
     0
  9
$USERR1
 40
0.0
  9
$USERR2
 40
0.0
  9
$USERR3
 40
0.0
  9
$USERR4
 40
0.0
  9
$USERR5
 40
0.0
  9
$WORLDVIEW
 70
     1
  9
$SHADEDGE
 70
     3
  9
$SHADEDIF
 70
    70
  9
$TILEMODE
 70
     1
  9
$MAXACTVP
 70
    64
  9
$PINSBASE
 10
0.0
 20
0.0
 30
0.0
  9
$PLIMCHECK
 70
     0
  9
$PEXTMIN
 10
1.000000000000000E+20
 20
1.000000000000000E+20
 30
1.000000000000000E+20
  9
$PEXTMAX
 10
-1.000000000000000E+20
 20
-1.000000000000000E+20
 30
-1.000000000000000E+20
  9
$PLIMMIN
 10
0.0
 20
0.0
  9
$PLIMMAX
 10
0.0
 20
0.0
  9
$UNITMODE
 70
     0
  9
$VISRETAIN
 70
     1
  9
$PLINEGEN
 70
     0
  9
$PSLTSCALE
 70
     1
  9
$TREEDEPTH
 70
  3020
  9
$CMLSTYLE
  2
Standard
  9
$CMLJUST
 70
     0
  9
$CMLSCALE
 40
1.0
  9
$PROXYGRAPHICS
 70
     1
  9
$MEASUREMENT
 70
     0
  9
$CELWEIGHT
370
    -1
  9
$ENDCAPS
280
     0
  9
$JOINSTYLE
280
     0
  9
$LWDISPLAY
290
     0
  9
$INSUNITS
 70
     0
  9
$HYPERLINKBASE
  1

  9
$STYLESHEET
  1

  9
$XEDIT
290
     1
  9
$CEPSNTYPE
380
     0
  9
$PSTYLEMODE
290
     1
  9
$FINGERPRINTGUID
  2
{394BC0E0-D500-95D9-65ED-9BB4C8BE75F1}
  9
$VERSIONGUID
  2
{FAEB1C32-E019-11D5-929B-00C0DF256EC4}
  9
$EXTNAMES
290
     1
  9
$PSVPSCALE
 40
0.0
  9
$OLESTARTUP
290
     0
  0
ENDSEC
  0
SECTION
  2
CLASSES
  0
CLASS
  1
ACDBDICTIONARYWDFLT
  2
AcDbDictionaryWithDefault
  3
ObjectDBX Classes
 90
        0
280
     0
281
     0
  0
CLASS
  1
SCALE
  2
AcDbScale
  3
ObjectDBX Classes
 90
     1153
280
     0
281
     0
  0
CLASS
  1
VISUALSTYLE
  2
AcDbVisualStyle
  3
ObjectDBX Classes
 90
     4095
280
     0
281
     0
  0
CLASS
  1
MATERIAL
  2
AcDbMaterial
  3
ObjectDBX Classes
 90
     1153
280
     0
281
     0
  0
CLASS
  1
TABLESTYLE
  2
AcDbTableStyle
  3
ObjectDBX Classes
 90
     4095
280
     0
281
     0
  0
CLASS
  1
SUN
  2
AcDbSun
  3
SCENEOE
 90
     1153
280
     0
281
     0
  0
CLASS
  1
RASTERVARIABLES
  2
AcDbRasterVariables
  3
ISM
 90
        0
280
     0
281
     0
  0
CLASS
  1
DICTIONARYVAR
  2
AcDbDictionaryVar
  3
ObjectDBX Classes
 90
        0
280
     0
281
     0
  0
CLASS
  1
ACDBPLACEHOLDER
  2
AcDbPlaceHolder
  3
ObjectDBX Classes
 90
        0
280
     0
281
     0
  0
CLASS
  1
LAYOUT
  2
AcDbLayout
  3
ObjectDBX Classes
 90
        0
280
     0
281
     0
  0
ENDSEC
  0
SECTION
  2
TABLES
  0
TABLE
  2
VPORT
  5
8
330
0
100
AcDbSymbolTable
 70
     1
  0
VPORT
  5
22
330
8
100
AcDbSymbolTableRecord
100
AcDbViewportTableRecord
  2
*ACTIVE
 70
     0
 10
0.0
 20
0.0
 11
1.0
 21
1.0
 12
1.846354026608343
 22
0.3419926426125796
 13
0.0
 23
0.0
 14
10.0
 24
10.0
 15
10.0
 25
10.0
 16
0.0
 26
0.0
 36
1.0
 17
0.0
 27
0.0
 37
0.0
 40
1.733730323509535
 41
2.172519083969465
 42
50.0
 43
0.0
 44
0.0
 50
0.0
 51
0.0
 71
    16
 72
   100
 73
     1
 74
     1
 75
     0
 76
     0
 77
     0
 78
     0
281
     0
 65
     0
110
0.0
120
0.0
130
0.0
111
1.0
121
0.0
131
0.0
112
0.0
122
1.0
132
0.0
 79
     0
146
0.0
  0
ENDTAB
  0
TABLE
  2
LTYPE
  5
5
330
0
100
AcDbSymbolTable
 70
     1
  0
LTYPE
  5
14
330
5
100
AcDbSymbolTableRecord
100
AcDbLinetypeTableRecord
  2
ByBlock
 70
     0
  3

 72
    65
 73
     0
 40
0.0
  0
LTYPE
  5
15
330
5
100
AcDbSymbolTableRecord
100
AcDbLinetypeTableRecord
  2
ByLayer
 70
     0
  3

 72
    65
 73
     0
 40
0.0
  0
LTYPE
  5
16
330
5
100
AcDbSymbolTableRecord
100
AcDbLinetypeTableRecord
  2
CONTINUOUS
 70
     0
  3
Solid line
 72
    65
 73
     0
 40
0.0
  0
ENDTAB
  0
TABLE
  2
LAYER
  5
2
102
{ACAD_XDICTIONARY
360
1B3
102
}
330
0
100
AcDbSymbolTable
 70
     3
  0
LAYER
  5
10
330
2
100
AcDbSymbolTableRecord
100
AcDbLayerTableRecord
  2
0
 70
     0
 62
     7
  6
CONTINUOUS
370
    -3
390
F
  0
LAYER
  5
21
330
2
100
AcDbSymbolTableRecord
100
AcDbLayerTableRecord
  2
TEXT-GRAY
 70
     0
 62
   254
  6
CONTINUOUS
370
    -3
390
F
  0
LAYER
  5
1B9
330
2
100
AcDbSymbolTableRecord
100
AcDbLayerTableRecord
  2
TEXT-RED
 70
     0
 62
     1
  6
CONTINUOUS
370
    -3
390
F
1001
AcAecLayerStandard
1000

1000

  0
ENDTAB
  0
TABLE
  2
STYLE
  5
3
330
0
100
AcDbSymbolTable
 70
     1
  0
STYLE
  5
11
330
3
100
AcDbSymbolTableRecord
100
AcDbTextStyleTableRecord
  2
Standard
 70
     0
 40
0.0
 41
1.0
 50
0.0
 71
     0
 42
0.2
  3
txt
  4

  0
ENDTAB
  0
TABLE
  2
VIEW
  5
6
330
0
100
AcDbSymbolTable
 70
     0
  0
ENDTAB
  0
TABLE
  2
UCS
  5
7
330
0
100
AcDbSymbolTable
 70
     0
  0
ENDTAB
  0
TABLE
  2
APPID
  5
9
330
0
100
AcDbSymbolTable
 70
     2
  0
APPID
  5
12
330
9
100
AcDbSymbolTableRecord
100
AcDbRegAppTableRecord
  2
ACAD
 70
     0
  0
APPID
  5
1BA
330
9
100
AcDbSymbolTableRecord
100
AcDbRegAppTableRecord
  2
AcAecLayerStandard
 70
     0
  0
ENDTAB
  0
TABLE
  2
DIMSTYLE
  5
A
330
0
100
AcDbSymbolTable
 70
     1
100
AcDbDimStyleTable
  0
DIMSTYLE
105
23
330
A
100
AcDbSymbolTableRecord
100
AcDbDimStyleTableRecord
  2
Standard
 70
     0
178
     0
340
11
  0
ENDTAB
  0
TABLE
  2
BLOCK_RECORD
  5
1
330
0
100
AcDbSymbolTable
 70
     0
  0
BLOCK_RECORD
  5
1D
330
1
100
AcDbSymbolTableRecord
100
AcDbBlockTableRecord
  2
*Model_Space
340
1E
  0
BLOCK_RECORD
  5
1B
330
1
100
AcDbSymbolTableRecord
100
AcDbBlockTableRecord
  2
*Paper_Space
340
1C
  0
ENDTAB
  0
ENDSEC
  0
SECTION
  2
BLOCKS
  0
BLOCK
  5
18D
330
1D
100
AcDbEntity
  8
0
100
AcDbBlockBegin
  2
*Model_Space
 70
     0
 10
0.0
 20
0.0
 30
0.0
  3
*Model_Space
  1
*Model_Space
  0
ENDBLK
  5
18E
330
1D
100
AcDbEntity
  8
0
100
AcDbBlockEnd
  0
BLOCK
  5
18F
330
1B
100
AcDbEntity
 67
     1
  8
0
100
AcDbBlockBegin
  2
*Paper_Space
 70
     0
 10
0.0
 20
0.0
 30
0.0
  3
*Paper_Space
  1
*Paper_Space
  0
ENDBLK
  5
190
330
1B
100
AcDbEntity
 67
     1
  8
0
100
AcDbBlockEnd
  0
ENDSEC
  0
SECTION
  2
ENTITIES
  0
LWPOLYLINE
  5
24
102
{ACAD_REACTORS
330
1BD
102
}
330
1D
100
AcDbEntity
  8
TEXT-GRAY
100
AcDbPolyline
 90
       14
 70
     1
 43
0.0
 10
0.0000000000000001
 20
0.1752767944487085
 10
0.0416193345059499
 20
0.6506897567371471
 10
0.1681431038010463
 20
0.6506897567371471
 10
0.247338516041492
 20
0.3260572124180542
 10
0.3260590389156172
 20
0.6506897567371471
 10
0.4521056357224397
 20
0.6506897567371471
 10
0.4963403625301471
 20
0.1752767944487085
 10
0.4066806413363264
 20
0.1752767944487085
 10
0.3752877144762009
 20
0.4930112663057366
 10
0.2987087599944248
 20
0.1752767944487085
 10
0.1973944622688229
 20
0.1752767944487085
 10
0.1174851938975943
 20
0.4930112663057366
 10
0.0896600256100814
 20
0.1752767944487085
 10
0.0000000000000001
 20
0.1752767944487085
  0
LWPOLYLINE
  5
34
102
{ACAD_REACTORS
330
1BE
102
}
330
1D
100
AcDbEntity
  8
TEXT-GRAY
100
AcDbPolyline
 90
        5
 70
     1
 43
0.0
 10
0.5505660310062117
 20
0.1752767944487085
 10
0.5505660310062117
 20
0.5201225784624666
 10
0.6416519423802962
 20
0.5201225784624666
 10
0.6416519423802962
 20
0.1752767944487085
 10
0.5505660310062117
 20
0.1752767944487085
  0
LWPOLYLINE
  5
3B
102
{ACAD_REACTORS
330
1BF
102
}
330
1D
100
AcDbEntity
  8
TEXT-GRAY
100
AcDbPolyline
 90
       13
 70
     1
 43
0.0
 10
0.5474731617999196
 20
0.5714928224153991
 10
0.5474731617999196
 20
0.6288098380164536
 42
-0.1883074803638932
 10
0.5513377262264826
 20
0.6414735544516654
 42
-0.2159435161643535
 10
0.5629314195061711
 20
0.6456942859029685
 10
0.6311876334269211
 20
0.6456942859029685
 42
-0.2288445935800111
 10
0.6418909091447587
 20
0.6414735544516654
 42
-0.1763562374232752
 10
0.6454571456360689
 20
0.6288098380164536
 10
0.6454571456360689
 20
0.5714928224153991
 42
-0.1943541296589125
 10
0.6418909091447587
 20
0.5602568182417533
 42
-0.2096410684182619
 10
0.6311876334269211
 20
0.5565109761567706
 10
0.5629314195061711
 20
0.5565109761567706
 42
-0.1965331617699563
 10
0.551636054161735
 20
0.5604349017541234
 42
-0.2135460038275524
 10
0.5474731617999196
 20
0.5714928224153991
  0
LWPOLYLINE
  5
4A
102
{ACAD_REACTORS
330
1C5
102
}
330
1D
100
AcDbEntity
  8
TEXT-RED
100
AcDbPolyline
 90
       12
 70
     1
 43
0.0
 10
1.855753791898883
 20
0.5703040769182958
 10
1.749208100737245
 20
0.5703040769182958
 10
1.749208100737245
 20
0.4311767133994287
 10
1.855281946695168
 20
0.4311767133994287
 42
0.1378892503752188
 10
1.880487613061407
 20
0.4371219629662482
 42
0.1061516643405155
 10
1.890061504452931
 20
0.4460702789425233
 42
0.0752237691491799
 10
1.896895649500299
 20
0.460071904842465
 42
0.0778530288832081
 10
1.902359921375588
 20
0.5032381305759515
 42
0.0564276025149389
 10
1.899452746088178
 20
0.5325792918405643
 42
0.095076106856608
 10
1.890715999412924
 20
0.5535383513733607
 42
0.1319298941216669
 10
1.876149681349825
 20
0.5661122650117364
 42
0.1129501247093477
 10
1.855753791898883
 20
0.5703040769182958
  0
LWPOLYLINE
  5
58
102
{ACAD_REACTORS
330
1C7
102
}
330
1D
100
AcDbEntity
  8
TEXT-RED
100
AcDbPolyline
 90
       23
 70
     1
 43
0.0
 10
2.401085080890193
 20
0.451391475175396
 10
2.401085080890193
 20
0.502049385078848
 10
2.456975906310984
 20
0.5208364345932495
 10
2.471953186325706
 20
0.6169178168015124
 10
2.547828939245814
 20
0.6169178168015124
 10
2.547828939245814
 20
0.5208364345932495
 10
2.625120227777072
 20
0.5208364345932495
 10
2.625120227777072
 20
0.451391475175396
 10
2.547828939245814
 20
0.451391475175396
 10
2.547828939245814
 20
0.312977967787312
 42
0.0356379455033458
 10
2.549609774369517
 20
0.2833386307955768
 42
0.0811642329835157
 10
2.554952279740622
 20
0.2643422951021078
 42
0.1858874482849488
 10
2.577068121063173
 20
0.244721753866562
 42
0.0076184446139192
 10
2.607448863857263
 20
0.2345547073915278
 42
0.0469611640188665
 10
2.620599646309214
 20
0.2311657933719365
 10
2.620599646309214
 20
0.1752767944487085
 10
2.541405756150071
 20
0.1752767944487085
 42
-0.1146121843643247
 10
2.504464842943029
 20
0.1829913113213321
 42
-0.132229815857891
 10
2.478071953160988
 20
0.2061345575229422
 42
-0.0940182241125145
 10
2.462242307616974
 20
0.2447068374697993
 42
-0.0555506677049525
 10
2.456975906310984
 20
0.2987081511619036
 10
2.456975906310984
 20
0.451391475175396
 10
2.401085080890193
 20
0.451391475175396
  0
LWPOLYLINE
  5
71
102
{ACAD_REACTORS
330
1CA
102
}
330
1D
100
AcDbEntity
  8
TEXT-RED
100
AcDbPolyline
 90
       22
 70
     1
 43
0.0
 10
3.589495720107105
 20
0.5260693501105883
 42
-0.0932412511784359
 10
3.634655872346617
 20
0.5185183047698327
 42
-0.1254375778784052
 10
3.666908775142547
 20
0.4958651687475662
 42
-0.1084619648488494
 10
3.686254428494896
 20
0.4581099420437885
 42
-0.0689905889343237
 10
3.692708053216686
 20
0.4052541467398021
 10
3.692708053216686
 20
0.1752767944487085
 10
3.601870241094878
 20
0.1752767944487085
 10
3.601870241094878
 20
0.4064428922369056
 42
0.0660852200863579
 10
3.59946535263723
 20
0.4269407611351025
 42
0.1056585132217627
 10
3.592296349703354
 20
0.4415816611820138
 42
0.1272161701661909
 10
3.580317569854181
 20
0.4503655923776398
 42
0.0972102752618352
 10
3.56357467552878
 20
0.4532940768032824
 42
0.0885878555139059
 10
3.519221226379493
 20
0.4465162487641
 42
0.077710311269079
 10
3.480332049105495
 20
0.4233288622047228
 10
3.480332049105495
 20
0.1752767944487085
 10
3.389479016170664
 20
0.1752767944487085
 10
3.389479016170664
 20
0.5201225784624666
 10
3.462264944047086
 20
0.5201225784624666
 10
3.480332049105495
 20
0.4832608134831443
 42
-0.0353892151285229
 10
3.522843779878989
 20
0.5102534032982943
 42
-0.0728322192286089
 10
3.555720736008866
 20
0.5227390362211358
 42
-0.0544633437581111
 10
3.589495720107105
 20
0.5260693501105883
  0
LWPOLYLINE
  5
89
102
{ACAD_REACTORS
330
1C6
102
}
330
1D
100
AcDbEntity
  8
TEXT-RED
100
AcDbPolyline
 90
       17
 70
     1
 43
0.0
 10
2.026516093204943
 20
0.5201225784624666
 10
2.12187448679461
 20
0.5201225784624666
 10
2.181814048479542
 20
0.2784929327615455
 42
0.1680883445175794
 10
2.192925241986399
 20
0.2601209548182838
 42
0.1691212946679427
 10
2.213442897941526
 20
0.2539970129065732
 42
0.0518086164809523
 10
2.216060877781497
 20
0.2532834611920508
 10
2.285026381589124
 20
0.5201225784624666
 10
2.379912929975073
 20
0.5201225784624666
 10
2.2602925604266
 20
0.0661149499446615
 10
2.21297105273781
 20
0.0
 10
2.147795531372934
 20
0.0
 10
2.196547795485895
 20
0.1752767944487085
 42
-0.0815316895695442
 10
2.160444026995122
 20
0.1807616144215795
 42
-0.0970784439939463
 10
2.131326611681949
 20
0.1972162265483224
 42
-0.0875143454723418
 10
2.109195549546374
 20
0.2246403264126769
 42
-0.0638836232247607
 10
2.094050840588399
 20
0.2630342184309034
 10
2.026516093204943
 20
0.5201225784624666
  0
LWPOLYLINE
  5
9C
102
{ACAD_REACTORS
330
1C8
102
}
330
1D
100
AcDbEntity
  8
TEXT-RED
100
AcDbPolyline
 90
       22
 70
     1
 43
0.0
 10
2.66863653221009
 20
0.1752767944487085
 10
2.66863653221009
 20
0.683985285225159
 10
2.758774186932835
 20
0.683985285225159
 10
2.758774186932835
 20
0.4832608134831443
 42
-0.0349812911378511
 10
2.80104238469796
 20
0.5100159586151339
 42
-0.0697958386932639
 10
2.834162873836206
 20
0.5227390362211358
 42
-0.0522006296457192
 10
2.868653236146531
 20
0.5260693501105883
 42
-0.0932412511784358
 10
2.913798167573019
 20
0.5185183047698327
 42
-0.1254375778784047
 10
2.946066291181972
 20
0.4958651687475662
 42
-0.1084619648488494
 10
2.965411944534321
 20
0.4581099420437885
 42
-0.0689905889343073
 10
2.971865569256112
 20
0.4052541467398021
 10
2.971865569256112
 20
0.1752767944487085
 10
2.881012536321281
 20
0.1752767944487085
 10
2.881012536321281
 20
0.4064428922369056
 42
0.0660852200863579
 10
2.878622868676655
 20
0.4269407611351025
 42
0.1056585132217627
 10
2.871438644929757
 20
0.4415816611820138
 42
0.1272161701661909
 10
2.859475085893608
 20
0.4503655923776398
 42
0.0972102752618352
 10
2.842716970755184
 20
0.4532940768032824
 42
0.088587855513906
 10
2.798363521605896
 20
0.4465162487641
 42
0.0777103112690791
 10
2.759489565144921
 20
0.4233288622047228
 10
2.759489565144921
 20
0.1752767944487085
 10
2.66863653221009
 20
0.1752767944487085
  0
LWPOLYLINE
  5
B4
102
{ACAD_REACTORS
330
1C0
102
}
330
1D
100
AcDbEntity
  8
TEXT-GRAY
100
AcDbPolyline
 90
       34
 70
     1
 43
0.0
 10
0.6946873432779551
 20
0.3481760979032103
 42
-0.0229891281782208
 10
0.6967086672474216
 20
0.3959192221127403
 42
-0.0328228697904816
 10
0.7027741612371234
 20
0.4354583281028243
 42
-0.0483316739793035
 10
0.7128214199136659
 20
0.4666716493692773
 42
-0.0727828188712317
 10
0.7267941262688635
 20
0.489443507733124
 42
-0.1227899169725496
 10
0.762229701067922
 20
0.5157237634987931
 42
-0.0944303865644604
 10
0.8083670295035159
 20
0.5234528923519188
 42
-0.0315898411800418
 10
0.8956492597031299
 20
0.5183995824282526
 42
-0.0456865147865019
 10
0.9667593760657095
 20
0.5032381305759515
 10
0.9667593760657095
 20
0.448776539498029
 42
0.0070437593452633
 10
0.8389882611433709
 20
0.4484492920180325
 42
0.0290350112768282
 10
0.82418297631581
 20
0.4474675495780431
 42
0.0847606935358247
 10
0.8076546954540353
 20
0.4410458885636011
 42
0.1825489438203349
 10
0.7945739287419907
 20
0.4249924970681467
 42
0.0517789759014607
 10
0.7877961007028083
 20
0.3930348780448645
 42
0.0296456838705223
 10
0.7855358099688792
 20
0.3499599771895165
 42
0.0216618761660938
 10
0.7870822445720254
 20
0.3081910220915498
 42
0.0471796273319681
 10
0.7917200263001613
 20
0.280157633081881
 42
0.072662787539697
 10
0.7993608744377529
 20
0.262588400817457
 42
0.1214661602111968
 10
0.8099134641066621
 20
0.2522132858283972
 42
0.0832516876593145
 10
0.8254021634389597
 20
0.247129686486815
 42
0.0435906078463293
 10
0.8478467743228099
 20
0.2454353055810845
 42
0.021166726074658
 10
0.9539175761181276
 20
0.2499539083432495
 10
0.9712784354522652
 20
0.2513808595641643
 10
0.9712784354522652
 20
0.1940650616281518
 42
-0.0978017422898016
 10
0.9130101190372676
 20
0.1759903461632311
 42
-0.0233934475797722
 10
0.8395225116804813
 20
0.1719472415999074
 10
0.8357173084247086
 20
0.1719472415999074
 42
-0.1019475670653864
 10
0.7625265069218723
 20
0.1805684623043164
 42
-0.117873950403685
 10
0.7277454270828068
 20
0.2064319722094134
 42
-0.0715503088956374
 10
0.7132826105482655
 20
0.2296496481867064
 42
-0.0491245187935067
 10
0.7029522447494936
 20
0.2610127422533067
 42
-0.0334830700706472
 10
0.6967528076051885
 20
0.3005215588254747
 42
-0.023527584931374
 10
0.6946873432779551
 20
0.3481760979032103
  0
LWPOLYLINE
  5
D8
102
{ACAD_REACTORS
330
1C1
102
}
330
1D
100
AcDbEntity
  8
TEXT-GRAY
100
AcDbPolyline
 90
       16
 70
     1
 43
0.0
 10
1.020746077777311
 20
0.1752767944487085
 10
1.020746077777311
 20
0.5201225784624666
 10
1.097325032259088
 20
0.5201225784624666
 10
1.111594544468236
 20
0.4766017077855419
 42
-0.0805753976673698
 10
1.160646658597752
 20
0.5117404767306502
 42
-0.1124747672601628
 10
1.210292384435168
 20
0.5234528923519188
 42
-0.0241299749672376
 10
1.233896821271378
 20
0.5225015915379756
 42
-0.060832138395251
 10
1.248581861676056
 20
0.519647689096146
 10
1.248581861676056
 20
0.4318905695302117
 42
0.0248536783236681
 10
1.199353186115472
 20
0.4337931711580981
 42
0.0387057739818888
 10
1.170873522867967
 20
0.4317718471886316
 42
0.0551847743452131
 10
1.147743975398077
 20
0.4257063531989297
 42
0.080499651857314
 10
1.128480514436053
 20
0.4141126599192412
 42
0.0645077730986141
 10
1.111594544468236
 20
0.39550369391721
 10
1.111594544468236
 20
0.1752767944487085
 10
1.020746077777311
 20
0.1752767944487085
  0
LWPOLYLINE
  5
EA
102
{ACAD_REACTORS
330
1C9
102
}
330
1D
100
AcDbEntity
  8
TEXT-RED
100
AcDbPolyline
 90
       30
 70
     1
 43
0.0
 10
3.020617833369073
 20
0.3410405807579851
 42
-0.0409081205529831
 10
3.025732026544832
 20
0.4159559003763376
 42
-0.0781599297384411
 10
3.041896529975355
 20
0.4673261443292702
 42
-0.1364366144086533
 10
3.072459922525721
 20
0.5006216728172821
 42
-0.0882009175036989
 10
3.116752488422916
 20
0.5177450874682596
 42
-0.0529086836461284
 10
3.177818390271558
 20
0.5234528923519188
 42
-0.0321103580647159
 10
3.218868922994835
 20
0.5210145181056196
 42
-0.0444041287441238
 10
3.253054869044698
 20
0.5137024395293266
 42
-0.0605636228964518
 10
3.280406670047193
 20
0.5015136124604352
 42
-0.0762678881360705
 10
3.300893884376273
 20
0.4844495589802478
 42
-0.0695139514449708
 10
3.315825501951926
 20
0.4611571488110112
 42
-0.0499044136612151
 10
3.326495291881113
 20
0.4302847737562754
 42
-0.0350340529330662
 10
3.332888033350811
 20
0.3918309117347381
 42
-0.0250615206333876
 10
3.335018947174044
 20
0.3457970848277011
 42
-0.0247570817049555
 10
3.332933695789881
 20
0.2998822846785048
 42
-0.035093333100506
 10
3.326632279198321
 20
0.2617856551386192
 42
-0.0509721690967282
 10
3.316160359838434
 20
0.2315076528324352
 42
-0.0726634493786117
 10
3.301487496084174
 20
0.2090479733436921
 42
-0.0773754337522631
 10
3.281182931511371
 20
0.1928163461277374
 42
-0.0591962390389137
 10
3.253800688882829
 20
0.1812223484317884
 42
-0.0423681953096553
 10
3.219355989011574
 20
0.174265980255845
 42
-0.0302514249026995
 10
3.177818390271558
 20
0.1719472415999074
 42
-0.0327640807112059
 10
3.136935286491535
 20
0.1744296039958433
 42
-0.0448781589059774
 10
3.10273411962865
 20
0.1818763867673907
 42
-0.060332284523739
 10
3.075214889682901
 20
0.1942878943308099
 42
-0.0746618379907621
 10
3.054392817467312
 20
0.2116639744779708
 42
-0.0666236365557017
 10
3.03961340802189
 20
0.2341087375699512
 42
-0.0504061851560683
 10
3.029065384596889
 20
0.2631532451887439
 42
-0.0367317311855017
 10
3.022733526379283
 20
0.2987971929180886
 42
-0.0269050519350767
 10
3.020617833369073
 20
0.3410405807579851
  0
LWPOLYLINE
  5
10A
102
{ACAD_REACTORS
330
1C2
102
}
330
1D
100
AcDbEntity
  8
TEXT-GRAY
100
AcDbPolyline
 90
       21
 70
     1
 43
0.0
 10
1.390325682953593
 20
0.4318905695302117
 42
0.0242919032698246
 10
1.38033778544784
 20
0.3839084785562191
 42
0.0375411437912006
 10
1.377007471558388
 20
0.3446083393305977
 42
0.0398730504554166
 10
1.38033778544784
 20
0.2901464438364147
 42
0.0541422102818605
 10
1.38500448672072
 20
0.2730230291854372
 42
0.0823828350418203
 10
1.392347006923059
 20
0.2606561186041756
 42
0.1602559612730944
 10
1.412086879332706
 20
0.2480513067153631
 42
0.0555482263236158
 10
1.442053616012568
 20
0.2454353055810845
 42
0.0316904222703728
 10
1.470353673666401
 20
0.2467432300441587
 42
0.1007429782984575
 10
1.488551677716809
 20
0.2532834611920508
 42
0.1818370389300056
 10
1.501154510899928
 20
0.2694555750290851
 42
0.0526041808970857
 10
1.507395044239396
 20
0.2969244240837275
 42
0.0324432335036989
 10
1.50948029562356
 20
0.3327178401969589
 42
0.018652937942289
 10
1.507927772695204
 20
0.3912220792138144
 42
0.0530768467862457
 10
1.502463500819915
 20
0.4224962837323597
 42
0.1914595274942226
 10
1.48998243414098
 20
0.4402133100912379
 42
0.0889989641192241
 10
1.472167994578754
 20
0.4475269107488332
 42
0.0570509400215991
 10
1.448236310262548
 20
0.4499652849951324
 42
0.0204219730568417
 10
1.425137204418705
 20
0.4491616260675131
 42
0.045760246847436
 10
1.409828110680079
 20
0.4467536934472601
 42
0.1785155631256146
 10
1.390325682953593
 20
0.4318905695302117
  0
LWPOLYLINE
  5
121
102
{ACAD_REACTORS
330
1C9
102
}
330
1D
100
AcDbEntity
  8
TEXT-RED
100
AcDbPolyline
 90
       21
 70
     1
 43
0.0
 10
3.124789077699108
 20
0.4318905695302117
 42
0.0242919032698246
 10
3.114804224355961
 20
0.3839084785562191
 42
0.0375411437912007
 10
3.111470866303904
 20
0.3446083393305977
 42
0.0398730504554166
 10
3.114804224355961
 20
0.2901464438364147
 42
0.0541422102818607
 10
3.119461793141027
 20
0.2730230291854372
 42
0.0823828350418199
 10
3.12681344583118
 20
0.2606561186041756
 42
0.1602559612730945
 10
3.146539619509106
 20
0.2480513067153631
 42
0.0555482263236158
 10
3.176509400351572
 20
0.2454353055810845
 42
0.0316904222703728
 10
3.204820112574522
 20
0.2467432300441587
 42
0.1007429782984576
 10
3.223008984137115
 20
0.2532834611920508
 42
0.1818370389300056
 10
3.235611817320236
 20
0.2694555750290851
 42
0.0526041808970857
 10
3.241852350659703
 20
0.2969244240837275
 42
0.0324432335036989
 10
3.243937602043866
 20
0.3327178401969589
 42
0.018652937942289
 10
3.242385079115511
 20
0.3912220792138144
 42
0.0530768467862456
 10
3.236920807240222
 20
0.4224962837323597
 42
0.1914595274942226
 10
3.224439740561286
 20
0.4402133100912379
 42
0.0889989641192241
 10
3.20663138932427
 20
0.4475269107488332
 42
0.0570509400215991
 10
3.182689050438947
 20
0.4499652849951324
 42
0.0204219730568417
 10
3.159599077082918
 20
0.4491616260675131
 42
0.045760246847436
 10
3.144286939181689
 20
0.4467536934472601
 42
0.178515563125615
 10
3.124789077699108
 20
0.4318905695302117
  0
LWPOLYLINE
  5
138
102
{ACAD_REACTORS
330
1C5
102
}
330
1D
100
AcDbEntity
  8
TEXT-RED
100
AcDbPolyline
 90
       17
 70
     1
 43
0.0
 10
1.658111534794044
 20
0.1752767944487085
 10
1.658111534794044
 20
0.6506897567371471
 10
1.862892353206713
 20
0.6506897567371471
 42
-0.0918352741933524
 10
1.923821267738147
 20
0.6408190594916725
 42
-0.133922059302927
 10
1.965389308104209
 20
0.6112100119178533
 42
-0.1060028202258852
 10
1.987322499670483
 20
0.566558234833313
 42
-0.0661506729116568
 10
1.99464371073459
 20
0.5039519867067345
 42
-0.0710178368558241
 10
1.985846080807243
 20
0.4324841812381122
 42
-0.0374247138640044
 10
1.976089539659442
 20
0.4061156447569091
 42
-0.057718769966508
 10
1.964430396883754
 20
0.3867030198272586
 42
-0.1271250474471338
 10
1.932329702218055
 20
0.3624456101123582
 42
-0.110827379232239
 10
1.875723498585179
 20
0.3505535888974171
 42
-0.0258396192335467
 10
1.802480946318064
 20
0.3564988384642365
 42
-0.0037744416271255
 10
1.763835302052436
 20
0.3612568646152548
 42
-0.0304647996844293
 10
1.749208100737245
 20
0.3636343556094617
 10
1.749208100737245
 20
0.1752767944487085
 10
1.658111534794044
 20
0.1752767944487085
  0
LWPOLYLINE
  5
14B
102
{ACAD_REACTORS
330
1C2
102
}
330
1D
100
AcDbEntity
  8
TEXT-GRAY
100
AcDbPolyline
 90
       30
 70
     1
 43
0.0
 10
1.286159004867464
 20
0.3410405807579851
 42
-0.040908120552983
 10
1.29127167596192
 20
0.4159559003763376
 42
-0.0781599297384411
 10
1.307443789798954
 20
0.4673261443292702
 42
-0.1364366144086534
 10
1.338004138186717
 20
0.5006216728172821
 42
-0.088200917503699
 10
1.382299748246516
 20
0.5177450874682596
 42
-0.0529086836461285
 10
1.443361083851251
 20
0.5234528923519188
 42
-0.0321103580647177
 10
1.484408572411924
 20
0.5210145181056196
 42
-0.0444041287441238
 10
1.518597562624391
 20
0.5137024395293266
 42
-0.0605636228964518
 10
1.545949363626886
 20
0.5015136124604352
 42
-0.0762678881361016
 10
1.566436577955966
 20
0.4844495589802478
 42
-0.0695139514449315
 10
1.581368195531619
 20
0.4611571488110112
 42
-0.0499044136612151
 10
1.592037985460806
 20
0.4302847737562754
 42
-0.0350340529330662
 10
1.598430726930504
 20
0.3918309117347381
 42
-0.0250615206333974
 10
1.600561640753737
 20
0.3457970848277011
 42
-0.0247570817049556
 10
1.59846116855655
 20
0.2998822846785048
 42
-0.035093333100506
 10
1.592174972778014
 20
0.2617856551386192
 42
-0.0509721690967282
 10
1.581703053418127
 20
0.2315076528324352
 42
-0.0726634493786118
 10
1.567030189663867
 20
0.2090479733436921
 42
-0.0773754337522942
 10
1.546725625091063
 20
0.1928163461277374
 42
-0.0591962390389137
 10
1.519343382462522
 20
0.1812223484317884
 42
-0.0423681953096553
 10
1.484891072184755
 20
0.174265980255845
 42
-0.0302514249026978
 10
1.443361083851251
 20
0.1719472415999074
 42
-0.0327640807112059
 10
1.402470369664717
 20
0.1744296039958433
 42
-0.0448781589059774
 10
1.368267680720529
 20
0.1818763867673907
 42
-0.060332284523739
 10
1.340754539099989
 20
0.1942878943308099
 42
-0.0746618379907621
 10
1.319929422721796
 20
0.2116639744779708
 42
-0.0666236365556613
 10
1.305154579520281
 20
0.2341087375699512
 42
-0.0504061851560684
 10
1.294601989851372
 20
0.2631532451887439
 42
-0.0367317311855017
 10
1.288268609552464
 20
0.2987971929180886
 42
-0.0269050519351071
 10
1.286159004867464
 20
0.3410405807579851
  0
HATCH
  5
1BD
330
1D
100
AcDbEntity
  8
TEXT-GRAY
100
AcDbHatch
 10
0.0
 20
0.0
 30
0.0
210
0.0
220
0.0
230
1.0
  2
SOLID
 70
     1
 71
     1
 91
        1
 92
        1
 93
       14
 72
     1
 10
0.0000000000000001
 20
0.1752767944487085
 11
0.0416193345059499
 21
0.6506897567371471
 72
     1
 10
0.0416193345059499
 20
0.6506897567371471
 11
0.1681431038010463
 21
0.6506897567371471
 72
     1
 10
0.1681431038010463
 20
0.6506897567371471
 11
0.247338516041492
 21
0.3260572124180542
 72
     1
 10
0.247338516041492
 20
0.3260572124180542
 11
0.3260590389156172
 21
0.6506897567371471
 72
     1
 10
0.3260590389156172
 20
0.6506897567371471
 11
0.4521056357224397
 21
0.6506897567371471
 72
     1
 10
0.4521056357224397
 20
0.6506897567371471
 11
0.4963403625301471
 21
0.1752767944487085
 72
     1
 10
0.4963403625301471
 20
0.1752767944487085
 11
0.4066806413363264
 21
0.1752767944487085
 72
     1
 10
0.4066806413363264
 20
0.1752767944487085
 11
0.3752877144762009
 21
0.4930112663057366
 72
     1
 10
0.3752877144762009
 20
0.4930112663057366
 11
0.2987087599944248
 21
0.1752767944487085
 72
     1
 10
0.2987087599944248
 20
0.1752767944487085
 11
0.1973944622688229
 21
0.1752767944487085
 72
     1
 10
0.1973944622688229
 20
0.1752767944487085
 11
0.1174851938975943
 21
0.4930112663057366
 72
     1
 10
0.1174851938975943
 20
0.4930112663057366
 11
0.0896600256100814
 21
0.1752767944487085
 72
     1
 10
0.0896600256100814
 20
0.1752767944487085
 11
0.0000000000000001
 21
0.1752767944487085
 72
     1
 10
0.0000000000000001
 20
0.1752767944487085
 11
0.0000000000000001
 21
0.1752767944487085
 97
        1
330
24
 75
     0
 76
     1
 98
        1
 10
-0.0349603810164775
 20
0.1524455749140718
1001
ACAD
1010
0.0
1020
0.0
1030
0.0
  0
HATCH
  5
1BE
330
1D
100
AcDbEntity
  8
TEXT-GRAY
100
AcDbHatch
 10
0.0
 20
0.0
 30
0.0
210
0.0
220
0.0
230
1.0
  2
SOLID
 70
     1
 71
     1
 91
        1
 92
        1
 93
        5
 72
     1
 10
0.5505660310062117
 20
0.1752767944487085
 11
0.5505660310062117
 21
0.5201225784624666
 72
     1
 10
0.5505660310062117
 20
0.5201225784624666
 11
0.6416519423802962
 21
0.5201225784624666
 72
     1
 10
0.6416519423802962
 20
0.5201225784624666
 11
0.6416519423802962
 21
0.1752767944487085
 72
     1
 10
0.6416519423802962
 20
0.1752767944487085
 11
0.5505660310062117
 21
0.1752767944487085
 72
     1
 10
0.5505660310062117
 20
0.1752767944487085
 11
0.5505660310062117
 21
0.1752767944487085
 97
        1
330
34
 75
     0
 76
     1
 98
        1
 10
-0.0349603810164775
 20
0.1524455749140718
1001
ACAD
1010
0.0
1020
0.0
1030
0.0
  0
HATCH
  5
1BF
330
1D
100
AcDbEntity
  8
TEXT-GRAY
100
AcDbHatch
 10
0.0
 20
0.0
 30
0.0
210
0.0
220
0.0
230
1.0
  2
SOLID
 70
     1
 71
     1
 91
        1
 92
        1
 93
       13
 72
     1
 10
0.5474731617999196
 20
0.5714928224153991
 11
0.5474731617999196
 21
0.6288098380164536
 72
     2
 10
0.5656218268345913
 20
0.630192970755272
 40
0.0182012938747197
 50
175.6418407014946
 51
218.2992114073367
 73
     0
 72
     2
 10
0.5617930966007493
 20
0.6307876795407876
 40
0.0149500064305679
 50
225.6246753032742
 51
274.3668398711414
 73
     0
 72
     1
 10
0.5629314195061711
 20
0.6456942859029685
 11
0.6311876334269211
 21
0.6456942859029685
 72
     2
 10
0.6321698296440981
 20
0.6325035330064808
 40
0.0132272699898821
 50
265.7415594617891
 51
317.3010585925538
 73
     0
 72
     2
 10
0.6262804611730807
 20
0.6302434840168466
 40
0.0192301993709753
 50
324.2689673804306
 51
364.2754703081528
 73
     0
 72
     1
 10
0.6454571456360689
 20
0.6288098380164536
 11
0.6454571456360689
 21
0.5714928224153991
 72
     2
 10
0.6297669641888812
 20
0.5702888340215038
 40
0.0157363077593922
 50
355.611999000231
 51
399.6062175218991
 73
     0
 72
     2
 10
0.6322686211170757
 20
0.5705867464421508
 40
0.0141172179806454
 50
47.03124341518984
 51
94.39156764264102
 73
     0
 72
     1
 10
0.6311876334269211
 20
0.5565109761567706
 11
0.5629314195061711
 21
0.5565109761567706
 72
     2
 10
0.5620823708457157
 20
0.572286229491247
 40
0.0157980853711685
 50
86.91922452913958
 51
131.3944660406891
 73
     0
 72
     2
 10
0.5619098596911134
 20
0.570615150925454
 40
0.0144633520750158
 50
135.2620677004958
 51
183.4789850614727
 73
     0
 72
     1
 10
0.5474731617999196
 20
0.5714928224153991
 11
0.5474731617999196
 21
0.5714928224153991
 97
        1
330
3B
 75
     0
 76
     1
 98
        1
 10
-0.0349603810164775
 20
0.1524455749140718
1001
ACAD
1010
0.0
1020
0.0
1030
0.0
  0
HATCH
  5
1C0
330
1D
100
AcDbEntity
  8
TEXT-GRAY
100
AcDbHatch
 10
0.0
 20
0.0
 30
0.0
210
0.0
220
0.0
230
1.0
  2
SOLID
 70
     1
 71
     1
 91
        1
 92
        1
 93
       34
 72
     2
 10
1.214616030315336
 20
0.350077974119305
 40
0.5199321655154222
 50
179.7904154992175
 51
185.0582076977404
 73
     0
 72
     2
 10
1.000572124284262
 20
0.3695398595471971
 40
0.3050063463138826
 50
184.961591177561
 51
192.4813391512255
 73
     0
 72
     2
 10
0.8688743989493632
 20
0.3992160253637114
 40
0.170008215907044
 50
192.3087569665484
 51
203.3769478223085
 73
     0
 72
     2
 10
0.7976119460679242
 20
0.4303172999651613
 40
0.0922554716323781
 50
203.2074684948184
 51
219.8587008780153
 73
     0
 72
     2
 10
0.7972117188097253
 20
0.4315246663413517
 40
0.0911769133466147
 50
219.4374770529955
 51
247.4386863416477
 73
     0
 72
     2
 10
0.8055784036639897
 20
0.398531115770543
 40
0.124952897918856
 50
249.7009350090099
 51
271.2787999327404
 73
     0
 72
     2
 10
0.8120564786102148
 20
-0.1691304899318403
 40
0.6925932092147039
 50
269.6947835186498
 51
276.9322349981942
 73
     0
 72
     2
 10
0.8484128964611991
 20
0.1225112149529162
 40
0.3986964678983381
 50
276.8042143326444
 51
287.2675164228719
 73
     0
 72
     1
 10
0.9667593760657095
 20
0.5032381305759515
 11
0.9667593760657095
 21
0.448776539498029
 72
     2
 10
0.9144880443227094
 20
-4.086066981505726
 40
4.535144766389704
 50
89.3396036583715
 51
90.9538876909594
 73
     1
 72
     2
 10
0.8400315841062043
 20
0.3205880251107224
 40
0.1278655234922502
 50
90.46751199340585
 51
97.1199774171112
 73
     1
 72
     2
 10
0.8347233227483223
 20
0.3958571165940125
 40
0.0526757600392865
 50
101.54272561012
 51
120.9221245987022
 73
     1
 72
     2
 10
0.8223667308685831
 20
0.4157021086294436
 40
0.029304456442492
 50
120.1351163505028
 51
161.5166003585789
 73
     1
 72
     2
 10
0.9450695696956614
 20
0.3763766174814469
 40
0.1581532222056973
 50
162.0975481756131
 51
173.9538270794763
 73
     1
 72
     2
 10
1.149594366372439
 20
0.3524533042818777
 40
0.3640670943255288
 50
173.6000944629489
 51
180.3923953532557
 73
     1
 72
     2
 10
1.268138893295446
 20
0.346914547227496
 40
0.4826126922076991
 50
179.638444150984
 51
184.6022041776311
 73
     1
 72
     2
 10
0.9376165336263994
 20
0.3186947544718952
 40
0.1509003001157511
 50
183.9914206989488
 51
194.7961827171795
 73
     1
 72
     2
 10
0.8556691262907683
 20
0.2975229405501065
 40
0.0662649326044679
 50
195.1922580686626
 51
211.8161260167849
 73
     1
 72
     2
 10
0.8256760335810848
 20
0.2787995943136916
 40
0.0309077724093995
 50
211.6347351863199
 51
239.3370203444206
 73
     1
 72
     2
 10
0.8328177638353177
 20
0.2958607887822569
 40
0.0492921034260791
 50
242.3114767787511
 51
261.3474606529535
 73
     1
 72
     2
 10
0.8463235842781011
 20
0.3747617950344397
 40
0.1293354591063143
 50
260.6908797927596
 51
270.6747908046021
 73
     1
 72
     2
 10
0.8475369120546362
 20
1.499934543466537
 40
1.25449927615356
 50
270.0141521009336
 51
274.864484102984
 73
     1
 72
     1
 10
0.9539175761181276
 20
0.2499539083432495
 11
0.9712784354522652
 21
0.2513808595641643
 72
     1
 10
0.9712784354522652
 20
0.2513808595641643
 11
0.9712784354522652
 21
0.1940650616281518
 72
     2
 10
0.8963837746081258
 20
0.3325480038481863
 40
0.1574380370459314
 50
61.59448955636654
 51
83.93793890179708
 73
     0
 72
     2
 10
0.8330823004026875
 20
0.9588829323823655
 40
0.7869620433976263
 50
84.17070136778845
 51
89.53110693540054
 73
     0
 72
     1
 10
0.8395225116804813
 20
0.1719472415999074
 11
0.8357173084247086
 21
0.1719472415999074
 72
     2
 10
0.8200434901136805
 20
0.3538739274501789
 40
0.1826006232325358
 50
85.075865127039
 51
108.3600821200968
 73
     0
 72
     2
 10
0.7992279764644755
 20
0.2662427996310877
 40
0.093204559668334
 50
113.1894915396505
 51
140.0801272454766
 73
     0
 72
     2
 10
0.8012223158134221
 20
0.2683158374418412
 40
0.0960649049009913
 50
139.8951733394063
 51
156.2653987660679
 73
     0
 72
     2
 10
0.867342438096846
 20
0.2977766777590661
 40
0.168450950198126
 50
156.1444339138709
 51
167.3939009796797
 73
     0
 72
     2
 10
0.99451280167804
 20
0.3270031053307328
 40
0.2989352544876143
 50
167.2468323736907
 51
174.9177209790342
 73
     0
 72
     2
 10
1.20180856877263
 20
0.3462839419889538
 40
0.5071247554608478
 50
174.8226486749857
 51
180.2137793480696
 73
     0
 72
     1
 10
0.6946873432779551
 20
0.3481760979032103
 11
0.6946873432779551
 21
0.3481760979032103
 97
        1
330
B4
 75
     0
 76
     1
 98
        1
 10
-0.0349603810164775
 20
0.1524455749140718
1001
ACAD
1010
0.0
1020
0.0
1030
0.0
  0
HATCH
  5
1C1
330
1D
100
AcDbEntity
  8
TEXT-GRAY
100
AcDbHatch
 10
0.0
 20
0.0
 30
0.0
210
0.0
220
0.0
230
1.0
  2
SOLID
 70
     1
 71
     1
 91
        1
 92
        1
 93
       16
 72
     1
 10
1.020746077777311
 20
0.1752767944487085
 11
1.020746077777311
 21
0.5201225784624666
 72
     1
 10
1.020746077777311
 20
0.5201225784624666
 11
1.097325032259088
 21
0.5201225784624666
 72
     1
 10
1.097325032259088
 20
0.5201225784624666
 11
1.111594544468236
 21
0.4766017077855419
 72
     2
 10
1.244437268897258
 20
0.3429659792394641
 40
0.1884295554783436
 50
225.1705040479414
 51
243.5972159016927
 73
     0
 72
     2
 10
1.211173613045121
 20
0.4086440720149234
 40
0.114812202274129
 50
243.8907918763913
 51
269.5602281386679
 73
     0
 72
     2
 10
1.212244334515651
 20
0.2785645037372034
 40
0.2448961677679514
 50
269.5433179430547
 51
275.0724278925614
 73
     0
 72
     2
 10
1.229554147138809
 20
0.4609473043473566
 40
0.0617072855517635
 50
274.0355485122913
 51
287.9600884366593
 73
     0
 72
     1
 10
1.248581861676056
 20
0.519647689096146
 11
1.248581861676056
 21
0.4318905695302117
 72
     2
 10
1.204841316941958
 20
-0.0620372588614032
 40
0.4958608019528185
 50
84.9392850010685
 51
90.63415610337293
 73
     1
 72
     2
 10
1.198149495755201
 20
0.2491083832840643
 40
0.1846887103819838
 50
89.62657779356016
 51
98.49286189291752
 73
     1
 72
     2
 10
1.186703181985212
 20
0.32427591283572
 40
0.1086552070090232
 50
98.37706810352306
 51
111.0116715202816
 73
     1
 72
     2
 10
1.173884337196004
 20
0.3604725103818166
 40
0.070276402608659
 50
111.8368548044861
 51
130.2463188715139
 73
     1
 72
     2
 10
1.191856507616234
 20
0.3396388865736808
 40
0.0977898738515406
 50
130.3972532514171
 51
145.1608900952568
 73
     1
 72
     1
 10
1.111594544468236
 20
0.39550369391721
 11
1.111594544468236
 21
0.1752767944487085
 72
     1
 10
1.111594544468236
 20
0.1752767944487085
 11
1.020746077777311
 21
0.1752767944487085
 72
     1
 10
1.020746077777311
 20
0.1752767944487085
 11
1.020746077777311
 21
0.1752767944487085
 97
        1
330
D8
 75
     0
 76
     1
 98
        1
 10
-0.0349603810164775
 20
0.1524455749140718
1001
ACAD
1010
0.0
1020
0.0
1030
0.0
  0
HATCH
  5
1C2
330
1D
100
AcDbEntity
  8
TEXT-GRAY
100
AcDbHatch
 10
0.0
 20
0.0
 30
0.0
210
0.0
220
0.0
230
1.0
  2
SOLID
 70
     1
 71
     1
 91
        2
 92
        1
 93
       30
 72
     2
 10
1.745775880860402
 20
0.3473056857538349
 40
0.4596595742917985
 50
179.219041199578
 51
188.5892672078823
 73
     0
 72
     2
 10
1.462665276168372
 20
0.3902293883547505
 40
0.1733136452000416
 50
188.5364777731353
 51
206.4130707393759
 73
     0
 72
     2
 10
1.382597433515457
 20
0.4290189590384098
 40
0.0843534860499277
 50
207.0087701028281
 51
238.085854021312
 73
     0
 72
     2
 10
1.408309618919584
 20
0.3846069642931946
 40
0.1356549785854117
 50
238.7839320009168
 51
258.9459185787553
 73
     0
 72
     2
 10
1.439724993974423
 20
0.2328843812063898
 40
0.29059126074079
 50
258.6024639297659
 51
270.7169453069864
 73
     0
 72
     2
 10
1.444920074652102
 20
0.2029818501508946
 40
0.3204748341784855
 50
269.7212762564572
 51
277.0779005236373
 73
     0
 72
     2
 10
1.460416453713881
 20
0.3252503357550985
 40
0.1972288945641309
 50
276.9871111277841
 51
287.1571071678799
 73
     0
 72
     2
 10
1.482143870267849
 20
0.3951169191449219
 40
0.1240620704779083
 50
287.0876504098538
 51
300.9508770078874
 73
     0
 72
     2
 10
1.500583736465673
 20
0.4262167749073336
 40
0.0879070752171196
 50
301.0685629566324
 51
318.5141019927507
 73
     0
 72
     2
 10
1.490538341293795
 20
0.4193627680062952
 40
0.0999841621843878
 50
319.38514811862
 51
335.2909851831375
 73
     0
 72
     2
 10
1.432430719209494
 20
0.3924029450769723
 40
0.1640411911207225
 50
335.220473520381
 51
346.6482421759119
 73
     0
 72
     2
 10
1.321167690210193
 20
0.3654957782609066
 40
0.2785109168173717
 50
346.5482508793782
 51
354.5741818072581
 73
     0
 72
     2
 10
1.140576365463508
 20
0.34757052037717
 40
0.459988693945271
 50
354.4784226911817
 51
360.2208980900735
 73
     0
 72
     2
 10
1.136142388530695
 20
0.3440375062016253
 40
0.4644225855321327
 50
359.7829203976418
 51
365.4556667991741
 73
     0
 72
     2
 10
1.324257241032597
 20
0.3255607991203732
 40
0.2754036673203588
 50
5.350003779949623
 51
13.38950403845408
 73
     0
 72
     2
 10
1.438822228558409
 20
0.2978741757969074
 40
0.1575418848528459
 50
13.24247481022855
 51
24.9143339913515
 73
     0
 72
     2
 10
1.49750166023149
 20
0.2704935387993822
 40
0.0927888674313809
 50
24.84449572776879
 51
41.46851456153187
 73
     0
 72
     2
 10
1.504747507691185
 20
0.2661434323058319
 40
0.0844927447051385
 50
42.51194694689715
 51
60.20982750498259
 73
     0
 72
     2
 10
1.484241834436404
 20
0.3022559330899828
 40
0.1260208208552944
 50
60.27608629427618
 51
73.82705129133484
 73
     0
 72
     2
 10
1.461143797848464
 20
0.3806703565348255
 40
0.2077659731176355
 50
73.73258141531123
 51
83.43685270361343
 73
     0
 72
     2
 10
1.444981387538941
 20
0.5159994031828512
 40
0.3440559769484268
 50
83.33882871764017
 51
90.26983081888446
 73
     0
 72
     2
 10
1.441836581268094
 20
0.4848621958152928
 40
0.3129186678351786
 50
89.72086066320244
 51
97.22714964633519
 73
     0
 72
     2
 10
1.426768810557204
 20
0.3683000729345016
 40
0.1953872384683834
 50
97.14382290172345
 51
107.4222425802834
 73
     0
 72
     2
 10
1.405753699036433
 20
0.3016738701941614
 40
0.1255254500273459
 50
107.3755052356472
 51
121.1859060075268
 73
     0
 72
     2
 10
1.388200250824436
 20
0.2723186857145772
 40
0.091323052757868
 50
121.3012045363258
 51
138.3807483919028
 73
     0
 72
     2
 10
1.396390386155313
 20
0.2780817143578742
 40
0.1012797862356359
 50
139.0208188923022
 51
154.2673000625914
 73
     0
 72
     2
 10
1.443564578953644
 20
0.3008357842563767
 40
0.153654894821596
 50
154.2614231301619
 51
165.8039007823683
 73
     0
 72
     2
 10
1.533704415876427
 20
0.3240227080426966
 40
0.2467287207424286
 50
165.7173228384291
 51
174.1318325417901
 73
     0
 72
     2
 10
1.679452490871063
 20
0.3395070071807061
 40
0.3932964759323175
 50
174.0587164483615
 51
180.2234129253398
 73
     0
 72
     1
 10
1.286159004867464
 20
0.3410405807579851
 11
1.286159004867464
 21
0.3410405807579851
 97
        1
330
14B
 92
       16
 93
       21
 72
     2
 10
1.87884778741299
 20
0.3051697834906549
 40
0.5046900079850218
 50
165.4581922653545
 51
171.0243917073363
 73
     1
 72
     2
 10
1.640017569701684
 20
0.3421119050184488
 40
0.2630219456806235
 50
170.856419407449
 51
179.4561773269252
 73
     1
 72
     2
 10
1.719600323247084
 20
0.3382249259339413
 40
0.342652316488281
 50
178.9325511963493
 51
188.0659430044691
 73
     1
 72
     2
 10
1.461506204624639
 20
0.3030699205237911
 40
0.0821908055767169
 50
189.0465869719995
 51
201.4429641704123
 73
     1
 72
     2
 10
1.425949825821255
 20
0.2889700547677836
 40
0.0439411927350844
 50
201.2794750422889
 51
220.1176890207309
 73
     1
 72
     2
 10
1.421375505703486
 20
0.2843571418367111
 40
0.0374752217300239
 50
219.2307545260716
 51
255.6490576647813
 73
     1
 72
     2
 10
1.438807477461641
 20
0.3811952640733502
 40
0.1357987619432282
 50
258.6520849549118
 51
271.3697308658793
 73
     1
 72
     2
 10
1.445896027874007
 20
0.4691190853840432
 40
0.2237167796028082
 50
269.0158770897956
 51
276.276357003502
 73
     1
 72
     2
 10
1.463387403735492
 20
0.2947145002894463
 40
0.0484744436347309
 50
278.2625944015626
 51
301.2735466815289
 73
     1
 72
     2
 10
1.473353916121774
 20
0.2781237012056268
 40
0.0291206023535156
 50
301.4591386210279
 51
342.6827079184787
 73
     1
 72
     2
 10
1.374091031750538
 20
0.3127659022243659
 40
0.1342419911030445
 50
341.1780241039497
 51
353.2229122868627
 73
     1
 72
     2
 10
1.232912256678613
 20
0.3308726804904729
 40
0.2765741939881523
 50
352.9494162843384
 51
360.3822505868759
 73
     1
 72
     2
 10
0.7248612462910731
 20
0.3411691780724345
 40
0.7846645638024572
 50
359.3828759745637
 51
363.6573187603917
 73
     1
 72
     2
 10
1.358304373290006
 20
0.3811941386031548
 40
0.1499590652226746
 50
3.834298057692314
 51
15.98721166096502
 73
     1
 72
     2
 10
1.473936824340389
 20
0.4156549366241289
 40
0.0293355637618033
 50
13.48613242730697
 51
56.84075856181408
 73
     1
 72
     2
 10
1.460693878894012
 20
0.3942253340844751
 40
0.054522595367914
 50
57.50799133160251
 51
77.8514521481949
 73
     1
 72
     2
 10
1.449551855505779
 20
0.3442176219715277
 40
0.1057558456740848
 50
77.65179244717869
 51
90.71274674017063
 73
     1
 72
     2
 10
1.446520818841627
 20
0.1669086878434607
 40
0.2830617955533721
 50
89.65275773185921
 51
94.33247869604129
 73
     1
 72
     2
 10
1.430610265978255
 20
0.3644952794934767
 40
0.0848430589089613
 50
93.69860806412952
 51
104.1787730439532
 73
     1
 72
     2
 10
1.420228457430697
 20
0.4128805599428683
 40
0.0354338310931719
 50
107.0684876277999
 51
147.5547663680418
 73
     1
 72
     1
 10
1.390325682953593
 20
0.4318905695302117
 11
1.390325682953593
 21
0.4318905695302117
 97
        1
330
10A
 75
     0
 76
     1
 98
        1
 10
-0.0349603810164775
 20
0.1524455749140718
1001
ACAD
1010
0.0
1020
0.0
1030
0.0
  0
HATCH
  5
1C5
330
1D
100
AcDbEntity
  8
TEXT-RED
100
AcDbHatch
 10
0.0
 20
0.0
 30
0.0
210
0.0
220
0.0
230
1.0
  2
SOLID
 70
     1
 71
     1
 91
        2
 92
        1
 93
       17
 72
     1
 10
1.658111534794044
 20
0.1752767944487085
 11
1.658111534794044
 21
0.6506897567371471
 72
     1
 10
1.658111534794044
 20
0.6506897567371471
 11
1.862892353206713
 21
0.6506897567371471
 72
     2
 10
1.866712771298765
 20
0.4812885811102773
 40
0.1694442501183315
 50
268.7080565864779
 51
289.696280270266
 73
     0
 72
     2
 10
1.890323704356795
 20
0.5498088066581733
 40
0.0969791362784035
 50
290.2068256429989
 51
320.7179581453081
 73
     0
 72
     2
 10
1.872231214265821
 20
0.5377375192902893
 40
0.1186450067238793
 50
321.7376468722154
 51
345.941318148983
 73
     0
 72
     2
 10
1.755413737650509
 20
0.5077074919349243
 40
0.239259448802611
 50
345.7608112632561
 51
360.8993727822122
 73
     0
 72
     2
 10
1.739929769421669
 20
0.4990316766439469
 40
0.2547614597035357
 50
358.8933548673149
 51
375.1421636632072
 73
     0
 72
     2
 10
1.805070643979139
 20
0.4843830829172414
 40
0.1880777885766737
 50
16.01826700445136
 51
24.59137858751017
 73
     0
 72
     2
 10
1.886457278838033
 20
0.4467408832612785
 40
0.098409106202089
 50
24.38210075542359
 51
37.59560803165674
 73
     0
 72
     2
 10
1.901447144532471
 20
0.4366823005906129
 40
0.0804040955571766
 50
38.43315571073376
 51
67.41262732859074
 73
     0
 72
     2
 10
1.877530541683213
 20
0.482621245957908
 40
0.1320800191028363
 50
65.48738102872184
 51
90.78391246376287
 73
     0
 72
     2
 10
1.89658449370416
 20
1.061679540017775
 40
0.711431865658397
 50
91.68029910103571
 51
97.60098612101147
 73
     0
 72
     2
 10
2.098301318614009
 20
2.918534187606983
 40
2.579056963876972
 50
96.58637858697409
 51
97.45141278012369
 73
     0
 72
     2
 10
1.776013741879782
 20
0.4823678310216308
 40
0.1217217342158525
 50
95.74213501202033
 51
102.7219939836472
 73
     0
 72
     1
 10
1.749208100737245
 20
0.3636343556094617
 11
1.749208100737245
 21
0.1752767944487085
 72
     1
 10
1.749208100737245
 20
0.1752767944487085
 11
1.658111534794044
 21
0.1752767944487085
 72
     1
 10
1.658111534794044
 20
0.1752767944487085
 11
1.658111534794044
 21
0.1752767944487085
 97
        1
330
138
 92
       16
 93
       12
 72
     1
 10
1.855753791898883
 20
0.5703040769182958
 11
1.749208100737245
 21
0.5703040769182958
 72
     1
 10
1.749208100737245
 20
0.5703040769182958
 11
1.749208100737245
 21
0.4311767133994287
 72
     1
 10
1.749208100737245
 20
0.4311767133994287
 11
1.855281946695168
 21
0.4311767133994287
 72
     2
 10
1.857310696196809
 20
0.4789795547126073
 40
0.0478458719447492
 50
267.5698291459668
 51
298.9736848744403
 73
     1
 72
     2
 10
1.864437662714773
 20
0.4638897212446849
 40
0.0312107960389064
 50
300.9469057674883
 51
325.1843100261158
 73
     1
 72
     2
 10
1.847208640489655
 20
0.4756552874383635
 40
0.0520734162270339
 50
325.3793523193102
 51
342.5869620344669
 73
     1
 72
     2
 10
1.761853469548879
 20
0.499095419473726
 40
0.1405675106851083
 50
343.8821453186945
 51
361.6888272002417
 73
     1
 72
     2
 10
1.771325527872711
 20
0.505069610767784
 40
0.1310471922643137
 50
359.1992235790916
 51
372.1177778779552
 73
     1
 72
     2
 10
1.840471280377904
 20
0.5202934512206887
 40
0.0602474495482526
 50
11.76645972748428
 51
33.49099599484823
 73
     1
 72
     2
 10
1.86002067419837
 20
0.5327033580204925
 40
0.0370985166555385
 50
34.16739135196509
 51
64.22988058382727
 73
     1
 72
     2
 10
1.856792087819456
 20
0.5236405260900577
 40
0.0466751007960158
 50
65.49764645855024
 51
91.27465994990668
 73
     1
 72
     1
 10
1.855753791898883
 20
0.5703040769182958
 11
1.855753791898883
 21
0.5703040769182958
 97
        1
330
4A
 75
     0
 76
     1
 98
        1
 10
-0.0349603810164775
 20
0.1524455749140718
1001
ACAD
1010
0.0
1020
0.0
1030
0.0
  0
HATCH
  5
1C6
330
1D
100
AcDbEntity
  8
TEXT-RED
100
AcDbHatch
 10
0.0
 20
0.0
 30
0.0
210
0.0
220
0.0
230
1.0
  2
SOLID
 70
     1
 71
     1
 91
        1
 92
        1
 93
       17
 72
     1
 10
2.026516093204943
 20
0.5201225784624666
 11
2.12187448679461
 21
0.5201225784624666
 72
     1
 10
2.12187448679461
 20
0.5201225784624666
 11
2.181814048479542
 21
0.2784929327615455
 72
     2
 10
2.213922500215711
 20
0.2853658521330381
 40
0.0328357989636449
 50
192.0820235727047
 51
230.2482576268844
 73
     1
 72
     2
 10
2.211977736162895
 20
0.2865212844941371
 40
0.0325572563546005
 50
234.1829062182941
 51
272.5793312178134
 73
     1
 72
     2
 10
2.218185855487651
 20
0.2662392650291758
 40
0.0131289140189778
 50
248.8223744883709
 51
260.6854283382104
 73
     1
 72
     1
 10
2.216060877781497
 20
0.2532834611920508
 11
2.285026381589124
 21
0.5201225784624666
 72
     1
 10
2.285026381589124
 20
0.5201225784624666
 11
2.379912929975073
 21
0.5201225784624666
 72
     1
 10
2.379912929975073
 20
0.5201225784624666
 11
2.2602925604266
 21
0.0661149499446615
 72
     1
 10
2.2602925604266
 20
0.0661149499446615
 11
2.21297105273781
 21
0.0
 72
     1
 10
2.21297105273781
 20
0.0
 11
2.147795531372934
 21
0.0
 72
     1
 10
2.147795531372934
 20
0.0
 11
2.196547795485895
 21
0.1752767944487085
 72
     2
 10
2.195202176373045
 20
0.2879880150203464
 40
0.1127192527190687
 50
89.31599859402309
 51
107.9604459396842
 73
     0
 72
     2
 10
2.187860498124107
 20
0.2632664971382323
 40
0.0869408911919764
 50
108.3817089051841
 51
130.5609495896915
 73
     0
 72
     2
 10
2.198002807128255
 20
0.2736653212156158
 40
0.101440520082671
 50
131.0937856248721
 51
151.0996267706195
 73
     0
 72
     2
 10
2.251259362016389
 20
0.3028621870346081
 40
0.1621751716283119
 50
151.1623473832895
 51
165.7835266974244
 73
     0
 72
     1
 10
2.094050840588399
 20
0.2630342184309034
 11
2.026516093204943
 21
0.5201225784624666
 72
     1
 10
2.026516093204943
 20
0.5201225784624666
 11
2.026516093204943
 21
0.5201225784624666
 97
        1
330
89
 75
     0
 76
     1
 98
        1
 10
-0.0349603810164775
 20
0.1524455749140718
1001
ACAD
1010
0.0
1020
0.0
1030
0.0
  0
HATCH
  5
1C7
330
1D
100
AcDbEntity
  8
TEXT-RED
100
AcDbHatch
 10
0.0
 20
0.0
 30
0.0
210
0.0
220
0.0
230
1.0
  2
SOLID
 70
     1
 71
     1
 91
        1
 92
        1
 93
       23
 72
     1
 10
2.401085080890193
 20
0.451391475175396
 11
2.401085080890193
 21
0.502049385078848
 72
     1
 10
2.401085080890193
 20
0.502049385078848
 11
2.456975906310984
 21
0.5208364345932495
 72
     1
 10
2.456975906310984
 20
0.5208364345932495
 11
2.471953186325706
 21
0.6169178168015124
 72
     1
 10
2.471953186325706
 20
0.6169178168015124
 11
2.547828939245814
 21
0.6169178168015124
 72
     1
 10
2.547828939245814
 20
0.6169178168015124
 11
2.547828939245814
 21
0.5208364345932495
 72
     1
 10
2.547828939245814
 20
0.5208364345932495
 11
2.625120227777072
 21
0.5208364345932495
 72
     1
 10
2.625120227777072
 20
0.5208364345932495
 11
2.625120227777072
 21
0.451391475175396
 72
     1
 10
2.625120227777072
 20
0.451391475175396
 11
2.547828939245814
 21
0.451391475175396
 72
     1
 10
2.547828939245814
 20
0.451391475175396
 11
2.547828939245814
 21
0.312977967787312
 72
     2
 10
2.756375078424425
 20
0.3106349819782397
 40
0.208559300317214
 50
179.3563172584847
 51
187.5204775666663
 73
     1
 72
     2
 10
2.610407599922477
 20
0.2901879066221412
 40
0.0611824171745163
 50
186.4276465021346
 51
204.9884326299174
 73
     1
 72
     2
 10
2.591486060141609
 20
0.2832478516776391
 40
0.0411355950463604
 50
207.3607300982318
 51
249.4822289731461
 73
     1
 72
     2
 10
2.925871745813213
 20
1.236527392855755
 40
1.05135264976578
 50
250.6239679589966
 51
252.369953071448
 73
     1
 72
     2
 10
2.632025513918952
 20
0.3027146749676596
 40
0.0724554546479011
 50
250.172060625216
 51
260.9268652271251
 73
     1
 72
     1
 10
2.620599646309214
 20
0.2311657933719365
 11
2.620599646309214
 21
0.1752767944487085
 72
     1
 10
2.620599646309214
 20
0.1752767944487085
 11
2.541405756150071
 21
0.1752767944487085
 72
     2
 10
2.539541691321775
 20
0.2586536504670411
 40
0.0833976909583584
 50
88.71924580725035
 51
114.8723068619946
 73
     0
 72
     2
 10
2.534259066943731
 20
0.2435901096002027
 40
0.0675271066805567
 50
116.1816665503854
 51
146.3117142175992
 73
     0
 72
     2
 10
2.571816472169667
 20
0.2671405893161746
 40
0.1118470865035182
 50
146.9451672649385
 51
168.4294027765594
 73
     0
 72
     2
 10
2.701886448180166
 20
0.2953352474010394
 40
0.2449337665542188
 50
168.070822892956
 51
180.7890266060776
 73
     0
 72
     1
 10
2.456975906310984
 20
0.2987081511619036
 11
2.456975906310984
 21
0.451391475175396
 72
     1
 10
2.456975906310984
 20
0.451391475175396
 11
2.401085080890193
 21
0.451391475175396
 72
     1
 10
2.401085080890193
 20
0.451391475175396
 11
2.401085080890193
 21
0.451391475175396
 97
        1
330
58
 75
     0
 76
     1
 98
        1
 10
-0.0349603810164775
 20
0.1524455749140718
1001
ACAD
1010
0.0
1020
0.0
1030
0.0
  0
HATCH
  5
1C8
330
1D
100
AcDbEntity
  8
TEXT-RED
100
AcDbHatch
 10
0.0
 20
0.0
 30
0.0
210
0.0
220
0.0
230
1.0
  2
SOLID
 70
     1
 71
     1
 91
        1
 92
        1
 93
       22
 72
     1
 10
2.66863653221009
 20
0.1752767944487085
 11
2.66863653221009
 21
0.6839852852251591
 72
     1
 10
2.66863653221009
 20
0.683985285225159
 11
2.758774186932835
 21
0.683985285225159
 72
     1
 10
2.758774186932835
 20
0.683985285225159
 11
2.758774186932835
 21
0.4832608134831443
 72
     2
 10
2.970884692343786
 20
0.1949308647558484
 40
0.3579455626750722
 50
233.6598667174819
 51
241.6737203338166
 73
     0
 72
     2
 10
2.862953103918855
 20
0.398321949096261
 40
0.1277046941848677
 50
241.0008951743301
 51
256.9710241053807
 73
     0
 72
     2
 10
2.867314180648163
 20
0.3596725627348979
 40
0.1664021752218955
 50
258.5084157090225
 51
270.4610700343784
 73
     0
 72
     2
 10
2.871155730201377
 20
0.4023028257494028
 40
0.1237918213330042
 50
268.8416672957483
 51
290.1493812176847
 73
     0
 72
     2
 10
2.88549439287798
 20
0.4438925273392474
 40
0.0798129708700709
 50
290.7705399537808
 51
319.3693426350027
 73
     0
 72
     2
 10
2.86973875277353
 20
0.4329212526250472
 40
0.0989334609539707
 50
320.4891190671877
 51
345.2499775321184
 73
     0
 72
     2
 10
2.778017766714932
 20
0.4084074663129932
 40
0.1938734483480787
 50
345.1454837561613
 51
360.9319474711875
 73
     0
 72
     1
 10
2.971865569256112
 20
0.4052541467398021
 11
2.971865569256112
 21
0.1752767944487085
 72
     1
 10
2.971865569256112
 20
0.1752767944487085
 11
2.881012536321281
 21
0.1752767944487085
 72
     1
 10
2.881012536321281
 20
0.1752767944487085
 11
2.881012536321281
 21
0.4064428922369056
 72
     2
 10
2.802613036220481
 20
0.4076912084297279
 40
0.0784094376294883
 50
359.0877849241664
 51
374.2114110518409
 73
     1
 72
     2
 10
2.840775464266772
 20
0.4174522933113873
 40
0.0390186755568009
 50
14.07416101436572
 51
38.19979694511947
 73
     1
 72
     2
 10
2.848474408609313
 20
0.4228438207727886
 40
0.0296388733419943
 50
39.21298268016682
 51
68.21300572178883
 73
     1
 72
     2
 10
2.843635884024977
 20
0.4091395078042849
 40
0.0441641298463429
 50
68.98305490508943
 51
91.1922266305568
 73
     1
 72
     2
 10
2.839517556631515
 20
0.3257194842430624
 40
0.1276147049428117
 50
88.56339333889899
 51
108.8133720429226
 73
     1
 72
     2
 10
2.853071660183995
 20
0.3106172986056333
 40
0.146497457591775
 50
111.9279820567162
 51
129.7021521663467
 73
     1
 72
     1
 10
2.759489565144921
 20
0.4233288622047228
 11
2.759489565144921
 21
0.1752767944487085
 72
     1
 10
2.759489565144921
 20
0.1752767944487085
 11
2.66863653221009
 21
0.1752767944487085
 72
     1
 10
2.66863653221009
 20
0.1752767944487085
 11
2.66863653221009
 21
0.1752767944487085
 97
        1
330
9C
 75
     0
 76
     1
 98
        1
 10
-0.0349603810164775
 20
0.1524455749140718
1001
ACAD
1010
0.0
1020
0.0
1030
0.0
  0
HATCH
  5
1C9
330
1D
100
AcDbEntity
  8
TEXT-RED
100
AcDbHatch
 10
0.0
 20
0.0
 30
0.0
210
0.0
220
0.0
230
1.0
  2
SOLID
 70
     1
 71
     1
 91
        2
 92
        1
 93
       30
 72
     2
 10
3.480235470402663
 20
0.3472963994916086
 40
0.4596602087851077
 50
179.2201999001178
 51
188.5904259084221
 73
     0
 72
     2
 10
3.197121821548028
 20
0.3902535820648669
 40
0.1733062924357386
 50
188.5287545821982
 51
206.4053475484388
 73
     0
 72
     2
 10
3.11705169577316
 20
0.4290134848926255
 40
0.084357328189102
 50
207.0116131808711
 51
238.088697099355
 73
     0
 72
     2
 10
3.142763881177286
 20
0.3846155256577634
 40
0.1356468679361114
 50
238.7826076590414
 51
258.9445942368799
 73
     0
 72
     2
 10
3.174180017272777
 20
0.2328628655440478
 40
0.2906128032937941
 50
258.6028609455173
 51
270.7173423227377
 73
     0
 72
     2
 10
3.179378903153711
 20
0.2029581738044638
 40
0.3204985176522159
 50
269.7210247461867
 51
277.0776490133664
 73
     0
 72
     2
 10
3.19487528221549
 20
0.325267440923209
 40
0.1972121016147459
 50
276.9881545773719
 51
287.1581506174676
 73
     0
 72
     2
 10
3.216601176688156
 20
0.3951169191449229
 40
0.1240620704779073
 50
287.0876504098541
 51
300.9508770078876
 73
     0
 72
     2
 10
3.235041042885957
 20
0.4262167749073067
 40
0.0879070752171545
 50
301.0685629566362
 51
318.5141019927475
 73
     0
 72
     2
 10
3.22499564771415
 20
0.4193627680063226
 40
0.0999841621843335
 50
319.385148118614
 51
335.2909851831404
 73
     0
 72
     2
 10
3.166888025629801
 20
0.3924029450769745
 40
0.1640411911207218
 50
335.2204735203817
 51
346.6482421759127
 73
     0
 72
     2
 10
3.055624996630501
 20
0.3654957782609082
 40
0.2785109168173713
 50
346.5482508793785
 51
354.5741818072585
 73
     0
 72
     2
 10
2.875033671883636
 20
0.3475705203771616
 40
0.4599886939454501
 50
354.4784226911829
 51
360.2208980900725
 73
     0
 72
     2
 10
2.870607305357513
 20
0.3438838987998202
 40
0.4644155825717984
 50
359.7639661566379
 51
365.4367125581701
 73
     0
 72
     2
 10
3.058722157859415
 20
0.3256690965276672
 40
0.2754213630050057
 50
5.372287081245953
 51
13.41178733975041
 73
     0
 72
     2
 10
3.173279534978716
 20
0.2978741757969097
 40
0.1575418848528468
 50
13.24247481022931
 51
24.91433399135224
 73
     0
 72
     2
 10
3.231958966651797
 20
0.27049353879938
 40
0.0927888674313799
 50
24.84449572776762
 51
41.46851456153065
 73
     0
 72
     2
 10
3.239204814111471
 20
0.2661434323058576
 40
0.0844927447051714
 50
42.51194694690035
 51
60.20982750497873
 73
     0
 72
     2
 10
3.218699140856711
 20
0.3022559330899847
 40
0.1260208208552961
 50
60.27608629427653
 51
73.8270512913352
 73
     0
 72
     2
 10
3.195604909472027
 20
0.3806255307799783
 40
0.207721876247583
 50
73.73012549511914
 51
83.43439678342133
 73
     0
 72
     2
 10
3.179442499162505
 20
0.5160622385854792
 40
0.3441188295924385
 50
83.33941300651419
 51
90.27041510775888
 73
     0
 72
     2
 10
3.176297692891656
 20
0.4848041884129171
 40
0.3128606426025486
 50
89.72150576644664
 51
97.22779474957937
 73
     0
 72
     2
 10
3.161234488424673
 20
0.3682916110468403
 40
0.1953789369211231
 50
97.14435294680244
 51
107.4227726253624
 73
     0
 72
     2
 10
3.140217093781949
 20
0.301699006668967
 40
0.1255485308215694
 50
107.370753656409
 51
121.1811544282885
 73
     0
 72
     2
 10
3.12266212348865
 20
0.2723085493673603
 40
0.0913151827909786
 50
121.3053248468621
 51
138.3848687024391
 73
     0
 72
     2
 10
3.130851497778824
 20
0.2780987727770228
 40
0.1012892502687907
 50
139.0126872013657
 51
154.2591683716641
 73
     0
 72
     2
 10
3.178025690577206
 20
0.3008131945580285
 40
0.1536471429745666
 50
154.2693808990751
 51
165.8118585512815
 73
     0
 72
     2
 10
3.268168571662594
 20
0.3240123625755021
 40
0.2467269061818614
 50
165.7196946403268
 51
174.1342043436877
 73
     0
 72
     2
 10
3.413914363535721
 20
0.3395635385525735
 40
0.3932993037049538
 50
174.0504793005304
 51
180.2151757775018
 73
     0
 72
     1
 10
3.020617833369073
 20
0.3410405807579851
 11
3.020617833369073
 21
0.3410405807579851
 97
        1
330
EA
 92
       16
 93
       21
 72
     2
 10
3.613312704239808
 20
0.3052010939876257
 40
0.5046836205998101
 50
165.4616764010741
 51
171.0278758430559
 73
     1
 72
     2
 10
3.374482486528501
 20
0.3420916614133984
 40
0.2630236606104225
 50
170.85201298578
 51
179.4517709052564
 73
     1
 72
     2
 10
3.454065240073902
 20
0.3382439821810626
 40
0.3426534838299237
 50
178.9357418182288
 51
188.0691336263486
 73
     1
 72
     2
 10
3.195968077288853
 20
0.3030278751539043
 40
0.0821796951545775
 50
189.0181381128171
 51
201.4145153112299
 73
     1
 72
     2
 10
3.160411698485469
 20
0.2889975802415061
 40
0.0439554436806379
 50
201.3107480863471
 51
220.1489620647889
 73
     1
 72
     2
 10
3.155835095245747
 20
0.2843363205812091
 40
0.037456749731058
 50
219.2127101386138
 51
255.6310132773234
 73
     1
 72
     2
 10
3.173261739719343
 20
0.3812089223380726
 40
0.1358124526943521
 50
258.6525891616267
 51
271.3702350725942
 73
     1
 72
     2
 10
3.180357139497569
 20
0.4692030529375931
 40
0.2238008263021876
 50
269.0148826539333
 51
276.2753625676396
 73
     1
 72
     2
 10
3.197849276399706
 20
0.2946920674583943
 40
0.0484529004947375
 50
278.2717501461559
 51
301.2827024261222
 73
     1
 72
     2
 10
3.207811222542081
 20
0.2781237012056277
 40
0.0291206023535162
 50
301.4591386210265
 51
342.6827079184772
 73
     1
 72
     2
 10
3.108548338170845
 20
0.3127659022243659
 40
0.1342419911030445
 50
341.1780241039497
 51
353.2229122868627
 73
     1
 72
     2
 10
2.967369563098919
 20
0.330872680490466
 40
0.2765741939881519
 50
352.9494162843399
 51
360.3822505868774
 73
     1
 72
     2
 10
2.459318552711379
 20
0.3411691780724464
 40
0.7846645638024574
 50
359.3828759745628
 51
363.6573187603909
 73
     1
 72
     2
 10
3.092761679710313
 20
0.3811941386031558
 40
0.1499590652226746
 50
3.834298057691928
 51
15.98721166096461
 73
     1
 72
     2
 10
3.208394130760695
 20
0.4156549366241278
 40
0.029335563761804
 50
13.48613242730889
 51
56.84075856181601
 73
     1
 72
     2
 10
3.195154229476923
 20
0.3942423008569769
 40
0.0545066495896497
 50
57.50110974384233
 51
77.84457056043473
 73
     1
 72
     2
 10
3.184009922966737
 20
0.344171085093621
 40
0.1058024453263516
 50
77.65436364628005
 51
90.71531793927198
 73
     1
 72
     2
 10
3.180978125261934
 20
0.1670204385423348
 40
0.2829500192598661
 50
89.65354521146901
 51
94.33326617565109
 73
     1
 72
     2
 10
3.165070616561166
 20
0.3644786832754941
 40
0.084859522413094
 50
93.69685967486203
 51
104.1770246546857
 73
     1
 72
     2
 10
3.15468956905426
 20
0.4128867508985087
 40
0.0354285831761041
 50
107.0749560136262
 51
147.5612347538681
 73
     1
 72
     1
 10
3.124789077699108
 20
0.4318905695302117
 11
3.124789077699108
 21
0.4318905695302117
 97
        1
330
121
 75
     0
 76
     1
 98
        1
 10
-0.0349603810164775
 20
0.1524455749140718
1001
ACAD
1010
0.0
1020
0.0
1030
0.0
  0
HATCH
  5
1CA
330
1D
100
AcDbEntity
  8
TEXT-RED
100
AcDbHatch
 10
0.0
 20
0.0
 30
0.0
210
0.0
220
0.0
230
1.0
  2
SOLID
 70
     1
 71
     1
 91
        1
 92
        1
 93
       22
 72
     2
 10
3.592005824568463
 20
0.4022623702532142
 40
0.1238324225952604
 50
268.8385251676425
 51
290.1462390895788
 73
     0
 72
     2
 10
3.606344487245067
 20
0.4439223854568978
 40
0.0797877541011788
 50
290.7832534290268
 51
319.3820561102488
 73
     0
 72
     2
 10
3.590581236734105
 20
0.4329212526250472
 40
0.0989334609539707
 50
320.4891190671877
 51
345.2499775321184
 73
     0
 72
     2
 10
3.498860250675552
 20
0.4084074663130021
 40
0.1938734483480326
 50
345.1454837561604
 51
360.9319474711903
 73
     0
 72
     1
 10
3.692708053216686
 20
0.4052541467398021
 11
3.692708053216686
 21
0.1752767944487085
 72
     1
 10
3.692708053216686
 20
0.1752767944487085
 11
3.601870241094878
 21
0.1752767944487085
 72
     1
 10
3.601870241094878
 20
0.1752767944487085
 11
3.601870241094878
 21
0.4064428922369056
 72
     2
 10
3.523463130587567
 20
0.4076338796510298
 40
0.0784161554089863
 50
359.1297561618085
 51
374.2533822894829
 73
     1
 72
     2
 10
3.561625558633858
 20
0.4174879054254667
 40
0.0390026472343202
 50
14.02613509500026
 51
38.15177102575402
 73
     1
 72
     2
 10
3.569324502976398
 20
0.4228143935386817
 40
0.029663379390137
 50
39.24772886833219
 51
68.2477519099542
 73
     1
 72
     2
 10
3.564485978392062
 20
0.4091782819430569
 40
0.0441252062777969
 50
68.97422263922098
 51
91.18339436468834
 73
     1
 72
     2
 10
3.560375261405112
 20
0.3257194842430623
 40
0.1276147049428117
 50
88.56339333889899
 51
108.8133720429226
 73
     1
 72
     2
 10
3.573921754551081
 20
0.3105686277924473
 40
0.1465397674015583
 50
111.9181151967782
 51
129.6922853064086
 73
     1
 72
     1
 10
3.480332049105495
 20
0.4233288622047228
 11
3.480332049105495
 21
0.1752767944487085
 72
     1
 10
3.480332049105495
 20
0.1752767944487085
 11
3.389479016170664
 21
0.1752767944487085
 72
     1
 10
3.389479016170664
 20
0.1752767944487085
 11
3.389479016170664
 21
0.5201225784624666
 72
     1
 10
3.389479016170664
 20
0.5201225784624666
 11
3.462264944047086
 21
0.5201225784624666
 72
     1
 10
3.462264944047086
 20
0.5201225784624666
 11
3.480332049105495
 21
0.4832608134831443
 72
     2
 10
3.692032830344103
 20
0.1968176418438357
 40
0.3561838168078713
 50
233.5331050519283
 51
241.6403323622616
 73
     0
 72
     2
 10
3.581912438010629
 20
0.4042431550954748
 40
0.1213560014894028
 50
240.8735520743203
 51
257.5360464861715
 73
     0
 72
     2
 10
3.587849834142919
 20
0.3698286725878678
 40
0.1562493464094038
 50
258.1337893490277
 51
270.603548530042
 73
     0
 72
     1
 10
3.589495720107105
 20
0.5260693501105883
 11
3.589495720107105
 21
0.5260693501105883
 97
        1
330
71
 75
     0
 76
     1
 98
        1
 10
-0.0349603810164775
 20
0.1524455749140718
1001
ACAD
1010
0.0
1020
0.0
1030
0.0
  0
ENDSEC
  0
SECTION
  2
OBJECTS
  0
DICTIONARY
  5
C
330
0
100
AcDbDictionary
281
     1
  3
ACAD_DETAILVIEWSTYLE
350
1D4
  3
ACAD_GROUP
350
D
  3
ACAD_IMAGE_VARS
350
1B2
  3
ACAD_LAYOUT
350
1A
  3
ACAD_MLINESTYLE
350
17
  3
ACAD_PLOTSETTINGS
350
19
  3
ACAD_PLOTSTYLENAME
350
E
  3
ACAD_SCALELIST
350
16B
  3
ACAD_SECTIONVIEWSTYLE
350
1D5
  3
AcDbVariableDictionary
350
1CF
  3
APPDATA
350
1B0
  3
DWGPROPS
350
1D6
  0
DICTIONARY
  5
1B3
330
2
100
AcDbDictionary
280
     1
281
     1
  3
ACAD_LAYERSTATES
360
1B4
  3
ACLYDICTIONARY
360
1BB
  0
DICTIONARY
  5
1D4
102
{ACAD_REACTORS
330
C
102
}
330
C
100
AcDbDictionary
281
     1
  0
DICTIONARY
  5
D
102
{ACAD_REACTORS
330
C
102
}
330
C
100
AcDbDictionary
281
     1
  0
RASTERVARIABLES
  5
1B2
102
{ACAD_REACTORS
330
C
102
}
330
C
100
AcDbRasterVariables
 90
        0
 70
     1
 71
     1
 72
     0
  0
DICTIONARY
  5
1A
102
{ACAD_REACTORS
330
C
102
}
330
C
100
AcDbDictionary
281
     1
  3
Model
350
1E
  3
Sheet 1
350
1C
  0
DICTIONARY
  5
17
102
{ACAD_REACTORS
330
C
102
}
330
C
100
AcDbDictionary
281
     1
  3
Standard
350
18
  0
DICTIONARY
  5
19
102
{ACAD_REACTORS
330
C
102
}
330
C
100
AcDbDictionary
281
     1
  0
ACDBDICTIONARYWDFLT
  5
E
102
{ACAD_REACTORS
330
C
102
}
330
C
100
AcDbDictionary
281
     1
  3
Normal
350
F
100
AcDbDictionaryWithDefault
340
F
  0
DICTIONARY
  5
16B
102
{ACAD_REACTORS
330
C
102
}
330
C
100
AcDbDictionary
281
     1
  3
A0
350
16C
  3
A1
350
16D
  3
A2
350
16E
  3
A3
350
16F
  3
A4
350
170
  3
A5
350
171
  3
A6
350
172
  3
A7
350
173
  3
A8
350
174
  3
A9
350
175
  3
B0
350
176
  3
B1
350
177
  3
B2
350
178
  3
B3
350
179
  3
B4
350
17A
  3
B5
350
17B
  3
B6
350
17C
  3
B7
350
17D
  3
B8
350
17E
  3
B9
350
17F
  3
C0
350
180
  3
C1
350
181
  3
C2
350
182
  3
C3
350
183
  3
C4
350
184
  3
C5
350
185
  3
C6
350
186
  3
C7
350
187
  3
C8
350
188
  3
C9
350
189
  3
D0
350
18A
  3
D1
350
18B
  3
D2
350
18C
  0
DICTIONARY
  5
1D5
102
{ACAD_REACTORS
330
C
102
}
330
C
100
AcDbDictionary
281
     1
  0
DICTIONARY
  5
1CF
102
{ACAD_REACTORS
330
C
102
}
330
C
100
AcDbDictionary
281
     1
  0
DICTIONARY
  5
1B0
102
{ACAD_REACTORS
330
C
102
}
330
C
100
AcDbDictionary
281
     1
  0
XRECORD
  5
1D6
102
{ACAD_REACTORS
330
C
102
}
330
C
100
AcDbXrecord
280
     1
  1
DWGPROPS COOKIE
  2
vector-text
  3

  4
Jonathan Greig
  6
Generated outlines with CNCFontFab using the "Exo Bold" font.
  7
MicroPython Text
  8

  9

300
=
301
=
302
=
303
=
304
=
305
=
306
=
307
=
308
=
309
=
 40
0.0
 41
2456662.519745903
 42
2456662.532164352
  1

 90
        0
  0
DICTIONARY
  5
1B4
102
{ACAD_REACTORS
330
1B3
102
}
330
1B3
100
AcDbDictionary
281
     1
  3
ARGON_LAYERP_1
350
1B5
  3
ARGON_LAYERP_2
350
1B8
  3
ARGON_LAYERP_3
350
1C3
  0
DICTIONARY
  5
1BB
102
{ACAD_REACTORS
330
1B3
102
}
330
1B3
100
AcDbDictionary
281
     1
1001
ACAD
1000
<All
  0
LAYOUT
  5
1E
102
{ACAD_REACTORS
330
1A
102
}
330
1A
100
AcDbPlotSettings
  1

  2
none_device
  4
Letter_(8.50_x_11.00_Inches)
  6

 40
6.35
 41
6.35
 42
6.35
 43
6.35
 44
215.9
 45
279.4
 46
0.0
 47
0.0
 48
0.0
 49
0.0
140
0.0
141
0.0
142
1.0
143
1.0
 70
  1712
 72
     0
 73
     0
 74
     0
  7

 75
     0
147
1.0
148
0.0
149
0.0
100
AcDbLayout
  1
Model
 70
     1
 71
     0
 10
0.0
 20
0.0
 11
12.0
 21
9.0
 12
0.0
 22
0.0
 32
0.0
 14
0.0000000000000001
 24
0.0
 34
0.0
 15
3.692708053216686
 25
0.6839852852251591
 35
0.0
146
0.0
 13
0.0
 23
0.0
 33
0.0
 16
1.0
 26
0.0
 36
0.0
 17
0.0
 27
1.0
 37
0.0
 76
     0
330
1D
331
22
  0
LAYOUT
  5
1C
102
{ACAD_REACTORS
330
1A
102
}
330
1A
100
AcDbPlotSettings
  1

  2
none_device
  4

  6

 40
0.0
 41
0.0
 42
0.0
 43
0.0
 44
0.0
 45
0.0
 46
0.0
 47
0.0
 48
0.0
 49
0.0
140
0.0
141
0.0
142
1.0
143
1.0
 70
   688
 72
     0
 73
     0
 74
     5
  7

 75
    16
147
1.0
148
0.0
149
0.0
100
AcDbLayout
  1
Sheet 1
 70
     1
 71
     1
 10
0.0
 20
0.0
 11
0.0
 21
0.0
 12
0.0
 22
0.0
 32
0.0
 14
1.000000000000000E+20
 24
1.000000000000000E+20
 34
1.000000000000000E+20
 15
-1.000000000000000E+20
 25
-1.000000000000000E+20
 35
-1.000000000000000E+20
146
0.0
 13
0.0
 23
0.0
 33
0.0
 16
1.0
 26
0.0
 36
0.0
 17
0.0
 27
1.0
 37
0.0
 76
     0
330
1B
  0
MLINESTYLE
  5
18
102
{ACAD_REACTORS
330
17
102
}
330
17
100
AcDbMlineStyle
  2
Standard
 70
     0
  3

 62
   256
 51
90.0
 52
90.0
 71
     2
 49
0.5
 62
   256
  6
BYLAYER
 49
-0.5
 62
   256
  6
BYLAYER
  0
ACDBPLACEHOLDER
  5
F
102
{ACAD_REACTORS
330
E
102
}
330
E
  0
SCALE
  5
16C
102
{ACAD_REACTORS
330
16B
102
}
330
16B
100
AcDbScale
 70
     0
300
1:1
140
1.0
141
1.0
290
     1
  0
SCALE
  5
16D
102
{ACAD_REACTORS
330
16B
102
}
330
16B
100
AcDbScale
 70
     0
300
1:2
140
1.0
141
2.0
290
     0
  0
SCALE
  5
16E
102
{ACAD_REACTORS
330
16B
102
}
330
16B
100
AcDbScale
 70
     0
300
1:4
140
1.0
141
4.0
290
     0
  0
SCALE
  5
16F
102
{ACAD_REACTORS
330
16B
102
}
330
16B
100
AcDbScale
 70
     0
300
1:5
140
1.0
141
5.0
290
     0
  0
SCALE
  5
170
102
{ACAD_REACTORS
330
16B
102
}
330
16B
100
AcDbScale
 70
     0
300
1:8
140
1.0
141
8.0
290
     0
  0
SCALE
  5
171
102
{ACAD_REACTORS
330
16B
102
}
330
16B
100
AcDbScale
 70
     0
300
1:10
140
1.0
141
10.0
290
     0
  0
SCALE
  5
172
102
{ACAD_REACTORS
330
16B
102
}
330
16B
100
AcDbScale
 70
     0
300
1:16
140
1.0
141
16.0
290
     0
  0
SCALE
  5
173
102
{ACAD_REACTORS
330
16B
102
}
330
16B
100
AcDbScale
 70
     0
300
1:20
140
1.0
141
20.0
290
     0
  0
SCALE
  5
174
102
{ACAD_REACTORS
330
16B
102
}
330
16B
100
AcDbScale
 70
     0
300
1:30
140
1.0
141
30.0
290
     0
  0
SCALE
  5
175
102
{ACAD_REACTORS
330
16B
102
}
330
16B
100
AcDbScale
 70
     0
300
1:40
140
1.0
141
40.0
290
     0
  0
SCALE
  5
176
102
{ACAD_REACTORS
330
16B
102
}
330
16B
100
AcDbScale
 70
     0
300
1:50
140
1.0
141
50.0
290
     0
  0
SCALE
  5
177
102
{ACAD_REACTORS
330
16B
102
}
330
16B
100
AcDbScale
 70
     0
300
1:100
140
1.0
141
100.0
290
     0
  0
SCALE
  5
178
102
{ACAD_REACTORS
330
16B
102
}
330
16B
100
AcDbScale
 70
     0
300
2:1
140
2.0
141
1.0
290
     0
  0
SCALE
  5
179
102
{ACAD_REACTORS
330
16B
102
}
330
16B
100
AcDbScale
 70
     0
300
4:1
140
4.0
141
1.0
290
     0
  0
SCALE
  5
17A
102
{ACAD_REACTORS
330
16B
102
}
330
16B
100
AcDbScale
 70
     0
300
8:1
140
8.0
141
1.0
290
     0
  0
SCALE
  5
17B
102
{ACAD_REACTORS
330
16B
102
}
330
16B
100
AcDbScale
 70
     0
300
10:1
140
10.0
141
1.0
290
     0
  0
SCALE
  5
17C
102
{ACAD_REACTORS
330
16B
102
}
330
16B
100
AcDbScale
 70
     0
300
100:1
140
100.0
141
1.0
290
     0
  0
SCALE
  5
17D
102
{ACAD_REACTORS
330
16B
102
}
330
16B
100
AcDbScale
 70
     0
300
1/128" = 1'-0"
140
0.0078125
141
12.0
290
     0
  0
SCALE
  5
17E
102
{ACAD_REACTORS
330
16B
102
}
330
16B
100
AcDbScale
 70
     0
300
1/64" = 1'-0"
140
0.015625
141
12.0
290
     0
  0
SCALE
  5
17F
102
{ACAD_REACTORS
330
16B
102
}
330
16B
100
AcDbScale
 70
     0
300
1/32" = 1'-0"
140
0.03125
141
12.0
290
     0
  0
SCALE
  5
180
102
{ACAD_REACTORS
330
16B
102
}
330
16B
100
AcDbScale
 70
     0
300
1/16" = 1'-0"
140
0.0625
141
12.0
290
     0
  0
SCALE
  5
181
102
{ACAD_REACTORS
330
16B
102
}
330
16B
100
AcDbScale
 70
     0
300
3/32" = 1'-0"
140
0.09375
141
12.0
290
     0
  0
SCALE
  5
182
102
{ACAD_REACTORS
330
16B
102
}
330
16B
100
AcDbScale
 70
     0
300
1/8" = 1'-0"
140
0.125
141
12.0
290
     0
  0
SCALE
  5
183
102
{ACAD_REACTORS
330
16B
102
}
330
16B
100
AcDbScale
 70
     0
300
3/16" = 1'-0"
140
0.1875
141
12.0
290
     0
  0
SCALE
  5
184
102
{ACAD_REACTORS
330
16B
102
}
330
16B
100
AcDbScale
 70
     0
300
1/4" = 1'-0"
140
0.25
141
12.0
290
     0
  0
SCALE
  5
185
102
{ACAD_REACTORS
330
16B
102
}
330
16B
100
AcDbScale
 70
     0
300
3/8" = 1'-0"
140
0.375
141
12.0
290
     0
  0
SCALE
  5
186
102
{ACAD_REACTORS
330
16B
102
}
330
16B
100
AcDbScale
 70
     0
300
1/2" = 1'-0"
140
0.5
141
12.0
290
     0
  0
SCALE
  5
187
102
{ACAD_REACTORS
330
16B
102
}
330
16B
100
AcDbScale
 70
     0
300
3/4" = 1'-0"
140
0.75
141
12.0
290
     0
  0
SCALE
  5
188
102
{ACAD_REACTORS
330
16B
102
}
330
16B
100
AcDbScale
 70
     0
300
1" = 1'-0"
140
1.0
141
12.0
290
     0
  0
SCALE
  5
189
102
{ACAD_REACTORS
330
16B
102
}
330
16B
100
AcDbScale
 70
     0
300
1-1/2" = 1'-0"
140
1.5
141
12.0
290
     0
  0
SCALE
  5
18A
102
{ACAD_REACTORS
330
16B
102
}
330
16B
100
AcDbScale
 70
     0
300
3" = 1'-0"
140
3.0
141
12.0
290
     0
  0
SCALE
  5
18B
102
{ACAD_REACTORS
330
16B
102
}
330
16B
100
AcDbScale
 70
     0
300
6" = 1'-0"
140
6.0
141
12.0
290
     0
  0
SCALE
  5
18C
102
{ACAD_REACTORS
330
16B
102
}
330
16B
100
AcDbScale
 70
     0
300
1'-0" = 1'-0"
140
12.0
141
12.0
290
     0
  0
XRECORD
  5
1B5
102
{ACAD_REACTORS
330
1B4
102
}
330
1B4
100
AcDbXrecord
280
     1
 91
     1023
301

290
     0
302
TEXT-WHITE
330
10
 90
        8
 62
     7
370
    -3
331
16
  1
Color_7
330
21
 90
        8
 62
     7
370
    -3
331
16
  1
Color_7
  0
XRECORD
  5
1B8
102
{ACAD_REACTORS
330
1B4
102
}
330
1B4
100
AcDbXrecord
280
     1
 91
     1023
301

290
     0
302
TEXT-WHITE
330
10
 90
        8
 62
     7
370
    -3
331
16
  1
Color_7
330
21
 90
        8
 62
   254
370
    -3
331
16
  1
Color_254
  0
XRECORD
  5
1C3
102
{ACAD_REACTORS
330
1B4
102
}
330
1B4
100
AcDbXrecord
280
     1
 91
     1023
301

290
     0
302
TEXT-GRAY
330
10
 90
        8
 62
     7
370
    -3
331
16
  1
Color_7
330
21
 90
        8
 62
   254
370
    -3
331
16
  1
Color_254
330
1B9
 90
        8
 62
     1
370
    -3
331
16
  1
Color_1
  0
ENDSEC
  0
EOF
