STARTFONT 2.1
FONT -Misc-Fixed-Medium-R-Normal--14-130-75-75-C-70-ISO8859-15
SIZE 14 75 75
FONTBOUNDINGBOX 7 14 0 -2

STARTPROPERTIES 23
FONTNAME_REGISTRY ""
FOUNDRY "Misc"
FAMILY_NAME "Fixed"
WEIGHT_NAME "Medium"
SLANT "R"
SETWIDTH_NAME "Normal"
ADD_STYLE_NAME ""
PIXEL_SIZE 14
POINT_SIZE 130
RESOLUTION_X 75
RESOLUTION_Y 75
SPACING "C"
AVERAGE_WIDTH 70
CHARSET_REGISTRY "ISO8859"
CHARSET_ENCODING "15"
COPYRIGHT "Public domain font.  Share and enjoy."
CAP_HEIGHT 10
X_HEIGHT 7
WEIGHT 10
QUAD_WIDTH 7
DEFAULT_CHAR 0
FONT_DESCENT 2
FONT_ASCENT 12
ENDPROPERTIES

CHARS 223

STARTCHAR defaultchar
ENCODING 0
SWIDTH 960 0
DWIDTH 7 0
BBX 7 14 0 -2
BITMAP
00
B4
84
00
84
84
00
84
84
00
84
B4
00
00
ENDCHAR

STARTCHAR uni25C6
ENCODING 1
SWIDTH 960 0
DWIDTH 7 0
BBX 7 14 0 -2
BITMAP
00
00
30
30
78
78
FC
FC
78
78
30
30
00
00
ENDCHAR

STARTCHAR shade
ENCODING 2
SWIDTH 960 0
DWIDTH 7 0
BBX 7 14 0 -2
BITMAP
54
AA
54
AA
54
AA
54
AA
54
AA
54
AA
54
AA
ENDCHAR

STARTCHAR uni2409
ENCODING 3
SWIDTH 960 0
DWIDTH 7 0
BBX 7 14 0 -2
BITMAP
00
90
90
F0
90
90
00
7C
10
10
10
10
00
00
ENDCHAR

STARTCHAR uni240C
ENCODING 4
SWIDTH 960 0
DWIDTH 7 0
BBX 7 14 0 -2
BITMAP
00
E0
80
80
E0
80
9C
90
10
1C
10
10
10
00
ENDCHAR

STARTCHAR uni240D
ENCODING 5
SWIDTH 960 0
DWIDTH 7 0
BBX 7 14 0 -2
BITMAP
00
70
80
80
80
70
00
38
24
24
38
24
24
00
ENDCHAR

STARTCHAR uni240A
ENCODING 6
SWIDTH 960 0
DWIDTH 7 0
BBX 7 14 0 -2
BITMAP
00
80
80
80
80
F0
00
3C
20
38
20
20
00
00
ENDCHAR

STARTCHAR degree
ENCODING 7
SWIDTH 960 0
DWIDTH 7 0
BBX 7 14 0 -2
BITMAP
00
30
48
48
30
00
00
00
00
00
00
00
00
00
ENDCHAR

STARTCHAR plusminus
ENCODING 8
SWIDTH 960 0
DWIDTH 7 0
BBX 7 14 0 -2
BITMAP
00
00
00
00
00
00
10
10
7C
10
10
7C
00
00
ENDCHAR

STARTCHAR uni2424
ENCODING 9
SWIDTH 960 0
DWIDTH 7 0
BBX 7 14 0 -2
BITMAP
00
00
90
D0
B0
90
90
20
20
20
20
3C
00
00
ENDCHAR

STARTCHAR uni240B
ENCODING 10
SWIDTH 960 0
DWIDTH 7 0
BBX 7 14 0 -2
BITMAP
00
88
88
88
50
20
00
7C
10
10
10
10
10
00
ENDCHAR

STARTCHAR SF040000
ENCODING 11
SWIDTH 960 0
DWIDTH 7 0
BBX 7 14 0 -2
BITMAP
10
10
10
10
10
10
10
F0
00
00
00
00
00
00
ENDCHAR

STARTCHAR SF030000
ENCODING 12
SWIDTH 960 0
DWIDTH 7 0
BBX 7 14 0 -2
BITMAP
00
00
00
00
00
00
00
F0
10
10
10
10
10
10
ENDCHAR

STARTCHAR SF010000
ENCODING 13
SWIDTH 960 0
DWIDTH 7 0
BBX 7 14 0 -2
BITMAP
00
00
00
00
00
00
00
1E
10
10
10
10
10
10
ENDCHAR

STARTCHAR SF020000
ENCODING 14
SWIDTH 960 0
DWIDTH 7 0
BBX 7 14 0 -2
BITMAP
10
10
10
10
10
10
10
1E
00
00
00
00
00
00
ENDCHAR

STARTCHAR SF050000
ENCODING 15
SWIDTH 960 0
DWIDTH 7 0
BBX 7 14 0 -2
BITMAP
10
10
10
10
10
10
10
FE
10
10
10
10
10
10
ENDCHAR

STARTCHAR uni23BA
ENCODING 16
SWIDTH 960 0
DWIDTH 7 0
BBX 7 14 0 -2
BITMAP
FE
00
00
00
00
00
00
00
00
00
00
00
00
00
ENDCHAR

STARTCHAR uni23BB
ENCODING 17
SWIDTH 960 0
DWIDTH 7 0
BBX 7 14 0 -2
BITMAP
00
00
00
FE
00
00
00
00
00
00
00
00
00
00
ENDCHAR

STARTCHAR SF100000
ENCODING 18
SWIDTH 960 0
DWIDTH 7 0
BBX 7 14 0 -2
BITMAP
00
00
00
00
00
00
00
FE
00
00
00
00
00
00
ENDCHAR

STARTCHAR uni23BC
ENCODING 19
SWIDTH 960 0
DWIDTH 7 0
BBX 7 14 0 -2
BITMAP
00
00
00
00
00
00
00
00
00
00
FE
00
00
00
ENDCHAR

STARTCHAR uni23BD
ENCODING 20
SWIDTH 960 0
DWIDTH 7 0
BBX 7 14 0 -2
BITMAP
00
00
00
00
00
00
00
00
00
00
00
00
00
FE
ENDCHAR

STARTCHAR SF080000
ENCODING 21
SWIDTH 960 0
DWIDTH 7 0
BBX 7 14 0 -2
BITMAP
10
10
10
10
10
10
10
1E
10
10
10
10
10
10
ENDCHAR

STARTCHAR SF090000
ENCODING 22
SWIDTH 960 0
DWIDTH 7 0
BBX 7 14 0 -2
BITMAP
10
10
10
10
10
10
10
F0
10
10
10
10
10
10
ENDCHAR

STARTCHAR SF070000
ENCODING 23
SWIDTH 960 0
DWIDTH 7 0
BBX 7 14 0 -2
BITMAP
10
10
10
10
10
10
10
FE
00
00
00
00
00
00
ENDCHAR

STARTCHAR SF060000
ENCODING 24
SWIDTH 960 0
DWIDTH 7 0
BBX 7 14 0 -2
BITMAP
00
00
00
00
00
00
00
FE
10
10
10
10
10
10
ENDCHAR

STARTCHAR SF110000
ENCODING 25
SWIDTH 960 0
DWIDTH 7 0
BBX 7 14 0 -2
BITMAP
10
10
10
10
10
10
10
10
10
10
10
10
10
10
ENDCHAR

STARTCHAR lessequal
ENCODING 26
SWIDTH 960 0
DWIDTH 7 0
BBX 7 14 0 -2
BITMAP
00
00
00
00
0C
30
C0
30
0C
00
FC
00
00
00
ENDCHAR

STARTCHAR greaterequal
ENCODING 27
SWIDTH 960 0
DWIDTH 7 0
BBX 7 14 0 -2
BITMAP
00
00
00
00
C0
30
0C
30
C0
00
FC
00
00
00
ENDCHAR

STARTCHAR pi
ENCODING 28
SWIDTH 960 0
DWIDTH 7 0
BBX 7 14 0 -2
BITMAP
00
00
00
00
00
FC
48
48
48
48
48
48
00
00
ENDCHAR

STARTCHAR notequal
ENCODING 29
SWIDTH 960 0
DWIDTH 7 0
BBX 7 14 0 -2
BITMAP
00
00
00
08
08
FC
10
10
FC
20
20
00
00
00
ENDCHAR

STARTCHAR sterling
ENCODING 30
SWIDTH 960 0
DWIDTH 7 0
BBX 7 14 0 -2
BITMAP
00
00
00
18
24
20
20
78
20
20
78
24
00
00
ENDCHAR

STARTCHAR periodcentered
ENCODING 31
SWIDTH 960 0
DWIDTH 7 0
BBX 7 14 0 -2
BITMAP
00
00
00
00
00
00
10
00
00
00
00
00
00
00
ENDCHAR

STARTCHAR space
ENCODING 32
SWIDTH 960 0
DWIDTH 7 0
BBX 7 14 0 -2
BITMAP
00
00
00
00
00
00
00
00
00
00
00
00
00
00
ENDCHAR

STARTCHAR exclam
ENCODING 33
SWIDTH 960 0
DWIDTH 7 0
BBX 7 14 0 -2
BITMAP
00
00
10
10
10
10
10
10
10
00
10
10
00
00
ENDCHAR

STARTCHAR quotedbl
ENCODING 34
SWIDTH 960 0
DWIDTH 7 0
BBX 7 14 0 -2
BITMAP
00
28
28
28
28
00
00
00
00
00
00
00
00
00
ENDCHAR

STARTCHAR numbersign
ENCODING 35
SWIDTH 960 0
DWIDTH 7 0
BBX 7 14 0 -2
BITMAP
00
00
28
28
28
7C
28
28
7C
28
28
28
00
00
ENDCHAR

STARTCHAR dollar
ENCODING 36
SWIDTH 960 0
DWIDTH 7 0
BBX 7 14 0 -2
BITMAP
00
00
10
78
94
94
50
38
14
94
94
78
10
00
ENDCHAR

STARTCHAR percent
ENCODING 37
SWIDTH 960 0
DWIDTH 7 0
BBX 7 14 0 -2
BITMAP
00
00
64
94
98
70
10
20
38
64
A4
98
00
00
ENDCHAR

STARTCHAR ampersand
ENCODING 38
SWIDTH 960 0
DWIDTH 7 0
BBX 7 14 0 -2
BITMAP
00
00
30
48
48
48
30
64
94
88
98
64
00
00
ENDCHAR

STARTCHAR quotesingle
ENCODING 39
SWIDTH 960 0
DWIDTH 7 0
BBX 7 14 0 -2
BITMAP
00
10
10
10
10
00
00
00
00
00
00
00
00
00
ENDCHAR

STARTCHAR parenleft
ENCODING 40
SWIDTH 960 0
DWIDTH 7 0
BBX 7 14 0 -2
BITMAP
00
04
08
10
10
20
20
20
20
20
10
10
08
04
ENDCHAR

STARTCHAR parenright
ENCODING 41
SWIDTH 960 0
DWIDTH 7 0
BBX 7 14 0 -2
BITMAP
00
40
20
10
10
08
08
08
08
08
10
10
20
40
ENDCHAR

STARTCHAR asterisk
ENCODING 42
SWIDTH 960 0
DWIDTH 7 0
BBX 7 14 0 -2
BITMAP
00
00
00
00
10
54
38
10
38
54
10
00
00
00
ENDCHAR

STARTCHAR plus
ENCODING 43
SWIDTH 960 0
DWIDTH 7 0
BBX 7 14 0 -2
BITMAP
00
00
00
00
10
10
10
7C
10
10
10
00
00
00
ENDCHAR

STARTCHAR comma
ENCODING 44
SWIDTH 960 0
DWIDTH 7 0
BBX 7 14 0 -2
BITMAP
00
00
00
00
00
00
00
00
00
00
30
10
10
20
ENDCHAR

STARTCHAR hyphen
ENCODING 45
SWIDTH 960 0
DWIDTH 7 0
BBX 7 14 0 -2
BITMAP
00
00
00
00
00
00
00
7C
00
00
00
00
00
00
ENDCHAR

STARTCHAR period
ENCODING 46
SWIDTH 960 0
DWIDTH 7 0
BBX 7 14 0 -2
BITMAP
00
00
00
00
00
00
00
00
00
00
10
38
10
00
ENDCHAR

STARTCHAR slash
ENCODING 47
SWIDTH 960 0
DWIDTH 7 0
BBX 7 14 0 -2
BITMAP
00
04
04
08
08
10
10
10
20
20
40
40
80
80
ENDCHAR

STARTCHAR zero
ENCODING 48
SWIDTH 960 0
DWIDTH 7 0
BBX 7 14 0 -2
BITMAP
00
00
30
48
84
84
84
84
84
84
48
30
00
00
ENDCHAR

STARTCHAR one
ENCODING 49
SWIDTH 960 0
DWIDTH 7 0
BBX 7 14 0 -2
BITMAP
00
00
10
30
50
10
10
10
10
10
10
7C
00
00
ENDCHAR

STARTCHAR two
ENCODING 50
SWIDTH 960 0
DWIDTH 7 0
BBX 7 14 0 -2
BITMAP
00
00
78
84
84
04
08
08
10
20
40
FC
00
00
ENDCHAR

STARTCHAR three
ENCODING 51
SWIDTH 960 0
DWIDTH 7 0
BBX 7 14 0 -2
BITMAP
00
00
FC
04
08
10
38
04
04
84
84
78
00
00
ENDCHAR

STARTCHAR four
ENCODING 52
SWIDTH 960 0
DWIDTH 7 0
BBX 7 14 0 -2
BITMAP
00
00
08
18
28
28
48
48
88
FC
08
08
00
00
ENDCHAR

STARTCHAR five
ENCODING 53
SWIDTH 960 0
DWIDTH 7 0
BBX 7 14 0 -2
BITMAP
00
00
FC
80
80
F8
84
04
04
84
84
78
00
00
ENDCHAR

STARTCHAR six
ENCODING 54
SWIDTH 960 0
DWIDTH 7 0
BBX 7 14 0 -2
BITMAP
00
00
38
40
80
80
B8
C4
84
84
84
78
00
00
ENDCHAR

STARTCHAR seven
ENCODING 55
SWIDTH 960 0
DWIDTH 7 0
BBX 7 14 0 -2
BITMAP
00
00
FC
04
08
08
10
10
20
20
40
40
00
00
ENDCHAR

STARTCHAR eight
ENCODING 56
SWIDTH 960 0
DWIDTH 7 0
BBX 7 14 0 -2
BITMAP
00
00
78
84
84
48
30
48
84
84
84
78
00
00
ENDCHAR

STARTCHAR nine
ENCODING 57
SWIDTH 960 0
DWIDTH 7 0
BBX 7 14 0 -2
BITMAP
00
00
78
84
84
84
8C
74
04
84
88
70
00
00
ENDCHAR

STARTCHAR colon
ENCODING 58
SWIDTH 960 0
DWIDTH 7 0
BBX 7 14 0 -2
BITMAP
00
00
00
00
10
38
10
00
00
10
38
10
00
00
ENDCHAR

STARTCHAR semicolon
ENCODING 59
SWIDTH 960 0
DWIDTH 7 0
BBX 7 14 0 -2
BITMAP
00
00
00
00
00
30
30
00
00
30
10
10
20
00
ENDCHAR

STARTCHAR less
ENCODING 60
SWIDTH 960 0
DWIDTH 7 0
BBX 7 14 0 -2
BITMAP
00
00
00
04
08
10
20
40
20
10
08
04
00
00
ENDCHAR

STARTCHAR equal
ENCODING 61
SWIDTH 960 0
DWIDTH 7 0
BBX 7 14 0 -2
BITMAP
00
00
00
00
00
FC
00
00
FC
00
00
00
00
00
ENDCHAR

STARTCHAR greater
ENCODING 62
SWIDTH 960 0
DWIDTH 7 0
BBX 7 14 0 -2
BITMAP
00
00
00
40
20
10
08
04
08
10
20
40
00
00
ENDCHAR

STARTCHAR question
ENCODING 63
SWIDTH 960 0
DWIDTH 7 0
BBX 7 14 0 -2
BITMAP
00
00
78
84
84
08
10
10
10
00
10
10
00
00
ENDCHAR

STARTCHAR at
ENCODING 64
SWIDTH 960 0
DWIDTH 7 0
BBX 7 14 0 -2
BITMAP
00
00
38
44
9C
A4
A4
A4
A4
9C
40
3C
00
00
ENDCHAR

STARTCHAR A
ENCODING 65
SWIDTH 960 0
DWIDTH 7 0
BBX 7 14 0 -2
BITMAP
00
00
30
48
84
84
84
FC
84
84
84
84
00
00
ENDCHAR

STARTCHAR B
ENCODING 66
SWIDTH 960 0
DWIDTH 7 0
BBX 7 14 0 -2
BITMAP
00
00
F0
88
84
88
F0
88
84
84
88
F0
00
00
ENDCHAR

STARTCHAR C
ENCODING 67
SWIDTH 960 0
DWIDTH 7 0
BBX 7 14 0 -2
BITMAP
00
00
78
84
84
80
80
80
80
84
84
78
00
00
ENDCHAR

STARTCHAR D
ENCODING 68
SWIDTH 960 0
DWIDTH 7 0
BBX 7 14 0 -2
BITMAP
00
00
F0
88
84
84
84
84
84
84
88
F0
00
00
ENDCHAR

STARTCHAR E
ENCODING 69
SWIDTH 960 0
DWIDTH 7 0
BBX 7 14 0 -2
BITMAP
00
00
FC
80
80
80
F0
80
80
80
80
FC
00
00
ENDCHAR

STARTCHAR F
ENCODING 70
SWIDTH 960 0
DWIDTH 7 0
BBX 7 14 0 -2
BITMAP
00
00
FC
80
80
80
F0
80
80
80
80
80
00
00
ENDCHAR

STARTCHAR G
ENCODING 71
SWIDTH 960 0
DWIDTH 7 0
BBX 7 14 0 -2
BITMAP
00
00
78
84
84
80
80
9C
84
84
8C
74
00
00
ENDCHAR

STARTCHAR H
ENCODING 72
SWIDTH 960 0
DWIDTH 7 0
BBX 7 14 0 -2
BITMAP
00
00
84
84
84
84
FC
84
84
84
84
84
00
00
ENDCHAR

STARTCHAR I
ENCODING 73
SWIDTH 960 0
DWIDTH 7 0
BBX 7 14 0 -2
BITMAP
00
00
7C
10
10
10
10
10
10
10
10
7C
00
00
ENDCHAR

STARTCHAR J
ENCODING 74
SWIDTH 960 0
DWIDTH 7 0
BBX 7 14 0 -2
BITMAP
00
00
1C
08
08
08
08
08
08
88
88
70
00
00
ENDCHAR

STARTCHAR K
ENCODING 75
SWIDTH 960 0
DWIDTH 7 0
BBX 7 14 0 -2
BITMAP
00
00
84
88
90
A0
C0
A0
90
88
84
84
00
00
ENDCHAR

STARTCHAR L
ENCODING 76
SWIDTH 960 0
DWIDTH 7 0
BBX 7 14 0 -2
BITMAP
00
00
80
80
80
80
80
80
80
80
80
FC
00
00
ENDCHAR

STARTCHAR M
ENCODING 77
SWIDTH 960 0
DWIDTH 7 0
BBX 7 14 0 -2
BITMAP
00
00
84
CC
CC
B4
B4
84
84
84
84
84
00
00
ENDCHAR

STARTCHAR N
ENCODING 78
SWIDTH 960 0
DWIDTH 7 0
BBX 7 14 0 -2
BITMAP
00
00
84
84
C4
C4
A4
94
8C
8C
84
84
00
00
ENDCHAR

STARTCHAR O
ENCODING 79
SWIDTH 960 0
DWIDTH 7 0
BBX 7 14 0 -2
BITMAP
00
00
78
84
84
84
84
84
84
84
84
78
00
00
ENDCHAR

STARTCHAR P
ENCODING 80
SWIDTH 960 0
DWIDTH 7 0
BBX 7 14 0 -2
BITMAP
00
00
F8
84
84
84
84
F8
80
80
80
80
00
00
ENDCHAR

STARTCHAR Q
ENCODING 81
SWIDTH 960 0
DWIDTH 7 0
BBX 7 14 0 -2
BITMAP
00
00
78
84
84
84
84
84
E4
94
8C
78
08
04
ENDCHAR

STARTCHAR R
ENCODING 82
SWIDTH 960 0
DWIDTH 7 0
BBX 7 14 0 -2
BITMAP
00
00
F8
84
84
84
84
F8
90
88
84
84
00
00
ENDCHAR

STARTCHAR S
ENCODING 83
SWIDTH 960 0
DWIDTH 7 0
BBX 7 14 0 -2
BITMAP
00
00
78
84
84
80
60
18
04
84
84
78
00
00
ENDCHAR

STARTCHAR T
ENCODING 84
SWIDTH 960 0
DWIDTH 7 0
BBX 7 14 0 -2
BITMAP
00
00
FE
10
10
10
10
10
10
10
10
10
00
00
ENDCHAR

STARTCHAR U
ENCODING 85
SWIDTH 960 0
DWIDTH 7 0
BBX 7 14 0 -2
BITMAP
00
00
84
84
84
84
84
84
84
84
84
78
00
00
ENDCHAR

STARTCHAR V
ENCODING 86
SWIDTH 960 0
DWIDTH 7 0
BBX 7 14 0 -2
BITMAP
00
00
84
84
84
84
48
48
48
30
30
30
00
00
ENDCHAR

STARTCHAR W
ENCODING 87
SWIDTH 960 0
DWIDTH 7 0
BBX 7 14 0 -2
BITMAP
00
00
44
44
44
44
44
44
54
54
54
28
00
00
ENDCHAR

STARTCHAR X
ENCODING 88
SWIDTH 960 0
DWIDTH 7 0
BBX 7 14 0 -2
BITMAP
00
00
84
84
48
48
30
30
48
48
84
84
00
00
ENDCHAR

STARTCHAR Y
ENCODING 89
SWIDTH 960 0
DWIDTH 7 0
BBX 7 14 0 -2
BITMAP
00
00
44
44
44
28
28
10
10
10
10
10
00
00
ENDCHAR

STARTCHAR Z
ENCODING 90
SWIDTH 960 0
DWIDTH 7 0
BBX 7 14 0 -2
BITMAP
00
00
FC
04
08
10
10
20
40
40
80
FC
00
00
ENDCHAR

STARTCHAR bracketleft
ENCODING 91
SWIDTH 960 0
DWIDTH 7 0
BBX 7 14 0 -2
BITMAP
00
3C
20
20
20
20
20
20
20
20
20
20
20
3C
ENDCHAR

STARTCHAR backslash
ENCODING 92
SWIDTH 960 0
DWIDTH 7 0
BBX 7 14 0 -2
BITMAP
00
80
80
40
40
20
20
20
10
10
08
08
04
04
ENDCHAR

STARTCHAR bracketright
ENCODING 93
SWIDTH 960 0
DWIDTH 7 0
BBX 7 14 0 -2
BITMAP
00
78
08
08
08
08
08
08
08
08
08
08
08
78
ENDCHAR

STARTCHAR asciicircum
ENCODING 94
SWIDTH 960 0
DWIDTH 7 0
BBX 7 14 0 -2
BITMAP
00
30
48
84
00
00
00
00
00
00
00
00
00
00
ENDCHAR

STARTCHAR underscore
ENCODING 95
SWIDTH 960 0
DWIDTH 7 0
BBX 7 14 0 -2
BITMAP
00
00
00
00
00
00
00
00
00
00
00
00
00
FC
ENDCHAR

STARTCHAR grave
ENCODING 96
SWIDTH 960 0
DWIDTH 7 0
BBX 7 14 0 -2
BITMAP
00
20
10
08
00
00
00
00
00
00
00
00
00
00
ENDCHAR

STARTCHAR a
ENCODING 97
SWIDTH 960 0
DWIDTH 7 0
BBX 7 14 0 -2
BITMAP
00
00
00
00
00
78
84
04
7C
84
84
7C
00
00
ENDCHAR

STARTCHAR b
ENCODING 98
SWIDTH 960 0
DWIDTH 7 0
BBX 7 14 0 -2
BITMAP
00
00
80
80
80
B8
C4
84
84
84
C4
B8
00
00
ENDCHAR

STARTCHAR c
ENCODING 99
SWIDTH 960 0
DWIDTH 7 0
BBX 7 14 0 -2
BITMAP
00
00
00
00
00
78
84
80
80
80
84
78
00
00
ENDCHAR

STARTCHAR d
ENCODING 100
SWIDTH 960 0
DWIDTH 7 0
BBX 7 14 0 -2
BITMAP
00
00
04
04
04
74
8C
84
84
84
8C
74
00
00
ENDCHAR

STARTCHAR e
ENCODING 101
SWIDTH 960 0
DWIDTH 7 0
BBX 7 14 0 -2
BITMAP
00
00
00
00
00
78
84
84
FC
80
84
78
00
00
ENDCHAR

STARTCHAR f
ENCODING 102
SWIDTH 960 0
DWIDTH 7 0
BBX 7 14 0 -2
BITMAP
00
00
18
24
20
20
F8
20
20
20
20
20
00
00
ENDCHAR

STARTCHAR g
ENCODING 103
SWIDTH 960 0
DWIDTH 7 0
BBX 7 14 0 -2
BITMAP
00
00
00
00
00
74
88
88
88
70
40
B8
84
78
ENDCHAR

STARTCHAR h
ENCODING 104
SWIDTH 960 0
DWIDTH 7 0
BBX 7 14 0 -2
BITMAP
00
00
80
80
80
B8
C4
84
84
84
84
84
00
00
ENDCHAR

STARTCHAR i
ENCODING 105
SWIDTH 960 0
DWIDTH 7 0
BBX 7 14 0 -2
BITMAP
00
00
10
10
00
30
10
10
10
10
10
7C
00
00
ENDCHAR

STARTCHAR j
ENCODING 106
SWIDTH 960 0
DWIDTH 7 0
BBX 7 14 0 -2
BITMAP
00
00
04
04
00
0C
04
04
04
04
04
44
44
38
ENDCHAR

STARTCHAR k
ENCODING 107
SWIDTH 960 0
DWIDTH 7 0
BBX 7 14 0 -2
BITMAP
00
00
80
80
80
88
90
A0
E0
90
88
84
00
00
ENDCHAR

STARTCHAR l
ENCODING 108
SWIDTH 960 0
DWIDTH 7 0
BBX 7 14 0 -2
BITMAP
00
00
30
10
10
10
10
10
10
10
10
7C
00
00
ENDCHAR

STARTCHAR m
ENCODING 109
SWIDTH 960 0
DWIDTH 7 0
BBX 7 14 0 -2
BITMAP
00
00
00
00
00
68
54
54
54
54
54
44
00
00
ENDCHAR

STARTCHAR n
ENCODING 110
SWIDTH 960 0
DWIDTH 7 0
BBX 7 14 0 -2
BITMAP
00
00
00
00
00
B8
C4
84
84
84
84
84
00
00
ENDCHAR

STARTCHAR o
ENCODING 111
SWIDTH 960 0
DWIDTH 7 0
BBX 7 14 0 -2
BITMAP
00
00
00
00
00
78
84
84
84
84
84
78
00
00
ENDCHAR

STARTCHAR p
ENCODING 112
SWIDTH 960 0
DWIDTH 7 0
BBX 7 14 0 -2
BITMAP
00
00
00
00
00
B8
C4
84
84
84
C4
B8
80
80
ENDCHAR

STARTCHAR q
ENCODING 113
SWIDTH 960 0
DWIDTH 7 0
BBX 7 14 0 -2
BITMAP
00
00
00
00
00
74
8C
84
84
84
8C
74
04
04
ENDCHAR

STARTCHAR r
ENCODING 114
SWIDTH 960 0
DWIDTH 7 0
BBX 7 14 0 -2
BITMAP
00
00
00
00
00
B8
C4
84
80
80
80
80
00
00
ENDCHAR

STARTCHAR s
ENCODING 115
SWIDTH 960 0
DWIDTH 7 0
BBX 7 14 0 -2
BITMAP
00
00
00
00
00
78
84
40
30
08
84
78
00
00
ENDCHAR

STARTCHAR t
ENCODING 116
SWIDTH 960 0
DWIDTH 7 0
BBX 7 14 0 -2
BITMAP
00
00
20
20
20
F8
20
20
20
20
24
18
00
00
ENDCHAR

STARTCHAR u
ENCODING 117
SWIDTH 960 0
DWIDTH 7 0
BBX 7 14 0 -2
BITMAP
00
00
00
00
00
84
84
84
84
84
8C
74
00
00
ENDCHAR

STARTCHAR v
ENCODING 118
SWIDTH 960 0
DWIDTH 7 0
BBX 7 14 0 -2
BITMAP
00
00
00
00
00
44
44
44
28
28
10
10
00
00
ENDCHAR

STARTCHAR w
ENCODING 119
SWIDTH 960 0
DWIDTH 7 0
BBX 7 14 0 -2
BITMAP
00
00
00
00
00
44
44
54
54
54
54
28
00
00
ENDCHAR

STARTCHAR x
ENCODING 120
SWIDTH 960 0
DWIDTH 7 0
BBX 7 14 0 -2
BITMAP
00
00
00
00
00
84
84
48
30
48
84
84
00
00
ENDCHAR

STARTCHAR y
ENCODING 121
SWIDTH 960 0
DWIDTH 7 0
BBX 7 14 0 -2
BITMAP
00
00
00
00
00
84
84
84
84
8C
74
04
84
78
ENDCHAR

STARTCHAR z
ENCODING 122
SWIDTH 960 0
DWIDTH 7 0
BBX 7 14 0 -2
BITMAP
00
00
00
00
00
FC
08
10
20
20
40
FC
00
00
ENDCHAR

STARTCHAR braceleft
ENCODING 123
SWIDTH 960 0
DWIDTH 7 0
BBX 7 14 0 -2
BITMAP
00
0C
10
10
10
10
10
20
10
10
10
10
10
0C
ENDCHAR

STARTCHAR bar
ENCODING 124
SWIDTH 960 0
DWIDTH 7 0
BBX 7 14 0 -2
BITMAP
00
10
10
10
10
10
10
10
10
10
10
10
10
10
ENDCHAR

STARTCHAR braceright
ENCODING 125
SWIDTH 960 0
DWIDTH 7 0
BBX 7 14 0 -2
BITMAP
00
60
10
10
10
10
10
08
10
10
10
10
10
60
ENDCHAR

STARTCHAR asciitilde
ENCODING 126
SWIDTH 960 0
DWIDTH 7 0
BBX 7 14 0 -2
BITMAP
00
40
A4
94
08
00
00
00
00
00
00
00
00
00
ENDCHAR

STARTCHAR space
ENCODING 160
SWIDTH 960 0
DWIDTH 7 0
BBX 7 14 0 -2
BITMAP
00
00
00
00
00
00
00
00
00
00
00
00
00
00
ENDCHAR

STARTCHAR exclamdown
ENCODING 161
SWIDTH 960 0
DWIDTH 7 0
BBX 7 14 0 -2
BITMAP
00
00
10
10
00
10
10
10
10
10
10
10
00
00
ENDCHAR

STARTCHAR cent
ENCODING 162
SWIDTH 960 0
DWIDTH 7 0
BBX 7 14 0 -2
BITMAP
00
00
00
00
20
78
A4
A0
A0
A0
A4
78
20
00
ENDCHAR

STARTCHAR sterling
ENCODING 163
SWIDTH 960 0
DWIDTH 7 0
BBX 7 14 0 -2
BITMAP
00
00
00
18
24
20
20
78
20
20
78
24
00
00
ENDCHAR

STARTCHAR Euro
ENCODING 164
SWIDTH 960 0
DWIDTH 7 0
BBX 7 14 0 -2
BITMAP
00
00
00
38
44
40
E0
40
E0
40
44
38
00
00
ENDCHAR

STARTCHAR yen
ENCODING 165
SWIDTH 960 0
DWIDTH 7 0
BBX 7 14 0 -2
BITMAP
00
00
44
28
28
10
7C
10
7C
10
10
10
00
00
ENDCHAR

STARTCHAR Scaron
ENCODING 166
SWIDTH 960 0
DWIDTH 7 0
BBX 7 14 0 -2
BITMAP
48
30
00
78
84
84
60
18
04
84
84
78
00
00
ENDCHAR

STARTCHAR section
ENCODING 167
SWIDTH 960 0
DWIDTH 7 0
BBX 7 14 0 -2
BITMAP
00
78
84
40
30
48
84
48
30
08
84
78
00
00
ENDCHAR

STARTCHAR scaron
ENCODING 168
SWIDTH 960 0
DWIDTH 7 0
BBX 7 14 0 -2
BITMAP
00
00
48
30
00
78
84
40
30
08
84
78
00
00
ENDCHAR

STARTCHAR copyright
ENCODING 169
SWIDTH 960 0
DWIDTH 7 0
BBX 7 14 0 -2
BITMAP
00
78
84
B4
CC
C4
C4
C4
CC
B4
84
78
00
00
ENDCHAR

STARTCHAR ordfeminine
ENCODING 170
SWIDTH 960 0
DWIDTH 7 0
BBX 7 14 0 -2
BITMAP
00
38
44
3C
44
4C
34
00
7C
00
00
00
00
00
ENDCHAR

STARTCHAR guillemotleft
ENCODING 171
SWIDTH 960 0
DWIDTH 7 0
BBX 7 14 0 -2
BITMAP
00
00
00
00
00
14
28
50
A0
50
28
14
00
00
ENDCHAR

STARTCHAR logicalnot
ENCODING 172
SWIDTH 960 0
DWIDTH 7 0
BBX 7 14 0 -2
BITMAP
00
00
00
00
00
00
00
00
7C
04
04
04
00
00
ENDCHAR

STARTCHAR hyphen
ENCODING 173
SWIDTH 960 0
DWIDTH 7 0
BBX 7 14 0 -2
BITMAP
00
00
00
00
00
00
00
78
00
00
00
00
00
00
ENDCHAR

STARTCHAR registered
ENCODING 174
SWIDTH 960 0
DWIDTH 7 0
BBX 7 14 0 -2
BITMAP
00
78
84
F4
CC
CC
F4
CC
CC
CC
84
78
00
00
ENDCHAR

STARTCHAR macron
ENCODING 175
SWIDTH 960 0
DWIDTH 7 0
BBX 7 14 0 -2
BITMAP
00
00
7C
00
00
00
00
00
00
00
00
00
00
00
ENDCHAR

STARTCHAR degree
ENCODING 176
SWIDTH 960 0
DWIDTH 7 0
BBX 7 14 0 -2
BITMAP
00
30
48
48
30
00
00
00
00
00
00
00
00
00
ENDCHAR

STARTCHAR plusminus
ENCODING 177
SWIDTH 960 0
DWIDTH 7 0
BBX 7 14 0 -2
BITMAP
00
00
00
00
00
00
10
10
7C
10
10
7C
00
00
ENDCHAR

STARTCHAR twosuperior
ENCODING 178
SWIDTH 960 0
DWIDTH 7 0
BBX 7 14 0 -2
BITMAP
00
30
48
08
10
20
40
78
00
00
00
00
00
00
ENDCHAR

STARTCHAR threesuperior
ENCODING 179
SWIDTH 960 0
DWIDTH 7 0
BBX 7 14 0 -2
BITMAP
00
30
48
08
30
08
48
30
00
00
00
00
00
00
ENDCHAR

STARTCHAR Zcaron
ENCODING 180
SWIDTH 960 0
DWIDTH 7 0
BBX 7 14 0 -2
BITMAP
48
30
00
FC
08
10
10
20
40
40
80
FC
00
00
ENDCHAR

STARTCHAR mu
ENCODING 181
SWIDTH 960 0
DWIDTH 7 0
BBX 7 14 0 -2
BITMAP
00
00
00
00
00
00
44
44
44
44
6C
54
40
40
ENDCHAR

STARTCHAR paragraph
ENCODING 182
SWIDTH 960 0
DWIDTH 7 0
BBX 7 14 0 -2
BITMAP
00
00
3C
54
54
54
54
34
14
14
14
14
14
1C
ENDCHAR

STARTCHAR periodcentered
ENCODING 183
SWIDTH 960 0
DWIDTH 7 0
BBX 7 14 0 -2
BITMAP
00
00
00
00
00
00
10
00
00
00
00
00
00
00
ENDCHAR

STARTCHAR zcaron
ENCODING 184
SWIDTH 960 0
DWIDTH 7 0
BBX 7 14 0 -2
BITMAP
00
00
48
30
00
FC
08
10
20
20
40
FC
00
00
ENDCHAR

STARTCHAR onesuperior
ENCODING 185
SWIDTH 960 0
DWIDTH 7 0
BBX 7 14 0 -2
BITMAP
00
10
30
10
10
10
10
38
00
00
00
00
00
00
ENDCHAR

STARTCHAR ordmasculine
ENCODING 186
SWIDTH 960 0
DWIDTH 7 0
BBX 7 14 0 -2
BITMAP
00
00
30
48
48
30
00
78
00
00
00
00
00
00
ENDCHAR

STARTCHAR guillemotright
ENCODING 187
SWIDTH 960 0
DWIDTH 7 0
BBX 7 14 0 -2
BITMAP
00
00
00
00
00
A0
50
28
14
28
50
A0
00
00
ENDCHAR

STARTCHAR OE
ENCODING 188
SWIDTH 960 0
DWIDTH 7 0
BBX 7 14 0 -2
BITMAP
00
00
7C
90
90
90
9C
90
90
90
90
7C
00
00
ENDCHAR

STARTCHAR oe
ENCODING 189
SWIDTH 960 0
DWIDTH 7 0
BBX 7 14 0 -2
BITMAP
00
00
00
00
00
78
94
94
9C
90
90
7C
00
00
ENDCHAR

STARTCHAR Ydieresis
ENCODING 190
SWIDTH 960 0
DWIDTH 7 0
BBX 7 14 0 -2
BITMAP
28
28
00
44
44
28
28
10
10
10
10
10
00
00
ENDCHAR

STARTCHAR questiondown
ENCODING 191
SWIDTH 960 0
DWIDTH 7 0
BBX 7 14 0 -2
BITMAP
00
00
00
20
20
00
20
20
20
20
40
84
84
78
ENDCHAR

STARTCHAR Agrave
ENCODING 192
SWIDTH 960 0
DWIDTH 7 0
BBX 7 14 0 -2
BITMAP
20
10
00
30
48
84
84
FC
84
84
84
84
00
00
ENDCHAR

STARTCHAR Aacute
ENCODING 193
SWIDTH 960 0
DWIDTH 7 0
BBX 7 14 0 -2
BITMAP
10
20
00
30
48
84
84
FC
84
84
84
84
00
00
ENDCHAR

STARTCHAR Acircumflex
ENCODING 194
SWIDTH 960 0
DWIDTH 7 0
BBX 7 14 0 -2
BITMAP
30
48
00
30
48
84
84
FC
84
84
84
84
00
00
ENDCHAR

STARTCHAR Atilde
ENCODING 195
SWIDTH 960 0
DWIDTH 7 0
BBX 7 14 0 -2
BITMAP
64
98
00
30
48
84
84
FC
84
84
84
84
00
00
ENDCHAR

STARTCHAR Adieresis
ENCODING 196
SWIDTH 960 0
DWIDTH 7 0
BBX 7 14 0 -2
BITMAP
00
48
00
30
48
84
84
FC
84
84
84
84
00
00
ENDCHAR

STARTCHAR Aring
ENCODING 197
SWIDTH 960 0
DWIDTH 7 0
BBX 7 14 0 -2
BITMAP
00
30
48
30
48
84
84
FC
84
84
84
84
00
00
ENDCHAR

STARTCHAR AE
ENCODING 198
SWIDTH 960 0
DWIDTH 7 0
BBX 7 14 0 -2
BITMAP
00
00
3C
50
90
90
FC
90
90
90
90
9C
00
00
ENDCHAR

STARTCHAR Ccedilla
ENCODING 199
SWIDTH 960 0
DWIDTH 7 0
BBX 7 14 0 -2
BITMAP
00
00
78
84
84
80
80
80
80
84
84
78
10
20
ENDCHAR

STARTCHAR Egrave
ENCODING 200
SWIDTH 960 0
DWIDTH 7 0
BBX 7 14 0 -2
BITMAP
20
10
00
FC
80
80
80
F8
80
80
80
FC
00
00
ENDCHAR

STARTCHAR Eacute
ENCODING 201
SWIDTH 960 0
DWIDTH 7 0
BBX 7 14 0 -2
BITMAP
10
20
00
FC
80
80
80
F8
80
80
80
FC
00
00
ENDCHAR

STARTCHAR Ecircumflex
ENCODING 202
SWIDTH 960 0
DWIDTH 7 0
BBX 7 14 0 -2
BITMAP
30
48
00
FC
80
80
80
F8
80
80
80
FC
00
00
ENDCHAR

STARTCHAR Edieresis
ENCODING 203
SWIDTH 960 0
DWIDTH 7 0
BBX 7 14 0 -2
BITMAP
00
48
00
FC
80
80
80
F8
80
80
80
FC
00
00
ENDCHAR

STARTCHAR Igrave
ENCODING 204
SWIDTH 960 0
DWIDTH 7 0
BBX 7 14 0 -2
BITMAP
20
10
00
7C
10
10
10
10
10
10
10
7C
00
00
ENDCHAR

STARTCHAR Iacute
ENCODING 205
SWIDTH 960 0
DWIDTH 7 0
BBX 7 14 0 -2
BITMAP
08
10
00
7C
10
10
10
10
10
10
10
7C
00
00
ENDCHAR

STARTCHAR Icircumflex
ENCODING 206
SWIDTH 960 0
DWIDTH 7 0
BBX 7 14 0 -2
BITMAP
10
28
00
7C
10
10
10
10
10
10
10
7C
00
00
ENDCHAR

STARTCHAR Idieresis
ENCODING 207
SWIDTH 960 0
DWIDTH 7 0
BBX 7 14 0 -2
BITMAP
00
28
00
7C
10
10
10
10
10
10
10
7C
00
00
ENDCHAR

STARTCHAR Eth
ENCODING 208
SWIDTH 960 0
DWIDTH 7 0
BBX 7 14 0 -2
BITMAP
00
00
78
44
42
42
F2
42
42
42
44
78
00
00
ENDCHAR

STARTCHAR Ntilde
ENCODING 209
SWIDTH 960 0
DWIDTH 7 0
BBX 7 14 0 -2
BITMAP
64
98
00
C4
C4
A4
A4
94
94
94
8C
8C
00
00
ENDCHAR

STARTCHAR Ograve
ENCODING 210
SWIDTH 960 0
DWIDTH 7 0
BBX 7 14 0 -2
BITMAP
20
10
00
78
84
84
84
84
84
84
84
78
00
00
ENDCHAR

STARTCHAR Oacute
ENCODING 211
SWIDTH 960 0
DWIDTH 7 0
BBX 7 14 0 -2
BITMAP
10
20
00
78
84
84
84
84
84
84
84
78
00
00
ENDCHAR

STARTCHAR Ocircumflex
ENCODING 212
SWIDTH 960 0
DWIDTH 7 0
BBX 7 14 0 -2
BITMAP
30
48
00
78
84
84
84
84
84
84
84
78
00
00
ENDCHAR

STARTCHAR Otilde
ENCODING 213
SWIDTH 960 0
DWIDTH 7 0
BBX 7 14 0 -2
BITMAP
64
98
00
78
84
84
84
84
84
84
84
78
00
00
ENDCHAR

STARTCHAR Odieresis
ENCODING 214
SWIDTH 960 0
DWIDTH 7 0
BBX 7 14 0 -2
BITMAP
00
48
00
78
84
84
84
84
84
84
84
78
00
00
ENDCHAR

STARTCHAR multiply
ENCODING 215
SWIDTH 960 0
DWIDTH 7 0
BBX 7 14 0 -2
BITMAP
00
00
00
00
00
82
44
28
10
28
44
82
00
00
ENDCHAR

STARTCHAR Oslash
ENCODING 216
SWIDTH 960 0
DWIDTH 7 0
BBX 7 14 0 -2
BITMAP
04
04
78
8C
94
94
94
A4
A4
A4
C4
78
80
80
ENDCHAR

STARTCHAR Ugrave
ENCODING 217
SWIDTH 960 0
DWIDTH 7 0
BBX 7 14 0 -2
BITMAP
20
10
00
84
84
84
84
84
84
84
84
78
00
00
ENDCHAR

STARTCHAR Uacute
ENCODING 218
SWIDTH 960 0
DWIDTH 7 0
BBX 7 14 0 -2
BITMAP
10
20
00
84
84
84
84
84
84
84
84
78
00
00
ENDCHAR

STARTCHAR Ucircumflex
ENCODING 219
SWIDTH 960 0
DWIDTH 7 0
BBX 7 14 0 -2
BITMAP
30
48
00
84
84
84
84
84
84
84
84
78
00
00
ENDCHAR

STARTCHAR Udieresis
ENCODING 220
SWIDTH 960 0
DWIDTH 7 0
BBX 7 14 0 -2
BITMAP
00
48
00
84
84
84
84
84
84
84
84
78
00
00
ENDCHAR

STARTCHAR Yacute
ENCODING 221
SWIDTH 960 0
DWIDTH 7 0
BBX 7 14 0 -2
BITMAP
08
10
00
44
44
28
28
10
10
10
10
10
00
00
ENDCHAR

STARTCHAR Thorn
ENCODING 222
SWIDTH 960 0
DWIDTH 7 0
BBX 7 14 0 -2
BITMAP
00
00
80
80
F8
84
84
84
84
F8
80
80
00
00
ENDCHAR

STARTCHAR germandbls
ENCODING 223
SWIDTH 960 0
DWIDTH 7 0
BBX 7 14 0 -2
BITMAP
00
00
30
48
48
48
70
48
44
44
44
F8
00
00
ENDCHAR

STARTCHAR agrave
ENCODING 224
SWIDTH 960 0
DWIDTH 7 0
BBX 7 14 0 -2
BITMAP
00
00
20
10
00
78
84
04
7C
84
84
7C
00
00
ENDCHAR

STARTCHAR aacute
ENCODING 225
SWIDTH 960 0
DWIDTH 7 0
BBX 7 14 0 -2
BITMAP
00
00
08
10
00
78
84
04
7C
84
84
7C
00
00
ENDCHAR

STARTCHAR acircumflex
ENCODING 226
SWIDTH 960 0
DWIDTH 7 0
BBX 7 14 0 -2
BITMAP
00
00
30
48
00
78
84
04
7C
84
84
7C
00
00
ENDCHAR

STARTCHAR atilde
ENCODING 227
SWIDTH 960 0
DWIDTH 7 0
BBX 7 14 0 -2
BITMAP
00
00
64
98
00
78
84
04
7C
84
84
7C
00
00
ENDCHAR

STARTCHAR adieresis
ENCODING 228
SWIDTH 960 0
DWIDTH 7 0
BBX 7 14 0 -2
BITMAP
00
00
00
48
00
78
84
04
7C
84
84
7C
00
00
ENDCHAR

STARTCHAR aring
ENCODING 229
SWIDTH 960 0
DWIDTH 7 0
BBX 7 14 0 -2
BITMAP
00
30
48
30
00
78
84
04
7C
84
84
7C
00
00
ENDCHAR

STARTCHAR ae
ENCODING 230
SWIDTH 960 0
DWIDTH 7 0
BBX 7 14 0 -2
BITMAP
00
00
00
00
00
7C
92
32
5E
90
92
7C
00
00
ENDCHAR

STARTCHAR ccedilla
ENCODING 231
SWIDTH 960 0
DWIDTH 7 0
BBX 7 14 0 -2
BITMAP
00
00
00
00
00
78
84
80
80
80
84
78
10
20
ENDCHAR

STARTCHAR egrave
ENCODING 232
SWIDTH 960 0
DWIDTH 7 0
BBX 7 14 0 -2
BITMAP
00
00
20
10
00
78
84
84
FC
80
84
78
00
00
ENDCHAR

STARTCHAR eacute
ENCODING 233
SWIDTH 960 0
DWIDTH 7 0
BBX 7 14 0 -2
BITMAP
00
00
10
20
00
78
84
84
FC
80
84
78
00
00
ENDCHAR

STARTCHAR ecircumflex
ENCODING 234
SWIDTH 960 0
DWIDTH 7 0
BBX 7 14 0 -2
BITMAP
00
00
30
48
00
78
84
84
FC
80
84
78
00
00
ENDCHAR

STARTCHAR edieresis
ENCODING 235
SWIDTH 960 0
DWIDTH 7 0
BBX 7 14 0 -2
BITMAP
00
00
00
48
00
78
84
84
FC
80
84
78
00
00
ENDCHAR

STARTCHAR igrave
ENCODING 236
SWIDTH 960 0
DWIDTH 7 0
BBX 7 14 0 -2
BITMAP
00
00
20
10
00
30
10
10
10
10
10
7C
00
00
ENDCHAR

STARTCHAR iacute
ENCODING 237
SWIDTH 960 0
DWIDTH 7 0
BBX 7 14 0 -2
BITMAP
00
00
08
10
00
30
10
10
10
10
10
7C
00
00
ENDCHAR

STARTCHAR icircumflex
ENCODING 238
SWIDTH 960 0
DWIDTH 7 0
BBX 7 14 0 -2
BITMAP
00
00
30
48
00
30
10
10
10
10
10
7C
00
00
ENDCHAR

STARTCHAR idieresis
ENCODING 239
SWIDTH 960 0
DWIDTH 7 0
BBX 7 14 0 -2
BITMAP
00
00
00
28
00
30
10
10
10
10
10
7C
00
00
ENDCHAR

STARTCHAR eth
ENCODING 240
SWIDTH 960 0
DWIDTH 7 0
BBX 7 14 0 -2
BITMAP
00
28
10
28
04
3C
44
44
44
44
44
38
00
00
ENDCHAR

STARTCHAR ntilde
ENCODING 241
SWIDTH 960 0
DWIDTH 7 0
BBX 7 14 0 -2
BITMAP
00
00
64
98
00
B8
C4
84
84
84
84
84
00
00
ENDCHAR

STARTCHAR ograve
ENCODING 242
SWIDTH 960 0
DWIDTH 7 0
BBX 7 14 0 -2
BITMAP
00
00
20
10
00
78
84
84
84
84
84
78
00
00
ENDCHAR

STARTCHAR oacute
ENCODING 243
SWIDTH 960 0
DWIDTH 7 0
BBX 7 14 0 -2
BITMAP
00
00
10
20
00
78
84
84
84
84
84
78
00
00
ENDCHAR

STARTCHAR ocircumflex
ENCODING 244
SWIDTH 960 0
DWIDTH 7 0
BBX 7 14 0 -2
BITMAP
00
00
30
48
00
78
84
84
84
84
84
78
00
00
ENDCHAR

STARTCHAR otilde
ENCODING 245
SWIDTH 960 0
DWIDTH 7 0
BBX 7 14 0 -2
BITMAP
00
00
64
98
00
78
84
84
84
84
84
78
00
00
ENDCHAR

STARTCHAR odieresis
ENCODING 246
SWIDTH 960 0
DWIDTH 7 0
BBX 7 14 0 -2
BITMAP
00
00
00
48
00
78
84
84
84
84
84
78
00
00
ENDCHAR

STARTCHAR divide
ENCODING 247
SWIDTH 960 0
DWIDTH 7 0
BBX 7 14 0 -2
BITMAP
00
00
00
00
00
00
00
30
00
FC
00
30
00
00
ENDCHAR

STARTCHAR oslash
ENCODING 248
SWIDTH 960 0
DWIDTH 7 0
BBX 7 14 0 -2
BITMAP
00
00
00
04
08
78
94
94
A4
A4
C4
78
80
80
ENDCHAR

STARTCHAR ugrave
ENCODING 249
SWIDTH 960 0
DWIDTH 7 0
BBX 7 14 0 -2
BITMAP
00
00
20
10
00
84
84
84
84
84
8C
74
00
00
ENDCHAR

STARTCHAR uacute
ENCODING 250
SWIDTH 960 0
DWIDTH 7 0
BBX 7 14 0 -2
BITMAP
00
00
10
20
00
84
84
84
84
84
8C
74
00
00
ENDCHAR

STARTCHAR ucircumflex
ENCODING 251
SWIDTH 960 0
DWIDTH 7 0
BBX 7 14 0 -2
BITMAP
00
00
30
48
00
84
84
84
84
84
8C
74
00
00
ENDCHAR

STARTCHAR udieresis
ENCODING 252
SWIDTH 960 0
DWIDTH 7 0
BBX 7 14 0 -2
BITMAP
00
00
00
48
00
84
84
84
84
84
8C
74
00
00
ENDCHAR

STARTCHAR yacute
ENCODING 253
SWIDTH 960 0
DWIDTH 7 0
BBX 7 14 0 -2
BITMAP
00
00
10
20
00
84
84
44
48
28
38
10
90
60
ENDCHAR

STARTCHAR thorn
ENCODING 254
SWIDTH 960 0
DWIDTH 7 0
BBX 7 14 0 -2
BITMAP
00
00
80
80
80
B8
C4
84
84
84
C4
B8
80
80
ENDCHAR

STARTCHAR ydieresis
ENCODING 255
SWIDTH 960 0
DWIDTH 7 0
BBX 7 14 0 -2
BITMAP
00
00
00
48
00
84
84
44
48
28
38
10
90
60
ENDCHAR

ENDFONT
