STARTFONT 2.1
FONT -Misc-Fixed-Medium-R-Normal--20-200-75-75-C-100-ISO8859-15
SIZE 20 75 75
FONTBOUNDINGBOX 10 20 0 -4

STARTPROPERTIES 24
FONTNAME_REGISTRY ""
FOUNDRY "Misc"
FAMILY_NAME "Fixed"
WEIGHT_NAME "Medium"
SLANT "R"
SETWIDTH_NAME "Normal"
ADD_STYLE_NAME ""
PIXEL_SIZE 20
POINT_SIZE 200
RESOLUTION_X 75
RESOLUTION_Y 75
SPACING "C"
AVERAGE_WIDTH 100
CHARSET_REGISTRY "ISO8859"
CHARSET_ENCODING "15"
X_HEIGHT 8
CAP_HEIGHT 13
COPYRIGHT "Public domain font.  Share and enjoy."
_GBDFED_INFO "Edited with gbdfed 1.3."
WEIGHT 10
QUAD_WIDTH 10
DEFAULT_CHAR 0
FONT_DESCENT 4
FONT_ASCENT 16
ENDPROPERTIES

CHARS 223

STARTCHAR defaultchar
ENCODING 0
SWIDTH 480 0
DWIDTH 10 0
BBX 10 20 0 -4
BITMAP
0000
0000
0000
7380
4080
4080
0000
0000
4080
4080
4080
0000
0000
4080
4080
7380
0000
0000
0000
0000
ENDCHAR

STARTCHAR uni25C6
ENCODING 1
SWIDTH 480 0
DWIDTH 10 0
BBX 10 20 0 -4
BITMAP
0000
0000
0000
0000
0000
0000
0C00
1E00
3F00
7F80
7F80
3F00
1E00
0C00
0000
0000
0000
0000
0000
0000
ENDCHAR

STARTCHAR shade
ENCODING 2
SWIDTH 480 0
DWIDTH 10 0
BBX 10 20 0 -4
BITMAP
5540
AA80
5540
AA80
5540
AA80
5540
AA80
5540
AA80
5540
AA80
5540
AA80
5540
AA80
5540
AA80
5540
AA80
ENDCHAR

STARTCHAR uni2409
ENCODING 3
SWIDTH 480 0
DWIDTH 10 0
BBX 10 20 0 -4
BITMAP
0000
0000
6600
6600
6600
7E00
6600
6600
6600
0000
1F80
0600
0600
0600
0600
0600
0000
0000
0000
0000
ENDCHAR

STARTCHAR uni240C
ENCODING 4
SWIDTH 480 0
DWIDTH 10 0
BBX 10 20 0 -4
BITMAP
0000
0000
7C00
6000
6000
7800
6000
6000
6000
0F80
0C00
0C00
0F00
0C00
0C00
0C00
0000
0000
0000
0000
ENDCHAR

STARTCHAR uni240D
ENCODING 5
SWIDTH 480 0
DWIDTH 10 0
BBX 10 20 0 -4
BITMAP
0000
0000
3C00
6600
6000
6000
6600
3C00
0000
1F00
1980
1980
1F00
1E00
1B00
1980
0000
0000
0000
0000
ENDCHAR

STARTCHAR uni240A
ENCODING 6
SWIDTH 480 0
DWIDTH 10 0
BBX 10 20 0 -4
BITMAP
0000
0000
3000
3000
3000
3000
3000
3E00
0000
0F80
0C00
0C00
0F00
0C00
0C00
0C00
0000
0000
0000
0000
ENDCHAR

STARTCHAR degree
ENCODING 7
SWIDTH 480 0
DWIDTH 10 0
BBX 10 20 0 -4
BITMAP
0000
0000
0000
0C00
1E00
3300
3300
1E00
0C00
0000
0000
0000
0000
0000
0000
0000
0000
0000
0000
0000
ENDCHAR

STARTCHAR plusminus
ENCODING 8
SWIDTH 480 0
DWIDTH 10 0
BBX 10 20 0 -4
BITMAP
0000
0000
0000
0000
0000
0000
0000
0C00
0C00
7F80
0C00
0C00
0000
7F80
0000
0000
0000
0000
0000
0000
ENDCHAR

STARTCHAR uni2424
ENCODING 9
SWIDTH 480 0
DWIDTH 10 0
BBX 10 20 0 -4
BITMAP
0000
0000
6600
7600
7E00
7E00
6E00
6600
0000
0C00
0C00
0C00
0C00
0C00
0C00
0F80
0000
0000
0000
0000
ENDCHAR

STARTCHAR uni240B
ENCODING 10
SWIDTH 480 0
DWIDTH 10 0
BBX 10 20 0 -4
BITMAP
0000
0000
6600
6600
6600
3C00
3C00
1800
1800
0000
1F80
0600
0600
0600
0600
0600
0000
0000
0000
0000
ENDCHAR

STARTCHAR SF040000
ENCODING 11
SWIDTH 480 0
DWIDTH 10 0
BBX 10 20 0 -4
BITMAP
0800
0800
0800
0800
0800
0800
0800
0800
0800
F800
0000
0000
0000
0000
0000
0000
0000
0000
0000
0000
ENDCHAR

STARTCHAR SF030000
ENCODING 12
SWIDTH 480 0
DWIDTH 10 0
BBX 10 20 0 -4
BITMAP
0000
0000
0000
0000
0000
0000
0000
0000
0000
F800
0800
0800
0800
0800
0800
0800
0800
0800
0800
0800
ENDCHAR

STARTCHAR SF010000
ENCODING 13
SWIDTH 480 0
DWIDTH 10 0
BBX 10 20 0 -4
BITMAP
0000
0000
0000
0000
0000
0000
0000
0000
0000
0FC0
0800
0800
0800
0800
0800
0800
0800
0800
0800
0800
ENDCHAR

STARTCHAR SF020000
ENCODING 14
SWIDTH 480 0
DWIDTH 10 0
BBX 10 20 0 -4
BITMAP
0800
0800
0800
0800
0800
0800
0800
0800
0800
0FC0
0000
0000
0000
0000
0000
0000
0000
0000
0000
0000
ENDCHAR

STARTCHAR SF050000
ENCODING 15
SWIDTH 480 0
DWIDTH 10 0
BBX 10 20 0 -4
BITMAP
0800
0800
0800
0800
0800
0800
0800
0800
0800
FFC0
0800
0800
0800
0800
0800
0800
0800
0800
0800
0800
ENDCHAR

STARTCHAR uni23BA
ENCODING 16
SWIDTH 480 0
DWIDTH 10 0
BBX 10 20 0 -4
BITMAP
FFC0
0000
0000
0000
0000
0000
0000
0000
0000
0000
0000
0000
0000
0000
0000
0000
0000
0000
0000
0000
ENDCHAR

STARTCHAR uni23BB
ENCODING 17
SWIDTH 480 0
DWIDTH 10 0
BBX 10 20 0 -4
BITMAP
0000
0000
0000
0000
0000
FFC0
0000
0000
0000
0000
0000
0000
0000
0000
0000
0000
0000
0000
0000
0000
ENDCHAR

STARTCHAR SF100000
ENCODING 18
SWIDTH 480 0
DWIDTH 10 0
BBX 10 20 0 -4
BITMAP
0000
0000
0000
0000
0000
0000
0000
0000
0000
FFC0
0000
0000
0000
0000
0000
0000
0000
0000
0000
0000
ENDCHAR

STARTCHAR uni23BC
ENCODING 19
SWIDTH 480 0
DWIDTH 10 0
BBX 10 20 0 -4
BITMAP
0000
0000
0000
0000
0000
0000
0000
0000
0000
0000
0000
0000
0000
0000
FFC0
0000
0000
0000
0000
0000
ENDCHAR

STARTCHAR uni23BD
ENCODING 20
SWIDTH 480 0
DWIDTH 10 0
BBX 10 20 0 -4
BITMAP
0000
0000
0000
0000
0000
0000
0000
0000
0000
0000
0000
0000
0000
0000
0000
0000
0000
0000
0000
FFC0
ENDCHAR

STARTCHAR SF080000
ENCODING 21
SWIDTH 480 0
DWIDTH 10 0
BBX 10 20 0 -4
BITMAP
0800
0800
0800
0800
0800
0800
0800
0800
0800
0FC0
0800
0800
0800
0800
0800
0800
0800
0800
0800
0800
ENDCHAR

STARTCHAR SF090000
ENCODING 22
SWIDTH 480 0
DWIDTH 10 0
BBX 10 20 0 -4
BITMAP
0800
0800
0800
0800
0800
0800
0800
0800
0800
F800
0800
0800
0800
0800
0800
0800
0800
0800
0800
0800
ENDCHAR

STARTCHAR SF070000
ENCODING 23
SWIDTH 480 0
DWIDTH 10 0
BBX 10 20 0 -4
BITMAP
0800
0800
0800
0800
0800
0800
0800
0800
0800
FFC0
0000
0000
0000
0000
0000
0000
0000
0000
0000
0000
ENDCHAR

STARTCHAR SF060000
ENCODING 24
SWIDTH 480 0
DWIDTH 10 0
BBX 10 20 0 -4
BITMAP
0000
0000
0000
0000
0000
0000
0000
0000
0000
FFC0
0800
0800
0800
0800
0800
0800
0800
0800
0800
0800
ENDCHAR

STARTCHAR SF110000
ENCODING 25
SWIDTH 480 0
DWIDTH 10 0
BBX 10 20 0 -4
BITMAP
0800
0800
0800
0800
0800
0800
0800
0800
0800
0800
0800
0800
0800
0800
0800
0800
0800
0800
0800
0800
ENDCHAR

STARTCHAR lessequal
ENCODING 26
SWIDTH 480 0
DWIDTH 10 0
BBX 10 20 0 -4
BITMAP
0000
0000
0000
0000
0000
0000
0380
0E00
3800
E000
3800
0E00
0380
0000
0000
FF80
0000
0000
0000
0000
ENDCHAR

STARTCHAR greaterequal
ENCODING 27
SWIDTH 480 0
DWIDTH 10 0
BBX 10 20 0 -4
BITMAP
0000
0000
0000
0000
0000
0000
E000
3800
0E00
0380
0E00
3800
E000
0000
0000
FF80
0000
0000
0000
0000
ENDCHAR

STARTCHAR pi
ENCODING 28
SWIDTH 480 0
DWIDTH 10 0
BBX 10 20 0 -4
BITMAP
0000
0000
0000
0000
0000
0000
0000
0000
7F80
3300
3300
3300
3300
3300
3300
3300
0000
0000
0000
0000
ENDCHAR

STARTCHAR notequal
ENCODING 29
SWIDTH 480 0
DWIDTH 10 0
BBX 10 20 0 -4
BITMAP
0000
0000
0000
0000
0000
0000
0300
0300
0600
7F80
0C00
0C00
7F80
1800
3000
3000
0000
0000
0000
0000
ENDCHAR

STARTCHAR sterling
ENCODING 30
SWIDTH 480 0
DWIDTH 10 0
BBX 10 20 0 -4
BITMAP
0000
0000
0000
0000
0F00
1980
1980
1800
1800
7E00
1800
1800
1800
7C00
56C0
7380
0000
0000
0000
0000
ENDCHAR

STARTCHAR periodcentered
ENCODING 31
SWIDTH 480 0
DWIDTH 10 0
BBX 10 20 0 -4
BITMAP
0000
0000
0000
0000
0000
0000
0000
0000
0E00
0E00
0E00
0000
0000
0000
0000
0000
0000
0000
0000
0000
ENDCHAR

STARTCHAR space
ENCODING 32
SWIDTH 480 0
DWIDTH 10 0
BBX 10 20 0 -4
BITMAP
0000
0000
0000
0000
0000
0000
0000
0000
0000
0000
0000
0000
0000
0000
0000
0000
0000
0000
0000
0000
ENDCHAR

STARTCHAR exclam
ENCODING 33
SWIDTH 480 0
DWIDTH 10 0
BBX 10 20 0 -4
BITMAP
0000
0000
0000
0C00
0C00
0C00
0C00
0C00
0C00
0C00
0C00
0C00
0C00
0000
0C00
0C00
0000
0000
0000
0000
ENDCHAR

STARTCHAR quotedbl
ENCODING 34
SWIDTH 480 0
DWIDTH 10 0
BBX 10 20 0 -4
BITMAP
0000
0000
0000
3300
3300
3300
1200
0000
0000
0000
0000
0000
0000
0000
0000
0000
0000
0000
0000
0000
ENDCHAR

STARTCHAR numbersign
ENCODING 35
SWIDTH 480 0
DWIDTH 10 0
BBX 10 20 0 -4
BITMAP
0000
0000
0000
0000
0D80
0D80
0D80
3FC0
1B00
1B00
1B00
7F80
3600
3600
3600
0000
0000
0000
0000
0000
ENDCHAR

STARTCHAR dollar
ENCODING 36
SWIDTH 480 0
DWIDTH 10 0
BBX 10 20 0 -4
BITMAP
0000
0000
0000
0C00
3F00
6D80
6C00
6C00
6C00
3F00
0D80
0D80
0D80
6D80
3F00
0C00
0000
0000
0000
0000
ENDCHAR

STARTCHAR percent
ENCODING 37
SWIDTH 480 0
DWIDTH 10 0
BBX 10 20 0 -4
BITMAP
0000
0000
0000
0000
3980
6D80
6F00
3B00
0600
0600
0C00
0C00
1B80
1EC0
36C0
3380
0000
0000
0000
0000
ENDCHAR

STARTCHAR ampersand
ENCODING 38
SWIDTH 480 0
DWIDTH 10 0
BBX 10 20 0 -4
BITMAP
0000
0000
0000
1C00
3600
3600
3600
3C00
1800
3800
6C00
66C0
6380
6300
7780
3CC0
0000
0000
0000
0000
ENDCHAR

STARTCHAR quotesingle
ENCODING 39
SWIDTH 480 0
DWIDTH 10 0
BBX 10 20 0 -4
BITMAP
0000
0000
0000
0C00
0C00
0C00
0C00
0800
0000
0000
0000
0000
0000
0000
0000
0000
0000
0000
0000
0000
ENDCHAR

STARTCHAR parenleft
ENCODING 40
SWIDTH 480 0
DWIDTH 10 0
BBX 10 20 0 -4
BITMAP
0000
0000
0000
0300
0600
0C00
0C00
1800
1800
1800
1800
1800
0C00
0C00
0600
0300
0000
0000
0000
0000
ENDCHAR

STARTCHAR parenright
ENCODING 41
SWIDTH 480 0
DWIDTH 10 0
BBX 10 20 0 -4
BITMAP
0000
0000
0000
3000
1800
0C00
0C00
0600
0600
0600
0600
0600
0C00
0C00
1800
3000
0000
0000
0000
0000
ENDCHAR

STARTCHAR asterisk
ENCODING 42
SWIDTH 480 0
DWIDTH 10 0
BBX 10 20 0 -4
BITMAP
0000
0000
0000
0000
0000
0000
3300
3300
1E00
7F80
1E00
3300
3300
0000
0000
0000
0000
0000
0000
0000
ENDCHAR

STARTCHAR plus
ENCODING 43
SWIDTH 480 0
DWIDTH 10 0
BBX 10 20 0 -4
BITMAP
0000
0000
0000
0000
0000
0000
0C00
0C00
0C00
7F80
0C00
0C00
0C00
0000
0000
0000
0000
0000
0000
0000
ENDCHAR

STARTCHAR comma
ENCODING 44
SWIDTH 480 0
DWIDTH 10 0
BBX 10 20 0 -4
BITMAP
0000
0000
0000
0000
0000
0000
0000
0000
0000
0000
0000
0000
0000
0000
0E00
0E00
1C00
0000
0000
0000
ENDCHAR

STARTCHAR hyphen
ENCODING 45
SWIDTH 480 0
DWIDTH 10 0
BBX 10 20 0 -4
BITMAP
0000
0000
0000
0000
0000
0000
0000
0000
0000
7F80
0000
0000
0000
0000
0000
0000
0000
0000
0000
0000
ENDCHAR

STARTCHAR period
ENCODING 46
SWIDTH 480 0
DWIDTH 10 0
BBX 10 20 0 -4
BITMAP
0000
0000
0000
0000
0000
0000
0000
0000
0000
0000
0000
0000
0000
0E00
0E00
0E00
0000
0000
0000
0000
ENDCHAR

STARTCHAR slash
ENCODING 47
SWIDTH 480 0
DWIDTH 10 0
BBX 10 20 0 -4
BITMAP
0000
0000
0000
0000
0180
0180
0300
0300
0600
0600
0C00
0C00
1800
1800
3000
3000
0000
0000
0000
0000
ENDCHAR

STARTCHAR zero
ENCODING 48
SWIDTH 480 0
DWIDTH 10 0
BBX 10 20 0 -4
BITMAP
0000
0000
0000
0C00
1E00
3300
3300
6180
6180
6180
6180
6180
3300
3300
1E00
0C00
0000
0000
0000
0000
ENDCHAR

STARTCHAR one
ENCODING 49
SWIDTH 480 0
DWIDTH 10 0
BBX 10 20 0 -4
BITMAP
0000
0000
0000
0C00
1C00
3C00
6C00
0C00
0C00
0C00
0C00
0C00
0C00
0C00
0C00
7F80
0000
0000
0000
0000
ENDCHAR

STARTCHAR two
ENCODING 50
SWIDTH 480 0
DWIDTH 10 0
BBX 10 20 0 -4
BITMAP
0000
0000
0000
1E00
3300
6180
6180
0180
0180
0300
0E00
1800
3000
6000
6000
7F80
0000
0000
0000
0000
ENDCHAR

STARTCHAR three
ENCODING 51
SWIDTH 480 0
DWIDTH 10 0
BBX 10 20 0 -4
BITMAP
0000
0000
0000
1E00
3300
6180
6180
0180
0300
0E00
0300
0180
6180
6180
3300
1E00
0000
0000
0000
0000
ENDCHAR

STARTCHAR four
ENCODING 52
SWIDTH 480 0
DWIDTH 10 0
BBX 10 20 0 -4
BITMAP
0000
0000
0000
0100
0300
0700
0F00
1B00
3300
6300
6300
7F80
0300
0300
0300
0300
0000
0000
0000
0000
ENDCHAR

STARTCHAR five
ENCODING 53
SWIDTH 480 0
DWIDTH 10 0
BBX 10 20 0 -4
BITMAP
0000
0000
0000
7F80
6000
6000
6000
6000
6E00
7300
0180
0180
0180
6180
3300
1E00
0000
0000
0000
0000
ENDCHAR

STARTCHAR six
ENCODING 54
SWIDTH 480 0
DWIDTH 10 0
BBX 10 20 0 -4
BITMAP
0000
0000
0000
1E00
3300
6100
6000
6000
6E00
7300
6180
6180
6180
6180
3300
1E00
0000
0000
0000
0000
ENDCHAR

STARTCHAR seven
ENCODING 55
SWIDTH 480 0
DWIDTH 10 0
BBX 10 20 0 -4
BITMAP
0000
0000
0000
7F80
0180
0180
0300
0300
0600
0600
0C00
0C00
1800
1800
3000
3000
0000
0000
0000
0000
ENDCHAR

STARTCHAR eight
ENCODING 56
SWIDTH 480 0
DWIDTH 10 0
BBX 10 20 0 -4
BITMAP
0000
0000
0000
1E00
3300
6180
6180
6180
3300
1E00
3300
6180
6180
6180
3300
1E00
0000
0000
0000
0000
ENDCHAR

STARTCHAR nine
ENCODING 57
SWIDTH 480 0
DWIDTH 10 0
BBX 10 20 0 -4
BITMAP
0000
0000
0000
1E00
3300
6180
6180
6180
6180
3380
1D80
0180
0180
2180
3300
1E00
0000
0000
0000
0000
ENDCHAR

STARTCHAR colon
ENCODING 58
SWIDTH 480 0
DWIDTH 10 0
BBX 10 20 0 -4
BITMAP
0000
0000
0000
0000
0000
0000
0000
0000
0E00
0E00
0000
0000
0000
0000
0E00
0E00
0000
0000
0000
0000
ENDCHAR

STARTCHAR semicolon
ENCODING 59
SWIDTH 480 0
DWIDTH 10 0
BBX 10 20 0 -4
BITMAP
0000
0000
0000
0000
0000
0000
0000
0000
0E00
0E00
0000
0000
0000
0000
0E00
0E00
1C00
0000
0000
0000
ENDCHAR

STARTCHAR less
ENCODING 60
SWIDTH 480 0
DWIDTH 10 0
BBX 10 20 0 -4
BITMAP
0000
0000
0000
0100
0300
0600
0C00
1800
3000
6000
3000
1800
0C00
0600
0300
0100
0000
0000
0000
0000
ENDCHAR

STARTCHAR equal
ENCODING 61
SWIDTH 480 0
DWIDTH 10 0
BBX 10 20 0 -4
BITMAP
0000
0000
0000
0000
0000
0000
0000
7F80
0000
0000
0000
0000
7F80
0000
0000
0000
0000
0000
0000
0000
ENDCHAR

STARTCHAR greater
ENCODING 62
SWIDTH 480 0
DWIDTH 10 0
BBX 10 20 0 -4
BITMAP
0000
0000
0000
2000
3000
1800
0C00
0600
0300
0180
0300
0600
0C00
1800
3000
2000
0000
0000
0000
0000
ENDCHAR

STARTCHAR question
ENCODING 63
SWIDTH 480 0
DWIDTH 10 0
BBX 10 20 0 -4
BITMAP
0000
0000
0000
1E00
3300
6180
6180
6180
0300
0600
0C00
0C00
0C00
0000
0C00
0C00
0000
0000
0000
0000
ENDCHAR

STARTCHAR at
ENCODING 64
SWIDTH 480 0
DWIDTH 10 0
BBX 10 20 0 -4
BITMAP
0000
0000
0000
1E00
3300
6180
6780
6F80
6D80
6D80
6D80
6F00
6600
6000
3180
1F00
0000
0000
0000
0000
ENDCHAR

STARTCHAR A
ENCODING 65
SWIDTH 480 0
DWIDTH 10 0
BBX 10 20 0 -4
BITMAP
0000
0000
0000
0C00
1E00
3300
3300
6180
6180
6180
7F80
6180
6180
6180
6180
6180
0000
0000
0000
0000
ENDCHAR

STARTCHAR B
ENCODING 66
SWIDTH 480 0
DWIDTH 10 0
BBX 10 20 0 -4
BITMAP
0000
0000
0000
7C00
6600
6300
6300
6300
6600
7E00
6300
6180
6180
6180
6300
7E00
0000
0000
0000
0000
ENDCHAR

STARTCHAR C
ENCODING 67
SWIDTH 480 0
DWIDTH 10 0
BBX 10 20 0 -4
BITMAP
0000
0000
0000
1E00
3300
6180
6000
6000
6000
6000
6000
6000
6000
6180
3300
1E00
0000
0000
0000
0000
ENDCHAR

STARTCHAR D
ENCODING 68
SWIDTH 480 0
DWIDTH 10 0
BBX 10 20 0 -4
BITMAP
0000
0000
0000
7E00
6300
6180
6180
6180
6180
6180
6180
6180
6180
6180
6300
7E00
0000
0000
0000
0000
ENDCHAR

STARTCHAR E
ENCODING 69
SWIDTH 480 0
DWIDTH 10 0
BBX 10 20 0 -4
BITMAP
0000
0000
0000
7F80
6000
6000
6000
6000
6000
7E00
6000
6000
6000
6000
6000
7F80
0000
0000
0000
0000
ENDCHAR

STARTCHAR F
ENCODING 70
SWIDTH 480 0
DWIDTH 10 0
BBX 10 20 0 -4
BITMAP
0000
0000
0000
7F80
6000
6000
6000
6000
6000
7E00
6000
6000
6000
6000
6000
6000
0000
0000
0000
0000
ENDCHAR

STARTCHAR G
ENCODING 71
SWIDTH 480 0
DWIDTH 10 0
BBX 10 20 0 -4
BITMAP
0000
0000
0000
1E00
3300
6180
6000
6000
6000
6780
6180
6180
6180
6180
3380
1E80
0000
0000
0000
0000
ENDCHAR

STARTCHAR H
ENCODING 72
SWIDTH 480 0
DWIDTH 10 0
BBX 10 20 0 -4
BITMAP
0000
0000
0000
6180
6180
6180
6180
6180
6180
7F80
6180
6180
6180
6180
6180
6180
0000
0000
0000
0000
ENDCHAR

STARTCHAR I
ENCODING 73
SWIDTH 480 0
DWIDTH 10 0
BBX 10 20 0 -4
BITMAP
0000
0000
0000
7F80
0C00
0C00
0C00
0C00
0C00
0C00
0C00
0C00
0C00
0C00
0C00
7F80
0000
0000
0000
0000
ENDCHAR

STARTCHAR J
ENCODING 74
SWIDTH 480 0
DWIDTH 10 0
BBX 10 20 0 -4
BITMAP
0000
0000
0000
0FC0
0300
0300
0300
0300
0300
0300
0300
0300
6300
6300
3600
1C00
0000
0000
0000
0000
ENDCHAR

STARTCHAR K
ENCODING 75
SWIDTH 480 0
DWIDTH 10 0
BBX 10 20 0 -4
BITMAP
0000
0000
0000
6180
6180
6300
6300
6600
6600
7C00
6600
6600
6300
6300
6180
6180
0000
0000
0000
0000
ENDCHAR

STARTCHAR L
ENCODING 76
SWIDTH 480 0
DWIDTH 10 0
BBX 10 20 0 -4
BITMAP
0000
0000
0000
6000
6000
6000
6000
6000
6000
6000
6000
6000
6000
6000
6000
7F80
0000
0000
0000
0000
ENDCHAR

STARTCHAR M
ENCODING 77
SWIDTH 480 0
DWIDTH 10 0
BBX 10 20 0 -4
BITMAP
0000
0000
0000
6180
6180
7380
7380
7F80
6D80
6D80
6D80
6D80
6180
6180
6180
6180
0000
0000
0000
0000
ENDCHAR

STARTCHAR N
ENCODING 78
SWIDTH 480 0
DWIDTH 10 0
BBX 10 20 0 -4
BITMAP
0000
0000
0000
6180
7180
7180
7980
7980
6D80
6D80
6780
6780
6380
6380
6180
6180
0000
0000
0000
0000
ENDCHAR

STARTCHAR O
ENCODING 79
SWIDTH 480 0
DWIDTH 10 0
BBX 10 20 0 -4
BITMAP
0000
0000
0000
1E00
3300
6180
6180
6180
6180
6180
6180
6180
6180
6180
3300
1E00
0000
0000
0000
0000
ENDCHAR

STARTCHAR P
ENCODING 80
SWIDTH 480 0
DWIDTH 10 0
BBX 10 20 0 -4
BITMAP
0000
0000
0000
7E00
6300
6180
6180
6180
6180
6300
7E00
6000
6000
6000
6000
6000
0000
0000
0000
0000
ENDCHAR

STARTCHAR Q
ENCODING 81
SWIDTH 480 0
DWIDTH 10 0
BBX 10 20 0 -4
BITMAP
0000
0000
0000
1E00
3300
6180
6180
6180
6180
6180
6180
6180
6D80
6780
3300
1F00
0180
0000
0000
0000
ENDCHAR

STARTCHAR R
ENCODING 82
SWIDTH 480 0
DWIDTH 10 0
BBX 10 20 0 -4
BITMAP
0000
0000
0000
7E00
6300
6180
6180
6180
6180
6300
7E00
6600
6300
6300
6180
6180
0000
0000
0000
0000
ENDCHAR

STARTCHAR S
ENCODING 83
SWIDTH 480 0
DWIDTH 10 0
BBX 10 20 0 -4
BITMAP
0000
0000
0000
1E00
3300
6180
6000
6000
3000
1E00
0300
0180
0180
6180
3300
1E00
0000
0000
0000
0000
ENDCHAR

STARTCHAR T
ENCODING 84
SWIDTH 480 0
DWIDTH 10 0
BBX 10 20 0 -4
BITMAP
0000
0000
0000
7F80
0C00
0C00
0C00
0C00
0C00
0C00
0C00
0C00
0C00
0C00
0C00
0C00
0000
0000
0000
0000
ENDCHAR

STARTCHAR U
ENCODING 85
SWIDTH 480 0
DWIDTH 10 0
BBX 10 20 0 -4
BITMAP
0000
0000
0000
6180
6180
6180
6180
6180
6180
6180
6180
6180
6180
6180
3300
1E00
0000
0000
0000
0000
ENDCHAR

STARTCHAR V
ENCODING 86
SWIDTH 480 0
DWIDTH 10 0
BBX 10 20 0 -4
BITMAP
0000
0000
0000
6180
6180
6180
6180
3300
3300
3300
1E00
1E00
1E00
0C00
0C00
0C00
0000
0000
0000
0000
ENDCHAR

STARTCHAR W
ENCODING 87
SWIDTH 480 0
DWIDTH 10 0
BBX 10 20 0 -4
BITMAP
0000
0000
0000
6180
6180
6180
6180
6180
6D80
6D80
6D80
6D80
7380
7380
6180
6180
0000
0000
0000
0000
ENDCHAR

STARTCHAR X
ENCODING 88
SWIDTH 480 0
DWIDTH 10 0
BBX 10 20 0 -4
BITMAP
0000
0000
0000
6180
6180
3300
3300
1E00
1E00
0C00
1E00
1E00
3300
3300
6180
6180
0000
0000
0000
0000
ENDCHAR

STARTCHAR Y
ENCODING 89
SWIDTH 480 0
DWIDTH 10 0
BBX 10 20 0 -4
BITMAP
0000
0000
0000
6180
6180
3300
3300
1E00
1E00
0C00
0C00
0C00
0C00
0C00
0C00
0C00
0000
0000
0000
0000
ENDCHAR

STARTCHAR Z
ENCODING 90
SWIDTH 480 0
DWIDTH 10 0
BBX 10 20 0 -4
BITMAP
0000
0000
0000
7F80
0180
0180
0300
0600
0600
0C00
1800
1800
3000
6000
6000
7F80
0000
0000
0000
0000
ENDCHAR

STARTCHAR bracketleft
ENCODING 91
SWIDTH 480 0
DWIDTH 10 0
BBX 10 20 0 -4
BITMAP
0000
0000
0000
3F00
3000
3000
3000
3000
3000
3000
3000
3000
3000
3000
3000
3F00
0000
0000
0000
0000
ENDCHAR

STARTCHAR backslash
ENCODING 92
SWIDTH 480 0
DWIDTH 10 0
BBX 10 20 0 -4
BITMAP
0000
0000
0000
0000
3000
3000
1800
1800
0C00
0C00
0600
0600
0300
0300
0180
0180
0000
0000
0000
0000
ENDCHAR

STARTCHAR bracketright
ENCODING 93
SWIDTH 480 0
DWIDTH 10 0
BBX 10 20 0 -4
BITMAP
0000
0000
0000
3F00
0300
0300
0300
0300
0300
0300
0300
0300
0300
0300
0300
3F00
0000
0000
0000
0000
ENDCHAR

STARTCHAR asciicircum
ENCODING 94
SWIDTH 480 0
DWIDTH 10 0
BBX 10 20 0 -4
BITMAP
0000
0000
0000
0C00
1E00
3300
6180
0000
0000
0000
0000
0000
0000
0000
0000
0000
0000
0000
0000
0000
ENDCHAR

STARTCHAR underscore
ENCODING 95
SWIDTH 480 0
DWIDTH 10 0
BBX 10 20 0 -4
BITMAP
0000
0000
0000
0000
0000
0000
0000
0000
0000
0000
0000
0000
0000
0000
0000
0000
7FC0
0000
0000
0000
ENDCHAR

STARTCHAR grave
ENCODING 96
SWIDTH 480 0
DWIDTH 10 0
BBX 10 20 0 -4
BITMAP
0000
0000
0000
1800
0C00
0600
0000
0000
0000
0000
0000
0000
0000
0000
0000
0000
0000
0000
0000
0000
ENDCHAR

STARTCHAR a
ENCODING 97
SWIDTH 480 0
DWIDTH 10 0
BBX 10 20 0 -4
BITMAP
0000
0000
0000
0000
0000
0000
0000
0000
1F00
3180
0180
3F80
6180
6180
6180
3E80
0000
0000
0000
0000
ENDCHAR

STARTCHAR b
ENCODING 98
SWIDTH 480 0
DWIDTH 10 0
BBX 10 20 0 -4
BITMAP
0000
0000
0000
6000
6000
6000
6000
6000
6E00
7300
6180
6180
6180
6180
7300
6E00
0000
0000
0000
0000
ENDCHAR

STARTCHAR c
ENCODING 99
SWIDTH 480 0
DWIDTH 10 0
BBX 10 20 0 -4
BITMAP
0000
0000
0000
0000
0000
0000
0000
0000
1F00
3180
6000
6000
6000
6000
3180
1F00
0000
0000
0000
0000
ENDCHAR

STARTCHAR d
ENCODING 100
SWIDTH 480 0
DWIDTH 10 0
BBX 10 20 0 -4
BITMAP
0000
0000
0000
0180
0180
0180
0180
0180
1D80
3380
6180
6180
6180
6180
3380
1D80
0000
0000
0000
0000
ENDCHAR

STARTCHAR e
ENCODING 101
SWIDTH 480 0
DWIDTH 10 0
BBX 10 20 0 -4
BITMAP
0000
0000
0000
0000
0000
0000
0000
0000
1E00
3300
6180
7F80
6000
6000
3180
1F00
0000
0000
0000
0000
ENDCHAR

STARTCHAR f
ENCODING 102
SWIDTH 480 0
DWIDTH 10 0
BBX 10 20 0 -4
BITMAP
0000
0000
0000
0F00
1980
1980
1800
1800
7E00
1800
1800
1800
1800
1800
1800
1800
0000
0000
0000
0000
ENDCHAR

STARTCHAR g
ENCODING 103
SWIDTH 480 0
DWIDTH 10 0
BBX 10 20 0 -4
BITMAP
0000
0000
0000
0000
0000
0000
0000
0000
3E80
6380
6300
6300
6300
3E00
6000
3F00
6180
6180
6180
3F00
ENDCHAR

STARTCHAR h
ENCODING 104
SWIDTH 480 0
DWIDTH 10 0
BBX 10 20 0 -4
BITMAP
0000
0000
0000
6000
6000
6000
6000
6000
6E00
7300
6180
6180
6180
6180
6180
6180
0000
0000
0000
0000
ENDCHAR

STARTCHAR i
ENCODING 105
SWIDTH 480 0
DWIDTH 10 0
BBX 10 20 0 -4
BITMAP
0000
0000
0000
0000
0000
0C00
0C00
0000
3C00
0C00
0C00
0C00
0C00
0C00
0C00
7F80
0000
0000
0000
0000
ENDCHAR

STARTCHAR j
ENCODING 106
SWIDTH 480 0
DWIDTH 10 0
BBX 10 20 0 -4
BITMAP
0000
0000
0000
0000
0000
0180
0180
0000
0780
0180
0180
0180
0180
0180
0180
0180
3180
3180
3180
1F00
ENDCHAR

STARTCHAR k
ENCODING 107
SWIDTH 480 0
DWIDTH 10 0
BBX 10 20 0 -4
BITMAP
0000
0000
0000
6000
6000
6000
6000
6000
6300
6600
6C00
7800
7C00
6600
6300
6180
0000
0000
0000
0000
ENDCHAR

STARTCHAR l
ENCODING 108
SWIDTH 480 0
DWIDTH 10 0
BBX 10 20 0 -4
BITMAP
0000
0000
0000
3C00
0C00
0C00
0C00
0C00
0C00
0C00
0C00
0C00
0C00
0C00
0C00
7F80
0000
0000
0000
0000
ENDCHAR

STARTCHAR m
ENCODING 109
SWIDTH 480 0
DWIDTH 10 0
BBX 10 20 0 -4
BITMAP
0000
0000
0000
0000
0000
0000
0000
0000
5B00
7F80
6D80
6D80
6D80
6D80
6D80
6D80
0000
0000
0000
0000
ENDCHAR

STARTCHAR n
ENCODING 110
SWIDTH 480 0
DWIDTH 10 0
BBX 10 20 0 -4
BITMAP
0000
0000
0000
0000
0000
0000
0000
0000
6E00
7300
6180
6180
6180
6180
6180
6180
0000
0000
0000
0000
ENDCHAR

STARTCHAR o
ENCODING 111
SWIDTH 480 0
DWIDTH 10 0
BBX 10 20 0 -4
BITMAP
0000
0000
0000
0000
0000
0000
0000
0000
1E00
3300
6180
6180
6180
6180
3300
1E00
0000
0000
0000
0000
ENDCHAR

STARTCHAR p
ENCODING 112
SWIDTH 480 0
DWIDTH 10 0
BBX 10 20 0 -4
BITMAP
0000
0000
0000
0000
0000
0000
0000
0000
6E00
7300
6180
6180
6180
6180
7300
6E00
6000
6000
6000
6000
ENDCHAR

STARTCHAR q
ENCODING 113
SWIDTH 480 0
DWIDTH 10 0
BBX 10 20 0 -4
BITMAP
0000
0000
0000
0000
0000
0000
0000
0000
1D80
3380
6180
6180
6180
6180
3380
1D80
0180
0180
0180
0180
ENDCHAR

STARTCHAR r
ENCODING 114
SWIDTH 480 0
DWIDTH 10 0
BBX 10 20 0 -4
BITMAP
0000
0000
0000
0000
0000
0000
0000
0000
6F00
3980
3000
3000
3000
3000
3000
3000
0000
0000
0000
0000
ENDCHAR

STARTCHAR s
ENCODING 115
SWIDTH 480 0
DWIDTH 10 0
BBX 10 20 0 -4
BITMAP
0000
0000
0000
0000
0000
0000
0000
0000
3F00
6180
6000
3F00
0180
0180
6180
3F00
0000
0000
0000
0000
ENDCHAR

STARTCHAR t
ENCODING 116
SWIDTH 480 0
DWIDTH 10 0
BBX 10 20 0 -4
BITMAP
0000
0000
0000
0000
0000
1800
1800
1800
7E00
1800
1800
1800
1800
1800
1980
0F00
0000
0000
0000
0000
ENDCHAR

STARTCHAR u
ENCODING 117
SWIDTH 480 0
DWIDTH 10 0
BBX 10 20 0 -4
BITMAP
0000
0000
0000
0000
0000
0000
0000
0000
6180
6180
6180
6180
6180
6180
3380
1D80
0000
0000
0000
0000
ENDCHAR

STARTCHAR v
ENCODING 118
SWIDTH 480 0
DWIDTH 10 0
BBX 10 20 0 -4
BITMAP
0000
0000
0000
0000
0000
0000
0000
0000
6180
6180
3300
3300
1E00
1E00
0C00
0C00
0000
0000
0000
0000
ENDCHAR

STARTCHAR w
ENCODING 119
SWIDTH 480 0
DWIDTH 10 0
BBX 10 20 0 -4
BITMAP
0000
0000
0000
0000
0000
0000
0000
0000
6180
6180
6180
6D80
6D80
6D80
7F80
3300
0000
0000
0000
0000
ENDCHAR

STARTCHAR x
ENCODING 120
SWIDTH 480 0
DWIDTH 10 0
BBX 10 20 0 -4
BITMAP
0000
0000
0000
0000
0000
0000
0000
0000
6180
3300
1E00
0C00
0C00
1E00
3300
6180
0000
0000
0000
0000
ENDCHAR

STARTCHAR y
ENCODING 121
SWIDTH 480 0
DWIDTH 10 0
BBX 10 20 0 -4
BITMAP
0000
0000
0000
0000
0000
0000
0000
0000
6180
6180
6180
6180
6180
6180
3380
1D80
0180
6180
3300
1E00
ENDCHAR

STARTCHAR z
ENCODING 122
SWIDTH 480 0
DWIDTH 10 0
BBX 10 20 0 -4
BITMAP
0000
0000
0000
0000
0000
0000
0000
0000
3F80
0180
0300
0600
0C00
1800
3000
3F80
0000
0000
0000
0000
ENDCHAR

STARTCHAR braceleft
ENCODING 123
SWIDTH 480 0
DWIDTH 10 0
BBX 10 20 0 -4
BITMAP
0000
0000
0000
0780
0C00
0C00
0C00
0C00
0C00
7800
0C00
0C00
0C00
0C00
0C00
0780
0000
0000
0000
0000
ENDCHAR

STARTCHAR bar
ENCODING 124
SWIDTH 480 0
DWIDTH 10 0
BBX 10 20 0 -4
BITMAP
0000
0000
0000
0C00
0C00
0C00
0C00
0C00
0C00
0C00
0C00
0C00
0C00
0C00
0C00
0C00
0000
0000
0000
0000
ENDCHAR

STARTCHAR braceright
ENCODING 125
SWIDTH 480 0
DWIDTH 10 0
BBX 10 20 0 -4
BITMAP
0000
0000
0000
7800
0C00
0C00
0C00
0C00
0C00
0780
0C00
0C00
0C00
0C00
0C00
7800
0000
0000
0000
0000
ENDCHAR

STARTCHAR asciitilde
ENCODING 126
SWIDTH 480 0
DWIDTH 10 0
BBX 10 20 0 -4
BITMAP
0000
0000
0000
3980
6D80
6700
0000
0000
0000
0000
0000
0000
0000
0000
0000
0000
0000
0000
0000
0000
ENDCHAR

STARTCHAR space
ENCODING 160
SWIDTH 480 0
DWIDTH 10 0
BBX 10 20 0 -4
BITMAP
0000
0000
0000
0000
0000
0000
0000
0000
0000
0000
0000
0000
0000
0000
0000
0000
0000
0000
0000
0000
ENDCHAR

STARTCHAR exclamdown
ENCODING 161
SWIDTH 480 0
DWIDTH 10 0
BBX 10 20 0 -4
BITMAP
0000
0000
0000
0C00
0C00
0000
0C00
0C00
0C00
0C00
0C00
0C00
0C00
0C00
0C00
0C00
0000
0000
0000
0000
ENDCHAR

STARTCHAR cent
ENCODING 162
SWIDTH 480 0
DWIDTH 10 0
BBX 10 20 0 -4
BITMAP
0000
0000
0000
0000
0C00
0C00
1E00
3300
6100
6000
6000
6100
3300
1E00
0C00
0C00
0000
0000
0000
0000
ENDCHAR

STARTCHAR sterling
ENCODING 163
SWIDTH 480 0
DWIDTH 10 0
BBX 10 20 0 -4
BITMAP
0000
0000
0000
0000
0F00
1980
1980
1800
1800
7E00
1800
1800
1800
7C00
56C0
7380
0000
0000
0000
0000
ENDCHAR

STARTCHAR Euro
ENCODING 164
SWIDTH 480 0
DWIDTH 10 0
BBX 10 20 0 -4
BITMAP
0000
0000
0000
0000
0000
0F00
1980
3000
3000
7F00
3000
7E00
3000
3000
1980
0F00
0000
0000
0000
0000
ENDCHAR

STARTCHAR yen
ENCODING 165
SWIDTH 480 0
DWIDTH 10 0
BBX 10 20 0 -4
BITMAP
0000
0000
0000
0000
0000
4080
6180
3300
1E00
3F00
0C00
3F00
0C00
0C00
0C00
0C00
0000
0000
0000
0000
ENDCHAR

STARTCHAR Scaron
ENCODING 166
SWIDTH 480 0
DWIDTH 10 0
BBX 10 20 0 -4
BITMAP
0000
3300
1E00
0C00
0000
1E00
3300
6180
6000
3000
1E00
0300
0180
6180
3300
1E00
0000
0000
0000
0000
ENDCHAR

STARTCHAR section
ENCODING 167
SWIDTH 480 0
DWIDTH 10 0
BBX 10 20 0 -4
BITMAP
0000
0000
0000
1E00
3300
6300
3000
3C00
6600
3300
1980
0F00
0300
3180
3300
1E00
0000
0000
0000
0000
ENDCHAR

STARTCHAR scaron
ENCODING 168
SWIDTH 480 0
DWIDTH 10 0
BBX 10 20 0 -4
BITMAP
0000
0000
0000
0000
3300
1E00
0C00
0000
3F00
6180
6000
3F00
0180
0180
6180
3F00
0000
0000
0000
0000
ENDCHAR

STARTCHAR copyright
ENCODING 169
SWIDTH 480 0
DWIDTH 10 0
BBX 10 20 0 -4
BITMAP
0000
0000
0000
0000
0000
1E00
3300
6180
5E80
5280
5080
5280
5E80
6180
3300
1E00
0000
0000
0000
0000
ENDCHAR

STARTCHAR ordfeminine
ENCODING 170
SWIDTH 480 0
DWIDTH 10 0
BBX 10 20 0 -4
BITMAP
0000
0000
0000
1F00
2180
0180
3F80
6180
6180
3E80
0000
7F80
0000
0000
0000
0000
0000
0000
0000
0000
ENDCHAR

STARTCHAR guillemotleft
ENCODING 171
SWIDTH 480 0
DWIDTH 10 0
BBX 10 20 0 -4
BITMAP
0000
0000
0000
0000
0000
0480
0D80
1B00
3600
6C00
D800
6C00
3600
1B00
0D80
0480
0000
0000
0000
0000
ENDCHAR

STARTCHAR logicalnot
ENCODING 172
SWIDTH 480 0
DWIDTH 10 0
BBX 10 20 0 -4
BITMAP
0000
0000
0000
0000
0000
0000
0000
0000
7F80
7F80
0180
0180
0000
0000
0000
0000
0000
0000
0000
0000
ENDCHAR

STARTCHAR hyphen
ENCODING 173
SWIDTH 480 0
DWIDTH 10 0
BBX 10 20 0 -4
BITMAP
0000
0000
0000
0000
0000
0000
0000
0000
0000
3F00
0000
0000
0000
0000
0000
0000
0000
0000
0000
0000
ENDCHAR

STARTCHAR registered
ENCODING 174
SWIDTH 480 0
DWIDTH 10 0
BBX 10 20 0 -4
BITMAP
0000
0000
0000
0000
0000
1E00
3300
6180
5E80
5280
5E80
5480
5680
6180
3300
1E00
0000
0000
0000
0000
ENDCHAR

STARTCHAR macron
ENCODING 175
SWIDTH 480 0
DWIDTH 10 0
BBX 10 20 0 -4
BITMAP
0000
0000
7F80
0000
0000
0000
0000
0000
0000
0000
0000
0000
0000
0000
0000
0000
0000
0000
0000
0000
ENDCHAR

STARTCHAR degree
ENCODING 176
SWIDTH 480 0
DWIDTH 10 0
BBX 10 20 0 -4
BITMAP
0000
0000
0000
0C00
1E00
3300
3300
1E00
0C00
0000
0000
0000
0000
0000
0000
0000
0000
0000
0000
0000
ENDCHAR

STARTCHAR plusminus
ENCODING 177
SWIDTH 480 0
DWIDTH 10 0
BBX 10 20 0 -4
BITMAP
0000
0000
0000
0000
0000
0000
0000
0C00
0C00
7F80
0C00
0C00
0000
7F80
0000
0000
0000
0000
0000
0000
ENDCHAR

STARTCHAR twosuperior
ENCODING 178
SWIDTH 480 0
DWIDTH 10 0
BBX 10 20 0 -4
BITMAP
0000
0000
0000
1C00
3600
0600
0C00
1800
3000
3E00
0000
0000
0000
0000
0000
0000
0000
0000
0000
0000
ENDCHAR

STARTCHAR threesuperior
ENCODING 179
SWIDTH 480 0
DWIDTH 10 0
BBX 10 20 0 -4
BITMAP
0000
0000
0000
1C00
3600
0600
0C00
0600
3600
1C00
0000
0000
0000
0000
0000
0000
0000
0000
0000
0000
ENDCHAR

STARTCHAR Zcaron
ENCODING 180
SWIDTH 480 0
DWIDTH 10 0
BBX 10 20 0 -4
BITMAP
0000
3300
1E00
0C00
0000
7F80
0180
0300
0600
0600
0C00
1800
1800
3000
6000
7F80
0000
0000
0000
0000
ENDCHAR

STARTCHAR mu
ENCODING 181
SWIDTH 480 0
DWIDTH 10 0
BBX 10 20 0 -4
BITMAP
0000
0000
0000
0000
0000
0000
0000
0000
0000
6300
6300
6300
6300
6300
7700
7D00
6000
6000
6000
0000
ENDCHAR

STARTCHAR paragraph
ENCODING 182
SWIDTH 480 0
DWIDTH 10 0
BBX 10 20 0 -4
BITMAP
0000
0000
0000
3F80
7F80
7D80
7D80
7D80
3D80
0D80
0D80
0D80
0D80
0D80
0D80
0D80
0000
0000
0000
0000
ENDCHAR

STARTCHAR periodcentered
ENCODING 183
SWIDTH 480 0
DWIDTH 10 0
BBX 10 20 0 -4
BITMAP
0000
0000
0000
0000
0000
0000
0000
0000
0E00
0E00
0E00
0000
0000
0000
0000
0000
0000
0000
0000
0000
ENDCHAR

STARTCHAR zcaron
ENCODING 184
SWIDTH 480 0
DWIDTH 10 0
BBX 10 20 0 -4
BITMAP
0000
0000
0000
0000
3300
1E00
0C00
0000
3F80
0180
0300
0600
0C00
1800
3000
3F80
0000
0000
0000
0000
ENDCHAR

STARTCHAR onesuperior
ENCODING 185
SWIDTH 480 0
DWIDTH 10 0
BBX 10 20 0 -4
BITMAP
0000
0000
0000
1800
3800
1800
1800
1800
1800
3C00
0000
0000
0000
0000
0000
0000
0000
0000
0000
0000
ENDCHAR

STARTCHAR ordmasculine
ENCODING 186
SWIDTH 480 0
DWIDTH 10 0
BBX 10 20 0 -4
BITMAP
0000
0000
0000
1C00
3600
6300
6300
6300
3600
1C00
0000
7F00
0000
0000
0000
0000
0000
0000
0000
0000
ENDCHAR

STARTCHAR guillemotright
ENCODING 187
SWIDTH 480 0
DWIDTH 10 0
BBX 10 20 0 -4
BITMAP
0000
0000
0000
0000
0000
4800
6C00
3600
1B00
0D80
06C0
0D80
1B00
3600
6C00
4800
0000
0000
0000
0000
ENDCHAR

STARTCHAR OE
ENCODING 188
SWIDTH 480 0
DWIDTH 10 0
BBX 10 20 0 -4
BITMAP
0000
0000
0000
1F80
3600
6600
6600
6600
6600
6780
6600
6600
6600
6600
3600
1F80
0000
0000
0000
0000
ENDCHAR

STARTCHAR oe
ENCODING 189
SWIDTH 480 0
DWIDTH 10 0
BBX 10 20 0 -4
BITMAP
0000
0000
0000
0000
0000
0000
0000
0000
3F00
6D80
6D80
6F80
6C00
6C00
6D80
3F00
0000
0000
0000
0000
ENDCHAR

STARTCHAR Ydieresis
ENCODING 190
SWIDTH 480 0
DWIDTH 10 0
BBX 10 20 0 -4
BITMAP
0000
3300
3300
0000
6180
6180
3300
3300
1E00
1E00
0C00
0C00
0C00
0C00
0C00
0C00
0000
0000
0000
0000
ENDCHAR

STARTCHAR questiondown
ENCODING 191
SWIDTH 480 0
DWIDTH 10 0
BBX 10 20 0 -4
BITMAP
0000
0000
0000
0C00
0C00
0000
0C00
0C00
0C00
1800
3000
6180
6180
6180
3300
1E00
0000
0000
0000
0000
ENDCHAR

STARTCHAR Agrave
ENCODING 192
SWIDTH 480 0
DWIDTH 10 0
BBX 10 20 0 -4
BITMAP
0000
3000
1800
0C00
0000
0C00
1E00
3300
6180
6180
6180
7F80
6180
6180
6180
6180
0000
0000
0000
0000
ENDCHAR

STARTCHAR Aacute
ENCODING 193
SWIDTH 480 0
DWIDTH 10 0
BBX 10 20 0 -4
BITMAP
0000
0300
0600
0C00
0000
0C00
1E00
3300
6180
6180
6180
7F80
6180
6180
6180
6180
0000
0000
0000
0000
ENDCHAR

STARTCHAR Acircumflex
ENCODING 194
SWIDTH 480 0
DWIDTH 10 0
BBX 10 20 0 -4
BITMAP
0000
0C00
1E00
3300
0000
0C00
1E00
3300
6180
6180
6180
7F80
6180
6180
6180
6180
0000
0000
0000
0000
ENDCHAR

STARTCHAR Atilde
ENCODING 195
SWIDTH 480 0
DWIDTH 10 0
BBX 10 20 0 -4
BITMAP
0000
1900
3F00
2600
0000
0C00
1E00
3300
6180
6180
6180
7F80
6180
6180
6180
6180
0000
0000
0000
0000
ENDCHAR

STARTCHAR Adieresis
ENCODING 196
SWIDTH 480 0
DWIDTH 10 0
BBX 10 20 0 -4
BITMAP
0000
3300
3300
0000
0C00
1E00
3300
3300
6180
6180
6180
7F80
6180
6180
6180
6180
0000
0000
0000
0000
ENDCHAR

STARTCHAR Aring
ENCODING 197
SWIDTH 480 0
DWIDTH 10 0
BBX 10 20 0 -4
BITMAP
1E00
3300
3300
1E00
0000
0C00
1E00
3300
6180
6180
6180
7F80
6180
6180
6180
6180
0000
0000
0000
0000
ENDCHAR

STARTCHAR AE
ENCODING 198
SWIDTH 480 0
DWIDTH 10 0
BBX 10 20 0 -4
BITMAP
0000
0000
0000
0F80
1E00
3600
3600
6600
6600
7F80
6600
6600
6600
6600
6600
6780
0000
0000
0000
0000
ENDCHAR

STARTCHAR Ccedilla
ENCODING 199
SWIDTH 480 0
DWIDTH 10 0
BBX 10 20 0 -4
BITMAP
0000
0000
0000
1E00
3300
6180
6000
6000
6000
6000
6000
6000
6000
6180
3300
1E00
0C00
0600
3600
1C00
ENDCHAR

STARTCHAR Egrave
ENCODING 200
SWIDTH 480 0
DWIDTH 10 0
BBX 10 20 0 -4
BITMAP
0000
3000
1800
0C00
0000
7F80
6000
6000
6000
6000
7E00
6000
6000
6000
6000
7F80
0000
0000
0000
0000
ENDCHAR

STARTCHAR Eacute
ENCODING 201
SWIDTH 480 0
DWIDTH 10 0
BBX 10 20 0 -4
BITMAP
0000
0600
0C00
1800
0000
7F80
6000
6000
6000
6000
7E00
6000
6000
6000
6000
7F80
0000
0000
0000
0000
ENDCHAR

STARTCHAR Ecircumflex
ENCODING 202
SWIDTH 480 0
DWIDTH 10 0
BBX 10 20 0 -4
BITMAP
0000
0C00
1E00
3300
0000
7F80
6000
6000
6000
6000
7E00
6000
6000
6000
6000
7F80
0000
0000
0000
0000
ENDCHAR

STARTCHAR Edieresis
ENCODING 203
SWIDTH 480 0
DWIDTH 10 0
BBX 10 20 0 -4
BITMAP
0000
3300
3300
0000
0000
7F80
6000
6000
6000
6000
7E00
6000
6000
6000
6000
7F80
0000
0000
0000
0000
ENDCHAR

STARTCHAR Igrave
ENCODING 204
SWIDTH 480 0
DWIDTH 10 0
BBX 10 20 0 -4
BITMAP
0000
1800
0C00
0600
0000
3F00
0C00
0C00
0C00
0C00
0C00
0C00
0C00
0C00
0C00
3F00
0000
0000
0000
0000
ENDCHAR

STARTCHAR Iacute
ENCODING 205
SWIDTH 480 0
DWIDTH 10 0
BBX 10 20 0 -4
BITMAP
0000
0600
0C00
1800
0000
3F00
0C00
0C00
0C00
0C00
0C00
0C00
0C00
0C00
0C00
3F00
0000
0000
0000
0000
ENDCHAR

STARTCHAR Icircumflex
ENCODING 206
SWIDTH 480 0
DWIDTH 10 0
BBX 10 20 0 -4
BITMAP
0000
0C00
1E00
3300
0000
3F00
0C00
0C00
0C00
0C00
0C00
0C00
0C00
0C00
0C00
3F00
0000
0000
0000
0000
ENDCHAR

STARTCHAR Idieresis
ENCODING 207
SWIDTH 480 0
DWIDTH 10 0
BBX 10 20 0 -4
BITMAP
0000
3300
3300
0000
3F00
0C00
0C00
0C00
0C00
0C00
0C00
0C00
0C00
0C00
0C00
3F00
0000
0000
0000
0000
ENDCHAR

STARTCHAR Eth
ENCODING 208
SWIDTH 480 0
DWIDTH 10 0
BBX 10 20 0 -4
BITMAP
0000
0000
0000
7E00
6300
6180
6180
6180
6180
F980
6180
6180
6180
6180
6300
7E00
0000
0000
0000
0000
ENDCHAR

STARTCHAR Ntilde
ENCODING 209
SWIDTH 480 0
DWIDTH 10 0
BBX 10 20 0 -4
BITMAP
0000
1900
3F00
2600
0000
6180
7180
7980
7980
6D80
6D80
6780
6780
6380
6180
6180
0000
0000
0000
0000
ENDCHAR

STARTCHAR Ograve
ENCODING 210
SWIDTH 480 0
DWIDTH 10 0
BBX 10 20 0 -4
BITMAP
0000
1800
0C00
0600
0000
1E00
3300
6180
6180
6180
6180
6180
6180
6180
3300
1E00
0000
0000
0000
0000
ENDCHAR

STARTCHAR Oacute
ENCODING 211
SWIDTH 480 0
DWIDTH 10 0
BBX 10 20 0 -4
BITMAP
0000
0600
0C00
1800
0000
1E00
3300
6180
6180
6180
6180
6180
6180
6180
3300
1E00
0000
0000
0000
0000
ENDCHAR

STARTCHAR Ocircumflex
ENCODING 212
SWIDTH 480 0
DWIDTH 10 0
BBX 10 20 0 -4
BITMAP
0000
0C00
1E00
3300
0000
1E00
3300
6180
6180
6180
6180
6180
6180
6180
3300
1E00
0000
0000
0000
0000
ENDCHAR

STARTCHAR Otilde
ENCODING 213
SWIDTH 480 0
DWIDTH 10 0
BBX 10 20 0 -4
BITMAP
0000
1900
3F00
2600
0000
1E00
3300
6180
6180
6180
6180
6180
6180
6180
3300
1E00
0000
0000
0000
0000
ENDCHAR

STARTCHAR Odieresis
ENCODING 214
SWIDTH 480 0
DWIDTH 10 0
BBX 10 20 0 -4
BITMAP
0000
3300
3300
0000
1E00
3300
6180
6180
6180
6180
6180
6180
6180
6180
3300
1E00
0000
0000
0000
0000
ENDCHAR

STARTCHAR multiply
ENCODING 215
SWIDTH 480 0
DWIDTH 10 0
BBX 10 20 0 -4
BITMAP
0000
0000
0000
0000
0000
0000
0000
0000
4100
6300
3600
1C00
1C00
3600
6300
4100
0000
0000
0000
0000
ENDCHAR

STARTCHAR Oslash
ENCODING 216
SWIDTH 480 0
DWIDTH 10 0
BBX 10 20 0 -4
BITMAP
0000
0000
0080
1F00
3300
6380
6380
6580
6580
6580
6980
6980
6980
7180
3300
3E00
4000
0000
0000
0000
ENDCHAR

STARTCHAR Ugrave
ENCODING 217
SWIDTH 480 0
DWIDTH 10 0
BBX 10 20 0 -4
BITMAP
0000
1800
0C00
0600
0000
6180
6180
6180
6180
6180
6180
6180
6180
6180
3300
1E00
0000
0000
0000
0000
ENDCHAR

STARTCHAR Uacute
ENCODING 218
SWIDTH 480 0
DWIDTH 10 0
BBX 10 20 0 -4
BITMAP
0000
0600
0C00
1800
0000
6180
6180
6180
6180
6180
6180
6180
6180
6180
3300
1E00
0000
0000
0000
0000
ENDCHAR

STARTCHAR Ucircumflex
ENCODING 219
SWIDTH 480 0
DWIDTH 10 0
BBX 10 20 0 -4
BITMAP
0000
0C00
1E00
3300
0000
6180
6180
6180
6180
6180
6180
6180
6180
6180
3300
1E00
0000
0000
0000
0000
ENDCHAR

STARTCHAR Udieresis
ENCODING 220
SWIDTH 480 0
DWIDTH 10 0
BBX 10 20 0 -4
BITMAP
0000
3300
3300
0000
6180
6180
6180
6180
6180
6180
6180
6180
6180
6180
3300
1E00
0000
0000
0000
0000
ENDCHAR

STARTCHAR Yacute
ENCODING 221
SWIDTH 480 0
DWIDTH 10 0
BBX 10 20 0 -4
BITMAP
0000
0600
0C00
1800
0000
6180
6180
3300
3300
1E00
1E00
0C00
0C00
0C00
0C00
0C00
0000
0000
0000
0000
ENDCHAR

STARTCHAR Thorn
ENCODING 222
SWIDTH 480 0
DWIDTH 10 0
BBX 10 20 0 -4
BITMAP
0000
0000
0000
3000
3000
3000
3F00
3180
3180
3180
3180
3180
3F00
3000
3000
3000
0000
0000
0000
0000
ENDCHAR

STARTCHAR germandbls
ENCODING 223
SWIDTH 480 0
DWIDTH 10 0
BBX 10 20 0 -4
BITMAP
0000
0000
0000
0E00
1B00
3180
3180
3300
7600
3600
3300
3180
3180
3180
3300
3600
0000
0000
0000
0000
ENDCHAR

STARTCHAR agrave
ENCODING 224
SWIDTH 480 0
DWIDTH 10 0
BBX 10 20 0 -4
BITMAP
0000
0000
0000
0000
1800
0C00
0600
0000
3F00
6180
0180
3F80
6180
6180
6180
3E80
0000
0000
0000
0000
ENDCHAR

STARTCHAR aacute
ENCODING 225
SWIDTH 480 0
DWIDTH 10 0
BBX 10 20 0 -4
BITMAP
0000
0000
0000
0000
0600
0C00
1800
0000
3F00
6180
0180
3F80
6180
6180
6180
3E80
0000
0000
0000
0000
ENDCHAR

STARTCHAR acircumflex
ENCODING 226
SWIDTH 480 0
DWIDTH 10 0
BBX 10 20 0 -4
BITMAP
0000
0000
0000
0000
0C00
1E00
3300
0000
3F00
6180
0180
3F80
6180
6180
6180
3E80
0000
0000
0000
0000
ENDCHAR

STARTCHAR atilde
ENCODING 227
SWIDTH 480 0
DWIDTH 10 0
BBX 10 20 0 -4
BITMAP
0000
0000
0000
0000
1900
3F00
2600
0000
3F00
6180
0180
3F80
6180
6180
6180
3E80
0000
0000
0000
0000
ENDCHAR

STARTCHAR adieresis
ENCODING 228
SWIDTH 480 0
DWIDTH 10 0
BBX 10 20 0 -4
BITMAP
0000
0000
0000
0000
0000
3300
3300
0000
3F00
6180
0180
3F80
6180
6180
6180
3E80
0000
0000
0000
0000
ENDCHAR

STARTCHAR aring
ENCODING 229
SWIDTH 480 0
DWIDTH 10 0
BBX 10 20 0 -4
BITMAP
0000
0000
0000
1E00
3300
3300
1E00
0000
3F00
6180
0180
3F80
6180
6180
6180
3E80
0000
0000
0000
0000
ENDCHAR

STARTCHAR ae
ENCODING 230
SWIDTH 480 0
DWIDTH 10 0
BBX 10 20 0 -4
BITMAP
0000
0000
0000
0000
0000
0000
0000
0000
3B00
4D80
0D80
0F00
3C00
6C00
6C80
3700
0000
0000
0000
0000
ENDCHAR

STARTCHAR ccedilla
ENCODING 231
SWIDTH 480 0
DWIDTH 10 0
BBX 10 20 0 -4
BITMAP
0000
0000
0000
0000
0000
0000
0000
0000
1F00
3180
6000
6000
6000
6000
3180
1F00
0C00
0600
3600
1C00
ENDCHAR

STARTCHAR egrave
ENCODING 232
SWIDTH 480 0
DWIDTH 10 0
BBX 10 20 0 -4
BITMAP
0000
0000
0000
0000
3000
1800
0C00
0000
1E00
3300
6180
7F80
6000
6000
3180
1F00
0000
0000
0000
0000
ENDCHAR

STARTCHAR eacute
ENCODING 233
SWIDTH 480 0
DWIDTH 10 0
BBX 10 20 0 -4
BITMAP
0000
0000
0000
0000
0300
0600
0C00
0000
1E00
3300
6180
7F80
6000
6000
3180
1F00
0000
0000
0000
0000
ENDCHAR

STARTCHAR ecircumflex
ENCODING 234
SWIDTH 480 0
DWIDTH 10 0
BBX 10 20 0 -4
BITMAP
0000
0000
0000
0000
0C00
1E00
3300
0000
1E00
3300
6180
7F80
6000
6000
3180
1F00
0000
0000
0000
0000
ENDCHAR

STARTCHAR edieresis
ENCODING 235
SWIDTH 480 0
DWIDTH 10 0
BBX 10 20 0 -4
BITMAP
0000
0000
0000
0000
0000
3300
3300
0000
1E00
3300
6180
7F80
6000
6000
3180
1F00
0000
0000
0000
0000
ENDCHAR

STARTCHAR igrave
ENCODING 236
SWIDTH 480 0
DWIDTH 10 0
BBX 10 20 0 -4
BITMAP
0000
0000
0000
0000
3000
1800
0C00
0000
3C00
0C00
0C00
0C00
0C00
0C00
0C00
7F80
0000
0000
0000
0000
ENDCHAR

STARTCHAR iacute
ENCODING 237
SWIDTH 480 0
DWIDTH 10 0
BBX 10 20 0 -4
BITMAP
0000
0000
0000
0000
0600
0C00
1800
0000
3C00
0C00
0C00
0C00
0C00
0C00
0C00
7F80
0000
0000
0000
0000
ENDCHAR

STARTCHAR icircumflex
ENCODING 238
SWIDTH 480 0
DWIDTH 10 0
BBX 10 20 0 -4
BITMAP
0000
0000
0000
0000
0C00
1E00
3300
0000
3C00
0C00
0C00
0C00
0C00
0C00
0C00
7F80
0000
0000
0000
0000
ENDCHAR

STARTCHAR idieresis
ENCODING 239
SWIDTH 480 0
DWIDTH 10 0
BBX 10 20 0 -4
BITMAP
0000
0000
0000
0000
0000
3300
3300
0000
3C00
0C00
0C00
0C00
0C00
0C00
0C00
7F80
0000
0000
0000
0000
ENDCHAR

STARTCHAR eth
ENCODING 240
SWIDTH 480 0
DWIDTH 10 0
BBX 10 20 0 -4
BITMAP
0000
0000
0000
4400
6C00
3800
3800
6C00
4600
1F00
3380
6180
6180
6180
3300
1E00
0000
0000
0000
0000
ENDCHAR

STARTCHAR ntilde
ENCODING 241
SWIDTH 480 0
DWIDTH 10 0
BBX 10 20 0 -4
BITMAP
0000
0000
0000
0000
1900
3F00
2600
0000
6E00
7300
6180
6180
6180
6180
6180
6180
0000
0000
0000
0000
ENDCHAR

STARTCHAR ograve
ENCODING 242
SWIDTH 480 0
DWIDTH 10 0
BBX 10 20 0 -4
BITMAP
0000
0000
0000
0000
3000
1800
0C00
0000
1E00
3300
6180
6180
6180
6180
3300
1E00
0000
0000
0000
0000
ENDCHAR

STARTCHAR oacute
ENCODING 243
SWIDTH 480 0
DWIDTH 10 0
BBX 10 20 0 -4
BITMAP
0000
0000
0000
0000
0300
0600
0C00
0000
1E00
3300
6180
6180
6180
6180
3300
1E00
0000
0000
0000
0000
ENDCHAR

STARTCHAR ocircumflex
ENCODING 244
SWIDTH 480 0
DWIDTH 10 0
BBX 10 20 0 -4
BITMAP
0000
0000
0000
0000
0C00
1E00
3300
0000
1E00
3300
6180
6180
6180
6180
3300
1E00
0000
0000
0000
0000
ENDCHAR

STARTCHAR otilde
ENCODING 245
SWIDTH 480 0
DWIDTH 10 0
BBX 10 20 0 -4
BITMAP
0000
0000
0000
0000
1900
3F00
2600
0000
1E00
3300
6180
6180
6180
6180
3300
1E00
0000
0000
0000
0000
ENDCHAR

STARTCHAR odieresis
ENCODING 246
SWIDTH 480 0
DWIDTH 10 0
BBX 10 20 0 -4
BITMAP
0000
0000
0000
0000
0000
3300
3300
0000
1E00
3300
6180
6180
6180
6180
3300
1E00
0000
0000
0000
0000
ENDCHAR

STARTCHAR divide
ENCODING 247
SWIDTH 480 0
DWIDTH 10 0
BBX 10 20 0 -4
BITMAP
0000
0000
0000
0000
0000
0C00
0C00
0000
0000
7F80
7F80
0000
0000
0C00
0C00
0000
0000
0000
0000
0000
ENDCHAR

STARTCHAR oslash
ENCODING 248
SWIDTH 480 0
DWIDTH 10 0
BBX 10 20 0 -4
BITMAP
0000
0000
0000
0000
0000
0000
0000
0080
1F00
3300
6580
6580
6980
6980
3300
3E00
4000
0000
0000
0000
ENDCHAR

STARTCHAR ugrave
ENCODING 249
SWIDTH 480 0
DWIDTH 10 0
BBX 10 20 0 -4
BITMAP
0000
0000
0000
0000
1800
0C00
0600
0000
6180
6180
6180
6180
6180
6180
3380
1D80
0000
0000
0000
0000
ENDCHAR

STARTCHAR uacute
ENCODING 250
SWIDTH 480 0
DWIDTH 10 0
BBX 10 20 0 -4
BITMAP
0000
0000
0000
0000
0300
0600
0C00
0000
6180
6180
6180
6180
6180
6180
3380
1D80
0000
0000
0000
0000
ENDCHAR

STARTCHAR ucircumflex
ENCODING 251
SWIDTH 480 0
DWIDTH 10 0
BBX 10 20 0 -4
BITMAP
0000
0000
0000
0000
0C00
1E00
3300
0000
6180
6180
6180
6180
6180
6180
3380
1D80
0000
0000
0000
0000
ENDCHAR

STARTCHAR udieresis
ENCODING 252
SWIDTH 480 0
DWIDTH 10 0
BBX 10 20 0 -4
BITMAP
0000
0000
0000
0000
0000
3300
3300
0000
6180
6180
6180
6180
6180
6180
3380
1D80
0000
0000
0000
0000
ENDCHAR

STARTCHAR yacute
ENCODING 253
SWIDTH 480 0
DWIDTH 10 0
BBX 10 20 0 -4
BITMAP
0000
0000
0000
0000
0600
0C00
1800
0000
6180
6180
6180
6180
6180
6180
3380
1D80
0180
6180
3300
1E00
ENDCHAR

STARTCHAR thorn
ENCODING 254
SWIDTH 480 0
DWIDTH 10 0
BBX 10 20 0 -4
BITMAP
0000
0000
0000
3000
3000
3000
3000
3000
3000
3E00
3300
3180
3180
3180
3300
3E00
3000
3000
3000
3000
ENDCHAR

STARTCHAR ydieresis
ENCODING 255
SWIDTH 480 0
DWIDTH 10 0
BBX 10 20 0 -4
BITMAP
0000
0000
0000
0000
0000
3300
3300
0000
6180
6180
6180
6180
6180
6180
3380
1D80
0180
6180
3300
1E00
ENDCHAR

ENDFONT
