G75*
%MOIN*%
%OFA0B0*%
%FSLAX24Y24*%
%IPPOS*%
%LPD*%
%AMOC8*
5,1,8,0,0,1.08239X$1,22.5*
%
%ADD10C,0.0000*%
%ADD11R,0.0094X0.0472*%
%ADD12R,0.0472X0.0094*%
%ADD13R,0.0433X0.0394*%
%ADD14R,0.0354X0.0394*%
%ADD15R,0.0413X0.0472*%
%ADD16R,0.0197X0.0394*%
%ADD17R,0.0669X0.0945*%
%ADD18R,0.0394X0.0433*%
%ADD19R,0.0256X0.0335*%
%ADD20R,0.0157X0.0531*%
%ADD21R,0.0709X0.0748*%
%ADD22C,0.0150*%
%ADD23C,0.0165*%
%ADD24OC8,0.0640*%
%ADD25C,0.0640*%
D10*
X000357Y000550D02*
X000357Y016298D01*
X013743Y016298D01*
X013743Y000550D01*
X000357Y000550D01*
D11*
X005574Y006456D03*
X005770Y006456D03*
X005967Y006456D03*
X006164Y006456D03*
X006361Y006456D03*
X006558Y006456D03*
X006755Y006456D03*
X006952Y006456D03*
X007148Y006456D03*
X007345Y006456D03*
X007542Y006456D03*
X007739Y006456D03*
X007936Y006456D03*
X008133Y006456D03*
X008330Y006456D03*
X008526Y006456D03*
X008526Y011180D03*
X008330Y011180D03*
X008133Y011180D03*
X007936Y011180D03*
X007739Y011180D03*
X007542Y011180D03*
X007345Y011180D03*
X007148Y011180D03*
X006952Y011180D03*
X006755Y011180D03*
X006558Y011180D03*
X006361Y011180D03*
X006164Y011180D03*
X005967Y011180D03*
X005770Y011180D03*
X005574Y011180D03*
D12*
X004688Y010294D03*
X004688Y010097D03*
X004688Y009900D03*
X004688Y009704D03*
X004688Y009507D03*
X004688Y009310D03*
X004688Y009113D03*
X004688Y008916D03*
X004688Y008719D03*
X004688Y008522D03*
X004688Y008326D03*
X004688Y008129D03*
X004688Y007932D03*
X004688Y007735D03*
X004688Y007538D03*
X004688Y007341D03*
X009412Y007341D03*
X009412Y007538D03*
X009412Y007735D03*
X009412Y007932D03*
X009412Y008129D03*
X009412Y008326D03*
X009412Y008522D03*
X009412Y008719D03*
X009412Y008916D03*
X009412Y009113D03*
X009412Y009310D03*
X009412Y009507D03*
X009412Y009704D03*
X009412Y009900D03*
X009412Y010097D03*
X009412Y010294D03*
D13*
X009471Y011081D03*
X010141Y011081D03*
X010298Y012814D03*
X010298Y013483D03*
X009412Y013483D03*
X009412Y012814D03*
X008526Y012814D03*
X008526Y013483D03*
X005810Y012066D03*
X005141Y012066D03*
X002857Y011318D03*
X002857Y010648D03*
X004255Y006456D03*
X004924Y006456D03*
D14*
X004904Y005589D03*
X004904Y004959D03*
X004904Y003621D03*
X004904Y002991D03*
X003290Y002991D03*
X003290Y003621D03*
X003290Y004959D03*
X003290Y005589D03*
D15*
X002828Y013089D03*
X002828Y014841D03*
X006942Y014841D03*
X006942Y013089D03*
D16*
X006400Y015475D03*
X005967Y015475D03*
X005534Y015475D03*
X005101Y015475D03*
X004806Y015475D03*
X004530Y015475D03*
X004235Y015475D03*
X003802Y015475D03*
X003369Y015475D03*
D17*
X005928Y004585D03*
X007385Y004585D03*
D18*
X010751Y011081D03*
X011420Y011081D03*
D19*
X008202Y003591D03*
X007867Y003591D03*
X007867Y003020D03*
X008202Y003020D03*
X006824Y003020D03*
X006489Y003020D03*
X006489Y003591D03*
X006824Y003591D03*
D20*
X009294Y014674D03*
X009550Y014674D03*
X009806Y014674D03*
X010062Y014674D03*
X010318Y014674D03*
D21*
X010259Y015776D03*
X009353Y015776D03*
D22*
X008707Y016075D02*
X008031Y016075D01*
X008707Y016075D02*
X008707Y015477D01*
X008031Y015477D01*
X008031Y016075D01*
X008031Y015626D02*
X008707Y015626D01*
X008707Y015775D02*
X008031Y015775D01*
X008031Y015924D02*
X008707Y015924D01*
X008707Y016073D02*
X008031Y016073D01*
X010905Y016075D02*
X011581Y016075D01*
X011581Y015477D01*
X010905Y015477D01*
X010905Y016075D01*
X010905Y015626D02*
X011581Y015626D01*
X011581Y015775D02*
X010905Y015775D01*
X010905Y015924D02*
X011581Y015924D01*
X011581Y016073D02*
X010905Y016073D01*
D23*
X010806Y014710D02*
X010558Y014710D01*
X010806Y014710D02*
X010806Y014382D01*
X010558Y014382D01*
X010558Y014710D01*
X010558Y014546D02*
X010806Y014546D01*
X010806Y014710D02*
X010558Y014710D01*
X009054Y014710D02*
X008806Y014710D01*
X009054Y014710D02*
X009054Y014382D01*
X008806Y014382D01*
X008806Y014710D01*
X008806Y014546D02*
X009054Y014546D01*
X009054Y014710D02*
X008806Y014710D01*
D24*
X010550Y004550D03*
X010550Y003550D03*
X010550Y002550D03*
X010550Y001550D03*
X011550Y001550D03*
X012550Y001550D03*
X012550Y002550D03*
X011550Y002550D03*
X011550Y003550D03*
X012550Y003550D03*
X012550Y004550D03*
X011550Y004550D03*
X001550Y001550D03*
D25*
X001326Y002550D02*
X001774Y002550D01*
X002550Y001774D02*
X002550Y001326D01*
X003550Y001326D02*
X003550Y001774D01*
X004550Y001774D02*
X004550Y001326D01*
X005550Y001326D02*
X005550Y001774D01*
X006550Y001774D02*
X006550Y001326D01*
X007550Y001326D02*
X007550Y001774D01*
X008550Y001774D02*
X008550Y001326D01*
X009550Y001326D02*
X009550Y001774D01*
X012326Y005550D02*
X012774Y005550D01*
X012774Y006550D02*
X012326Y006550D01*
X012326Y007550D02*
X012774Y007550D01*
X012774Y008550D02*
X012326Y008550D01*
X012326Y009550D02*
X012774Y009550D01*
X012774Y010550D02*
X012326Y010550D01*
X012326Y011550D02*
X012774Y011550D01*
X012774Y012550D02*
X012326Y012550D01*
X012326Y013550D02*
X012774Y013550D01*
X012774Y014550D02*
X012326Y014550D01*
X012326Y015550D02*
X012774Y015550D01*
X001774Y015550D02*
X001326Y015550D01*
X001326Y014550D02*
X001774Y014550D01*
X001774Y013550D02*
X001326Y013550D01*
X001326Y012550D02*
X001774Y012550D01*
X001774Y011550D02*
X001326Y011550D01*
X001326Y010550D02*
X001774Y010550D01*
X001774Y009550D02*
X001326Y009550D01*
X001326Y008550D02*
X001774Y008550D01*
X001774Y007550D02*
X001326Y007550D01*
X001326Y006550D02*
X001774Y006550D01*
X001774Y005550D02*
X001326Y005550D01*
X001326Y004550D02*
X001774Y004550D01*
X001774Y003550D02*
X001326Y003550D01*
M02*
