%
M48
M72
T01C0.0098
T02C0.0400
%
T01
X3704Y3011
X4491Y3011
X5278Y3306
X4688Y4093
X4688Y4585
X3507Y4585
X5672Y5668
X5869Y5963
X6361Y5274
X6853Y5570
X7050Y5274
X7641Y6948
X8034Y6948
X8920Y6948
X10298Y7637
X11085Y9015
X11627Y8818
X10790Y9999
X9904Y10196
X9412Y11574
X8428Y11672
X8231Y11967
X7837Y11967
X7641Y11672
X7444Y11967
X7050Y11967
X7542Y13050
X6952Y13690
X5770Y13641
X5081Y13444
X4294Y13148
X5278Y11475
X4491Y11081
X3999Y11180
X3704Y10983
X4097Y10491
X3802Y10196
X3211Y9605
X2877Y9605
X2522Y9015
X3999Y7243
X4491Y7046
X5377Y6948
X5377Y7932
X5377Y8326
X6459Y8227
X7542Y9408
X8231Y9015
X8330Y9704
X7739Y10589
X7148Y10589
X6755Y10589
X6263Y10589
X6361Y9900
X8133Y14133
X9511Y14133
X10692Y13345
X5790Y15865
X4491Y15865
X8526Y3011
X7444Y2814
X6853Y2617
X6459Y2617
T02
X1550Y1550
X1550Y2550
X1550Y3550
X1550Y4550
X1550Y5550
X1550Y6550
X1550Y7550
X1550Y8550
X1550Y9550
X1550Y10550
X1550Y11550
X1550Y12550
X1550Y13550
X1550Y14550
X1550Y15550
X12550Y15550
X12550Y14550
X12550Y13550
X12550Y12550
X12550Y11550
X12550Y10550
X12550Y9550
X12550Y8550
X12550Y7550
X12550Y6550
X12550Y5550
X12550Y4550
X11550Y4550
X11550Y3550
X12550Y3550
X12550Y2550
X11550Y2550
X11550Y1550
X12550Y1550
X10550Y1550
X10550Y2550
X10550Y3550
X10550Y4550
X9550Y1550
X8550Y1550
X7550Y1550
X6550Y1550
X5550Y1550
X4550Y1550
X3550Y1550
X2550Y1550
M30
