G75*
%MOIN*%
%OFA0B0*%
%FSLAX24Y24*%
%IPPOS*%
%LPD*%
%AMOC8*
5,1,8,0,0,1.08239X$1,22.5*
%
%ADD10C,0.0000*%
%ADD11R,0.0433X0.0394*%
%ADD12R,0.0394X0.0433*%
%ADD13R,0.0325X0.0118*%
%ADD14R,0.0709X0.0394*%
%ADD15R,0.0433X0.0236*%
%ADD16R,0.0472X0.0276*%
%ADD17C,0.0165*%
%ADD18C,0.0146*%
%ADD19OC8,0.0640*%
%ADD20C,0.0640*%
%ADD21R,0.0512X0.0591*%
%ADD22C,0.0236*%
%ADD23C,0.0118*%
%ADD24C,0.0079*%
%ADD25C,0.0059*%
D10*
X000357Y000550D02*
X000357Y016298D01*
X013743Y016298D01*
X013743Y000550D01*
X000357Y000550D01*
D11*
X004097Y003365D03*
X004097Y004034D03*
X005180Y004546D03*
X005180Y005215D03*
X003349Y005570D03*
X002680Y005570D03*
X002680Y006554D03*
X003349Y006554D03*
X003861Y007833D03*
X004530Y007833D03*
X004589Y009369D03*
X004589Y010038D03*
X004530Y011672D03*
X003861Y011672D03*
X002956Y010924D03*
X002956Y010255D03*
X005475Y012420D03*
X005475Y013089D03*
X004629Y013837D03*
X003959Y013837D03*
X007503Y008326D03*
X008172Y008326D03*
X008172Y007440D03*
X007503Y007440D03*
X007503Y006456D03*
X008172Y006456D03*
X007936Y004330D03*
X007936Y003660D03*
X008772Y003660D03*
X008772Y004330D03*
X009609Y004330D03*
X009609Y003660D03*
X005770Y003444D03*
X005770Y002774D03*
X011381Y009664D03*
X011381Y010333D03*
X011519Y011475D03*
X010849Y011475D03*
X010101Y011318D03*
X010101Y010648D03*
D12*
X009806Y009644D03*
X009806Y008975D03*
X009806Y008070D03*
X009806Y007400D03*
X008467Y005078D03*
X007798Y005078D03*
X007050Y004822D03*
X007050Y004152D03*
X006164Y004152D03*
X006164Y004822D03*
X003211Y003641D03*
X003211Y002971D03*
X006755Y009172D03*
X006755Y009841D03*
X011479Y012223D03*
X011479Y012893D03*
D13*
X004684Y012952D03*
X004684Y013148D03*
X004684Y012755D03*
X004684Y012558D03*
X004684Y012361D03*
X003707Y012361D03*
X003707Y012558D03*
X003707Y012755D03*
X003707Y012952D03*
X003707Y013148D03*
D14*
X004196Y006554D03*
X004196Y005570D03*
D15*
X009550Y012184D03*
X009550Y012932D03*
X010652Y012932D03*
X010652Y012558D03*
X010652Y012184D03*
D16*
X010534Y015609D03*
X009078Y015609D03*
D17*
X009054Y014710D02*
X008806Y014710D01*
X009054Y014710D02*
X009054Y014382D01*
X008806Y014382D01*
X008806Y014710D01*
X008806Y014546D02*
X009054Y014546D01*
X009054Y014710D02*
X008806Y014710D01*
X010558Y014710D02*
X010806Y014710D01*
X010806Y014382D01*
X010558Y014382D01*
X010558Y014710D01*
X010558Y014546D02*
X010806Y014546D01*
X010806Y014710D02*
X010558Y014710D01*
D18*
X011257Y016077D02*
X011583Y016077D01*
X011583Y015475D01*
X011257Y015475D01*
X011257Y016077D01*
X011257Y015620D02*
X011583Y015620D01*
X011583Y015765D02*
X011257Y015765D01*
X011257Y015910D02*
X011583Y015910D01*
X011583Y016055D02*
X011257Y016055D01*
X008355Y016077D02*
X008029Y016077D01*
X008355Y016077D02*
X008355Y015475D01*
X008029Y015475D01*
X008029Y016077D01*
X008029Y015620D02*
X008355Y015620D01*
X008355Y015765D02*
X008029Y015765D01*
X008029Y015910D02*
X008355Y015910D01*
X008355Y016055D02*
X008029Y016055D01*
D19*
X010550Y004550D03*
X010550Y003550D03*
X010550Y002550D03*
X010550Y001550D03*
X011550Y001550D03*
X012550Y001550D03*
X012550Y002550D03*
X011550Y002550D03*
X011550Y003550D03*
X012550Y003550D03*
X012550Y004550D03*
X011550Y004550D03*
X001550Y001550D03*
D20*
X001326Y002550D02*
X001774Y002550D01*
X002550Y001774D02*
X002550Y001326D01*
X003550Y001326D02*
X003550Y001774D01*
X004550Y001774D02*
X004550Y001326D01*
X005550Y001326D02*
X005550Y001774D01*
X006550Y001774D02*
X006550Y001326D01*
X007550Y001326D02*
X007550Y001774D01*
X008550Y001774D02*
X008550Y001326D01*
X009550Y001326D02*
X009550Y001774D01*
X012326Y005550D02*
X012774Y005550D01*
X012774Y006550D02*
X012326Y006550D01*
X012326Y007550D02*
X012774Y007550D01*
X012774Y008550D02*
X012326Y008550D01*
X012326Y009550D02*
X012774Y009550D01*
X012774Y010550D02*
X012326Y010550D01*
X012326Y011550D02*
X012774Y011550D01*
X012774Y012550D02*
X012326Y012550D01*
X012326Y013550D02*
X012774Y013550D01*
X012774Y014550D02*
X012326Y014550D01*
X012326Y015550D02*
X012774Y015550D01*
X001774Y015550D02*
X001326Y015550D01*
X001326Y014550D02*
X001774Y014550D01*
X001774Y013550D02*
X001326Y013550D01*
X001326Y012550D02*
X001774Y012550D01*
X001774Y011550D02*
X001326Y011550D01*
X001326Y010550D02*
X001774Y010550D01*
X001774Y009550D02*
X001326Y009550D01*
X001326Y008550D02*
X001774Y008550D01*
X001774Y007550D02*
X001326Y007550D01*
X001326Y006550D02*
X001774Y006550D01*
X001774Y005550D02*
X001326Y005550D01*
X001326Y004550D02*
X001774Y004550D01*
X001774Y003550D02*
X001326Y003550D01*
D21*
X010515Y013837D03*
X011263Y013837D03*
D22*
X010692Y013345D03*
X009511Y014133D03*
X008133Y014133D03*
X007542Y013050D03*
X006952Y013690D03*
X005770Y013641D03*
X005081Y013444D03*
X004294Y013148D03*
X005278Y011475D03*
X004491Y011081D03*
X003999Y011180D03*
X003704Y010983D03*
X004097Y010491D03*
X003802Y010196D03*
X003211Y009605D03*
X002877Y009605D03*
X002522Y009015D03*
X003999Y007243D03*
X004491Y007046D03*
X005377Y006948D03*
X005377Y007932D03*
X005377Y008326D03*
X006459Y008227D03*
X007641Y006948D03*
X008034Y006948D03*
X008920Y006948D03*
X010298Y007637D03*
X011085Y009015D03*
X011627Y008818D03*
X010790Y009999D03*
X009904Y010196D03*
X009412Y011574D03*
X008428Y011672D03*
X008231Y011967D03*
X007837Y011967D03*
X007641Y011672D03*
X007444Y011967D03*
X007050Y011967D03*
X007148Y010589D03*
X006755Y010589D03*
X006263Y010589D03*
X006361Y009900D03*
X007542Y009408D03*
X008231Y009015D03*
X008330Y009704D03*
X007739Y010589D03*
X005869Y005963D03*
X005672Y005668D03*
X006361Y005274D03*
X006853Y005570D03*
X007050Y005274D03*
X005278Y003306D03*
X004688Y004093D03*
X004688Y004585D03*
X003507Y004585D03*
X003704Y003011D03*
X004491Y003011D03*
X006459Y002617D03*
X006853Y002617D03*
X007444Y002814D03*
X008526Y003011D03*
X005790Y015865D03*
X004491Y015865D03*
D23*
X005790Y015865D01*
X007050Y015865D01*
X007837Y015019D01*
X009412Y015019D01*
X009806Y014625D01*
X009806Y013936D01*
X009707Y013837D01*
X009511Y013837D01*
X009117Y013444D01*
X009117Y012952D01*
X009117Y011574D01*
X009412Y011574D01*
X009511Y011672D01*
X010593Y011672D01*
X010849Y011475D01*
X010511Y011491D02*
X010511Y011228D01*
X010582Y011156D01*
X011116Y011156D01*
X011178Y011218D01*
X011192Y011194D01*
X011217Y011168D01*
X011249Y011150D01*
X011284Y011141D01*
X011479Y011141D01*
X011479Y011436D01*
X011558Y011436D01*
X011558Y011515D01*
X011479Y011515D01*
X011479Y011810D01*
X011284Y011810D01*
X011249Y011800D01*
X011217Y011782D01*
X011192Y011757D01*
X011178Y011733D01*
X011116Y011794D01*
X010732Y011794D01*
X010713Y011808D01*
X010668Y011853D01*
X010655Y011853D01*
X010644Y011861D01*
X010582Y011853D01*
X009436Y011853D01*
X009396Y011814D01*
X009364Y011814D01*
X009298Y011786D01*
X009298Y011944D01*
X009817Y011944D01*
X009889Y012015D01*
X009889Y012353D01*
X009817Y012424D01*
X009298Y012424D01*
X009298Y012692D01*
X009817Y012692D01*
X009889Y012763D01*
X009889Y013101D01*
X009817Y013172D01*
X009298Y013172D01*
X009298Y013369D01*
X009586Y013656D01*
X009782Y013656D01*
X009881Y013755D01*
X009987Y013861D01*
X009987Y014089D01*
X010026Y014050D01*
X010029Y014050D01*
X010137Y013947D01*
X010137Y013492D01*
X010208Y013420D01*
X010463Y013420D01*
X010452Y013393D01*
X010452Y013298D01*
X010488Y013209D01*
X010525Y013172D01*
X010385Y013172D01*
X010314Y013101D01*
X010314Y012763D01*
X010322Y012755D01*
X010307Y012729D01*
X010298Y012694D01*
X010298Y012558D01*
X010652Y012558D01*
X010652Y012558D01*
X010298Y012558D01*
X010298Y012422D01*
X010307Y012387D01*
X010322Y012361D01*
X010314Y012353D01*
X010314Y012015D01*
X010385Y011944D01*
X010919Y011944D01*
X010979Y012003D01*
X011144Y012003D01*
X011144Y011989D01*
X011154Y011954D01*
X011172Y011922D01*
X011198Y011896D01*
X011229Y011878D01*
X011264Y011869D01*
X011440Y011869D01*
X011440Y012184D01*
X011519Y012184D01*
X011519Y012263D01*
X011814Y012263D01*
X011814Y012458D01*
X011804Y012493D01*
X011786Y012524D01*
X011761Y012550D01*
X011737Y012564D01*
X011798Y012625D01*
X011798Y013160D01*
X011727Y013231D01*
X011626Y013231D01*
X011603Y013454D01*
X011641Y013492D01*
X011641Y014183D01*
X011569Y014255D01*
X011463Y014255D01*
X011463Y014641D01*
X011877Y014641D01*
X011869Y014591D01*
X012509Y014591D01*
X012509Y015008D01*
X012290Y015008D01*
X012259Y015003D01*
X012364Y015108D01*
X012807Y015108D01*
X012936Y014979D01*
X012881Y014997D01*
X012810Y015008D01*
X012591Y015008D01*
X012591Y014591D01*
X012509Y014591D01*
X012509Y014509D01*
X012591Y014509D01*
X013168Y014509D01*
X013168Y014591D01*
X012591Y014591D01*
X012591Y014509D01*
X012591Y014092D01*
X012810Y014092D01*
X012881Y014103D01*
X012950Y014126D01*
X013014Y014158D01*
X013072Y014201D01*
X013123Y014252D01*
X013166Y014310D01*
X013168Y014315D01*
X013168Y013754D01*
X013149Y013800D01*
X013024Y013925D01*
X012862Y013992D01*
X012238Y013992D01*
X012076Y013925D01*
X011951Y013800D01*
X011884Y013638D01*
X011884Y013462D01*
X011951Y013300D01*
X012076Y013175D01*
X012238Y013108D01*
X012862Y013108D01*
X013024Y013175D01*
X013149Y013300D01*
X013168Y013346D01*
X013168Y012754D01*
X013149Y012800D01*
X013024Y012925D01*
X012862Y012992D01*
X012238Y012992D01*
X012076Y012925D01*
X011951Y012800D01*
X011884Y012638D01*
X011884Y012462D01*
X011951Y012300D01*
X012076Y012175D01*
X012238Y012108D01*
X012862Y012108D01*
X013024Y012175D01*
X013149Y012300D01*
X013168Y012346D01*
X013168Y011754D01*
X013149Y011800D01*
X013024Y011925D01*
X012862Y011992D01*
X012238Y011992D01*
X012076Y011925D01*
X011951Y011800D01*
X011884Y011638D01*
X011884Y011462D01*
X011951Y011300D01*
X012076Y011175D01*
X012238Y011108D01*
X012862Y011108D01*
X013024Y011175D01*
X013149Y011300D01*
X013168Y011346D01*
X013168Y010754D01*
X013149Y010800D01*
X013024Y010925D01*
X012862Y010992D01*
X012238Y010992D01*
X012076Y010925D01*
X011951Y010800D01*
X011884Y010638D01*
X011884Y010462D01*
X011951Y010300D01*
X012076Y010175D01*
X012238Y010108D01*
X012862Y010108D01*
X013024Y010175D01*
X013149Y010300D01*
X013168Y010346D01*
X013168Y009754D01*
X013149Y009800D01*
X013024Y009925D01*
X012862Y009992D01*
X012238Y009992D01*
X012076Y009925D01*
X011951Y009800D01*
X011884Y009638D01*
X011884Y009462D01*
X011951Y009300D01*
X012076Y009175D01*
X012238Y009108D01*
X012862Y009108D01*
X013024Y009175D01*
X013149Y009300D01*
X013168Y009346D01*
X013168Y008754D01*
X013149Y008800D01*
X013024Y008925D01*
X012862Y008992D01*
X012238Y008992D01*
X012076Y008925D01*
X011951Y008800D01*
X011884Y008638D01*
X011884Y008462D01*
X011951Y008300D01*
X012076Y008175D01*
X012238Y008108D01*
X012862Y008108D01*
X013024Y008175D01*
X013149Y008300D01*
X013168Y008346D01*
X013168Y007754D01*
X013149Y007800D01*
X013024Y007925D01*
X012862Y007992D01*
X012238Y007992D01*
X012076Y007925D01*
X011951Y007800D01*
X011884Y007638D01*
X011884Y007462D01*
X011951Y007300D01*
X012076Y007175D01*
X012238Y007108D01*
X012862Y007108D01*
X013024Y007175D01*
X013149Y007300D01*
X013168Y007346D01*
X013168Y006754D01*
X013149Y006800D01*
X013024Y006925D01*
X012862Y006992D01*
X012238Y006992D01*
X012076Y006925D01*
X011951Y006800D01*
X011884Y006638D01*
X011884Y006462D01*
X011951Y006300D01*
X012076Y006175D01*
X012238Y006108D01*
X012862Y006108D01*
X013024Y006175D01*
X013149Y006300D01*
X013168Y006346D01*
X013168Y005754D01*
X013149Y005800D01*
X013024Y005925D01*
X012862Y005992D01*
X012238Y005992D01*
X012076Y005925D01*
X011951Y005800D01*
X011884Y005638D01*
X011884Y005462D01*
X011951Y005300D01*
X012076Y005175D01*
X012238Y005108D01*
X012862Y005108D01*
X013024Y005175D01*
X013149Y005300D01*
X013168Y005346D01*
X013168Y001412D01*
X012880Y001125D01*
X012750Y001125D01*
X012992Y001367D01*
X012992Y001733D01*
X012733Y001992D01*
X012367Y001992D01*
X012108Y001733D01*
X012108Y001367D01*
X012350Y001125D01*
X012231Y001125D01*
X011991Y001365D01*
X011992Y001367D01*
X011992Y001733D01*
X011733Y001992D01*
X011731Y001992D01*
X011731Y002108D01*
X011733Y002108D01*
X011992Y002367D01*
X011992Y002733D01*
X011733Y002992D01*
X011731Y002992D01*
X011731Y003108D01*
X011733Y003108D01*
X011992Y003367D01*
X011992Y003733D01*
X011733Y003992D01*
X011731Y003992D01*
X011731Y004108D01*
X011733Y004108D01*
X011992Y004367D01*
X011992Y004733D01*
X011733Y004992D01*
X011367Y004992D01*
X011108Y004733D01*
X011108Y004367D01*
X011367Y004108D01*
X011369Y004108D01*
X011369Y003992D01*
X011367Y003992D01*
X011108Y003733D01*
X011108Y003367D01*
X011367Y003108D01*
X011369Y003108D01*
X011369Y002992D01*
X011367Y002992D01*
X011108Y002733D01*
X011108Y002367D01*
X011367Y002108D01*
X011369Y002108D01*
X011369Y001992D01*
X011367Y001992D01*
X011108Y001733D01*
X011108Y001367D01*
X011367Y001108D01*
X011733Y001108D01*
X011735Y001109D01*
X011975Y000869D01*
X012081Y000763D01*
X013031Y000763D01*
X013137Y000869D01*
X013530Y001262D01*
X013530Y014897D01*
X013424Y015003D01*
X013138Y015289D01*
X013149Y015300D01*
X013216Y015462D01*
X013216Y015638D01*
X013149Y015800D01*
X013024Y015925D01*
X012862Y015992D01*
X012238Y015992D01*
X012076Y015925D01*
X011951Y015800D01*
X011884Y015638D01*
X011884Y015462D01*
X011951Y015300D01*
X011997Y015253D01*
X011747Y015003D01*
X011357Y015003D01*
X011176Y015184D01*
X010893Y015489D01*
X010893Y015797D01*
X010821Y015869D01*
X010247Y015869D01*
X010176Y015797D01*
X010176Y015421D01*
X010247Y015349D01*
X010528Y015349D01*
X010865Y014987D01*
X010865Y014983D01*
X010916Y014932D01*
X010964Y014880D01*
X010968Y014880D01*
X011101Y014747D01*
X011101Y014255D01*
X010967Y014255D01*
X011011Y014298D01*
X011011Y014794D01*
X010891Y014914D01*
X010473Y014914D01*
X010353Y014794D01*
X010353Y014298D01*
X010396Y014255D01*
X010339Y014255D01*
X010282Y014309D01*
X010282Y015290D01*
X009782Y015790D01*
X009436Y015790D01*
X009436Y015797D01*
X009364Y015869D01*
X008791Y015869D01*
X008719Y015797D01*
X008719Y015421D01*
X008791Y015349D01*
X009364Y015349D01*
X009436Y015421D01*
X009436Y015428D01*
X009632Y015428D01*
X009920Y015140D01*
X009920Y014767D01*
X009593Y015094D01*
X009487Y015200D01*
X007916Y015200D01*
X007231Y015936D01*
X007231Y015940D01*
X007180Y015991D01*
X007132Y016043D01*
X007128Y016043D01*
X007125Y016046D01*
X007053Y016046D01*
X006982Y016049D01*
X006979Y016046D01*
X005949Y016046D01*
X005926Y016069D01*
X005838Y016105D01*
X005742Y016105D01*
X005654Y016069D01*
X005632Y016046D01*
X004649Y016046D01*
X004627Y016069D01*
X004539Y016105D01*
X004443Y016105D01*
X004355Y016069D01*
X004332Y016046D01*
X002725Y016046D01*
X002655Y016050D01*
X002650Y016046D01*
X002644Y016046D01*
X002595Y015997D01*
X002296Y015731D01*
X002177Y015731D01*
X002149Y015800D01*
X002024Y015925D01*
X001862Y015992D01*
X001238Y015992D01*
X001076Y015925D01*
X000951Y015800D01*
X000884Y015638D01*
X000884Y015506D01*
X000515Y015137D01*
X000515Y016141D01*
X007833Y016141D01*
X007833Y015395D01*
X007948Y015280D01*
X008436Y015280D01*
X008550Y015395D01*
X008550Y016141D01*
X011062Y016141D01*
X011062Y015395D01*
X011176Y015280D01*
X011664Y015280D01*
X011778Y015395D01*
X011778Y016141D01*
X013585Y016141D01*
X013585Y000707D01*
X000515Y000707D01*
X000515Y001810D01*
X000955Y001369D01*
X001108Y001369D01*
X001108Y001367D01*
X001367Y001108D01*
X001733Y001108D01*
X001992Y001367D01*
X001992Y001732D01*
X002108Y001848D01*
X002108Y001238D01*
X002175Y001076D01*
X002300Y000951D01*
X002462Y000884D01*
X002638Y000884D01*
X002800Y000951D01*
X002925Y001076D01*
X002992Y001238D01*
X002992Y001862D01*
X002925Y002024D01*
X002886Y002063D01*
X003081Y002259D01*
X005483Y002259D01*
X005578Y002353D01*
X005680Y002456D01*
X006038Y002456D01*
X006109Y002527D01*
X006109Y003022D01*
X006038Y003093D01*
X005503Y003093D01*
X005432Y003022D01*
X005432Y002664D01*
X005349Y002581D01*
X002948Y002581D01*
X002853Y002487D01*
X002582Y002216D01*
X002476Y002216D01*
X002597Y002337D01*
X002597Y002337D01*
X002704Y002443D01*
X002704Y003821D01*
X002794Y003912D01*
X002887Y003912D01*
X002886Y003910D01*
X002877Y003875D01*
X002877Y003680D01*
X003172Y003680D01*
X003172Y003601D01*
X002877Y003601D01*
X002877Y003406D01*
X002886Y003371D01*
X002904Y003339D01*
X002930Y003314D01*
X002954Y003300D01*
X002893Y003238D01*
X002893Y002704D01*
X002964Y002633D01*
X003459Y002633D01*
X003530Y002704D01*
X003530Y002844D01*
X003568Y002807D01*
X003656Y002770D01*
X003751Y002770D01*
X003840Y002807D01*
X003882Y002849D01*
X004313Y002849D01*
X004355Y002807D01*
X004443Y002770D01*
X004539Y002770D01*
X004627Y002807D01*
X004695Y002875D01*
X004731Y002963D01*
X004731Y003023D01*
X005022Y003314D01*
X005022Y003306D01*
X005278Y003306D01*
X005278Y003306D01*
X005022Y003306D01*
X005022Y003281D01*
X005032Y003231D01*
X005052Y003185D01*
X005080Y003143D01*
X005115Y003107D01*
X005157Y003079D01*
X005204Y003060D01*
X005253Y003050D01*
X005278Y003050D01*
X005278Y003306D01*
X005278Y003562D01*
X005270Y003562D01*
X005833Y004125D01*
X005833Y004192D01*
X006125Y004192D01*
X006125Y004113D01*
X006204Y004113D01*
X006204Y004192D01*
X006499Y004192D01*
X006499Y004387D01*
X006489Y004422D01*
X006471Y004454D01*
X006446Y004479D01*
X006422Y004493D01*
X006483Y004555D01*
X006483Y004971D01*
X006522Y005011D01*
X006522Y005023D01*
X006530Y005032D01*
X006522Y005088D01*
X006522Y005096D01*
X006565Y005138D01*
X006601Y005227D01*
X006601Y005322D01*
X006566Y005408D01*
X006675Y005408D01*
X006717Y005366D01*
X006805Y005330D01*
X006813Y005330D01*
X006810Y005322D01*
X006810Y005227D01*
X006837Y005160D01*
X006803Y005160D01*
X006731Y005089D01*
X006731Y004555D01*
X006793Y004493D01*
X006769Y004479D01*
X006743Y004454D01*
X006725Y004422D01*
X006715Y004387D01*
X006715Y004192D01*
X007011Y004192D01*
X007011Y004113D01*
X007089Y004113D01*
X007089Y003798D01*
X007265Y003798D01*
X007300Y003807D01*
X007331Y003826D01*
X007357Y003851D01*
X007375Y003883D01*
X007381Y003903D01*
X007381Y003766D01*
X006471Y002857D01*
X006412Y002857D01*
X006323Y002821D01*
X006256Y002753D01*
X006219Y002665D01*
X006219Y002569D01*
X006256Y002481D01*
X006323Y002413D01*
X006412Y002377D01*
X006507Y002377D01*
X006595Y002413D01*
X006656Y002474D01*
X006717Y002413D01*
X006805Y002377D01*
X006901Y002377D01*
X006989Y002413D01*
X007057Y002481D01*
X007093Y002569D01*
X007093Y002629D01*
X007211Y002747D01*
X007240Y002678D01*
X007308Y002610D01*
X007396Y002574D01*
X007491Y002574D01*
X007580Y002610D01*
X007622Y002652D01*
X007904Y002652D01*
X008286Y003034D01*
X008286Y002963D01*
X008323Y002875D01*
X008390Y002807D01*
X008479Y002770D01*
X008574Y002770D01*
X008662Y002807D01*
X008705Y002849D01*
X009282Y002849D01*
X009770Y003337D01*
X009770Y003341D01*
X009876Y003341D01*
X009948Y003413D01*
X009948Y003908D01*
X009876Y003979D01*
X009342Y003979D01*
X009270Y003908D01*
X009270Y003413D01*
X009330Y003353D01*
X009148Y003172D01*
X008832Y003172D01*
X008838Y003174D01*
X008856Y003210D01*
X008885Y003239D01*
X008885Y003268D01*
X008905Y003309D01*
X008934Y003337D01*
X008934Y003341D01*
X009040Y003341D01*
X009111Y003413D01*
X009111Y003908D01*
X009040Y003979D01*
X008505Y003979D01*
X008434Y003908D01*
X008434Y003467D01*
X008274Y003467D01*
X008274Y003908D01*
X008203Y003979D01*
X007704Y003979D01*
X007704Y004011D01*
X008203Y004011D01*
X008274Y004082D01*
X008274Y004400D01*
X008396Y004522D01*
X008434Y004522D01*
X008434Y004082D01*
X008505Y004011D01*
X009040Y004011D01*
X009111Y004082D01*
X009111Y004391D01*
X009270Y004543D01*
X009270Y004082D01*
X009342Y004011D01*
X009876Y004011D01*
X009948Y004082D01*
X009948Y004577D01*
X009876Y004648D01*
X009770Y004648D01*
X009770Y004715D01*
X010070Y005015D01*
X011054Y005015D01*
X011148Y005109D01*
X011641Y005601D01*
X011641Y008578D01*
X011675Y008578D01*
X011763Y008614D01*
X011830Y008682D01*
X011867Y008770D01*
X011867Y008865D01*
X011830Y008954D01*
X011763Y009021D01*
X011675Y009058D01*
X011579Y009058D01*
X011542Y009043D01*
X011542Y009180D01*
X011448Y009274D01*
X011377Y009345D01*
X011648Y009345D01*
X011719Y009417D01*
X011719Y009912D01*
X011648Y009983D01*
X011114Y009983D01*
X011042Y009912D01*
X011042Y009865D01*
X010995Y009865D01*
X011030Y009951D01*
X011030Y010047D01*
X010994Y010135D01*
X010926Y010202D01*
X010838Y010239D01*
X010742Y010239D01*
X010656Y010203D01*
X010656Y011050D01*
X010562Y011144D01*
X010440Y011144D01*
X010440Y011491D01*
X010511Y011491D01*
X010511Y011395D02*
X010440Y011395D01*
X010440Y011278D02*
X010511Y011278D01*
X010577Y011162D02*
X010440Y011162D01*
X010656Y011045D02*
X013168Y011045D01*
X013168Y011162D02*
X012991Y011162D01*
X013127Y011278D02*
X013168Y011278D01*
X013168Y010928D02*
X013016Y010928D01*
X013137Y010812D02*
X013168Y010812D01*
X013530Y010812D02*
X013585Y010812D01*
X013585Y010928D02*
X013530Y010928D01*
X013530Y011045D02*
X013585Y011045D01*
X013585Y011162D02*
X013530Y011162D01*
X013530Y011278D02*
X013585Y011278D01*
X013585Y011395D02*
X013530Y011395D01*
X013530Y011511D02*
X013585Y011511D01*
X013585Y011628D02*
X013530Y011628D01*
X013530Y011745D02*
X013585Y011745D01*
X013585Y011861D02*
X013530Y011861D01*
X013530Y011978D02*
X013585Y011978D01*
X013585Y012094D02*
X013530Y012094D01*
X013530Y012211D02*
X013585Y012211D01*
X013585Y012328D02*
X013530Y012328D01*
X013530Y012444D02*
X013585Y012444D01*
X013585Y012561D02*
X013530Y012561D01*
X013530Y012677D02*
X013585Y012677D01*
X013585Y012794D02*
X013530Y012794D01*
X013530Y012911D02*
X013585Y012911D01*
X013585Y013027D02*
X013530Y013027D01*
X013530Y013144D02*
X013585Y013144D01*
X013585Y013261D02*
X013530Y013261D01*
X013530Y013377D02*
X013585Y013377D01*
X013585Y013494D02*
X013530Y013494D01*
X013530Y013610D02*
X013585Y013610D01*
X013585Y013727D02*
X013530Y013727D01*
X013530Y013844D02*
X013585Y013844D01*
X013585Y013960D02*
X013530Y013960D01*
X013530Y014077D02*
X013585Y014077D01*
X013585Y014193D02*
X013530Y014193D01*
X013530Y014310D02*
X013585Y014310D01*
X013585Y014427D02*
X013530Y014427D01*
X013530Y014543D02*
X013585Y014543D01*
X013585Y014660D02*
X013530Y014660D01*
X013530Y014776D02*
X013585Y014776D01*
X013585Y014893D02*
X013530Y014893D01*
X013585Y015010D02*
X013417Y015010D01*
X013301Y015126D02*
X013585Y015126D01*
X013585Y015243D02*
X013184Y015243D01*
X013174Y015360D02*
X013585Y015360D01*
X013585Y015476D02*
X013216Y015476D01*
X013216Y015593D02*
X013585Y015593D01*
X013585Y015709D02*
X013186Y015709D01*
X013123Y015826D02*
X013585Y015826D01*
X013585Y015943D02*
X012981Y015943D01*
X012621Y015550D02*
X013349Y014822D01*
X013349Y001337D01*
X012956Y000944D01*
X012156Y000944D01*
X011550Y001550D01*
X011550Y002550D01*
X011550Y003550D01*
X011550Y004550D01*
X011861Y004865D02*
X012239Y004865D01*
X012123Y004748D02*
X011977Y004748D01*
X011992Y004631D02*
X012108Y004631D01*
X012108Y004733D02*
X012108Y004367D01*
X012367Y004108D01*
X012733Y004108D01*
X012992Y004367D01*
X012992Y004733D01*
X012733Y004992D01*
X012367Y004992D01*
X012108Y004733D01*
X012108Y004515D02*
X011992Y004515D01*
X011992Y004398D02*
X012108Y004398D01*
X012193Y004282D02*
X011907Y004282D01*
X011790Y004165D02*
X012310Y004165D01*
X012367Y003992D02*
X012108Y003733D01*
X012108Y003367D01*
X012367Y003108D01*
X012733Y003108D01*
X012992Y003367D01*
X012992Y003733D01*
X012733Y003992D01*
X012367Y003992D01*
X012307Y003932D02*
X011793Y003932D01*
X011731Y004048D02*
X013168Y004048D01*
X013168Y003932D02*
X012793Y003932D01*
X012910Y003815D02*
X013168Y003815D01*
X013168Y003698D02*
X012992Y003698D01*
X012992Y003582D02*
X013168Y003582D01*
X013168Y003465D02*
X012992Y003465D01*
X012974Y003349D02*
X013168Y003349D01*
X013168Y003232D02*
X012857Y003232D01*
X012741Y003115D02*
X013168Y003115D01*
X013168Y002999D02*
X011731Y002999D01*
X011741Y003115D02*
X012359Y003115D01*
X012367Y002992D02*
X012108Y002733D01*
X012108Y002367D01*
X012367Y002108D01*
X012733Y002108D01*
X012992Y002367D01*
X012992Y002733D01*
X012733Y002992D01*
X012367Y002992D01*
X012257Y002882D02*
X011843Y002882D01*
X011960Y002766D02*
X012140Y002766D01*
X012108Y002649D02*
X011992Y002649D01*
X011992Y002532D02*
X012108Y002532D01*
X012108Y002416D02*
X011992Y002416D01*
X011924Y002299D02*
X012176Y002299D01*
X012292Y002183D02*
X011808Y002183D01*
X011731Y002066D02*
X013168Y002066D01*
X013168Y002183D02*
X012808Y002183D01*
X012924Y002299D02*
X013168Y002299D01*
X013168Y002416D02*
X012992Y002416D01*
X012992Y002532D02*
X013168Y002532D01*
X013168Y002649D02*
X012992Y002649D01*
X012960Y002766D02*
X013168Y002766D01*
X013168Y002882D02*
X012843Y002882D01*
X012243Y003232D02*
X011857Y003232D01*
X011974Y003349D02*
X012126Y003349D01*
X012108Y003465D02*
X011992Y003465D01*
X011992Y003582D02*
X012108Y003582D01*
X012108Y003698D02*
X011992Y003698D01*
X011910Y003815D02*
X012190Y003815D01*
X012790Y004165D02*
X013168Y004165D01*
X013168Y004282D02*
X012907Y004282D01*
X012992Y004398D02*
X013168Y004398D01*
X013168Y004515D02*
X012992Y004515D01*
X012992Y004631D02*
X013168Y004631D01*
X013168Y004748D02*
X012977Y004748D01*
X012861Y004865D02*
X013168Y004865D01*
X013168Y004981D02*
X012744Y004981D01*
X013064Y005214D02*
X013168Y005214D01*
X013168Y005098D02*
X011137Y005098D01*
X011254Y005214D02*
X012036Y005214D01*
X011938Y005331D02*
X011370Y005331D01*
X011487Y005448D02*
X011890Y005448D01*
X011884Y005564D02*
X011604Y005564D01*
X011641Y005681D02*
X011902Y005681D01*
X011950Y005797D02*
X011641Y005797D01*
X011641Y005914D02*
X012065Y005914D01*
X012143Y006147D02*
X011641Y006147D01*
X011641Y006031D02*
X013168Y006031D01*
X013168Y006147D02*
X012957Y006147D01*
X013113Y006264D02*
X013168Y006264D01*
X013530Y006264D02*
X013585Y006264D01*
X013585Y006381D02*
X013530Y006381D01*
X013530Y006497D02*
X013585Y006497D01*
X013585Y006614D02*
X013530Y006614D01*
X013530Y006730D02*
X013585Y006730D01*
X013585Y006847D02*
X013530Y006847D01*
X013530Y006964D02*
X013585Y006964D01*
X013585Y007080D02*
X013530Y007080D01*
X013530Y007197D02*
X013585Y007197D01*
X013585Y007313D02*
X013530Y007313D01*
X013530Y007430D02*
X013585Y007430D01*
X013585Y007547D02*
X013530Y007547D01*
X013530Y007663D02*
X013585Y007663D01*
X013585Y007780D02*
X013530Y007780D01*
X013530Y007896D02*
X013585Y007896D01*
X013585Y008013D02*
X013530Y008013D01*
X013530Y008130D02*
X013585Y008130D01*
X013585Y008246D02*
X013530Y008246D01*
X013530Y008363D02*
X013585Y008363D01*
X013585Y008480D02*
X013530Y008480D01*
X013530Y008596D02*
X013585Y008596D01*
X013585Y008713D02*
X013530Y008713D01*
X013530Y008829D02*
X013585Y008829D01*
X013585Y008946D02*
X013530Y008946D01*
X013530Y009063D02*
X013585Y009063D01*
X013585Y009179D02*
X013530Y009179D01*
X013530Y009296D02*
X013585Y009296D01*
X013585Y009412D02*
X013530Y009412D01*
X013530Y009529D02*
X013585Y009529D01*
X013585Y009646D02*
X013530Y009646D01*
X013530Y009762D02*
X013585Y009762D01*
X013585Y009879D02*
X013530Y009879D01*
X013530Y009995D02*
X013585Y009995D01*
X013585Y010112D02*
X013530Y010112D01*
X013530Y010229D02*
X013585Y010229D01*
X013585Y010345D02*
X013530Y010345D01*
X013530Y010462D02*
X013585Y010462D01*
X013585Y010579D02*
X013530Y010579D01*
X013530Y010695D02*
X013585Y010695D01*
X013168Y010345D02*
X013168Y010345D01*
X013168Y010229D02*
X013078Y010229D01*
X013168Y010112D02*
X012872Y010112D01*
X013070Y009879D02*
X013168Y009879D01*
X013168Y009995D02*
X011030Y009995D01*
X011080Y010026D02*
X011054Y010052D01*
X011036Y010083D01*
X011026Y010118D01*
X011026Y010294D01*
X011341Y010294D01*
X011341Y010373D01*
X011026Y010373D01*
X011026Y010548D01*
X011036Y010584D01*
X011054Y010615D01*
X011080Y010641D01*
X011111Y010659D01*
X011146Y010668D01*
X011341Y010668D01*
X011341Y010373D01*
X011420Y010373D01*
X011420Y010668D01*
X011615Y010668D01*
X011650Y010659D01*
X011682Y010641D01*
X011708Y010615D01*
X011726Y010584D01*
X011735Y010548D01*
X011735Y010373D01*
X011420Y010373D01*
X011420Y010294D01*
X011420Y009999D01*
X011615Y009999D01*
X011650Y010008D01*
X011682Y010026D01*
X011708Y010052D01*
X011726Y010083D01*
X011735Y010118D01*
X011735Y010294D01*
X011420Y010294D01*
X011341Y010294D01*
X011341Y009999D01*
X011146Y009999D01*
X011111Y010008D01*
X011080Y010026D01*
X011028Y010112D02*
X011003Y010112D01*
X011026Y010229D02*
X010863Y010229D01*
X010718Y010229D02*
X010656Y010229D01*
X010656Y010345D02*
X011341Y010345D01*
X011420Y010345D02*
X011932Y010345D01*
X011884Y010462D02*
X011735Y010462D01*
X011727Y010579D02*
X011884Y010579D01*
X011908Y010695D02*
X010656Y010695D01*
X010656Y010579D02*
X011034Y010579D01*
X011026Y010462D02*
X010656Y010462D01*
X010656Y010812D02*
X011963Y010812D01*
X012084Y010928D02*
X010656Y010928D01*
X011122Y011162D02*
X011229Y011162D01*
X011479Y011162D02*
X011558Y011162D01*
X011558Y011141D02*
X011753Y011141D01*
X011788Y011150D01*
X011820Y011168D01*
X011845Y011194D01*
X011863Y011225D01*
X011873Y011260D01*
X011873Y011436D01*
X011558Y011436D01*
X011558Y011141D01*
X011558Y011278D02*
X011479Y011278D01*
X011479Y011395D02*
X011558Y011395D01*
X011558Y011511D02*
X011884Y011511D01*
X011873Y011515D02*
X011873Y011690D01*
X011863Y011725D01*
X011845Y011757D01*
X011820Y011782D01*
X011788Y011800D01*
X011753Y011810D01*
X011558Y011810D01*
X011558Y011515D01*
X011873Y011515D01*
X011873Y011628D02*
X011884Y011628D01*
X011852Y011745D02*
X011928Y011745D01*
X012012Y011861D02*
X010644Y011861D01*
X010643Y011861D02*
X009298Y011861D01*
X008759Y011861D02*
X008688Y011861D01*
X008688Y011745D02*
X008759Y011745D01*
X008688Y011704D02*
X008688Y013117D01*
X006326Y015479D01*
X006231Y015574D01*
X002849Y015574D01*
X002259Y014983D01*
X002164Y014889D01*
X002164Y014792D01*
X002123Y014848D01*
X002072Y014899D01*
X002014Y014942D01*
X001950Y014974D01*
X001881Y014997D01*
X001810Y015008D01*
X001591Y015008D01*
X001591Y014591D01*
X002164Y014591D01*
X002164Y014509D01*
X001591Y014509D01*
X001591Y014591D01*
X001509Y014591D01*
X001509Y014509D01*
X001591Y014509D01*
X001591Y014092D01*
X001810Y014092D01*
X001871Y014102D01*
X001762Y013992D01*
X001238Y013992D01*
X001076Y013925D01*
X000951Y013800D01*
X000884Y013638D01*
X000884Y013462D01*
X000951Y013300D01*
X001076Y013175D01*
X001238Y013108D01*
X001862Y013108D01*
X001892Y013121D01*
X001764Y012992D01*
X001238Y012992D01*
X001076Y012925D01*
X000951Y012800D01*
X000884Y012638D01*
X000884Y012462D01*
X000951Y012300D01*
X001076Y012175D01*
X001238Y012108D01*
X001862Y012108D01*
X001892Y012121D01*
X001764Y011992D01*
X001238Y011992D01*
X001076Y011925D01*
X000951Y011800D01*
X000884Y011638D01*
X000884Y011462D01*
X000951Y011300D01*
X001076Y011175D01*
X001238Y011108D01*
X001829Y011108D01*
X001726Y010992D01*
X001238Y010992D01*
X001076Y010925D01*
X000951Y010800D01*
X000884Y010638D01*
X000884Y010462D01*
X000951Y010300D01*
X001076Y010175D01*
X001238Y010108D01*
X001837Y010108D01*
X001732Y009992D01*
X001238Y009992D01*
X001076Y009925D01*
X000951Y009800D01*
X000884Y009638D01*
X000884Y009462D01*
X000951Y009300D01*
X001076Y009175D01*
X001238Y009108D01*
X001862Y009108D01*
X001892Y009121D01*
X001764Y008992D01*
X001238Y008992D01*
X001076Y008925D01*
X000951Y008800D01*
X000884Y008638D01*
X000884Y008462D01*
X000951Y008300D01*
X001076Y008175D01*
X001238Y008108D01*
X001862Y008108D01*
X002024Y008175D01*
X002149Y008300D01*
X002216Y008462D01*
X002216Y008638D01*
X002149Y008800D01*
X002089Y008860D01*
X002267Y009038D01*
X002267Y009015D01*
X002522Y009015D01*
X002522Y009270D01*
X002497Y009270D01*
X002487Y009268D01*
X002487Y010030D01*
X002589Y010133D01*
X002601Y010145D01*
X002601Y010040D01*
X002611Y010005D01*
X002629Y009973D01*
X002654Y009948D01*
X002686Y009929D01*
X002721Y009920D01*
X002916Y009920D01*
X002916Y010215D01*
X002995Y010215D01*
X002995Y009920D01*
X003148Y009920D01*
X003148Y009839D01*
X003075Y009809D01*
X003055Y009789D01*
X003040Y009804D01*
X002998Y009832D01*
X002951Y009851D01*
X002902Y009861D01*
X002877Y009861D01*
X002877Y009605D01*
X002877Y009349D01*
X002902Y009349D01*
X002951Y009359D01*
X002998Y009378D01*
X003040Y009406D01*
X003055Y009422D01*
X003075Y009402D01*
X003164Y009365D01*
X003259Y009365D01*
X003345Y009401D01*
X003345Y009278D01*
X003046Y008979D01*
X002952Y008885D01*
X002952Y008491D01*
X002182Y007721D01*
X002149Y007800D01*
X002024Y007925D01*
X001862Y007992D01*
X001238Y007992D01*
X001076Y007925D01*
X000951Y007800D01*
X000884Y007638D01*
X000884Y007462D01*
X000951Y007300D01*
X001076Y007175D01*
X001238Y007108D01*
X001862Y007108D01*
X001892Y007121D01*
X001764Y006992D01*
X001238Y006992D01*
X001076Y006925D01*
X000951Y006800D01*
X000884Y006638D01*
X000884Y006462D01*
X000951Y006300D01*
X001076Y006175D01*
X001238Y006108D01*
X001862Y006108D01*
X002024Y006175D01*
X002149Y006300D01*
X002216Y006462D01*
X002216Y006638D01*
X002149Y006800D01*
X002089Y006860D01*
X003471Y008243D01*
X003471Y008652D01*
X003963Y009145D01*
X003963Y010017D01*
X004006Y010060D01*
X004042Y010148D01*
X004042Y010243D01*
X004037Y010256D01*
X004049Y010251D01*
X004145Y010251D01*
X004233Y010287D01*
X004301Y010355D01*
X004337Y010443D01*
X004337Y010539D01*
X004301Y010627D01*
X004233Y010695D01*
X004145Y010731D01*
X004074Y010731D01*
X004160Y010818D01*
X004160Y011002D01*
X004202Y011044D01*
X004239Y011132D01*
X004239Y011228D01*
X004202Y011316D01*
X004147Y011372D01*
X004190Y011415D01*
X004204Y011391D01*
X004229Y011365D01*
X004261Y011347D01*
X004296Y011337D01*
X004491Y011337D01*
X004491Y011633D01*
X004570Y011633D01*
X004570Y011711D01*
X004885Y011711D01*
X004885Y011887D01*
X004875Y011922D01*
X004857Y011954D01*
X004831Y011979D01*
X004800Y011997D01*
X004765Y012007D01*
X004570Y012007D01*
X004570Y011711D01*
X004491Y011711D01*
X004491Y012007D01*
X004296Y012007D01*
X004261Y011997D01*
X004229Y011979D01*
X004204Y011954D01*
X004190Y011929D01*
X004128Y011991D01*
X003594Y011991D01*
X003522Y011919D01*
X003522Y011833D01*
X003373Y011833D01*
X003373Y012589D01*
X003387Y012603D01*
X003407Y012603D01*
X003407Y012558D01*
X003707Y012558D01*
X003707Y012558D01*
X003527Y012558D01*
X003527Y012558D01*
X003407Y012558D01*
X003407Y012481D01*
X003413Y012459D01*
X003407Y012438D01*
X003407Y012361D01*
X003407Y012284D01*
X003417Y012249D01*
X003435Y012217D01*
X003460Y012192D01*
X003492Y012174D01*
X003527Y012164D01*
X003707Y012164D01*
X003707Y012361D01*
X003407Y012361D01*
X003527Y012361D01*
X003707Y012361D01*
X003707Y012361D01*
X003707Y012361D01*
X003707Y012558D01*
X003707Y012558D01*
X003707Y012361D01*
X003707Y012361D01*
X003707Y012164D01*
X003888Y012164D01*
X003923Y012174D01*
X003954Y012192D01*
X003980Y012217D01*
X003998Y012249D01*
X004008Y012284D01*
X004008Y012361D01*
X003707Y012361D01*
X003888Y012361D01*
X003888Y012361D01*
X004008Y012361D01*
X004008Y012438D01*
X004002Y012459D01*
X004008Y012481D01*
X004008Y012558D01*
X004008Y012635D01*
X003998Y012670D01*
X003992Y012681D01*
X003992Y012828D01*
X003998Y012839D01*
X004008Y012874D01*
X004008Y012952D01*
X004008Y013029D01*
X003998Y013064D01*
X003992Y013075D01*
X003992Y013258D01*
X003920Y013330D01*
X003495Y013330D01*
X003471Y013306D01*
X003471Y013475D01*
X003574Y013578D01*
X003608Y013612D01*
X003615Y013587D01*
X003633Y013556D01*
X003658Y013530D01*
X003690Y013512D01*
X003725Y013503D01*
X003920Y013503D01*
X003920Y013798D01*
X003999Y013798D01*
X003999Y013503D01*
X004194Y013503D01*
X004229Y013512D01*
X004261Y013530D01*
X004286Y013556D01*
X004300Y013580D01*
X004362Y013519D01*
X004853Y013519D01*
X004841Y013491D01*
X004841Y013396D01*
X004869Y013330D01*
X004471Y013330D01*
X004462Y013320D01*
X004430Y013352D01*
X004342Y013389D01*
X004246Y013389D01*
X004158Y013352D01*
X004090Y013284D01*
X004054Y013196D01*
X004054Y013101D01*
X004090Y013012D01*
X004143Y012960D01*
X004143Y012889D01*
X004231Y012800D01*
X004384Y012800D01*
X004384Y012755D01*
X004684Y012755D01*
X004984Y012755D01*
X004984Y012832D01*
X004975Y012867D01*
X004968Y012878D01*
X004968Y012997D01*
X005004Y012997D01*
X005005Y012997D01*
X005015Y012987D01*
X005069Y012987D01*
X005137Y012977D01*
X005137Y012842D01*
X005208Y012770D01*
X005597Y012770D01*
X005566Y012739D01*
X005208Y012739D01*
X005179Y012709D01*
X004984Y012709D01*
X004984Y012755D01*
X004684Y012755D01*
X004684Y012755D01*
X004684Y012755D01*
X004384Y012755D01*
X004384Y012678D01*
X004393Y012642D01*
X004399Y012631D01*
X004399Y012484D01*
X004393Y012473D01*
X004384Y012438D01*
X004384Y012361D01*
X004384Y012284D01*
X004393Y012249D01*
X004411Y012217D01*
X004437Y012192D01*
X004468Y012174D01*
X004503Y012164D01*
X004684Y012164D01*
X004864Y012164D01*
X004899Y012174D01*
X004931Y012192D01*
X004957Y012217D01*
X004975Y012249D01*
X004984Y012284D01*
X004984Y012361D01*
X004684Y012361D01*
X004684Y012361D01*
X004984Y012361D01*
X004984Y012406D01*
X005137Y012406D01*
X005137Y012173D01*
X005208Y012101D01*
X005742Y012101D01*
X005814Y012173D01*
X005814Y012530D01*
X005904Y012621D01*
X005904Y010853D01*
X005605Y010554D01*
X005511Y010459D01*
X005511Y010093D01*
X005440Y010164D01*
X005345Y010259D01*
X004928Y010259D01*
X004928Y010286D01*
X004856Y010357D01*
X004751Y010357D01*
X004751Y011050D01*
X004731Y011070D01*
X004731Y011129D01*
X004695Y011218D01*
X004627Y011285D01*
X004539Y011322D01*
X004443Y011322D01*
X004355Y011285D01*
X004287Y011218D01*
X004251Y011129D01*
X004251Y011034D01*
X004287Y010945D01*
X004355Y010878D01*
X004428Y010848D01*
X004428Y010357D01*
X004322Y010357D01*
X004251Y010286D01*
X004251Y009791D01*
X004322Y009719D01*
X004856Y009719D01*
X004928Y009791D01*
X004928Y009936D01*
X005211Y009936D01*
X005215Y009932D01*
X005215Y008504D01*
X005173Y008462D01*
X005137Y008373D01*
X005137Y008278D01*
X005173Y008190D01*
X005234Y008129D01*
X005173Y008068D01*
X005137Y007980D01*
X005137Y007884D01*
X005173Y007796D01*
X005241Y007728D01*
X005310Y007700D01*
X004916Y007306D01*
X004822Y007211D01*
X004822Y006684D01*
X005019Y006487D01*
X005113Y006393D01*
X005704Y006393D01*
X005893Y006204D01*
X005821Y006204D01*
X005733Y006167D01*
X005691Y006125D01*
X005001Y006125D01*
X004849Y006580D01*
X004849Y006621D01*
X004829Y006641D01*
X004820Y006668D01*
X004783Y006687D01*
X004755Y006715D01*
X004726Y006715D01*
X004700Y006728D01*
X004672Y006719D01*
X004672Y006801D01*
X004637Y006836D01*
X004654Y006847D01*
X004690Y006883D01*
X004718Y006925D01*
X004737Y006971D01*
X004747Y007021D01*
X004747Y007046D01*
X004491Y007046D01*
X004491Y007046D01*
X004747Y007046D01*
X004747Y007071D01*
X004737Y007121D01*
X004718Y007167D01*
X004690Y007209D01*
X004654Y007245D01*
X004612Y007273D01*
X004566Y007292D01*
X004516Y007302D01*
X004491Y007302D01*
X004491Y007046D01*
X004235Y007046D01*
X004235Y007021D01*
X004245Y006971D01*
X004264Y006925D01*
X004292Y006883D01*
X004302Y006873D01*
X003791Y006873D01*
X003719Y006801D01*
X003719Y006715D01*
X003688Y006715D01*
X003688Y006801D01*
X003616Y006873D01*
X003082Y006873D01*
X003021Y006811D01*
X003007Y006835D01*
X002981Y006861D01*
X002950Y006879D01*
X002915Y006889D01*
X002719Y006889D01*
X002719Y006593D01*
X002641Y006593D01*
X002641Y006889D01*
X002445Y006889D01*
X002410Y006879D01*
X002379Y006861D01*
X002353Y006835D01*
X002335Y006804D01*
X002326Y006769D01*
X002326Y006593D01*
X002641Y006593D01*
X002641Y006515D01*
X002719Y006515D01*
X002719Y006219D01*
X002915Y006219D01*
X002950Y006229D01*
X002981Y006247D01*
X003007Y006272D01*
X003021Y006297D01*
X003082Y006235D01*
X003616Y006235D01*
X003688Y006307D01*
X003688Y006393D01*
X003719Y006393D01*
X003719Y006307D01*
X003791Y006235D01*
X004601Y006235D01*
X004618Y006253D01*
X004723Y005937D01*
X004723Y005897D01*
X004744Y005876D01*
X004749Y005859D01*
X004672Y005782D01*
X004672Y005817D01*
X004601Y005889D01*
X003791Y005889D01*
X003719Y005817D01*
X003719Y005731D01*
X003688Y005731D01*
X003688Y005817D01*
X003616Y005889D01*
X003082Y005889D01*
X003021Y005827D01*
X003007Y005851D01*
X002981Y005877D01*
X002950Y005895D01*
X002915Y005904D01*
X002719Y005904D01*
X002719Y005609D01*
X002641Y005609D01*
X002641Y005904D01*
X002445Y005904D01*
X002410Y005895D01*
X002379Y005877D01*
X002353Y005851D01*
X002335Y005820D01*
X002326Y005785D01*
X002326Y005609D01*
X002641Y005609D01*
X002641Y005530D01*
X002719Y005530D01*
X002719Y005235D01*
X002915Y005235D01*
X002950Y005244D01*
X002981Y005263D01*
X003007Y005288D01*
X003021Y005312D01*
X003082Y005251D01*
X003616Y005251D01*
X003688Y005322D01*
X003688Y005408D01*
X003719Y005408D01*
X003719Y005322D01*
X003791Y005251D01*
X004601Y005251D01*
X004672Y005322D01*
X004672Y005408D01*
X004755Y005408D01*
X004849Y005503D01*
X004952Y005605D01*
X005438Y005605D01*
X005468Y005532D01*
X005536Y005465D01*
X005605Y005436D01*
X005519Y005436D01*
X005519Y005463D01*
X005447Y005534D01*
X004913Y005534D01*
X004841Y005463D01*
X004841Y004968D01*
X004913Y004896D01*
X005447Y004896D01*
X005511Y004960D01*
X005511Y004801D01*
X005447Y004865D01*
X004913Y004865D01*
X004841Y004793D01*
X004841Y004772D01*
X004824Y004789D01*
X004736Y004826D01*
X004640Y004826D01*
X004552Y004789D01*
X004510Y004747D01*
X003685Y004747D01*
X003643Y004789D01*
X003554Y004826D01*
X003459Y004826D01*
X003371Y004789D01*
X003303Y004721D01*
X003267Y004633D01*
X003267Y004538D01*
X003303Y004449D01*
X003371Y004382D01*
X003459Y004345D01*
X003554Y004345D01*
X003643Y004382D01*
X003685Y004424D01*
X004510Y004424D01*
X004552Y004382D01*
X004640Y004345D01*
X004736Y004345D01*
X004819Y004380D01*
X004841Y004374D01*
X004841Y004299D01*
X004913Y004227D01*
X005447Y004227D01*
X005511Y004291D01*
X005511Y004259D01*
X004503Y003251D01*
X004443Y003251D01*
X004436Y003248D01*
X004436Y003612D01*
X004364Y003684D01*
X003830Y003684D01*
X003759Y003612D01*
X003759Y003248D01*
X003751Y003251D01*
X003656Y003251D01*
X003568Y003214D01*
X003530Y003177D01*
X003530Y003238D01*
X003469Y003300D01*
X003493Y003314D01*
X003519Y003339D01*
X003537Y003371D01*
X003546Y003406D01*
X003546Y003601D01*
X003251Y003601D01*
X003251Y003680D01*
X003546Y003680D01*
X003546Y003875D01*
X003537Y003910D01*
X003536Y003912D01*
X003759Y003912D01*
X003759Y003787D01*
X003830Y003715D01*
X004364Y003715D01*
X004436Y003787D01*
X004436Y003912D01*
X004529Y003912D01*
X004552Y003890D01*
X004640Y003853D01*
X004736Y003853D01*
X004824Y003890D01*
X004891Y003957D01*
X004928Y004046D01*
X004928Y004141D01*
X004891Y004229D01*
X004824Y004297D01*
X004736Y004333D01*
X004640Y004333D01*
X004552Y004297D01*
X004529Y004274D01*
X004436Y004274D01*
X004436Y004282D01*
X004364Y004353D01*
X003830Y004353D01*
X003759Y004282D01*
X003759Y004274D01*
X002644Y004274D01*
X002538Y004168D01*
X002341Y003971D01*
X002341Y002594D01*
X002216Y002468D01*
X002216Y002638D01*
X002149Y002800D01*
X002024Y002925D01*
X001862Y002992D01*
X001238Y002992D01*
X001076Y002925D01*
X000951Y002800D01*
X000884Y002638D01*
X000884Y002462D01*
X000951Y002300D01*
X001076Y002175D01*
X001238Y002108D01*
X001856Y002108D01*
X001736Y001989D01*
X001733Y001992D01*
X001367Y001992D01*
X001108Y001733D01*
X001108Y001731D01*
X001105Y001731D01*
X000833Y002003D01*
X000833Y014943D01*
X001070Y015180D01*
X001076Y015175D01*
X001238Y015108D01*
X001862Y015108D01*
X002024Y015175D01*
X002149Y015300D01*
X002177Y015369D01*
X002360Y015369D01*
X002429Y015365D01*
X002434Y015369D01*
X002440Y015369D01*
X002489Y015418D01*
X002788Y015684D01*
X004332Y015684D01*
X004355Y015661D01*
X004443Y015625D01*
X004539Y015625D01*
X004627Y015661D01*
X004649Y015684D01*
X005632Y015684D01*
X005654Y015661D01*
X005742Y015625D01*
X005838Y015625D01*
X005926Y015661D01*
X005949Y015684D01*
X006971Y015684D01*
X007656Y014947D01*
X007656Y014943D01*
X007707Y014893D01*
X007756Y014840D01*
X007760Y014840D01*
X007762Y014837D01*
X007834Y014837D01*
X007906Y014835D01*
X007909Y014837D01*
X008644Y014837D01*
X008601Y014794D01*
X008601Y014298D01*
X008721Y014178D01*
X009139Y014178D01*
X009259Y014298D01*
X009259Y014794D01*
X009216Y014837D01*
X009337Y014837D01*
X009625Y014550D01*
X009625Y014345D01*
X009558Y014373D01*
X009463Y014373D01*
X009375Y014336D01*
X009307Y014269D01*
X009270Y014180D01*
X009270Y014121D01*
X008759Y013609D01*
X008759Y011211D01*
X008853Y011117D01*
X009613Y011117D01*
X009546Y011050D01*
X009546Y010849D01*
X008460Y010849D01*
X008365Y010755D01*
X007869Y010259D01*
X007609Y010259D01*
X007370Y010497D01*
X007389Y010542D01*
X007389Y010637D01*
X007352Y010725D01*
X007284Y010793D01*
X007196Y010830D01*
X007101Y010830D01*
X007012Y010793D01*
X006952Y010732D01*
X006891Y010793D01*
X006802Y010830D01*
X006707Y010830D01*
X006619Y010793D01*
X006551Y010725D01*
X006515Y010637D01*
X006515Y010542D01*
X006551Y010453D01*
X006619Y010386D01*
X006707Y010349D01*
X006767Y010349D01*
X006936Y010180D01*
X006507Y010180D01*
X006451Y010123D01*
X006409Y010141D01*
X006313Y010141D01*
X006225Y010104D01*
X006157Y010036D01*
X006121Y009948D01*
X006121Y009853D01*
X006157Y009764D01*
X006225Y009697D01*
X006313Y009660D01*
X006409Y009660D01*
X006436Y009671D01*
X006436Y009574D01*
X006497Y009513D01*
X006473Y009499D01*
X006448Y009473D01*
X006429Y009442D01*
X006420Y009407D01*
X006420Y009211D01*
X006715Y009211D01*
X006715Y009133D01*
X006420Y009133D01*
X006420Y008937D01*
X006429Y008902D01*
X006448Y008871D01*
X006473Y008845D01*
X006505Y008827D01*
X006540Y008818D01*
X006715Y008818D01*
X006715Y009133D01*
X006794Y009133D01*
X006794Y009211D01*
X007089Y009211D01*
X007089Y009407D01*
X007080Y009442D01*
X007062Y009473D01*
X007036Y009499D01*
X007012Y009513D01*
X007074Y009574D01*
X007074Y010042D01*
X007282Y009834D01*
X007377Y009739D01*
X008076Y009739D01*
X008074Y009729D01*
X008074Y009704D01*
X008330Y009704D01*
X008585Y009704D01*
X008585Y009729D01*
X008576Y009778D01*
X008556Y009825D01*
X008528Y009867D01*
X008493Y009902D01*
X008451Y009930D01*
X008404Y009950D01*
X008355Y009959D01*
X008330Y009959D01*
X008330Y009704D01*
X008330Y009704D01*
X008330Y009704D01*
X008330Y009959D01*
X008322Y009959D01*
X008692Y010330D01*
X009700Y010330D01*
X009664Y010243D01*
X009664Y010184D01*
X009644Y010164D01*
X009644Y009983D01*
X009559Y009983D01*
X009487Y009912D01*
X009487Y009377D01*
X009549Y009316D01*
X009524Y009302D01*
X009499Y009276D01*
X009481Y009245D01*
X009471Y009210D01*
X009471Y009015D01*
X009767Y009015D01*
X009767Y008936D01*
X009845Y008936D01*
X009845Y008621D01*
X010021Y008621D01*
X010056Y008630D01*
X010087Y008648D01*
X010113Y008674D01*
X010131Y008705D01*
X010141Y008741D01*
X010141Y008936D01*
X009845Y008936D01*
X009845Y009015D01*
X010141Y009015D01*
X010141Y009210D01*
X010131Y009245D01*
X010113Y009276D01*
X010087Y009302D01*
X010063Y009316D01*
X010125Y009377D01*
X010125Y009912D01*
X010053Y009983D01*
X010019Y009983D01*
X010040Y009992D01*
X010108Y010060D01*
X010137Y010129D01*
X010137Y009341D01*
X010231Y009247D01*
X010727Y008751D01*
X010727Y006030D01*
X010625Y005928D01*
X009641Y005928D01*
X008952Y005239D01*
X008786Y005239D01*
X008786Y005345D01*
X008715Y005416D01*
X008220Y005416D01*
X008148Y005345D01*
X008148Y004810D01*
X008188Y004771D01*
X008066Y004648D01*
X007704Y004648D01*
X007704Y004722D01*
X007718Y004739D01*
X008045Y004739D01*
X008117Y004810D01*
X008117Y005345D01*
X008045Y005416D01*
X007551Y005416D01*
X007479Y005345D01*
X007479Y004956D01*
X007424Y004892D01*
X007381Y004849D01*
X007381Y004842D01*
X007376Y004837D01*
X007381Y004777D01*
X007381Y004402D01*
X007375Y004422D01*
X007357Y004454D01*
X007331Y004479D01*
X007307Y004493D01*
X007369Y004555D01*
X007369Y005089D01*
X007297Y005160D01*
X007263Y005160D01*
X007290Y005227D01*
X007290Y005322D01*
X007254Y005410D01*
X007186Y005478D01*
X007098Y005515D01*
X007090Y005515D01*
X007093Y005522D01*
X007093Y005617D01*
X007057Y005706D01*
X006989Y005773D01*
X006901Y005810D01*
X006805Y005810D01*
X006717Y005773D01*
X006675Y005731D01*
X006326Y005731D01*
X006326Y006227D01*
X006231Y006322D01*
X005837Y006715D01*
X005444Y006715D01*
X005513Y006744D01*
X005555Y006786D01*
X006231Y006786D01*
X007215Y007770D01*
X007253Y007770D01*
X007233Y007765D01*
X007202Y007747D01*
X007176Y007721D01*
X007158Y007690D01*
X007148Y007655D01*
X007148Y007479D01*
X007463Y007479D01*
X007463Y007400D01*
X007148Y007400D01*
X007148Y007225D01*
X007158Y007190D01*
X007176Y007158D01*
X007202Y007133D01*
X007233Y007115D01*
X007268Y007105D01*
X007438Y007105D01*
X007414Y007069D01*
X007394Y007022D01*
X007385Y006973D01*
X007385Y006948D01*
X007641Y006948D01*
X007641Y006948D01*
X007385Y006948D01*
X007385Y006922D01*
X007394Y006873D01*
X007414Y006826D01*
X007438Y006790D01*
X007268Y006790D01*
X007233Y006781D01*
X007202Y006763D01*
X007176Y006737D01*
X007158Y006706D01*
X007148Y006671D01*
X007148Y006495D01*
X007463Y006495D01*
X007463Y006416D01*
X007148Y006416D01*
X007148Y006241D01*
X007158Y006205D01*
X007176Y006174D01*
X007202Y006148D01*
X007233Y006130D01*
X007268Y006121D01*
X007463Y006121D01*
X007463Y006416D01*
X007542Y006416D01*
X007542Y006121D01*
X007737Y006121D01*
X007772Y006130D01*
X007804Y006148D01*
X007830Y006174D01*
X007843Y006198D01*
X007905Y006137D01*
X008439Y006137D01*
X008511Y006208D01*
X008511Y006703D01*
X008439Y006774D01*
X008201Y006774D01*
X008238Y006812D01*
X008274Y006900D01*
X008274Y006995D01*
X008238Y007084D01*
X008201Y007121D01*
X008439Y007121D01*
X008511Y007192D01*
X008511Y007239D01*
X009487Y007239D01*
X009487Y007133D01*
X009559Y007062D01*
X010053Y007062D01*
X010125Y007133D01*
X010125Y007278D01*
X010168Y007278D01*
X010263Y007373D01*
X010286Y007396D01*
X010346Y007396D01*
X010434Y007433D01*
X010502Y007501D01*
X010538Y007589D01*
X010538Y007684D01*
X010502Y007773D01*
X010434Y007840D01*
X010346Y007877D01*
X010250Y007877D01*
X010162Y007840D01*
X010135Y007813D01*
X010141Y007835D01*
X010141Y008030D01*
X009845Y008030D01*
X009845Y008109D01*
X009767Y008109D01*
X009767Y008424D01*
X009591Y008424D01*
X009556Y008415D01*
X009524Y008396D01*
X009499Y008371D01*
X009481Y008339D01*
X009471Y008304D01*
X009471Y008109D01*
X009767Y008109D01*
X009767Y008030D01*
X009471Y008030D01*
X009471Y007835D01*
X009481Y007800D01*
X009499Y007769D01*
X009524Y007743D01*
X009549Y007729D01*
X009487Y007667D01*
X009487Y007562D01*
X008511Y007562D01*
X008511Y007687D01*
X008439Y007759D01*
X008196Y007759D01*
X008196Y008007D01*
X008439Y008007D01*
X008511Y008078D01*
X008511Y008573D01*
X008439Y008644D01*
X007905Y008644D01*
X007843Y008583D01*
X007830Y008607D01*
X007804Y008633D01*
X007772Y008651D01*
X007737Y008660D01*
X007542Y008660D01*
X007542Y008365D01*
X007463Y008365D01*
X007463Y008286D01*
X007148Y008286D01*
X007148Y008111D01*
X007153Y008093D01*
X007082Y008093D01*
X006987Y007999D01*
X006097Y007109D01*
X005555Y007109D01*
X005513Y007151D01*
X005425Y007188D01*
X005329Y007188D01*
X005241Y007151D01*
X005173Y007084D01*
X005144Y007014D01*
X005144Y007078D01*
X006030Y007963D01*
X006030Y010129D01*
X006251Y010349D01*
X006310Y010349D01*
X006399Y010386D01*
X006466Y010453D01*
X006503Y010542D01*
X006503Y010637D01*
X006466Y010725D01*
X006424Y010768D01*
X006424Y011676D01*
X007499Y010601D01*
X007499Y010542D01*
X007535Y010453D01*
X007603Y010386D01*
X007691Y010349D01*
X007787Y010349D01*
X007875Y010386D01*
X007943Y010453D01*
X007979Y010542D01*
X007979Y010637D01*
X007943Y010725D01*
X007875Y010793D01*
X007787Y010830D01*
X007727Y010830D01*
X007046Y011511D01*
X007462Y011511D01*
X007505Y011468D01*
X007593Y011432D01*
X007688Y011432D01*
X007777Y011468D01*
X007844Y011536D01*
X007881Y011624D01*
X007881Y011720D01*
X007878Y011727D01*
X007885Y011727D01*
X007973Y011764D01*
X008034Y011825D01*
X008095Y011764D01*
X008183Y011727D01*
X008191Y011727D01*
X008188Y011720D01*
X008188Y011624D01*
X008224Y011536D01*
X008292Y011468D01*
X008380Y011432D01*
X008476Y011432D01*
X008564Y011468D01*
X008632Y011536D01*
X008668Y011624D01*
X008668Y011684D01*
X008688Y011704D01*
X008668Y011628D02*
X008759Y011628D01*
X008759Y011511D02*
X008607Y011511D01*
X008759Y011395D02*
X007162Y011395D01*
X007278Y011278D02*
X008759Y011278D01*
X008809Y011162D02*
X007395Y011162D01*
X007512Y011045D02*
X009546Y011045D01*
X009546Y010928D02*
X007628Y010928D01*
X007830Y010812D02*
X008422Y010812D01*
X008305Y010695D02*
X007955Y010695D01*
X007979Y010579D02*
X008189Y010579D01*
X008072Y010462D02*
X007946Y010462D01*
X007956Y010345D02*
X007522Y010345D01*
X007532Y010462D02*
X007406Y010462D01*
X007389Y010579D02*
X007499Y010579D01*
X007405Y010695D02*
X007365Y010695D01*
X007288Y010812D02*
X007239Y010812D01*
X007172Y010928D02*
X006424Y010928D01*
X006424Y010812D02*
X006664Y010812D01*
X006539Y010695D02*
X006479Y010695D01*
X006503Y010579D02*
X006515Y010579D01*
X006548Y010462D02*
X006470Y010462D01*
X006247Y010345D02*
X006771Y010345D01*
X006887Y010229D02*
X006130Y010229D01*
X006030Y010112D02*
X006244Y010112D01*
X006140Y009995D02*
X006030Y009995D01*
X006030Y009879D02*
X006121Y009879D01*
X006160Y009762D02*
X006030Y009762D01*
X006030Y009646D02*
X006436Y009646D01*
X006481Y009529D02*
X006030Y009529D01*
X006030Y009412D02*
X006422Y009412D01*
X006420Y009296D02*
X006030Y009296D01*
X006030Y009179D02*
X006715Y009179D01*
X006794Y009179D02*
X007426Y009179D01*
X007421Y009181D02*
X007467Y009162D01*
X007517Y009152D01*
X007542Y009152D01*
X007542Y009408D01*
X007542Y009408D01*
X007286Y009408D01*
X007286Y009383D01*
X007296Y009334D01*
X007315Y009287D01*
X007343Y009245D01*
X007379Y009209D01*
X007421Y009181D01*
X007542Y009179D02*
X007542Y009179D01*
X007542Y009152D02*
X007567Y009152D01*
X007617Y009162D01*
X007663Y009181D01*
X007705Y009209D01*
X007741Y009245D01*
X007769Y009287D01*
X007788Y009334D01*
X007798Y009383D01*
X007798Y009408D01*
X007542Y009408D01*
X007542Y009408D01*
X007542Y009152D01*
X007658Y009179D02*
X008034Y009179D01*
X008032Y009178D02*
X008004Y009136D01*
X007985Y009089D01*
X007975Y009040D01*
X007975Y009015D01*
X008231Y009015D01*
X008231Y009270D01*
X008206Y009270D01*
X008156Y009261D01*
X008110Y009241D01*
X008068Y009213D01*
X008032Y009178D01*
X007980Y009063D02*
X007089Y009063D01*
X007089Y009133D02*
X006794Y009133D01*
X006794Y008818D01*
X006970Y008818D01*
X007005Y008827D01*
X007036Y008845D01*
X007062Y008871D01*
X007080Y008902D01*
X007089Y008937D01*
X007089Y009133D01*
X007089Y009296D02*
X007312Y009296D01*
X007286Y009408D02*
X007542Y009408D01*
X007542Y009408D01*
X007542Y009664D01*
X007517Y009664D01*
X007467Y009654D01*
X007421Y009635D01*
X007379Y009607D01*
X007343Y009571D01*
X007315Y009529D01*
X007028Y009529D01*
X007074Y009646D02*
X007446Y009646D01*
X007542Y009646D02*
X007542Y009646D01*
X007542Y009664D02*
X007567Y009664D01*
X007617Y009654D01*
X007663Y009635D01*
X007705Y009607D01*
X007741Y009571D01*
X007769Y009529D01*
X008142Y009529D01*
X008131Y009540D02*
X008166Y009505D01*
X008208Y009477D01*
X008255Y009457D01*
X008304Y009448D01*
X008330Y009448D01*
X008355Y009448D01*
X008404Y009457D01*
X008451Y009477D01*
X008493Y009505D01*
X008528Y009540D01*
X008556Y009582D01*
X008576Y009629D01*
X008585Y009678D01*
X008585Y009704D01*
X008330Y009704D01*
X008330Y009448D01*
X008330Y009704D01*
X008330Y009704D01*
X008330Y009704D01*
X008074Y009704D01*
X008074Y009678D01*
X008083Y009629D01*
X008103Y009582D01*
X008131Y009540D01*
X008080Y009646D02*
X007638Y009646D01*
X007542Y009664D02*
X007542Y009408D01*
X007542Y009408D01*
X007798Y009408D01*
X007798Y009433D01*
X007788Y009483D01*
X007769Y009529D01*
X007798Y009412D02*
X009487Y009412D01*
X009487Y009529D02*
X008517Y009529D01*
X008579Y009646D02*
X009487Y009646D01*
X009487Y009762D02*
X008579Y009762D01*
X008516Y009879D02*
X009487Y009879D01*
X009644Y009995D02*
X008358Y009995D01*
X008330Y009879D02*
X008330Y009879D01*
X008330Y009762D02*
X008330Y009762D01*
X008330Y009646D02*
X008330Y009646D01*
X008330Y009529D02*
X008330Y009529D01*
X008256Y009270D02*
X008231Y009270D01*
X008231Y009015D01*
X008231Y009015D01*
X008231Y009015D01*
X008487Y009015D01*
X008487Y009040D01*
X008477Y009089D01*
X008458Y009136D01*
X008430Y009178D01*
X008394Y009213D01*
X008352Y009241D01*
X008306Y009261D01*
X008256Y009270D01*
X008231Y009179D02*
X008231Y009179D01*
X008231Y009063D02*
X008231Y009063D01*
X008231Y009015D02*
X008231Y009015D01*
X007975Y009015D01*
X007975Y008989D01*
X007985Y008940D01*
X008004Y008893D01*
X008032Y008851D01*
X008068Y008816D01*
X008110Y008788D01*
X008156Y008768D01*
X008206Y008759D01*
X008231Y008759D01*
X008231Y009015D01*
X008487Y009015D01*
X008487Y008989D01*
X008477Y008940D01*
X008458Y008893D01*
X008430Y008851D01*
X008394Y008816D01*
X008352Y008788D01*
X008306Y008768D01*
X008256Y008759D01*
X008231Y008759D01*
X008231Y009015D01*
X008231Y009015D01*
X008231Y008946D02*
X008231Y008946D01*
X008231Y008829D02*
X008231Y008829D01*
X008054Y008829D02*
X007009Y008829D01*
X007089Y008946D02*
X007984Y008946D01*
X007857Y008596D02*
X007836Y008596D01*
X007542Y008596D02*
X007463Y008596D01*
X007463Y008660D02*
X007268Y008660D01*
X007233Y008651D01*
X007202Y008633D01*
X007176Y008607D01*
X007158Y008576D01*
X007148Y008541D01*
X007148Y008365D01*
X007463Y008365D01*
X007463Y008660D01*
X007463Y008480D02*
X007542Y008480D01*
X007463Y008363D02*
X006677Y008363D01*
X006686Y008348D02*
X006658Y008390D01*
X006623Y008426D01*
X006581Y008454D01*
X006534Y008473D01*
X006485Y008483D01*
X006459Y008483D01*
X006434Y008483D01*
X006385Y008473D01*
X006338Y008454D01*
X006296Y008426D01*
X006261Y008390D01*
X006233Y008348D01*
X006213Y008302D01*
X006204Y008252D01*
X006204Y008227D01*
X006204Y008202D01*
X006213Y008153D01*
X006233Y008106D01*
X006261Y008064D01*
X006296Y008028D01*
X006338Y008000D01*
X006385Y007981D01*
X006434Y007971D01*
X006459Y007971D01*
X006459Y008227D01*
X006204Y008227D01*
X006459Y008227D01*
X006459Y008227D01*
X006459Y008227D01*
X006459Y008483D01*
X006459Y008227D01*
X006459Y008227D01*
X006459Y007971D01*
X006485Y007971D01*
X006534Y007981D01*
X006581Y008000D01*
X006623Y008028D01*
X006658Y008064D01*
X006686Y008106D01*
X006706Y008153D01*
X006715Y008202D01*
X006715Y008227D01*
X006459Y008227D01*
X006459Y008227D01*
X006715Y008227D01*
X006715Y008252D01*
X006706Y008302D01*
X006686Y008348D01*
X006715Y008246D02*
X007148Y008246D01*
X007148Y008130D02*
X006696Y008130D01*
X006600Y008013D02*
X007001Y008013D01*
X006885Y007896D02*
X005963Y007896D01*
X006030Y008013D02*
X006319Y008013D01*
X006459Y008013D02*
X006459Y008013D01*
X006459Y008130D02*
X006459Y008130D01*
X006459Y008246D02*
X006459Y008246D01*
X006459Y008363D02*
X006459Y008363D01*
X006459Y008480D02*
X006459Y008480D01*
X006416Y008480D02*
X006030Y008480D01*
X006030Y008596D02*
X007170Y008596D01*
X007148Y008480D02*
X006503Y008480D01*
X006242Y008363D02*
X006030Y008363D01*
X006030Y008246D02*
X006204Y008246D01*
X006223Y008130D02*
X006030Y008130D01*
X005847Y007780D02*
X006768Y007780D01*
X006651Y007663D02*
X005730Y007663D01*
X005613Y007547D02*
X006535Y007547D01*
X006418Y007430D02*
X005497Y007430D01*
X005380Y007313D02*
X006302Y007313D01*
X006185Y007197D02*
X005264Y007197D01*
X005172Y007080D02*
X005147Y007080D01*
X004924Y007313D02*
X004230Y007313D01*
X004239Y007291D02*
X004202Y007379D01*
X004135Y007447D01*
X004081Y007469D01*
X004081Y007515D01*
X004128Y007515D01*
X004190Y007576D01*
X004204Y007552D01*
X004229Y007526D01*
X004261Y007508D01*
X004296Y007499D01*
X004491Y007499D01*
X004491Y007794D01*
X004570Y007794D01*
X004570Y007873D01*
X004885Y007873D01*
X004885Y008048D01*
X004875Y008084D01*
X004857Y008115D01*
X004831Y008141D01*
X004800Y008159D01*
X004765Y008168D01*
X004570Y008168D01*
X004570Y007873D01*
X004491Y007873D01*
X004491Y008168D01*
X004296Y008168D01*
X004261Y008159D01*
X004229Y008141D01*
X004204Y008115D01*
X004190Y008091D01*
X004128Y008152D01*
X004042Y008152D01*
X004042Y008566D01*
X004527Y009050D01*
X004856Y009050D01*
X004928Y009121D01*
X004928Y009616D01*
X004856Y009688D01*
X004322Y009688D01*
X004251Y009616D01*
X004251Y009286D01*
X003680Y008716D01*
X003680Y008152D01*
X003594Y008152D01*
X003522Y008081D01*
X003522Y007586D01*
X003594Y007515D01*
X003719Y007515D01*
X003719Y007266D01*
X003759Y007227D01*
X003759Y007195D01*
X003795Y007107D01*
X003863Y007039D01*
X003951Y007003D01*
X004047Y007003D01*
X004135Y007039D01*
X004202Y007107D01*
X004239Y007195D01*
X004239Y007291D01*
X004239Y007197D02*
X004284Y007197D01*
X004292Y007209D02*
X004264Y007167D01*
X004245Y007121D01*
X004235Y007071D01*
X004235Y007046D01*
X004491Y007046D01*
X004491Y007046D01*
X004491Y007046D01*
X004491Y007302D01*
X004466Y007302D01*
X004416Y007292D01*
X004370Y007273D01*
X004328Y007245D01*
X004292Y007209D01*
X004237Y007080D02*
X004176Y007080D01*
X004248Y006964D02*
X002192Y006964D01*
X002102Y006847D02*
X002365Y006847D01*
X002326Y006730D02*
X002178Y006730D01*
X002216Y006614D02*
X002326Y006614D01*
X002326Y006515D02*
X002326Y006339D01*
X002335Y006304D01*
X002353Y006272D01*
X002379Y006247D01*
X002410Y006229D01*
X002445Y006219D01*
X002641Y006219D01*
X002641Y006515D01*
X002326Y006515D01*
X002326Y006497D02*
X002216Y006497D01*
X002182Y006381D02*
X002326Y006381D01*
X002362Y006264D02*
X002113Y006264D01*
X001957Y006147D02*
X004653Y006147D01*
X004692Y006031D02*
X000833Y006031D01*
X000833Y006147D02*
X001143Y006147D01*
X001238Y005992D02*
X001076Y005925D01*
X000951Y005800D01*
X000884Y005638D01*
X000884Y005462D01*
X000951Y005300D01*
X001076Y005175D01*
X001238Y005108D01*
X001862Y005108D01*
X002024Y005175D01*
X002149Y005300D01*
X002216Y005462D01*
X002216Y005638D01*
X002149Y005800D01*
X002024Y005925D01*
X001862Y005992D01*
X001238Y005992D01*
X001065Y005914D02*
X000833Y005914D01*
X000833Y005797D02*
X000950Y005797D01*
X000902Y005681D02*
X000833Y005681D01*
X000833Y005564D02*
X000884Y005564D01*
X000890Y005448D02*
X000833Y005448D01*
X000833Y005331D02*
X000938Y005331D01*
X001036Y005214D02*
X000833Y005214D01*
X000833Y005098D02*
X004841Y005098D01*
X004841Y005214D02*
X002064Y005214D01*
X002162Y005331D02*
X002332Y005331D01*
X002335Y005320D02*
X002353Y005288D01*
X002379Y005263D01*
X002410Y005244D01*
X002445Y005235D01*
X002641Y005235D01*
X002641Y005530D01*
X002326Y005530D01*
X002326Y005355D01*
X002335Y005320D01*
X002326Y005448D02*
X002210Y005448D01*
X002216Y005564D02*
X002641Y005564D01*
X002641Y005448D02*
X002719Y005448D01*
X002719Y005331D02*
X002641Y005331D01*
X002641Y005681D02*
X002719Y005681D01*
X002719Y005797D02*
X002641Y005797D01*
X002329Y005797D02*
X002150Y005797D01*
X002198Y005681D02*
X002326Y005681D01*
X002035Y005914D02*
X004723Y005914D01*
X004687Y005797D02*
X004672Y005797D01*
X004911Y005564D02*
X005455Y005564D01*
X005519Y005448D02*
X005577Y005448D01*
X005605Y005436D02*
X005605Y005436D01*
X005511Y004865D02*
X005447Y004865D01*
X005501Y004282D02*
X005511Y004282D01*
X005417Y004165D02*
X004918Y004165D01*
X004928Y004048D02*
X005300Y004048D01*
X005184Y003932D02*
X004866Y003932D01*
X005067Y003815D02*
X004436Y003815D01*
X004294Y004093D02*
X004688Y004093D01*
X004839Y004282D02*
X004858Y004282D01*
X004536Y004282D02*
X004436Y004282D01*
X004535Y004398D02*
X003659Y004398D01*
X003759Y004282D02*
X002131Y004282D01*
X002149Y004300D02*
X002216Y004462D01*
X002216Y004638D01*
X002149Y004800D01*
X002024Y004925D01*
X001862Y004992D01*
X001238Y004992D01*
X001076Y004925D01*
X000951Y004800D01*
X000884Y004638D01*
X000884Y004462D01*
X000951Y004300D01*
X001076Y004175D01*
X001238Y004108D01*
X001862Y004108D01*
X002024Y004175D01*
X002149Y004300D01*
X002190Y004398D02*
X003354Y004398D01*
X003276Y004515D02*
X002216Y004515D01*
X002216Y004631D02*
X003267Y004631D01*
X003330Y004748D02*
X002170Y004748D01*
X002085Y004865D02*
X004912Y004865D01*
X004841Y004981D02*
X001888Y004981D01*
X001212Y004981D02*
X000833Y004981D01*
X000833Y004865D02*
X001015Y004865D01*
X000930Y004748D02*
X000833Y004748D01*
X000833Y004631D02*
X000884Y004631D01*
X000884Y004515D02*
X000833Y004515D01*
X000833Y004398D02*
X000910Y004398D01*
X000969Y004282D02*
X000833Y004282D01*
X000833Y004165D02*
X001101Y004165D01*
X001238Y003992D02*
X001076Y003925D01*
X000951Y003800D01*
X000884Y003638D01*
X000884Y003462D01*
X000951Y003300D01*
X001076Y003175D01*
X001238Y003108D01*
X001862Y003108D01*
X002024Y003175D01*
X002149Y003300D01*
X002216Y003462D01*
X002216Y003638D01*
X002149Y003800D01*
X002024Y003925D01*
X001862Y003992D01*
X001238Y003992D01*
X001092Y003932D02*
X000833Y003932D01*
X000833Y004048D02*
X002418Y004048D01*
X002341Y003932D02*
X002008Y003932D01*
X002134Y003815D02*
X002341Y003815D01*
X002341Y003698D02*
X002191Y003698D01*
X002216Y003582D02*
X002341Y003582D01*
X002341Y003465D02*
X002216Y003465D01*
X002169Y003349D02*
X002341Y003349D01*
X002341Y003232D02*
X002081Y003232D01*
X001880Y003115D02*
X002341Y003115D01*
X002341Y002999D02*
X000833Y002999D01*
X000833Y003115D02*
X001220Y003115D01*
X001019Y003232D02*
X000833Y003232D01*
X000833Y003349D02*
X000931Y003349D01*
X000884Y003465D02*
X000833Y003465D01*
X000833Y003582D02*
X000884Y003582D01*
X000909Y003698D02*
X000833Y003698D01*
X000833Y003815D02*
X000966Y003815D01*
X001033Y002882D02*
X000833Y002882D01*
X000833Y002766D02*
X000937Y002766D01*
X000889Y002649D02*
X000833Y002649D01*
X000833Y002532D02*
X000884Y002532D01*
X000903Y002416D02*
X000833Y002416D01*
X000833Y002299D02*
X000952Y002299D01*
X001068Y002183D02*
X000833Y002183D01*
X000833Y002066D02*
X001814Y002066D01*
X002093Y001833D02*
X002108Y001833D01*
X002108Y001716D02*
X001992Y001716D01*
X001992Y001599D02*
X002108Y001599D01*
X002108Y001483D02*
X001992Y001483D01*
X001991Y001366D02*
X002108Y001366D01*
X002108Y001250D02*
X001875Y001250D01*
X001758Y001133D02*
X002151Y001133D01*
X002234Y001016D02*
X000515Y001016D01*
X000515Y000900D02*
X002424Y000900D01*
X002676Y000900D02*
X003424Y000900D01*
X003462Y000884D02*
X003638Y000884D01*
X003800Y000951D01*
X003925Y001076D01*
X003992Y001238D01*
X003992Y001862D01*
X003925Y002024D01*
X003800Y002149D01*
X003638Y002216D01*
X003462Y002216D01*
X003300Y002149D01*
X003175Y002024D01*
X003108Y001862D01*
X003108Y001238D01*
X003175Y001076D01*
X003300Y000951D01*
X003462Y000884D01*
X003676Y000900D02*
X004424Y000900D01*
X004462Y000884D02*
X004638Y000884D01*
X004800Y000951D01*
X004925Y001076D01*
X004992Y001238D01*
X004992Y001862D01*
X004925Y002024D01*
X004800Y002149D01*
X004638Y002216D01*
X004462Y002216D01*
X004300Y002149D01*
X004175Y002024D01*
X004108Y001862D01*
X004108Y001238D01*
X004175Y001076D01*
X004300Y000951D01*
X004462Y000884D01*
X004676Y000900D02*
X005424Y000900D01*
X005462Y000884D02*
X005300Y000951D01*
X005175Y001076D01*
X005108Y001238D01*
X005108Y001862D01*
X005175Y002024D01*
X005300Y002149D01*
X005462Y002216D01*
X005638Y002216D01*
X005800Y002149D01*
X005925Y002024D01*
X005992Y001862D01*
X005992Y001238D01*
X005925Y001076D01*
X005800Y000951D01*
X005638Y000884D01*
X005462Y000884D01*
X005676Y000900D02*
X006424Y000900D01*
X006462Y000884D02*
X006300Y000951D01*
X006175Y001076D01*
X006108Y001238D01*
X006108Y001862D01*
X006175Y002024D01*
X006300Y002149D01*
X006462Y002216D01*
X006638Y002216D01*
X006800Y002149D01*
X006925Y002024D01*
X006992Y001862D01*
X006992Y001238D01*
X006925Y001076D01*
X006800Y000951D01*
X006638Y000884D01*
X006462Y000884D01*
X006676Y000900D02*
X007424Y000900D01*
X007462Y000884D02*
X007638Y000884D01*
X007800Y000951D01*
X007925Y001076D01*
X007992Y001238D01*
X007992Y001862D01*
X007925Y002024D01*
X007800Y002149D01*
X007638Y002216D01*
X007462Y002216D01*
X007300Y002149D01*
X007175Y002024D01*
X007108Y001862D01*
X007108Y001238D01*
X007175Y001076D01*
X007300Y000951D01*
X007462Y000884D01*
X007234Y001016D02*
X006866Y001016D01*
X006949Y001133D02*
X007151Y001133D01*
X007108Y001250D02*
X006992Y001250D01*
X006992Y001366D02*
X007108Y001366D01*
X007108Y001483D02*
X006992Y001483D01*
X006992Y001599D02*
X007108Y001599D01*
X007108Y001716D02*
X006992Y001716D01*
X006992Y001833D02*
X007108Y001833D01*
X007144Y001949D02*
X006956Y001949D01*
X006883Y002066D02*
X007217Y002066D01*
X007381Y002183D02*
X006719Y002183D01*
X006715Y002416D02*
X006598Y002416D01*
X006321Y002416D02*
X005640Y002416D01*
X005578Y002353D02*
X005578Y002353D01*
X005523Y002299D02*
X010153Y002299D01*
X010092Y002360D02*
X010360Y002092D01*
X010509Y002092D01*
X010509Y002509D01*
X010092Y002509D01*
X010092Y002360D01*
X010092Y002416D02*
X006992Y002416D01*
X007078Y002532D02*
X010509Y002532D01*
X010509Y002509D02*
X010509Y002591D01*
X010092Y002591D01*
X010092Y002740D01*
X010360Y003008D01*
X010509Y003008D01*
X010509Y002591D01*
X010591Y002591D01*
X010591Y003008D01*
X010740Y003008D01*
X011008Y002740D01*
X011008Y002591D01*
X010591Y002591D01*
X010591Y002509D01*
X011008Y002509D01*
X011008Y002360D01*
X010740Y002092D01*
X010591Y002092D01*
X010591Y002509D01*
X010509Y002509D01*
X010591Y002532D02*
X011108Y002532D01*
X011108Y002416D02*
X011008Y002416D01*
X010947Y002299D02*
X011176Y002299D01*
X011292Y002183D02*
X010830Y002183D01*
X010740Y002008D02*
X010591Y002008D01*
X010591Y001591D01*
X010509Y001591D01*
X010509Y001509D01*
X010092Y001509D01*
X010092Y001360D01*
X010360Y001092D01*
X010509Y001092D01*
X010509Y001509D01*
X010591Y001509D01*
X010591Y001591D01*
X011008Y001591D01*
X011008Y001740D01*
X010740Y002008D01*
X010798Y001949D02*
X011324Y001949D01*
X011369Y002066D02*
X009883Y002066D01*
X009925Y002024D02*
X009800Y002149D01*
X009638Y002216D01*
X009462Y002216D01*
X009300Y002149D01*
X009175Y002024D01*
X009108Y001862D01*
X009108Y001238D01*
X009175Y001076D01*
X009300Y000951D01*
X009462Y000884D01*
X009638Y000884D01*
X009800Y000951D01*
X009925Y001076D01*
X009992Y001238D01*
X009992Y001862D01*
X009925Y002024D01*
X009956Y001949D02*
X010302Y001949D01*
X010360Y002008D02*
X010092Y001740D01*
X010092Y001591D01*
X010509Y001591D01*
X010509Y002008D01*
X010360Y002008D01*
X010509Y001949D02*
X010591Y001949D01*
X010591Y001833D02*
X010509Y001833D01*
X010509Y001716D02*
X010591Y001716D01*
X010591Y001599D02*
X010509Y001599D01*
X010509Y001483D02*
X010591Y001483D01*
X010591Y001509D02*
X010591Y001092D01*
X010740Y001092D01*
X011008Y001360D01*
X011008Y001509D01*
X010591Y001509D01*
X010591Y001366D02*
X010509Y001366D01*
X010509Y001250D02*
X010591Y001250D01*
X010591Y001133D02*
X010509Y001133D01*
X010320Y001133D02*
X009949Y001133D01*
X009992Y001250D02*
X010203Y001250D01*
X010092Y001366D02*
X009992Y001366D01*
X009992Y001483D02*
X010092Y001483D01*
X010092Y001599D02*
X009992Y001599D01*
X009992Y001716D02*
X010092Y001716D01*
X010185Y001833D02*
X009992Y001833D01*
X009719Y002183D02*
X010270Y002183D01*
X010509Y002183D02*
X010591Y002183D01*
X010591Y002299D02*
X010509Y002299D01*
X010509Y002416D02*
X010591Y002416D01*
X010591Y002649D02*
X010509Y002649D01*
X010509Y002766D02*
X010591Y002766D01*
X010591Y002882D02*
X010509Y002882D01*
X010509Y002999D02*
X010591Y002999D01*
X010591Y003092D02*
X010740Y003092D01*
X011008Y003360D01*
X011008Y003509D01*
X010591Y003509D01*
X010591Y003591D01*
X010509Y003591D01*
X010509Y003509D01*
X010092Y003509D01*
X010092Y003360D01*
X010360Y003092D01*
X010509Y003092D01*
X010509Y003509D01*
X010591Y003509D01*
X010591Y003092D01*
X010591Y003115D02*
X010509Y003115D01*
X010509Y003232D02*
X010591Y003232D01*
X010591Y003349D02*
X010509Y003349D01*
X010509Y003465D02*
X010591Y003465D01*
X010591Y003582D02*
X011108Y003582D01*
X011008Y003591D02*
X011008Y003740D01*
X010740Y004008D01*
X010591Y004008D01*
X010591Y003591D01*
X011008Y003591D01*
X011008Y003698D02*
X011108Y003698D01*
X011190Y003815D02*
X010932Y003815D01*
X010816Y003932D02*
X011307Y003932D01*
X011369Y004048D02*
X009914Y004048D01*
X009924Y003932D02*
X010284Y003932D01*
X010360Y004008D02*
X010092Y003740D01*
X010092Y003591D01*
X010509Y003591D01*
X010509Y004008D01*
X010360Y004008D01*
X010360Y004092D02*
X010092Y004360D01*
X010092Y004509D01*
X010509Y004509D01*
X010509Y004591D01*
X010092Y004591D01*
X010092Y004740D01*
X010360Y005008D01*
X010509Y005008D01*
X010509Y004591D01*
X010591Y004591D01*
X010591Y005008D01*
X010740Y005008D01*
X011008Y004740D01*
X011008Y004591D01*
X010591Y004591D01*
X010591Y004509D01*
X011008Y004509D01*
X011008Y004360D01*
X010740Y004092D01*
X010591Y004092D01*
X010591Y004509D01*
X010509Y004509D01*
X010509Y004092D01*
X010360Y004092D01*
X010288Y004165D02*
X009948Y004165D01*
X009948Y004282D02*
X010171Y004282D01*
X010092Y004398D02*
X009948Y004398D01*
X009948Y004515D02*
X010509Y004515D01*
X010591Y004515D02*
X011108Y004515D01*
X011108Y004631D02*
X011008Y004631D01*
X010999Y004748D02*
X011123Y004748D01*
X011239Y004865D02*
X010883Y004865D01*
X010766Y004981D02*
X011356Y004981D01*
X011744Y004981D02*
X012356Y004981D01*
X013162Y005331D02*
X013168Y005331D01*
X013530Y005331D02*
X013585Y005331D01*
X013585Y005214D02*
X013530Y005214D01*
X013530Y005098D02*
X013585Y005098D01*
X013585Y004981D02*
X013530Y004981D01*
X013530Y004865D02*
X013585Y004865D01*
X013585Y004748D02*
X013530Y004748D01*
X013530Y004631D02*
X013585Y004631D01*
X013585Y004515D02*
X013530Y004515D01*
X013530Y004398D02*
X013585Y004398D01*
X013585Y004282D02*
X013530Y004282D01*
X013530Y004165D02*
X013585Y004165D01*
X013585Y004048D02*
X013530Y004048D01*
X013530Y003932D02*
X013585Y003932D01*
X013585Y003815D02*
X013530Y003815D01*
X013530Y003698D02*
X013585Y003698D01*
X013585Y003582D02*
X013530Y003582D01*
X013530Y003465D02*
X013585Y003465D01*
X013585Y003349D02*
X013530Y003349D01*
X013530Y003232D02*
X013585Y003232D01*
X013585Y003115D02*
X013530Y003115D01*
X013530Y002999D02*
X013585Y002999D01*
X013585Y002882D02*
X013530Y002882D01*
X013530Y002766D02*
X013585Y002766D01*
X013585Y002649D02*
X013530Y002649D01*
X013530Y002532D02*
X013585Y002532D01*
X013585Y002416D02*
X013530Y002416D01*
X013530Y002299D02*
X013585Y002299D01*
X013585Y002183D02*
X013530Y002183D01*
X013530Y002066D02*
X013585Y002066D01*
X013585Y001949D02*
X013530Y001949D01*
X013530Y001833D02*
X013585Y001833D01*
X013585Y001716D02*
X013530Y001716D01*
X013530Y001599D02*
X013585Y001599D01*
X013585Y001483D02*
X013530Y001483D01*
X013530Y001366D02*
X013585Y001366D01*
X013585Y001250D02*
X013518Y001250D01*
X013585Y001133D02*
X013401Y001133D01*
X013284Y001016D02*
X013585Y001016D01*
X013585Y000900D02*
X013168Y000900D01*
X013051Y000783D02*
X013585Y000783D01*
X013005Y001250D02*
X012875Y001250D01*
X012889Y001133D02*
X012758Y001133D01*
X012991Y001366D02*
X013122Y001366D01*
X013168Y001483D02*
X012992Y001483D01*
X012992Y001599D02*
X013168Y001599D01*
X013168Y001716D02*
X012992Y001716D01*
X012892Y001833D02*
X013168Y001833D01*
X013168Y001949D02*
X012776Y001949D01*
X012324Y001949D02*
X011776Y001949D01*
X011892Y001833D02*
X012208Y001833D01*
X012108Y001716D02*
X011992Y001716D01*
X011992Y001599D02*
X012108Y001599D01*
X012108Y001483D02*
X011992Y001483D01*
X011991Y001366D02*
X012109Y001366D01*
X012106Y001250D02*
X012225Y001250D01*
X012223Y001133D02*
X012342Y001133D01*
X012061Y000783D02*
X000515Y000783D01*
X000515Y001133D02*
X001342Y001133D01*
X001225Y001250D02*
X000515Y001250D01*
X000515Y001366D02*
X001109Y001366D01*
X001030Y001550D02*
X000652Y001928D01*
X000652Y015019D01*
X001144Y015511D01*
X001511Y015511D01*
X001550Y015550D02*
X002365Y015550D01*
X002719Y015865D01*
X004491Y015865D01*
X004636Y016059D02*
X005645Y016059D01*
X005936Y016059D02*
X007833Y016059D01*
X007833Y015943D02*
X007228Y015943D01*
X007334Y015826D02*
X007833Y015826D01*
X007833Y015709D02*
X007442Y015709D01*
X007551Y015593D02*
X007833Y015593D01*
X007833Y015476D02*
X007659Y015476D01*
X007768Y015360D02*
X007869Y015360D01*
X007876Y015243D02*
X009817Y015243D01*
X009920Y015126D02*
X009561Y015126D01*
X009677Y015010D02*
X009920Y015010D01*
X009920Y014893D02*
X009794Y014893D01*
X009910Y014776D02*
X009920Y014776D01*
X010282Y014776D02*
X010353Y014776D01*
X010353Y014660D02*
X010282Y014660D01*
X010282Y014543D02*
X010353Y014543D01*
X010353Y014427D02*
X010282Y014427D01*
X010282Y014310D02*
X010353Y014310D01*
X010101Y014231D02*
X010515Y013837D01*
X010692Y013345D01*
X010467Y013261D02*
X009298Y013261D01*
X009306Y013377D02*
X010452Y013377D01*
X010357Y013144D02*
X009845Y013144D01*
X009889Y013027D02*
X010314Y013027D01*
X010314Y012911D02*
X009889Y012911D01*
X009889Y012794D02*
X010314Y012794D01*
X010298Y012677D02*
X009298Y012677D01*
X009298Y012561D02*
X010298Y012561D01*
X010298Y012444D02*
X009298Y012444D01*
X009137Y012932D02*
X009550Y012932D01*
X009423Y013494D02*
X010137Y013494D01*
X010137Y013610D02*
X009540Y013610D01*
X009853Y013727D02*
X010137Y013727D01*
X010137Y013844D02*
X009970Y013844D01*
X009987Y013960D02*
X010123Y013960D01*
X009999Y014077D02*
X009987Y014077D01*
X010101Y014231D02*
X010101Y015215D01*
X009707Y015609D01*
X009078Y015609D01*
X008719Y015593D02*
X008550Y015593D01*
X008550Y015709D02*
X008719Y015709D01*
X008748Y015826D02*
X008550Y015826D01*
X008550Y015943D02*
X011062Y015943D01*
X011062Y016059D02*
X008550Y016059D01*
X008550Y015476D02*
X008719Y015476D01*
X008780Y015360D02*
X008515Y015360D01*
X008601Y014776D02*
X007028Y014776D01*
X007145Y014660D02*
X008601Y014660D01*
X008601Y014543D02*
X007261Y014543D01*
X007378Y014427D02*
X008601Y014427D01*
X008601Y014310D02*
X008317Y014310D01*
X008331Y014296D02*
X008296Y014331D01*
X008254Y014359D01*
X008207Y014379D01*
X008158Y014389D01*
X008133Y014389D01*
X008133Y014133D01*
X008389Y014133D01*
X008389Y014158D01*
X008379Y014207D01*
X008359Y014254D01*
X008331Y014296D01*
X008382Y014193D02*
X008706Y014193D01*
X008389Y014133D02*
X008133Y014133D01*
X008133Y014133D01*
X008133Y014133D01*
X008133Y014389D01*
X008107Y014389D01*
X008058Y014379D01*
X008011Y014359D01*
X007970Y014331D01*
X007934Y014296D01*
X007906Y014254D01*
X007887Y014207D01*
X007877Y014158D01*
X007877Y014133D01*
X008133Y014133D01*
X008133Y013877D01*
X008158Y013877D01*
X008207Y013887D01*
X008254Y013906D01*
X008296Y013934D01*
X008331Y013970D01*
X008359Y014011D01*
X008379Y014058D01*
X008389Y014107D01*
X008389Y014133D01*
X008382Y014077D02*
X009226Y014077D01*
X009276Y014193D02*
X009154Y014193D01*
X009259Y014310D02*
X009348Y014310D01*
X009259Y014427D02*
X009625Y014427D01*
X009625Y014543D02*
X009259Y014543D01*
X009259Y014660D02*
X009515Y014660D01*
X009398Y014776D02*
X009259Y014776D01*
X009375Y015360D02*
X009701Y015360D01*
X009980Y015593D02*
X010176Y015593D01*
X010176Y015709D02*
X009863Y015709D01*
X010097Y015476D02*
X010176Y015476D01*
X010213Y015360D02*
X010237Y015360D01*
X010282Y015243D02*
X010627Y015243D01*
X010735Y015126D02*
X010282Y015126D01*
X010282Y015010D02*
X010844Y015010D01*
X010912Y014893D02*
X010952Y014893D01*
X011011Y014776D02*
X011071Y014776D01*
X011101Y014660D02*
X011011Y014660D01*
X011011Y014543D02*
X011101Y014543D01*
X011101Y014427D02*
X011011Y014427D01*
X011011Y014310D02*
X011101Y014310D01*
X011282Y014133D02*
X011263Y013837D01*
X011381Y013837D02*
X011479Y012893D01*
X011479Y012932D01*
X011085Y012932D01*
X011085Y012184D01*
X010652Y012184D01*
X010314Y012211D02*
X009889Y012211D01*
X009889Y012094D02*
X010314Y012094D01*
X010351Y011978D02*
X009851Y011978D01*
X009889Y012328D02*
X010314Y012328D01*
X010652Y012932D02*
X011085Y012932D01*
X011623Y013261D02*
X011990Y013261D01*
X011919Y013377D02*
X011611Y013377D01*
X011641Y013494D02*
X011884Y013494D01*
X011884Y013610D02*
X011641Y013610D01*
X011641Y013727D02*
X011921Y013727D01*
X011994Y013844D02*
X011641Y013844D01*
X011641Y013960D02*
X012161Y013960D01*
X012219Y014103D02*
X012290Y014092D01*
X012509Y014092D01*
X012509Y014509D01*
X011869Y014509D01*
X011879Y014443D01*
X011902Y014374D01*
X011934Y014310D01*
X011977Y014252D01*
X012028Y014201D01*
X012086Y014158D01*
X012150Y014126D01*
X012219Y014103D01*
X012038Y014193D02*
X011630Y014193D01*
X011641Y014077D02*
X013168Y014077D01*
X013168Y014193D02*
X013062Y014193D01*
X013166Y014310D02*
X013168Y014310D01*
X013168Y014543D02*
X012591Y014543D01*
X012509Y014543D02*
X011463Y014543D01*
X011463Y014427D02*
X011885Y014427D01*
X011934Y014310D02*
X011463Y014310D01*
X011282Y014133D02*
X011282Y014822D01*
X011822Y014822D01*
X012550Y015550D01*
X012119Y015943D02*
X011778Y015943D01*
X011778Y016059D02*
X013585Y016059D01*
X012905Y015010D02*
X012266Y015010D01*
X012509Y014893D02*
X012591Y014893D01*
X012591Y014776D02*
X012509Y014776D01*
X012509Y014660D02*
X012591Y014660D01*
X012591Y014427D02*
X012509Y014427D01*
X012509Y014310D02*
X012591Y014310D01*
X012591Y014193D02*
X012509Y014193D01*
X012939Y013960D02*
X013168Y013960D01*
X013168Y013844D02*
X013106Y013844D01*
X013110Y013261D02*
X013168Y013261D01*
X013168Y013144D02*
X012949Y013144D01*
X013168Y013027D02*
X011798Y013027D01*
X011798Y012911D02*
X012062Y012911D01*
X011949Y012794D02*
X011798Y012794D01*
X011798Y012677D02*
X011900Y012677D01*
X011884Y012561D02*
X011742Y012561D01*
X011814Y012444D02*
X011891Y012444D01*
X011940Y012328D02*
X011814Y012328D01*
X011814Y012184D02*
X011519Y012184D01*
X011519Y011869D01*
X011694Y011869D01*
X011729Y011878D01*
X011761Y011896D01*
X011786Y011922D01*
X011804Y011954D01*
X011814Y011989D01*
X011814Y012184D01*
X011814Y012094D02*
X013168Y012094D01*
X013168Y011978D02*
X012896Y011978D01*
X013088Y011861D02*
X013168Y011861D01*
X013168Y012211D02*
X013060Y012211D01*
X013160Y012328D02*
X013168Y012328D01*
X013151Y012794D02*
X013168Y012794D01*
X013168Y012911D02*
X013038Y012911D01*
X012151Y013144D02*
X011798Y013144D01*
X012040Y012211D02*
X011519Y012211D01*
X011519Y012094D02*
X011440Y012094D01*
X011440Y011978D02*
X011519Y011978D01*
X011479Y011745D02*
X011558Y011745D01*
X011558Y011628D02*
X011479Y011628D01*
X011185Y011745D02*
X011166Y011745D01*
X011147Y011978D02*
X010954Y011978D01*
X011811Y011978D02*
X012204Y011978D01*
X011912Y011395D02*
X011873Y011395D01*
X011873Y011278D02*
X011973Y011278D01*
X012109Y011162D02*
X011808Y011162D01*
X011420Y010579D02*
X011341Y010579D01*
X011341Y010462D02*
X011420Y010462D01*
X011420Y010229D02*
X011341Y010229D01*
X011341Y010112D02*
X011420Y010112D01*
X011733Y010112D02*
X012228Y010112D01*
X012022Y010229D02*
X011735Y010229D01*
X011719Y009879D02*
X012030Y009879D01*
X011935Y009762D02*
X011719Y009762D01*
X011719Y009646D02*
X011887Y009646D01*
X011884Y009529D02*
X011719Y009529D01*
X011715Y009412D02*
X011905Y009412D01*
X011955Y009296D02*
X011426Y009296D01*
X011542Y009179D02*
X012072Y009179D01*
X012127Y008946D02*
X011834Y008946D01*
X011867Y008829D02*
X011980Y008829D01*
X011915Y008713D02*
X011843Y008713D01*
X011884Y008596D02*
X011719Y008596D01*
X011641Y008480D02*
X011884Y008480D01*
X011925Y008363D02*
X011641Y008363D01*
X011641Y008246D02*
X012005Y008246D01*
X012186Y008130D02*
X011641Y008130D01*
X011641Y008013D02*
X013168Y008013D01*
X013168Y007896D02*
X013053Y007896D01*
X013157Y007780D02*
X013168Y007780D01*
X013168Y008130D02*
X012914Y008130D01*
X013095Y008246D02*
X013168Y008246D01*
X013168Y008829D02*
X013120Y008829D01*
X013168Y008946D02*
X012973Y008946D01*
X013168Y009063D02*
X011542Y009063D01*
X010727Y008713D02*
X010133Y008713D01*
X010141Y008829D02*
X010649Y008829D01*
X010532Y008946D02*
X009845Y008946D01*
X009767Y008946D02*
X008478Y008946D01*
X008482Y009063D02*
X009471Y009063D01*
X009471Y009179D02*
X008428Y009179D01*
X008408Y008829D02*
X009471Y008829D01*
X009471Y008741D02*
X009481Y008705D01*
X009499Y008674D01*
X009524Y008648D01*
X009556Y008630D01*
X009591Y008621D01*
X009767Y008621D01*
X009767Y008936D01*
X009471Y008936D01*
X009471Y008741D01*
X009479Y008713D02*
X006030Y008713D01*
X006030Y008829D02*
X006501Y008829D01*
X006420Y008946D02*
X006030Y008946D01*
X006030Y009063D02*
X006420Y009063D01*
X006715Y009063D02*
X006794Y009063D01*
X006794Y008946D02*
X006715Y008946D01*
X006715Y008829D02*
X006794Y008829D01*
X007088Y009412D02*
X007286Y009412D01*
X007286Y009408D02*
X007286Y009433D01*
X007296Y009483D01*
X007315Y009529D01*
X007542Y009529D02*
X007542Y009529D01*
X007542Y009412D02*
X007542Y009412D01*
X007542Y009296D02*
X007542Y009296D01*
X007773Y009296D02*
X009518Y009296D01*
X009767Y008829D02*
X009845Y008829D01*
X009845Y008713D02*
X009767Y008713D01*
X009845Y008424D02*
X009845Y008109D01*
X010141Y008109D01*
X010141Y008304D01*
X010131Y008339D01*
X010113Y008371D01*
X010087Y008396D01*
X010056Y008415D01*
X010021Y008424D01*
X009845Y008424D01*
X009845Y008363D02*
X009767Y008363D01*
X009767Y008246D02*
X009845Y008246D01*
X009845Y008130D02*
X009767Y008130D01*
X009471Y008130D02*
X008511Y008130D01*
X008511Y008246D02*
X009471Y008246D01*
X009494Y008363D02*
X008511Y008363D01*
X008511Y008480D02*
X010727Y008480D01*
X010727Y008596D02*
X008488Y008596D01*
X008446Y008013D02*
X009471Y008013D01*
X009471Y007896D02*
X008196Y007896D01*
X008196Y007780D02*
X009492Y007780D01*
X009487Y007663D02*
X008511Y007663D01*
X008511Y007197D02*
X008861Y007197D01*
X008845Y007194D02*
X008799Y007174D01*
X008757Y007146D01*
X008721Y007111D01*
X008693Y007069D01*
X008674Y007022D01*
X008664Y006973D01*
X008664Y006948D01*
X008920Y006948D01*
X008920Y007204D01*
X008895Y007204D01*
X008845Y007194D01*
X008920Y007197D02*
X008920Y007197D01*
X008920Y007204D02*
X008945Y007204D01*
X008995Y007194D01*
X009041Y007174D01*
X009083Y007146D01*
X009119Y007111D01*
X009147Y007069D01*
X009166Y007022D01*
X009176Y006973D01*
X009176Y006948D01*
X008920Y006948D01*
X008920Y006948D01*
X008920Y007204D01*
X008979Y007197D02*
X009487Y007197D01*
X009540Y007080D02*
X009139Y007080D01*
X009176Y006964D02*
X010727Y006964D01*
X010727Y007080D02*
X010072Y007080D01*
X010125Y007197D02*
X010727Y007197D01*
X010727Y007313D02*
X010203Y007313D01*
X010427Y007430D02*
X010727Y007430D01*
X010727Y007547D02*
X010521Y007547D01*
X010538Y007663D02*
X010727Y007663D01*
X010727Y007780D02*
X010494Y007780D01*
X010727Y007896D02*
X010141Y007896D01*
X010141Y008013D02*
X010727Y008013D01*
X010727Y008130D02*
X010141Y008130D01*
X010141Y008246D02*
X010727Y008246D01*
X010727Y008363D02*
X010118Y008363D01*
X010141Y009063D02*
X010415Y009063D01*
X010299Y009179D02*
X010141Y009179D01*
X010231Y009247D02*
X010231Y009247D01*
X010182Y009296D02*
X010094Y009296D01*
X010125Y009412D02*
X010137Y009412D01*
X010125Y009529D02*
X010137Y009529D01*
X010125Y009646D02*
X010137Y009646D01*
X010125Y009762D02*
X010137Y009762D01*
X010125Y009879D02*
X010137Y009879D01*
X010137Y009995D02*
X010044Y009995D01*
X010130Y010112D02*
X010137Y010112D01*
X009664Y010229D02*
X008591Y010229D01*
X008474Y010112D02*
X009644Y010112D01*
X011000Y009879D02*
X011042Y009879D01*
X013028Y009179D02*
X013168Y009179D01*
X013168Y009296D02*
X013145Y009296D01*
X013165Y009762D02*
X013168Y009762D01*
X012047Y007896D02*
X011641Y007896D01*
X011641Y007780D02*
X011943Y007780D01*
X011894Y007663D02*
X011641Y007663D01*
X011641Y007547D02*
X011884Y007547D01*
X011897Y007430D02*
X011641Y007430D01*
X011641Y007313D02*
X011946Y007313D01*
X012054Y007197D02*
X011641Y007197D01*
X011641Y007080D02*
X013168Y007080D01*
X013168Y006964D02*
X012931Y006964D01*
X013102Y006847D02*
X013168Y006847D01*
X013168Y007197D02*
X013046Y007197D01*
X013154Y007313D02*
X013168Y007313D01*
X012169Y006964D02*
X011641Y006964D01*
X011641Y006847D02*
X011998Y006847D01*
X011922Y006730D02*
X011641Y006730D01*
X011641Y006614D02*
X011884Y006614D01*
X011884Y006497D02*
X011641Y006497D01*
X011641Y006381D02*
X011918Y006381D01*
X011987Y006264D02*
X011641Y006264D01*
X010727Y006264D02*
X008511Y006264D01*
X008511Y006381D02*
X010727Y006381D01*
X010727Y006497D02*
X008511Y006497D01*
X008511Y006614D02*
X010727Y006614D01*
X010727Y006730D02*
X009056Y006730D01*
X009041Y006721D02*
X009083Y006749D01*
X009119Y006785D01*
X009147Y006826D01*
X009166Y006873D01*
X009176Y006922D01*
X009176Y006948D01*
X008920Y006948D01*
X008920Y006948D01*
X008920Y006948D01*
X008664Y006948D01*
X008664Y006922D01*
X008674Y006873D01*
X008693Y006826D01*
X008721Y006785D01*
X008757Y006749D01*
X008799Y006721D01*
X008845Y006702D01*
X008895Y006692D01*
X008920Y006692D01*
X008920Y006948D01*
X008920Y006948D01*
X008920Y006692D01*
X008945Y006692D01*
X008995Y006702D01*
X009041Y006721D01*
X008920Y006730D02*
X008920Y006730D01*
X008920Y006847D02*
X008920Y006847D01*
X008920Y006964D02*
X008920Y006964D01*
X008920Y007080D02*
X008920Y007080D01*
X008701Y007080D02*
X008239Y007080D01*
X008274Y006964D02*
X008664Y006964D01*
X008685Y006847D02*
X008252Y006847D01*
X008483Y006730D02*
X008785Y006730D01*
X009155Y006847D02*
X010727Y006847D01*
X010727Y006147D02*
X008450Y006147D01*
X007894Y006147D02*
X007802Y006147D01*
X007542Y006147D02*
X007463Y006147D01*
X007463Y006264D02*
X007542Y006264D01*
X007542Y006381D02*
X007463Y006381D01*
X007148Y006381D02*
X006172Y006381D01*
X006056Y006497D02*
X007148Y006497D01*
X007148Y006614D02*
X005939Y006614D01*
X005716Y006381D02*
X004916Y006381D01*
X004877Y006497D02*
X005008Y006497D01*
X004892Y006614D02*
X004849Y006614D01*
X004822Y006730D02*
X004672Y006730D01*
X004654Y006847D02*
X004822Y006847D01*
X004822Y006964D02*
X004734Y006964D01*
X004745Y007080D02*
X004822Y007080D01*
X004822Y007197D02*
X004698Y007197D01*
X004491Y007197D02*
X004491Y007197D01*
X004491Y007080D02*
X004491Y007080D01*
X004570Y007499D02*
X004765Y007499D01*
X004800Y007508D01*
X004831Y007526D01*
X004857Y007552D01*
X004875Y007583D01*
X004885Y007618D01*
X004885Y007794D01*
X004570Y007794D01*
X004570Y007499D01*
X004570Y007547D02*
X004491Y007547D01*
X004491Y007663D02*
X004570Y007663D01*
X004570Y007780D02*
X004491Y007780D01*
X004491Y007896D02*
X004570Y007896D01*
X004570Y008013D02*
X004491Y008013D01*
X004491Y008130D02*
X004570Y008130D01*
X004842Y008130D02*
X005233Y008130D01*
X005150Y008246D02*
X004042Y008246D01*
X004042Y008363D02*
X005137Y008363D01*
X005191Y008480D02*
X004042Y008480D01*
X004073Y008596D02*
X005215Y008596D01*
X005215Y008713D02*
X004189Y008713D01*
X004306Y008829D02*
X005215Y008829D01*
X005215Y008946D02*
X004423Y008946D01*
X004144Y009179D02*
X003963Y009179D01*
X003963Y009296D02*
X004251Y009296D01*
X004251Y009412D02*
X003963Y009412D01*
X003963Y009529D02*
X004251Y009529D01*
X004280Y009646D02*
X003963Y009646D01*
X003963Y009762D02*
X004279Y009762D01*
X004251Y009879D02*
X003963Y009879D01*
X003963Y009995D02*
X004251Y009995D01*
X004251Y010112D02*
X004027Y010112D01*
X004042Y010229D02*
X004251Y010229D01*
X004291Y010345D02*
X004310Y010345D01*
X004337Y010462D02*
X004428Y010462D01*
X004428Y010579D02*
X004321Y010579D01*
X004232Y010695D02*
X004428Y010695D01*
X004428Y010812D02*
X004154Y010812D01*
X004160Y010928D02*
X004304Y010928D01*
X004251Y011045D02*
X004203Y011045D01*
X004239Y011162D02*
X004264Y011162D01*
X004218Y011278D02*
X004348Y011278D01*
X004491Y011395D02*
X004570Y011395D01*
X004570Y011337D02*
X004765Y011337D01*
X004800Y011347D01*
X004831Y011365D01*
X004857Y011391D01*
X004875Y011422D01*
X004885Y011457D01*
X004885Y011633D01*
X004570Y011633D01*
X004570Y011337D01*
X004634Y011278D02*
X005113Y011278D01*
X005115Y011276D02*
X005157Y011248D01*
X005204Y011229D01*
X005253Y011219D01*
X005278Y011219D01*
X005278Y011475D01*
X005022Y011475D01*
X005022Y011450D01*
X005032Y011401D01*
X005052Y011354D01*
X005080Y011312D01*
X005115Y011276D01*
X005035Y011395D02*
X004860Y011395D01*
X004885Y011511D02*
X005025Y011511D01*
X005022Y011500D02*
X005022Y011475D01*
X005278Y011475D01*
X005278Y011475D01*
X005278Y011475D01*
X005278Y011219D01*
X005304Y011219D01*
X005353Y011229D01*
X005400Y011248D01*
X005441Y011276D01*
X005477Y011312D01*
X005505Y011354D01*
X005524Y011401D01*
X005534Y011450D01*
X005534Y011475D01*
X005278Y011475D01*
X005278Y011731D01*
X005253Y011731D01*
X005204Y011721D01*
X005157Y011702D01*
X005115Y011674D01*
X005080Y011638D01*
X005052Y011596D01*
X005032Y011550D01*
X005022Y011500D01*
X005073Y011628D02*
X004885Y011628D01*
X004885Y011745D02*
X005904Y011745D01*
X005904Y011861D02*
X004885Y011861D01*
X004833Y011978D02*
X005904Y011978D01*
X005904Y012094D02*
X003373Y012094D01*
X003373Y011978D02*
X003581Y011978D01*
X003522Y011861D02*
X003373Y011861D01*
X003373Y012211D02*
X003441Y012211D01*
X003407Y012328D02*
X003373Y012328D01*
X003373Y012444D02*
X003409Y012444D01*
X003407Y012561D02*
X003373Y012561D01*
X003527Y012361D02*
X003527Y012361D01*
X003707Y012361D02*
X003707Y012361D01*
X003707Y012328D02*
X003707Y012328D01*
X003707Y012444D02*
X003707Y012444D01*
X003707Y012558D02*
X003707Y012558D01*
X004008Y012558D01*
X003888Y012558D01*
X003707Y012558D01*
X003888Y012558D02*
X003888Y012558D01*
X004008Y012561D02*
X004399Y012561D01*
X004384Y012677D02*
X003994Y012677D01*
X003992Y012794D02*
X004384Y012794D01*
X004143Y012911D02*
X004008Y012911D01*
X004008Y012952D02*
X003707Y012952D01*
X003707Y012952D01*
X003407Y012952D01*
X003407Y012997D01*
X003387Y012997D01*
X003377Y012987D01*
X003274Y012987D01*
X003274Y012916D01*
X003377Y012916D01*
X003387Y012906D01*
X003407Y012906D01*
X003407Y012952D01*
X003707Y012952D01*
X004008Y012952D01*
X004008Y013027D02*
X004084Y013027D01*
X004054Y013144D02*
X003992Y013144D01*
X003989Y013261D02*
X004081Y013261D01*
X004219Y013377D02*
X003471Y013377D01*
X003490Y013494D02*
X004842Y013494D01*
X004849Y013377D02*
X004369Y013377D01*
X003999Y013610D02*
X003920Y013610D01*
X003920Y013727D02*
X003999Y013727D01*
X003608Y013610D02*
X003606Y013610D01*
X003707Y012952D02*
X003707Y012952D01*
X003407Y012911D02*
X003382Y012911D01*
X003707Y012211D02*
X003707Y012211D01*
X003974Y012211D02*
X004418Y012211D01*
X004384Y012328D02*
X004008Y012328D01*
X004006Y012444D02*
X004385Y012444D01*
X004384Y012361D02*
X004684Y012361D01*
X004684Y012164D01*
X004684Y012361D01*
X004684Y012361D01*
X004384Y012361D01*
X004684Y012361D02*
X004684Y012361D01*
X004684Y012328D02*
X004684Y012328D01*
X004684Y012211D02*
X004684Y012211D01*
X004570Y011978D02*
X004491Y011978D01*
X004491Y011861D02*
X004570Y011861D01*
X004570Y011745D02*
X004491Y011745D01*
X004491Y011628D02*
X004570Y011628D01*
X004570Y011511D02*
X004491Y011511D01*
X004201Y011395D02*
X004170Y011395D01*
X004141Y011978D02*
X004228Y011978D01*
X004950Y012211D02*
X005137Y012211D01*
X005137Y012328D02*
X004984Y012328D01*
X004984Y012794D02*
X005184Y012794D01*
X005137Y012911D02*
X004968Y012911D01*
X005844Y012561D02*
X005904Y012561D01*
X005904Y012444D02*
X005814Y012444D01*
X005814Y012328D02*
X005904Y012328D01*
X005904Y012211D02*
X005814Y012211D01*
X005441Y011674D02*
X005400Y011702D01*
X005353Y011721D01*
X005304Y011731D01*
X005278Y011731D01*
X005278Y011475D01*
X005278Y011475D01*
X005278Y011475D01*
X005534Y011475D01*
X005534Y011500D01*
X005524Y011550D01*
X005505Y011596D01*
X005477Y011638D01*
X005441Y011674D01*
X005484Y011628D02*
X005904Y011628D01*
X005904Y011511D02*
X005532Y011511D01*
X005522Y011395D02*
X005904Y011395D01*
X005904Y011278D02*
X005443Y011278D01*
X005278Y011278D02*
X005278Y011278D01*
X005278Y011395D02*
X005278Y011395D01*
X005278Y011511D02*
X005278Y011511D01*
X005278Y011628D02*
X005278Y011628D01*
X004718Y011162D02*
X005904Y011162D01*
X005904Y011045D02*
X004751Y011045D01*
X004751Y010928D02*
X005904Y010928D01*
X005863Y010812D02*
X004751Y010812D01*
X004751Y010695D02*
X005746Y010695D01*
X005630Y010579D02*
X004751Y010579D01*
X004751Y010462D02*
X005513Y010462D01*
X005511Y010345D02*
X004868Y010345D01*
X004928Y009879D02*
X005215Y009879D01*
X005215Y009762D02*
X004899Y009762D01*
X004899Y009646D02*
X005215Y009646D01*
X005215Y009529D02*
X004928Y009529D01*
X004928Y009412D02*
X005215Y009412D01*
X005215Y009296D02*
X004928Y009296D01*
X004928Y009179D02*
X005215Y009179D01*
X005215Y009063D02*
X004869Y009063D01*
X004589Y009369D02*
X003861Y008641D01*
X003861Y007833D01*
X003900Y007794D02*
X003900Y007341D01*
X003999Y007243D01*
X003822Y007080D02*
X002308Y007080D01*
X002425Y007197D02*
X003759Y007197D01*
X003719Y007313D02*
X002542Y007313D01*
X002658Y007430D02*
X003719Y007430D01*
X003562Y007547D02*
X002775Y007547D01*
X002892Y007663D02*
X003522Y007663D01*
X003522Y007780D02*
X003008Y007780D01*
X003125Y007896D02*
X003522Y007896D01*
X003522Y008013D02*
X003241Y008013D01*
X003358Y008130D02*
X003571Y008130D01*
X003471Y008246D02*
X003680Y008246D01*
X003680Y008363D02*
X003471Y008363D01*
X003471Y008480D02*
X003680Y008480D01*
X003680Y008596D02*
X003471Y008596D01*
X003532Y008713D02*
X003680Y008713D01*
X003648Y008829D02*
X003794Y008829D01*
X003765Y008946D02*
X003910Y008946D01*
X003881Y009063D02*
X004027Y009063D01*
X003345Y009296D02*
X002487Y009296D01*
X002522Y009270D02*
X002522Y009015D01*
X002522Y009015D01*
X002522Y009015D01*
X002267Y009015D01*
X002267Y008989D01*
X002276Y008940D01*
X002296Y008893D01*
X002324Y008851D01*
X002359Y008816D01*
X002401Y008788D01*
X002448Y008768D01*
X002497Y008759D01*
X002522Y008759D01*
X002522Y009015D01*
X002522Y009015D01*
X002778Y009015D01*
X002778Y009040D01*
X002769Y009089D01*
X002749Y009136D01*
X002721Y009178D01*
X002686Y009213D01*
X002644Y009241D01*
X002597Y009261D01*
X002548Y009270D01*
X002522Y009270D01*
X002522Y009179D02*
X002522Y009179D01*
X002522Y009063D02*
X002522Y009063D01*
X002522Y009015D02*
X002522Y009015D01*
X002522Y008759D01*
X002548Y008759D01*
X002597Y008768D01*
X002644Y008788D01*
X002686Y008816D01*
X002721Y008851D01*
X002749Y008893D01*
X002769Y008940D01*
X002778Y008989D01*
X002778Y009015D01*
X002522Y009015D01*
X002522Y008946D02*
X002522Y008946D01*
X002522Y008829D02*
X002522Y008829D01*
X002346Y008829D02*
X002120Y008829D01*
X002174Y008946D02*
X002275Y008946D01*
X002185Y008713D02*
X002952Y008713D01*
X002952Y008829D02*
X002699Y008829D01*
X002770Y008946D02*
X003013Y008946D01*
X003130Y009063D02*
X002774Y009063D01*
X002720Y009179D02*
X003246Y009179D01*
X003065Y009412D02*
X003046Y009412D01*
X002877Y009412D02*
X002877Y009412D01*
X002877Y009349D02*
X002877Y009605D01*
X002877Y009605D01*
X002877Y009605D01*
X002621Y009605D01*
X002621Y009580D01*
X002631Y009530D01*
X002650Y009484D01*
X002678Y009442D01*
X002714Y009406D01*
X002756Y009378D01*
X002802Y009359D01*
X002852Y009349D01*
X002877Y009349D01*
X002877Y009529D02*
X002877Y009529D01*
X002877Y009605D02*
X002877Y009605D01*
X002877Y009861D01*
X002852Y009861D01*
X002802Y009851D01*
X002756Y009832D01*
X002714Y009804D01*
X002678Y009768D01*
X002650Y009726D01*
X002631Y009680D01*
X002621Y009630D01*
X002621Y009605D01*
X002877Y009605D01*
X002877Y009646D02*
X002877Y009646D01*
X002877Y009762D02*
X002877Y009762D01*
X002674Y009762D02*
X002487Y009762D01*
X002487Y009646D02*
X002624Y009646D01*
X002631Y009529D02*
X002487Y009529D01*
X002487Y009412D02*
X002708Y009412D01*
X002487Y009879D02*
X003148Y009879D01*
X002995Y009995D02*
X002916Y009995D01*
X002916Y010112D02*
X002995Y010112D01*
X002995Y010294D02*
X002916Y010294D01*
X002916Y010589D01*
X002721Y010589D01*
X002686Y010580D01*
X002684Y010579D01*
X002684Y010610D01*
X002688Y010605D01*
X003223Y010605D01*
X003294Y010677D01*
X003294Y011019D01*
X003440Y011019D01*
X003463Y010995D01*
X003463Y010935D01*
X003500Y010847D01*
X003518Y010829D01*
X003444Y010755D01*
X003253Y010564D01*
X003225Y010580D01*
X003190Y010589D01*
X002995Y010589D01*
X002995Y010294D01*
X002995Y010345D02*
X002916Y010345D01*
X002916Y010462D02*
X002995Y010462D01*
X002995Y010579D02*
X002916Y010579D01*
X003228Y010579D02*
X003268Y010579D01*
X003294Y010695D02*
X003384Y010695D01*
X003294Y010812D02*
X003501Y010812D01*
X003466Y010928D02*
X003294Y010928D01*
X002601Y010112D02*
X002569Y010112D01*
X002616Y009995D02*
X002487Y009995D01*
X001735Y009995D02*
X000833Y009995D01*
X000833Y009879D02*
X001030Y009879D01*
X000935Y009762D02*
X000833Y009762D01*
X000833Y009646D02*
X000887Y009646D01*
X000884Y009529D02*
X000833Y009529D01*
X000833Y009412D02*
X000905Y009412D01*
X000955Y009296D02*
X000833Y009296D01*
X000833Y009179D02*
X001072Y009179D01*
X001127Y008946D02*
X000833Y008946D01*
X000833Y009063D02*
X001834Y009063D01*
X002216Y008596D02*
X002952Y008596D01*
X002940Y008480D02*
X002216Y008480D01*
X002175Y008363D02*
X002824Y008363D01*
X002707Y008246D02*
X002095Y008246D01*
X001914Y008130D02*
X002590Y008130D01*
X002474Y008013D02*
X000833Y008013D01*
X000833Y007896D02*
X001047Y007896D01*
X000943Y007780D02*
X000833Y007780D01*
X000833Y007663D02*
X000894Y007663D01*
X000884Y007547D02*
X000833Y007547D01*
X000833Y007430D02*
X000897Y007430D01*
X000946Y007313D02*
X000833Y007313D01*
X000833Y007197D02*
X001054Y007197D01*
X001169Y006964D02*
X000833Y006964D01*
X000833Y007080D02*
X001852Y007080D01*
X002157Y007780D02*
X002241Y007780D01*
X002357Y007896D02*
X002053Y007896D01*
X001186Y008130D02*
X000833Y008130D01*
X000833Y008246D02*
X001005Y008246D01*
X000925Y008363D02*
X000833Y008363D01*
X000833Y008480D02*
X000884Y008480D01*
X000884Y008596D02*
X000833Y008596D01*
X000833Y008713D02*
X000915Y008713D01*
X000980Y008829D02*
X000833Y008829D01*
X000833Y010112D02*
X001228Y010112D01*
X001022Y010229D02*
X000833Y010229D01*
X000833Y010345D02*
X000932Y010345D01*
X000884Y010462D02*
X000833Y010462D01*
X000833Y010579D02*
X000884Y010579D01*
X000908Y010695D02*
X000833Y010695D01*
X000833Y010812D02*
X000963Y010812D01*
X001084Y010928D02*
X000833Y010928D01*
X000833Y011045D02*
X001773Y011045D01*
X001109Y011162D02*
X000833Y011162D01*
X000833Y011278D02*
X000973Y011278D01*
X000912Y011395D02*
X000833Y011395D01*
X000833Y011511D02*
X000884Y011511D01*
X000884Y011628D02*
X000833Y011628D01*
X000833Y011745D02*
X000928Y011745D01*
X001012Y011861D02*
X000833Y011861D01*
X000833Y011978D02*
X001204Y011978D01*
X001040Y012211D02*
X000833Y012211D01*
X000833Y012094D02*
X001866Y012094D01*
X000940Y012328D02*
X000833Y012328D01*
X000833Y012444D02*
X000891Y012444D01*
X000884Y012561D02*
X000833Y012561D01*
X000833Y012677D02*
X000900Y012677D01*
X000949Y012794D02*
X000833Y012794D01*
X000833Y012911D02*
X001062Y012911D01*
X001151Y013144D02*
X000833Y013144D01*
X000833Y013261D02*
X000990Y013261D01*
X000919Y013377D02*
X000833Y013377D01*
X000833Y013494D02*
X000884Y013494D01*
X000884Y013610D02*
X000833Y013610D01*
X000833Y013727D02*
X000921Y013727D01*
X000994Y013844D02*
X000833Y013844D01*
X000833Y013960D02*
X001161Y013960D01*
X001219Y014103D02*
X001150Y014126D01*
X001086Y014158D01*
X001028Y014201D01*
X000977Y014252D01*
X000934Y014310D01*
X000902Y014374D01*
X000879Y014443D01*
X000869Y014509D01*
X001509Y014509D01*
X001509Y014092D01*
X001290Y014092D01*
X001219Y014103D01*
X001038Y014193D02*
X000833Y014193D01*
X000833Y014077D02*
X001846Y014077D01*
X001591Y014193D02*
X001509Y014193D01*
X001509Y014310D02*
X001591Y014310D01*
X001591Y014427D02*
X001509Y014427D01*
X001509Y014543D02*
X000833Y014543D01*
X000869Y014591D02*
X000879Y014657D01*
X000902Y014726D01*
X000934Y014790D01*
X000977Y014848D01*
X001028Y014899D01*
X001086Y014942D01*
X001150Y014974D01*
X001219Y014997D01*
X001290Y015008D01*
X001509Y015008D01*
X001509Y014591D01*
X000869Y014591D01*
X000880Y014660D02*
X000833Y014660D01*
X000833Y014776D02*
X000928Y014776D01*
X000833Y014893D02*
X001022Y014893D01*
X000900Y015010D02*
X002285Y015010D01*
X002169Y014893D02*
X002078Y014893D01*
X001906Y015126D02*
X002402Y015126D01*
X002519Y015243D02*
X002092Y015243D01*
X002174Y015360D02*
X002635Y015360D01*
X002554Y015476D02*
X002752Y015476D01*
X002686Y015593D02*
X007056Y015593D01*
X007164Y015476D02*
X006329Y015476D01*
X006445Y015360D02*
X007273Y015360D01*
X007381Y015243D02*
X006562Y015243D01*
X006678Y015126D02*
X007490Y015126D01*
X007598Y015010D02*
X006795Y015010D01*
X006912Y014893D02*
X007707Y014893D01*
X007495Y014310D02*
X007948Y014310D01*
X007884Y014193D02*
X007611Y014193D01*
X007728Y014077D02*
X007883Y014077D01*
X007887Y014058D02*
X007906Y014011D01*
X007934Y013970D01*
X007970Y013934D01*
X008011Y013906D01*
X008058Y013887D01*
X008107Y013877D01*
X008133Y013877D01*
X008133Y014133D01*
X008133Y014133D01*
X008133Y014133D01*
X007877Y014133D01*
X007877Y014107D01*
X007887Y014058D01*
X007844Y013960D02*
X007943Y013960D01*
X007961Y013844D02*
X008993Y013844D01*
X009110Y013960D02*
X008322Y013960D01*
X008133Y013960D02*
X008133Y013960D01*
X008133Y014077D02*
X008133Y014077D01*
X008133Y014193D02*
X008133Y014193D01*
X008133Y014310D02*
X008133Y014310D01*
X008078Y013727D02*
X008877Y013727D01*
X008760Y013610D02*
X008194Y013610D01*
X008311Y013494D02*
X008759Y013494D01*
X008759Y013377D02*
X008428Y013377D01*
X008544Y013261D02*
X008759Y013261D01*
X008759Y013144D02*
X008661Y013144D01*
X008688Y013027D02*
X008759Y013027D01*
X008759Y012911D02*
X008688Y012911D01*
X008688Y012794D02*
X008759Y012794D01*
X008759Y012677D02*
X008688Y012677D01*
X008688Y012561D02*
X008759Y012561D01*
X008759Y012444D02*
X008688Y012444D01*
X008688Y012328D02*
X008759Y012328D01*
X008759Y012211D02*
X008688Y012211D01*
X008688Y012094D02*
X008759Y012094D01*
X008759Y011978D02*
X008688Y011978D01*
X008188Y011628D02*
X007881Y011628D01*
X007927Y011745D02*
X008141Y011745D01*
X008249Y011511D02*
X007820Y011511D01*
X007055Y011045D02*
X006424Y011045D01*
X006424Y011162D02*
X006939Y011162D01*
X006822Y011278D02*
X006424Y011278D01*
X006424Y011395D02*
X006705Y011395D01*
X006589Y011511D02*
X006424Y011511D01*
X006424Y011628D02*
X006472Y011628D01*
X006845Y010812D02*
X007058Y010812D01*
X007074Y009995D02*
X007120Y009995D01*
X007074Y009879D02*
X007237Y009879D01*
X007354Y009762D02*
X007074Y009762D01*
X005511Y010112D02*
X005492Y010112D01*
X005511Y010229D02*
X005375Y010229D01*
X004218Y008130D02*
X004151Y008130D01*
X004160Y007547D02*
X004209Y007547D01*
X004151Y007430D02*
X005040Y007430D01*
X005157Y007547D02*
X004852Y007547D01*
X004885Y007663D02*
X005274Y007663D01*
X005189Y007780D02*
X004885Y007780D01*
X004885Y007896D02*
X005137Y007896D01*
X005150Y008013D02*
X004885Y008013D01*
X003765Y006847D02*
X003642Y006847D01*
X003688Y006730D02*
X003719Y006730D01*
X003719Y006381D02*
X003688Y006381D01*
X003645Y006264D02*
X003762Y006264D01*
X003719Y005797D02*
X003688Y005797D01*
X003688Y005331D02*
X003719Y005331D01*
X003684Y004748D02*
X004511Y004748D01*
X004672Y005331D02*
X004841Y005331D01*
X004841Y005448D02*
X004794Y005448D01*
X004993Y006147D02*
X005713Y006147D01*
X005832Y006264D02*
X004955Y006264D01*
X005480Y006730D02*
X007172Y006730D01*
X007405Y006847D02*
X006292Y006847D01*
X006408Y006964D02*
X007385Y006964D01*
X007421Y007080D02*
X006525Y007080D01*
X006642Y007197D02*
X007156Y007197D01*
X007148Y007313D02*
X006758Y007313D01*
X006875Y007430D02*
X007463Y007430D01*
X007148Y007547D02*
X006991Y007547D01*
X007108Y007663D02*
X007151Y007663D01*
X007148Y006264D02*
X006289Y006264D01*
X006326Y006147D02*
X007204Y006147D01*
X006931Y005797D02*
X009510Y005797D01*
X009394Y005681D02*
X007067Y005681D01*
X007093Y005564D02*
X009277Y005564D01*
X009160Y005448D02*
X007216Y005448D01*
X007286Y005331D02*
X007479Y005331D01*
X007479Y005214D02*
X007285Y005214D01*
X007360Y005098D02*
X007479Y005098D01*
X007479Y004981D02*
X007369Y004981D01*
X007369Y004865D02*
X007396Y004865D01*
X007381Y004748D02*
X007369Y004748D01*
X007369Y004631D02*
X007381Y004631D01*
X007381Y004515D02*
X007329Y004515D01*
X007011Y004165D02*
X006204Y004165D01*
X006204Y004113D02*
X006499Y004113D01*
X006499Y003918D01*
X006489Y003883D01*
X006471Y003851D01*
X006446Y003826D01*
X006414Y003807D01*
X006379Y003798D01*
X006204Y003798D01*
X006204Y004113D01*
X006204Y004048D02*
X006125Y004048D01*
X006125Y004113D02*
X006125Y003798D01*
X005949Y003798D01*
X005914Y003807D01*
X005883Y003826D01*
X005857Y003851D01*
X005839Y003883D01*
X005830Y003918D01*
X005830Y004113D01*
X006125Y004113D01*
X006125Y004165D02*
X005833Y004165D01*
X005830Y004048D02*
X005757Y004048D01*
X005830Y003932D02*
X005640Y003932D01*
X005524Y003815D02*
X005901Y003815D01*
X005810Y003778D02*
X005810Y003483D01*
X006125Y003483D01*
X006125Y003659D01*
X006115Y003694D01*
X006097Y003725D01*
X006072Y003751D01*
X006040Y003769D01*
X006005Y003778D01*
X005810Y003778D01*
X005731Y003778D02*
X005731Y003483D01*
X005810Y003483D01*
X005810Y003404D01*
X005810Y003109D01*
X006005Y003109D01*
X006040Y003118D01*
X006072Y003137D01*
X006097Y003162D01*
X006115Y003194D01*
X006125Y003229D01*
X006125Y003404D01*
X005810Y003404D01*
X005731Y003404D01*
X005731Y003109D01*
X005536Y003109D01*
X005501Y003118D01*
X005470Y003136D01*
X005441Y003107D01*
X005400Y003079D01*
X005353Y003060D01*
X005304Y003050D01*
X005278Y003050D01*
X005278Y003306D01*
X005278Y003306D01*
X005278Y003306D01*
X005278Y003562D01*
X005304Y003562D01*
X005353Y003552D01*
X005400Y003533D01*
X005416Y003522D01*
X005416Y003659D01*
X005426Y003694D01*
X005444Y003725D01*
X005469Y003751D01*
X005501Y003769D01*
X005536Y003778D01*
X005731Y003778D01*
X005731Y003698D02*
X005810Y003698D01*
X005810Y003582D02*
X005731Y003582D01*
X005810Y003465D02*
X007080Y003465D01*
X007196Y003582D02*
X006125Y003582D01*
X006113Y003698D02*
X007313Y003698D01*
X007313Y003815D02*
X007381Y003815D01*
X007089Y003815D02*
X007011Y003815D01*
X007011Y003798D02*
X007011Y004113D01*
X006715Y004113D01*
X006715Y003918D01*
X006725Y003883D01*
X006743Y003851D01*
X006769Y003826D01*
X006800Y003807D01*
X006835Y003798D01*
X007011Y003798D01*
X007011Y003932D02*
X007089Y003932D01*
X007089Y004048D02*
X007011Y004048D01*
X006715Y004048D02*
X006499Y004048D01*
X006499Y003932D02*
X006715Y003932D01*
X006787Y003815D02*
X006427Y003815D01*
X006204Y003815D02*
X006125Y003815D01*
X006125Y003932D02*
X006204Y003932D01*
X006499Y004282D02*
X006715Y004282D01*
X006718Y004398D02*
X006496Y004398D01*
X006443Y004515D02*
X006771Y004515D01*
X006731Y004631D02*
X006483Y004631D01*
X006483Y004748D02*
X006731Y004748D01*
X006731Y004865D02*
X006483Y004865D01*
X006493Y004981D02*
X006731Y004981D01*
X006740Y005098D02*
X006524Y005098D01*
X006596Y005214D02*
X006815Y005214D01*
X006802Y005331D02*
X006598Y005331D01*
X006776Y005797D02*
X006326Y005797D01*
X006326Y005914D02*
X009627Y005914D01*
X009044Y005331D02*
X008786Y005331D01*
X008148Y005331D02*
X008117Y005331D01*
X008117Y005214D02*
X008148Y005214D01*
X008148Y005098D02*
X008117Y005098D01*
X008117Y004981D02*
X008148Y004981D01*
X008148Y004865D02*
X008117Y004865D01*
X008165Y004748D02*
X008054Y004748D01*
X008389Y004515D02*
X008434Y004515D01*
X008434Y004398D02*
X008274Y004398D01*
X008274Y004282D02*
X008434Y004282D01*
X008434Y004165D02*
X008274Y004165D01*
X008241Y004048D02*
X008468Y004048D01*
X008458Y003932D02*
X008250Y003932D01*
X008274Y003815D02*
X008434Y003815D01*
X008434Y003698D02*
X008274Y003698D01*
X008274Y003582D02*
X008434Y003582D01*
X008878Y003232D02*
X009208Y003232D01*
X009325Y003349D02*
X009047Y003349D01*
X009111Y003465D02*
X009270Y003465D01*
X009270Y003582D02*
X009111Y003582D01*
X009111Y003698D02*
X009270Y003698D01*
X009270Y003815D02*
X009111Y003815D01*
X009087Y003932D02*
X009295Y003932D01*
X009304Y004048D02*
X009077Y004048D01*
X009111Y004165D02*
X009270Y004165D01*
X009270Y004282D02*
X009111Y004282D01*
X009119Y004398D02*
X009270Y004398D01*
X009270Y004515D02*
X009241Y004515D01*
X009803Y004748D02*
X010101Y004748D01*
X010092Y004631D02*
X009893Y004631D01*
X009920Y004865D02*
X010217Y004865D01*
X010334Y004981D02*
X010036Y004981D01*
X010509Y004981D02*
X010591Y004981D01*
X010591Y004865D02*
X010509Y004865D01*
X010509Y004748D02*
X010591Y004748D01*
X010591Y004631D02*
X010509Y004631D01*
X010509Y004398D02*
X010591Y004398D01*
X010591Y004282D02*
X010509Y004282D01*
X010509Y004165D02*
X010591Y004165D01*
X010812Y004165D02*
X011310Y004165D01*
X011193Y004282D02*
X010929Y004282D01*
X011008Y004398D02*
X011108Y004398D01*
X010591Y003932D02*
X010509Y003932D01*
X010509Y003815D02*
X010591Y003815D01*
X010591Y003698D02*
X010509Y003698D01*
X010509Y003582D02*
X009948Y003582D01*
X009948Y003698D02*
X010092Y003698D01*
X010168Y003815D02*
X009948Y003815D01*
X009948Y003465D02*
X010092Y003465D01*
X010104Y003349D02*
X009883Y003349D01*
X009665Y003232D02*
X010221Y003232D01*
X010337Y003115D02*
X009548Y003115D01*
X009432Y002999D02*
X010351Y002999D01*
X010235Y002882D02*
X009315Y002882D01*
X009381Y002183D02*
X008719Y002183D01*
X008800Y002149D02*
X008638Y002216D01*
X008462Y002216D01*
X008300Y002149D01*
X008175Y002024D01*
X008108Y001862D01*
X008108Y001238D01*
X008175Y001076D01*
X008300Y000951D01*
X008462Y000884D01*
X008638Y000884D01*
X008800Y000951D01*
X008925Y001076D01*
X008992Y001238D01*
X008992Y001862D01*
X008925Y002024D01*
X008800Y002149D01*
X008883Y002066D02*
X009217Y002066D01*
X009144Y001949D02*
X008956Y001949D01*
X008992Y001833D02*
X009108Y001833D01*
X009108Y001716D02*
X008992Y001716D01*
X008992Y001599D02*
X009108Y001599D01*
X009108Y001483D02*
X008992Y001483D01*
X008992Y001366D02*
X009108Y001366D01*
X009108Y001250D02*
X008992Y001250D01*
X008949Y001133D02*
X009151Y001133D01*
X009234Y001016D02*
X008866Y001016D01*
X008676Y000900D02*
X009424Y000900D01*
X009676Y000900D02*
X011944Y000900D01*
X011975Y000869D02*
X011975Y000869D01*
X011827Y001016D02*
X009866Y001016D01*
X010780Y001133D02*
X011342Y001133D01*
X011225Y001250D02*
X010897Y001250D01*
X011008Y001366D02*
X011109Y001366D01*
X011108Y001483D02*
X011008Y001483D01*
X011008Y001599D02*
X011108Y001599D01*
X011108Y001716D02*
X011008Y001716D01*
X010915Y001833D02*
X011208Y001833D01*
X011108Y002649D02*
X011008Y002649D01*
X010982Y002766D02*
X011140Y002766D01*
X011257Y002882D02*
X010865Y002882D01*
X010749Y002999D02*
X011369Y002999D01*
X011359Y003115D02*
X010763Y003115D01*
X010879Y003232D02*
X011243Y003232D01*
X011126Y003349D02*
X010996Y003349D01*
X011008Y003465D02*
X011108Y003465D01*
X010118Y002766D02*
X008017Y002766D01*
X008134Y002882D02*
X008320Y002882D01*
X008286Y002999D02*
X008251Y002999D01*
X007619Y002649D02*
X010092Y002649D01*
X008381Y002183D02*
X007719Y002183D01*
X007883Y002066D02*
X008217Y002066D01*
X008144Y001949D02*
X007956Y001949D01*
X007992Y001833D02*
X008108Y001833D01*
X008108Y001716D02*
X007992Y001716D01*
X007992Y001599D02*
X008108Y001599D01*
X008108Y001483D02*
X007992Y001483D01*
X007992Y001366D02*
X008108Y001366D01*
X008108Y001250D02*
X007992Y001250D01*
X007949Y001133D02*
X008151Y001133D01*
X008234Y001016D02*
X007866Y001016D01*
X007676Y000900D02*
X008424Y000900D01*
X007269Y002649D02*
X007113Y002649D01*
X006730Y003115D02*
X006029Y003115D01*
X006109Y002999D02*
X006613Y002999D01*
X006496Y002882D02*
X006109Y002882D01*
X006109Y002766D02*
X006268Y002766D01*
X006219Y002649D02*
X006109Y002649D01*
X006109Y002532D02*
X006235Y002532D01*
X006381Y002183D02*
X005719Y002183D01*
X005883Y002066D02*
X006217Y002066D01*
X006144Y001949D02*
X005956Y001949D01*
X005992Y001833D02*
X006108Y001833D01*
X006108Y001716D02*
X005992Y001716D01*
X005992Y001599D02*
X006108Y001599D01*
X006108Y001483D02*
X005992Y001483D01*
X005992Y001366D02*
X006108Y001366D01*
X006108Y001250D02*
X005992Y001250D01*
X005949Y001133D02*
X006151Y001133D01*
X006234Y001016D02*
X005866Y001016D01*
X005234Y001016D02*
X004866Y001016D01*
X004949Y001133D02*
X005151Y001133D01*
X005108Y001250D02*
X004992Y001250D01*
X004992Y001366D02*
X005108Y001366D01*
X005108Y001483D02*
X004992Y001483D01*
X004992Y001599D02*
X005108Y001599D01*
X005108Y001716D02*
X004992Y001716D01*
X004992Y001833D02*
X005108Y001833D01*
X005144Y001949D02*
X004956Y001949D01*
X004883Y002066D02*
X005217Y002066D01*
X005381Y002183D02*
X004719Y002183D01*
X004381Y002183D02*
X003719Y002183D01*
X003883Y002066D02*
X004217Y002066D01*
X004144Y001949D02*
X003956Y001949D01*
X003992Y001833D02*
X004108Y001833D01*
X004108Y001716D02*
X003992Y001716D01*
X003992Y001599D02*
X004108Y001599D01*
X004108Y001483D02*
X003992Y001483D01*
X003992Y001366D02*
X004108Y001366D01*
X004108Y001250D02*
X003992Y001250D01*
X003949Y001133D02*
X004151Y001133D01*
X004234Y001016D02*
X003866Y001016D01*
X003234Y001016D02*
X002866Y001016D01*
X002949Y001133D02*
X003151Y001133D01*
X003108Y001250D02*
X002992Y001250D01*
X002992Y001366D02*
X003108Y001366D01*
X003108Y001483D02*
X002992Y001483D01*
X002992Y001599D02*
X003108Y001599D01*
X003108Y001716D02*
X002992Y001716D01*
X002992Y001833D02*
X003108Y001833D01*
X003144Y001949D02*
X002956Y001949D01*
X002889Y002066D02*
X003217Y002066D01*
X003381Y002183D02*
X003005Y002183D01*
X002782Y002416D02*
X002676Y002416D01*
X002665Y002299D02*
X002559Y002299D01*
X002522Y002519D02*
X001554Y001550D01*
X001550Y001550D02*
X001030Y001550D01*
X000841Y001483D02*
X000515Y001483D01*
X000515Y001599D02*
X000725Y001599D01*
X000608Y001716D02*
X000515Y001716D01*
X000887Y001949D02*
X001324Y001949D01*
X001208Y001833D02*
X001004Y001833D01*
X002163Y002766D02*
X002341Y002766D01*
X002341Y002882D02*
X002067Y002882D01*
X002211Y002649D02*
X002341Y002649D01*
X002280Y002532D02*
X002216Y002532D01*
X002522Y002519D02*
X002522Y003896D01*
X002719Y004093D01*
X004294Y004093D01*
X004436Y003582D02*
X004834Y003582D01*
X004951Y003698D02*
X003546Y003698D01*
X003546Y003582D02*
X003759Y003582D01*
X003759Y003465D02*
X003546Y003465D01*
X003524Y003349D02*
X003759Y003349D01*
X003611Y003232D02*
X003530Y003232D01*
X003530Y002766D02*
X005432Y002766D01*
X005432Y002882D02*
X004698Y002882D01*
X004731Y002999D02*
X005432Y002999D01*
X005450Y003115D02*
X005512Y003115D01*
X005731Y003115D02*
X005810Y003115D01*
X005810Y003232D02*
X005731Y003232D01*
X005731Y003349D02*
X005810Y003349D01*
X006125Y003349D02*
X006963Y003349D01*
X006846Y003232D02*
X006125Y003232D01*
X005416Y003582D02*
X005290Y003582D01*
X005278Y003465D02*
X005278Y003465D01*
X005278Y003349D02*
X005278Y003349D01*
X005278Y003232D02*
X005278Y003232D01*
X005278Y003115D02*
X005278Y003115D01*
X005107Y003115D02*
X004824Y003115D01*
X004941Y003232D02*
X005032Y003232D01*
X004717Y003465D02*
X004436Y003465D01*
X004436Y003349D02*
X004601Y003349D01*
X005407Y003698D02*
X005428Y003698D01*
X005417Y002649D02*
X003475Y002649D01*
X002948Y002649D02*
X002704Y002649D01*
X002704Y002766D02*
X002893Y002766D01*
X002893Y002882D02*
X002704Y002882D01*
X002704Y002999D02*
X002893Y002999D01*
X002893Y003115D02*
X002704Y003115D01*
X002704Y003232D02*
X002893Y003232D01*
X002899Y003349D02*
X002704Y003349D01*
X002704Y003465D02*
X002877Y003465D01*
X002877Y003582D02*
X002704Y003582D01*
X002704Y003698D02*
X002877Y003698D01*
X002877Y003815D02*
X002704Y003815D01*
X002535Y004165D02*
X001999Y004165D01*
X003546Y003815D02*
X003759Y003815D01*
X002899Y002532D02*
X002704Y002532D01*
X006326Y006031D02*
X010727Y006031D01*
X013035Y005914D02*
X013168Y005914D01*
X013168Y005797D02*
X013150Y005797D01*
X013530Y005797D02*
X013585Y005797D01*
X013585Y005681D02*
X013530Y005681D01*
X013530Y005564D02*
X013585Y005564D01*
X013585Y005448D02*
X013530Y005448D01*
X013530Y005914D02*
X013585Y005914D01*
X013585Y006031D02*
X013530Y006031D01*
X013530Y006147D02*
X013585Y006147D01*
X011282Y014822D02*
X011046Y015058D01*
X010534Y015609D01*
X010893Y015593D02*
X011062Y015593D01*
X011062Y015709D02*
X010893Y015709D01*
X010864Y015826D02*
X011062Y015826D01*
X011062Y015476D02*
X010905Y015476D01*
X011013Y015360D02*
X011097Y015360D01*
X011121Y015243D02*
X011987Y015243D01*
X011926Y015360D02*
X011743Y015360D01*
X011778Y015476D02*
X011884Y015476D01*
X011884Y015593D02*
X011778Y015593D01*
X011778Y015709D02*
X011914Y015709D01*
X011977Y015826D02*
X011778Y015826D01*
X011870Y015126D02*
X011234Y015126D01*
X011350Y015010D02*
X011754Y015010D01*
X010452Y014893D02*
X010282Y014893D01*
X010205Y015826D02*
X009407Y015826D01*
X004346Y016059D02*
X000515Y016059D01*
X000515Y015943D02*
X001119Y015943D01*
X000977Y015826D02*
X000515Y015826D01*
X000515Y015709D02*
X000914Y015709D01*
X000884Y015593D02*
X000515Y015593D01*
X000515Y015476D02*
X000854Y015476D01*
X000737Y015360D02*
X000515Y015360D01*
X000515Y015243D02*
X000621Y015243D01*
X001016Y015126D02*
X001194Y015126D01*
X001509Y014893D02*
X001591Y014893D01*
X001591Y014776D02*
X001509Y014776D01*
X001509Y014660D02*
X001591Y014660D01*
X001591Y014543D02*
X002164Y014543D01*
X000934Y014310D02*
X000833Y014310D01*
X000833Y014427D02*
X000885Y014427D01*
X000833Y013027D02*
X001799Y013027D01*
X002123Y015826D02*
X002403Y015826D01*
X002534Y015943D02*
X001981Y015943D01*
X002641Y006847D02*
X002719Y006847D01*
X002719Y006730D02*
X002641Y006730D01*
X002641Y006614D02*
X002719Y006614D01*
X002719Y006497D02*
X002641Y006497D01*
X002641Y006381D02*
X002719Y006381D01*
X002719Y006264D02*
X002641Y006264D01*
X002998Y006264D02*
X003053Y006264D01*
X003056Y006847D02*
X002995Y006847D01*
X000998Y006847D02*
X000833Y006847D01*
X000833Y006730D02*
X000922Y006730D01*
X000884Y006614D02*
X000833Y006614D01*
X000833Y006497D02*
X000884Y006497D01*
X000918Y006381D02*
X000833Y006381D01*
X000833Y006264D02*
X000987Y006264D01*
D24*
X001550Y006550D02*
X003310Y008310D01*
X003310Y008719D01*
X003802Y009211D01*
X003802Y010196D01*
X003704Y010491D02*
X003507Y010294D01*
X003507Y009211D01*
X003113Y008818D01*
X003113Y008424D01*
X002239Y007550D01*
X001550Y007550D01*
X001550Y008550D02*
X002326Y009326D01*
X002326Y010097D01*
X002522Y010294D01*
X002522Y011081D01*
X002719Y011278D01*
X002719Y011869D01*
X002916Y012066D01*
X002916Y012656D01*
X003113Y012853D01*
X003113Y013641D01*
X003310Y013837D01*
X003310Y014330D01*
X003408Y014428D01*
X005672Y014428D01*
X006263Y013837D01*
X006263Y010589D01*
X005869Y010196D01*
X005869Y008030D01*
X004983Y007144D01*
X004983Y006751D01*
X005180Y006554D01*
X005770Y006554D01*
X006164Y006160D01*
X006164Y005767D01*
X005672Y005274D01*
X005239Y005274D01*
X005180Y005215D01*
X005672Y004979D02*
X005672Y004192D01*
X004491Y003011D01*
X004097Y003011D01*
X004097Y003365D01*
X004097Y003011D02*
X003704Y003011D01*
X003211Y003011D01*
X003211Y002971D01*
X003015Y002420D02*
X005416Y002420D01*
X005770Y002774D01*
X006459Y002617D02*
X007542Y003700D01*
X007542Y004782D01*
X007798Y005078D01*
X008330Y004684D02*
X007936Y004290D01*
X007936Y004330D01*
X008330Y004684D02*
X008920Y004684D01*
X009806Y005570D01*
X010790Y005570D01*
X011085Y005865D01*
X011085Y009015D01*
X010889Y008818D02*
X010889Y005963D01*
X010692Y005767D01*
X009707Y005767D01*
X009019Y005078D01*
X008467Y005078D01*
X008772Y004330D02*
X008772Y004290D01*
X009904Y005373D01*
X010889Y005373D01*
X011282Y005767D01*
X011282Y008818D01*
X011381Y008916D01*
X011381Y009113D01*
X011184Y009310D01*
X010790Y009310D01*
X010495Y009605D01*
X010495Y010983D01*
X009707Y010983D01*
X009707Y010688D01*
X008526Y010688D01*
X007936Y010097D01*
X007542Y010097D01*
X007148Y010491D01*
X007148Y010589D01*
X006755Y010589D02*
X007444Y009900D01*
X008034Y009900D01*
X008625Y010491D01*
X009944Y010491D01*
X010101Y010648D01*
X010298Y010452D01*
X010298Y009408D01*
X010889Y008818D01*
X011479Y008719D02*
X011479Y005668D01*
X010987Y005176D01*
X010003Y005176D01*
X009609Y004782D01*
X009609Y004330D01*
X009609Y003660D02*
X009609Y003404D01*
X009215Y003011D01*
X008526Y003011D01*
X008330Y003306D02*
X007837Y002814D01*
X007444Y002814D01*
X007444Y003207D02*
X007739Y003207D01*
X007936Y003404D01*
X007936Y003660D01*
X008330Y003306D02*
X008723Y003306D01*
X008772Y003404D01*
X008772Y003660D01*
X007444Y003207D02*
X006853Y002617D01*
X005180Y004546D02*
X004826Y004546D01*
X004688Y004585D01*
X003507Y004585D01*
X004097Y004034D02*
X004196Y004133D01*
X004294Y004093D01*
X005672Y004979D02*
X006263Y005570D01*
X006853Y005570D01*
X007050Y005274D02*
X007050Y004822D01*
X006361Y005078D02*
X006361Y005274D01*
X006361Y005078D02*
X006164Y004822D01*
X005672Y005668D02*
X005574Y005767D01*
X004885Y005767D01*
X004688Y005570D01*
X004196Y005570D01*
X003349Y005570D01*
X003349Y006554D02*
X004196Y006554D01*
X004688Y006554D01*
X004885Y005963D01*
X005869Y005963D01*
X006164Y006948D02*
X005377Y006948D01*
X006164Y006948D02*
X007148Y007932D01*
X008034Y007932D01*
X008034Y008227D01*
X008133Y008326D01*
X008172Y008326D01*
X008034Y007932D02*
X008034Y007578D01*
X008172Y007440D01*
X008211Y007400D01*
X009806Y007400D01*
X009845Y007440D01*
X010101Y007440D01*
X010298Y007637D01*
X011479Y008719D02*
X011627Y008818D01*
X011381Y009664D02*
X011184Y009704D01*
X010790Y009704D01*
X010790Y009999D01*
X009904Y010196D02*
X009806Y010097D01*
X009806Y009644D01*
X010062Y011278D02*
X008920Y011278D01*
X008920Y013542D01*
X009511Y014133D01*
X008526Y013050D02*
X006164Y015412D01*
X002916Y015412D01*
X002326Y014822D01*
X002326Y014330D01*
X001550Y013550D01*
X002326Y013326D02*
X001550Y012550D01*
X002326Y012326D02*
X001550Y011550D01*
X002326Y011424D02*
X001550Y010550D01*
X002286Y010365D02*
X001550Y009550D01*
X002286Y010365D02*
X002286Y011141D01*
X002522Y011377D01*
X002522Y011967D01*
X002719Y012164D01*
X002719Y012755D01*
X002916Y012952D01*
X002916Y013739D01*
X003113Y013936D01*
X003113Y014428D01*
X003310Y014625D01*
X005770Y014625D01*
X006459Y013936D01*
X006459Y011869D01*
X007739Y010589D01*
X007641Y011672D02*
X006952Y011672D01*
X006656Y011967D01*
X006656Y014034D01*
X005869Y014822D01*
X003211Y014822D01*
X002916Y014526D01*
X002916Y014034D01*
X002719Y013837D01*
X002719Y013050D01*
X002522Y012853D01*
X002522Y012263D01*
X002326Y012066D01*
X002326Y011424D01*
X002956Y010924D02*
X003211Y011180D01*
X003507Y011180D01*
X003704Y010983D01*
X003802Y010688D02*
X003999Y010885D01*
X003999Y011180D01*
X004491Y011081D02*
X004589Y010983D01*
X004589Y010097D01*
X004589Y010038D01*
X004589Y010097D02*
X005278Y010097D01*
X005377Y009999D01*
X005377Y008326D01*
X005672Y008227D02*
X005377Y007932D01*
X005672Y008227D02*
X005672Y010393D01*
X006066Y010786D01*
X006066Y013739D01*
X005574Y014231D01*
X003507Y014231D01*
X003507Y013739D01*
X003310Y013542D01*
X003310Y013148D01*
X003310Y012755D02*
X003211Y012656D01*
X003211Y011672D01*
X003211Y011180D01*
X003211Y011672D02*
X003861Y011672D01*
X003802Y010688D02*
X003605Y010688D01*
X003310Y010393D01*
X003310Y009704D01*
X003211Y009605D01*
X003704Y010491D02*
X004097Y010491D01*
X002326Y012326D02*
X002326Y012952D01*
X002522Y013148D01*
X002522Y013936D01*
X002719Y014133D01*
X002719Y014625D01*
X003113Y015019D01*
X005967Y015019D01*
X007837Y013148D01*
X007837Y011967D01*
X008231Y011967D02*
X008231Y013050D01*
X006066Y015215D01*
X003015Y015215D01*
X002522Y014723D01*
X002522Y014231D01*
X002326Y014034D01*
X002326Y013326D01*
X001511Y015511D02*
X001550Y015550D01*
X004629Y013837D02*
X005574Y013837D01*
X005770Y013641D01*
X005869Y013542D01*
X005869Y012814D01*
X005475Y012420D01*
X005436Y012558D01*
X005475Y013089D02*
X005081Y013148D01*
X005081Y013444D01*
X006952Y013690D02*
X007050Y013641D01*
X007050Y011967D01*
X007444Y011967D02*
X007444Y012952D01*
X007542Y013050D01*
X008526Y013050D02*
X008526Y011770D01*
X008428Y011672D01*
X009137Y012932D02*
X009117Y012952D01*
X010101Y011318D02*
X010062Y011278D01*
X011263Y013837D02*
X011381Y013837D01*
X012550Y015550D02*
X012621Y015550D01*
X006755Y009841D02*
X006696Y009900D01*
X006361Y009900D01*
X008034Y007440D02*
X008034Y006948D01*
X008034Y006456D01*
X008172Y006456D01*
X008172Y007440D02*
X008034Y007440D01*
X003900Y007794D02*
X003861Y007833D01*
X003015Y002420D02*
X002550Y001956D01*
X002550Y001550D01*
X001554Y001550D02*
X001550Y001550D01*
D25*
X004684Y012558D02*
X005436Y012558D01*
X005081Y013148D02*
X004684Y013148D01*
X004684Y012952D02*
X004294Y012952D01*
X004294Y013148D01*
X003707Y013148D02*
X003310Y013148D01*
X003310Y012755D02*
X003707Y012755D01*
M02*
