G75*
%MOIN*%
%OFA0B0*%
%FSLAX24Y24*%
%IPPOS*%
%LPD*%
%AMOC8*
5,1,8,0,0,1.08239X$1,22.5*
%
%ADD10C,0.0000*%
%ADD11C,0.0050*%
D10*
X000357Y000550D02*
X000357Y016298D01*
X013743Y016298D01*
X013743Y000550D01*
X000357Y000550D01*
D11*
X008900Y014379D02*
X008959Y014379D01*
X008976Y014380D01*
X008993Y014385D01*
X009008Y014392D01*
X009022Y014402D01*
X009034Y014414D01*
X009044Y014428D01*
X009051Y014443D01*
X009056Y014460D01*
X009057Y014477D01*
X009058Y014477D02*
X009058Y014615D01*
X009057Y014615D02*
X009056Y014632D01*
X009051Y014649D01*
X009044Y014664D01*
X009034Y014678D01*
X009022Y014690D01*
X009008Y014700D01*
X008993Y014707D01*
X008976Y014712D01*
X008959Y014713D01*
X008900Y014713D01*
X008883Y014712D01*
X008866Y014707D01*
X008851Y014700D01*
X008837Y014690D01*
X008825Y014678D01*
X008815Y014664D01*
X008808Y014649D01*
X008803Y014632D01*
X008802Y014615D01*
X008802Y014477D01*
X008803Y014460D01*
X008808Y014443D01*
X008815Y014428D01*
X008825Y014414D01*
X008837Y014402D01*
X008851Y014392D01*
X008866Y014385D01*
X008883Y014380D01*
X008900Y014379D01*
X008241Y015481D02*
X008152Y015481D01*
X008132Y015483D01*
X008112Y015488D01*
X008093Y015497D01*
X008076Y015509D01*
X008062Y015523D01*
X008050Y015540D01*
X008041Y015559D01*
X008036Y015579D01*
X008034Y015599D01*
X008034Y015954D01*
X008036Y015974D01*
X008041Y015994D01*
X008050Y016013D01*
X008062Y016030D01*
X008076Y016044D01*
X008093Y016056D01*
X008112Y016065D01*
X008132Y016070D01*
X008152Y016072D01*
X008241Y016072D01*
X008261Y016070D01*
X008281Y016065D01*
X008300Y016056D01*
X008317Y016044D01*
X008331Y016030D01*
X008343Y016013D01*
X008352Y015994D01*
X008357Y015974D01*
X008359Y015954D01*
X008359Y015599D01*
X008357Y015579D01*
X008352Y015559D01*
X008343Y015540D01*
X008331Y015523D01*
X008317Y015509D01*
X008300Y015497D01*
X008281Y015488D01*
X008261Y015483D01*
X008241Y015481D01*
X010554Y014615D02*
X010554Y014477D01*
X010555Y014460D01*
X010560Y014443D01*
X010567Y014428D01*
X010577Y014414D01*
X010589Y014402D01*
X010603Y014392D01*
X010618Y014385D01*
X010635Y014380D01*
X010652Y014379D01*
X010711Y014379D01*
X010728Y014380D01*
X010745Y014385D01*
X010760Y014392D01*
X010774Y014402D01*
X010786Y014414D01*
X010796Y014428D01*
X010803Y014443D01*
X010808Y014460D01*
X010809Y014477D01*
X010810Y014477D02*
X010810Y014615D01*
X010809Y014615D02*
X010808Y014632D01*
X010803Y014649D01*
X010796Y014664D01*
X010786Y014678D01*
X010774Y014690D01*
X010760Y014700D01*
X010745Y014707D01*
X010728Y014712D01*
X010711Y014713D01*
X010652Y014713D01*
X010635Y014712D01*
X010618Y014707D01*
X010603Y014700D01*
X010589Y014690D01*
X010577Y014678D01*
X010567Y014664D01*
X010560Y014649D01*
X010555Y014632D01*
X010554Y014615D01*
X011371Y015481D02*
X011459Y015481D01*
X011479Y015483D01*
X011499Y015488D01*
X011518Y015497D01*
X011535Y015509D01*
X011549Y015523D01*
X011561Y015540D01*
X011570Y015559D01*
X011575Y015579D01*
X011577Y015599D01*
X011578Y015599D02*
X011578Y015954D01*
X011577Y015954D02*
X011575Y015974D01*
X011570Y015994D01*
X011561Y016013D01*
X011549Y016030D01*
X011535Y016044D01*
X011518Y016056D01*
X011499Y016065D01*
X011479Y016070D01*
X011459Y016072D01*
X011371Y016072D01*
X011351Y016070D01*
X011331Y016065D01*
X011312Y016056D01*
X011295Y016044D01*
X011281Y016030D01*
X011269Y016013D01*
X011260Y015994D01*
X011255Y015974D01*
X011253Y015954D01*
X011253Y015599D01*
X011255Y015579D01*
X011260Y015559D01*
X011269Y015540D01*
X011281Y015523D01*
X011295Y015509D01*
X011312Y015497D01*
X011331Y015488D01*
X011351Y015483D01*
X011371Y015481D01*
M02*
