G75*
%MOIN*%
%OFA0B0*%
%FSLAX24Y24*%
%IPPOS*%
%LPD*%
%AMOC8*
5,1,8,0,0,1.08239X$1,22.5*
%
%ADD10C,0.0000*%
%ADD11R,0.0094X0.0472*%
%ADD12R,0.0472X0.0094*%
%ADD13R,0.0433X0.0394*%
%ADD14R,0.0354X0.0394*%
%ADD15R,0.0413X0.0472*%
%ADD16R,0.0197X0.0394*%
%ADD17R,0.0669X0.0945*%
%ADD18R,0.0394X0.0433*%
%ADD19R,0.0256X0.0335*%
%ADD20R,0.0157X0.0531*%
%ADD21R,0.0709X0.0748*%
%ADD22C,0.0150*%
%ADD23C,0.0165*%
%ADD24OC8,0.0640*%
%ADD25C,0.0640*%
%ADD26C,0.0236*%
%ADD27C,0.0118*%
%ADD28C,0.0079*%
%ADD29C,0.0098*%
D10*
X000357Y000550D02*
X000357Y016298D01*
X013743Y016298D01*
X013743Y000550D01*
X000357Y000550D01*
D11*
X005574Y006456D03*
X005770Y006456D03*
X005967Y006456D03*
X006164Y006456D03*
X006361Y006456D03*
X006558Y006456D03*
X006755Y006456D03*
X006952Y006456D03*
X007148Y006456D03*
X007345Y006456D03*
X007542Y006456D03*
X007739Y006456D03*
X007936Y006456D03*
X008133Y006456D03*
X008330Y006456D03*
X008526Y006456D03*
X008526Y011180D03*
X008330Y011180D03*
X008133Y011180D03*
X007936Y011180D03*
X007739Y011180D03*
X007542Y011180D03*
X007345Y011180D03*
X007148Y011180D03*
X006952Y011180D03*
X006755Y011180D03*
X006558Y011180D03*
X006361Y011180D03*
X006164Y011180D03*
X005967Y011180D03*
X005770Y011180D03*
X005574Y011180D03*
D12*
X004688Y010294D03*
X004688Y010097D03*
X004688Y009900D03*
X004688Y009704D03*
X004688Y009507D03*
X004688Y009310D03*
X004688Y009113D03*
X004688Y008916D03*
X004688Y008719D03*
X004688Y008522D03*
X004688Y008326D03*
X004688Y008129D03*
X004688Y007932D03*
X004688Y007735D03*
X004688Y007538D03*
X004688Y007341D03*
X009412Y007341D03*
X009412Y007538D03*
X009412Y007735D03*
X009412Y007932D03*
X009412Y008129D03*
X009412Y008326D03*
X009412Y008522D03*
X009412Y008719D03*
X009412Y008916D03*
X009412Y009113D03*
X009412Y009310D03*
X009412Y009507D03*
X009412Y009704D03*
X009412Y009900D03*
X009412Y010097D03*
X009412Y010294D03*
D13*
X009471Y011081D03*
X010141Y011081D03*
X010298Y012814D03*
X010298Y013483D03*
X009412Y013483D03*
X009412Y012814D03*
X008526Y012814D03*
X008526Y013483D03*
X005810Y012066D03*
X005141Y012066D03*
X002857Y011318D03*
X002857Y010648D03*
X004255Y006456D03*
X004924Y006456D03*
D14*
X004904Y005589D03*
X004904Y004959D03*
X004904Y003621D03*
X004904Y002991D03*
X003290Y002991D03*
X003290Y003621D03*
X003290Y004959D03*
X003290Y005589D03*
D15*
X002828Y013089D03*
X002828Y014841D03*
X006942Y014841D03*
X006942Y013089D03*
D16*
X006400Y015475D03*
X005967Y015475D03*
X005534Y015475D03*
X005101Y015475D03*
X004806Y015475D03*
X004530Y015475D03*
X004235Y015475D03*
X003802Y015475D03*
X003369Y015475D03*
D17*
X005928Y004585D03*
X007385Y004585D03*
D18*
X010751Y011081D03*
X011420Y011081D03*
D19*
X008202Y003591D03*
X007867Y003591D03*
X007867Y003020D03*
X008202Y003020D03*
X006824Y003020D03*
X006489Y003020D03*
X006489Y003591D03*
X006824Y003591D03*
D20*
X009294Y014674D03*
X009550Y014674D03*
X009806Y014674D03*
X010062Y014674D03*
X010318Y014674D03*
D21*
X010259Y015776D03*
X009353Y015776D03*
D22*
X008707Y016075D02*
X008031Y016075D01*
X008707Y016075D02*
X008707Y015477D01*
X008031Y015477D01*
X008031Y016075D01*
X008031Y015626D02*
X008707Y015626D01*
X008707Y015775D02*
X008031Y015775D01*
X008031Y015924D02*
X008707Y015924D01*
X008707Y016073D02*
X008031Y016073D01*
X010905Y016075D02*
X011581Y016075D01*
X011581Y015477D01*
X010905Y015477D01*
X010905Y016075D01*
X010905Y015626D02*
X011581Y015626D01*
X011581Y015775D02*
X010905Y015775D01*
X010905Y015924D02*
X011581Y015924D01*
X011581Y016073D02*
X010905Y016073D01*
D23*
X010806Y014710D02*
X010558Y014710D01*
X010806Y014710D02*
X010806Y014382D01*
X010558Y014382D01*
X010558Y014710D01*
X010558Y014546D02*
X010806Y014546D01*
X010806Y014710D02*
X010558Y014710D01*
X009054Y014710D02*
X008806Y014710D01*
X009054Y014710D02*
X009054Y014382D01*
X008806Y014382D01*
X008806Y014710D01*
X008806Y014546D02*
X009054Y014546D01*
X009054Y014710D02*
X008806Y014710D01*
D24*
X010550Y004550D03*
X010550Y003550D03*
X010550Y002550D03*
X010550Y001550D03*
X011550Y001550D03*
X012550Y001550D03*
X012550Y002550D03*
X011550Y002550D03*
X011550Y003550D03*
X012550Y003550D03*
X012550Y004550D03*
X011550Y004550D03*
X001550Y001550D03*
D25*
X001326Y002550D02*
X001774Y002550D01*
X002550Y001774D02*
X002550Y001326D01*
X003550Y001326D02*
X003550Y001774D01*
X004550Y001774D02*
X004550Y001326D01*
X005550Y001326D02*
X005550Y001774D01*
X006550Y001774D02*
X006550Y001326D01*
X007550Y001326D02*
X007550Y001774D01*
X008550Y001774D02*
X008550Y001326D01*
X009550Y001326D02*
X009550Y001774D01*
X012326Y005550D02*
X012774Y005550D01*
X012774Y006550D02*
X012326Y006550D01*
X012326Y007550D02*
X012774Y007550D01*
X012774Y008550D02*
X012326Y008550D01*
X012326Y009550D02*
X012774Y009550D01*
X012774Y010550D02*
X012326Y010550D01*
X012326Y011550D02*
X012774Y011550D01*
X012774Y012550D02*
X012326Y012550D01*
X012326Y013550D02*
X012774Y013550D01*
X012774Y014550D02*
X012326Y014550D01*
X012326Y015550D02*
X012774Y015550D01*
X001774Y015550D02*
X001326Y015550D01*
X001326Y014550D02*
X001774Y014550D01*
X001774Y013550D02*
X001326Y013550D01*
X001326Y012550D02*
X001774Y012550D01*
X001774Y011550D02*
X001326Y011550D01*
X001326Y010550D02*
X001774Y010550D01*
X001774Y009550D02*
X001326Y009550D01*
X001326Y008550D02*
X001774Y008550D01*
X001774Y007550D02*
X001326Y007550D01*
X001326Y006550D02*
X001774Y006550D01*
X001774Y005550D02*
X001326Y005550D01*
X001326Y004550D02*
X001774Y004550D01*
X001774Y003550D02*
X001326Y003550D01*
D26*
X003507Y004585D03*
X004688Y004585D03*
X004688Y004093D03*
X005278Y003306D03*
X004491Y003011D03*
X003704Y003011D03*
X005672Y005668D03*
X005869Y005963D03*
X006361Y005274D03*
X006853Y005570D03*
X007050Y005274D03*
X007641Y006948D03*
X008034Y006948D03*
X008920Y006948D03*
X010298Y007637D03*
X011085Y009015D03*
X011627Y008818D03*
X010790Y009999D03*
X009904Y010196D03*
X009412Y011574D03*
X008428Y011672D03*
X008231Y011967D03*
X007837Y011967D03*
X007641Y011672D03*
X007444Y011967D03*
X007050Y011967D03*
X007542Y013050D03*
X006952Y013690D03*
X005770Y013641D03*
X005081Y013444D03*
X004294Y013148D03*
X005278Y011475D03*
X004491Y011081D03*
X003999Y011180D03*
X003704Y010983D03*
X004097Y010491D03*
X003802Y010196D03*
X003211Y009605D03*
X002877Y009605D03*
X002522Y009015D03*
X003999Y007243D03*
X004491Y007046D03*
X005377Y006948D03*
X005377Y007932D03*
X005377Y008326D03*
X006459Y008227D03*
X007542Y009408D03*
X008231Y009015D03*
X008330Y009704D03*
X007739Y010589D03*
X007148Y010589D03*
X006755Y010589D03*
X006263Y010589D03*
X006361Y009900D03*
X008133Y014133D03*
X009511Y014133D03*
X010692Y013345D03*
X005790Y015865D03*
X004491Y015865D03*
X008526Y003011D03*
X007444Y002814D03*
X006853Y002617D03*
X006459Y002617D03*
D27*
X006656Y002474D02*
X006595Y002413D01*
X006507Y002377D01*
X006412Y002377D01*
X006323Y002413D01*
X006256Y002481D01*
X006219Y002569D01*
X006219Y002665D01*
X006256Y002753D01*
X006272Y002769D01*
X006239Y002803D01*
X006239Y003238D01*
X006307Y003306D01*
X006239Y003373D01*
X006239Y003410D01*
X005512Y003410D01*
X005524Y003381D01*
X005534Y003331D01*
X005534Y003306D01*
X005278Y003306D01*
X005278Y003562D01*
X005253Y003562D01*
X005219Y003555D01*
X005219Y003591D01*
X004934Y003591D01*
X004934Y003650D01*
X005219Y003650D01*
X005219Y003699D01*
X005376Y003542D01*
X005353Y003552D01*
X005304Y003562D01*
X005278Y003562D01*
X005278Y003306D01*
X005278Y003306D01*
X005278Y003306D01*
X005278Y003050D01*
X005253Y003050D01*
X005204Y003060D01*
X005204Y003060D01*
X005204Y002744D01*
X005132Y002672D01*
X004677Y002672D01*
X004605Y002744D01*
X004605Y002798D01*
X004539Y002770D01*
X004443Y002770D01*
X004357Y002806D01*
X004357Y002782D01*
X004558Y002581D01*
X004747Y002581D01*
X005240Y002089D01*
X005300Y002149D01*
X005462Y002216D01*
X005638Y002216D01*
X005800Y002149D01*
X005925Y002024D01*
X005992Y001862D01*
X005992Y001238D01*
X005925Y001076D01*
X005800Y000951D01*
X005638Y000884D01*
X005462Y000884D01*
X005300Y000951D01*
X005175Y001076D01*
X005108Y001238D01*
X005108Y001764D01*
X004979Y001892D01*
X004992Y001862D01*
X004992Y001238D01*
X004925Y001076D01*
X004800Y000951D01*
X004638Y000884D01*
X004462Y000884D01*
X004300Y000951D01*
X004175Y001076D01*
X004108Y001238D01*
X004108Y001821D01*
X003880Y002090D01*
X003837Y002133D01*
X003837Y002140D01*
X003832Y002146D01*
X003837Y002206D01*
X003837Y002806D01*
X003751Y002770D01*
X003656Y002770D01*
X003589Y002798D01*
X003589Y002744D01*
X003518Y002672D01*
X003452Y002672D01*
X003452Y002507D01*
X003574Y002385D01*
X003668Y002290D01*
X003668Y002204D01*
X003800Y002149D01*
X003925Y002024D01*
X003992Y001862D01*
X003992Y001238D01*
X003925Y001076D01*
X003800Y000951D01*
X003638Y000884D01*
X003462Y000884D01*
X003300Y000951D01*
X003175Y001076D01*
X003108Y001238D01*
X003108Y001862D01*
X003175Y002024D01*
X003300Y002149D01*
X003337Y002164D01*
X003223Y002278D01*
X003223Y002278D01*
X003129Y002373D01*
X003129Y002672D01*
X003062Y002672D01*
X002991Y002744D01*
X002991Y003238D01*
X003052Y003300D01*
X003028Y003314D01*
X003003Y003339D01*
X002985Y003371D01*
X002975Y003406D01*
X002975Y003591D01*
X003261Y003591D01*
X003261Y003650D01*
X002975Y003650D01*
X002975Y003836D01*
X002985Y003871D01*
X003003Y003902D01*
X003028Y003928D01*
X003060Y003946D01*
X003095Y003956D01*
X003261Y003956D01*
X003261Y003650D01*
X003320Y003650D01*
X003605Y003650D01*
X003605Y003836D01*
X003596Y003871D01*
X003578Y003902D01*
X003552Y003928D01*
X003521Y003946D01*
X003485Y003956D01*
X003320Y003956D01*
X003320Y003650D01*
X003320Y003591D01*
X003605Y003591D01*
X003605Y003406D01*
X003596Y003371D01*
X003578Y003339D01*
X003552Y003314D01*
X003528Y003300D01*
X003589Y003238D01*
X003589Y003223D01*
X003656Y003251D01*
X003751Y003251D01*
X003837Y003215D01*
X003837Y005503D01*
X003605Y005735D01*
X003605Y005619D01*
X003320Y005619D01*
X003320Y005560D01*
X003605Y005560D01*
X003605Y005374D01*
X003596Y005339D01*
X003578Y005308D01*
X003552Y005282D01*
X003528Y005268D01*
X003589Y005207D01*
X003589Y004848D01*
X003604Y004805D01*
X003643Y004789D01*
X003710Y004721D01*
X003747Y004633D01*
X003747Y004538D01*
X003710Y004449D01*
X003643Y004382D01*
X003554Y004345D01*
X003459Y004345D01*
X003371Y004382D01*
X003303Y004449D01*
X003267Y004538D01*
X003267Y004633D01*
X003270Y004641D01*
X003062Y004641D01*
X002991Y004712D01*
X002991Y004826D01*
X002881Y004715D01*
X002881Y004026D01*
X002684Y003830D01*
X002684Y002197D01*
X002800Y002149D01*
X002925Y002024D01*
X002992Y001862D01*
X002992Y001238D01*
X002925Y001076D01*
X002800Y000951D01*
X002638Y000884D01*
X002462Y000884D01*
X002300Y000951D01*
X002175Y001076D01*
X002108Y001238D01*
X002108Y001862D01*
X002175Y002024D01*
X002300Y002149D01*
X002361Y002174D01*
X002361Y003115D01*
X002094Y002855D01*
X002149Y002800D01*
X002216Y002638D01*
X002216Y002462D01*
X002149Y002300D01*
X002024Y002175D01*
X001862Y002108D01*
X001238Y002108D01*
X001076Y002175D01*
X000951Y002300D01*
X000884Y002462D01*
X000884Y002638D01*
X000951Y002800D01*
X001076Y002925D01*
X001238Y002992D01*
X001772Y002992D01*
X001913Y003129D01*
X001862Y003108D01*
X001238Y003108D01*
X001076Y003175D01*
X000951Y003300D01*
X000884Y003462D01*
X000884Y003638D01*
X000951Y003800D01*
X001076Y003925D01*
X001238Y003992D01*
X001779Y003992D01*
X001931Y004136D01*
X001862Y004108D01*
X001238Y004108D01*
X001076Y004175D01*
X000951Y004300D01*
X000884Y004462D01*
X000884Y004638D01*
X000951Y004800D01*
X001076Y004925D01*
X001238Y004992D01*
X001764Y004992D01*
X001892Y005121D01*
X001862Y005108D01*
X001238Y005108D01*
X001076Y005175D01*
X000951Y005300D01*
X000884Y005462D01*
X000884Y005638D01*
X000951Y005800D01*
X001076Y005925D01*
X001238Y005992D01*
X001748Y005992D01*
X001865Y006109D01*
X001862Y006108D01*
X001238Y006108D01*
X001076Y006175D01*
X000951Y006300D01*
X000884Y006462D01*
X000884Y006638D01*
X000951Y006800D01*
X001076Y006925D01*
X001238Y006992D01*
X001862Y006992D01*
X002024Y006925D01*
X002149Y006800D01*
X002164Y006763D01*
X002164Y007337D01*
X002149Y007300D01*
X002024Y007175D01*
X001862Y007108D01*
X001238Y007108D01*
X001076Y007175D01*
X000951Y007300D01*
X000884Y007462D01*
X000884Y007638D01*
X000951Y007800D01*
X001076Y007925D01*
X001238Y007992D01*
X001862Y007992D01*
X002024Y007925D01*
X002149Y007800D01*
X002164Y007763D01*
X002164Y008196D01*
X002259Y008290D01*
X003117Y009148D01*
X002751Y009148D01*
X002656Y009243D01*
X002263Y009637D01*
X002263Y015213D01*
X002261Y015278D01*
X002263Y015280D01*
X002263Y015282D01*
X002308Y015328D01*
X002952Y016008D01*
X002952Y016011D01*
X002997Y016056D01*
X003042Y016103D01*
X003044Y016103D01*
X003046Y016105D01*
X003111Y016105D01*
X003175Y016107D01*
X003177Y016105D01*
X003985Y016105D01*
X004037Y016114D01*
X004050Y016105D01*
X004066Y016105D01*
X004103Y016068D01*
X004247Y015967D01*
X004263Y015967D01*
X004270Y015960D01*
X004287Y016001D01*
X004355Y016069D01*
X004443Y016105D01*
X004539Y016105D01*
X004627Y016069D01*
X004675Y016021D01*
X004719Y016066D01*
X005389Y016066D01*
X005483Y015971D01*
X005483Y015810D01*
X005534Y015810D01*
X005534Y015475D01*
X005534Y015475D01*
X005534Y015141D01*
X005483Y015141D01*
X005483Y013212D01*
X005485Y013210D01*
X005483Y013146D01*
X005483Y013082D01*
X005481Y013080D01*
X005481Y013077D01*
X005434Y013033D01*
X005389Y012987D01*
X005386Y012987D01*
X004751Y012390D01*
X004751Y011739D01*
X005022Y011467D01*
X005022Y011475D01*
X005278Y011475D01*
X005278Y011475D01*
X005278Y011475D01*
X005278Y011219D01*
X005253Y011219D01*
X005204Y011229D01*
X005157Y011248D01*
X005144Y011257D01*
X005144Y011148D01*
X005640Y010652D01*
X005735Y010558D01*
X005735Y008786D01*
X005837Y008684D01*
X005932Y008589D01*
X005932Y006814D01*
X006065Y006814D01*
X006066Y006813D01*
X006066Y006814D01*
X006262Y006814D01*
X006263Y006813D01*
X006263Y006814D01*
X006459Y006814D01*
X006459Y006813D01*
X006460Y006814D01*
X006656Y006814D01*
X006656Y006813D01*
X006657Y006814D01*
X006853Y006814D01*
X006853Y006813D01*
X006854Y006814D01*
X007049Y006814D01*
X007050Y006813D01*
X007051Y006814D01*
X007246Y006814D01*
X007247Y006813D01*
X007247Y006814D01*
X007422Y006814D01*
X007414Y006826D01*
X007394Y006873D01*
X007385Y006922D01*
X007385Y006948D01*
X007641Y006948D01*
X007641Y006948D01*
X007641Y007204D01*
X007666Y007204D01*
X007715Y007194D01*
X007762Y007174D01*
X007804Y007146D01*
X007839Y007111D01*
X007847Y007100D01*
X007898Y007151D01*
X007986Y007188D01*
X008046Y007188D01*
X008660Y007802D01*
X008660Y010263D01*
X008755Y010357D01*
X008853Y010456D01*
X009118Y010456D01*
X009125Y010463D01*
X009241Y010463D01*
X009241Y010763D01*
X009204Y010763D01*
X009133Y010834D01*
X009133Y011329D01*
X009204Y011400D01*
X009231Y011400D01*
X009231Y011415D01*
X009209Y011438D01*
X009172Y011526D01*
X009172Y011621D01*
X009209Y011710D01*
X009276Y011777D01*
X009364Y011814D01*
X009460Y011814D01*
X009548Y011777D01*
X009616Y011710D01*
X009652Y011621D01*
X009652Y011526D01*
X009616Y011438D01*
X009593Y011415D01*
X009593Y011400D01*
X009738Y011400D01*
X009800Y011339D01*
X009814Y011363D01*
X009839Y011389D01*
X009871Y011407D01*
X009906Y011416D01*
X010101Y011416D01*
X010101Y011121D01*
X010180Y011121D01*
X010180Y011416D01*
X010375Y011416D01*
X010410Y011407D01*
X010442Y011389D01*
X010446Y011385D01*
X010469Y011408D01*
X010501Y011426D01*
X010536Y011436D01*
X010711Y011436D01*
X010711Y011121D01*
X010711Y011042D01*
X010495Y011042D01*
X010180Y011042D01*
X010180Y010747D01*
X010375Y010747D01*
X010410Y010756D01*
X010442Y010774D01*
X010446Y010778D01*
X010469Y010755D01*
X010501Y010737D01*
X010536Y010727D01*
X010711Y010727D01*
X010711Y011042D01*
X010790Y011042D01*
X010790Y010727D01*
X010966Y010727D01*
X011001Y010737D01*
X011032Y010755D01*
X011058Y010780D01*
X011076Y010812D01*
X011085Y010847D01*
X011085Y011042D01*
X010790Y011042D01*
X010790Y011121D01*
X010711Y011121D01*
X010180Y011121D01*
X010180Y011042D01*
X010101Y011042D01*
X010101Y010747D01*
X009906Y010747D01*
X009871Y010756D01*
X009839Y010774D01*
X009814Y010800D01*
X009800Y010824D01*
X009738Y010763D01*
X009583Y010763D01*
X009583Y010463D01*
X009699Y010463D01*
X009766Y010397D01*
X009768Y010399D01*
X009857Y010436D01*
X009952Y010436D01*
X010040Y010399D01*
X010108Y010332D01*
X010333Y010558D01*
X010428Y010652D01*
X011117Y010652D01*
X011208Y010743D01*
X011173Y010743D01*
X011101Y010814D01*
X011101Y011349D01*
X011173Y011420D01*
X011318Y011420D01*
X011318Y011546D01*
X012011Y012240D01*
X011951Y012300D01*
X011884Y012462D01*
X011884Y012638D01*
X011951Y012800D01*
X012076Y012925D01*
X012238Y012992D01*
X012862Y012992D01*
X013024Y012925D01*
X013149Y012800D01*
X013216Y012638D01*
X013216Y012462D01*
X013149Y012300D01*
X013024Y012175D01*
X012862Y012108D01*
X012336Y012108D01*
X012208Y011979D01*
X012238Y011992D01*
X012862Y011992D01*
X013024Y011925D01*
X013149Y011800D01*
X013216Y011638D01*
X013216Y011462D01*
X013149Y011300D01*
X013024Y011175D01*
X012862Y011108D01*
X012336Y011108D01*
X012208Y010979D01*
X012238Y010992D01*
X012862Y010992D01*
X013024Y010925D01*
X013149Y010800D01*
X013216Y010638D01*
X013216Y010462D01*
X013149Y010300D01*
X013024Y010175D01*
X012862Y010108D01*
X012309Y010108D01*
X012161Y009960D01*
X012238Y009992D01*
X012862Y009992D01*
X013024Y009925D01*
X013149Y009800D01*
X013216Y009638D01*
X013216Y009462D01*
X013149Y009300D01*
X013024Y009175D01*
X012862Y009108D01*
X012238Y009108D01*
X012076Y009175D01*
X011951Y009300D01*
X011932Y009345D01*
X011054Y009345D01*
X010786Y009078D01*
X010852Y009078D01*
X010882Y009151D01*
X010949Y009218D01*
X011038Y009255D01*
X011133Y009255D01*
X011221Y009218D01*
X011289Y009151D01*
X011326Y009062D01*
X011326Y008967D01*
X011290Y008881D01*
X011393Y008881D01*
X011423Y008954D01*
X011491Y009021D01*
X011579Y009058D01*
X011675Y009058D01*
X011763Y009021D01*
X011830Y008954D01*
X011867Y008865D01*
X011867Y008770D01*
X011831Y008684D01*
X011903Y008684D01*
X011951Y008800D01*
X012076Y008925D01*
X012238Y008992D01*
X012862Y008992D01*
X013024Y008925D01*
X013149Y008800D01*
X013216Y008638D01*
X013216Y008462D01*
X013149Y008300D01*
X013024Y008175D01*
X012862Y008108D01*
X012238Y008108D01*
X012208Y008121D01*
X012336Y007992D01*
X012862Y007992D01*
X013024Y007925D01*
X013149Y007800D01*
X013216Y007638D01*
X013216Y007462D01*
X013149Y007300D01*
X013024Y007175D01*
X012862Y007108D01*
X012238Y007108D01*
X012208Y007121D01*
X012336Y006992D01*
X012862Y006992D01*
X013024Y006925D01*
X013149Y006800D01*
X013216Y006638D01*
X013216Y006462D01*
X013149Y006300D01*
X013024Y006175D01*
X012862Y006108D01*
X012238Y006108D01*
X012208Y006121D01*
X012336Y005992D01*
X012862Y005992D01*
X013024Y005925D01*
X013149Y005800D01*
X013216Y005638D01*
X013216Y005462D01*
X013149Y005300D01*
X013024Y005175D01*
X012862Y005108D01*
X012238Y005108D01*
X012208Y005121D01*
X012352Y004977D01*
X012367Y004992D01*
X012733Y004992D01*
X012992Y004733D01*
X012992Y004367D01*
X012733Y004108D01*
X012480Y004108D01*
X012596Y003992D01*
X012733Y003992D01*
X012992Y003733D01*
X012992Y003367D01*
X012733Y003108D01*
X012496Y003108D01*
X012612Y002992D01*
X012733Y002992D01*
X012992Y002733D01*
X012992Y002367D01*
X012733Y002108D01*
X012512Y002108D01*
X012628Y001992D01*
X012733Y001992D01*
X012992Y001733D01*
X012992Y001367D01*
X012733Y001108D01*
X012367Y001108D01*
X012108Y001367D01*
X012108Y001733D01*
X012269Y001894D01*
X012003Y002160D01*
X011908Y002255D01*
X011908Y002283D01*
X011733Y002108D01*
X011367Y002108D01*
X011108Y002367D01*
X011108Y002733D01*
X011269Y002894D01*
X011019Y003144D01*
X010924Y003239D01*
X010924Y003277D01*
X010740Y003092D01*
X010591Y003092D01*
X010591Y003509D01*
X010509Y003509D01*
X010509Y003092D01*
X010360Y003092D01*
X010092Y003360D01*
X010092Y003509D01*
X010509Y003509D01*
X010509Y003591D01*
X010092Y003591D01*
X010092Y003740D01*
X010284Y003932D01*
X009967Y003932D01*
X009967Y004048D02*
X010016Y004048D01*
X009967Y004097D02*
X010133Y003932D01*
X010284Y003932D01*
X010168Y003815D02*
X009967Y003815D01*
X009967Y003698D02*
X010092Y003698D01*
X009967Y003582D02*
X010509Y003582D01*
X010509Y003465D02*
X010591Y003465D01*
X010591Y003349D02*
X010509Y003349D01*
X010509Y003232D02*
X010591Y003232D01*
X010591Y003115D02*
X010509Y003115D01*
X010509Y003008D02*
X010360Y003008D01*
X010092Y002740D01*
X010092Y002591D01*
X010509Y002591D01*
X010509Y002509D01*
X010092Y002509D01*
X010092Y002360D01*
X010360Y002092D01*
X010509Y002092D01*
X010509Y002509D01*
X010591Y002509D01*
X010591Y002591D01*
X010509Y002591D01*
X010509Y003008D01*
X010509Y002999D02*
X010591Y002999D01*
X010591Y003008D02*
X010591Y002591D01*
X011008Y002591D01*
X011008Y002740D01*
X010740Y003008D01*
X010591Y003008D01*
X010591Y002882D02*
X010509Y002882D01*
X010509Y002766D02*
X010591Y002766D01*
X010591Y002649D02*
X010509Y002649D01*
X010509Y002532D02*
X009967Y002532D01*
X009967Y002416D02*
X010092Y002416D01*
X010153Y002299D02*
X009967Y002299D01*
X009967Y002183D02*
X010270Y002183D01*
X010360Y002008D02*
X010092Y001740D01*
X010092Y001591D01*
X010509Y001591D01*
X010509Y001509D01*
X010092Y001509D01*
X010092Y001360D01*
X010360Y001092D01*
X010509Y001092D01*
X010509Y001509D01*
X010591Y001509D01*
X010591Y001591D01*
X010509Y001591D01*
X010509Y002008D01*
X010360Y002008D01*
X010302Y001949D02*
X009967Y001949D01*
X009967Y001922D02*
X009967Y004097D01*
X009967Y003465D02*
X010092Y003465D01*
X010104Y003349D02*
X009967Y003349D01*
X009967Y003232D02*
X010221Y003232D01*
X010337Y003115D02*
X009967Y003115D01*
X009967Y002999D02*
X010351Y002999D01*
X010235Y002882D02*
X009967Y002882D01*
X009967Y002766D02*
X010118Y002766D01*
X010092Y002649D02*
X009967Y002649D01*
X010509Y002416D02*
X010591Y002416D01*
X010591Y002509D02*
X010591Y002092D01*
X010740Y002092D01*
X011008Y002360D01*
X011008Y002509D01*
X010591Y002509D01*
X010591Y002532D02*
X011108Y002532D01*
X011108Y002416D02*
X011008Y002416D01*
X010947Y002299D02*
X011176Y002299D01*
X011292Y002183D02*
X010830Y002183D01*
X010740Y002008D02*
X010591Y002008D01*
X010591Y001591D01*
X011008Y001591D01*
X011008Y001740D01*
X010740Y002008D01*
X010798Y001949D02*
X011324Y001949D01*
X011367Y001992D02*
X011108Y001733D01*
X011108Y001367D01*
X011367Y001108D01*
X011733Y001108D01*
X011992Y001367D01*
X011992Y001733D01*
X011733Y001992D01*
X011367Y001992D01*
X011208Y001833D02*
X010915Y001833D01*
X011008Y001716D02*
X011108Y001716D01*
X011108Y001599D02*
X011008Y001599D01*
X011008Y001509D02*
X010591Y001509D01*
X010591Y001092D01*
X010740Y001092D01*
X011008Y001360D01*
X011008Y001509D01*
X011008Y001483D02*
X011108Y001483D01*
X011109Y001366D02*
X011008Y001366D01*
X010897Y001250D02*
X011225Y001250D01*
X011342Y001133D02*
X010780Y001133D01*
X010591Y001133D02*
X010509Y001133D01*
X010509Y001250D02*
X010591Y001250D01*
X010591Y001366D02*
X010509Y001366D01*
X010509Y001483D02*
X010591Y001483D01*
X010591Y001599D02*
X010509Y001599D01*
X010509Y001716D02*
X010591Y001716D01*
X010591Y001833D02*
X010509Y001833D01*
X010509Y001949D02*
X010591Y001949D01*
X010591Y002183D02*
X010509Y002183D01*
X010509Y002299D02*
X010591Y002299D01*
X010185Y001833D02*
X009992Y001833D01*
X009992Y001862D02*
X009967Y001922D01*
X009992Y001862D02*
X009992Y001238D01*
X009925Y001076D01*
X009800Y000951D01*
X009638Y000884D01*
X009462Y000884D01*
X009300Y000951D01*
X009175Y001076D01*
X009108Y001238D01*
X009108Y001862D01*
X009121Y001892D01*
X008992Y001764D01*
X008992Y001238D01*
X008925Y001076D01*
X008800Y000951D01*
X008638Y000884D01*
X008462Y000884D01*
X008300Y000951D01*
X008175Y001076D01*
X008108Y001238D01*
X008108Y001862D01*
X008121Y001892D01*
X007992Y001764D01*
X007992Y001238D01*
X007925Y001076D01*
X007800Y000951D01*
X007638Y000884D01*
X007462Y000884D01*
X007300Y000951D01*
X007175Y001076D01*
X007108Y001238D01*
X007108Y001862D01*
X007121Y001892D01*
X006992Y001764D01*
X006992Y001238D01*
X006925Y001076D01*
X006800Y000951D01*
X006638Y000884D01*
X006462Y000884D01*
X006300Y000951D01*
X006175Y001076D01*
X006108Y001238D01*
X006108Y001862D01*
X006175Y002024D01*
X006300Y002149D01*
X006462Y002216D01*
X006638Y002216D01*
X006800Y002149D01*
X006860Y002089D01*
X007255Y002483D01*
X007967Y002483D01*
X008164Y002680D01*
X008656Y002680D01*
X009054Y003077D01*
X009054Y004322D01*
X008558Y004818D01*
X007967Y004818D01*
X007873Y004912D01*
X007841Y004944D01*
X007841Y004062D01*
X007770Y003991D01*
X006999Y003991D01*
X006928Y004062D01*
X006928Y004990D01*
X006918Y005006D01*
X006925Y005042D01*
X006921Y005068D01*
X006914Y005071D01*
X006872Y005113D01*
X006688Y005113D01*
X006593Y005208D01*
X006593Y005208D01*
X006565Y005138D01*
X006497Y005071D01*
X006409Y005034D01*
X006395Y005034D01*
X006385Y005019D01*
X006385Y004062D01*
X006313Y003991D01*
X005543Y003991D01*
X005471Y004062D01*
X005471Y005108D01*
X005543Y005180D01*
X006104Y005180D01*
X006126Y005213D01*
X006121Y005227D01*
X006121Y005322D01*
X006157Y005410D01*
X006200Y005453D01*
X006200Y005574D01*
X006133Y005507D01*
X005850Y005507D01*
X005808Y005465D01*
X005720Y005428D01*
X005624Y005428D01*
X005536Y005465D01*
X005468Y005532D01*
X005459Y005554D01*
X005459Y003971D01*
X005658Y003772D01*
X006239Y003772D01*
X006239Y003809D01*
X006310Y003881D01*
X007002Y003881D01*
X007074Y003809D01*
X007074Y003772D01*
X007617Y003772D01*
X007617Y003809D01*
X007688Y003881D01*
X008380Y003881D01*
X008452Y003809D01*
X008452Y003373D01*
X008384Y003306D01*
X008451Y003239D01*
X008479Y003251D01*
X008574Y003251D01*
X008662Y003214D01*
X008730Y003147D01*
X008767Y003058D01*
X008767Y002963D01*
X008730Y002875D01*
X008662Y002807D01*
X008574Y002770D01*
X008479Y002770D01*
X008437Y002788D01*
X008380Y002731D01*
X007688Y002731D01*
X007675Y002745D01*
X007647Y002678D01*
X007580Y002610D01*
X007491Y002574D01*
X007396Y002574D01*
X007308Y002610D01*
X007240Y002678D01*
X007204Y002766D01*
X007204Y002862D01*
X007240Y002950D01*
X007308Y003017D01*
X007396Y003054D01*
X007456Y003054D01*
X007574Y003172D01*
X007617Y003172D01*
X007617Y003238D01*
X007684Y003306D01*
X007617Y003373D01*
X007617Y003410D01*
X007074Y003410D01*
X007074Y003373D01*
X007006Y003306D01*
X007074Y003238D01*
X007074Y002803D01*
X007040Y002769D01*
X007057Y002753D01*
X007093Y002665D01*
X007093Y002569D01*
X007057Y002481D01*
X006989Y002413D01*
X006901Y002377D01*
X006805Y002377D01*
X006717Y002413D01*
X006656Y002474D01*
X006598Y002416D02*
X006715Y002416D01*
X006719Y002183D02*
X006954Y002183D01*
X007071Y002299D02*
X005029Y002299D01*
X005146Y002183D02*
X005381Y002183D01*
X005719Y002183D02*
X006381Y002183D01*
X006217Y002066D02*
X005883Y002066D01*
X005956Y001949D02*
X006144Y001949D01*
X006108Y001833D02*
X005992Y001833D01*
X005992Y001716D02*
X006108Y001716D01*
X006108Y001599D02*
X005992Y001599D01*
X005992Y001483D02*
X006108Y001483D01*
X006108Y001366D02*
X005992Y001366D01*
X005992Y001250D02*
X006108Y001250D01*
X006151Y001133D02*
X005949Y001133D01*
X005866Y001016D02*
X006234Y001016D01*
X006424Y000900D02*
X005676Y000900D01*
X005424Y000900D02*
X004676Y000900D01*
X004866Y001016D02*
X005234Y001016D01*
X005151Y001133D02*
X004949Y001133D01*
X004992Y001250D02*
X005108Y001250D01*
X005108Y001366D02*
X004992Y001366D01*
X004992Y001483D02*
X005108Y001483D01*
X005108Y001599D02*
X004992Y001599D01*
X004992Y001716D02*
X005108Y001716D01*
X005039Y001833D02*
X004992Y001833D01*
X004913Y002416D02*
X006321Y002416D01*
X006235Y002532D02*
X004796Y002532D01*
X004605Y002766D02*
X004374Y002766D01*
X004490Y002649D02*
X006219Y002649D01*
X006268Y002766D02*
X005204Y002766D01*
X005204Y002882D02*
X006239Y002882D01*
X006239Y002999D02*
X005204Y002999D01*
X005278Y003050D02*
X005304Y003050D01*
X005353Y003060D01*
X005400Y003079D01*
X005441Y003107D01*
X005477Y003143D01*
X005505Y003185D01*
X005524Y003231D01*
X005534Y003281D01*
X005534Y003306D01*
X005278Y003306D01*
X005278Y003050D01*
X005278Y003115D02*
X005278Y003115D01*
X005278Y003232D02*
X005278Y003232D01*
X005278Y003306D02*
X005278Y003306D01*
X005278Y003349D02*
X005278Y003349D01*
X005278Y003465D02*
X005278Y003465D01*
X005219Y003582D02*
X005337Y003582D01*
X005220Y003698D02*
X005219Y003698D01*
X005278Y003896D02*
X005278Y004093D01*
X004688Y004093D01*
X004599Y003870D02*
X004552Y003890D01*
X004484Y003957D01*
X004448Y004046D01*
X004448Y004141D01*
X004484Y004229D01*
X004552Y004297D01*
X004640Y004333D01*
X004736Y004333D01*
X004824Y004297D01*
X004846Y004274D01*
X005097Y004274D01*
X005097Y004641D01*
X004925Y004641D01*
X004928Y004633D01*
X004928Y004538D01*
X004891Y004449D01*
X004824Y004382D01*
X004736Y004345D01*
X004640Y004345D01*
X004552Y004382D01*
X004484Y004449D01*
X004448Y004538D01*
X004448Y004633D01*
X004484Y004721D01*
X004552Y004789D01*
X004604Y004811D01*
X004605Y004813D01*
X004605Y005207D01*
X004667Y005268D01*
X004643Y005282D01*
X004617Y005308D01*
X004599Y005339D01*
X004589Y005374D01*
X004589Y005560D01*
X004875Y005560D01*
X004875Y005619D01*
X004875Y005924D01*
X004709Y005924D01*
X004674Y005915D01*
X004643Y005896D01*
X004617Y005871D01*
X004599Y005839D01*
X004589Y005804D01*
X004589Y005619D01*
X004875Y005619D01*
X004934Y005619D01*
X004934Y005924D01*
X005100Y005924D01*
X005135Y005915D01*
X005166Y005896D01*
X005192Y005871D01*
X005204Y005850D01*
X005393Y006038D01*
X005393Y006274D01*
X005263Y006274D01*
X005263Y006208D01*
X005191Y006137D01*
X004657Y006137D01*
X004595Y006198D01*
X004582Y006174D01*
X004556Y006148D01*
X004524Y006130D01*
X004489Y006121D01*
X004294Y006121D01*
X004294Y006416D01*
X004215Y006416D01*
X003900Y006416D01*
X003900Y006241D01*
X003910Y006205D01*
X003928Y006174D01*
X003954Y006148D01*
X003985Y006130D01*
X004020Y006121D01*
X004215Y006121D01*
X004215Y006416D01*
X004215Y006495D01*
X003900Y006495D01*
X003900Y006671D01*
X003910Y006706D01*
X003928Y006737D01*
X003954Y006763D01*
X003985Y006781D01*
X004020Y006790D01*
X004215Y006790D01*
X004215Y006495D01*
X004294Y006495D01*
X004294Y006790D01*
X004489Y006790D01*
X004524Y006781D01*
X004556Y006763D01*
X004582Y006737D01*
X004595Y006713D01*
X004657Y006774D01*
X005191Y006774D01*
X005263Y006703D01*
X005263Y006637D01*
X005393Y006637D01*
X005393Y006676D01*
X005361Y006707D01*
X005329Y006707D01*
X005241Y006744D01*
X005173Y006812D01*
X005137Y006900D01*
X005137Y006932D01*
X004908Y007160D01*
X004721Y007160D01*
X004737Y007121D01*
X004747Y007071D01*
X004747Y007046D01*
X004491Y007046D01*
X004491Y007046D01*
X004491Y006790D01*
X004516Y006790D01*
X004566Y006800D01*
X004612Y006819D01*
X004654Y006847D01*
X004690Y006883D01*
X004718Y006925D01*
X004737Y006971D01*
X004747Y007021D01*
X004747Y007046D01*
X004491Y007046D01*
X004491Y007046D01*
X004491Y006790D01*
X004466Y006790D01*
X004416Y006800D01*
X004370Y006819D01*
X004328Y006847D01*
X003668Y006847D01*
X003668Y006964D02*
X004248Y006964D01*
X004245Y006971D02*
X004264Y006925D01*
X004292Y006883D01*
X004328Y006847D01*
X004294Y006730D02*
X004215Y006730D01*
X004215Y006614D02*
X004294Y006614D01*
X004294Y006497D02*
X004215Y006497D01*
X004215Y006381D02*
X004294Y006381D01*
X004294Y006264D02*
X004215Y006264D01*
X004215Y006147D02*
X004294Y006147D01*
X004554Y006147D02*
X004646Y006147D01*
X004673Y005914D02*
X004178Y005914D01*
X004263Y005830D02*
X004357Y005735D01*
X004357Y003215D01*
X004443Y003251D01*
X004539Y003251D01*
X004605Y003223D01*
X004605Y003238D01*
X004667Y003300D01*
X004643Y003314D01*
X004617Y003339D01*
X004599Y003371D01*
X004589Y003406D01*
X004589Y003591D01*
X004875Y003591D01*
X004875Y003650D01*
X004589Y003650D01*
X004589Y003836D01*
X004599Y003870D01*
X004589Y003815D02*
X004357Y003815D01*
X004357Y003698D02*
X004589Y003698D01*
X004589Y003582D02*
X004357Y003582D01*
X004357Y003465D02*
X004589Y003465D01*
X004612Y003349D02*
X004357Y003349D01*
X004357Y003232D02*
X004398Y003232D01*
X004584Y003232D02*
X004605Y003232D01*
X004510Y003932D02*
X004357Y003932D01*
X004357Y004048D02*
X004448Y004048D01*
X004458Y004165D02*
X004357Y004165D01*
X004357Y004282D02*
X004536Y004282D01*
X004535Y004398D02*
X004357Y004398D01*
X004357Y004515D02*
X004457Y004515D01*
X004448Y004631D02*
X004357Y004631D01*
X004357Y004748D02*
X004511Y004748D01*
X004605Y004865D02*
X004357Y004865D01*
X004357Y004981D02*
X004605Y004981D01*
X004605Y005098D02*
X004357Y005098D01*
X004357Y005214D02*
X004613Y005214D01*
X004604Y005331D02*
X004357Y005331D01*
X004357Y005448D02*
X004589Y005448D01*
X004589Y005681D02*
X004357Y005681D01*
X004357Y005564D02*
X004875Y005564D01*
X004875Y005681D02*
X004934Y005681D01*
X004934Y005797D02*
X004875Y005797D01*
X004875Y005914D02*
X004934Y005914D01*
X005136Y005914D02*
X005268Y005914D01*
X005385Y006031D02*
X004061Y006031D01*
X003955Y006147D02*
X003945Y006147D01*
X003900Y006264D02*
X003828Y006264D01*
X003900Y006381D02*
X003712Y006381D01*
X003668Y006424D02*
X004263Y005830D01*
X004295Y005797D02*
X004589Y005797D01*
X005202Y006147D02*
X005393Y006147D01*
X005393Y006264D02*
X005263Y006264D01*
X005574Y006456D02*
X005574Y006751D01*
X005377Y006948D01*
X004983Y007341D01*
X004688Y007341D01*
X004097Y007341D01*
X003999Y007243D01*
X004225Y007160D02*
X004261Y007160D01*
X004245Y007121D01*
X004235Y007071D01*
X004235Y007046D01*
X004235Y007021D01*
X004245Y006971D01*
X004235Y007046D02*
X004491Y007046D01*
X004491Y007046D01*
X004235Y007046D01*
X004237Y007080D02*
X004176Y007080D01*
X004202Y007107D02*
X004225Y007160D01*
X004202Y007107D02*
X004135Y007039D01*
X004047Y007003D01*
X003951Y007003D01*
X003863Y007039D01*
X003795Y007107D01*
X003759Y007195D01*
X003759Y007291D01*
X003795Y007379D01*
X003863Y007447D01*
X003951Y007483D01*
X003983Y007483D01*
X004022Y007522D01*
X004314Y007522D01*
X004314Y007538D01*
X004688Y007538D01*
X004688Y007538D01*
X005062Y007538D01*
X005062Y007519D01*
X005164Y007416D01*
X005393Y007188D01*
X005425Y007188D01*
X005513Y007151D01*
X005580Y007084D01*
X005609Y007014D01*
X005609Y007865D01*
X005580Y007796D01*
X005513Y007728D01*
X005425Y007692D01*
X005329Y007692D01*
X005241Y007728D01*
X005199Y007770D01*
X005046Y007770D01*
X005046Y007650D01*
X005052Y007639D01*
X005062Y007604D01*
X005062Y007538D01*
X004688Y007538D01*
X004688Y007538D01*
X004314Y007538D01*
X004314Y007574D01*
X003770Y007574D01*
X003668Y007471D01*
X003668Y006424D01*
X003668Y006497D02*
X003900Y006497D01*
X003900Y006614D02*
X003668Y006614D01*
X003668Y006730D02*
X003924Y006730D01*
X003822Y007080D02*
X003668Y007080D01*
X003668Y007197D02*
X003759Y007197D01*
X003768Y007313D02*
X003668Y007313D01*
X003668Y007430D02*
X003846Y007430D01*
X003743Y007547D02*
X004314Y007547D01*
X004745Y007080D02*
X004988Y007080D01*
X005105Y006964D02*
X004734Y006964D01*
X004654Y006847D02*
X005159Y006847D01*
X005235Y006730D02*
X005274Y006730D01*
X005574Y006456D02*
X005574Y005963D01*
X005278Y005668D01*
X005278Y004093D01*
X005459Y004048D02*
X005485Y004048D01*
X005499Y003932D02*
X009054Y003932D01*
X009054Y004048D02*
X007827Y004048D01*
X007841Y004165D02*
X009054Y004165D01*
X009054Y004282D02*
X007841Y004282D01*
X007841Y004398D02*
X008978Y004398D01*
X008861Y004515D02*
X007841Y004515D01*
X007841Y004631D02*
X008744Y004631D01*
X008628Y004748D02*
X007841Y004748D01*
X007841Y004865D02*
X007921Y004865D01*
X006928Y004865D02*
X006385Y004865D01*
X006385Y004981D02*
X006928Y004981D01*
X006887Y005098D02*
X006524Y005098D01*
X006385Y004748D02*
X006928Y004748D01*
X006928Y004631D02*
X006385Y004631D01*
X006385Y004515D02*
X006928Y004515D01*
X006928Y004398D02*
X006385Y004398D01*
X006385Y004282D02*
X006928Y004282D01*
X006928Y004165D02*
X006385Y004165D01*
X006371Y004048D02*
X006942Y004048D01*
X007068Y003815D02*
X007623Y003815D01*
X007867Y003591D02*
X006824Y003591D01*
X006489Y003591D01*
X005583Y003591D01*
X005278Y003896D01*
X005459Y004165D02*
X005471Y004165D01*
X005459Y004282D02*
X005471Y004282D01*
X005459Y004398D02*
X005471Y004398D01*
X005459Y004515D02*
X005471Y004515D01*
X005459Y004631D02*
X005471Y004631D01*
X005459Y004748D02*
X005471Y004748D01*
X005459Y004865D02*
X005471Y004865D01*
X005459Y004981D02*
X005471Y004981D01*
X005459Y005098D02*
X005471Y005098D01*
X005459Y005214D02*
X006126Y005214D01*
X006125Y005331D02*
X005459Y005331D01*
X005459Y005448D02*
X005577Y005448D01*
X005767Y005448D02*
X006195Y005448D01*
X006190Y005564D02*
X006200Y005564D01*
X005574Y006456D02*
X004924Y006456D01*
X004613Y006730D02*
X004585Y006730D01*
X004491Y006847D02*
X004491Y006847D01*
X004491Y006964D02*
X004491Y006964D01*
X005062Y007547D02*
X005609Y007547D01*
X005609Y007663D02*
X005046Y007663D01*
X005151Y007430D02*
X005609Y007430D01*
X005609Y007313D02*
X005267Y007313D01*
X005384Y007197D02*
X005609Y007197D01*
X005609Y007080D02*
X005582Y007080D01*
X005932Y007080D02*
X007421Y007080D01*
X007414Y007069D02*
X007442Y007111D01*
X007477Y007146D01*
X007519Y007174D01*
X007566Y007194D01*
X007615Y007204D01*
X007641Y007204D01*
X007641Y006948D01*
X007641Y006948D01*
X007385Y006948D01*
X007385Y006973D01*
X007394Y007022D01*
X007414Y007069D01*
X007385Y006964D02*
X005932Y006964D01*
X005932Y006847D02*
X007405Y006847D01*
X007641Y006964D02*
X007641Y006964D01*
X007641Y007080D02*
X007641Y007080D01*
X007641Y007197D02*
X007641Y007197D01*
X007700Y007197D02*
X008055Y007197D01*
X008172Y007313D02*
X005932Y007313D01*
X005932Y007197D02*
X007581Y007197D01*
X008274Y006960D02*
X008274Y006900D01*
X008239Y006814D01*
X008427Y006814D01*
X008428Y006813D01*
X008429Y006814D01*
X008624Y006814D01*
X008696Y006742D01*
X008696Y006617D01*
X010365Y006617D01*
X011613Y005369D01*
X011613Y005897D01*
X010330Y007180D01*
X009707Y007180D01*
X009699Y007172D01*
X009125Y007172D01*
X009054Y007244D01*
X009054Y007427D01*
X009048Y007438D01*
X009038Y007473D01*
X009038Y007538D01*
X009412Y007538D01*
X009412Y007538D01*
X009038Y007538D01*
X009038Y007574D01*
X008889Y007574D01*
X008274Y006960D01*
X008278Y006964D02*
X008664Y006964D01*
X008664Y006973D02*
X008664Y006948D01*
X008920Y006948D01*
X008920Y007204D01*
X008895Y007204D01*
X008845Y007194D01*
X008799Y007174D01*
X008757Y007146D01*
X008721Y007111D01*
X008693Y007069D01*
X008674Y007022D01*
X008664Y006973D01*
X008664Y006948D02*
X008664Y006922D01*
X008674Y006873D01*
X008693Y006826D01*
X008721Y006785D01*
X008757Y006749D01*
X008799Y006721D01*
X008845Y006702D01*
X008895Y006692D01*
X008920Y006692D01*
X008920Y006948D01*
X008920Y006948D01*
X008920Y007204D01*
X008945Y007204D01*
X008995Y007194D01*
X009041Y007174D01*
X009083Y007146D01*
X009119Y007111D01*
X009147Y007069D01*
X009166Y007022D01*
X009176Y006973D01*
X009176Y006948D01*
X008920Y006948D01*
X008920Y006948D01*
X008920Y006948D01*
X008664Y006948D01*
X008685Y006847D02*
X008252Y006847D01*
X008395Y007080D02*
X008701Y007080D01*
X008861Y007197D02*
X008512Y007197D01*
X008628Y007313D02*
X009054Y007313D01*
X009052Y007430D02*
X008745Y007430D01*
X008862Y007547D02*
X009038Y007547D01*
X008979Y007197D02*
X009101Y007197D01*
X009139Y007080D02*
X010429Y007080D01*
X010546Y006964D02*
X009176Y006964D01*
X009176Y006948D02*
X008920Y006948D01*
X008920Y006948D01*
X008920Y006692D01*
X008945Y006692D01*
X008995Y006702D01*
X009041Y006721D01*
X009083Y006749D01*
X009119Y006785D01*
X009147Y006826D01*
X009166Y006873D01*
X009176Y006922D01*
X009176Y006948D01*
X009155Y006847D02*
X010663Y006847D01*
X010779Y006730D02*
X009056Y006730D01*
X008920Y006730D02*
X008920Y006730D01*
X008920Y006847D02*
X008920Y006847D01*
X008920Y006964D02*
X008920Y006964D01*
X008920Y007080D02*
X008920Y007080D01*
X008920Y007197D02*
X008920Y007197D01*
X008785Y006730D02*
X008696Y006730D01*
X008288Y007430D02*
X005932Y007430D01*
X005932Y007547D02*
X008405Y007547D01*
X008522Y007663D02*
X005932Y007663D01*
X005932Y007780D02*
X008638Y007780D01*
X008660Y007896D02*
X005932Y007896D01*
X005932Y008013D02*
X006319Y008013D01*
X006338Y008000D02*
X006385Y007981D01*
X006434Y007971D01*
X006459Y007971D01*
X006459Y008227D01*
X006204Y008227D01*
X006204Y008202D01*
X006213Y008153D01*
X006233Y008106D01*
X006261Y008064D01*
X006296Y008028D01*
X006338Y008000D01*
X006459Y008013D02*
X006459Y008013D01*
X006459Y007971D02*
X006485Y007971D01*
X006534Y007981D01*
X006581Y008000D01*
X006623Y008028D01*
X006658Y008064D01*
X006686Y008106D01*
X006706Y008153D01*
X006715Y008202D01*
X006715Y008227D01*
X006459Y008227D01*
X006459Y008227D01*
X006459Y008227D01*
X006204Y008227D01*
X006204Y008252D01*
X006213Y008302D01*
X006233Y008348D01*
X006261Y008390D01*
X006296Y008426D01*
X006338Y008454D01*
X006385Y008473D01*
X006434Y008483D01*
X006459Y008483D01*
X006459Y008227D01*
X006459Y008227D01*
X006459Y007971D01*
X006600Y008013D02*
X008660Y008013D01*
X008660Y008130D02*
X006696Y008130D01*
X006715Y008227D02*
X006715Y008252D01*
X006706Y008302D01*
X006686Y008348D01*
X006658Y008390D01*
X006623Y008426D01*
X006581Y008454D01*
X006534Y008473D01*
X006485Y008483D01*
X006459Y008483D01*
X006459Y008227D01*
X006459Y008227D01*
X006715Y008227D01*
X006715Y008246D02*
X008660Y008246D01*
X008660Y008363D02*
X006677Y008363D01*
X006503Y008480D02*
X008660Y008480D01*
X008660Y008596D02*
X005925Y008596D01*
X005932Y008480D02*
X006416Y008480D01*
X006459Y008480D02*
X006459Y008480D01*
X006459Y008363D02*
X006459Y008363D01*
X006459Y008246D02*
X006459Y008246D01*
X006459Y008130D02*
X006459Y008130D01*
X006223Y008130D02*
X005932Y008130D01*
X005932Y008246D02*
X006204Y008246D01*
X006242Y008363D02*
X005932Y008363D01*
X005808Y008713D02*
X008660Y008713D01*
X008660Y008829D02*
X008408Y008829D01*
X008394Y008816D02*
X008430Y008851D01*
X008458Y008893D01*
X008477Y008940D01*
X008487Y008989D01*
X008487Y009015D01*
X008487Y009040D01*
X008477Y009089D01*
X008458Y009136D01*
X008430Y009178D01*
X008394Y009213D01*
X008352Y009241D01*
X008306Y009261D01*
X008256Y009270D01*
X008231Y009270D01*
X008206Y009270D01*
X008156Y009261D01*
X008110Y009241D01*
X008068Y009213D01*
X008032Y009178D01*
X008004Y009136D01*
X007985Y009089D01*
X007975Y009040D01*
X007975Y009015D01*
X008231Y009015D01*
X008231Y009270D01*
X008231Y009015D01*
X008231Y009015D01*
X008231Y009015D01*
X008487Y009015D01*
X008231Y009015D01*
X008231Y009015D01*
X007975Y009015D01*
X007975Y008989D01*
X007985Y008940D01*
X008004Y008893D01*
X008032Y008851D01*
X008068Y008816D01*
X008110Y008788D01*
X008156Y008768D01*
X008206Y008759D01*
X008231Y008759D01*
X008231Y009015D01*
X008231Y009015D01*
X008231Y008759D01*
X008256Y008759D01*
X008306Y008768D01*
X008352Y008788D01*
X008394Y008816D01*
X008478Y008946D02*
X008660Y008946D01*
X008660Y009063D02*
X008482Y009063D01*
X008428Y009179D02*
X008660Y009179D01*
X008660Y009296D02*
X007773Y009296D01*
X007769Y009287D02*
X007788Y009334D01*
X007798Y009383D01*
X007798Y009408D01*
X007542Y009408D01*
X007542Y009408D01*
X007542Y009152D01*
X007517Y009152D01*
X007467Y009162D01*
X007421Y009181D01*
X007379Y009209D01*
X007343Y009245D01*
X007315Y009287D01*
X007296Y009334D01*
X007286Y009383D01*
X007286Y009408D01*
X007542Y009408D01*
X007542Y009408D01*
X007542Y009152D01*
X007567Y009152D01*
X007617Y009162D01*
X007663Y009181D01*
X007705Y009209D01*
X007741Y009245D01*
X007769Y009287D01*
X007798Y009408D02*
X007542Y009408D01*
X007542Y009408D01*
X007286Y009408D01*
X007286Y009433D01*
X007296Y009483D01*
X007315Y009529D01*
X005735Y009529D01*
X005735Y009412D02*
X007286Y009412D01*
X007312Y009296D02*
X005735Y009296D01*
X005735Y009179D02*
X007426Y009179D01*
X007542Y009179D02*
X007542Y009179D01*
X007658Y009179D02*
X008034Y009179D01*
X007980Y009063D02*
X005735Y009063D01*
X005735Y008946D02*
X007984Y008946D01*
X008054Y008829D02*
X005735Y008829D01*
X005735Y009646D02*
X007446Y009646D01*
X007467Y009654D02*
X007421Y009635D01*
X007379Y009607D01*
X007343Y009571D01*
X007315Y009529D01*
X007467Y009654D02*
X007517Y009664D01*
X007542Y009664D01*
X007542Y009408D01*
X007542Y009408D01*
X007542Y009664D01*
X007567Y009664D01*
X007617Y009654D01*
X007663Y009635D01*
X007705Y009607D01*
X007741Y009571D01*
X007769Y009529D01*
X008142Y009529D01*
X008131Y009540D02*
X008166Y009505D01*
X008208Y009477D01*
X008255Y009457D01*
X008304Y009448D01*
X008330Y009448D01*
X008355Y009448D01*
X008404Y009457D01*
X008451Y009477D01*
X008493Y009505D01*
X008528Y009540D01*
X008556Y009582D01*
X008576Y009629D01*
X008585Y009678D01*
X008585Y009704D01*
X008585Y009729D01*
X008576Y009778D01*
X008556Y009825D01*
X008528Y009867D01*
X008493Y009902D01*
X008451Y009930D01*
X008404Y009950D01*
X008355Y009959D01*
X008330Y009959D01*
X008330Y009704D01*
X008585Y009704D01*
X008330Y009704D01*
X008330Y009704D01*
X008330Y009704D01*
X008330Y009959D01*
X008304Y009959D01*
X008255Y009950D01*
X008208Y009930D01*
X008166Y009902D01*
X008131Y009867D01*
X008103Y009825D01*
X008083Y009778D01*
X008074Y009729D01*
X008074Y009704D01*
X008330Y009704D01*
X008330Y009448D01*
X008330Y009704D01*
X008330Y009704D01*
X008330Y009704D01*
X008074Y009704D01*
X008074Y009678D01*
X008083Y009629D01*
X008103Y009582D01*
X008131Y009540D01*
X008080Y009646D02*
X007638Y009646D01*
X007542Y009646D02*
X007542Y009646D01*
X007542Y009529D02*
X007542Y009529D01*
X007542Y009412D02*
X007542Y009412D01*
X007542Y009296D02*
X007542Y009296D01*
X007798Y009408D02*
X007798Y009433D01*
X007788Y009483D01*
X007769Y009529D01*
X007798Y009412D02*
X008660Y009412D01*
X008660Y009529D02*
X008517Y009529D01*
X008579Y009646D02*
X008660Y009646D01*
X008660Y009762D02*
X008579Y009762D01*
X008516Y009879D02*
X008660Y009879D01*
X008660Y009995D02*
X006582Y009995D01*
X006565Y010036D02*
X006497Y010104D01*
X006409Y010141D01*
X006349Y010141D01*
X006129Y010361D01*
X006129Y010385D01*
X006215Y010349D01*
X006310Y010349D01*
X006399Y010386D01*
X006466Y010453D01*
X006495Y010523D01*
X006495Y010523D01*
X006542Y010475D01*
X006551Y010453D01*
X006619Y010386D01*
X006707Y010349D01*
X006802Y010349D01*
X006891Y010386D01*
X006952Y010447D01*
X007012Y010386D01*
X007101Y010349D01*
X007196Y010349D01*
X007284Y010386D01*
X007352Y010453D01*
X007389Y010542D01*
X007389Y010637D01*
X007352Y010725D01*
X007284Y010793D01*
X007215Y010822D01*
X007246Y010822D01*
X007247Y010822D01*
X007247Y010822D01*
X007381Y010822D01*
X007381Y010719D01*
X007499Y010601D01*
X007499Y010542D01*
X007535Y010453D01*
X007603Y010386D01*
X007691Y010349D01*
X007787Y010349D01*
X007875Y010386D01*
X007943Y010453D01*
X007979Y010542D01*
X007979Y010637D01*
X007943Y010725D01*
X007875Y010793D01*
X007806Y010822D01*
X007837Y010822D01*
X007837Y010822D01*
X007838Y010822D01*
X008034Y010822D01*
X008035Y010822D01*
X008230Y010822D01*
X008231Y010822D01*
X008232Y010822D01*
X008427Y010822D01*
X008428Y010822D01*
X008429Y010822D01*
X008624Y010822D01*
X008696Y010893D01*
X008696Y011019D01*
X008790Y011019D01*
X008885Y011113D01*
X008885Y011605D01*
X009184Y011904D01*
X011054Y011904D01*
X011349Y012200D01*
X011444Y012294D01*
X011444Y013399D01*
X011912Y013395D01*
X011951Y013300D01*
X012076Y013175D01*
X012238Y013108D01*
X012862Y013108D01*
X013024Y013175D01*
X013149Y013300D01*
X013216Y013462D01*
X013216Y013638D01*
X013149Y013800D01*
X013024Y013925D01*
X012862Y013992D01*
X012238Y013992D01*
X012076Y013925D01*
X011951Y013800D01*
X011917Y013717D01*
X011350Y013723D01*
X011349Y013723D01*
X011283Y013723D01*
X011217Y013724D01*
X011216Y013723D01*
X011215Y013723D01*
X011169Y013677D01*
X011121Y013630D01*
X011121Y013629D01*
X011121Y013563D01*
X011120Y013496D01*
X011121Y013496D01*
X011121Y012428D01*
X010920Y012227D01*
X009940Y012227D01*
X010207Y012495D01*
X010565Y012495D01*
X010637Y012566D01*
X010637Y013061D01*
X010565Y013133D01*
X010031Y013133D01*
X009959Y013061D01*
X009959Y012703D01*
X009680Y012424D01*
X009251Y012424D01*
X009322Y012495D01*
X009679Y012495D01*
X009751Y012566D01*
X009751Y013061D01*
X009679Y013133D01*
X009145Y013133D01*
X009074Y013061D01*
X009074Y012703D01*
X008991Y012621D01*
X008865Y012621D01*
X008865Y013061D01*
X008793Y013133D01*
X008259Y013133D01*
X008188Y013061D01*
X008188Y012818D01*
X007609Y012818D01*
X007678Y012846D01*
X007746Y012914D01*
X007782Y013002D01*
X007782Y013098D01*
X007746Y013186D01*
X007704Y013228D01*
X007704Y015085D01*
X007609Y015180D01*
X007609Y015180D01*
X006916Y015873D01*
X006822Y015967D01*
X006008Y015967D01*
X005994Y016001D01*
X005926Y016069D01*
X005838Y016105D01*
X005742Y016105D01*
X005654Y016069D01*
X005587Y016001D01*
X005550Y015913D01*
X005550Y015817D01*
X005553Y015810D01*
X005534Y015810D01*
X005534Y015475D01*
X005534Y015141D01*
X005609Y015141D01*
X005609Y013819D01*
X005567Y013777D01*
X005530Y013688D01*
X005530Y013593D01*
X005567Y013505D01*
X005609Y013462D01*
X005609Y012385D01*
X005543Y012385D01*
X005481Y012323D01*
X005467Y012347D01*
X005442Y012373D01*
X005410Y012391D01*
X005375Y012400D01*
X005180Y012400D01*
X005180Y012105D01*
X005101Y012105D01*
X005101Y012026D01*
X005180Y012026D01*
X005180Y011731D01*
X005375Y011731D01*
X005410Y011740D01*
X005442Y011759D01*
X005467Y011784D01*
X005481Y011808D01*
X005531Y011759D01*
X005444Y011672D01*
X005441Y011674D01*
X005400Y011702D01*
X005353Y011721D01*
X005304Y011731D01*
X005278Y011731D01*
X005253Y011731D01*
X005204Y011721D01*
X005157Y011702D01*
X005115Y011674D01*
X005080Y011638D01*
X005052Y011596D01*
X005032Y011550D01*
X005022Y011500D01*
X005022Y011475D01*
X005278Y011475D01*
X005278Y011219D01*
X005304Y011219D01*
X005353Y011229D01*
X005400Y011248D01*
X005404Y011252D01*
X005404Y010893D01*
X005476Y010822D01*
X005609Y010822D01*
X005609Y010719D01*
X005806Y010523D01*
X005806Y010227D01*
X006121Y009912D01*
X006121Y009853D01*
X006157Y009764D01*
X006225Y009697D01*
X006313Y009660D01*
X006409Y009660D01*
X006497Y009697D01*
X006565Y009764D01*
X006601Y009853D01*
X006601Y009948D01*
X006565Y010036D01*
X006478Y010112D02*
X008660Y010112D01*
X008660Y010229D02*
X006261Y010229D01*
X006144Y010345D02*
X008743Y010345D01*
X009124Y010462D02*
X007946Y010462D01*
X007979Y010579D02*
X009241Y010579D01*
X009241Y010695D02*
X007955Y010695D01*
X008034Y010822D02*
X008034Y010822D01*
X007830Y010812D02*
X009155Y010812D01*
X009133Y010928D02*
X008696Y010928D01*
X008817Y011045D02*
X009133Y011045D01*
X009133Y011162D02*
X008885Y011162D01*
X008885Y011278D02*
X009133Y011278D01*
X009199Y011395D02*
X008885Y011395D01*
X008885Y011511D02*
X009178Y011511D01*
X009175Y011628D02*
X008907Y011628D01*
X009024Y011745D02*
X009244Y011745D01*
X009141Y011861D02*
X011633Y011861D01*
X011516Y011745D02*
X009581Y011745D01*
X009650Y011628D02*
X011400Y011628D01*
X011318Y011511D02*
X009646Y011511D01*
X009744Y011395D02*
X009850Y011395D01*
X010101Y011395D02*
X010180Y011395D01*
X010180Y011278D02*
X010101Y011278D01*
X010101Y011162D02*
X010180Y011162D01*
X010180Y011045D02*
X010711Y011045D01*
X010790Y011045D02*
X011101Y011045D01*
X011085Y011121D02*
X011085Y011316D01*
X011076Y011351D01*
X011058Y011383D01*
X011032Y011408D01*
X011001Y011426D01*
X010966Y011436D01*
X010790Y011436D01*
X010790Y011121D01*
X011085Y011121D01*
X011085Y011162D02*
X011101Y011162D01*
X011101Y011278D02*
X011085Y011278D01*
X011046Y011395D02*
X011147Y011395D01*
X010790Y011395D02*
X010711Y011395D01*
X010711Y011278D02*
X010790Y011278D01*
X010790Y011162D02*
X010711Y011162D01*
X010711Y010928D02*
X010790Y010928D01*
X010790Y010812D02*
X010711Y010812D01*
X011076Y010812D02*
X011104Y010812D01*
X011101Y010928D02*
X011085Y010928D01*
X011160Y010695D02*
X009583Y010695D01*
X009583Y010579D02*
X010354Y010579D01*
X010238Y010462D02*
X009700Y010462D01*
X009787Y010812D02*
X009807Y010812D01*
X010101Y010812D02*
X010180Y010812D01*
X010180Y010928D02*
X010101Y010928D01*
X010431Y011395D02*
X010456Y011395D01*
X011127Y011978D02*
X011750Y011978D01*
X011866Y012094D02*
X011244Y012094D01*
X011361Y012211D02*
X011983Y012211D01*
X011940Y012328D02*
X011444Y012328D01*
X011444Y012444D02*
X011891Y012444D01*
X011884Y012561D02*
X011444Y012561D01*
X011444Y012677D02*
X011900Y012677D01*
X011949Y012794D02*
X011444Y012794D01*
X011444Y012911D02*
X012062Y012911D01*
X012151Y013144D02*
X011444Y013144D01*
X011444Y013261D02*
X011990Y013261D01*
X011919Y013377D02*
X011444Y013377D01*
X011121Y013377D02*
X010932Y013377D01*
X010932Y013393D02*
X010895Y013481D01*
X010828Y013549D01*
X010740Y013585D01*
X010713Y013585D01*
X010692Y013613D01*
X010678Y013615D01*
X010668Y013625D01*
X010637Y013625D01*
X010637Y013730D01*
X010565Y013802D01*
X010479Y013802D01*
X010479Y014178D01*
X010891Y014178D01*
X011011Y014298D01*
X011011Y014794D01*
X010928Y014877D01*
X011313Y014877D01*
X011385Y014948D01*
X011385Y015280D01*
X011663Y015280D01*
X011778Y015396D01*
X011778Y016141D01*
X013585Y016141D01*
X013585Y000707D01*
X000515Y000707D01*
X000515Y016141D01*
X007833Y016141D01*
X007833Y015396D01*
X007949Y015280D01*
X008227Y015280D01*
X008227Y014948D01*
X008299Y014877D01*
X008684Y014877D01*
X008601Y014794D01*
X008601Y014298D01*
X008721Y014178D01*
X009139Y014178D01*
X009231Y014270D01*
X009294Y014270D01*
X009294Y014674D01*
X009294Y014674D01*
X009294Y014270D01*
X009309Y014270D01*
X009307Y014269D01*
X009270Y014180D01*
X009270Y014085D01*
X009306Y013999D01*
X008880Y013999D01*
X008874Y014004D01*
X008814Y013999D01*
X008755Y013999D01*
X008749Y013993D01*
X008740Y013992D01*
X008702Y013946D01*
X008660Y013904D01*
X008660Y013896D01*
X008582Y013802D01*
X008259Y013802D01*
X008188Y013730D01*
X008188Y013236D01*
X008259Y013164D01*
X008793Y013164D01*
X008865Y013236D01*
X008865Y013637D01*
X008897Y013676D01*
X009074Y013676D01*
X009074Y013236D01*
X009145Y013164D01*
X009679Y013164D01*
X009751Y013236D01*
X009751Y013479D01*
X009774Y013479D01*
X009869Y013574D01*
X009959Y013664D01*
X009959Y013236D01*
X010031Y013164D01*
X010533Y013164D01*
X010556Y013142D01*
X010644Y013105D01*
X010740Y013105D01*
X010828Y013142D01*
X010895Y013209D01*
X010932Y013298D01*
X010932Y013393D01*
X010883Y013494D02*
X011121Y013494D01*
X011121Y013610D02*
X010694Y013610D01*
X010637Y013727D02*
X011921Y013727D01*
X011994Y013844D02*
X010479Y013844D01*
X010479Y013960D02*
X012161Y013960D01*
X012219Y014103D02*
X012290Y014092D01*
X012509Y014092D01*
X012509Y014509D01*
X012591Y014509D01*
X012591Y014092D01*
X012810Y014092D01*
X012881Y014103D01*
X012950Y014126D01*
X013014Y014158D01*
X013072Y014201D01*
X013123Y014252D01*
X013166Y014310D01*
X013198Y014374D01*
X013221Y014443D01*
X013231Y014509D01*
X012591Y014509D01*
X012591Y014591D01*
X012509Y014591D01*
X012509Y014509D01*
X011869Y014509D01*
X011879Y014443D01*
X011902Y014374D01*
X011934Y014310D01*
X011977Y014252D01*
X012028Y014201D01*
X012086Y014158D01*
X012150Y014126D01*
X012219Y014103D01*
X012038Y014193D02*
X010906Y014193D01*
X011011Y014310D02*
X011934Y014310D01*
X011885Y014427D02*
X011011Y014427D01*
X011011Y014543D02*
X012509Y014543D01*
X012509Y014591D02*
X011869Y014591D01*
X011879Y014657D01*
X011902Y014726D01*
X011934Y014790D01*
X011977Y014848D01*
X012028Y014899D01*
X012086Y014942D01*
X012150Y014974D01*
X012219Y014997D01*
X012290Y015008D01*
X012509Y015008D01*
X012509Y014591D01*
X012509Y014660D02*
X012591Y014660D01*
X012591Y014591D02*
X012591Y015008D01*
X012810Y015008D01*
X012881Y014997D01*
X012950Y014974D01*
X013014Y014942D01*
X013072Y014899D01*
X013123Y014848D01*
X013166Y014790D01*
X013198Y014726D01*
X013221Y014657D01*
X013231Y014591D01*
X012591Y014591D01*
X012591Y014543D02*
X013585Y014543D01*
X013585Y014427D02*
X013215Y014427D01*
X013166Y014310D02*
X013585Y014310D01*
X013585Y014193D02*
X013062Y014193D01*
X012939Y013960D02*
X013585Y013960D01*
X013585Y013844D02*
X013106Y013844D01*
X013179Y013727D02*
X013585Y013727D01*
X013585Y013610D02*
X013216Y013610D01*
X013216Y013494D02*
X013585Y013494D01*
X013585Y013377D02*
X013181Y013377D01*
X013110Y013261D02*
X013585Y013261D01*
X013585Y013144D02*
X012949Y013144D01*
X013038Y012911D02*
X013585Y012911D01*
X013585Y013027D02*
X011444Y013027D01*
X011121Y013027D02*
X010637Y013027D01*
X010637Y012911D02*
X011121Y012911D01*
X011121Y012794D02*
X010637Y012794D01*
X010637Y012677D02*
X011121Y012677D01*
X011121Y012561D02*
X010631Y012561D01*
X011021Y012328D02*
X010040Y012328D01*
X010157Y012444D02*
X011121Y012444D01*
X011121Y013144D02*
X010830Y013144D01*
X010917Y013261D02*
X011121Y013261D01*
X011121Y013629D02*
X011121Y013629D01*
X010692Y013345D02*
X010593Y013444D01*
X010298Y013483D01*
X009959Y013494D02*
X009789Y013494D01*
X009751Y013377D02*
X009959Y013377D01*
X009959Y013261D02*
X009751Y013261D01*
X009751Y013027D02*
X009959Y013027D01*
X009959Y012911D02*
X009751Y012911D01*
X009751Y012794D02*
X009959Y012794D01*
X009933Y012677D02*
X009751Y012677D01*
X009745Y012561D02*
X009817Y012561D01*
X009700Y012444D02*
X009271Y012444D01*
X009048Y012677D02*
X008865Y012677D01*
X008865Y012794D02*
X009074Y012794D01*
X009074Y012911D02*
X008865Y012911D01*
X008865Y013027D02*
X009074Y013027D01*
X009074Y013261D02*
X008865Y013261D01*
X008865Y013377D02*
X009074Y013377D01*
X009074Y013494D02*
X008865Y013494D01*
X008865Y013610D02*
X009074Y013610D01*
X008714Y013960D02*
X008322Y013960D01*
X008331Y013970D02*
X008359Y014011D01*
X008379Y014058D01*
X008389Y014107D01*
X008389Y014133D01*
X008389Y014158D01*
X008379Y014207D01*
X008359Y014254D01*
X008331Y014296D01*
X008296Y014331D01*
X008254Y014359D01*
X008207Y014379D01*
X008158Y014389D01*
X008133Y014389D01*
X008133Y014133D01*
X008389Y014133D01*
X008133Y014133D01*
X008133Y014133D01*
X008133Y014133D01*
X008133Y014389D01*
X008107Y014389D01*
X008058Y014379D01*
X008011Y014359D01*
X007970Y014331D01*
X007934Y014296D01*
X007906Y014254D01*
X007887Y014207D01*
X007877Y014158D01*
X007877Y014133D01*
X008133Y014133D01*
X008133Y013877D01*
X008158Y013877D01*
X008207Y013887D01*
X008254Y013906D01*
X008296Y013934D01*
X008331Y013970D01*
X008382Y014077D02*
X009274Y014077D01*
X009276Y014193D02*
X009154Y014193D01*
X009294Y014310D02*
X009294Y014310D01*
X009294Y014427D02*
X009294Y014427D01*
X009294Y014543D02*
X009294Y014543D01*
X009294Y014660D02*
X009294Y014660D01*
X008706Y014193D02*
X008382Y014193D01*
X008317Y014310D02*
X008601Y014310D01*
X008601Y014427D02*
X007704Y014427D01*
X007704Y014543D02*
X008601Y014543D01*
X008601Y014660D02*
X007704Y014660D01*
X007704Y014776D02*
X008601Y014776D01*
X008282Y014893D02*
X007704Y014893D01*
X007704Y015010D02*
X008227Y015010D01*
X008227Y015126D02*
X007663Y015126D01*
X007546Y015243D02*
X008227Y015243D01*
X007870Y015360D02*
X007429Y015360D01*
X007313Y015476D02*
X007833Y015476D01*
X007833Y015593D02*
X007196Y015593D01*
X007080Y015709D02*
X007833Y015709D01*
X007833Y015826D02*
X006963Y015826D01*
X006916Y015873D02*
X006916Y015873D01*
X006846Y015943D02*
X007833Y015943D01*
X007833Y016059D02*
X005936Y016059D01*
X005645Y016059D02*
X005395Y016059D01*
X005483Y015943D02*
X005562Y015943D01*
X005550Y015826D02*
X005483Y015826D01*
X005534Y015709D02*
X005534Y015709D01*
X005534Y015593D02*
X005534Y015593D01*
X005534Y015476D02*
X005534Y015476D01*
X005534Y015475D02*
X005534Y015475D01*
X005534Y015360D02*
X005534Y015360D01*
X005534Y015243D02*
X005534Y015243D01*
X005483Y015126D02*
X005609Y015126D01*
X005609Y015010D02*
X005483Y015010D01*
X005483Y014893D02*
X005609Y014893D01*
X005609Y014776D02*
X005483Y014776D01*
X005483Y014660D02*
X005609Y014660D01*
X005609Y014543D02*
X005483Y014543D01*
X005483Y014427D02*
X005609Y014427D01*
X005609Y014310D02*
X005483Y014310D01*
X005483Y014193D02*
X005609Y014193D01*
X005609Y014077D02*
X005483Y014077D01*
X005483Y013960D02*
X005609Y013960D01*
X005609Y013844D02*
X005483Y013844D01*
X005483Y013727D02*
X005546Y013727D01*
X005530Y013610D02*
X005483Y013610D01*
X005483Y013494D02*
X005578Y013494D01*
X005609Y013377D02*
X005483Y013377D01*
X005483Y013261D02*
X005609Y013261D01*
X005609Y013144D02*
X005483Y013144D01*
X005429Y013027D02*
X005609Y013027D01*
X005609Y012911D02*
X005305Y012911D01*
X005181Y012794D02*
X005609Y012794D01*
X005609Y012677D02*
X005057Y012677D01*
X004933Y012561D02*
X005609Y012561D01*
X005609Y012444D02*
X004809Y012444D01*
X004839Y012373D02*
X004814Y012347D01*
X004796Y012316D01*
X004786Y012281D01*
X004786Y012105D01*
X005101Y012105D01*
X005101Y012400D01*
X004906Y012400D01*
X004871Y012391D01*
X004839Y012373D01*
X004802Y012328D02*
X004751Y012328D01*
X004751Y012211D02*
X004786Y012211D01*
X004751Y012094D02*
X005101Y012094D01*
X005101Y012026D02*
X004786Y012026D01*
X004786Y011851D01*
X004796Y011816D01*
X004814Y011784D01*
X004839Y011759D01*
X004871Y011740D01*
X004906Y011731D01*
X005101Y011731D01*
X005101Y012026D01*
X005101Y011978D02*
X005180Y011978D01*
X005180Y011861D02*
X005101Y011861D01*
X005101Y011745D02*
X005180Y011745D01*
X005278Y011731D02*
X005278Y011475D01*
X005278Y011475D01*
X005278Y011731D01*
X005278Y011628D02*
X005278Y011628D01*
X005278Y011511D02*
X005278Y011511D01*
X005278Y011395D02*
X005278Y011395D01*
X005278Y011278D02*
X005278Y011278D01*
X005404Y011162D02*
X005144Y011162D01*
X005248Y011045D02*
X005404Y011045D01*
X005404Y010928D02*
X005365Y010928D01*
X005481Y010812D02*
X005609Y010812D01*
X005598Y010695D02*
X005633Y010695D01*
X005714Y010579D02*
X005750Y010579D01*
X005735Y010462D02*
X005806Y010462D01*
X005806Y010345D02*
X005735Y010345D01*
X005735Y010229D02*
X005806Y010229D01*
X005735Y010112D02*
X005921Y010112D01*
X006038Y009995D02*
X005735Y009995D01*
X005735Y009879D02*
X006121Y009879D01*
X006160Y009762D02*
X005735Y009762D01*
X006562Y009762D02*
X008080Y009762D01*
X008143Y009879D02*
X006601Y009879D01*
X006548Y010462D02*
X006470Y010462D01*
X007239Y010812D02*
X007381Y010812D01*
X007365Y010695D02*
X007405Y010695D01*
X007389Y010579D02*
X007499Y010579D01*
X007532Y010462D02*
X007356Y010462D01*
X008330Y009879D02*
X008330Y009879D01*
X008330Y009762D02*
X008330Y009762D01*
X008330Y009646D02*
X008330Y009646D01*
X008330Y009529D02*
X008330Y009529D01*
X008231Y009179D02*
X008231Y009179D01*
X008231Y009063D02*
X008231Y009063D01*
X008231Y008946D02*
X008231Y008946D01*
X008231Y008829D02*
X008231Y008829D01*
X009412Y007538D02*
X009786Y007538D01*
X009786Y007503D01*
X010094Y007503D01*
X010064Y007574D01*
X009786Y007574D01*
X009786Y007538D01*
X009412Y007538D01*
X009412Y007538D01*
X009786Y007547D02*
X010075Y007547D01*
X010368Y006614D02*
X010896Y006614D01*
X011012Y006497D02*
X010485Y006497D01*
X010601Y006381D02*
X011129Y006381D01*
X011246Y006264D02*
X010718Y006264D01*
X010835Y006147D02*
X011362Y006147D01*
X011479Y006031D02*
X010951Y006031D01*
X011068Y005914D02*
X011595Y005914D01*
X011613Y005797D02*
X011184Y005797D01*
X011301Y005681D02*
X011613Y005681D01*
X011613Y005564D02*
X011418Y005564D01*
X011534Y005448D02*
X011613Y005448D01*
X012230Y005098D02*
X013585Y005098D01*
X013585Y005214D02*
X013064Y005214D01*
X013162Y005331D02*
X013585Y005331D01*
X013585Y005448D02*
X013210Y005448D01*
X013216Y005564D02*
X013585Y005564D01*
X013585Y005681D02*
X013198Y005681D01*
X013150Y005797D02*
X013585Y005797D01*
X013585Y005914D02*
X013035Y005914D01*
X012957Y006147D02*
X013585Y006147D01*
X013585Y006031D02*
X012298Y006031D01*
X013113Y006264D02*
X013585Y006264D01*
X013585Y006381D02*
X013182Y006381D01*
X013216Y006497D02*
X013585Y006497D01*
X013585Y006614D02*
X013216Y006614D01*
X013178Y006730D02*
X013585Y006730D01*
X013585Y006847D02*
X013102Y006847D01*
X012931Y006964D02*
X013585Y006964D01*
X013585Y007080D02*
X012248Y007080D01*
X013046Y007197D02*
X013585Y007197D01*
X013585Y007313D02*
X013154Y007313D01*
X013203Y007430D02*
X013585Y007430D01*
X013585Y007547D02*
X013216Y007547D01*
X013206Y007663D02*
X013585Y007663D01*
X013585Y007780D02*
X013157Y007780D01*
X013053Y007896D02*
X013585Y007896D01*
X013585Y008013D02*
X012315Y008013D01*
X012914Y008130D02*
X013585Y008130D01*
X013585Y008246D02*
X013095Y008246D01*
X013175Y008363D02*
X013585Y008363D01*
X013585Y008480D02*
X013216Y008480D01*
X013216Y008596D02*
X013585Y008596D01*
X013585Y008713D02*
X013185Y008713D01*
X013120Y008829D02*
X013585Y008829D01*
X013585Y008946D02*
X012973Y008946D01*
X013028Y009179D02*
X013585Y009179D01*
X013585Y009063D02*
X011325Y009063D01*
X011317Y008946D02*
X011420Y008946D01*
X011260Y009179D02*
X012072Y009179D01*
X011955Y009296D02*
X011004Y009296D01*
X010910Y009179D02*
X010888Y009179D01*
X011834Y008946D02*
X012127Y008946D01*
X011980Y008829D02*
X011867Y008829D01*
X011843Y008713D02*
X011915Y008713D01*
X013145Y009296D02*
X013585Y009296D01*
X013585Y009412D02*
X013195Y009412D01*
X013216Y009529D02*
X013585Y009529D01*
X013585Y009646D02*
X013213Y009646D01*
X013165Y009762D02*
X013585Y009762D01*
X013585Y009879D02*
X013070Y009879D01*
X012872Y010112D02*
X013585Y010112D01*
X013585Y009995D02*
X012196Y009995D01*
X013078Y010229D02*
X013585Y010229D01*
X013585Y010345D02*
X013168Y010345D01*
X013216Y010462D02*
X013585Y010462D01*
X013585Y010579D02*
X013216Y010579D01*
X013192Y010695D02*
X013585Y010695D01*
X013585Y010812D02*
X013137Y010812D01*
X013016Y010928D02*
X013585Y010928D01*
X013585Y011045D02*
X012273Y011045D01*
X012991Y011162D02*
X013585Y011162D01*
X013585Y011278D02*
X013127Y011278D01*
X013188Y011395D02*
X013585Y011395D01*
X013585Y011511D02*
X013216Y011511D01*
X013216Y011628D02*
X013585Y011628D01*
X013585Y011745D02*
X013172Y011745D01*
X013088Y011861D02*
X013585Y011861D01*
X013585Y011978D02*
X012896Y011978D01*
X013060Y012211D02*
X013585Y012211D01*
X013585Y012094D02*
X012323Y012094D01*
X013160Y012328D02*
X013585Y012328D01*
X013585Y012444D02*
X013209Y012444D01*
X013216Y012561D02*
X013585Y012561D01*
X013585Y012677D02*
X013200Y012677D01*
X013151Y012794D02*
X013585Y012794D01*
X013585Y014077D02*
X010479Y014077D01*
X009959Y013610D02*
X009906Y013610D01*
X010553Y013144D02*
X007763Y013144D01*
X007782Y013027D02*
X008188Y013027D01*
X008188Y012911D02*
X007742Y012911D01*
X007704Y013261D02*
X008188Y013261D01*
X008188Y013377D02*
X007704Y013377D01*
X007704Y013494D02*
X008188Y013494D01*
X008188Y013610D02*
X007704Y013610D01*
X007704Y013727D02*
X008188Y013727D01*
X008133Y013877D02*
X008133Y014133D01*
X008133Y014133D01*
X008133Y014133D01*
X007877Y014133D01*
X007877Y014107D01*
X007887Y014058D01*
X007906Y014011D01*
X007934Y013970D01*
X007970Y013934D01*
X008011Y013906D01*
X008058Y013887D01*
X008107Y013877D01*
X008133Y013877D01*
X008133Y013960D02*
X008133Y013960D01*
X008133Y014077D02*
X008133Y014077D01*
X008133Y014193D02*
X008133Y014193D01*
X008133Y014310D02*
X008133Y014310D01*
X007948Y014310D02*
X007704Y014310D01*
X007704Y014193D02*
X007884Y014193D01*
X007883Y014077D02*
X007704Y014077D01*
X007704Y013960D02*
X007943Y013960D01*
X007704Y013844D02*
X008617Y013844D01*
X009412Y011574D02*
X009412Y011022D01*
X010094Y010345D02*
X010121Y010345D01*
X012509Y014193D02*
X012591Y014193D01*
X012591Y014310D02*
X012509Y014310D01*
X012509Y014427D02*
X012591Y014427D01*
X012591Y014776D02*
X012509Y014776D01*
X012509Y014893D02*
X012591Y014893D01*
X012862Y015108D02*
X013024Y015175D01*
X013149Y015300D01*
X013216Y015462D01*
X013216Y015638D01*
X013149Y015800D01*
X013024Y015925D01*
X012862Y015992D01*
X012238Y015992D01*
X012076Y015925D01*
X011951Y015800D01*
X011884Y015638D01*
X011884Y015462D01*
X011951Y015300D01*
X012076Y015175D01*
X012238Y015108D01*
X012862Y015108D01*
X012906Y015126D02*
X013585Y015126D01*
X013585Y015010D02*
X011385Y015010D01*
X011385Y015126D02*
X012194Y015126D01*
X012008Y015243D02*
X011385Y015243D01*
X011329Y014893D02*
X012022Y014893D01*
X011928Y014776D02*
X011011Y014776D01*
X011011Y014660D02*
X011880Y014660D01*
X011926Y015360D02*
X011742Y015360D01*
X011778Y015476D02*
X011884Y015476D01*
X011884Y015593D02*
X011778Y015593D01*
X011778Y015709D02*
X011914Y015709D01*
X011977Y015826D02*
X011778Y015826D01*
X011778Y015943D02*
X012119Y015943D01*
X011778Y016059D02*
X013585Y016059D01*
X013585Y015943D02*
X012981Y015943D01*
X013123Y015826D02*
X013585Y015826D01*
X013585Y015709D02*
X013186Y015709D01*
X013216Y015593D02*
X013585Y015593D01*
X013585Y015476D02*
X013216Y015476D01*
X013174Y015360D02*
X013585Y015360D01*
X013585Y015243D02*
X013092Y015243D01*
X013078Y014893D02*
X013585Y014893D01*
X013585Y014776D02*
X013172Y014776D01*
X013220Y014660D02*
X013585Y014660D01*
X005609Y007780D02*
X005564Y007780D01*
X003416Y005924D02*
X003274Y006066D01*
X003274Y005897D01*
X003261Y005883D01*
X003261Y005619D01*
X003320Y005619D01*
X003320Y005924D01*
X003416Y005924D01*
X003320Y005914D02*
X003274Y005914D01*
X003274Y006031D02*
X003310Y006031D01*
X003320Y005797D02*
X003261Y005797D01*
X003261Y005681D02*
X003320Y005681D01*
X003320Y005564D02*
X003776Y005564D01*
X003837Y005448D02*
X003605Y005448D01*
X003591Y005331D02*
X003837Y005331D01*
X003837Y005214D02*
X003582Y005214D01*
X003589Y005098D02*
X003837Y005098D01*
X003837Y004981D02*
X003589Y004981D01*
X003589Y004865D02*
X003837Y004865D01*
X003837Y004748D02*
X003684Y004748D01*
X003747Y004631D02*
X003837Y004631D01*
X003837Y004515D02*
X003737Y004515D01*
X003659Y004398D02*
X003837Y004398D01*
X003837Y004282D02*
X002881Y004282D01*
X002881Y004398D02*
X003354Y004398D01*
X003276Y004515D02*
X002881Y004515D01*
X002881Y004631D02*
X003267Y004631D01*
X002991Y004748D02*
X002913Y004748D01*
X002881Y004165D02*
X003837Y004165D01*
X003837Y004048D02*
X002881Y004048D01*
X002786Y003932D02*
X003035Y003932D01*
X002975Y003815D02*
X002684Y003815D01*
X002684Y003698D02*
X002975Y003698D01*
X002975Y003582D02*
X002684Y003582D01*
X002684Y003465D02*
X002975Y003465D01*
X002997Y003349D02*
X002684Y003349D01*
X002684Y003232D02*
X002991Y003232D01*
X002991Y003115D02*
X002684Y003115D01*
X002684Y002999D02*
X002991Y002999D01*
X002991Y002882D02*
X002684Y002882D01*
X002684Y002766D02*
X002991Y002766D01*
X003129Y002649D02*
X002684Y002649D01*
X002684Y002532D02*
X003129Y002532D01*
X003129Y002416D02*
X002684Y002416D01*
X002684Y002299D02*
X003202Y002299D01*
X003319Y002183D02*
X002719Y002183D01*
X002883Y002066D02*
X003217Y002066D01*
X003144Y001949D02*
X002956Y001949D01*
X002992Y001833D02*
X003108Y001833D01*
X003108Y001716D02*
X002992Y001716D01*
X002992Y001599D02*
X003108Y001599D01*
X003108Y001483D02*
X002992Y001483D01*
X002992Y001366D02*
X003108Y001366D01*
X003108Y001250D02*
X002992Y001250D01*
X002949Y001133D02*
X003151Y001133D01*
X003234Y001016D02*
X002866Y001016D01*
X002676Y000900D02*
X003424Y000900D01*
X003676Y000900D02*
X004424Y000900D01*
X004234Y001016D02*
X003866Y001016D01*
X003949Y001133D02*
X004151Y001133D01*
X004108Y001250D02*
X003992Y001250D01*
X003992Y001366D02*
X004108Y001366D01*
X004108Y001483D02*
X003992Y001483D01*
X003992Y001599D02*
X004108Y001599D01*
X004108Y001716D02*
X003992Y001716D01*
X003992Y001833D02*
X004098Y001833D01*
X003999Y001949D02*
X003956Y001949D01*
X003901Y002066D02*
X003883Y002066D01*
X003835Y002183D02*
X003719Y002183D01*
X003659Y002299D02*
X003837Y002299D01*
X003837Y002416D02*
X003542Y002416D01*
X003452Y002532D02*
X003837Y002532D01*
X003837Y002649D02*
X003452Y002649D01*
X003589Y002766D02*
X003837Y002766D01*
X003837Y003232D02*
X003797Y003232D01*
X003837Y003349D02*
X003583Y003349D01*
X003589Y003232D02*
X003611Y003232D01*
X003605Y003465D02*
X003837Y003465D01*
X003837Y003582D02*
X003605Y003582D01*
X003605Y003698D02*
X003837Y003698D01*
X003837Y003815D02*
X003605Y003815D01*
X003545Y003932D02*
X003837Y003932D01*
X003320Y003932D02*
X003261Y003932D01*
X003261Y003815D02*
X003320Y003815D01*
X003320Y003698D02*
X003261Y003698D01*
X002361Y002999D02*
X002242Y002999D01*
X002361Y002882D02*
X002122Y002882D01*
X002163Y002766D02*
X002361Y002766D01*
X002361Y002649D02*
X002211Y002649D01*
X002216Y002532D02*
X002361Y002532D01*
X002361Y002416D02*
X002197Y002416D01*
X002148Y002299D02*
X002361Y002299D01*
X002361Y002183D02*
X002032Y002183D01*
X001733Y001992D02*
X001367Y001992D01*
X001108Y001733D01*
X001108Y001367D01*
X001367Y001108D01*
X001733Y001108D01*
X001992Y001367D01*
X001992Y001733D01*
X001733Y001992D01*
X001776Y001949D02*
X002144Y001949D01*
X002108Y001833D02*
X001892Y001833D01*
X001992Y001716D02*
X002108Y001716D01*
X002108Y001599D02*
X001992Y001599D01*
X001992Y001483D02*
X002108Y001483D01*
X002108Y001366D02*
X001991Y001366D01*
X001875Y001250D02*
X002108Y001250D01*
X002151Y001133D02*
X001758Y001133D01*
X001342Y001133D02*
X000515Y001133D01*
X000515Y001016D02*
X002234Y001016D01*
X002424Y000900D02*
X000515Y000900D01*
X000515Y000783D02*
X013585Y000783D01*
X013585Y000900D02*
X009676Y000900D01*
X009866Y001016D02*
X013585Y001016D01*
X013585Y001133D02*
X012758Y001133D01*
X012875Y001250D02*
X013585Y001250D01*
X013585Y001366D02*
X012991Y001366D01*
X012992Y001483D02*
X013585Y001483D01*
X013585Y001599D02*
X012992Y001599D01*
X012992Y001716D02*
X013585Y001716D01*
X013585Y001833D02*
X012892Y001833D01*
X012776Y001949D02*
X013585Y001949D01*
X013585Y002066D02*
X012554Y002066D01*
X012808Y002183D02*
X013585Y002183D01*
X013585Y002299D02*
X012924Y002299D01*
X012992Y002416D02*
X013585Y002416D01*
X013585Y002532D02*
X012992Y002532D01*
X012992Y002649D02*
X013585Y002649D01*
X013585Y002766D02*
X012960Y002766D01*
X012843Y002882D02*
X013585Y002882D01*
X013585Y002999D02*
X012605Y002999D01*
X012741Y003115D02*
X013585Y003115D01*
X013585Y003232D02*
X012857Y003232D01*
X012974Y003349D02*
X013585Y003349D01*
X013585Y003465D02*
X012992Y003465D01*
X012992Y003582D02*
X013585Y003582D01*
X013585Y003698D02*
X012992Y003698D01*
X012910Y003815D02*
X013585Y003815D01*
X013585Y003932D02*
X012793Y003932D01*
X012790Y004165D02*
X013585Y004165D01*
X013585Y004282D02*
X012907Y004282D01*
X012992Y004398D02*
X013585Y004398D01*
X013585Y004515D02*
X012992Y004515D01*
X012992Y004631D02*
X013585Y004631D01*
X013585Y004748D02*
X012977Y004748D01*
X012861Y004865D02*
X013585Y004865D01*
X013585Y004981D02*
X012744Y004981D01*
X012356Y004981D02*
X012347Y004981D01*
X012540Y004048D02*
X013585Y004048D01*
X011981Y002183D02*
X011808Y002183D01*
X011776Y001949D02*
X012214Y001949D01*
X012208Y001833D02*
X011892Y001833D01*
X011992Y001716D02*
X012108Y001716D01*
X012108Y001599D02*
X011992Y001599D01*
X011992Y001483D02*
X012108Y001483D01*
X012109Y001366D02*
X011991Y001366D01*
X011875Y001250D02*
X012225Y001250D01*
X012342Y001133D02*
X011758Y001133D01*
X012097Y002066D02*
X009967Y002066D01*
X009992Y001716D02*
X010092Y001716D01*
X010092Y001599D02*
X009992Y001599D01*
X009992Y001483D02*
X010092Y001483D01*
X010092Y001366D02*
X009992Y001366D01*
X009992Y001250D02*
X010203Y001250D01*
X010320Y001133D02*
X009949Y001133D01*
X009424Y000900D02*
X008676Y000900D01*
X008866Y001016D02*
X009234Y001016D01*
X009151Y001133D02*
X008949Y001133D01*
X008992Y001250D02*
X009108Y001250D01*
X009108Y001366D02*
X008992Y001366D01*
X008992Y001483D02*
X009108Y001483D01*
X009108Y001599D02*
X008992Y001599D01*
X008992Y001716D02*
X009108Y001716D01*
X009108Y001833D02*
X009061Y001833D01*
X008742Y002766D02*
X008415Y002766D01*
X008133Y002649D02*
X007619Y002649D01*
X007269Y002649D02*
X007093Y002649D01*
X007078Y002532D02*
X008017Y002532D01*
X007517Y003115D02*
X007074Y003115D01*
X007074Y002999D02*
X007289Y002999D01*
X007212Y002882D02*
X007074Y002882D01*
X007044Y002766D02*
X007204Y002766D01*
X007187Y002416D02*
X006992Y002416D01*
X007061Y001833D02*
X007108Y001833D01*
X007108Y001716D02*
X006992Y001716D01*
X006992Y001599D02*
X007108Y001599D01*
X007108Y001483D02*
X006992Y001483D01*
X006992Y001366D02*
X007108Y001366D01*
X007108Y001250D02*
X006992Y001250D01*
X006949Y001133D02*
X007151Y001133D01*
X007234Y001016D02*
X006866Y001016D01*
X006676Y000900D02*
X007424Y000900D01*
X007676Y000900D02*
X008424Y000900D01*
X008234Y001016D02*
X007866Y001016D01*
X007949Y001133D02*
X008151Y001133D01*
X008108Y001250D02*
X007992Y001250D01*
X007992Y001366D02*
X008108Y001366D01*
X008108Y001483D02*
X007992Y001483D01*
X007992Y001599D02*
X008108Y001599D01*
X008108Y001716D02*
X007992Y001716D01*
X008061Y001833D02*
X008108Y001833D01*
X008733Y002882D02*
X008859Y002882D01*
X008767Y002999D02*
X008975Y002999D01*
X009054Y003115D02*
X008743Y003115D01*
X008619Y003232D02*
X009054Y003232D01*
X009054Y003349D02*
X008427Y003349D01*
X008452Y003465D02*
X009054Y003465D01*
X009054Y003582D02*
X008452Y003582D01*
X008452Y003698D02*
X009054Y003698D01*
X009054Y003815D02*
X008446Y003815D01*
X008202Y003591D02*
X007867Y003591D01*
X007642Y003349D02*
X007049Y003349D01*
X007074Y003232D02*
X007617Y003232D01*
X006264Y003349D02*
X005531Y003349D01*
X005525Y003232D02*
X006239Y003232D01*
X006239Y003115D02*
X005450Y003115D01*
X005616Y003815D02*
X006245Y003815D01*
X005097Y004282D02*
X004839Y004282D01*
X004840Y004398D02*
X005097Y004398D01*
X005097Y004515D02*
X004918Y004515D01*
X004928Y004631D02*
X005097Y004631D01*
X003659Y005681D02*
X003605Y005681D01*
X002164Y006847D02*
X002102Y006847D01*
X002164Y006964D02*
X001931Y006964D01*
X002046Y007197D02*
X002164Y007197D01*
X002154Y007313D02*
X002164Y007313D01*
X002164Y007080D02*
X000515Y007080D01*
X000515Y006964D02*
X001169Y006964D01*
X000998Y006847D02*
X000515Y006847D01*
X000515Y006730D02*
X000922Y006730D01*
X000884Y006614D02*
X000515Y006614D01*
X000515Y006497D02*
X000884Y006497D01*
X000918Y006381D02*
X000515Y006381D01*
X000515Y006264D02*
X000987Y006264D01*
X001143Y006147D02*
X000515Y006147D01*
X000515Y006031D02*
X001787Y006031D01*
X001065Y005914D02*
X000515Y005914D01*
X000515Y005797D02*
X000950Y005797D01*
X000902Y005681D02*
X000515Y005681D01*
X000515Y005564D02*
X000884Y005564D01*
X000890Y005448D02*
X000515Y005448D01*
X000515Y005331D02*
X000938Y005331D01*
X001036Y005214D02*
X000515Y005214D01*
X000515Y005098D02*
X001870Y005098D01*
X001212Y004981D02*
X000515Y004981D01*
X000515Y004865D02*
X001015Y004865D01*
X000930Y004748D02*
X000515Y004748D01*
X000515Y004631D02*
X000884Y004631D01*
X000884Y004515D02*
X000515Y004515D01*
X000515Y004398D02*
X000910Y004398D01*
X000969Y004282D02*
X000515Y004282D01*
X000515Y004165D02*
X001101Y004165D01*
X001092Y003932D02*
X000515Y003932D01*
X000515Y004048D02*
X001838Y004048D01*
X000966Y003815D02*
X000515Y003815D01*
X000515Y003698D02*
X000909Y003698D01*
X000884Y003582D02*
X000515Y003582D01*
X000515Y003465D02*
X000884Y003465D01*
X000931Y003349D02*
X000515Y003349D01*
X000515Y003232D02*
X001019Y003232D01*
X001220Y003115D02*
X000515Y003115D01*
X000515Y002999D02*
X001779Y002999D01*
X001880Y003115D02*
X001899Y003115D01*
X001033Y002882D02*
X000515Y002882D01*
X000515Y002766D02*
X000937Y002766D01*
X000889Y002649D02*
X000515Y002649D01*
X000515Y002532D02*
X000884Y002532D01*
X000903Y002416D02*
X000515Y002416D01*
X000515Y002299D02*
X000952Y002299D01*
X001068Y002183D02*
X000515Y002183D01*
X000515Y002066D02*
X002217Y002066D01*
X001324Y001949D02*
X000515Y001949D01*
X000515Y001833D02*
X001208Y001833D01*
X001108Y001716D02*
X000515Y001716D01*
X000515Y001599D02*
X001108Y001599D01*
X001108Y001483D02*
X000515Y001483D01*
X000515Y001366D02*
X001109Y001366D01*
X001225Y001250D02*
X000515Y001250D01*
X000515Y007197D02*
X001054Y007197D01*
X000946Y007313D02*
X000515Y007313D01*
X000515Y007430D02*
X000897Y007430D01*
X000884Y007547D02*
X000515Y007547D01*
X000515Y007663D02*
X000894Y007663D01*
X000943Y007780D02*
X000515Y007780D01*
X000515Y007896D02*
X001047Y007896D01*
X001186Y008130D02*
X000515Y008130D01*
X000515Y008246D02*
X001005Y008246D01*
X000951Y008300D02*
X001076Y008175D01*
X001238Y008108D01*
X001862Y008108D01*
X002024Y008175D01*
X002149Y008300D01*
X002216Y008462D01*
X002216Y008638D01*
X002149Y008800D01*
X002024Y008925D01*
X001862Y008992D01*
X001238Y008992D01*
X001076Y008925D01*
X000951Y008800D01*
X000884Y008638D01*
X000884Y008462D01*
X000951Y008300D01*
X000925Y008363D02*
X000515Y008363D01*
X000515Y008480D02*
X000884Y008480D01*
X000884Y008596D02*
X000515Y008596D01*
X000515Y008713D02*
X000915Y008713D01*
X000980Y008829D02*
X000515Y008829D01*
X000515Y008946D02*
X001127Y008946D01*
X001238Y009108D02*
X001076Y009175D01*
X000951Y009300D01*
X000884Y009462D01*
X000884Y009638D01*
X000951Y009800D01*
X001076Y009925D01*
X001238Y009992D01*
X001862Y009992D01*
X002024Y009925D01*
X002149Y009800D01*
X002216Y009638D01*
X002216Y009462D01*
X002149Y009300D01*
X002024Y009175D01*
X001862Y009108D01*
X001238Y009108D01*
X001072Y009179D02*
X000515Y009179D01*
X000515Y009063D02*
X002271Y009063D01*
X002267Y009040D02*
X002276Y009089D01*
X002296Y009136D01*
X002324Y009178D01*
X002359Y009213D01*
X002401Y009241D01*
X002448Y009261D01*
X002497Y009270D01*
X002522Y009270D01*
X002522Y009015D01*
X002522Y009015D01*
X002522Y009015D01*
X002267Y009015D01*
X002267Y009040D01*
X002267Y009015D02*
X002267Y008989D01*
X002276Y008940D01*
X002296Y008893D01*
X002324Y008851D01*
X002359Y008816D01*
X002401Y008788D01*
X002448Y008768D01*
X002497Y008759D01*
X002522Y008759D01*
X002522Y009015D01*
X002267Y009015D01*
X002275Y008946D02*
X001973Y008946D01*
X002120Y008829D02*
X002346Y008829D01*
X002522Y008829D02*
X002522Y008829D01*
X002522Y008759D02*
X002548Y008759D01*
X002597Y008768D01*
X002644Y008788D01*
X002686Y008816D01*
X002721Y008851D01*
X002749Y008893D01*
X002769Y008940D01*
X002778Y008989D01*
X002778Y009015D01*
X002778Y009040D01*
X002769Y009089D01*
X002749Y009136D01*
X002721Y009178D01*
X002686Y009213D01*
X002644Y009241D01*
X002597Y009261D01*
X002548Y009270D01*
X002522Y009270D01*
X002522Y009015D01*
X002522Y009015D01*
X002778Y009015D01*
X002522Y009015D01*
X002522Y009015D01*
X002522Y008759D01*
X002681Y008713D02*
X002185Y008713D01*
X002216Y008596D02*
X002565Y008596D01*
X002448Y008480D02*
X002216Y008480D01*
X002175Y008363D02*
X002331Y008363D01*
X002215Y008246D02*
X002095Y008246D01*
X002164Y008130D02*
X001914Y008130D01*
X002164Y008013D02*
X000515Y008013D01*
X000515Y009296D02*
X000955Y009296D01*
X000905Y009412D02*
X000515Y009412D01*
X000515Y009529D02*
X000884Y009529D01*
X000887Y009646D02*
X000515Y009646D01*
X000515Y009762D02*
X000935Y009762D01*
X001030Y009879D02*
X000515Y009879D01*
X000515Y009995D02*
X002263Y009995D01*
X002263Y009879D02*
X002070Y009879D01*
X002165Y009762D02*
X002263Y009762D01*
X002263Y009646D02*
X002213Y009646D01*
X002216Y009529D02*
X002370Y009529D01*
X002487Y009412D02*
X002195Y009412D01*
X002145Y009296D02*
X002603Y009296D01*
X002522Y009179D02*
X002522Y009179D01*
X002522Y009063D02*
X002522Y009063D01*
X002522Y008946D02*
X002522Y008946D01*
X002699Y008829D02*
X002798Y008829D01*
X002770Y008946D02*
X002915Y008946D01*
X003031Y009063D02*
X002774Y009063D01*
X002720Y009179D02*
X002720Y009179D01*
X002325Y009179D02*
X002028Y009179D01*
X002594Y009762D02*
X002674Y009762D01*
X002678Y009768D02*
X002650Y009726D01*
X002644Y009712D01*
X002585Y009770D01*
X002585Y010324D01*
X002587Y010323D01*
X002622Y010314D01*
X002818Y010314D01*
X002818Y010609D01*
X002896Y010609D01*
X002896Y010314D01*
X003050Y010314D01*
X003050Y009932D01*
X003145Y009837D01*
X003075Y009809D01*
X003055Y009789D01*
X003040Y009804D01*
X002998Y009832D01*
X002951Y009851D01*
X002902Y009861D01*
X002877Y009861D01*
X002877Y009605D01*
X002877Y009605D01*
X002877Y009861D01*
X002852Y009861D01*
X002802Y009851D01*
X002756Y009832D01*
X002714Y009804D01*
X002678Y009768D01*
X002585Y009879D02*
X003103Y009879D01*
X003050Y009995D02*
X002585Y009995D01*
X002585Y010112D02*
X003050Y010112D01*
X003050Y010229D02*
X002585Y010229D01*
X002818Y010345D02*
X002896Y010345D01*
X002896Y010462D02*
X002818Y010462D01*
X002818Y010579D02*
X002896Y010579D01*
X002896Y010688D02*
X002818Y010688D01*
X002818Y010983D01*
X002622Y010983D01*
X002587Y010974D01*
X002585Y010973D01*
X002585Y011003D01*
X002590Y010999D01*
X003050Y010999D01*
X003050Y010983D01*
X002896Y010983D01*
X002896Y010688D01*
X002896Y010695D02*
X002818Y010695D01*
X002818Y010812D02*
X002896Y010812D01*
X002896Y010928D02*
X002818Y010928D01*
X002263Y010928D02*
X002016Y010928D01*
X002024Y010925D02*
X001862Y010992D01*
X001238Y010992D01*
X001076Y010925D01*
X000951Y010800D01*
X000884Y010638D01*
X000884Y010462D01*
X000951Y010300D01*
X001076Y010175D01*
X001238Y010108D01*
X001862Y010108D01*
X002024Y010175D01*
X002149Y010300D01*
X002216Y010462D01*
X002216Y010638D01*
X002149Y010800D01*
X002024Y010925D01*
X002137Y010812D02*
X002263Y010812D01*
X002263Y010695D02*
X002192Y010695D01*
X002216Y010579D02*
X002263Y010579D01*
X002263Y010462D02*
X002216Y010462D01*
X002168Y010345D02*
X002263Y010345D01*
X002263Y010229D02*
X002078Y010229D01*
X002263Y010112D02*
X001872Y010112D01*
X001228Y010112D02*
X000515Y010112D01*
X000515Y010229D02*
X001022Y010229D01*
X000932Y010345D02*
X000515Y010345D01*
X000515Y010462D02*
X000884Y010462D01*
X000884Y010579D02*
X000515Y010579D01*
X000515Y010695D02*
X000908Y010695D01*
X000963Y010812D02*
X000515Y010812D01*
X000515Y010928D02*
X001084Y010928D01*
X001109Y011162D02*
X000515Y011162D01*
X000515Y011278D02*
X000973Y011278D01*
X000951Y011300D02*
X001076Y011175D01*
X001238Y011108D01*
X001862Y011108D01*
X002024Y011175D01*
X002149Y011300D01*
X002216Y011462D01*
X002216Y011638D01*
X002149Y011800D01*
X002024Y011925D01*
X001862Y011992D01*
X001238Y011992D01*
X001076Y011925D01*
X000951Y011800D01*
X000884Y011638D01*
X000884Y011462D01*
X000951Y011300D01*
X000912Y011395D02*
X000515Y011395D01*
X000515Y011511D02*
X000884Y011511D01*
X000884Y011628D02*
X000515Y011628D01*
X000515Y011745D02*
X000928Y011745D01*
X001012Y011861D02*
X000515Y011861D01*
X000515Y011978D02*
X001204Y011978D01*
X001238Y012108D02*
X001076Y012175D01*
X000951Y012300D01*
X000884Y012462D01*
X000884Y012638D01*
X000951Y012800D01*
X001076Y012925D01*
X001238Y012992D01*
X001862Y012992D01*
X002024Y012925D01*
X002149Y012800D01*
X002216Y012638D01*
X002216Y012462D01*
X002149Y012300D01*
X002024Y012175D01*
X001862Y012108D01*
X001238Y012108D01*
X001040Y012211D02*
X000515Y012211D01*
X000515Y012094D02*
X002263Y012094D01*
X002263Y011978D02*
X001896Y011978D01*
X002088Y011861D02*
X002263Y011861D01*
X002263Y011745D02*
X002172Y011745D01*
X002216Y011628D02*
X002263Y011628D01*
X002263Y011511D02*
X002216Y011511D01*
X002188Y011395D02*
X002263Y011395D01*
X002263Y011278D02*
X002127Y011278D01*
X001991Y011162D02*
X002263Y011162D01*
X002263Y011045D02*
X000515Y011045D01*
X000515Y012328D02*
X000940Y012328D01*
X000891Y012444D02*
X000515Y012444D01*
X000515Y012561D02*
X000884Y012561D01*
X000900Y012677D02*
X000515Y012677D01*
X000515Y012794D02*
X000949Y012794D01*
X001062Y012911D02*
X000515Y012911D01*
X000515Y013027D02*
X002263Y013027D01*
X002263Y012911D02*
X002038Y012911D01*
X002151Y012794D02*
X002263Y012794D01*
X002263Y012677D02*
X002200Y012677D01*
X002216Y012561D02*
X002263Y012561D01*
X002263Y012444D02*
X002209Y012444D01*
X002160Y012328D02*
X002263Y012328D01*
X002263Y012211D02*
X002060Y012211D01*
X001862Y013108D02*
X001238Y013108D01*
X001076Y013175D01*
X000951Y013300D01*
X000884Y013462D01*
X000884Y013638D01*
X000951Y013800D01*
X001076Y013925D01*
X001238Y013992D01*
X001862Y013992D01*
X002024Y013925D01*
X002149Y013800D01*
X002216Y013638D01*
X002216Y013462D01*
X002149Y013300D01*
X002024Y013175D01*
X001862Y013108D01*
X001949Y013144D02*
X002263Y013144D01*
X002263Y013261D02*
X002110Y013261D01*
X002181Y013377D02*
X002263Y013377D01*
X002263Y013494D02*
X002216Y013494D01*
X002216Y013610D02*
X002263Y013610D01*
X002263Y013727D02*
X002179Y013727D01*
X002106Y013844D02*
X002263Y013844D01*
X002263Y013960D02*
X001939Y013960D01*
X001881Y014103D02*
X001810Y014092D01*
X001591Y014092D01*
X001591Y014509D01*
X001509Y014509D01*
X001509Y014092D01*
X001290Y014092D01*
X001219Y014103D01*
X001150Y014126D01*
X001086Y014158D01*
X001028Y014201D01*
X000977Y014252D01*
X000934Y014310D01*
X000902Y014374D01*
X000879Y014443D01*
X000869Y014509D01*
X001509Y014509D01*
X001509Y014591D01*
X000869Y014591D01*
X000879Y014657D01*
X000902Y014726D01*
X000934Y014790D01*
X000977Y014848D01*
X001028Y014899D01*
X001086Y014942D01*
X001150Y014974D01*
X001219Y014997D01*
X001290Y015008D01*
X001509Y015008D01*
X001509Y014591D01*
X001591Y014591D01*
X001591Y015008D01*
X001810Y015008D01*
X001881Y014997D01*
X001950Y014974D01*
X002014Y014942D01*
X002072Y014899D01*
X002123Y014848D01*
X002166Y014790D01*
X002198Y014726D01*
X002221Y014657D01*
X002231Y014591D01*
X001591Y014591D01*
X001591Y014509D01*
X002231Y014509D01*
X002221Y014443D01*
X002198Y014374D01*
X002166Y014310D01*
X002123Y014252D01*
X002072Y014201D01*
X002014Y014158D01*
X001950Y014126D01*
X001881Y014103D01*
X002062Y014193D02*
X002263Y014193D01*
X002263Y014077D02*
X000515Y014077D01*
X000515Y014193D02*
X001038Y014193D01*
X000934Y014310D02*
X000515Y014310D01*
X000515Y014427D02*
X000885Y014427D01*
X000880Y014660D02*
X000515Y014660D01*
X000515Y014776D02*
X000928Y014776D01*
X001022Y014893D02*
X000515Y014893D01*
X000515Y015010D02*
X002263Y015010D01*
X002263Y015126D02*
X001906Y015126D01*
X001862Y015108D02*
X002024Y015175D01*
X002149Y015300D01*
X002216Y015462D01*
X002216Y015638D01*
X002149Y015800D01*
X002024Y015925D01*
X001862Y015992D01*
X001238Y015992D01*
X001076Y015925D01*
X000951Y015800D01*
X000884Y015638D01*
X000884Y015462D01*
X000951Y015300D01*
X001076Y015175D01*
X001238Y015108D01*
X001862Y015108D01*
X001591Y014893D02*
X001509Y014893D01*
X001509Y014776D02*
X001591Y014776D01*
X001591Y014660D02*
X001509Y014660D01*
X001509Y014543D02*
X000515Y014543D01*
X000515Y015126D02*
X001194Y015126D01*
X001008Y015243D02*
X000515Y015243D01*
X000515Y015360D02*
X000926Y015360D01*
X000884Y015476D02*
X000515Y015476D01*
X000515Y015593D02*
X000884Y015593D01*
X000914Y015709D02*
X000515Y015709D01*
X000515Y015826D02*
X000977Y015826D01*
X001119Y015943D02*
X000515Y015943D01*
X000515Y016059D02*
X003000Y016059D01*
X002890Y015943D02*
X001981Y015943D01*
X002123Y015826D02*
X002779Y015826D01*
X002669Y015709D02*
X002186Y015709D01*
X002216Y015593D02*
X002559Y015593D01*
X002449Y015476D02*
X002216Y015476D01*
X002174Y015360D02*
X002338Y015360D01*
X002262Y015243D02*
X002092Y015243D01*
X002078Y014893D02*
X002263Y014893D01*
X002263Y014776D02*
X002172Y014776D01*
X002220Y014660D02*
X002263Y014660D01*
X002263Y014543D02*
X001591Y014543D01*
X001591Y014427D02*
X001509Y014427D01*
X001509Y014310D02*
X001591Y014310D01*
X001591Y014193D02*
X001509Y014193D01*
X001161Y013960D02*
X000515Y013960D01*
X000515Y013844D02*
X000994Y013844D01*
X000921Y013727D02*
X000515Y013727D01*
X000515Y013610D02*
X000884Y013610D01*
X000884Y013494D02*
X000515Y013494D01*
X000515Y013377D02*
X000919Y013377D01*
X000990Y013261D02*
X000515Y013261D01*
X000515Y013144D02*
X001151Y013144D01*
X002166Y014310D02*
X002263Y014310D01*
X002263Y014427D02*
X002215Y014427D01*
X004115Y016059D02*
X004346Y016059D01*
X004636Y016059D02*
X004713Y016059D01*
X005101Y012328D02*
X005180Y012328D01*
X005180Y012211D02*
X005101Y012211D01*
X004786Y011978D02*
X004751Y011978D01*
X004751Y011861D02*
X004786Y011861D01*
X004751Y011745D02*
X004864Y011745D01*
X004862Y011628D02*
X005073Y011628D01*
X005025Y011511D02*
X004978Y011511D01*
X005417Y011745D02*
X005516Y011745D01*
X005486Y012328D02*
X005479Y012328D01*
X002877Y009762D02*
X002877Y009762D01*
X002877Y009646D02*
X002877Y009646D01*
X002164Y007896D02*
X002053Y007896D01*
X002157Y007780D02*
X002164Y007780D01*
X010164Y005475D02*
X010164Y004812D01*
X010360Y005008D01*
X010509Y005008D01*
X010509Y004591D01*
X010591Y004591D01*
X010591Y005008D01*
X010632Y005008D01*
X010164Y005475D01*
X010164Y005448D02*
X010192Y005448D01*
X010164Y005331D02*
X010308Y005331D01*
X010425Y005214D02*
X010164Y005214D01*
X010164Y005098D02*
X010542Y005098D01*
X010509Y004981D02*
X010591Y004981D01*
X010591Y004865D02*
X010509Y004865D01*
X010509Y004748D02*
X010591Y004748D01*
X010591Y004631D02*
X010509Y004631D01*
X010217Y004865D02*
X010164Y004865D01*
X010164Y004981D02*
X010334Y004981D01*
X010879Y003232D02*
X010931Y003232D01*
X011048Y003115D02*
X010763Y003115D01*
X010749Y002999D02*
X011164Y002999D01*
X011257Y002882D02*
X010865Y002882D01*
X010982Y002766D02*
X011140Y002766D01*
X011108Y002649D02*
X011008Y002649D01*
D28*
X011381Y003011D02*
X011085Y003306D01*
X011085Y003798D01*
X010790Y004093D01*
X010200Y004093D01*
X010003Y004290D01*
X010003Y005570D01*
X009806Y005767D01*
X008428Y005767D01*
X008133Y006062D01*
X008133Y006456D01*
X008133Y006357D01*
X007936Y006456D02*
X007936Y006849D01*
X008034Y006948D01*
X008822Y007735D01*
X009412Y007735D01*
X010200Y007735D01*
X010298Y007637D01*
X010396Y007341D02*
X011774Y005963D01*
X011774Y005326D01*
X012550Y004550D01*
X012070Y004684D02*
X012070Y004290D01*
X012550Y003810D01*
X012550Y003550D01*
X012070Y003700D02*
X012070Y003306D01*
X012550Y002826D01*
X012550Y002550D01*
X012070Y002715D02*
X012070Y002322D01*
X012550Y001841D01*
X012550Y001550D01*
X012070Y002715D02*
X011774Y003011D01*
X011381Y003011D01*
X012070Y003700D02*
X011774Y003995D01*
X011381Y003995D01*
X011085Y004290D01*
X011085Y004782D01*
X009904Y005963D01*
X008526Y005963D01*
X008330Y006160D01*
X008330Y006456D01*
X008526Y006456D02*
X010298Y006456D01*
X012070Y004684D01*
X012550Y005550D02*
X011578Y006522D01*
X011578Y007833D01*
X011479Y007932D01*
X009412Y007932D01*
X009412Y008129D02*
X011676Y008129D01*
X011774Y008030D01*
X011774Y007326D01*
X012550Y006550D01*
X012550Y007550D02*
X011774Y008326D01*
X009412Y008326D01*
X009412Y008522D02*
X012522Y008522D01*
X012550Y008550D01*
X011627Y008818D02*
X011578Y008719D01*
X009412Y008719D01*
X009412Y008916D02*
X010987Y008916D01*
X011085Y009015D01*
X010987Y009507D02*
X012507Y009507D01*
X012550Y009550D01*
X011676Y009704D02*
X012463Y010491D01*
X012491Y010491D01*
X012550Y010550D01*
X012550Y011550D02*
X011294Y010294D01*
X010593Y010294D01*
X010396Y010097D01*
X010396Y009900D01*
X010200Y009704D01*
X009412Y009704D01*
X009412Y009507D02*
X010298Y009507D01*
X010790Y009999D01*
X010889Y009704D02*
X011676Y009704D01*
X010987Y009507D02*
X010593Y009113D01*
X009412Y009113D01*
X009412Y009310D02*
X010495Y009310D01*
X010889Y009704D01*
X010200Y009999D02*
X010200Y010196D01*
X010495Y010491D01*
X011184Y010491D01*
X011479Y010786D01*
X011479Y011022D01*
X011420Y011081D01*
X011420Y011121D01*
X011479Y011180D01*
X011479Y011479D01*
X012550Y012550D01*
X012550Y013550D02*
X011282Y013562D01*
X011282Y012361D01*
X010987Y012066D01*
X009117Y012066D01*
X008723Y011672D01*
X008723Y011180D01*
X008526Y011180D01*
X008330Y011180D02*
X008330Y011574D01*
X008428Y011672D01*
X008133Y011869D02*
X008231Y011967D01*
X008133Y011869D02*
X008133Y011180D01*
X007936Y011180D02*
X007936Y011869D01*
X007837Y011967D01*
X007641Y011672D02*
X007739Y011574D01*
X007739Y011180D01*
X007542Y011180D02*
X007542Y010786D01*
X007739Y010589D01*
X007148Y010589D02*
X006952Y010786D01*
X006952Y011180D01*
X006755Y011180D02*
X006755Y012066D01*
X006952Y012263D01*
X009747Y012263D01*
X010298Y012814D01*
X010298Y013483D02*
X010318Y013700D01*
X010318Y014674D01*
X010062Y014674D02*
X010062Y013995D01*
X009707Y013641D01*
X009471Y013641D01*
X009412Y013483D01*
X009609Y013837D02*
X008822Y013837D01*
X008526Y013483D01*
X008526Y012814D02*
X008369Y012656D01*
X006656Y012656D01*
X006164Y012164D01*
X006164Y011180D01*
X005967Y011180D02*
X005967Y010885D01*
X006263Y010589D01*
X005967Y010589D02*
X005967Y010294D01*
X006361Y009900D01*
X006656Y010589D02*
X006558Y010688D01*
X006558Y011180D01*
X006361Y011180D02*
X006361Y012066D01*
X006755Y012459D01*
X009058Y012459D01*
X009412Y012814D01*
X009609Y013837D02*
X009806Y014034D01*
X009806Y014674D01*
X009550Y014674D02*
X009550Y014172D01*
X009511Y014133D01*
X007542Y015019D02*
X007542Y013050D01*
X006952Y013690D02*
X006400Y014290D01*
X006400Y015475D01*
X005967Y015475D02*
X005967Y015707D01*
X006066Y015806D01*
X006755Y015806D01*
X007542Y015019D01*
X005790Y015826D02*
X005790Y015865D01*
X005790Y015826D02*
X005770Y015806D01*
X005770Y013641D01*
X005770Y012066D01*
X005810Y012066D01*
X005770Y012066D02*
X005770Y011770D01*
X005574Y011574D01*
X005574Y011180D01*
X005770Y011180D02*
X005770Y010786D01*
X005967Y010589D01*
X005574Y010491D02*
X005574Y008719D01*
X005770Y008522D01*
X005770Y006456D01*
X005967Y006456D02*
X005967Y006062D01*
X005869Y005963D01*
X006066Y005668D02*
X005672Y005668D01*
X006066Y005668D02*
X006164Y005767D01*
X006164Y006456D01*
X006361Y006456D02*
X006361Y005274D01*
X006164Y004979D01*
X005928Y004585D01*
X006755Y005274D02*
X007050Y005274D01*
X007089Y005038D01*
X007385Y004585D01*
X008034Y004979D02*
X008625Y004979D01*
X009215Y004389D01*
X009215Y003011D01*
X008723Y002519D01*
X008231Y002519D01*
X008034Y002322D01*
X007322Y002322D01*
X006550Y001550D01*
X005550Y001550D02*
X004680Y002420D01*
X004491Y002420D01*
X004196Y002715D01*
X004196Y005668D01*
X003507Y006357D01*
X003507Y007538D01*
X003704Y007735D01*
X004688Y007735D01*
X004688Y007932D02*
X005377Y007932D01*
X005377Y008326D02*
X004688Y008326D01*
X003408Y008326D01*
X002916Y007833D01*
X002916Y006062D01*
X002719Y005865D01*
X002719Y005078D01*
X002522Y004881D01*
X002522Y004192D01*
X002326Y003995D01*
X002326Y003306D01*
X001550Y002550D01*
X001550Y003550D02*
X002326Y004290D01*
X002326Y004979D01*
X002522Y005176D01*
X002522Y005963D01*
X002719Y006160D01*
X002719Y007932D01*
X003310Y008522D01*
X004688Y008522D01*
X005180Y008522D01*
X005377Y008719D01*
X005377Y010393D01*
X004786Y010983D01*
X004786Y011180D01*
X004393Y011574D01*
X004393Y012755D01*
X005081Y013444D01*
X005322Y013148D02*
X004589Y012459D01*
X004589Y011672D01*
X004983Y011278D01*
X004983Y011081D01*
X005574Y010491D01*
X005180Y010294D02*
X004688Y010786D01*
X003900Y010786D01*
X003704Y010983D01*
X003999Y011180D02*
X003900Y011278D01*
X003900Y013247D01*
X005081Y014428D01*
X005081Y015456D01*
X005101Y015475D01*
X004806Y015475D02*
X004786Y015475D01*
X004786Y015904D01*
X005322Y015904D01*
X005322Y013148D01*
X004294Y013148D02*
X004196Y013050D01*
X004196Y011377D01*
X004491Y011081D01*
X004097Y010491D02*
X004294Y010294D01*
X004688Y010294D01*
X004688Y010097D02*
X003900Y010097D01*
X003802Y010196D01*
X003605Y009900D02*
X004688Y009900D01*
X004688Y009704D02*
X003507Y009704D01*
X003211Y009999D01*
X003211Y011377D01*
X002916Y011377D01*
X002857Y011318D01*
X003211Y011377D02*
X003408Y011574D01*
X003408Y014920D01*
X003113Y015215D01*
X003113Y015668D01*
X003211Y015786D01*
X003802Y015786D01*
X003802Y015475D01*
X004196Y015475D02*
X004196Y015806D01*
X003999Y015944D01*
X003113Y015944D01*
X002424Y015215D01*
X002424Y009704D01*
X002818Y009310D01*
X004688Y009310D01*
X004688Y009507D02*
X003310Y009507D01*
X003211Y009605D01*
X003605Y009900D02*
X003408Y010097D01*
X003408Y011278D01*
X003605Y011475D01*
X003605Y015019D01*
X003408Y015215D01*
X003408Y015475D01*
X003369Y015475D01*
X004196Y015475D02*
X004235Y015475D01*
X004491Y015515D02*
X004491Y015865D01*
X004491Y015515D02*
X004530Y015475D01*
X007050Y011967D02*
X007148Y011869D01*
X007148Y011180D01*
X007345Y011180D02*
X007345Y011869D01*
X007444Y011967D01*
X006755Y010589D02*
X006656Y010589D01*
X005180Y010294D02*
X005180Y008818D01*
X005081Y008719D01*
X004688Y008719D01*
X004688Y008916D02*
X003408Y008916D01*
X002522Y008030D01*
X002522Y006259D01*
X002326Y006062D01*
X002326Y005326D01*
X001550Y004550D01*
X002522Y003896D02*
X002522Y001578D01*
X002550Y001550D01*
X003507Y001593D02*
X003550Y001550D01*
X003507Y001593D02*
X003507Y002223D01*
X003290Y002440D01*
X003290Y002991D01*
X003310Y003011D01*
X003704Y003011D01*
X004491Y003011D02*
X004688Y003011D01*
X004904Y002991D01*
X003999Y002200D02*
X004550Y001550D01*
X003999Y002200D02*
X003999Y005570D01*
X003310Y006259D01*
X003310Y007637D01*
X003605Y007932D01*
X004688Y007932D01*
X004688Y008129D02*
X003507Y008129D01*
X003113Y007735D01*
X003113Y005963D01*
X002916Y005767D01*
X002916Y004979D01*
X002719Y004782D01*
X002719Y004093D01*
X002522Y003896D01*
X003507Y004585D02*
X003408Y004881D01*
X003290Y004959D01*
X004688Y004585D02*
X004806Y004881D01*
X004904Y004959D01*
X006558Y005471D02*
X006755Y005274D01*
X006558Y005471D02*
X006558Y006456D01*
X006755Y006456D02*
X006755Y005668D01*
X006853Y005570D01*
X006952Y005865D02*
X007345Y005471D01*
X007542Y005471D01*
X008034Y004979D01*
X008133Y005176D02*
X008723Y005176D01*
X009412Y004487D01*
X009412Y002814D01*
X008920Y002322D01*
X008322Y002322D01*
X007550Y001550D01*
X008550Y001550D02*
X009609Y002609D01*
X009609Y004585D01*
X008822Y005373D01*
X008231Y005373D01*
X007739Y005865D01*
X007542Y005865D01*
X007345Y006062D01*
X007345Y006456D01*
X007148Y006456D02*
X007148Y005963D01*
X007444Y005668D01*
X007641Y005668D01*
X008133Y005176D01*
X008330Y005570D02*
X008920Y005570D01*
X009806Y004684D01*
X009806Y001806D01*
X009550Y001550D01*
X008526Y003011D02*
X008231Y003011D01*
X008202Y003020D01*
X007867Y003020D02*
X007847Y003020D01*
X007837Y003011D01*
X007641Y003011D01*
X007444Y002814D01*
X006853Y002912D02*
X006853Y002617D01*
X006853Y002912D02*
X006824Y003020D01*
X006489Y003020D02*
X006459Y002912D01*
X006459Y002617D01*
X008330Y005570D02*
X007837Y006062D01*
X007641Y006062D01*
X007542Y006160D01*
X007542Y006456D01*
X007739Y006456D02*
X007739Y006849D01*
X007641Y006948D01*
X006952Y006456D02*
X006952Y005865D01*
X008822Y007735D02*
X008822Y010196D01*
X008920Y010294D01*
X009412Y010294D01*
X009412Y010097D02*
X009806Y010097D01*
X009904Y010196D01*
X010101Y009900D02*
X010200Y009999D01*
X010101Y009900D02*
X009412Y009900D01*
X009412Y011022D02*
X009471Y011081D01*
X009412Y007341D02*
X010396Y007341D01*
X004688Y009113D02*
X003310Y009113D01*
X002326Y008129D01*
X002326Y006341D01*
X001550Y005566D01*
X001550Y005550D01*
D29*
X009412Y010294D02*
X009412Y010983D01*
M02*
