G75*
%MOIN*%
%OFA0B0*%
%FSLAX24Y24*%
%IPPOS*%
%LPD*%
%AMOC8*
5,1,8,0,0,1.08239X$1,22.5*
%
%ADD10C,0.0000*%
%ADD11C,0.0030*%
%ADD12C,0.0100*%
%ADD13C,0.0050*%
%ADD14C,0.0060*%
D10*
X000357Y000550D02*
X000357Y016298D01*
X013743Y016298D01*
X013743Y000550D01*
X000357Y000550D01*
D11*
X000662Y001130D02*
X000614Y001178D01*
X000614Y001273D01*
X000662Y001320D01*
X000709Y001320D01*
X000757Y001273D01*
X000804Y001320D01*
X000852Y001320D01*
X000900Y001273D01*
X000900Y001178D01*
X000852Y001130D01*
X000757Y001225D02*
X000757Y001273D01*
X000804Y001420D02*
X000614Y001420D01*
X000614Y001610D02*
X000804Y001610D01*
X000900Y001515D01*
X000804Y001420D01*
X000852Y001710D02*
X000900Y001758D01*
X000900Y001853D01*
X000852Y001900D01*
X000804Y001900D01*
X000757Y001853D01*
X000757Y001805D01*
X000757Y001853D02*
X000709Y001900D01*
X000662Y001900D01*
X000614Y001853D01*
X000614Y001758D01*
X000662Y001710D01*
X000614Y002275D02*
X000614Y002418D01*
X000662Y002465D01*
X000709Y002465D01*
X000757Y002418D01*
X000757Y002275D01*
X000900Y002275D02*
X000900Y002418D01*
X000852Y002465D01*
X000804Y002465D01*
X000757Y002418D01*
X000852Y002565D02*
X000900Y002565D01*
X000852Y002565D02*
X000662Y002755D01*
X000614Y002755D01*
X000614Y002565D01*
X000614Y002275D02*
X000900Y002275D01*
X000900Y003275D02*
X000614Y003275D01*
X000614Y003418D01*
X000662Y003465D01*
X000709Y003465D01*
X000757Y003418D01*
X000757Y003275D01*
X000900Y003275D02*
X000900Y003418D01*
X000852Y003465D01*
X000804Y003465D01*
X000757Y003418D01*
X000757Y003565D02*
X000757Y003708D01*
X000804Y003755D01*
X000852Y003755D01*
X000900Y003708D01*
X000900Y003613D01*
X000852Y003565D01*
X000757Y003565D01*
X000662Y003660D01*
X000614Y003755D01*
X000614Y004275D02*
X000614Y004418D01*
X000662Y004465D01*
X000709Y004465D01*
X000757Y004418D01*
X000757Y004275D01*
X000900Y004275D02*
X000900Y004418D01*
X000852Y004465D01*
X000804Y004465D01*
X000757Y004418D01*
X000757Y004565D02*
X000757Y004755D01*
X000900Y004708D02*
X000614Y004708D01*
X000757Y004565D01*
X000900Y004275D02*
X000614Y004275D01*
X000614Y005275D02*
X000614Y005418D01*
X000662Y005465D01*
X000709Y005465D01*
X000757Y005418D01*
X000757Y005275D01*
X000900Y005275D02*
X000614Y005275D01*
X000757Y005418D02*
X000804Y005465D01*
X000852Y005465D01*
X000900Y005418D01*
X000900Y005275D01*
X000852Y005565D02*
X000900Y005613D01*
X000900Y005708D01*
X000852Y005755D01*
X000804Y005755D01*
X000757Y005708D01*
X000757Y005660D01*
X000757Y005708D02*
X000709Y005755D01*
X000662Y005755D01*
X000614Y005708D01*
X000614Y005613D01*
X000662Y005565D01*
X000709Y006130D02*
X000614Y006225D01*
X000709Y006320D01*
X000900Y006320D01*
X000900Y006420D02*
X000900Y006610D01*
X000900Y006515D02*
X000614Y006515D01*
X000709Y006420D01*
X000757Y006320D02*
X000757Y006130D01*
X000709Y006130D02*
X000900Y006130D01*
X000852Y006710D02*
X000900Y006758D01*
X000900Y006853D01*
X000852Y006900D01*
X000757Y006900D01*
X000709Y006853D01*
X000709Y006805D01*
X000757Y006710D01*
X000614Y006710D01*
X000614Y006900D01*
X000709Y007130D02*
X000614Y007225D01*
X000709Y007320D01*
X000900Y007320D01*
X000900Y007420D02*
X000900Y007610D01*
X000900Y007515D02*
X000614Y007515D01*
X000709Y007420D01*
X000757Y007320D02*
X000757Y007130D01*
X000709Y007130D02*
X000900Y007130D01*
X000757Y007710D02*
X000757Y007900D01*
X000900Y007853D02*
X000614Y007853D01*
X000757Y007710D01*
X000757Y008130D02*
X000757Y008320D01*
X000709Y008320D02*
X000900Y008320D01*
X000900Y008420D02*
X000900Y008610D01*
X000900Y008515D02*
X000614Y008515D01*
X000709Y008420D01*
X000709Y008320D02*
X000614Y008225D01*
X000709Y008130D01*
X000900Y008130D01*
X000852Y008710D02*
X000900Y008758D01*
X000900Y008853D01*
X000852Y008900D01*
X000804Y008900D01*
X000757Y008853D01*
X000757Y008805D01*
X000757Y008853D02*
X000709Y008900D01*
X000662Y008900D01*
X000614Y008853D01*
X000614Y008758D01*
X000662Y008710D01*
X000662Y009275D02*
X000852Y009275D01*
X000900Y009323D01*
X000900Y009418D01*
X000852Y009465D01*
X000852Y009565D02*
X000900Y009565D01*
X000852Y009565D02*
X000662Y009755D01*
X000614Y009755D01*
X000614Y009565D01*
X000662Y009465D02*
X000614Y009418D01*
X000614Y009323D01*
X000662Y009275D01*
X000662Y010275D02*
X000852Y010275D01*
X000900Y010323D01*
X000900Y010418D01*
X000852Y010465D01*
X000852Y010565D02*
X000757Y010565D01*
X000757Y010708D01*
X000804Y010755D01*
X000852Y010755D01*
X000900Y010708D01*
X000900Y010613D01*
X000852Y010565D01*
X000757Y010565D02*
X000662Y010660D01*
X000614Y010755D01*
X000662Y010465D02*
X000614Y010418D01*
X000614Y010323D01*
X000662Y010275D01*
X000614Y011130D02*
X000614Y011273D01*
X000662Y011320D01*
X000709Y011320D01*
X000757Y011273D01*
X000757Y011130D01*
X000900Y011130D02*
X000900Y011273D01*
X000852Y011320D01*
X000804Y011320D01*
X000757Y011273D01*
X000709Y011420D02*
X000614Y011515D01*
X000900Y011515D01*
X000900Y011420D02*
X000900Y011610D01*
X000852Y011710D02*
X000900Y011758D01*
X000900Y011853D01*
X000852Y011900D01*
X000757Y011900D01*
X000709Y011853D01*
X000709Y011805D01*
X000757Y011710D01*
X000614Y011710D01*
X000614Y011900D01*
X000614Y012130D02*
X000614Y012273D01*
X000662Y012320D01*
X000709Y012320D01*
X000757Y012273D01*
X000757Y012130D01*
X000900Y012130D02*
X000900Y012273D01*
X000852Y012320D01*
X000804Y012320D01*
X000757Y012273D01*
X000709Y012420D02*
X000614Y012515D01*
X000900Y012515D01*
X000900Y012420D02*
X000900Y012610D01*
X000757Y012710D02*
X000757Y012900D01*
X000900Y012853D02*
X000614Y012853D01*
X000757Y012710D01*
X000757Y013130D02*
X000757Y013273D01*
X000804Y013320D01*
X000852Y013320D01*
X000900Y013273D01*
X000900Y013130D01*
X000614Y013130D01*
X000614Y013273D01*
X000662Y013320D01*
X000709Y013320D01*
X000757Y013273D01*
X000709Y013420D02*
X000614Y013515D01*
X000900Y013515D01*
X000900Y013420D02*
X000900Y013610D01*
X000852Y013710D02*
X000900Y013758D01*
X000900Y013853D01*
X000852Y013900D01*
X000804Y013900D01*
X000757Y013853D01*
X000757Y013805D01*
X000757Y013853D02*
X000709Y013900D01*
X000662Y013900D01*
X000614Y013853D01*
X000614Y013758D01*
X000662Y013710D01*
X000662Y014130D02*
X000852Y014130D01*
X000900Y014178D01*
X000900Y014273D01*
X000852Y014320D01*
X000757Y014320D01*
X000757Y014225D01*
X000662Y014130D02*
X000614Y014178D01*
X000614Y014273D01*
X000662Y014320D01*
X000614Y014420D02*
X000900Y014610D01*
X000614Y014610D01*
X000614Y014710D02*
X000614Y014853D01*
X000662Y014900D01*
X000852Y014900D01*
X000900Y014853D01*
X000900Y014710D01*
X000614Y014710D01*
X000614Y014420D02*
X000900Y014420D01*
X000852Y015130D02*
X000900Y015178D01*
X000900Y015273D01*
X000852Y015320D01*
X000804Y015320D01*
X000757Y015273D01*
X000757Y015225D01*
X000757Y015273D02*
X000709Y015320D01*
X000662Y015320D01*
X000614Y015273D01*
X000614Y015178D01*
X000662Y015130D01*
X000614Y015420D02*
X000804Y015420D01*
X000900Y015515D01*
X000804Y015610D01*
X000614Y015610D01*
X000662Y015710D02*
X000614Y015758D01*
X000614Y015853D01*
X000662Y015900D01*
X000709Y015900D01*
X000757Y015853D01*
X000804Y015900D01*
X000852Y015900D01*
X000900Y015853D01*
X000900Y015758D01*
X000852Y015710D01*
X000757Y015805D02*
X000757Y015853D01*
X002407Y013852D02*
X002407Y013448D01*
X002541Y013448D02*
X002272Y013448D01*
X002272Y013717D02*
X002407Y013852D01*
X002671Y013785D02*
X002738Y013852D01*
X002873Y013852D01*
X002940Y013785D01*
X002940Y013717D01*
X002873Y013650D01*
X002940Y013583D01*
X002940Y013516D01*
X002873Y013448D01*
X002738Y013448D01*
X002671Y013516D01*
X002805Y013650D02*
X002873Y013650D01*
X002805Y012752D02*
X002805Y012348D01*
X002671Y012348D02*
X002940Y012348D01*
X003070Y012550D02*
X003339Y012550D01*
X003271Y012348D02*
X003271Y012752D01*
X003070Y012550D01*
X002805Y012752D02*
X002671Y012617D01*
X002541Y012617D02*
X002541Y012685D01*
X002474Y012752D01*
X002272Y012752D01*
X002272Y012348D01*
X002474Y012348D01*
X002541Y012416D01*
X002541Y012483D01*
X002474Y012550D01*
X002272Y012550D01*
X002474Y012550D02*
X002541Y012617D01*
X002474Y012052D02*
X002272Y012052D01*
X002272Y011648D01*
X002474Y011648D01*
X002541Y011716D01*
X002541Y011783D01*
X002474Y011850D01*
X002272Y011850D01*
X002474Y011850D02*
X002541Y011917D01*
X002541Y011985D01*
X002474Y012052D01*
X002671Y011917D02*
X002805Y012052D01*
X002805Y011648D01*
X002671Y011648D02*
X002940Y011648D01*
X003070Y011716D02*
X003137Y011648D01*
X003271Y011648D01*
X003339Y011716D01*
X003339Y011850D01*
X003271Y011917D01*
X003204Y011917D01*
X003070Y011850D01*
X003070Y012052D01*
X003339Y012052D01*
X002940Y010452D02*
X002805Y010385D01*
X002671Y010250D01*
X002873Y010250D01*
X002940Y010183D01*
X002940Y010116D01*
X002873Y010048D01*
X002738Y010048D01*
X002671Y010116D01*
X002671Y010250D01*
X002541Y010116D02*
X002474Y010048D01*
X002339Y010048D01*
X002272Y010116D01*
X002272Y010385D01*
X002339Y010452D01*
X002474Y010452D01*
X002541Y010385D01*
X002474Y009752D02*
X002339Y009752D01*
X002272Y009685D01*
X002272Y009416D01*
X002339Y009348D01*
X002474Y009348D01*
X002541Y009416D01*
X002671Y009416D02*
X002671Y009348D01*
X002671Y009416D02*
X002940Y009685D01*
X002940Y009752D01*
X002671Y009752D01*
X002541Y009685D02*
X002474Y009752D01*
X002407Y008752D02*
X002541Y008617D01*
X002541Y008348D01*
X002671Y008348D02*
X002940Y008348D01*
X002805Y008348D02*
X002805Y008752D01*
X002671Y008617D01*
X002541Y008550D02*
X002272Y008550D01*
X002272Y008617D02*
X002272Y008348D01*
X002272Y008617D02*
X002407Y008752D01*
X003070Y008685D02*
X003137Y008752D01*
X003271Y008752D01*
X003339Y008685D01*
X003339Y008617D01*
X003271Y008550D01*
X003339Y008483D01*
X003339Y008416D01*
X003271Y008348D01*
X003137Y008348D01*
X003070Y008416D01*
X003204Y008550D02*
X003271Y008550D01*
X003271Y007752D02*
X003070Y007550D01*
X003339Y007550D01*
X003271Y007348D02*
X003271Y007752D01*
X002805Y007752D02*
X002805Y007348D01*
X002671Y007348D02*
X002940Y007348D01*
X002671Y007617D02*
X002805Y007752D01*
X002541Y007617D02*
X002541Y007348D01*
X002541Y007550D02*
X002272Y007550D01*
X002272Y007617D02*
X002272Y007348D01*
X002272Y007617D02*
X002407Y007752D01*
X002541Y007617D01*
X002407Y006752D02*
X002541Y006617D01*
X002541Y006348D01*
X002671Y006348D02*
X002940Y006348D01*
X002805Y006348D02*
X002805Y006752D01*
X002671Y006617D01*
X002541Y006550D02*
X002272Y006550D01*
X002272Y006617D02*
X002272Y006348D01*
X002272Y006617D02*
X002407Y006752D01*
X003070Y006752D02*
X003070Y006550D01*
X003204Y006617D01*
X003271Y006617D01*
X003339Y006550D01*
X003339Y006416D01*
X003271Y006348D01*
X003137Y006348D01*
X003070Y006416D01*
X003070Y006752D02*
X003339Y006752D01*
X003677Y006106D02*
X003677Y005868D01*
X003725Y005821D01*
X003820Y005821D01*
X003867Y005868D01*
X003867Y006106D01*
X003967Y006059D02*
X003967Y006011D01*
X004015Y005964D01*
X004110Y005964D01*
X004157Y005916D01*
X004157Y005868D01*
X004110Y005821D01*
X004015Y005821D01*
X003967Y005868D01*
X003967Y006059D02*
X004015Y006106D01*
X004110Y006106D01*
X004157Y006059D01*
X004257Y006106D02*
X004257Y005821D01*
X004257Y005916D02*
X004400Y005916D01*
X004447Y005964D01*
X004447Y006059D01*
X004400Y006106D01*
X004257Y006106D01*
X004352Y005916D02*
X004447Y005821D01*
X002940Y005685D02*
X002940Y005617D01*
X002873Y005550D01*
X002940Y005483D01*
X002940Y005416D01*
X002873Y005348D01*
X002738Y005348D01*
X002671Y005416D01*
X002541Y005416D02*
X002541Y005483D01*
X002474Y005550D01*
X002272Y005550D01*
X002272Y005348D02*
X002474Y005348D01*
X002541Y005416D01*
X002474Y005550D02*
X002541Y005617D01*
X002541Y005685D01*
X002474Y005752D01*
X002272Y005752D01*
X002272Y005348D01*
X002671Y005685D02*
X002738Y005752D01*
X002873Y005752D01*
X002940Y005685D01*
X002873Y005550D02*
X002805Y005550D01*
X002873Y004752D02*
X002671Y004550D01*
X002940Y004550D01*
X002873Y004348D02*
X002873Y004752D01*
X002541Y004685D02*
X002541Y004617D01*
X002474Y004550D01*
X002272Y004550D01*
X002272Y004348D02*
X002474Y004348D01*
X002541Y004416D01*
X002541Y004483D01*
X002474Y004550D01*
X002541Y004685D02*
X002474Y004752D01*
X002272Y004752D01*
X002272Y004348D01*
X002272Y003752D02*
X002474Y003752D01*
X002541Y003685D01*
X002541Y003617D01*
X002474Y003550D01*
X002272Y003550D01*
X002272Y003348D02*
X002474Y003348D01*
X002541Y003416D01*
X002541Y003483D01*
X002474Y003550D01*
X002671Y003550D02*
X002671Y003416D01*
X002738Y003348D01*
X002873Y003348D01*
X002940Y003416D01*
X002940Y003483D01*
X002873Y003550D01*
X002671Y003550D01*
X002805Y003685D01*
X002940Y003752D01*
X002272Y003752D02*
X002272Y003348D01*
X002272Y002752D02*
X002474Y002752D01*
X002541Y002685D01*
X002541Y002617D01*
X002474Y002550D01*
X002272Y002550D01*
X002272Y002348D02*
X002474Y002348D01*
X002541Y002416D01*
X002541Y002483D01*
X002474Y002550D01*
X002671Y002416D02*
X002671Y002348D01*
X002671Y002416D02*
X002940Y002685D01*
X002940Y002752D01*
X002671Y002752D01*
X002272Y002752D02*
X002272Y002348D01*
X002280Y000993D02*
X002185Y000993D01*
X002137Y000945D01*
X002137Y000755D01*
X002185Y000708D01*
X002280Y000708D01*
X002327Y000755D01*
X002327Y000945D01*
X002280Y000993D01*
X002427Y000945D02*
X002427Y000755D01*
X002475Y000708D01*
X002570Y000708D01*
X002617Y000755D01*
X002617Y000945D01*
X002570Y000993D01*
X002475Y000993D01*
X002427Y000945D01*
X002717Y000993D02*
X002907Y000993D01*
X002812Y000993D02*
X002812Y000708D01*
X003007Y000755D02*
X003007Y000945D01*
X003055Y000993D01*
X003150Y000993D01*
X003197Y000945D01*
X003007Y000755D01*
X003055Y000708D01*
X003150Y000708D01*
X003197Y000755D01*
X003197Y000945D01*
X003537Y000993D02*
X003537Y000708D01*
X003537Y000803D02*
X003680Y000803D01*
X003727Y000850D01*
X003727Y000945D01*
X003680Y000993D01*
X003537Y000993D01*
X003632Y000803D02*
X003727Y000708D01*
X003827Y000755D02*
X003875Y000708D01*
X003970Y000708D01*
X004017Y000755D01*
X004017Y000803D01*
X003970Y000850D01*
X003875Y000850D01*
X003827Y000898D01*
X003827Y000945D01*
X003875Y000993D01*
X003970Y000993D01*
X004017Y000945D01*
X004117Y000993D02*
X004307Y000993D01*
X004212Y000993D02*
X004212Y000708D01*
X004282Y002208D02*
X004425Y002208D01*
X004472Y002255D01*
X004472Y002303D01*
X004425Y002350D01*
X004282Y002350D01*
X004282Y002208D02*
X004282Y002493D01*
X004425Y002493D01*
X004472Y002445D01*
X004472Y002398D01*
X004425Y002350D01*
X004572Y002303D02*
X004620Y002350D01*
X004715Y002350D01*
X004762Y002303D01*
X004762Y002255D01*
X004715Y002208D01*
X004620Y002208D01*
X004572Y002255D01*
X004572Y002303D01*
X004620Y002350D02*
X004572Y002398D01*
X004572Y002445D01*
X004620Y002493D01*
X004715Y002493D01*
X004762Y002445D01*
X004762Y002398D01*
X004715Y002350D01*
X005282Y002350D02*
X005425Y002350D01*
X005472Y002303D01*
X005472Y002255D01*
X005425Y002208D01*
X005282Y002208D01*
X005282Y002493D01*
X005425Y002493D01*
X005472Y002445D01*
X005472Y002398D01*
X005425Y002350D01*
X005572Y002398D02*
X005620Y002350D01*
X005762Y002350D01*
X005762Y002255D02*
X005762Y002445D01*
X005715Y002493D01*
X005620Y002493D01*
X005572Y002445D01*
X005572Y002398D01*
X005572Y002255D02*
X005620Y002208D01*
X005715Y002208D01*
X005762Y002255D01*
X006282Y002255D02*
X006330Y002208D01*
X006425Y002208D01*
X006472Y002255D01*
X006572Y002255D02*
X006762Y002445D01*
X006762Y002255D01*
X006715Y002208D01*
X006620Y002208D01*
X006572Y002255D01*
X006572Y002445D01*
X006620Y002493D01*
X006715Y002493D01*
X006762Y002445D01*
X006472Y002445D02*
X006425Y002493D01*
X006330Y002493D01*
X006282Y002445D01*
X006282Y002255D01*
X007282Y002255D02*
X007330Y002208D01*
X007425Y002208D01*
X007472Y002255D01*
X007572Y002208D02*
X007762Y002208D01*
X007667Y002208D02*
X007667Y002493D01*
X007572Y002398D01*
X007472Y002445D02*
X007425Y002493D01*
X007330Y002493D01*
X007282Y002445D01*
X007282Y002255D01*
X008282Y002255D02*
X008330Y002208D01*
X008425Y002208D01*
X008472Y002255D01*
X008572Y002208D02*
X008762Y002398D01*
X008762Y002445D01*
X008715Y002493D01*
X008620Y002493D01*
X008572Y002445D01*
X008472Y002445D02*
X008425Y002493D01*
X008330Y002493D01*
X008282Y002445D01*
X008282Y002255D01*
X008572Y002208D02*
X008762Y002208D01*
X009282Y002255D02*
X009330Y002208D01*
X009425Y002208D01*
X009472Y002255D01*
X009572Y002255D02*
X009620Y002208D01*
X009715Y002208D01*
X009762Y002255D01*
X009762Y002303D01*
X009715Y002350D01*
X009667Y002350D01*
X009715Y002350D02*
X009762Y002398D01*
X009762Y002445D01*
X009715Y002493D01*
X009620Y002493D01*
X009572Y002445D01*
X009472Y002445D02*
X009425Y002493D01*
X009330Y002493D01*
X009282Y002445D01*
X009282Y002255D01*
X009783Y005036D02*
X009878Y005036D01*
X010068Y005226D01*
X010068Y005321D01*
X009925Y005464D01*
X009640Y005179D01*
X009783Y005036D01*
X009548Y005271D02*
X009834Y005556D01*
X009643Y005746D02*
X009548Y005271D01*
X009358Y005461D02*
X009643Y005746D01*
X009504Y005790D02*
X009504Y005885D01*
X009409Y005981D01*
X009314Y005981D01*
X009124Y005790D01*
X009124Y005695D01*
X009219Y005600D01*
X009314Y005600D01*
X009409Y005695D01*
X009314Y005790D01*
X010265Y005744D02*
X010265Y005554D01*
X010455Y005554D01*
X010646Y005744D01*
X010737Y005652D02*
X010832Y005557D01*
X010785Y005605D02*
X010500Y005319D01*
X010547Y005272D02*
X010452Y005367D01*
X010640Y005179D02*
X010925Y005464D01*
X010830Y004989D01*
X011115Y005274D01*
X011175Y005348D02*
X011175Y005617D01*
X011309Y005752D01*
X011443Y005617D01*
X011443Y005348D01*
X011443Y005550D02*
X011175Y005550D01*
X011573Y005550D02*
X011842Y005550D01*
X011775Y005348D02*
X011775Y005752D01*
X011573Y005550D01*
X011641Y006348D02*
X011573Y006416D01*
X011641Y006348D02*
X011775Y006348D01*
X011842Y006416D01*
X011842Y006550D01*
X011775Y006617D01*
X011708Y006617D01*
X011573Y006550D01*
X011573Y006752D01*
X011842Y006752D01*
X011443Y006617D02*
X011443Y006348D01*
X011443Y006550D02*
X011175Y006550D01*
X011175Y006617D02*
X011175Y006348D01*
X011175Y006617D02*
X011309Y006752D01*
X011443Y006617D01*
X011443Y007348D02*
X011443Y007617D01*
X011309Y007752D01*
X011175Y007617D01*
X011175Y007348D01*
X011175Y007550D02*
X011443Y007550D01*
X011573Y007550D02*
X011708Y007685D01*
X011842Y007752D01*
X011775Y007550D02*
X011573Y007550D01*
X011573Y007416D01*
X011641Y007348D01*
X011775Y007348D01*
X011842Y007416D01*
X011842Y007483D01*
X011775Y007550D01*
X011573Y008348D02*
X011573Y008416D01*
X011842Y008685D01*
X011842Y008752D01*
X011573Y008752D01*
X011443Y008617D02*
X011443Y008348D01*
X011443Y008550D02*
X011175Y008550D01*
X011175Y008617D02*
X011175Y008348D01*
X011175Y008617D02*
X011309Y008752D01*
X011443Y008617D01*
X011376Y009348D02*
X011175Y009348D01*
X011175Y009752D01*
X011376Y009752D01*
X011443Y009685D01*
X011443Y009617D01*
X011376Y009550D01*
X011175Y009550D01*
X011376Y009550D02*
X011443Y009483D01*
X011443Y009416D01*
X011376Y009348D01*
X011573Y009416D02*
X011842Y009685D01*
X011842Y009416D01*
X011775Y009348D01*
X011641Y009348D01*
X011573Y009416D01*
X011573Y009685D01*
X011641Y009752D01*
X011775Y009752D01*
X011842Y009685D01*
X011842Y010348D02*
X011573Y010348D01*
X011708Y010348D02*
X011708Y010752D01*
X011573Y010617D01*
X011443Y010617D02*
X011376Y010550D01*
X011175Y010550D01*
X011175Y010348D02*
X011175Y010752D01*
X011376Y010752D01*
X011443Y010685D01*
X011443Y010617D01*
X011376Y010550D02*
X011443Y010483D01*
X011443Y010416D01*
X011376Y010348D01*
X011175Y010348D01*
X011175Y011448D02*
X011443Y011448D01*
X011309Y011448D02*
X011309Y011852D01*
X011175Y011717D01*
X011045Y011717D02*
X010977Y011650D01*
X010776Y011650D01*
X010977Y011650D02*
X011045Y011583D01*
X011045Y011516D01*
X010977Y011448D01*
X010776Y011448D01*
X010776Y011852D01*
X010977Y011852D01*
X011045Y011785D01*
X011045Y011717D01*
X011573Y011785D02*
X011573Y011516D01*
X011842Y011785D01*
X011842Y011516D01*
X011775Y011448D01*
X011641Y011448D01*
X011573Y011516D01*
X011573Y011785D02*
X011641Y011852D01*
X011775Y011852D01*
X011842Y011785D01*
X011842Y012348D02*
X011573Y012348D01*
X011443Y012348D02*
X011175Y012348D01*
X011309Y012348D02*
X011309Y012752D01*
X011175Y012617D01*
X011045Y012617D02*
X010977Y012550D01*
X010776Y012550D01*
X010977Y012550D02*
X011045Y012483D01*
X011045Y012416D01*
X010977Y012348D01*
X010776Y012348D01*
X010776Y012752D01*
X010977Y012752D01*
X011045Y012685D01*
X011045Y012617D01*
X011573Y012617D02*
X011708Y012752D01*
X011708Y012348D01*
X011842Y013348D02*
X011573Y013348D01*
X011842Y013617D01*
X011842Y013685D01*
X011775Y013752D01*
X011641Y013752D01*
X011573Y013685D01*
X011309Y013752D02*
X011309Y013348D01*
X011175Y013348D02*
X011443Y013348D01*
X011175Y013617D02*
X011309Y013752D01*
X011045Y013685D02*
X011045Y013617D01*
X010977Y013550D01*
X010776Y013550D01*
X010977Y013550D02*
X011045Y013483D01*
X011045Y013416D01*
X010977Y013348D01*
X010776Y013348D01*
X010776Y013752D01*
X010977Y013752D01*
X011045Y013685D01*
X011614Y014178D02*
X011662Y014130D01*
X011852Y014130D01*
X011900Y014178D01*
X011900Y014273D01*
X011852Y014320D01*
X011757Y014320D01*
X011757Y014225D01*
X011662Y014320D02*
X011614Y014273D01*
X011614Y014178D01*
X011614Y014420D02*
X011900Y014610D01*
X011614Y014610D01*
X011614Y014710D02*
X011614Y014853D01*
X011662Y014900D01*
X011852Y014900D01*
X011900Y014853D01*
X011900Y014710D01*
X011614Y014710D01*
X011614Y014420D02*
X011900Y014420D01*
X013214Y014420D02*
X013500Y014610D01*
X013214Y014610D01*
X013214Y014710D02*
X013214Y014853D01*
X013262Y014900D01*
X013452Y014900D01*
X013500Y014853D01*
X013500Y014710D01*
X013214Y014710D01*
X013214Y014420D02*
X013500Y014420D01*
X013452Y014320D02*
X013357Y014320D01*
X013357Y014225D01*
X013262Y014130D02*
X013452Y014130D01*
X013500Y014178D01*
X013500Y014273D01*
X013452Y014320D01*
X013262Y014320D02*
X013214Y014273D01*
X013214Y014178D01*
X013262Y014130D01*
X013262Y013900D02*
X013214Y013853D01*
X013214Y013758D01*
X013262Y013710D01*
X013262Y013900D02*
X013309Y013900D01*
X013500Y013710D01*
X013500Y013900D01*
X013500Y013610D02*
X013500Y013420D01*
X013500Y013515D02*
X013214Y013515D01*
X013309Y013420D01*
X013309Y013320D02*
X013357Y013273D01*
X013357Y013130D01*
X013500Y013130D02*
X013500Y013273D01*
X013452Y013320D01*
X013404Y013320D01*
X013357Y013273D01*
X013309Y013320D02*
X013262Y013320D01*
X013214Y013273D01*
X013214Y013130D01*
X013500Y013130D01*
X013500Y012900D02*
X013500Y012710D01*
X013500Y012805D02*
X013214Y012805D01*
X013309Y012710D01*
X013500Y012610D02*
X013500Y012420D01*
X013500Y012515D02*
X013214Y012515D01*
X013309Y012420D01*
X013309Y012320D02*
X013357Y012273D01*
X013357Y012130D01*
X013500Y012130D02*
X013500Y012273D01*
X013452Y012320D01*
X013404Y012320D01*
X013357Y012273D01*
X013309Y012320D02*
X013262Y012320D01*
X013214Y012273D01*
X013214Y012130D01*
X013500Y012130D01*
X013452Y011900D02*
X013262Y011900D01*
X013452Y011710D01*
X013500Y011758D01*
X013500Y011853D01*
X013452Y011900D01*
X013452Y011710D02*
X013262Y011710D01*
X013214Y011758D01*
X013214Y011853D01*
X013262Y011900D01*
X013500Y011610D02*
X013500Y011420D01*
X013500Y011515D02*
X013214Y011515D01*
X013309Y011420D01*
X013309Y011320D02*
X013357Y011273D01*
X013357Y011130D01*
X013500Y011130D02*
X013500Y011273D01*
X013452Y011320D01*
X013404Y011320D01*
X013357Y011273D01*
X013309Y011320D02*
X013262Y011320D01*
X013214Y011273D01*
X013214Y011130D01*
X013500Y011130D01*
X013500Y010755D02*
X013500Y010565D01*
X013500Y010660D02*
X013214Y010660D01*
X013309Y010565D01*
X013309Y010465D02*
X013357Y010418D01*
X013357Y010275D01*
X013500Y010275D02*
X013500Y010418D01*
X013452Y010465D01*
X013404Y010465D01*
X013357Y010418D01*
X013309Y010465D02*
X013262Y010465D01*
X013214Y010418D01*
X013214Y010275D01*
X013500Y010275D01*
X013452Y009755D02*
X013262Y009755D01*
X013452Y009565D01*
X013500Y009613D01*
X013500Y009708D01*
X013452Y009755D01*
X013452Y009565D02*
X013262Y009565D01*
X013214Y009613D01*
X013214Y009708D01*
X013262Y009755D01*
X013262Y009465D02*
X013214Y009418D01*
X013214Y009275D01*
X013500Y009275D01*
X013500Y009418D01*
X013452Y009465D01*
X013404Y009465D01*
X013357Y009418D01*
X013357Y009275D01*
X013357Y009418D02*
X013309Y009465D01*
X013262Y009465D01*
X013262Y008755D02*
X013214Y008755D01*
X013214Y008565D01*
X013309Y008465D02*
X013500Y008465D01*
X013500Y008565D02*
X013452Y008565D01*
X013262Y008755D01*
X013309Y008465D02*
X013214Y008370D01*
X013309Y008275D01*
X013500Y008275D01*
X013357Y008275D02*
X013357Y008465D01*
X013404Y007755D02*
X013357Y007708D01*
X013357Y007565D01*
X013452Y007565D01*
X013500Y007613D01*
X013500Y007708D01*
X013452Y007755D01*
X013404Y007755D01*
X013262Y007660D02*
X013357Y007565D01*
X013357Y007465D02*
X013357Y007275D01*
X013309Y007275D02*
X013214Y007370D01*
X013309Y007465D01*
X013500Y007465D01*
X013500Y007275D02*
X013309Y007275D01*
X013262Y007660D02*
X013214Y007755D01*
X013214Y006755D02*
X013214Y006565D01*
X013357Y006565D01*
X013309Y006660D01*
X013309Y006708D01*
X013357Y006755D01*
X013452Y006755D01*
X013500Y006708D01*
X013500Y006613D01*
X013452Y006565D01*
X013500Y006465D02*
X013309Y006465D01*
X013214Y006370D01*
X013309Y006275D01*
X013500Y006275D01*
X013357Y006275D02*
X013357Y006465D01*
X013357Y005755D02*
X013357Y005565D01*
X013214Y005708D01*
X013500Y005708D01*
X013500Y005465D02*
X013309Y005465D01*
X013214Y005370D01*
X013309Y005275D01*
X013500Y005275D01*
X013357Y005275D02*
X013357Y005465D01*
X013404Y004755D02*
X013452Y004755D01*
X013500Y004708D01*
X013500Y004613D01*
X013452Y004565D01*
X013500Y004465D02*
X013309Y004465D01*
X013214Y004370D01*
X013309Y004275D01*
X013500Y004275D01*
X013357Y004275D02*
X013357Y004465D01*
X013262Y004565D02*
X013214Y004613D01*
X013214Y004708D01*
X013262Y004755D01*
X013309Y004755D01*
X013357Y004708D01*
X013404Y004755D01*
X013357Y004708D02*
X013357Y004660D01*
X013309Y003755D02*
X013262Y003755D01*
X013214Y003708D01*
X013214Y003613D01*
X013262Y003565D01*
X013309Y003465D02*
X013500Y003465D01*
X013500Y003565D02*
X013309Y003755D01*
X013500Y003755D02*
X013500Y003565D01*
X013357Y003465D02*
X013357Y003275D01*
X013309Y003275D02*
X013214Y003370D01*
X013309Y003465D01*
X013309Y003275D02*
X013500Y003275D01*
X013500Y002755D02*
X013500Y002565D01*
X013500Y002660D02*
X013214Y002660D01*
X013309Y002565D01*
X013309Y002465D02*
X013214Y002370D01*
X013309Y002275D01*
X013500Y002275D01*
X013357Y002275D02*
X013357Y002465D01*
X013309Y002465D02*
X013500Y002465D01*
X013452Y001755D02*
X013262Y001755D01*
X013452Y001565D01*
X013500Y001613D01*
X013500Y001708D01*
X013452Y001755D01*
X013452Y001565D02*
X013262Y001565D01*
X013214Y001613D01*
X013214Y001708D01*
X013262Y001755D01*
X013309Y001465D02*
X013214Y001370D01*
X013309Y001275D01*
X013500Y001275D01*
X013357Y001275D02*
X013357Y001465D01*
X013309Y001465D02*
X013500Y001465D01*
X010265Y005744D02*
X010455Y005934D01*
X004447Y004138D02*
X004257Y004138D01*
X004352Y004138D02*
X004352Y003852D01*
X004157Y003900D02*
X004110Y003852D01*
X004015Y003852D01*
X003967Y003900D01*
X004015Y003995D02*
X004110Y003995D01*
X004157Y003947D01*
X004157Y003900D01*
X004015Y003995D02*
X003967Y004043D01*
X003967Y004090D01*
X004015Y004138D01*
X004110Y004138D01*
X004157Y004090D01*
X003867Y004090D02*
X003867Y003995D01*
X003820Y003947D01*
X003677Y003947D01*
X003677Y003852D02*
X003677Y004138D01*
X003820Y004138D01*
X003867Y004090D01*
X003772Y003947D02*
X003867Y003852D01*
X001990Y000993D02*
X001847Y000993D01*
X001847Y000708D01*
X001990Y000708D01*
X002037Y000755D01*
X002037Y000803D01*
X001990Y000850D01*
X001847Y000850D01*
X001990Y000850D02*
X002037Y000898D01*
X002037Y000945D01*
X001990Y000993D01*
X000900Y011130D02*
X000614Y011130D01*
X000614Y012130D02*
X000900Y012130D01*
X013214Y015178D02*
X013404Y015178D01*
X013500Y015273D01*
X013404Y015368D01*
X013214Y015368D01*
X013214Y015468D02*
X013214Y015563D01*
X013214Y015516D02*
X013500Y015516D01*
X013500Y015563D02*
X013500Y015468D01*
X013500Y015662D02*
X013214Y015662D01*
X013500Y015852D01*
X013214Y015852D01*
D12*
X009019Y010786D02*
X009019Y006849D01*
X005475Y006849D01*
X005081Y007243D01*
X005081Y010786D01*
X009019Y010786D01*
D13*
X008625Y014605D02*
X008330Y014605D01*
X008330Y015304D01*
X008330Y016298D02*
X011282Y016298D01*
X011282Y015304D02*
X011282Y014605D01*
X010987Y014605D01*
X006794Y015609D02*
X006794Y016200D01*
X002700Y015333D02*
X002463Y015570D01*
X002463Y016200D01*
X005672Y005215D02*
X005672Y005137D01*
X005672Y005215D02*
X007641Y005215D01*
X007641Y005137D01*
X006814Y004822D02*
X006814Y004585D01*
X006932Y004585D01*
X006814Y004585D02*
X006814Y004349D01*
X006735Y004428D02*
X006578Y004428D01*
X006578Y004743D01*
X006735Y004743D01*
X006735Y004428D01*
X006499Y004349D02*
X006499Y004585D01*
X006381Y004585D01*
X006499Y004585D02*
X006499Y004822D01*
X005672Y004034D02*
X005672Y003956D01*
X007641Y003956D01*
X007641Y004034D01*
X007759Y003365D02*
X007857Y003247D01*
X007956Y003365D01*
X007759Y003365D01*
X008113Y003365D02*
X008211Y003247D01*
X008310Y003365D01*
X008113Y003365D01*
X006932Y003365D02*
X006833Y003247D01*
X006735Y003365D01*
X006932Y003365D01*
X006578Y003365D02*
X006479Y003247D01*
X006381Y003365D01*
X006578Y003365D01*
D14*
X006800Y002050D02*
X006300Y002050D01*
X006050Y001800D01*
X006050Y001300D01*
X006300Y001050D01*
X006800Y001050D01*
X007050Y001300D01*
X007050Y001800D01*
X006800Y002050D01*
X007050Y001800D02*
X007300Y002050D01*
X007800Y002050D01*
X008050Y001800D01*
X008300Y002050D01*
X008800Y002050D01*
X009050Y001800D01*
X009300Y002050D01*
X009800Y002050D01*
X010050Y001800D01*
X010050Y001300D01*
X009800Y001050D01*
X009300Y001050D01*
X009050Y001300D01*
X008800Y001050D01*
X008300Y001050D01*
X008050Y001300D01*
X007800Y001050D01*
X007300Y001050D01*
X007050Y001300D01*
X006050Y001300D02*
X005800Y001050D01*
X005300Y001050D01*
X005050Y001300D01*
X004800Y001050D01*
X004300Y001050D01*
X004050Y001300D01*
X003800Y001050D01*
X003300Y001050D01*
X003050Y001300D01*
X002800Y001050D01*
X002300Y001050D01*
X002050Y001300D01*
X002050Y001800D01*
X002300Y002050D01*
X002800Y002050D01*
X003050Y001800D01*
X003300Y002050D01*
X003800Y002050D01*
X004050Y001800D01*
X004050Y001300D01*
X004050Y001800D02*
X004300Y002050D01*
X004800Y002050D01*
X005050Y001800D01*
X005300Y002050D01*
X005800Y002050D01*
X006050Y001800D01*
X005050Y001800D02*
X005050Y001300D01*
X003050Y001300D02*
X003050Y001800D01*
X002050Y001800D02*
X002050Y001300D01*
X001800Y001050D01*
X001300Y001050D01*
X001050Y001300D01*
X001050Y001800D01*
X001300Y002050D01*
X001050Y002300D01*
X001050Y002800D01*
X001300Y003050D01*
X001050Y003300D01*
X001050Y003800D01*
X001300Y004050D01*
X001050Y004300D01*
X001050Y004800D01*
X001300Y005050D01*
X001050Y005300D01*
X001050Y005800D01*
X001300Y006050D01*
X001050Y006300D01*
X001050Y006800D01*
X001300Y007050D01*
X001050Y007300D01*
X001050Y007800D01*
X001300Y008050D01*
X001050Y008300D01*
X001050Y008800D01*
X001300Y009050D01*
X001050Y009300D01*
X001050Y009800D01*
X001300Y010050D01*
X001050Y010300D01*
X001050Y010800D01*
X001300Y011050D01*
X001050Y011300D01*
X001050Y011800D01*
X001300Y012050D01*
X001050Y012300D01*
X001050Y012800D01*
X001300Y013050D01*
X001050Y013300D01*
X001050Y013800D01*
X001300Y014050D01*
X001050Y014300D01*
X001050Y014800D01*
X001300Y015050D01*
X001050Y015300D01*
X001050Y015800D01*
X001300Y016050D01*
X001800Y016050D01*
X002050Y015800D01*
X002050Y015300D01*
X001800Y015050D01*
X002050Y014800D01*
X002050Y014300D01*
X001800Y014050D01*
X001300Y014050D01*
X001800Y014050D02*
X002050Y013800D01*
X002050Y013300D01*
X001800Y013050D01*
X002050Y012800D01*
X002050Y012300D01*
X001800Y012050D01*
X002050Y011800D01*
X002050Y011300D01*
X001800Y011050D01*
X001300Y011050D01*
X001800Y011050D02*
X002050Y010800D01*
X002050Y010300D01*
X001800Y010050D01*
X002050Y009800D01*
X002050Y009300D01*
X001800Y009050D01*
X002050Y008800D01*
X002050Y008300D01*
X001800Y008050D01*
X001300Y008050D01*
X001800Y008050D02*
X002050Y007800D01*
X002050Y007300D01*
X001800Y007050D01*
X002050Y006800D01*
X002050Y006300D01*
X001800Y006050D01*
X002050Y005800D01*
X002050Y005300D01*
X001800Y005050D01*
X001300Y005050D01*
X001800Y005050D02*
X002050Y004800D01*
X002050Y004300D01*
X001800Y004050D01*
X002050Y003800D01*
X002050Y003300D01*
X001800Y003050D01*
X002050Y002800D01*
X002050Y002300D01*
X001800Y002050D01*
X001300Y002050D01*
X001800Y002050D01*
X002050Y001800D01*
X001800Y003050D02*
X001300Y003050D01*
X001300Y004050D02*
X001800Y004050D01*
X001800Y006050D02*
X001300Y006050D01*
X001300Y007050D02*
X001800Y007050D01*
X001800Y009050D02*
X001300Y009050D01*
X001300Y010050D02*
X001800Y010050D01*
X001800Y012050D02*
X001300Y012050D01*
X001300Y013050D02*
X001800Y013050D01*
X001800Y015050D02*
X001300Y015050D01*
X010300Y005050D02*
X011800Y005050D01*
X012050Y004800D01*
X012300Y005050D01*
X012050Y005300D01*
X012050Y005800D01*
X012300Y006050D01*
X012050Y006300D01*
X012050Y006800D01*
X012300Y007050D01*
X012050Y007300D01*
X012050Y007800D01*
X012300Y008050D01*
X012050Y008300D01*
X012050Y008800D01*
X012300Y009050D01*
X012050Y009300D01*
X012050Y009800D01*
X012300Y010050D01*
X012050Y010300D01*
X012050Y010800D01*
X012300Y011050D01*
X012050Y011300D01*
X012050Y011800D01*
X012300Y012050D01*
X012050Y012300D01*
X012050Y012800D01*
X012300Y013050D01*
X012050Y013300D01*
X012050Y013800D01*
X012300Y014050D01*
X012050Y014300D01*
X012050Y014800D01*
X012300Y015050D01*
X012050Y015300D01*
X012050Y015800D01*
X012300Y016050D01*
X012800Y016050D01*
X013050Y015800D01*
X013050Y015300D01*
X012800Y015050D01*
X013050Y014800D01*
X013050Y014300D01*
X012800Y014050D01*
X012300Y014050D01*
X012800Y014050D02*
X013050Y013800D01*
X013050Y013300D01*
X012800Y013050D01*
X013050Y012800D01*
X013050Y012300D01*
X012800Y012050D01*
X013050Y011800D01*
X013050Y011300D01*
X012800Y011050D01*
X012300Y011050D01*
X012800Y011050D02*
X013050Y010800D01*
X013050Y010300D01*
X012800Y010050D01*
X013050Y009800D01*
X013050Y009300D01*
X012800Y009050D01*
X013050Y008800D01*
X013050Y008300D01*
X012800Y008050D01*
X012300Y008050D01*
X012800Y008050D02*
X013050Y007800D01*
X013050Y007300D01*
X012800Y007050D01*
X013050Y006800D01*
X013050Y006300D01*
X012800Y006050D01*
X013050Y005800D01*
X013050Y005300D01*
X012800Y005050D01*
X012300Y005050D01*
X012800Y005050D01*
X013050Y004800D01*
X013050Y004300D01*
X012800Y004050D01*
X012300Y004050D01*
X012050Y004300D01*
X012050Y004800D01*
X012050Y004300D01*
X011800Y004050D01*
X010300Y004050D01*
X010050Y003800D01*
X010050Y003300D01*
X010300Y003050D01*
X011800Y003050D01*
X012050Y002800D01*
X012300Y003050D01*
X012800Y003050D01*
X013050Y003300D01*
X013050Y003800D01*
X012800Y004050D01*
X012300Y004050D01*
X012050Y003800D01*
X012050Y003300D01*
X012300Y003050D01*
X012800Y003050D01*
X013050Y002800D01*
X013050Y002300D01*
X012800Y002050D01*
X012300Y002050D01*
X012050Y002300D01*
X012050Y002800D01*
X012050Y002300D01*
X011800Y002050D01*
X012050Y001800D01*
X012050Y001300D01*
X011800Y001050D01*
X010300Y001050D01*
X010050Y001300D01*
X010050Y001800D01*
X010300Y002050D01*
X011800Y002050D01*
X012050Y001800D02*
X012300Y002050D01*
X012800Y002050D01*
X013050Y001800D01*
X013050Y001300D01*
X012800Y001050D01*
X012300Y001050D01*
X012050Y001300D01*
X012050Y001800D01*
X011800Y003050D02*
X012050Y003300D01*
X012050Y003800D01*
X011800Y004050D01*
X010300Y004050D02*
X010050Y004300D01*
X010050Y004800D01*
X010300Y005050D01*
X010300Y003050D02*
X010050Y002800D01*
X010050Y002300D01*
X010300Y002050D01*
X009050Y001800D02*
X009050Y001300D01*
X008050Y001300D02*
X008050Y001800D01*
X012300Y006050D02*
X012800Y006050D01*
X012800Y007050D02*
X012300Y007050D01*
X012300Y009050D02*
X012800Y009050D01*
X012800Y010050D02*
X012300Y010050D01*
X012300Y012050D02*
X012800Y012050D01*
X012800Y013050D02*
X012300Y013050D01*
X012300Y015050D02*
X012800Y015050D01*
M02*
