<?xml version="1.0" encoding="UTF-8" standalone="no"?>
<!DOCTYPE svg PUBLIC "-//W3C//DTD SVG 1.0//EN" "http://www.w3.org/TR/2001/REC-SVG-20010904/DTD/svg10.dtd">
<!-- Generated by Microsoft Visio 11.0, SVG Export, v1.0 usart_frame.svg Page-1 -->
<svg xmlns="http://www.w3.org/2000/svg" xmlns:v="http://schemas.microsoft.com/visio/2003/SVGExtensions/" width="6.50273in"
		height="0.879475in" viewBox="0 0 468.197 63.3222" xml:space="preserve" color-interpolation-filters="sRGB" class="st7">
	<v:documentProperties v:langID="1044" v:metric="true" v:viewMarkup="false"/>

	<style type="text/css">
	<![CDATA[
		.st1 {stroke:#000000;stroke-linecap:round;stroke-linejoin:round;stroke-width:0.24}
		.st2 {fill:none;stroke:none;stroke-linecap:round;stroke-linejoin:round;stroke-width:0.72}
		.st3 {fill:#000000;font-family:Arial;font-size:0.666664em}
		.st4 {marker-end:url(#mrkr13-134);marker-start:url(#mrkr13-132);stroke:#000000;stroke-linecap:round;stroke-linejoin:round;stroke-width:0.24}
		.st5 {fill:#000000;fill-opacity:1;stroke:#000000;stroke-opacity:1;stroke-width:0.08695652173913}
		.st6 {fill:#ffffff;stroke:none;stroke-linecap:butt;stroke-width:7.2}
		.st7 {fill:none;fill-rule:evenodd;font-size:12;overflow:visible;stroke-linecap:square;stroke-miterlimit:3}
	]]>
	</style>

	<defs id="Markers">
		<g id="lend13">
			<path d="M 3 1 L -0 0 L 3 -1 L 3 1 " style="stroke:none"/>
		</g>
		<marker id="mrkr13-132" class="st5" v:arrowType="13" v:arrowSize="2" v:setback="33" refX="33" orient="auto"
				markerUnits="strokeWidth">
		</marker>
		<marker id="mrkr13-134" class="st5" v:arrowType="13" v:arrowSize="2" v:setback="34.5" refX="-34.5" orient="auto"
				markerUnits="strokeWidth">
		</marker>
	</defs>
	<g v:mID="0" v:index="1" v:groupContext="foregroundPage">
		<v:userDefs>
			<v:ud v:nameU="ShapeNumCriteria" v:prompt="" v:val="VT4(0,0,0,1,1,&#39;&#39;,0,0,0,1,0,1,)"/>
		</v:userDefs>
		<title>Page-1</title>
		<v:pageProperties v:drawingScale="0.0393701" v:pageScale="0.0393701" v:drawingUnits="24" v:shadowOffsetX="8.50394"
				v:shadowOffsetY="-8.50394"/>
		<g id="group3-1" transform="translate(99.4526,-0.72)" v:mID="3" v:groupContext="group">
			<title>Sheet.3</title>
			<g id="shape1-2" v:mID="1" v:groupContext="shape" transform="translate(56.6371,6.6572) rotate(63.4349)">
				<title>Sheet.1</title>
				<path d="M0 63.32 L31.69 63.32" class="st1"/>
			</g>
			<g id="shape2-5" v:mID="2" v:groupContext="shape" transform="translate(-56.6371,35.0037) rotate(-63.4349)">
				<title>Sheet.2</title>
				<path d="M0 63.32 L31.69 63.32" class="st1"/>
			</g>
		</g>
		<g id="group4-8" transform="translate(127.799,-0.72)" v:mID="4" v:groupContext="group">
			<title>Sheet.4</title>
			<g id="shape5-9" v:mID="5" v:groupContext="shape" transform="translate(56.6371,6.6572) rotate(63.4349)">
				<title>Sheet.5</title>
				<path d="M0 63.32 L31.69 63.32" class="st1"/>
			</g>
			<g id="shape6-12" v:mID="6" v:groupContext="shape" transform="translate(-56.6371,35.0037) rotate(-63.4349)">
				<title>Sheet.6</title>
				<path d="M0 63.32 L31.69 63.32" class="st1"/>
			</g>
		</g>
		<g id="group7-15" transform="translate(156.146,-0.72)" v:mID="7" v:groupContext="group">
			<title>Sheet.7</title>
			<g id="shape8-16" v:mID="8" v:groupContext="shape" transform="translate(56.6371,6.6572) rotate(63.4349)">
				<title>Sheet.8</title>
				<path d="M0 63.32 L31.69 63.32" class="st1"/>
			</g>
			<g id="shape9-19" v:mID="9" v:groupContext="shape" transform="translate(-56.6371,35.0037) rotate(-63.4349)">
				<title>Sheet.9</title>
				<path d="M0 63.32 L31.69 63.32" class="st1"/>
			</g>
		</g>
		<g id="group10-22" transform="translate(184.492,-0.72)" v:mID="10" v:groupContext="group">
			<title>Sheet.10</title>
			<g id="shape11-23" v:mID="11" v:groupContext="shape" transform="translate(56.6371,6.6572) rotate(63.4349)">
				<title>Sheet.11</title>
				<path d="M0 63.32 L31.69 63.32" class="st1"/>
			</g>
			<g id="shape12-26" v:mID="12" v:groupContext="shape" transform="translate(-56.6371,35.0037) rotate(-63.4349)">
				<title>Sheet.12</title>
				<path d="M0 63.32 L31.69 63.32" class="st1"/>
			</g>
		</g>
		<g id="group13-29" transform="translate(212.838,-0.72)" v:mID="13" v:groupContext="group">
			<title>Sheet.13</title>
			<g id="shape14-30" v:mID="14" v:groupContext="shape" transform="translate(56.6371,6.6572) rotate(63.4349)">
				<title>Sheet.14</title>
				<path d="M0 63.32 L31.69 63.32" class="st1"/>
			</g>
			<g id="shape15-33" v:mID="15" v:groupContext="shape" transform="translate(-56.6371,35.0037) rotate(-63.4349)">
				<title>Sheet.15</title>
				<path d="M0 63.32 L31.69 63.32" class="st1"/>
			</g>
		</g>
		<g id="group16-36" transform="translate(241.185,-0.72)" v:mID="16" v:groupContext="group">
			<title>Sheet.16</title>
			<g id="shape17-37" v:mID="17" v:groupContext="shape" transform="translate(56.6371,6.6572) rotate(63.4349)">
				<title>Sheet.17</title>
				<path d="M0 63.32 L31.69 63.32" class="st1"/>
			</g>
			<g id="shape18-40" v:mID="18" v:groupContext="shape" transform="translate(-56.6371,35.0037) rotate(-63.4349)">
				<title>Sheet.18</title>
				<path d="M0 63.32 L31.69 63.32" class="st1"/>
			</g>
		</g>
		<g id="group19-43" transform="translate(269.531,-0.72)" v:mID="19" v:groupContext="group">
			<title>Sheet.19</title>
			<g id="shape20-44" v:mID="20" v:groupContext="shape" transform="translate(56.6371,6.6572) rotate(63.4349)">
				<title>Sheet.20</title>
				<path d="M0 63.32 L31.69 63.32" class="st1"/>
			</g>
			<g id="shape21-47" v:mID="21" v:groupContext="shape" transform="translate(-56.6371,35.0037) rotate(-63.4349)">
				<title>Sheet.21</title>
				<path d="M0 63.32 L31.69 63.32" class="st1"/>
			</g>
		</g>
		<g id="shape22-50" v:mID="22" v:groupContext="shape" transform="translate(107.957,-0.72)">
			<title>Sheet.22</title>
			<desc>1</desc>
			<v:textBlock v:margins="rect(4,4,4,4)"/>
			<v:textRect cx="14.1732" cy="49.149" width="28.35" height="28.3465"/>
			<rect x="0" y="34.9757" width="28.3465" height="28.3465" class="st2"/>
			<text x="11.95" y="51.55" class="st3" v:langID="1044"><v:paragraph v:horizAlign="1"/><v:tabList/>1</text>		</g>
		<g id="shape23-53" v:mID="23" v:groupContext="shape" transform="translate(134.886,-0.72)">
			<title>Sheet.23</title>
			<desc>2</desc>
			<v:textBlock v:margins="rect(4,4,4,4)"/>
			<v:textRect cx="14.1732" cy="49.149" width="28.35" height="28.3465"/>
			<rect x="0" y="34.9757" width="28.3465" height="28.3465" class="st2"/>
			<text x="11.95" y="51.55" class="st3" v:langID="1044"><v:paragraph v:horizAlign="1"/><v:tabList/>2</text>		</g>
		<g id="shape24-56" v:mID="24" v:groupContext="shape" transform="translate(163.232,-0.72)">
			<title>Sheet.24</title>
			<desc>3</desc>
			<v:textBlock v:margins="rect(4,4,4,4)"/>
			<v:textRect cx="14.1732" cy="49.149" width="28.35" height="28.3465"/>
			<rect x="0" y="34.9757" width="28.3465" height="28.3465" class="st2"/>
			<text x="11.95" y="51.55" class="st3" v:langID="1044"><v:paragraph v:horizAlign="1"/><v:tabList/>3</text>		</g>
		<g id="shape25-59" v:mID="25" v:groupContext="shape" transform="translate(191.579,-0.72)">
			<title>Sheet.25</title>
			<desc>4</desc>
			<v:textBlock v:margins="rect(4,4,4,4)"/>
			<v:textRect cx="14.1732" cy="49.149" width="28.35" height="28.3465"/>
			<rect x="0" y="34.9757" width="28.3465" height="28.3465" class="st2"/>
			<text x="11.95" y="51.55" class="st3" v:langID="1044"><v:paragraph v:horizAlign="1"/><v:tabList/>4</text>		</g>
		<g id="shape26-62" v:mID="26" v:groupContext="shape" transform="translate(219.925,-0.72)">
			<title>Sheet.26</title>
			<desc>[5]</desc>
			<v:textBlock v:margins="rect(4,4,4,4)"/>
			<v:textRect cx="14.1732" cy="49.149" width="28.35" height="28.3465"/>
			<rect x="0" y="34.9757" width="28.3465" height="28.3465" class="st2"/>
			<text x="9.73" y="51.55" class="st3" v:langID="1044"><v:paragraph v:horizAlign="1"/><v:tabList/>[5]</text>		</g>
		<g id="shape27-65" v:mID="27" v:groupContext="shape" transform="translate(248.271,-0.72)">
			<title>Sheet.27</title>
			<desc>[6]</desc>
			<v:textBlock v:margins="rect(4,4,4,4)"/>
			<v:textRect cx="14.1732" cy="49.149" width="28.35" height="28.3465"/>
			<rect x="0" y="34.9757" width="28.3465" height="28.3465" class="st2"/>
			<text x="9.73" y="51.55" class="st3" v:langID="1044"><v:paragraph v:horizAlign="1"/><v:tabList/>[6]</text>		</g>
		<g id="shape28-68" v:mID="28" v:groupContext="shape" transform="translate(275.909,-0.72)">
			<title>Sheet.28</title>
			<desc>[7]</desc>
			<v:textBlock v:margins="rect(4,4,4,4)"/>
			<v:textRect cx="14.1732" cy="49.149" width="28.35" height="28.3465"/>
			<rect x="0" y="34.9757" width="28.3465" height="28.3465" class="st2"/>
			<text x="9.73" y="51.55" class="st3" v:langID="1044"><v:paragraph v:horizAlign="1"/><v:tabList/>[7]</text>		</g>
		<g id="shape29-71" v:mID="29" v:groupContext="shape" transform="translate(302.838,-0.72)">
			<title>Sheet.29</title>
			<desc>[8]</desc>
			<v:textBlock v:margins="rect(4,4,4,4)"/>
			<v:textRect cx="14.1732" cy="49.149" width="28.35" height="28.3465"/>
			<rect x="0" y="34.9757" width="28.3465" height="28.3465" class="st2"/>
			<text x="9.73" y="51.55" class="st3" v:langID="1044"><v:paragraph v:horizAlign="1"/><v:tabList/>[8]</text>		</g>
		<g id="shape30-74" v:mID="30" v:groupContext="shape" transform="translate(141.916,62.5743) rotate(116.565)">
			<title>Sheet.30</title>
			<path d="M0 63.32 L31.69 63.32" class="st1"/>
		</g>
		<g id="group31-77" transform="translate(297.878,-0.72)" v:mID="31" v:groupContext="group">
			<title>Sheet.31</title>
			<g id="shape32-78" v:mID="32" v:groupContext="shape" transform="translate(56.6371,6.6572) rotate(63.4349)">
				<title>Sheet.32</title>
				<path d="M0 63.32 L31.69 63.32" class="st1"/>
			</g>
			<g id="shape33-81" v:mID="33" v:groupContext="shape" transform="translate(-56.6371,35.0037) rotate(-63.4349)">
				<title>Sheet.33</title>
				<path d="M0 63.32 L31.69 63.32" class="st1"/>
			</g>
		</g>
		<g id="shape34-84" v:mID="34" v:groupContext="shape" transform="translate(269.587,34.2837) rotate(-63.4349)">
			<title>Sheet.34</title>
			<path d="M0 63.32 L31.69 63.32" class="st1"/>
		</g>
		<g id="shape35-87" v:mID="35" v:groupContext="shape" transform="translate(0.24,-0.72)">
			<title>Sheet.35</title>
			<path d="M325.98 63.32 L70.87 63.32 L56.69 63.32 L42.52 34.98 L0 34.98" class="st1"/>
		</g>
		<g id="shape37-90" v:mID="37" v:groupContext="shape" transform="translate(467.957,97.578) rotate(180)">
			<title>Sheet.37</title>
			<path d="M0 63.32 L56.69 63.32" class="st1"/>
		</g>
		<g id="shape38-93" v:mID="38" v:groupContext="shape" transform="translate(79.6101,-0.72)">
			<title>Sheet.38</title>
			<desc>0</desc>
			<v:textBlock v:margins="rect(4,4,4,4)"/>
			<v:textRect cx="14.1732" cy="49.149" width="28.35" height="28.3465"/>
			<rect x="0" y="34.9757" width="28.3465" height="28.3465" class="st2"/>
			<text x="11.95" y="51.55" class="st3" v:langID="1044"><v:paragraph v:horizAlign="1"/><v:tabList/>0</text>		</g>
		<g id="shape39-96" v:mID="39" v:groupContext="shape" transform="translate(49.8463,-0.72)">
			<title>Sheet.39</title>
			<desc>St</desc>
			<v:textBlock v:margins="rect(4,4,4,4)"/>
			<v:textRect cx="14.1732" cy="49.149" width="28.35" height="28.3465"/>
			<rect x="0" y="34.9757" width="28.3465" height="28.3465" class="st2"/>
			<text x="10.39" y="51.55" class="st3" v:langID="1044"><v:paragraph v:horizAlign="1"/><v:tabList/>St</text>		</g>
		<g id="shape40-99" v:mID="40" v:groupContext="shape" transform="translate(8.74394,-0.72)">
			<title>Sheet.40</title>
			<desc>(IDLE)</desc>
			<v:textBlock v:margins="rect(4,4,4,4)"/>
			<v:textRect cx="18.4252" cy="49.149" width="36.86" height="28.3465"/>
			<rect x="0" y="34.9757" width="36.8504" height="28.3465" class="st2"/>
			<text x="6.87" y="51.55" class="st3" v:langID="1044"><v:paragraph v:horizAlign="1"/><v:tabList/>(IDLE)</text>		</g>
		<g id="shape41-102" v:mID="41" v:groupContext="shape" transform="translate(361.657,-0.72)">
			<title>Sheet.41</title>
			<desc>Sp1</desc>
			<v:textBlock v:margins="rect(4,4,4,4)"/>
			<v:textRect cx="14.1732" cy="49.149" width="28.35" height="28.3465"/>
			<rect x="0" y="34.9757" width="28.3465" height="28.3465" class="st2"/>
			<text x="7.06" y="51.55" class="st3" v:langID="1044"><v:paragraph v:horizAlign="1"/><v:tabList/>Sp1</text>		</g>
		<g id="shape42-105" v:mID="42" v:groupContext="shape" transform="translate(388.586,-0.72)">
			<title>Sheet.42</title>
			<desc>[Sp2]</desc>
			<v:textBlock v:margins="rect(4,4,4,4)"/>
			<v:textRect cx="14.1732" cy="49.149" width="28.35" height="28.3465"/>
			<rect x="0" y="34.9757" width="28.3465" height="28.3465" class="st2"/>
			<text x="4.83" y="51.55" class="st3" v:langID="1044"><v:paragraph v:horizAlign="1"/><v:tabList/>[Sp2]</text>		</g>
		<g id="shape43-108" v:mID="43" v:groupContext="shape" transform="translate(422.602,-0.72)">
			<title>Sheet.43</title>
			<desc>(St/IDLE)</desc>
			<v:textBlock v:margins="rect(4,4,4,4)"/>
			<v:textRect cx="21.2598" cy="49.149" width="42.52" height="28.3465"/>
			<rect x="0" y="34.9757" width="42.5197" height="28.3465" class="st2"/>
			<text x="4.81" y="51.55" class="st3" v:langID="1044"><v:paragraph v:horizAlign="1"/><v:tabList/>(St/IDLE)</text>		</g>
		<g id="shape44-111" v:mID="44" v:groupContext="shape" transform="translate(-20.5625,22.9172) rotate(-90)">
			<title>Sheet.44</title>
			<path d="M0 63.32 L22.68 63.32" class="st1"/>
		</g>
		<g id="shape45-114" v:mID="45" v:groupContext="shape" transform="translate(347.941,22.9172) rotate(-90)">
			<title>Sheet.45</title>
			<path d="M0 63.32 L22.68 63.32" class="st1"/>
		</g>
		<g id="shape240-117" v:mID="240" v:groupContext="shape" transform="translate(326.224,-0.72)">
			<title>Sheet.240</title>
			<path d="M42.52 34.98 L28.35 63.32 L14.17 63.32 L0 34.98" class="st1"/>
		</g>
		<g id="shape36-120" v:mID="36" v:groupContext="shape" transform="translate(85.2794,-0.72)">
			<title>Sheet.36</title>
			<path d="M0 34.98 L325.98 34.98 L340.16 63.32 L379.84 63.32" class="st1"/>
		</g>
		<g id="shape241-123" v:mID="241" v:groupContext="shape" transform="translate(333.311,-0.72)">
			<title>Sheet.241</title>
			<desc>[P]</desc>
			<v:textBlock v:margins="rect(4,4,4,4)"/>
			<v:textRect cx="14.1732" cy="49.149" width="28.35" height="28.3465"/>
			<rect x="0" y="34.9757" width="28.3465" height="28.3465" class="st2"/>
			<text x="9.28" y="51.55" class="st3" v:langID="1044"><v:paragraph v:horizAlign="1"/><v:tabList/>[P]</text>		</g>
		<g id="shape242-126" v:mID="242" v:groupContext="shape" transform="translate(42.7597,-51.7436)">
			<title>Sheet.242</title>
			<desc>Frame</desc>
			<v:textBlock v:margins="rect(4,4,4,4)" v:tabSpace="42.5197"/>
			<v:textRect cx="184.252" cy="63.3222" width="368.51" height="0"/>
			<path d="M7.92 63.32 L8.28 63.32 L360.22 63.32" class="st4"/>
			<rect v:rectContext="textBkgnd" x="172.695" y="58.5223" width="23.1133" height="9.59985" class="st6"/>
			<text x="172.7" y="65.72" class="st3" v:langID="1044"><v:paragraph v:horizAlign="1"/><v:tabList/>Frame</text>		</g>
	</g>
</svg>
